<svg width="32" height="33" viewBox="0 0 32 33" fill="none" xmlns="http://www.w3.org/2000/svg">
<path d="M32 16.5C32 7.66344 24.8366 0.5 16 0.5C7.16344 0.5 0 7.66344 0 16.5C0 25.3366 7.16344 32.5 16 32.5C24.8366 32.5 32 25.3366 32 16.5Z" fill="#96A5B5"/>
<path d="M14.552 16.212C14.096 16.212 13.736 16.612 13.736 17.1C13.736 17.588 14.104 17.988 14.552 17.988C15.008 17.988 15.368 17.588 15.368 17.1C15.376 16.612 15.008 16.212 14.552 16.212ZM17.472 16.212C17.016 16.212 16.656 16.612 16.656 17.1C16.656 17.588 17.024 17.988 17.472 17.988C17.928 17.988 18.288 17.588 18.288 17.1C18.288 16.612 17.928 16.212 17.472 16.212Z" fill="white"/>
<path d="M21.36 9.5H10.64C9.736 9.5 9 10.236 9 11.148V21.964C9 22.876 9.736 23.612 10.64 23.612H19.712L19.288 22.132L20.312 23.084L21.28 23.98L23 25.5V11.148C23 10.236 22.264 9.5 21.36 9.5ZM18.272 19.948C18.272 19.948 17.984 19.604 17.744 19.3C18.792 19.004 19.192 18.348 19.192 18.348C18.864 18.564 18.552 18.716 18.272 18.82C17.872 18.988 17.488 19.1 17.112 19.164C16.344 19.308 15.64 19.268 15.04 19.156C14.584 19.068 14.192 18.94 13.864 18.812C13.68 18.74 13.48 18.652 13.28 18.54C13.256 18.524 13.232 18.516 13.208 18.5C13.192 18.492 13.184 18.484 13.176 18.476C13.032 18.396 12.952 18.34 12.952 18.34C12.952 18.34 13.336 18.98 14.352 19.284C14.112 19.588 13.816 19.948 13.816 19.948C12.048 19.892 11.376 18.732 11.376 18.732C11.376 16.156 12.528 14.068 12.528 14.068C13.68 13.204 14.776 13.228 14.776 13.228L14.856 13.324C13.416 13.74 12.752 14.372 12.752 14.372C12.752 14.372 12.928 14.276 13.224 14.14C14.08 13.764 14.76 13.66 15.04 13.636C15.088 13.628 15.128 13.62 15.176 13.62C15.664 13.556 16.216 13.54 16.792 13.604C17.552 13.692 18.368 13.916 19.2 14.372C19.2 14.372 18.568 13.772 17.208 13.356L17.32 13.228C17.32 13.228 18.416 13.204 19.568 14.068C19.568 14.068 20.72 16.156 20.72 18.732C20.72 18.732 20.04 19.892 18.272 19.948Z" fill="white"/>
</svg>
