<svg width="32" height="33" viewBox="0 0 32 33" fill="none" xmlns="http://www.w3.org/2000/svg">
<path d="M0 16.5C0 25.3366 7.16344 32.5 16 32.5C24.8366 32.5 32 25.3366 32 16.5C32 7.66344 24.8366 0.5 16 0.5C7.16344 0.5 0 7.66344 0 16.5Z" fill="#96A5B5"/>
<path d="M24 16.5C24 12.1 20.4 8.5 16 8.5C11.6 8.5 8 12.1 8 16.5C8 20.5 10.9 23.8 14.7 24.4V18.8H12.7V16.5H14.7V14.7C14.7 12.7 15.9 11.6 17.7 11.6C18.6 11.6 19.5 11.8 19.5 11.8V13.8H18.5C17.5 13.8 17.2 14.4 17.2 15V16.5H19.4L19 18.8H17.1V24.5C21.1 23.9 24 20.5 24 16.5Z" fill="white"/>
</svg>
