<svg width="32" height="32" viewBox="0 0 32 32" fill="none" xmlns="http://www.w3.org/2000/svg">
<path fill-rule="evenodd" clip-rule="evenodd" d="M32 16C32 24.8366 24.8366 32 16 32C7.16344 32 0 24.8366 0 16C0 7.16344 7.16344 0 16 0C24.8366 0 32 7.16344 32 16ZM23.9291 10.8583C24.5529 10.8583 24.6938 11.1802 24.5529 11.6229C24.3331 12.6375 22.5076 15.3288 21.9422 16.1623C21.8347 16.3207 21.7728 16.4121 21.776 16.4121C21.5547 16.7743 21.4742 16.9352 21.776 17.3377C21.8851 17.4865 22.1165 17.7135 22.3809 17.973C22.6529 18.2399 22.9598 18.5411 23.2047 18.8267C24.0901 19.8329 24.7742 20.678 24.9553 21.2616C25.1163 21.8451 24.8346 22.1469 24.2309 22.1469H22.1583C21.6091 22.1469 21.3259 21.8315 20.7225 21.1593C20.4638 20.871 20.1462 20.5172 19.7235 20.0945C18.496 18.9072 17.9527 18.7463 17.6509 18.7463C17.2283 18.7463 17.1076 18.8469 17.1076 19.4505V21.3219C17.1076 21.825 16.9466 22.1268 15.6185 22.1268C13.4252 22.1268 10.9904 20.7987 9.27996 18.3237C6.70429 14.7016 6 11.965 6 11.4217C6 11.1198 6.10061 10.8381 6.70429 10.8381H8.79702C9.3202 10.8381 9.52143 11.0595 9.72265 11.643C10.7489 14.601 12.4593 17.1968 13.1636 17.1968C13.4252 17.1968 13.5459 17.0761 13.5459 16.4121V13.3534C13.4962 12.4841 13.1936 12.1053 12.9692 11.8244C12.83 11.6502 12.7209 11.5136 12.7209 11.3211C12.7209 11.0796 12.9221 10.8381 13.2441 10.8381H16.5039C16.9466 10.8381 17.1076 11.0796 17.1076 11.6028V15.7279C17.1076 16.1706 17.2887 16.3316 17.4295 16.3316C17.6911 16.3316 17.9125 16.1706 18.3954 15.6876C19.8845 14.0175 20.951 11.4418 20.951 11.4418C21.0918 11.14 21.3333 10.8583 21.8565 10.8583H23.9291Z" fill="white"/>
</svg>
