<?xml version="1.0" standalone="no"?>
<!DOCTYPE svg PUBLIC "-//W3C//DTD SVG 20010904//EN"
 "http://www.w3.org/TR/2001/REC-SVG-20010904/DTD/svg10.dtd">
<svg version="1.0" xmlns="http://www.w3.org/2000/svg"
 width="110.000000pt" height="110.000000pt" viewBox="0 0 110.000000 110.000000"
 preserveAspectRatio="xMidYMid meet">
<metadata>
Created by potrace 1.11, written by Peter Selinger 2001-2013
</metadata>
<g transform="translate(0.000000,110.000000) scale(0.100000,-0.100000)"
fill="#000000" stroke="none">
<path d="M246 1015 c-5 -15 48 -127 57 -118 4 3 7 1 7 -5 0 -7 14 -27 31 -45
33 -33 61 -86 53 -99 -3 -5 -1 -8 5 -8 6 0 7 -8 4 -17 -9 -23 -8 -66 1 -81 4
-7 2 -12 -4 -12 -6 0 -8 -5 -5 -10 5 -8 12 -7 22 2 15 12 15 11 2 -9 -8 -13
-17 -23 -20 -23 -8 0 -5 -42 4 -57 4 -6 3 -14 -3 -18 -6 -4 -7 -11 -4 -17 6
-10 9 -80 4 -93 -3 -6 -7 -22 -9 -33 -3 -16 -48 -35 -93 -38 -35 -2 -54 3 -73
18 -21 17 -29 18 -38 8 -8 -9 -8 -11 -1 -7 7 4 19 -3 27 -16 8 -12 35 -33 61
-46 25 -13 46 -29 46 -34 0 -6 3 -7 7 -4 3 4 20 -4 37 -16 52 -39 54 -39 71
-7 48 93 195 57 197 -48 0 -15 -1 -33 -3 -41 -2 -7 2 -16 10 -19 8 -3 11 0 7
7 -4 6 -2 11 3 11 6 0 11 7 11 15 0 8 4 15 9 15 5 0 14 13 21 30 7 17 16 30
20 30 3 0 11 15 17 34 8 27 8 33 -2 30 -7 -3 -15 1 -18 10 -3 8 0 17 8 20 8 3
15 0 17 -6 6 -18 37 -1 48 24 5 13 9 19 9 15 1 -4 17 8 38 28 20 19 39 35 42
35 7 0 12 30 14 90 1 19 8 41 14 48 15 16 17 46 3 37 -5 -3 -10 3 -10 14 0 11
-4 23 -10 26 -5 3 -10 15 -10 27 0 27 -60 149 -77 155 -7 3 -13 11 -13 19 0 8
-5 14 -10 14 -6 0 -14 8 -17 17 -7 18 -146 157 -160 160 -4 1 -9 -12 -10 -28
-4 -54 -48 -79 -128 -73 -85 6 -120 20 -169 67 -22 21 -37 30 -40 22z m319
-151 c77 -36 136 -133 150 -244 2 -16 6 -34 10 -40 3 -5 1 -10 -5 -10 -7 0 -8
-5 -3 -12 11 -18 11 -30 1 -50 -6 -12 -5 -18 2 -18 8 0 8 -6 0 -20 -6 -11 -8
-20 -5 -20 3 0 -1 -13 -9 -29 -9 -16 -13 -31 -11 -33 3 -3 -7 -15 -21 -29 -21
-19 -36 -24 -79 -23 -54 0 -111 26 -100 45 4 5 10 7 15 4 16 -10 20 13 6 41
-11 22 -14 73 -13 204 1 96 5 180 10 187 8 13 -1 43 -14 43 -5 0 -9 5 -9 10 0
15 38 12 75 -6z"/>
<path d="M443 996 c0 -18 59 -15 64 4 4 12 3 13 -5 1 -8 -11 -11 -11 -16 0 -5
11 -7 11 -12 1 -4 -9 -10 -10 -18 -3 -9 8 -13 7 -13 -3z"/>
<path d="M289 667 c7 -7 14 -8 21 -1 6 6 2 10 -12 11 -16 2 -18 -1 -9 -10z"/>
<path d="M525 191 c-3 -5 2 -16 10 -24 8 -9 15 -21 15 -27 0 -6 4 -8 10 -5 6
4 4 17 -5 36 -17 31 -21 34 -30 20z"/>
</g>
</svg>
