<svg width="32" height="33" viewBox="0 0 32 33" fill="none" xmlns="http://www.w3.org/2000/svg">
<path d="M0 16.5C0 25.3366 7.16344 32.5 16 32.5C24.8366 32.5 32 25.3366 32 16.5C32 7.66344 24.8366 0.5 16 0.5C7.16344 0.5 0 7.66344 0 16.5Z" fill="#96A5B5"/>
<path d="M8.09992 16.2083C12.3949 14.3371 15.2589 13.1034 16.6919 12.5074C20.7834 10.8056 21.6335 10.51 22.1877 10.5001C22.3095 10.4981 22.582 10.5283 22.7586 10.6715C22.9076 10.7924 22.9486 10.9558 22.9683 11.0705C22.9879 11.1851 23.0123 11.4464 22.9929 11.6505C22.7712 13.9801 21.8118 19.6335 21.3237 22.2427C21.1172 23.3468 20.7105 23.717 20.3168 23.7532C19.4613 23.8319 18.8116 23.1878 17.9829 22.6446C16.6862 21.7946 15.9537 21.2654 14.695 20.436C13.2404 19.4774 14.1834 18.9506 15.0124 18.0896C15.2293 17.8643 18.999 14.4355 19.0719 14.1244C19.0811 14.0855 19.0895 13.9405 19.0034 13.8639C18.9172 13.7874 18.7901 13.8136 18.6983 13.8344C18.5683 13.8639 16.4968 15.2331 12.4839 17.9419C11.8959 18.3457 11.3633 18.5424 10.8862 18.5321C10.3601 18.5207 9.34822 18.2346 8.59598 17.9901C7.67333 17.6902 6.94002 17.5316 7.00388 17.0223C7.03714 16.757 7.40248 16.4856 8.09992 16.2083Z" fill="white"/>
</svg>
