<svg width="32" height="33" viewBox="0 0 32 33" fill="none" xmlns="http://www.w3.org/2000/svg">
<path d="M32 16.5C32 7.66344 24.8366 0.5 16 0.5C7.16344 0.5 0 7.66344 0 16.5C0 25.3366 7.16344 32.5 16 32.5C24.8366 32.5 32 25.3366 32 16.5Z" fill="#96A5B5"/>
<path d="M8 16.18C8 12.5587 8 10.7507 9.12 9.62C10.256 8.5 12.064 8.5 15.68 8.5H16.32C19.9413 8.5 21.7493 8.5 22.88 9.62C24 10.756 24 12.564 24 16.18V16.82C24 20.4413 24 22.2493 22.88 23.38C21.744 24.5 19.936 24.5 16.32 24.5H15.68C12.0587 24.5 10.2507 24.5 9.12 23.38C8 22.244 8 20.436 8 16.82V16.18Z" fill="white"/>
<path d="M16.5116 20.0253C12.8636 20.0253 10.7836 17.5293 10.6982 13.3693H12.5329C12.5916 16.42 13.9356 17.7107 15.0022 17.9773V13.3693H16.7249V15.9987C17.7756 15.8867 18.8849 14.6867 19.2582 13.364H20.9756C20.8355 14.0487 20.5558 14.6971 20.1539 15.2688C19.752 15.8405 19.2365 16.3232 18.6396 16.6867C19.3057 17.0182 19.8939 17.4872 20.3655 18.0627C20.8371 18.6382 21.1814 19.3071 21.3756 20.0253H19.4822C19.0769 18.7613 18.0636 17.78 16.7249 17.6467V20.0253H16.5169H16.5116Z" fill="#96A5B5"/>
</svg>
