<?xml version="1.0" standalone="no"?>
<!DOCTYPE svg PUBLIC "-//W3C//DTD SVG 1.1//EN" "http://www.w3.org/Graphics/SVG/1.1/DTD/svg11.dtd" >
<svg>
<metadata>
Created by FontForge 20090622 at Mon Aug 10 11:53:22 2020
 By deploy user
Copyright &#194;&#169; 2010 Linotype GmbH, www.linotype.com. All rights reserved. This font software may not be reproduced, modified, disclosed or transferred without the express written approval of Linotype GmbH.
</metadata>
<defs>
<font id="DINNextW1G-Bold" horiz-adv-x="556" >
  <font-face 
    font-family="DIN Next W1G"
    font-weight="700"
    font-stretch="normal"
    units-per-em="1000"
    panose-1="2 11 8 3 2 2 3 5 2 3"
    ascent="781"
    descent="-219"
    x-height="484"
    cap-height="680"
    bbox="-225.231 -238 1076 925"
    underline-thickness="50"
    underline-position="-50"
    unicode-range="U+000D-U+FB04"
  />
<missing-glyph horiz-adv-x="506" 
d="M0 10v660q0 10 10 10h486q10 0 10 -10v-660q0 -10 -10 -10h-486q-10 0 -10 10zM69 609v-538q0 -6 6 -6h356q6 0 6 6v538q0 6 -6 6h-356q-6 0 -6 -6zM277 243h-68q-10 0 -10 10v24q0 29 19 54l46 60q23 31 23 52q0 18 -11.5 30t-29.5 12q-38 0 -48 -39q-2 -11 -11 -9
l-65 10q-10 0 -8 11q9 49 44.5 77t91.5 28t91.5 -33t35.5 -84q0 -45 -32 -82l-45 -60q-13 -17 -13 -38v-13q0 -10 -10 -10zM198 124v67q0 10 10 10h71q10 0 10 -10v-67q0 -10 -10 -10h-71q-10 0 -10 10z" />
    <glyph glyph-name="IJ" unicode="IJ" horiz-adv-x="798" 
d="M298 76q-5 8 1 14l93 71q8 5 14 -2q34 -40 83 -40q48 0 74 30.5t26 87.5v433q0 10 10 10h127q10 0 10 -10v-426q0 -123 -65 -189t-183 -66q-60 0 -113 24.5t-77 62.5zM65 10v660q0 10 10 10h127q10 0 10 -10v-660q0 -10 -10 -10h-127q-10 0 -10 10z" />
    <glyph glyph-name="ij" unicode="ij" horiz-adv-x="532" 
d="M459 561h-120q-10 0 -10 10v99q0 10 10 10h120q10 0 10 -10v-99q0 -10 -10 -10zM288 -180h-33q-10 0 -10 10v98q0 10 10 10h20q30 0 42 12t12 44v480q0 10 10 10h120q10 0 10 -10v-479q0 -175 -181 -175zM193 561h-120q-10 0 -10 10v99q0 10 10 10h120q10 0 10 -10v-99
q0 -10 -10 -10zM193 0h-120q-10 0 -10 10v464q0 10 10 10h120q10 0 10 -10v-464q0 -10 -10 -10z" />
    <glyph glyph-name="napostrophe" unicode="&#x22;n" horiz-adv-x="553" 
d="M484 0h-120q-10 0 -10 10v278q0 42 -19.5 65t-55.5 23t-56 -24t-20 -64v-278q0 -10 -10 -10h-120q-10 0 -10 10v464q0 10 10 10h120q10 0 10 -10v-34h1q40 55 125 55q78 0 121.5 -49t43.5 -131v-305q0 -10 -10 -10zM-19 488q-11 0 -11 11v171q0 10 10 10h96q10 0 10 -10
v-84q0 -12 -8 -20l-82 -71q-7 -7 -15 -7z" />
    <glyph glyph-name="f_f" unicode="ff" horiz-adv-x="678" 
d="M210 0h-119q-10 0 -10 10v365q0 6 -6 6h-30q-10 0 -10 10v83q0 10 10 10h30q6 0 6 6v23q0 87 41 127t129 40h55q10 0 10 -10v-94q0 -10 -10 -10h-31q-33 0 -44 -10.5t-11 -41.5v-24q0 -6 6 -6h79q10 0 10 -10v-83q0 -10 -10 -10h-79q-6 0 -6 -6v-365q0 -10 -10 -10z
M549 0h-119q-10 0 -10 10v365q0 6 -6 6h-30q-10 0 -10 10v83q0 10 10 10h30q6 0 6 6v23q0 87 41 127t129 40h55q10 0 10 -10v-94q0 -10 -10 -10h-31q-33 0 -44 -10.5t-11 -41.5v-24q0 -6 6 -6h79q10 0 10 -10v-83q0 -10 -10 -10h-79q-6 0 -6 -6v-365q0 -10 -10 -10z" />
    <glyph glyph-name="fi" unicode="fi" horiz-adv-x="605" 
d="M210 0h-119q-10 0 -10 10v365q0 6 -6 6h-30q-10 0 -10 10v83q0 10 10 10h30q6 0 6 6v23q0 87 41 127t129 40h55q10 0 10 -10v-94q0 -10 -10 -10h-31q-33 0 -44 -10.5t-11 -41.5v-24q0 -6 6 -6h79q10 0 10 -10v-83q0 -10 -10 -10h-79q-6 0 -6 -6v-365q0 -10 -10 -10z
M532 561h-120q-10 0 -10 10v99q0 10 10 10h120q10 0 10 -10v-99q0 -10 -10 -10zM532 0h-120q-10 0 -10 10v464q0 10 10 10h120q10 0 10 -10v-464q0 -10 -10 -10z" />
    <glyph glyph-name="fl" unicode="fl" horiz-adv-x="643" 
d="M210 0h-119q-10 0 -10 10v365q0 6 -6 6h-30q-10 0 -10 10v83q0 10 10 10h30q6 0 6 6v23q0 87 41 127t129 40h55q10 0 10 -10v-94q0 -10 -10 -10h-31q-33 0 -44 -10.5t-11 -41.5v-24q0 -6 6 -6h79q10 0 10 -10v-83q0 -10 -10 -10h-79q-6 0 -6 -6v-365q0 -10 -10 -10z
M603 -6h-53q-80 0 -115 36.5t-35 117.5v522q0 10 10 10h120q10 0 10 -10v-511q0 -46 42 -46h21q10 0 10 -10v-99q0 -10 -10 -10z" />
    <glyph glyph-name="f_f_i" unicode="ffi" horiz-adv-x="944" 
d="M210 0h-119q-10 0 -10 10v365q0 6 -6 6h-30q-10 0 -10 10v83q0 10 10 10h30q6 0 6 6v23q0 87 41 127t129 40h55q10 0 10 -10v-94q0 -10 -10 -10h-31q-33 0 -44 -10.5t-11 -41.5v-24q0 -6 6 -6h79q10 0 10 -10v-83q0 -10 -10 -10h-79q-6 0 -6 -6v-365q0 -10 -10 -10z
M549 0h-119q-10 0 -10 10v365q0 6 -6 6h-30q-10 0 -10 10v83q0 10 10 10h30q6 0 6 6v23q0 87 41 127t129 40h55q10 0 10 -10v-94q0 -10 -10 -10h-31q-33 0 -44 -10.5t-11 -41.5v-24q0 -6 6 -6h79q10 0 10 -10v-83q0 -10 -10 -10h-79q-6 0 -6 -6v-365q0 -10 -10 -10zM871 561
h-120q-10 0 -10 10v99q0 10 10 10h120q10 0 10 -10v-99q0 -10 -10 -10zM871 0h-120q-10 0 -10 10v464q0 10 10 10h120q10 0 10 -10v-464q0 -10 -10 -10z" />
    <glyph glyph-name="f_f_l" unicode="ffl" horiz-adv-x="982" 
d="M210 0h-119q-10 0 -10 10v365q0 6 -6 6h-30q-10 0 -10 10v83q0 10 10 10h30q6 0 6 6v23q0 87 41 127t129 40h55q10 0 10 -10v-94q0 -10 -10 -10h-31q-33 0 -44 -10.5t-11 -41.5v-24q0 -6 6 -6h79q10 0 10 -10v-83q0 -10 -10 -10h-79q-6 0 -6 -6v-365q0 -10 -10 -10z
M549 0h-119q-10 0 -10 10v365q0 6 -6 6h-30q-10 0 -10 10v83q0 10 10 10h30q6 0 6 6v23q0 87 41 127t129 40h55q10 0 10 -10v-94q0 -10 -10 -10h-31q-33 0 -44 -10.5t-11 -41.5v-24q0 -6 6 -6h79q10 0 10 -10v-83q0 -10 -10 -10h-79q-6 0 -6 -6v-365q0 -10 -10 -10zM942 -6
h-53q-80 0 -115 36.5t-35 117.5v522q0 10 10 10h120q10 0 10 -10v-511q0 -46 42 -46h21q10 0 10 -10v-99q0 -10 -10 -10z" />
    <glyph glyph-name=".notdef" horiz-adv-x="506" 
d="M0 10v660q0 10 10 10h486q10 0 10 -10v-660q0 -10 -10 -10h-486q-10 0 -10 10zM69 609v-538q0 -6 6 -6h356q6 0 6 6v538q0 6 -6 6h-356q-6 0 -6 -6zM277 243h-68q-10 0 -10 10v24q0 29 19 54l46 60q23 31 23 52q0 18 -11.5 30t-29.5 12q-38 0 -48 -39q-2 -11 -11 -9
l-65 10q-10 0 -8 11q9 49 44.5 77t91.5 28t91.5 -33t35.5 -84q0 -45 -32 -82l-45 -60q-13 -17 -13 -38v-13q0 -10 -10 -10zM198 124v67q0 10 10 10h71q10 0 10 -10v-67q0 -10 -10 -10h-71q-10 0 -10 10z" />
    <glyph glyph-name=".null" horiz-adv-x="0" 
 />
    <glyph glyph-name="nonmarkingreturn" horiz-adv-x="333" 
 />
    <glyph glyph-name="NULL" horiz-adv-x="500" 
 />
    <glyph glyph-name="NULL" horiz-adv-x="500" 
 />
    <glyph glyph-name="CR" unicode="&#xd;" horiz-adv-x="0" 
 />
    <glyph glyph-name="space" unicode=" " horiz-adv-x="236" 
 />
    <glyph glyph-name="exclam" unicode="!" horiz-adv-x="312" 
d="M197 199h-82q-10 0 -10 10l-24 461q0 10 10 10h130q10 0 10 -10l-24 -461q0 -10 -10 -10zM86 10v114q0 10 10 10h120q10 0 10 -10v-114q0 -10 -10 -10h-120q-10 0 -10 10z" />
    <glyph glyph-name="quotedbl" unicode="&#x22;" horiz-adv-x="374" 
d="M306 472h-79q-10 0 -10 10v188q0 10 10 10h79q10 0 10 -10v-188q0 -10 -10 -10zM147 472h-79q-10 0 -10 10v188q0 10 10 10h79q10 0 10 -10v-188q0 -10 -10 -10z" />
    <glyph glyph-name="numbersign" unicode="#" horiz-adv-x="548" 
d="M66 10l25 185h-63q-10 0 -10 10v79q0 10 10 10h76l14 102h-64q-10 0 -10 10v79q0 10 10 10h78l24 175q1 10 11 10h89q10 0 9 -10l-24 -175h104l24 175q1 10 11 10h89q10 0 9 -10l-24 -175h66q10 0 10 -10v-79q0 -10 -10 -10h-80l-14 -102h68q10 0 10 -10v-79
q0 -10 -10 -10h-81l-25 -185q-1 -10 -11 -10h-89q-10 0 -9 10l25 185h-104l-25 -185q-1 -10 -11 -10h-89q-10 0 -9 10zM227 396l-14 -102h104l14 102h-104z" />
    <glyph glyph-name="dollar" unicode="$" 
d="M61 63q-9 8 -2 15l68 84q7 8 13 2q54 -45 120 -53v171q-88 14 -138 65.5t-50 131.5q0 85 52 141q53 59 136 69v59q0 10 10 10h46q10 0 10 -10v-59q88 -7 159 -54q8 -6 2 -15l-58 -84q-6 -8 -14 -3q-45 27 -89 35v-161q93 -15 141 -66t48 -133q0 -87 -50.5 -144.5
t-138.5 -70.5v-61q0 -10 -10 -10h-46q-10 0 -10 10v58q-114 6 -199 73zM260 420v143q-50 -20 -50 -73q0 -52 50 -70zM326 268v-150q51 20 51 83q0 48 -51 67z" />
    <glyph glyph-name="percent" unicode="%" horiz-adv-x="814" 
d="M158 -1l395 682q6 10 16 10h84q10 0 4 -10l-395 -682q-6 -10 -16 -10h-83q-11 0 -5 10zM69 412q-9 26 -9 97t9 97q13 38 47 60t82 22t82 -22t47 -60q9 -26 9 -97t-9 -97q-13 -38 -47 -60t-82 -22t-82 22t-47 60zM233 432q4 9 4 77t-4 77q-8 23 -35 23t-35 -23
q-4 -9 -4 -77t4 -77q8 -23 35 -23t35 23zM487 74q-9 26 -9 96q0 72 9 97q13 38 47 60t82 22t82 -22t47 -60q9 -30 9 -97q0 -66 -9 -96q-13 -39 -47 -61t-82 -22t-82 22t-47 61zM581 94q7 -24 35 -24t35 24q4 8 4 76t-4 77q-8 23 -35 23t-35 -23q-4 -9 -4 -77t4 -76z" />
    <glyph glyph-name="ampersand" unicode="&#x26;" horiz-adv-x="648" 
d="M54 172q0 57 29 105t97 101q-41 53 -57 85.5t-16 66.5q0 70 52 115q52 46 128 46q79 0 128 -46t49 -113q0 -46 -25.5 -84t-88.5 -87l89 -113l66 76q7 8 14 1l69 -58q7 -6 1 -14l-80 -95l18 -22q17 -21 39 -21h15q10 0 10 -10v-95q0 -10 -10 -10h-42q-37 0 -59.5 11.5
t-47.5 43.5l-8 9q-80 -75 -174 -75q-91 0 -143.5 50t-52.5 133zM279 451q35 27 48.5 45t13.5 37q0 23 -15 38.5t-38 15.5q-24 0 -38.5 -15t-14.5 -39q0 -26 44 -82zM182 183q0 -35 21 -56t57 -21q46 0 95 48l-104 134q-69 -56 -69 -105z" />
    <glyph glyph-name="quotesingle" unicode="'" horiz-adv-x="215" 
d="M147 472h-79q-10 0 -10 10v188q0 10 10 10h79q10 0 10 -10v-188q0 -10 -10 -10z" />
    <glyph glyph-name="parenleft" unicode="(" horiz-adv-x="311" 
d="M180 -74q-129 177 -129 402q0 224 129 402q7 10 16 10h72q10 0 6 -10q-90 -186 -90 -402t90 -402q4 -10 -6 -10h-72q-9 0 -16 10z" />
    <glyph glyph-name="parenright" unicode=")" horiz-adv-x="311" 
d="M42 -74q90 186 90 402t-90 402q-4 10 6 10h72q9 0 16 -10q129 -178 129 -402q0 -225 -129 -402q-7 -10 -16 -10h-72q-10 0 -6 10z" />
    <glyph glyph-name="asterisk" unicode="*" horiz-adv-x="367" 
d="M216 374h-55q-10 0 -10 10l1 80l-69 -41q-10 -5 -14 4l-27 48q-5 10 4 14l69 38l-69 39q-9 4 -4 14l27 48q5 8 14 3l69 -41l-1 80q0 10 10 10h55q10 0 10 -10l-2 -80l69 41q9 5 14 -3l27 -48q5 -9 -3 -14l-70 -39l70 -38q9 -4 4 -14l-28 -48q-4 -9 -14 -4l-69 41l2 -80
q0 -10 -10 -10z" />
    <glyph glyph-name="plus" unicode="+" 
d="M217 59v152q0 6 -6 6h-150q-10 0 -10 10v98q0 10 10 10h150q6 0 6 6v152q0 10 10 10h102q10 0 10 -10v-152q0 -6 6 -6h150q10 0 10 -10v-98q0 -10 -10 -10h-150q-6 0 -6 -6v-152q0 -10 -10 -10h-102q-10 0 -10 10z" />
    <glyph glyph-name="comma" unicode="," horiz-adv-x="253" 
d="M60 -97v227q0 10 10 10h113q10 0 10 -10v-121q0 -11 -9 -20l-99 -90q-7 -7 -15 -7q-10 0 -10 11z" />
    <glyph glyph-name="hyphen" unicode="-" horiz-adv-x="392" 
d="M340 204h-288q-10 0 -10 10v102q0 10 10 10h288q10 0 10 -10v-102q0 -10 -10 -10z" />
    <glyph glyph-name="period" unicode="." horiz-adv-x="259" 
d="M60 10v120q0 10 10 10h119q10 0 10 -10v-120q0 -10 -10 -10h-119q-10 0 -10 10z" />
    <glyph glyph-name="slash" unicode="/" horiz-adv-x="436" 
d="M48 -1l217 682q3 10 13 10h109q10 0 7 -10l-218 -682q-3 -10 -13 -10h-108q-10 0 -7 10z" />
    <glyph glyph-name="zero" unicode="0" 
d="M73 128q-15 45 -15 212t15 212q21 67 74 103t131 36t131 -36t74 -103q15 -45 15 -212t-15 -212q-21 -67 -74 -103t-131 -36t-131 36t-74 103zM209 153q15 -46 69 -46t69 46q8 26 8 187t-8 187q-15 46 -69 46t-69 -46q-8 -26 -8 -187t8 -187z" />
    <glyph glyph-name="one" unicode="1" 
d="M242 10v512h-2l-108 -74q-11 -8 -11 6v124q0 8 7 14l114 82q8 6 18 6h112q10 0 10 -10v-660q0 -10 -10 -10h-120q-10 0 -10 10z" />
    <glyph glyph-name="two" unicode="2" 
d="M66 10v93q0 7 5 14l239 284q40 46 40 94q0 35 -20 56.5t-54 21.5q-71 0 -80 -80q0 -10 -11 -8l-110 18q-10 1 -8 12q6 74 63 125t151 51q96 0 152 -55q57 -56 57 -139q0 -85 -69 -165l-179 -211v-2h238q10 0 10 -10v-99q0 -10 -10 -10h-404q-10 0 -10 10z" />
    <glyph glyph-name="three" unicode="3" 
d="M58 145q-1 10 8 13l110 21q9 1 12 -8q21 -64 89 -64q38 0 61 24.5t23 63.5q0 45 -25.5 70.5t-69.5 25.5h-29q-10 0 -10 10v97q0 10 10 10h27q38 0 61 23t23 62q0 36 -20.5 58t-56.5 22q-61 0 -77 -63q-3 -9 -12 -7l-109 21q-10 1 -8 11q12 71 69 113.5t144 42.5
q97 0 153.5 -51.5t56.5 -136.5q0 -91 -76 -140v-2q38 -18 63.5 -62t25.5 -103q0 -92 -63 -150q-62 -57 -159 -57q-88 0 -147.5 41.5t-73.5 114.5z" />
    <glyph glyph-name="four" unicode="4" 
d="M316 99h-265q-10 0 -10 10v102q0 6 2 12l204 449q5 8 14 8h127q10 0 7 -10l-204 -447v-3h125q6 0 6 6v147q0 10 10 10h116q10 0 10 -10v-147q0 -6 6 -6h45q10 0 10 -10v-101q0 -10 -10 -10h-45q-6 0 -6 -6v-83q0 -10 -10 -10h-116q-10 0 -10 10v83q0 6 -6 6z" />
    <glyph glyph-name="five" unicode="5" 
d="M73 139q-2 10 8 11l108 21q9 1 12 -8q21 -56 79 -56q56 0 71 48q8 22 8 66q0 45 -8 67q-15 47 -71 47q-50 0 -69 -39q-4 -10 -13 -10h-107q-10 0 -10 10v374q0 10 10 10h380q10 0 10 -10v-99q0 -10 -10 -10h-261q-6 0 -6 -6v-134h3q37 32 102 32q138 0 175 -115
q14 -45 14 -116q0 -60 -15 -106q-20 -60 -73 -93.5t-128 -33.5q-85 0 -143 41q-57 42 -66 109z" />
    <glyph glyph-name="six" unicode="6" 
d="M50 203q0 76 50 168l165 302q3 7 12 7h127q11 0 7 -10l-144 -263l2 -2q13 6 42 6q83 0 138 -57q57 -56 57 -148q0 -100 -65 -159q-64 -58 -163 -58q-100 0 -164 58t-64 156zM212 269q-24 -25 -24 -68t24 -68q26 -26 66 -26q41 0 65 26q25 25 25 68t-25 68q-24 27 -65 27
q-40 0 -66 -27z" />
    <glyph glyph-name="seven" unicode="7" 
d="M133 11l216 544v3h-143q-6 0 -6 -6v-71q0 -10 -10 -10h-111q-10 0 -10 10v189q0 10 10 10h407q10 0 10 -10v-104q0 -4 -2 -12l-216 -545q-4 -9 -14 -9h-125q-11 0 -6 11z" />
    <glyph glyph-name="eight" unicode="8" 
d="M48 196q0 104 81 159v2q-28 20 -47 56.5t-19 79.5q0 83 58 140q58 58 157 58t157 -58q58 -57 58 -140q0 -43 -19 -79.5t-47 -56.5v-2q81 -55 81 -159q0 -93 -65 -150t-165 -57t-165 57t-65 150zM356 493q0 34 -21.5 57t-56.5 23t-56.5 -23t-21.5 -57q0 -33 22.5 -56
t55.5 -23t55.5 23t22.5 56zM186 202q0 -42 25.5 -68.5t66.5 -26.5t66.5 26.5t25.5 68.5q0 41 -25.5 67.5t-66.5 26.5t-66.5 -26.5t-25.5 -67.5z" />
    <glyph glyph-name="nine" unicode="9" 
d="M145 10l144 263l-2 2q-13 -6 -42 -6q-81 0 -139 56q-56 58 -56 149q0 100 64 158q65 59 164 59q100 0 164 -58t64 -156q0 -76 -50 -168l-165 -302q-3 -7 -12 -7h-127q-11 0 -7 10zM212 410q26 -26 66 -26q41 0 65 26q25 26 25 69t-25 68q-24 26 -65 26q-40 0 -66 -26
q-24 -25 -24 -68q0 -42 24 -69z" />
    <glyph glyph-name="colon" unicode=":" horiz-adv-x="270" 
d="M195 345h-120q-10 0 -10 10v119q0 10 10 10h120q10 0 10 -10v-119q0 -10 -10 -10zM65 10v120q0 10 10 10h120q10 0 10 -10v-120q0 -10 -10 -10h-120q-10 0 -10 10z" />
    <glyph glyph-name="semicolon" unicode=";" horiz-adv-x="270" 
d="M195 345h-120q-10 0 -10 10v119q0 10 10 10h120q10 0 10 -10v-119q0 -10 -10 -10zM69 -97v227q0 10 10 10h113q10 0 10 -10v-121q0 -12 -8 -20l-100 -90q-7 -7 -15 -7q-10 0 -10 11z" />
    <glyph glyph-name="less" unicode="&#x3c;" 
d="M495 50l-434 170q-10 3 -10 14v84q0 11 10 14l434 170q10 3 10 -6v-109q0 -9 -10 -13l-265 -97v-2l265 -97q10 -4 10 -13v-109q0 -9 -10 -6z" />
    <glyph glyph-name="equal" unicode="=" 
d="M495 322h-434q-10 0 -10 10v98q0 10 10 10h434q10 0 10 -10v-98q0 -10 -10 -10zM495 112h-434q-10 0 -10 10v98q0 10 10 10h434q10 0 10 -10v-98q0 -10 -10 -10z" />
    <glyph glyph-name="greater" unicode="&#x3e;" 
d="M51 56v109q0 9 10 13l265 97v2l-265 97q-10 4 -10 13v109q0 9 10 6l434 -170q10 -3 10 -14v-84q0 -11 -10 -14l-434 -170q-10 -3 -10 6z" />
    <glyph glyph-name="question" unicode="?" horiz-adv-x="473" 
d="M288 199h-116q-10 0 -10 10v42q0 47 29 84l70 91q38 46 38 80q0 29 -18 47.5t-48 18.5q-62 0 -75 -70q-3 -10 -13 -9l-108 16q-10 1 -8 12q11 79 66.5 124.5t141.5 45.5q89 0 144 -52q57 -51 57 -128q0 -68 -53 -130l-67 -88q-20 -25 -20 -60v-24q0 -10 -10 -10zM160 10
v114q0 10 10 10h120q10 0 10 -10v-114q0 -10 -10 -10h-120q-10 0 -10 10z" />
    <glyph glyph-name="at" unicode="@" horiz-adv-x="910" 
d="M43 265q0 179 113 292q113 112 296 112t295 -112q114 -111 114 -289q0 -104 -51 -160q-51 -55 -127 -55q-91 0 -129 65h-1q-34 -64 -134 -64q-113 0 -143 95q-14 42 -14 116q0 75 14 115q30 96 135 96q77 0 108 -51h1v31q0 9 8 9h96q8 0 8 -9v-243q0 -30 14.5 -46.5
t38.5 -16.5q65 0 65 117q0 139 -81 221q-79 84 -217 84q-137 0 -218 -84q-80 -83 -80 -223q0 -137 80 -220q81 -83 218 -83q111 0 207 47q10 4 14 -4l36 -65q5 -8 -4 -13q-107 -63 -253 -63q-182 0 -295 112q-114 111 -114 289zM382 198q16 -46 66 -46q51 0 66 46q6 16 6 67
q0 49 -6 66q-15 47 -66 47q-49 0 -66 -47q-6 -19 -6 -66q0 -46 6 -67z" />
    <glyph glyph-name="A" unicode="A" horiz-adv-x="644" 
d="M17 10l234 660q3 10 13 10h126q10 0 13 -10l230 -660q3 -10 -7 -10h-130q-10 0 -13 10l-39 119h-238l-38 -119q-3 -10 -13 -10h-131q-10 0 -7 10zM324 492l-77 -238h157l-77 238h-3z" />
    <glyph glyph-name="B" unicode="B" horiz-adv-x="610" 
d="M65 10v660q0 10 10 10h265q106 0 161.5 -47.5t55.5 -133.5q0 -102 -79 -145v-2q38 -15 64.5 -57t26.5 -97q0 -98 -61 -148t-175 -50h-258q-10 0 -10 10zM218 402h104q42 0 65.5 21t23.5 59q0 37 -23.5 58t-65.5 21h-104q-6 0 -6 -6v-147q0 -6 6 -6zM212 283v-158
q0 -6 6 -6h112q45 0 68.5 22.5t23.5 62.5t-24 62.5t-68 22.5h-112q-6 0 -6 -6z" />
    <glyph glyph-name="C" unicode="C" horiz-adv-x="575" 
d="M66 156q-19 54 -19 184t19 184q27 81 89.5 124t152.5 43q86 0 147 -39t90 -112q5 -9 -5 -12l-109 -49q-10 -5 -14 5q-33 77 -108 77q-78 0 -102 -75q-11 -36 -11 -146t11 -146q24 -75 102 -75q75 0 108 77q4 10 14 5l109 -49q10 -3 5 -12q-29 -73 -90 -112t-147 -39
q-90 0 -152.5 43t-89.5 124z" />
    <glyph glyph-name="D" unicode="D" horiz-adv-x="630" 
d="M65 10v660q0 10 10 10h253q186 0 235 -153q18 -57 18 -187t-18 -187q-49 -153 -235 -153h-253q-10 0 -10 10zM212 543v-406q0 -6 6 -6h77q103 0 126 75q11 33 11 134t-11 134q-23 75 -126 75h-77q-6 0 -6 -6z" />
    <glyph glyph-name="E" unicode="E" horiz-adv-x="565" 
d="M65 10v660q0 10 10 10h436q10 0 10 -10v-107q0 -10 -10 -10h-293q-6 0 -6 -6v-135q0 -6 6 -6h244q10 0 10 -10v-106q0 -10 -10 -10h-244q-6 0 -6 -6v-141q0 -6 6 -6h293q10 0 10 -10v-107q0 -10 -10 -10h-436q-10 0 -10 10z" />
    <glyph glyph-name="F" unicode="F" horiz-adv-x="557" 
d="M65 10v660q0 10 10 10h436q10 0 10 -10v-107q0 -10 -10 -10h-293q-6 0 -6 -6v-143q0 -6 6 -6h244q10 0 10 -10v-106q0 -10 -10 -10h-244q-6 0 -6 -6v-256q0 -10 -10 -10h-127q-10 0 -10 10z" />
    <glyph glyph-name="G" unicode="G" horiz-adv-x="628" 
d="M66 154q-19 58 -19 186t19 186q26 80 91 122.5t159 42.5q89 0 153 -39t89 -106q5 -11 -4 -15l-107 -45q-11 -3 -14 5q-40 70 -117 70q-85 0 -109 -76q-11 -35 -11 -145q0 -111 11 -146q24 -75 111 -75q40 0 69.5 18.5t39.5 51.5q8 29 8 67q0 6 -6 6h-92q-10 0 -10 10v96
q0 10 10 10h234q10 0 10 -10v-56q0 -99 -17 -153q-25 -80 -91 -125t-157 -45q-94 0 -159 42.5t-91 122.5z" />
    <glyph glyph-name="H" unicode="H" horiz-adv-x="658" 
d="M65 10v660q0 10 10 10h127q10 0 10 -10v-255q0 -6 6 -6h222q6 0 6 6v255q0 10 10 10h127q10 0 10 -10v-660q0 -10 -10 -10h-127q-10 0 -10 10v262q0 6 -6 6h-222q-6 0 -6 -6v-262q0 -10 -10 -10h-127q-10 0 -10 10z" />
    <glyph glyph-name="I" unicode="I" horiz-adv-x="277" 
d="M65 10v660q0 10 10 10h127q10 0 10 -10v-660q0 -10 -10 -10h-127q-10 0 -10 10z" />
    <glyph glyph-name="J" unicode="J" horiz-adv-x="521" 
d="M26 76q-5 8 1 14l93 71q8 5 14 -2q34 -40 83 -40q48 0 74 30.5t26 87.5v433q0 10 10 10h127q10 0 10 -10v-426q0 -123 -65 -189t-183 -66q-60 0 -113 24.5t-77 62.5z" />
    <glyph glyph-name="K" unicode="K" horiz-adv-x="645" 
d="M65 10v660q0 10 10 10h127q10 0 10 -10v-294l226 295q6 9 17 9h145q13 0 4 -13l-206 -258l225 -397q7 -12 -6 -12h-147q-10 0 -15 9l-154 286l-89 -112v-173q0 -10 -10 -10h-127q-10 0 -10 10z" />
    <glyph glyph-name="L" unicode="L" horiz-adv-x="550" 
d="M65 10v660q0 10 10 10h127q10 0 10 -10v-533q0 -6 6 -6h300q10 0 10 -10v-111q0 -10 -10 -10h-443q-10 0 -10 10z" />
    <glyph glyph-name="M" unicode="M" horiz-adv-x="763" 
d="M65 10v660q0 10 10 10h119q12 0 16 -10l172 -388h4l169 388q4 10 16 10h117q10 0 10 -10v-660q0 -10 -10 -10h-113q-10 0 -10 10v383h-4l-126 -287q-6 -13 -19 -13h-69q-13 0 -19 13l-126 287h-4v-383q0 -10 -10 -10h-113q-10 0 -10 10z" />
    <glyph glyph-name="N" unicode="N" horiz-adv-x="655" 
d="M65 10v660q0 10 10 10h120q11 0 17 -10l240 -428h5v428q0 10 10 10h113q10 0 10 -10v-660q0 -10 -10 -10h-119q-11 0 -17 10l-241 427h-5v-427q0 -10 -10 -10h-113q-10 0 -10 10z" />
    <glyph glyph-name="O" unicode="O" horiz-adv-x="628" 
d="M66 154q-19 58 -19 186t19 186q26 80 91 122.5t157 42.5t157 -42.5t91 -122.5q19 -58 19 -186t-19 -186q-26 -80 -91 -122.5t-157 -42.5t-157 42.5t-91 122.5zM421 194q11 35 11 146t-11 146q-24 75 -107 75t-107 -75q-11 -35 -11 -146t11 -146q24 -75 107 -75t107 75z
" />
    <glyph glyph-name="P" unicode="P" horiz-adv-x="605" 
d="M202 0h-127q-10 0 -10 10v660q0 10 10 10h264q110 0 173 -60q64 -60 64 -159q0 -97 -64 -158q-64 -60 -173 -60h-121q-6 0 -6 -6v-227q0 -10 -10 -10zM218 370h112q46 0 72.5 24.5t26.5 66.5t-26.5 67t-72.5 25h-112q-6 0 -6 -6v-171q0 -6 6 -6z" />
    <glyph glyph-name="Q" unicode="Q" horiz-adv-x="628" 
d="M616 29l-80 -78q-8 -7 -15 0l-69 69q-61 -31 -138 -31q-92 0 -157 42.5t-91 122.5q-19 58 -19 186t19 186q26 80 91 122.5t157 42.5t157 -42.5t91 -122.5q19 -58 19 -186t-19 -186q-4 -13 -17 -41l71 -70q7 -7 0 -14zM314 118q23 0 36 4l-43 43q-7 7 0 14l80 76q7 7 15 0
l27 -27q4 28 4 112q0 112 -11 147q-24 75 -108 75t-108 -75q-11 -35 -11 -147t11 -147q24 -75 108 -75z" />
    <glyph glyph-name="R" unicode="R" horiz-adv-x="624" 
d="M583 0h-142q-11 0 -15 10l-117 249h-91q-6 0 -6 -6v-243q0 -10 -10 -10h-127q-10 0 -10 10v660q0 10 10 10h271q103 0 167 -59q64 -58 64 -152q0 -65 -32 -114.5t-89 -74.5l134 -268q2 -4 0 -8t-7 -4zM218 384h120q42 0 67 23t25 62q0 38 -25 61t-67 23h-120q-6 0 -6 -6
v-157q0 -6 6 -6z" />
    <glyph glyph-name="S" unicode="S" horiz-adv-x="595" 
d="M301 -11q-76 0 -149 26q-74 28 -113 67q-8 8 -1 17l76 87q6 8 15 1q88 -70 178 -70q51 0 81 22t30 59q0 33 -24 50.5t-81 25.5l-36 5q-215 30 -215 204q0 94 65 151q66 57 176 57q139 0 231 -71q9 -6 2 -15l-61 -91q-6 -8 -14 -3q-79 52 -158 52q-43 0 -67 -20t-24 -54
q0 -60 106 -75l36 -5q214 -28 214 -206q0 -98 -70.5 -156t-196.5 -58z" />
    <glyph glyph-name="T" unicode="T" horiz-adv-x="557" 
d="M342 0h-127q-10 0 -10 10v533q0 6 -6 6h-172q-10 0 -10 10v111q0 10 10 10h503q10 0 10 -10v-111q0 -10 -10 -10h-172q-6 0 -6 -6v-533q0 -10 -10 -10z" />
    <glyph glyph-name="U" unicode="U" horiz-adv-x="645" 
d="M323 -11q-117 0 -190 68q-71 69 -71 193v420q0 10 10 10h127q10 0 10 -10v-424q0 -59 31 -93t83 -34t82.5 33.5t30.5 93.5v424q0 10 10 10h127q10 0 10 -10v-420q0 -124 -72 -193q-71 -68 -188 -68z" />
    <glyph glyph-name="V" unicode="V" horiz-adv-x="595" 
d="M359 0h-116q-10 0 -13 10l-216 659q-3 11 9 11h130q10 0 13 -10l136 -446h3l132 446q3 10 13 10h129q11 0 8 -11l-216 -659q-3 -10 -12 -10z" />
    <glyph glyph-name="W" unicode="W" horiz-adv-x="865" 
d="M667 0h-100q-10 0 -13 10l-118 423h-2l-119 -423q-3 -10 -13 -10h-100q-9 0 -12 10l-176 660q-1 10 8 10h129q11 0 12 -10l98 -427h2l116 427q3 10 13 10h87q9 0 12 -10l120 -427h2l94 427q1 10 12 10h128q9 0 8 -10l-175 -660q-1 -10 -13 -10z" />
    <glyph glyph-name="X" unicode="X" horiz-adv-x="595" 
d="M578 0h-139q-11 0 -17 10l-121 207h-3l-122 -207q-6 -10 -17 -10h-138q-5 0 -7 4t1 8l203 339l-189 317q-6 12 6 12h139q10 0 16 -10l108 -184h3l108 184q6 10 16 10h139q12 0 6 -12l-190 -317l204 -339q6 -12 -6 -12z" />
    <glyph glyph-name="Y" unicode="Y" horiz-adv-x="568" 
d="M351 0h-127q-10 0 -10 10v261l-201 399q-4 10 7 10h130q11 0 15 -10l123 -248h3l123 248q4 10 15 10h126q5 0 7 -3t0 -7l-201 -399v-261q0 -10 -10 -10z" />
    <glyph glyph-name="Z" unicode="Z" horiz-adv-x="546" 
d="M496 0h-446q-10 0 -10 10v110q0 6 3 10l293 417v2h-275q-10 0 -10 10v111q0 10 10 10h435q10 0 10 -10v-110q0 -6 -3 -10l-294 -417v-2h287q10 0 10 -10v-111q0 -10 -10 -10z" />
    <glyph glyph-name="bracketleft" unicode="[" horiz-adv-x="302" 
d="M264 -84h-190q-10 0 -10 10v804q0 10 10 10h190q10 0 10 -10v-84q0 -10 -10 -10h-70q-6 0 -6 -6v-604q0 -6 6 -6h70q10 0 10 -10v-84q0 -10 -10 -10z" />
    <glyph glyph-name="backslash" unicode="\" horiz-adv-x="436" 
d="M387 -11h-109q-10 0 -13 10l-217 682q-3 10 7 10h108q10 0 13 -10l218 -682q3 -10 -7 -10z" />
    <glyph glyph-name="bracketright" unicode="]" horiz-adv-x="302" 
d="M228 -84h-190q-10 0 -10 10v84q0 10 10 10h70q6 0 6 6v604q0 6 -6 6h-70q-10 0 -10 10v84q0 10 10 10h190q10 0 10 -10v-804q0 -10 -10 -10z" />
    <glyph glyph-name="asciicircum" unicode="^" 
d="M502 253h-109q-10 0 -14 10l-97 248h-2l-98 -248q-3 -10 -13 -10h-109q-10 0 -7 10l171 407q4 10 14 10h86q10 0 14 -10l171 -407q3 -10 -7 -10z" />
    <glyph glyph-name="underscore" unicode="_" horiz-adv-x="520" 
d="M520 -64v-88h-520v88h520z" />
    <glyph glyph-name="grave" unicode="`" horiz-adv-x="454" 
d="M329 551h-92q-12 0 -19 10l-99 130q-3 4 -1.5 7t6.5 3h116q12 0 18 -10l76 -130q4 -10 -5 -10z" />
    <glyph glyph-name="a" unicode="a" horiz-adv-x="528" 
d="M458 0h-111q-10 0 -10 10v32h-1q-41 -53 -133 -53q-72 0 -116.5 38.5t-44.5 109.5q0 77 53 116.5t148 39.5h86q6 0 6 6v18q0 36 -22 51t-77 15q-67 0 -108 -31q-8 -6 -13 2l-45 79q-5 9 3 14q67 48 180 48q116 0 165.5 -41t49.5 -134v-310q0 -10 -10 -10zM245 94
q90 0 90 67v33q0 6 -6 6h-68q-86 0 -86 -55q0 -51 70 -51z" />
    <glyph glyph-name="b" unicode="b" horiz-adv-x="551" 
d="M331 -11q-89 0 -127 56h-1v-35q0 -10 -10 -10h-120q-10 0 -10 10v660q0 10 10 10h120q10 0 10 -10v-231h1q38 56 127 56q126 0 164 -116q17 -56 17 -137t-17 -137q-38 -116 -164 -116zM286 107q59 0 75 52q9 28 9 83q0 54 -9 83q-16 52 -75 52q-58 0 -74 -52
q-9 -29 -9 -83t9 -83q16 -52 74 -52z" />
    <glyph glyph-name="c" unicode="c" horiz-adv-x="481" 
d="M263 -11q-79 0 -133.5 35.5t-75.5 101.5q-15 43 -15 116q0 72 15 116q21 66 75.5 101.5t133.5 35.5q59 0 107.5 -24.5t75.5 -66.5q5 -8 -2 -14l-87 -57q-9 -6 -15 2q-30 42 -77 42q-59 0 -75 -52q-9 -25 -9 -83t9 -83q16 -52 75 -52q47 0 77 42q6 8 15 2l87 -57
q7 -6 2 -14q-27 -42 -75.5 -66.5t-107.5 -24.5z" />
    <glyph glyph-name="d" unicode="d" horiz-adv-x="551" 
d="M478 0h-120q-10 0 -10 10v35h-1q-39 -56 -127 -56q-126 0 -164 116q-17 56 -17 137t17 137q38 116 164 116q88 0 127 -56h1v231q0 10 10 10h120q10 0 10 -10v-660q0 -10 -10 -10zM265 107q58 0 74 52q9 28 9 83q0 54 -9 83q-16 52 -74 52q-59 0 -75 -52q-9 -29 -9 -83
t9 -83q16 -52 75 -52z" />
    <glyph glyph-name="e" unicode="e" horiz-adv-x="527" 
d="M270 -11q-82 0 -137.5 36t-76.5 102q-17 53 -17 115q0 69 16 116q21 65 76 101t132 36q78 0 133 -36t76 -100q16 -49 16 -149q0 -10 -11 -10h-293q-6 0 -6 -6q2 -15 6 -27q19 -64 100 -64q65 0 111 43q9 8 14 0l66 -62q7 -8 1 -14q-76 -81 -206 -81zM184 293h160q6 0 6 6
q0 18 -5 36q-18 53 -81 53t-81 -53q-5 -18 -5 -36q0 -6 6 -6z" />
    <glyph glyph-name="f" unicode="f" horiz-adv-x="339" 
d="M210 0h-119q-10 0 -10 10v365q0 6 -6 6h-30q-10 0 -10 10v83q0 10 10 10h30q6 0 6 6v23q0 87 41 127t129 40h55q10 0 10 -10v-94q0 -10 -10 -10h-31q-33 0 -44 -10.5t-11 -41.5v-24q0 -6 6 -6h79q10 0 10 -10v-83q0 -10 -10 -10h-79q-6 0 -6 -6v-365q0 -10 -10 -10z" />
    <glyph glyph-name="g" unicode="g" horiz-adv-x="543" 
d="M239 -191q-54 0 -106 21q-51 19 -77 52q-6 8 1 15l71 72q8 7 15 0q47 -42 100 -42q97 0 97 107v41h-1q-35 -56 -124 -56q-125 0 -162 117q-16 51 -16 121q0 72 16 121q37 117 162 117q89 0 124 -56h1v35q0 10 10 10h120q10 0 10 -10v-422q0 -243 -241 -243zM259 137
q56 0 72 52q9 27 9 68t-9 68q-16 52 -72 52q-54 0 -72 -52q-19 -68 0 -136q18 -52 72 -52z" />
    <glyph glyph-name="h" unicode="h" horiz-adv-x="553" 
d="M484 0h-120q-10 0 -10 10v278q0 42 -19.5 65t-55.5 23t-56 -24t-20 -64v-278q0 -10 -10 -10h-120q-10 0 -10 10v660q0 10 10 10h120q10 0 10 -10v-230h1q40 55 125 55q78 0 121.5 -49t43.5 -131v-305q0 -10 -10 -10z" />
    <glyph glyph-name="i" unicode="i" horiz-adv-x="266" 
d="M193 561h-120q-10 0 -10 10v99q0 10 10 10h120q10 0 10 -10v-99q0 -10 -10 -10zM193 0h-120q-10 0 -10 10v464q0 10 10 10h120q10 0 10 -10v-464q0 -10 -10 -10z" />
    <glyph glyph-name="j" unicode="j" horiz-adv-x="266" 
d="M193 561h-120q-10 0 -10 10v99q0 10 10 10h120q10 0 10 -10v-99q0 -10 -10 -10zM22 -180h-33q-10 0 -10 10v98q0 10 10 10h20q30 0 42 12t12 44v480q0 10 10 10h120q10 0 10 -10v-479q0 -175 -181 -175z" />
    <glyph glyph-name="k" unicode="k" horiz-adv-x="531" 
d="M509 0h-133q-9 0 -15 10l-108 195l-50 -62v-133q0 -10 -10 -10h-120q-10 0 -10 10v660q0 10 10 10h120q10 0 10 -10v-367l139 171q9 10 19 10h128q4 0 5.5 -3.5t-1.5 -6.5l-148 -171l169 -293q5 -10 -5 -10z" />
    <glyph glyph-name="l" unicode="l" horiz-adv-x="304" 
d="M264 -6h-53q-80 0 -115 36.5t-35 117.5v522q0 10 10 10h120q10 0 10 -10v-511q0 -46 42 -46h21q10 0 10 -10v-99q0 -10 -10 -10z" />
    <glyph glyph-name="m" unicode="m" horiz-adv-x="844" 
d="M775 0h-120q-10 0 -10 10v278q0 42 -20 65t-56 23q-35 0 -55 -24t-20 -64v-278q0 -10 -10 -10h-120q-10 0 -10 10v278q0 42 -19.5 65t-55.5 23t-56 -24t-20 -64v-278q0 -10 -10 -10h-120q-10 0 -10 10v464q0 10 10 10h120q10 0 10 -10v-34h1q40 55 125 55q87 0 130 -61h1
q58 61 152 61q83 0 128 -48.5t45 -131.5v-305q0 -10 -10 -10z" />
    <glyph glyph-name="n" unicode="n" horiz-adv-x="553" 
d="M484 0h-120q-10 0 -10 10v278q0 42 -19.5 65t-55.5 23t-56 -24t-20 -64v-278q0 -10 -10 -10h-120q-10 0 -10 10v464q0 10 10 10h120q10 0 10 -10v-34h1q40 55 125 55q78 0 121.5 -49t43.5 -131v-305q0 -10 -10 -10z" />
    <glyph glyph-name="o" unicode="o" horiz-adv-x="530" 
d="M55 125q-16 49 -16 117t16 117q21 65 76.5 100.5t133.5 35.5t133.5 -35.5t76.5 -100.5q16 -49 16 -117t-16 -117q-21 -65 -76.5 -100.5t-133.5 -35.5t-133.5 35.5t-76.5 100.5zM340 159q9 28 9 83q0 54 -9 83q-16 52 -75 52t-75 -52q-9 -29 -9 -83t9 -83q16 -52 75 -52
t75 52z" />
    <glyph glyph-name="p" unicode="p" horiz-adv-x="551" 
d="M193 -180h-120q-10 0 -10 10v644q0 10 10 10h120q10 0 10 -10v-35h1q38 56 127 56q126 0 164 -116q17 -56 17 -137t-17 -137q-38 -116 -164 -116q-89 0 -127 56h-1v-215q0 -10 -10 -10zM286 107q59 0 75 52q9 28 9 83q0 54 -9 83q-16 52 -75 52q-58 0 -74 -52
q-9 -29 -9 -83t9 -83q16 -52 74 -52z" />
    <glyph glyph-name="q" unicode="q" horiz-adv-x="551" 
d="M478 -180h-120q-10 0 -10 10v215h-1q-39 -56 -127 -56q-126 0 -164 116q-17 56 -17 137t17 137q38 116 164 116q88 0 127 -56h1v35q0 10 10 10h120q10 0 10 -10v-644q0 -10 -10 -10zM265 107q58 0 74 52q9 28 9 83q0 54 -9 83q-16 52 -74 52q-59 0 -75 -52q-9 -29 -9 -83
t9 -83q16 -52 75 -52z" />
    <glyph glyph-name="r" unicode="r" horiz-adv-x="426" 
d="M193 0h-120q-10 0 -10 10v464q0 10 10 10h120q10 0 10 -10v-41h1q38 62 126 62q50 0 85 -29q8 -6 3 -14l-56 -102q-5 -7 -14 -2q-37 23 -70 22q-75 -3 -75 -105v-255q0 -10 -10 -10z" />
    <glyph glyph-name="s" unicode="s" horiz-adv-x="505" 
d="M260 -11q-134 0 -220 75q-7 7 0 14l65 73q6 6 14 0q70 -53 148 -53q75 0 75 46q0 19 -15 28.5t-54 13.5l-54 6q-158 17 -158 148q0 72 53 113.5t146 41.5q116 0 196 -60q7 -7 1 -15l-56 -69q-6 -7 -14 -2q-62 39 -131 39q-61 0 -61 -40q0 -18 14.5 -27t52.5 -13l53 -6
q161 -17 161 -147q-1 -77 -58 -121.5t-158 -44.5z" />
    <glyph glyph-name="t" unicode="t" horiz-adv-x="331" 
d="M280 -6h-53q-83 0 -118.5 38t-35.5 123v220q0 6 -6 6h-30q-10 0 -10 10v83q0 10 10 10h30q6 0 6 6v130q0 10 10 10h119q10 0 10 -10v-130q0 -6 6 -6h62q10 0 10 -10v-83q0 -10 -10 -10h-62q-6 0 -6 -6v-214q0 -27 10 -37.5t34 -10.5h24q10 0 10 -10v-99q0 -10 -10 -10z
" />
    <glyph glyph-name="u" unicode="u" horiz-adv-x="549" 
d="M476 0h-120q-10 0 -10 10v35h-1q-42 -56 -124 -56q-77 0 -120 49t-43 131v305q0 10 10 10h120q10 0 10 -10v-278q0 -41 19.5 -64.5t54.5 -23.5t54.5 23.5t19.5 64.5v278q0 10 10 10h120q10 0 10 -10v-464q0 -10 -10 -10z" />
    <glyph glyph-name="v" unicode="v" horiz-adv-x="508" 
d="M312 0h-110q-9 0 -12 10l-172 464q-3 10 8 10h126q10 0 13 -10l94 -287h2l90 287q3 10 13 10h124q11 0 8 -10l-172 -464q-3 -10 -12 -10z" />
    <glyph glyph-name="w" unicode="w" horiz-adv-x="763" 
d="M581 0h-100q-9 0 -12 10l-83 281h-2l-85 -281q-3 -10 -12 -10h-99q-9 0 -12 10l-155 464q-3 10 7 10h123q11 0 14 -10l80 -288h2l83 288q3 10 14 10h84q10 0 13 -10l85 -288h2l76 288q3 10 13 10h123q11 0 8 -10l-155 -464q-3 -10 -12 -10z" />
    <glyph glyph-name="x" unicode="x" horiz-adv-x="515" 
d="M495 0h-130q-9 0 -15 9l-87 132h-1l-86 -132q-8 -9 -16 -9h-129q-13 0 -7 10l163 241l-151 223q-6 10 7 10h130q11 0 17 -9l73 -114h1l74 114q8 9 16 9h129q14 0 8 -10l-151 -223l163 -241q6 -10 -8 -10z" />
    <glyph glyph-name="y" unicode="y" horiz-adv-x="507" 
d="M130 -180h-34q-10 0 -10 10v98q0 10 10 10h21q26 0 41.5 11.5t24.5 38.5l13 36l-180 450q-3 10 8 10h128q9 0 12 -10l97 -280h2l90 280q3 10 12 10h124q11 0 8 -10l-196 -515q-30 -78 -68 -109q-37 -30 -103 -30z" />
    <glyph glyph-name="z" unicode="z" horiz-adv-x="490" 
d="M434 0h-378q-10 0 -10 10v90q0 6 3 10l230 257v2h-210q-10 0 -10 10v95q0 10 10 10h365q10 0 10 -10v-95q0 -5 -3 -10l-228 -252v-2h221q10 0 10 -10v-95q0 -10 -10 -10z" />
    <glyph glyph-name="braceleft" unicode="{" horiz-adv-x="357" 
d="M319 -84h-67q-61 0 -93.5 31.5t-32.5 91.5v153q0 81 -69 81q-10 0 -10 10v94q0 10 10 10q69 0 69 81v149q0 60 32.5 91.5t93.5 31.5h67q10 0 10 -10v-84q0 -10 -10 -10h-28q-42 0 -42 -43v-137q0 -56 -16 -83.5t-56 -41.5v-2q39 -14 55.5 -42t16.5 -84v-140q0 -43 42 -43
h28q10 0 10 -10v-84q0 -10 -10 -10z" />
    <glyph glyph-name="bar" unicode="|" horiz-adv-x="335" 
d="M217 -84h-99q-10 0 -10 10v804q0 10 10 10h99q10 0 10 -10v-804q0 -10 -10 -10z" />
    <glyph glyph-name="braceright" unicode="}" horiz-adv-x="357" 
d="M105 -84h-67q-10 0 -10 10v84q0 10 10 10h28q42 0 42 43v140q0 56 16.5 84t55.5 42v2q-40 14 -56 41.5t-16 83.5v137q0 43 -42 43h-28q-10 0 -10 10v84q0 10 10 10h67q61 0 93.5 -31.5t32.5 -91.5v-149q0 -81 69 -81q10 0 10 -10v-94q0 -10 -10 -10q-69 0 -69 -81v-153
q0 -60 -32.5 -91.5t-93.5 -31.5z" />
    <glyph glyph-name="asciitilde" unicode="~" 
d="M514 296q-22 -48 -60.5 -76.5t-83.5 -28.5q-50 0 -105 35q-38 25 -65 25q-38 0 -65 -49q-5 -9 -15 -2l-67 41q-8 5 -3 14q22 48 60.5 76.5t83.5 28.5q50 0 105 -35q38 -25 65 -25q38 0 65 49q5 9 15 2l67 -41q7 -4 3 -14z" />
    <glyph glyph-name="uni00A0" unicode="&#xa0;" horiz-adv-x="236" 
 />
    <glyph glyph-name="exclamdown" unicode="&#xa1;" horiz-adv-x="312" 
d="M115 285h82q10 0 10 -10l24 -461q0 -10 -10 -10h-130q-10 0 -10 10l24 461q0 10 10 10zM226 474v-114q0 -10 -10 -10h-120q-10 0 -10 10v114q0 10 10 10h120q10 0 10 -10z" />
    <glyph glyph-name="cent" unicode="&#xa2;" 
d="M329 572v-78q106 -12 157 -90q5 -10 -2 -14l-87 -57q-9 -7 -15 2q-22 33 -53 39v-264q31 8 53 40q6 8 15 1l87 -57q9 -5 2 -13q-49 -79 -157 -90v-79q0 -10 -10 -10h-45q-10 0 -10 10v79q-141 14 -178 135q-15 43 -15 116q0 72 15 116q39 120 178 136v78q0 10 10 10h45
q10 0 10 -10zM213 242q0 -58 9 -82q10 -36 42 -47v258q-32 -12 -42 -46q-9 -25 -9 -83z" />
    <glyph glyph-name="sterling" unicode="&#xa3;" 
d="M481 0h-389q-10 0 -10 10v97q0 7 5 12q19 18 26.5 36t7.5 50v58q0 6 -6 6h-41q-10 0 -10 10v79q0 10 10 10h41q6 0 6 6v122q0 93 50 144t140 51q73 0 120.5 -37.5t59.5 -99.5q2 -9 -9 -11l-109 -24q-9 0 -11 9q-9 45 -50 45q-50 0 -50 -61v-138q0 -6 6 -6h121
q10 0 10 -10v-79q0 -10 -10 -10h-121q-6 0 -6 -6v-43q0 -67 -26 -99v-2h245q10 0 10 -10v-99q0 -10 -10 -10z" />
    <glyph glyph-name="currency" unicode="&#xa4;" 
d="M527 134l-69 -69q-7 -7 -14 0l-60 60q-44 -25 -99 -25q-56 0 -100 25l-59 -59q-7 -7 -14 0l-68 69q-7 7 0 14l59 59q-23 44 -23 97q0 51 24 97l-60 60q-6 6 0 14l68 69q7 7 14 0l59 -60q46 25 100 25q55 0 99 -25l60 60q7 7 14 0l68 -69q7 -7 0 -14l-60 -60
q25 -45 25 -97t-24 -97l60 -60q7 -7 0 -14zM214 232q29 -29 71 -29t71 29q28 28 28 73t-28 73q-29 29 -71 29t-71 -29q-27 -28 -27 -73t27 -73z" />
    <glyph glyph-name="yen" unicode="&#xa5;" 
d="M342 0h-120q-10 0 -10 10v115q0 6 -6 6h-116q-10 0 -10 10v62q0 10 10 10h116q6 0 6 6v34q0 6 -6 6h-116q-10 0 -10 10v62q0 10 10 10h92v2l-148 327q-4 10 7 10h128q10 0 14 -10l100 -258h3l98 258q3 10 14 10h125q11 0 7 -10l-148 -327v-2h92q10 0 10 -10v-62
q0 -10 -10 -10h-116q-6 0 -6 -6v-34q0 -6 6 -6h116q10 0 10 -10v-62q0 -10 -10 -10h-116q-6 0 -6 -6v-115q0 -10 -10 -10z" />
    <glyph glyph-name="brokenbar" unicode="&#xa6;" horiz-adv-x="335" 
d="M217 388h-99q-10 0 -10 10v332q0 10 10 10h99q10 0 10 -10v-332q0 -10 -10 -10zM217 -84h-99q-10 0 -10 10v336q0 10 10 10h99q10 0 10 -10v-336q0 -10 -10 -10z" />
    <glyph glyph-name="section" unicode="&#xa7;" horiz-adv-x="558" 
d="M276 -191q-84 0 -133 39t-55 103q-2 9 6 11l104 18q9 2 10 -7q7 -58 65 -58q31 0 48 15.5t17 41.5q0 34 -24 53.5t-85 34.5q-156 40 -156 191q0 51 23.5 91t64.5 62v1q-64 42 -64 125q0 68 51 114q53 47 134 47q82 0 131.5 -41t53.5 -103q1 -8 -7 -10l-102 -18
q-10 -1 -10 8q-9 58 -63 58q-28 0 -44.5 -15t-16.5 -41q0 -32 23.5 -51t81.5 -34q156 -42 156 -191q0 -50 -24.5 -91t-63.5 -62v-1q67 -40 67 -132q0 -68 -52 -113t-136 -45zM221 190q22 -22 58 -22t57 22q22 22 22 62q0 39 -22 61q-21 23 -57 23q-35 0 -58 -23
q-21 -23 -21 -61q0 -40 21 -62z" />
    <glyph glyph-name="dieresis" unicode="&#xa8;" horiz-adv-x="454" 
d="M374 561h-93q-10 0 -10 10v99q0 10 10 10h93q10 0 10 -10v-99q0 -10 -10 -10zM173 561h-92q-10 0 -10 10v99q0 10 10 10h92q10 0 10 -10v-99q0 -10 -10 -10z" />
    <glyph glyph-name="copyright" unicode="&#xa9;" horiz-adv-x="811" 
d="M405 -11q-150 0 -250 100q-101 101 -101 251q0 149 101 250t250 101q150 0 251 -101t101 -250q0 -150 -101 -251q-100 -100 -251 -100zM405 69q115 0 192 77q76 76 76 194t-76 194q-77 77 -192 77q-114 0 -191 -77q-76 -76 -76 -194t76 -194q77 -77 191 -77zM415 144
q-131 0 -168 110q-10 30 -10 86t10 87q18 53 61.5 81.5t106.5 28.5q97 0 143 -69q6 -8 -3 -14l-65 -42q-7 -7 -13 2q-26 32 -60 32q-51 0 -64 -45q-6 -17 -6 -61t6 -61q14 -44 64 -44q35 0 60 31q5 10 13 3l65 -43q10 -5 3 -13q-45 -69 -143 -69z" />
    <glyph glyph-name="ordfeminine" unicode="&#xaa;" horiz-adv-x="356" 
d="M306 392h-77q-10 0 -10 10v13h-1q-25 -28 -82 -28q-45 0 -73.5 23t-28.5 64q0 96 129 96h49q6 0 6 6v6q0 28 -58 28q-37 0 -66 -16q-9 -5 -14 3l-30 51q-5 10 4 14q44 26 118 26q77 0 110.5 -25t33.5 -80v-181q0 -10 -10 -10zM165 458q53 0 53 35v8q0 6 -6 6h-42
q-40 0 -40 -25q0 -24 35 -24z" />
    <glyph glyph-name="guillemotleft" unicode="&#xab;" horiz-adv-x="563" 
d="M499 38l-220 219q-7 7 0 14l220 219q3 3 6.5 1.5t3.5 -5.5v-117q0 -10 -10 -20l-82 -81q-4 -4 0 -8l82 -81q10 -10 10 -20v-117q0 -4 -3.5 -5.5t-6.5 1.5zM255 38l-220 219q-7 7 0 14l220 219q3 3 6.5 1.5t3.5 -5.5v-117q0 -10 -10 -20l-82 -81q-4 -4 0 -8l82 -81
q10 -10 10 -20v-117q0 -4 -3.5 -5.5t-6.5 1.5z" />
    <glyph glyph-name="logicalnot" unicode="&#xac;" 
d="M495 84h-102q-10 0 -10 10v117q0 6 -6 6h-316q-10 0 -10 10v98q0 10 10 10h434q10 0 10 -10v-231q0 -10 -10 -10z" />
    <glyph glyph-name="uni00AD" unicode="&#xad;" horiz-adv-x="392" 
d="M340 204h-288q-10 0 -10 10v102q0 10 10 10h288q10 0 10 -10v-102q0 -10 -10 -10z" />
    <glyph glyph-name="registered" unicode="&#xae;" horiz-adv-x="440" 
d="M28 493q0 81 55 136t137 55t137 -55t55 -136q0 -82 -55 -137t-137 -55t-137 55t-55 137zM369 493q0 66 -42 108q-42 43 -107 43t-107 -43q-42 -42 -42 -108q0 -67 42 -110q42 -42 107 -42t107 42q42 43 42 110zM187 388h-42q-7 0 -7 7v198q0 7 7 7h88q38 0 59 -18t21 -50
q0 -44 -39 -60l40 -77q4 -7 -5 -7h-45q-7 0 -10 7l-34 70h-22q-4 0 -4 -5v-65q0 -7 -7 -7zM198 510h32q28 0 28 22t-28 22h-32q-4 0 -4 -4v-36q0 -4 4 -4z" />
    <glyph glyph-name="overscore" unicode="&#xaf;" horiz-adv-x="454" 
d="M368 575h-283q-10 0 -10 10v75q0 10 10 10h283q10 0 10 -10v-75q0 -10 -10 -10z" />
    <glyph glyph-name="degree" unicode="&#xb0;" horiz-adv-x="438" 
d="M219 387q-66 0 -110 44q-43 43 -43 109q0 65 43 108q44 44 110 44q65 0 109 -44t44 -108q0 -65 -44 -109t-109 -44zM169 487q19 -20 50 -20t50 20q19 21 19 53t-19 52t-50 20t-50 -20t-19 -52t19 -53z" />
    <glyph glyph-name="plusminus" unicode="&#xb1;" 
d="M329 170h-102q-10 0 -10 10v151q0 6 -6 6h-150q-10 0 -10 10v98q0 10 10 10h150q6 0 6 6v151q0 10 10 10h102q10 0 10 -10v-151q0 -6 6 -6h150q10 0 10 -10v-98q0 -10 -10 -10h-150q-6 0 -6 -6v-151q0 -10 -10 -10zM495 0h-434q-10 0 -10 10v98q0 10 10 10h434
q10 0 10 -10v-98q0 -10 -10 -10z" />
    <glyph glyph-name="twosuperior" unicode="&#xb2;" horiz-adv-x="358" 
d="M310 430h-261q-10 0 -10 10v66q0 9 8 17l144 147q25 26 25 50q0 37 -37 37q-35 0 -41 -38q-2 -11 -11 -9l-79 13q-10 1 -8 11q3 45 42.5 77.5t100.5 32.5q60 0 98.5 -34t38.5 -89q0 -57 -49 -103l-96 -98v-1h135q10 0 10 -10v-69q0 -10 -10 -10z" />
    <glyph glyph-name="threesuperior" unicode="&#xb3;" horiz-adv-x="358" 
d="M183 422q-59 0 -98.5 25.5t-48.5 71.5q-2 11 7 12l77 15q8 1 13 -7q13 -30 46 -30q20 0 32 11.5t12 30.5q0 43 -50 43h-17q-10 0 -10 10v66q0 10 10 10h14q44 0 44 38q0 39 -39 39q-28 0 -40 -25q-4 -8 -13 -7l-75 14q-8 1 -7 11q9 43 46 68.5t93 25.5q64 0 101.5 -32
t37.5 -84q0 -50 -42 -82v-1q22 -9 36.5 -34.5t14.5 -59.5q0 -58 -39.5 -93.5t-104.5 -35.5z" />
    <glyph glyph-name="acute" unicode="&#xb4;" horiz-adv-x="454" 
d="M222 551h-91q-10 0 -6 10l77 130q6 10 18 10h115q5 0 6.5 -3t-1.5 -7l-99 -130q-7 -10 -19 -10z" />
    <glyph glyph-name="mu" unicode="&#xb5;" horiz-adv-x="602" 
d="M381 61h-1q-21 -38 -49 -53t-74 -15q-36 0 -54 15h-1v-178q0 -10 -10 -10h-120q-10 0 -10 10v644q0 10 10 10h120q10 0 10 -10v-277q0 -42 19 -65t55 -23q38 0 60 25.5t22 71.5v268q0 10 10 10h120q10 0 10 -10v-327q0 -19 6 -26.5t23 -7.5q10 0 10 -10v-94
q0 -15 -11 -15h-17q-63 0 -88 16t-40 51z" />
    <glyph glyph-name="paragraph" unicode="&#xb6;" horiz-adv-x="657" 
d="M569 -180h-96q-10 0 -10 10v740q0 6 -6 6h-69q-6 0 -6 -6v-740q0 -10 -10 -10h-96q-10 0 -10 10v408q-91 6 -148 67t-57 154q0 97 63 158q64 63 172 63h273q10 0 10 -10v-840q0 -10 -10 -10z" />
    <glyph glyph-name="middot" unicode="&#xb7;" horiz-adv-x="259" 
d="M189 195h-119q-10 0 -10 10v119q0 10 10 10h119q10 0 10 -10v-119q0 -10 -10 -10z" />
    <glyph glyph-name="cedilla" unicode="&#xb8;" horiz-adv-x="454" 
d="M252 -160h-97q-10 0 -7 10l61 150q4 10 14 10h84q10 0 7 -10l-46 -150q-3 -10 -16 -10z" />
    <glyph glyph-name="onesuperior" unicode="&#xb9;" horiz-adv-x="358" 
d="M247 430h-86q-10 0 -10 10v282h-2l-64 -40q-4 -2 -7 0t-3 7v84q0 11 9 15l62 41q10 7 17 7h84q10 0 10 -10v-386q0 -10 -10 -10z" />
    <glyph glyph-name="ordmasculine" unicode="&#xba;" horiz-adv-x="372" 
d="M44 472q-9 26 -9 64t9 64q28 88 142 88t142 -88q9 -26 9 -64t-9 -64q-28 -88 -142 -88t-142 88zM228 496q5 13 5 40t-5 40q-10 28 -42 28t-42 -28q-5 -13 -5 -40t5 -40q10 -28 42 -28t42 28z" />
    <glyph glyph-name="guillemotright" unicode="&#xbb;" horiz-adv-x="563" 
d="M535 257l-220 -219q-3 -3 -6.5 -1.5t-3.5 5.5v117q0 10 10 20l82 81q4 4 0 8l-82 81q-10 10 -10 20v117q0 4 3.5 5.5t6.5 -1.5l220 -219q7 -7 0 -14zM292 257l-221 -219q-3 -3 -6.5 -1.5t-3.5 5.5v117q0 10 10 20l82 81q4 4 0 8l-82 81q-10 10 -10 20v117q0 4 3.5 5.5
t6.5 -1.5l221 -219q7 -7 0 -14z" />
    <glyph glyph-name="onequarter" unicode="&#xbc;" horiz-adv-x="873" 
d="M745 0h-79q-10 0 -10 10v40q0 6 -6 6h-164q-10 0 -10 10v69q0 5 5 17l115 244q4 10 14 10h91q10 0 6 -10l-117 -251v-1h60q6 0 6 6v69q0 10 10 10h79q10 0 10 -10v-69q0 -6 6 -6h15q10 0 10 -10v-68q0 -10 -10 -10h-15q-6 0 -6 -6v-40q0 -10 -10 -10zM263 -11h-84
q-11 0 -5 10l395 682q6 10 16 10h84q11 0 5 -10l-395 -682q-6 -10 -16 -10zM259 274h-86q-10 0 -10 10v282h-2l-64 -40q-4 -2 -7 0t-3 7v84q0 11 9 15l62 41q10 7 17 7h84q10 0 10 -10v-386q0 -10 -10 -10z" />
    <glyph glyph-name="onehalf" unicode="&#xbd;" horiz-adv-x="907" 
d="M809 0h-261q-10 0 -10 10v66q0 9 8 17l144 147q25 26 25 50q0 37 -37 37q-35 0 -41 -38q-2 -11 -11 -9l-79 13q-10 1 -8 11q3 45 42.5 77.5t100.5 32.5q60 0 98.5 -34t38.5 -89q0 -57 -49 -103l-96 -98v-1h135q10 0 10 -10v-69q0 -10 -10 -10zM263 -11h-84q-11 0 -5 10
l395 682q6 10 16 10h84q11 0 5 -10l-395 -682q-6 -10 -16 -10zM259 274h-86q-10 0 -10 10v282h-2l-64 -40q-4 -2 -7 0t-3 7v84q0 11 9 15l62 41q10 7 17 7h84q10 0 10 -10v-386q0 -10 -10 -10z" />
    <glyph glyph-name="threequarters" unicode="&#xbe;" horiz-adv-x="941" 
d="M814 0h-79q-10 0 -10 10v40q0 6 -6 6h-164q-10 0 -10 10v69q0 5 5 17l115 244q4 10 14 10h91q10 0 6 -10l-117 -251v-1h60q6 0 6 6v69q0 10 10 10h79q10 0 10 -10v-69q0 -6 6 -6h15q10 0 10 -10v-68q0 -10 -10 -10h-15q-6 0 -6 -6v-40q0 -10 -10 -10zM237 266
q-59 0 -98.5 25.5t-48.5 71.5q-2 11 7 12l77 15q8 1 13 -7q13 -30 46 -30q20 0 32 11.5t12 30.5q0 43 -50 43h-17q-10 0 -10 10v66q0 10 10 10h14q44 0 44 38q0 39 -39 39q-28 0 -40 -25q-4 -8 -13 -7l-75 14q-8 1 -7 11q9 43 46 68.5t93 25.5q64 0 101.5 -32t37.5 -84
q0 -50 -42 -82v-1q22 -9 36.5 -34.5t14.5 -59.5q0 -58 -39.5 -93.5t-104.5 -35.5zM334 -11h-84q-11 0 -5 10l395 682q6 10 16 10h84q11 0 5 -10l-395 -682q-6 -10 -16 -10z" />
    <glyph glyph-name="questiondown" unicode="&#xbf;" horiz-adv-x="473" 
d="M189 285h116q10 0 10 -10v-42q0 -47 -29 -84l-70 -91q-38 -46 -38 -80q0 -29 18 -47.5t48 -18.5q62 0 75 70q3 10 13 9l108 -16q10 -1 8 -12q-11 -79 -66.5 -124.5t-141.5 -45.5q-89 0 -145 52q-56 51 -56 128q0 68 53 130l67 88q20 25 20 60v24q0 10 10 10zM317 474
v-114q0 -10 -10 -10h-120q-10 0 -10 10v114q0 10 10 10h120q10 0 10 -10z" />
    <glyph glyph-name="Agrave" unicode="&#xc0;" horiz-adv-x="644" 
d="M17 10l234 660q3 10 13 10h126q10 0 13 -10l230 -660q3 -10 -7 -10h-130q-10 0 -13 10l-39 119h-238l-38 -119q-3 -10 -13 -10h-131q-10 0 -7 10zM324 492l-77 -238h157l-77 238h-3zM373 754h-93q-10 0 -19 9l-123 116q-3 4 -1.5 7t6.5 3h120q12 0 19 -10l95 -115
q3 -4 1.5 -7t-5.5 -3z" />
    <glyph glyph-name="Aacute" unicode="&#xc1;" horiz-adv-x="644" 
d="M17 10l234 660q3 10 13 10h126q10 0 13 -10l230 -660q3 -10 -7 -10h-130q-10 0 -13 10l-39 119h-238l-38 -119q-3 -10 -13 -10h-131q-10 0 -7 10zM324 492l-77 -238h157l-77 238h-3zM372 754h-93q-4 0 -5.5 3t1.5 7l95 115q7 10 19 10h120q5 0 6.5 -3t-1.5 -7l-123 -116
q-9 -9 -19 -9z" />
    <glyph glyph-name="Acircumflex" unicode="&#xc2;" horiz-adv-x="644" 
d="M17 10l234 660q3 10 13 10h126q10 0 13 -10l230 -660q3 -10 -7 -10h-130q-10 0 -13 10l-39 119h-238l-38 -119q-3 -10 -13 -10h-131q-10 0 -7 10zM324 492l-77 -238h157l-77 238h-3zM480 747h-80q-12 0 -22 10l-53 54h-2l-52 -54q-10 -10 -22 -10h-80q-4 0 -5.5 3t1.5 7
l103 131q7 10 19 10h75q11 0 18 -10l104 -131q8 -10 -4 -10z" />
    <glyph glyph-name="Atilde" unicode="&#xc3;" horiz-adv-x="644" 
d="M17 10l234 660q3 10 13 10h126q10 0 13 -10l230 -660q3 -10 -7 -10h-130q-10 0 -13 10l-39 119h-238l-38 -119q-3 -10 -13 -10h-131q-10 0 -7 10zM324 492l-77 -238h157l-77 238h-3zM388 748q-33 0 -75 21q-31 18 -58 18q-31 0 -71 -31q-9 -8 -9 2v72q0 11 8 21
q35 35 77 35q33 0 75 -21q33 -18 58 -18q31 0 71 31q4 3 7 2t3 -4v-72q0 -12 -9 -21q-33 -35 -77 -35z" />
    <glyph glyph-name="Adieresis" unicode="&#xc4;" horiz-adv-x="644" 
d="M17 10l234 660q3 10 13 10h126q10 0 13 -10l230 -660q3 -10 -7 -10h-130q-10 0 -13 10l-39 119h-238l-38 -119q-3 -10 -13 -10h-131q-10 0 -7 10zM324 492l-77 -238h157l-77 238h-3zM471 760h-90q-10 0 -10 10v98q0 10 10 10h90q10 0 10 -10v-98q0 -10 -10 -10zM268 760
h-90q-10 0 -10 10v98q0 10 10 10h90q10 0 10 -10v-98q0 -10 -10 -10z" />
    <glyph glyph-name="Aring" unicode="&#xc5;" horiz-adv-x="644" 
d="M17 10l234 660q3 10 13 10h126q10 0 13 -10l230 -660q3 -10 -7 -10h-130q-10 0 -13 10l-39 119h-238l-38 -119q-3 -10 -13 -10h-131q-10 0 -7 10zM324 492l-77 -238h157l-77 238h-3zM401 742q-30 -30 -76 -30q-45 0 -77 30q-30 32 -30 77q0 46 30 76q32 30 77 30
q46 0 76 -30q31 -30 31 -76t-31 -77zM371 819q0 20 -13.5 34t-32.5 14q-20 0 -33.5 -14t-13.5 -34q0 -21 13.5 -34.5t33.5 -13.5t33 13.5t13 34.5z" />
    <glyph glyph-name="AE" unicode="&#xc6;" horiz-adv-x="929" 
d="M880 0h-436q-10 0 -10 10v113q0 6 -6 6h-192l-55 -119q-4 -10 -14 -10h-141q-10 0 -6 10l317 660q4 10 14 10h529q10 0 10 -10v-107q0 -10 -10 -10h-293q-6 0 -6 -6v-135q0 -6 6 -6h244q10 0 10 -10v-106q0 -10 -10 -10h-244q-6 0 -6 -6v-141q0 -6 6 -6h293q10 0 10 -10
v-107q0 -10 -10 -10zM434 553h-3l-138 -299h135q6 0 6 6v293z" />
    <glyph glyph-name="Ccedilla" unicode="&#xc7;" horiz-adv-x="575" 
d="M298 -160h-97q-10 0 -7 10l58 144q-141 26 -186 162q-19 54 -19 184t19 184q27 81 89.5 124t152.5 43q86 0 147 -39t90 -112q5 -9 -5 -12l-109 -49q-10 -5 -14 5q-33 77 -108 77q-78 0 -102 -75q-11 -36 -11 -146t11 -146q24 -75 102 -75q75 0 108 77q4 10 14 5l109 -49
q10 -3 5 -12q-49 -124 -187 -147l-44 -143q-3 -10 -16 -10z" />
    <glyph glyph-name="Egrave" unicode="&#xc8;" horiz-adv-x="565" 
d="M360 754h-93q-10 0 -19 9l-123 116q-3 4 -1.5 7t6.5 3h120q12 0 19 -10l95 -115q3 -4 1.5 -7t-5.5 -3zM65 10v660q0 10 10 10h436q10 0 10 -10v-107q0 -10 -10 -10h-293q-6 0 -6 -6v-135q0 -6 6 -6h244q10 0 10 -10v-106q0 -10 -10 -10h-244q-6 0 -6 -6v-141q0 -6 6 -6
h293q10 0 10 -10v-107q0 -10 -10 -10h-436q-10 0 -10 10z" />
    <glyph glyph-name="Eacute" unicode="&#xc9;" horiz-adv-x="565" 
d="M307 754h-93q-4 0 -5.5 3t1.5 7l95 115q7 10 19 10h120q5 0 6.5 -3t-1.5 -7l-123 -116q-9 -9 -19 -9zM65 10v660q0 10 10 10h436q10 0 10 -10v-107q0 -10 -10 -10h-293q-6 0 -6 -6v-135q0 -6 6 -6h244q10 0 10 -10v-106q0 -10 -10 -10h-244q-6 0 -6 -6v-141q0 -6 6 -6
h293q10 0 10 -10v-107q0 -10 -10 -10h-436q-10 0 -10 10z" />
    <glyph glyph-name="Ecircumflex" unicode="&#xca;" horiz-adv-x="565" 
d="M65 10v660q0 10 10 10h436q10 0 10 -10v-107q0 -10 -10 -10h-293q-6 0 -6 -6v-135q0 -6 6 -6h244q10 0 10 -10v-106q0 -10 -10 -10h-244q-6 0 -6 -6v-141q0 -6 6 -6h293q10 0 10 -10v-107q0 -10 -10 -10h-436q-10 0 -10 10zM449 747h-80q-12 0 -22 10l-53 54h-2l-52 -54
q-10 -10 -22 -10h-80q-4 0 -5.5 3t1.5 7l103 131q7 10 19 10h75q11 0 18 -10l104 -131q8 -10 -4 -10z" />
    <glyph glyph-name="Edieresis" unicode="&#xcb;" horiz-adv-x="565" 
d="M65 10v660q0 10 10 10h436q10 0 10 -10v-107q0 -10 -10 -10h-293q-6 0 -6 -6v-135q0 -6 6 -6h244q10 0 10 -10v-106q0 -10 -10 -10h-244q-6 0 -6 -6v-141q0 -6 6 -6h293q10 0 10 -10v-107q0 -10 -10 -10h-436q-10 0 -10 10zM439 760h-90q-10 0 -10 10v98q0 10 10 10h90
q10 0 10 -10v-98q0 -10 -10 -10zM236 760h-90q-10 0 -10 10v98q0 10 10 10h90q10 0 10 -10v-98q0 -10 -10 -10z" />
    <glyph glyph-name="Igrave" unicode="&#xcc;" horiz-adv-x="277" 
d="M193 754h-93q-10 0 -19 9l-123 116q-4 4 -2 7t7 3h120q12 0 19 -10l95 -115q8 -10 -4 -10zM67 10v660q0 10 10 10h127q10 0 10 -10v-660q0 -10 -10 -10h-127q-10 0 -10 10z" />
    <glyph glyph-name="Iacute" unicode="&#xcd;" horiz-adv-x="277" 
d="M65 10v660q0 10 10 10h127q10 0 10 -10v-660q0 -10 -10 -10h-127q-10 0 -10 10zM183 754h-93q-4 0 -5.5 3t1.5 7l95 115q7 10 19 10h120q5 0 6.5 -3t-1.5 -7l-123 -116q-9 -9 -19 -9z" />
    <glyph glyph-name="Icircumflex" unicode="&#xce;" horiz-adv-x="277" 
d="M295 747h-80q-12 0 -22 10l-53 54h-2l-52 -54q-10 -10 -22 -10h-80q-12 0 -4 10l103 131q7 10 19 10h75q11 0 18 -10l104 -131q3 -4 1.5 -7t-5.5 -3zM66 10v660q0 10 10 10h127q10 0 10 -10v-660q0 -10 -10 -10h-127q-10 0 -10 10z" />
    <glyph glyph-name="Idieresis" unicode="&#xcf;" horiz-adv-x="277" 
d="M65 10v660q0 10 10 10h127q10 0 10 -10v-660q0 -10 -10 -10h-127q-10 0 -10 10zM285 760h-90q-10 0 -10 10v98q0 10 10 10h90q10 0 10 -10v-98q0 -10 -10 -10zM82 760h-90q-10 0 -10 10v98q0 10 10 10h90q10 0 10 -10v-98q0 -10 -10 -10z" />
    <glyph glyph-name="Eth" unicode="&#xd0;" horiz-adv-x="628" 
d="M328 0h-253q-10 0 -10 10v273q0 6 -6 6h-25q-10 0 -10 10v88q0 10 10 10h25q6 0 6 6v267q0 10 10 10h253q186 0 235 -153q18 -57 18 -187t-18 -187q-49 -153 -235 -153zM218 131h77q103 0 126 75q11 33 11 134t-11 134q-23 75 -126 75h-77q-6 0 -6 -6v-140q0 -6 6 -6h83
q10 0 10 -10v-88q0 -10 -10 -10h-83q-6 0 -6 -6v-146q0 -6 6 -6z" />
    <glyph glyph-name="Ntilde" unicode="&#xd1;" horiz-adv-x="655" 
d="M65 10v660q0 10 10 10h120q11 0 17 -10l240 -428h5v428q0 10 10 10h113q10 0 10 -10v-660q0 -10 -10 -10h-119q-11 0 -17 10l-241 427h-5v-427q0 -10 -10 -10h-113q-10 0 -10 10zM391 748q-33 0 -75 21q-32 18 -58 18q-31 0 -71 -31q-9 -8 -9 2v72q0 11 8 21q35 35 77 35
q33 0 75 -21q33 -18 58 -18q31 0 71 31q4 3 7 2t3 -4v-72q0 -12 -9 -21q-33 -35 -77 -35z" />
    <glyph glyph-name="Ograve" unicode="&#xd2;" horiz-adv-x="628" 
d="M376 754h-93q-10 0 -19 9l-123 116q-3 4 -1.5 7t6.5 3h120q12 0 19 -10l95 -115q3 -4 1.5 -7t-5.5 -3zM66 154q-19 58 -19 186t19 186q26 80 91 122.5t157 42.5t157 -42.5t91 -122.5q19 -58 19 -186t-19 -186q-26 -80 -91 -122.5t-157 -42.5t-157 42.5t-91 122.5z
M421 194q11 35 11 146t-11 146q-24 75 -107 75t-107 -75q-11 -35 -11 -146t11 -146q24 -75 107 -75t107 75z" />
    <glyph glyph-name="Oacute" unicode="&#xd3;" horiz-adv-x="628" 
d="M66 154q-19 58 -19 186t19 186q26 80 91 122.5t157 42.5t157 -42.5t91 -122.5q19 -58 19 -186t-19 -186q-26 -80 -91 -122.5t-157 -42.5t-157 42.5t-91 122.5zM421 194q11 35 11 146t-11 146q-24 75 -107 75t-107 -75q-11 -35 -11 -146t11 -146q24 -75 107 -75t107 75z
M344 754h-93q-12 0 -4 10l95 115q7 10 19 10h120q5 0 7 -3t-2 -7l-123 -116q-9 -9 -19 -9z" />
    <glyph glyph-name="Ocircumflex" unicode="&#xd4;" horiz-adv-x="628" 
d="M66 154q-19 58 -19 186t19 186q26 80 91 122.5t157 42.5t157 -42.5t91 -122.5q19 -58 19 -186t-19 -186q-26 -80 -91 -122.5t-157 -42.5t-157 42.5t-91 122.5zM421 194q11 35 11 146t-11 146q-24 75 -107 75t-107 -75q-11 -35 -11 -146t11 -146q24 -75 107 -75t107 75z
M469 747h-80q-12 0 -22 10l-53 54h-2l-52 -54q-10 -10 -22 -10h-80q-4 0 -5.5 3t1.5 7l103 131q7 10 19 10h75q11 0 18 -10l104 -131q8 -10 -4 -10z" />
    <glyph glyph-name="Otilde" unicode="&#xd5;" horiz-adv-x="628" 
d="M66 154q-19 58 -19 186t19 186q26 80 91 122.5t157 42.5t157 -42.5t91 -122.5q19 -58 19 -186t-19 -186q-26 -80 -91 -122.5t-157 -42.5t-157 42.5t-91 122.5zM421 194q11 35 11 146t-11 146q-24 75 -107 75t-107 -75q-11 -35 -11 -146t11 -146q24 -75 107 -75t107 75z
M377 748q-33 0 -75 21q-32 18 -58 18q-31 0 -71 -31q-9 -8 -9 2v72q0 11 8 21q35 35 77 35q33 0 75 -21q33 -18 58 -18q31 0 71 31q4 3 7 2t3 -4v-72q0 -12 -9 -21q-33 -35 -77 -35z" />
    <glyph glyph-name="Odieresis" unicode="&#xd6;" horiz-adv-x="628" 
d="M66 154q-19 58 -19 186t19 186q26 80 91 122.5t157 42.5t157 -42.5t91 -122.5q19 -58 19 -186t-19 -186q-26 -80 -91 -122.5t-157 -42.5t-157 42.5t-91 122.5zM421 194q11 35 11 146t-11 146q-24 75 -107 75t-107 -75q-11 -35 -11 -146t11 -146q24 -75 107 -75t107 75z
M460 760h-90q-10 0 -10 10v98q0 10 10 10h90q10 0 10 -10v-98q0 -10 -10 -10zM257 760h-90q-10 0 -10 10v98q0 10 10 10h90q10 0 10 -10v-98q0 -10 -10 -10z" />
    <glyph glyph-name="multiply" unicode="&#xd7;" 
d="M487 141l-67 -67q-7 -8 -14 0l-117 116q-4 4 -8 0l-118 -116q-7 -8 -14 0l-67 67q-7 7 0 14l117 117q4 4 0 8l-117 117q-7 7 0 14l68 68q7 7 14 0l117 -117q5 -4 9 0l116 117q7 7 14 0l67 -67q6 -8 0 -14l-116 -117q-5 -5 0 -9l116 -117q7 -7 0 -14z" />
    <glyph glyph-name="Oslash" unicode="&#xd8;" horiz-adv-x="628" 
d="M126 -30h-70q-11 0 -5 10l61 97q-27 35 -40 77q-19 58 -19 186t19 186q26 80 91 122.5t157 42.5q87 0 149 -38l30 48q5 9 15 9h70q11 0 5 -10l-61 -98q23 -29 40 -76q19 -58 19 -186t-19 -186q-26 -80 -91 -122.5t-157 -42.5q-88 0 -149 37l-30 -47q-5 -9 -15 -9z
M200 340q0 -77 5 -119l189 317q-30 24 -74 24q-84 0 -109 -76q-11 -38 -11 -146zM320 118q84 0 109 76q11 38 11 146q0 75 -5 117l-189 -316q29 -23 74 -23z" />
    <glyph glyph-name="Ugrave" unicode="&#xd9;" horiz-adv-x="645" 
d="M323 -11q-117 0 -190 68q-71 69 -71 193v420q0 10 10 10h127q10 0 10 -10v-424q0 -59 31 -93t83 -34t82.5 33.5t30.5 93.5v424q0 10 10 10h127q10 0 10 -10v-420q0 -124 -72 -193q-71 -68 -188 -68zM383 754h-93q-10 0 -19 9l-123 116q-4 4 -2 7t7 3h120q12 0 19 -10
l95 -115q8 -10 -4 -10z" />
    <glyph glyph-name="Uacute" unicode="&#xda;" horiz-adv-x="645" 
d="M357 754h-93q-4 0 -5.5 3t1.5 7l95 115q7 10 19 10h120q5 0 6.5 -3t-1.5 -7l-123 -116q-9 -9 -19 -9zM323 -11q-117 0 -190 68q-71 69 -71 193v420q0 10 10 10h127q10 0 10 -10v-424q0 -59 31 -93t83 -34t82.5 33.5t30.5 93.5v424q0 10 10 10h127q10 0 10 -10v-420
q0 -124 -72 -193q-71 -68 -188 -68z" />
    <glyph glyph-name="Ucircumflex" unicode="&#xdb;" horiz-adv-x="645" 
d="M323 -11q-117 0 -190 68q-71 69 -71 193v420q0 10 10 10h127q10 0 10 -10v-424q0 -59 31 -93t83 -34t82.5 33.5t30.5 93.5v424q0 10 10 10h127q10 0 10 -10v-420q0 -124 -72 -193q-71 -68 -188 -68zM477 747h-80q-12 0 -22 10l-53 54h-2l-52 -54q-10 -10 -22 -10h-80
q-4 0 -5.5 3t1.5 7l103 131q7 10 19 10h75q11 0 18 -10l104 -131q8 -10 -4 -10z" />
    <glyph glyph-name="Udieresis" unicode="&#xdc;" horiz-adv-x="645" 
d="M323 -11q-117 0 -190 68q-71 69 -71 193v420q0 10 10 10h127q10 0 10 -10v-424q0 -59 31 -93t83 -34t82.5 33.5t30.5 93.5v424q0 10 10 10h127q10 0 10 -10v-420q0 -124 -72 -193q-71 -68 -188 -68zM469 760h-90q-10 0 -10 10v98q0 10 10 10h90q10 0 10 -10v-98
q0 -10 -10 -10zM266 760h-90q-10 0 -10 10v98q0 10 10 10h90q10 0 10 -10v-98q0 -10 -10 -10z" />
    <glyph glyph-name="Yacute" unicode="&#xdd;" horiz-adv-x="568" 
d="M351 0h-127q-10 0 -10 10v261l-201 399q-4 10 7 10h130q11 0 15 -10l123 -248h3l123 248q4 10 15 10h126q5 0 7 -3t0 -7l-201 -399v-261q0 -10 -10 -10zM329 754h-93q-4 0 -5.5 3t1.5 7l95 115q7 10 19 10h120q5 0 6.5 -3t-1.5 -7l-123 -116q-9 -9 -19 -9z" />
    <glyph glyph-name="Thorn" unicode="&#xde;" horiz-adv-x="605" 
d="M202 0h-127q-10 0 -10 10v660q0 10 10 10h127q10 0 10 -10v-92q0 -6 6 -6h121q110 0 173 -60q64 -60 64 -159q0 -98 -64 -158t-173 -60h-121q-6 0 -6 -6v-119q0 -10 -10 -10zM218 262h112q46 0 72.5 24.5t26.5 66.5t-26.5 67t-72.5 25h-112q-6 0 -6 -6v-171q0 -6 6 -6z
" />
    <glyph glyph-name="germandbls" unicode="&#xdf;" horiz-adv-x="562" 
d="M321 -4h-35q-10 0 -10 10v95q0 10 10 10h25q51 0 64 39q4 11 4 76q0 63 -5 80q-14 44 -73 44h-14q-10 0 -10 10v94q0 10 10 10h24q59 0 59 55q0 57 -79 57q-46 0 -67 -21t-21 -67v-478q0 -10 -10 -10h-120q-10 0 -10 10v475q0 206 226 206q106 0 163 -43.5t57 -123.5
q0 -73 -56 -112v-2q40 -22 54 -67q12 -37 12 -118q0 -92 -13 -130q-17 -52 -62 -75.5t-123 -23.5z" />
    <glyph glyph-name="agrave" unicode="&#xe0;" horiz-adv-x="528" 
d="M458 0h-111q-10 0 -10 10v32h-1q-41 -53 -133 -53q-72 0 -116.5 38.5t-44.5 109.5q0 77 53 116.5t148 39.5h86q6 0 6 6v18q0 36 -22 51t-77 15q-67 0 -108 -31q-8 -6 -13 2l-45 79q-5 9 3 14q67 48 180 48q116 0 165.5 -41t49.5 -134v-310q0 -10 -10 -10zM245 94
q90 0 90 67v33q0 6 -6 6h-68q-86 0 -86 -55q0 -51 70 -51zM342 551h-92q-12 0 -19 10l-99 130q-3 4 -1.5 7t6.5 3h116q12 0 18 -10l76 -130q4 -10 -5 -10z" />
    <glyph glyph-name="aacute" unicode="&#xe1;" horiz-adv-x="528" 
d="M458 0h-111q-10 0 -10 10v32h-1q-41 -53 -133 -53q-72 0 -116.5 38.5t-44.5 109.5q0 77 53 116.5t148 39.5h86q6 0 6 6v18q0 36 -22 51t-77 15q-67 0 -108 -31q-8 -6 -13 2l-45 79q-5 9 3 14q67 48 180 48q116 0 165.5 -41t49.5 -134v-310q0 -10 -10 -10zM245 94
q90 0 90 67v33q0 6 -6 6h-68q-86 0 -86 -55q0 -51 70 -51zM298 551h-91q-10 0 -6 10l77 130q6 10 18 10h115q5 0 6.5 -3t-1.5 -7l-99 -130q-7 -10 -19 -10z" />
    <glyph glyph-name="acircumflex" unicode="&#xe2;" horiz-adv-x="528" 
d="M458 0h-111q-10 0 -10 10v32h-1q-41 -53 -133 -53q-72 0 -116.5 38.5t-44.5 109.5q0 77 53 116.5t148 39.5h86q6 0 6 6v18q0 36 -22 51t-77 15q-67 0 -108 -31q-8 -6 -13 2l-45 79q-5 9 3 14q67 48 180 48q116 0 165.5 -41t49.5 -134v-310q0 -10 -10 -10zM245 94
q90 0 90 67v33q0 6 -6 6h-68q-86 0 -86 -55q0 -51 70 -51zM418 550h-80q-12 0 -22 10l-52 54h-2l-53 -54q-10 -10 -22 -10h-79q-5 0 -6.5 3t1.5 7l104 131q7 10 18 10h75q12 0 19 -10l103 -131q3 -4 1.5 -7t-5.5 -3z" />
    <glyph glyph-name="atilde" unicode="&#xe3;" horiz-adv-x="528" 
d="M458 0h-111q-10 0 -10 10v32h-1q-41 -53 -133 -53q-72 0 -116.5 38.5t-44.5 109.5q0 77 53 116.5t148 39.5h86q6 0 6 6v18q0 36 -22 51t-77 15q-67 0 -108 -31q-8 -6 -13 2l-45 79q-5 9 3 14q67 48 180 48q116 0 165.5 -41t49.5 -134v-310q0 -10 -10 -10zM245 94
q90 0 90 67v33q0 6 -6 6h-68q-86 0 -86 -55q0 -51 70 -51zM327 552q-32 0 -75 22q-34 18 -58 18q-31 0 -71 -32q-9 -8 -9 3v72q0 10 8 20q36 36 77 36q32 0 75 -22q36 -18 58 -18q31 0 71 32q4 3 7 2t3 -5v-72q0 -11 -9 -20q-34 -36 -77 -36z" />
    <glyph glyph-name="adieresis" unicode="&#xe4;" horiz-adv-x="528" 
d="M458 0h-111q-10 0 -10 10v32h-1q-41 -53 -133 -53q-72 0 -116.5 38.5t-44.5 109.5q0 77 53 116.5t148 39.5h86q6 0 6 6v18q0 36 -22 51t-77 15q-67 0 -108 -31q-8 -6 -13 2l-45 79q-5 9 3 14q67 48 180 48q116 0 165.5 -41t49.5 -134v-310q0 -10 -10 -10zM245 94
q90 0 90 67v33q0 6 -6 6h-68q-86 0 -86 -55q0 -51 70 -51zM410 561h-93q-10 0 -10 10v99q0 10 10 10h93q10 0 10 -10v-99q0 -10 -10 -10zM209 561h-92q-10 0 -10 10v99q0 10 10 10h92q10 0 10 -10v-99q0 -10 -10 -10z" />
    <glyph glyph-name="aring" unicode="&#xe5;" horiz-adv-x="528" 
d="M458 0h-111q-10 0 -10 10v32h-1q-41 -53 -133 -53q-72 0 -116.5 38.5t-44.5 109.5q0 77 53 116.5t148 39.5h86q6 0 6 6v18q0 36 -22 51t-77 15q-67 0 -108 -31q-8 -6 -13 2l-45 79q-5 9 3 14q67 48 180 48q116 0 165.5 -41t49.5 -134v-310q0 -10 -10 -10zM245 94
q90 0 90 67v33q0 6 -6 6h-68q-86 0 -86 -55q0 -51 70 -51zM342 554q-30 -30 -76 -30t-77 30q-30 30 -30 76t30 76q31 31 77 31t76 -31q31 -30 31 -76t-31 -76zM266 582q19 0 32.5 14t13.5 34q0 21 -13 35t-33 14t-33.5 -14t-13.5 -35q0 -20 13.5 -34t33.5 -14z" />
    <glyph glyph-name="ae" unicode="&#xe6;" horiz-adv-x="816" 
d="M560 -11q-110 0 -166 71h-1q-47 -71 -181 -71q-79 0 -124.5 38.5t-45.5 109.5q0 77 53 116.5t148 39.5h86q6 0 6 6v19q0 36 -21.5 50.5t-77.5 14.5q-67 0 -108 -31q-8 -6 -13 2l-45 79q-5 9 3 14q67 48 180 48t162 -45h2q53 45 135 45q78 0 133 -36t76 -100
q16 -45 16 -149q0 -10 -11 -10h-293q-6 0 -6 -6q0 -10 6 -27q21 -64 101 -64q64 0 110 43q8 6 14 0l66 -62q8 -8 1 -14q-77 -81 -205 -81zM473 293h160q6 0 6 6q0 18 -5 36q-18 53 -81 53t-81 -53q-5 -17 -5 -36q0 -6 6 -6zM245 94q90 0 90 67v33q0 6 -6 6h-68
q-86 0 -86 -55q0 -51 70 -51z" />
    <glyph glyph-name="ccedilla" unicode="&#xe7;" horiz-adv-x="481" 
d="M248 -160h-97q-10 0 -7 10l58 144q-117 30 -148 132q-15 43 -15 116q0 72 15 116q21 66 75.5 101.5t133.5 35.5q59 0 107.5 -24.5t75.5 -66.5q5 -8 -2 -14l-87 -57q-9 -6 -15 2q-30 42 -77 42q-59 0 -75 -52q-9 -25 -9 -83t9 -83q16 -52 75 -52q47 0 77 42q6 8 15 2
l87 -57q7 -6 2 -14q-22 -33 -59 -56.5t-79 -30.5l-44 -143q-3 -10 -16 -10z" />
    <glyph glyph-name="egrave" unicode="&#xe8;" horiz-adv-x="527" 
d="M270 -11q-82 0 -137.5 36t-76.5 102q-17 53 -17 115q0 69 16 116q21 65 76 101t132 36q78 0 133 -36t76 -100q16 -49 16 -149q0 -10 -11 -10h-293q-6 0 -6 -6q2 -15 6 -27q19 -64 100 -64q65 0 111 43q9 8 14 0l66 -62q7 -8 1 -14q-76 -81 -206 -81zM184 293h160q6 0 6 6
q0 18 -5 36q-18 53 -81 53t-81 -53q-5 -18 -5 -36q0 -6 6 -6zM328 551h-92q-12 0 -19 10l-99 130q-3 4 -1.5 7t6.5 3h116q12 0 18 -10l76 -130q4 -10 -5 -10z" />
    <glyph glyph-name="eacute" unicode="&#xe9;" horiz-adv-x="527" 
d="M270 -11q-82 0 -137.5 36t-76.5 102q-17 53 -17 115q0 69 16 116q21 65 76 101t132 36q78 0 133 -36t76 -100q16 -49 16 -149q0 -10 -11 -10h-293q-6 0 -6 -6q2 -15 6 -27q19 -64 100 -64q65 0 111 43q9 8 14 0l66 -62q7 -8 1 -14q-76 -81 -206 -81zM184 293h160q6 0 6 6
q0 18 -5 36q-18 53 -81 53t-81 -53q-5 -18 -5 -36q0 -6 6 -6zM295 551h-91q-10 0 -6 10l77 130q6 10 18 10h115q5 0 6.5 -3t-1.5 -7l-99 -130q-7 -10 -19 -10z" />
    <glyph glyph-name="ecircumflex" unicode="&#xea;" horiz-adv-x="527" 
d="M270 -11q-82 0 -137.5 36t-76.5 102q-17 53 -17 115q0 69 16 116q21 65 76 101t132 36q78 0 133 -36t76 -100q16 -49 16 -149q0 -10 -11 -10h-293q-6 0 -6 -6q2 -15 6 -27q19 -64 100 -64q65 0 111 43q9 8 14 0l66 -62q7 -8 1 -14q-76 -81 -206 -81zM184 293h160q6 0 6 6
q0 18 -5 36q-18 53 -81 53t-81 -53q-5 -18 -5 -36q0 -6 6 -6zM418 550h-80q-12 0 -22 10l-52 54h-2l-53 -54q-10 -10 -22 -10h-79q-5 0 -6.5 3t1.5 7l104 131q7 10 18 10h75q12 0 19 -10l103 -131q3 -4 1.5 -7t-5.5 -3z" />
    <glyph glyph-name="edieresis" unicode="&#xeb;" horiz-adv-x="527" 
d="M270 -11q-82 0 -137.5 36t-76.5 102q-17 53 -17 115q0 69 16 116q21 65 76 101t132 36q78 0 133 -36t76 -100q16 -49 16 -149q0 -10 -11 -10h-293q-6 0 -6 -6q2 -15 6 -27q19 -64 100 -64q65 0 111 43q9 8 14 0l66 -62q7 -8 1 -14q-76 -81 -206 -81zM184 293h160q6 0 6 6
q0 18 -5 36q-18 53 -81 53t-81 -53q-5 -18 -5 -36q0 -6 6 -6zM409 561h-93q-10 0 -10 10v99q0 10 10 10h93q10 0 10 -10v-99q0 -10 -10 -10zM208 561h-92q-10 0 -10 10v99q0 10 10 10h92q10 0 10 -10v-99q0 -10 -10 -10z" />
    <glyph glyph-name="igrave" unicode="&#xec;" horiz-adv-x="266" 
d="M196 0h-120q-10 0 -10 10v464q0 10 10 10h120q10 0 10 -10v-464q0 -10 -10 -10zM186 551h-92q-12 0 -19 10l-99 130q-3 4 -1.5 7t6.5 3h116q12 0 18 -10l76 -130q4 -10 -5 -10z" />
    <glyph glyph-name="iacute" unicode="&#xed;" horiz-adv-x="266" 
d="M175 551h-91q-10 0 -6 10l77 130q6 10 18 10h115q5 0 6.5 -3t-1.5 -7l-99 -130q-7 -10 -19 -10zM193 0h-120q-10 0 -10 10v464q0 10 10 10h120q10 0 10 -10v-464q0 -10 -10 -10z" />
    <glyph glyph-name="icircumflex" unicode="&#xee;" horiz-adv-x="266" 
d="M290 550h-80q-12 0 -22 10l-52 54h-2l-53 -54q-10 -10 -22 -10h-79q-5 0 -6.5 3t1.5 7l104 131q7 10 18 10h75q12 0 19 -10l103 -131q3 -4 1.5 -7t-5.5 -3zM195 0h-120q-10 0 -10 10v464q0 10 10 10h120q10 0 10 -10v-464q0 -10 -10 -10z" />
    <glyph glyph-name="idieresis" unicode="&#xef;" horiz-adv-x="266" 
d="M280 561h-93q-10 0 -10 10v99q0 10 10 10h93q10 0 10 -10v-99q0 -10 -10 -10zM79 561h-92q-10 0 -10 10v99q0 10 10 10h92q10 0 10 -10v-99q0 -10 -10 -10zM193 0h-120q-10 0 -10 10v464q0 10 10 10h120q10 0 10 -10v-464q0 -10 -10 -10z" />
    <glyph glyph-name="eth" unicode="&#xf0;" horiz-adv-x="530" 
d="M414 570l-59 -18l20 -28q62 -86 89 -151t27 -138q0 -63 -14 -107q-22 -66 -77.5 -102.5t-133.5 -36.5q-80 0 -135 35.5t-76 99.5q-15 46 -15 98q0 55 14 102q19 59 64 92.5t106 33.5q39 0 64 -16h2l-59 81l-94 -28q-9 -2 -12 7l-20 65q-3 10 7 13l64 19l-57 79
q-6 10 6 10h123q12 0 19 -10l31 -43l90 27q10 3 13 -6l20 -65q3 -10 -7 -13zM266 104q63 0 79 55q10 26 10 67q0 36 -10 67q-17 56 -79 56q-63 0 -80 -56q-10 -31 -10 -67q0 -41 10 -67q16 -55 80 -55z" />
    <glyph glyph-name="ntilde" unicode="&#xf1;" horiz-adv-x="553" 
d="M484 0h-120q-10 0 -10 10v278q0 42 -19.5 65t-55.5 23t-56 -24t-20 -64v-278q0 -10 -10 -10h-120q-10 0 -10 10v464q0 10 10 10h120q10 0 10 -10v-34h1q40 55 125 55q78 0 121.5 -49t43.5 -131v-305q0 -10 -10 -10zM339 552q-32 0 -75 22q-34 18 -58 18q-31 0 -71 -32
q-9 -8 -9 3v72q0 10 8 20q36 36 77 36q32 0 75 -22q36 -18 58 -18q31 0 71 32q4 3 7 2t3 -5v-72q0 -11 -9 -20q-34 -36 -77 -36z" />
    <glyph glyph-name="ograve" unicode="&#xf2;" horiz-adv-x="530" 
d="M55 125q-16 49 -16 117t16 117q21 65 76.5 100.5t133.5 35.5t133.5 -35.5t76.5 -100.5q16 -49 16 -117t-16 -117q-21 -65 -76.5 -100.5t-133.5 -35.5t-133.5 35.5t-76.5 100.5zM340 159q9 28 9 83q0 54 -9 83q-16 52 -75 52t-75 -52q-9 -29 -9 -83t9 -83q16 -52 75 -52
t75 52zM324 551h-92q-12 0 -19 10l-99 130q-3 4 -1.5 7t6.5 3h116q12 0 18 -10l76 -130q4 -10 -5 -10z" />
    <glyph glyph-name="oacute" unicode="&#xf3;" horiz-adv-x="530" 
d="M300 551h-91q-10 0 -6 10l77 130q6 10 18 10h115q5 0 6.5 -3t-1.5 -7l-99 -130q-7 -10 -19 -10zM55 125q-16 49 -16 117t16 117q21 65 76.5 100.5t133.5 35.5t133.5 -35.5t76.5 -100.5q16 -49 16 -117t-16 -117q-21 -65 -76.5 -100.5t-133.5 -35.5t-133.5 35.5
t-76.5 100.5zM340 159q9 28 9 83q0 54 -9 83q-16 52 -75 52t-75 -52q-9 -29 -9 -83t9 -83q16 -52 75 -52t75 52z" />
    <glyph glyph-name="ocircumflex" unicode="&#xf4;" horiz-adv-x="530" 
d="M55 125q-16 49 -16 117t16 117q21 65 76.5 100.5t133.5 35.5t133.5 -35.5t76.5 -100.5q16 -49 16 -117t-16 -117q-21 -65 -76.5 -100.5t-133.5 -35.5t-133.5 35.5t-76.5 100.5zM340 159q9 28 9 83q0 54 -9 83q-16 52 -75 52t-75 -52q-9 -29 -9 -83t9 -83q16 -52 75 -52
t75 52zM420 550h-80q-12 0 -22 10l-52 54h-2l-53 -54q-10 -10 -22 -10h-79q-5 0 -6.5 3t1.5 7l104 131q7 10 18 10h75q12 0 19 -10l103 -131q3 -4 1.5 -7t-5.5 -3z" />
    <glyph glyph-name="otilde" unicode="&#xf5;" horiz-adv-x="530" 
d="M55 125q-16 49 -16 117t16 117q21 65 76.5 100.5t133.5 35.5t133.5 -35.5t76.5 -100.5q16 -49 16 -117t-16 -117q-21 -65 -76.5 -100.5t-133.5 -35.5t-133.5 35.5t-76.5 100.5zM340 159q9 28 9 83q0 54 -9 83q-16 52 -75 52t-75 -52q-9 -29 -9 -83t9 -83q16 -52 75 -52
t75 52zM328 552q-32 0 -75 22q-35 18 -58 18q-31 0 -71 -32q-9 -8 -9 3v72q0 10 8 20q36 36 77 36q32 0 75 -22q36 -18 58 -18q31 0 71 32q4 3 7 2t3 -5v-72q0 -11 -9 -20q-35 -36 -77 -36z" />
    <glyph glyph-name="odieresis" unicode="&#xf6;" horiz-adv-x="530" 
d="M55 125q-16 49 -16 117t16 117q21 65 76.5 100.5t133.5 35.5t133.5 -35.5t76.5 -100.5q16 -49 16 -117t-16 -117q-21 -65 -76.5 -100.5t-133.5 -35.5t-133.5 35.5t-76.5 100.5zM340 159q9 28 9 83q0 54 -9 83q-16 52 -75 52t-75 -52q-9 -29 -9 -83t9 -83q16 -52 75 -52
t75 52zM411 561h-93q-10 0 -10 10v99q0 10 10 10h93q10 0 10 -10v-99q0 -10 -10 -10zM210 561h-92q-10 0 -10 10v99q0 10 10 10h92q10 0 10 -10v-99q0 -10 -10 -10z" />
    <glyph glyph-name="divide" unicode="&#xf7;" 
d="M202 463q0 31 22 53.5t54 22.5t54 -22.5t22 -53.5q0 -32 -22 -54t-54 -22t-54 22t-22 54zM495 217h-434q-10 0 -10 10v98q0 10 10 10h434q10 0 10 -10v-98q0 -10 -10 -10zM202 89q0 32 22 54t54 22t54 -22t22 -54q0 -31 -22 -53.5t-54 -22.5t-54 22.5t-22 53.5z" />
    <glyph glyph-name="oslash" unicode="&#xf8;" horiz-adv-x="530" 
d="M266 -11q-70 0 -123 29l-28 -38q-7 -10 -19 -10h-51q-4 0 -5.5 3t1.5 7l54 75q-27 32 -39 70q-16 49 -16 117t16 117q21 65 76.5 100.5t133.5 35.5q72 0 123 -30l29 39q7 10 19 10h50q11 0 5 -10l-56 -76q27 -30 40 -69q16 -49 16 -117t-16 -117q-21 -65 -76.5 -100.5
t-133.5 -35.5zM180 242q0 -47 4 -67l131 189q-23 14 -49 14q-61 0 -77 -52q-9 -28 -9 -84zM266 106q61 0 77 52q9 28 9 84q0 45 -4 65l-130 -188q19 -13 48 -13z" />
    <glyph glyph-name="ugrave" unicode="&#xf9;" horiz-adv-x="549" 
d="M476 0h-120q-10 0 -10 10v35h-1q-42 -56 -124 -56q-77 0 -120 49t-43 131v305q0 10 10 10h120q10 0 10 -10v-278q0 -41 19.5 -64.5t54.5 -23.5t54.5 23.5t19.5 64.5v278q0 10 10 10h120q10 0 10 -10v-464q0 -10 -10 -10zM332 551h-92q-12 0 -19 10l-99 130q-3 4 -1.5 7
t6.5 3h116q12 0 18 -10l76 -130q4 -10 -5 -10z" />
    <glyph glyph-name="uacute" unicode="&#xfa;" horiz-adv-x="549" 
d="M476 0h-120q-10 0 -10 10v35h-1q-42 -56 -124 -56q-77 0 -120 49t-43 131v305q0 10 10 10h120q10 0 10 -10v-278q0 -41 19.5 -64.5t54.5 -23.5t54.5 23.5t19.5 64.5v278q0 10 10 10h120q10 0 10 -10v-464q0 -10 -10 -10zM309 551h-91q-10 0 -6 10l77 130q6 10 18 10h115
q5 0 6.5 -3t-1.5 -7l-99 -130q-7 -10 -19 -10z" />
    <glyph glyph-name="ucircumflex" unicode="&#xfb;" horiz-adv-x="549" 
d="M429 550h-80q-12 0 -22 10l-52 54h-2l-53 -54q-10 -10 -22 -10h-79q-5 0 -6.5 3t1.5 7l104 131q7 10 18 10h75q12 0 19 -10l103 -131q8 -10 -4 -10zM476 0h-120q-10 0 -10 10v35h-1q-42 -56 -124 -56q-77 0 -120 49t-43 131v305q0 10 10 10h120q10 0 10 -10v-278
q0 -41 19.5 -64.5t54.5 -23.5t54.5 23.5t19.5 64.5v278q0 10 10 10h120q10 0 10 -10v-464q0 -10 -10 -10z" />
    <glyph glyph-name="udieresis" unicode="&#xfc;" horiz-adv-x="549" 
d="M476 0h-120q-10 0 -10 10v35h-1q-42 -56 -124 -56q-77 0 -120 49t-43 131v305q0 10 10 10h120q10 0 10 -10v-278q0 -41 19.5 -64.5t54.5 -23.5t54.5 23.5t19.5 64.5v278q0 10 10 10h120q10 0 10 -10v-464q0 -10 -10 -10zM421 561h-93q-10 0 -10 10v99q0 10 10 10h93
q10 0 10 -10v-99q0 -10 -10 -10zM220 561h-92q-10 0 -10 10v99q0 10 10 10h92q10 0 10 -10v-99q0 -10 -10 -10z" />
    <glyph glyph-name="yacute" unicode="&#xfd;" horiz-adv-x="507" 
d="M130 -180h-34q-10 0 -10 10v98q0 10 10 10h21q26 0 41.5 11.5t24.5 38.5l13 36l-180 450q-3 10 8 10h128q9 0 12 -10l97 -280h2l90 280q3 10 12 10h124q11 0 8 -10l-196 -515q-30 -78 -68 -109q-37 -30 -103 -30zM297 551h-91q-10 0 -6 10l77 130q6 10 18 10h115
q5 0 6.5 -3t-1.5 -7l-99 -130q-7 -10 -19 -10z" />
    <glyph glyph-name="thorn" unicode="&#xfe;" horiz-adv-x="551" 
d="M193 -180h-120q-10 0 -10 10v840q0 10 10 10h120q10 0 10 -10v-231h1q38 56 127 56q126 0 164 -116q17 -56 17 -137t-17 -137q-38 -116 -164 -116q-89 0 -127 56h-1v-215q0 -10 -10 -10zM286 107q59 0 75 52q9 28 9 83q0 54 -9 83q-16 52 -75 52q-58 0 -74 -52
q-9 -29 -9 -83t9 -83q16 -52 74 -52z" />
    <glyph glyph-name="ydieresis" unicode="&#xff;" horiz-adv-x="507" 
d="M130 -180h-34q-10 0 -10 10v98q0 10 10 10h21q26 0 41.5 11.5t24.5 38.5l13 36l-180 450q-3 10 8 10h128q9 0 12 -10l97 -280h2l90 280q3 10 12 10h124q11 0 8 -10l-196 -515q-30 -78 -68 -109q-37 -30 -103 -30zM405 561h-93q-10 0 -10 10v99q0 10 10 10h93q10 0 10 -10
v-99q0 -10 -10 -10zM204 561h-92q-10 0 -10 10v99q0 10 10 10h92q10 0 10 -10v-99q0 -10 -10 -10z" />
    <glyph glyph-name="Amacron" unicode="&#x100;" horiz-adv-x="644" 
d="M17 10l234 660q3 10 13 10h126q10 0 13 -10l230 -660q3 -10 -7 -10h-130q-10 0 -13 10l-39 119h-238l-38 -119q-3 -10 -13 -10h-131q-10 0 -7 10zM324 492l-77 -238h157l-77 238h-3zM466 771h-283q-10 0 -10 10v76q0 10 10 10h283q10 0 10 -10v-76q0 -10 -10 -10z" />
    <glyph glyph-name="amacron" unicode="&#x101;" horiz-adv-x="528" 
d="M458 0h-111q-10 0 -10 10v32h-1q-41 -53 -133 -53q-72 0 -116.5 38.5t-44.5 109.5q0 77 53 116.5t148 39.5h86q6 0 6 6v18q0 36 -22 51t-77 15q-67 0 -108 -31q-8 -6 -13 2l-45 79q-5 9 3 14q67 48 180 48q116 0 165.5 -41t49.5 -134v-310q0 -10 -10 -10zM245 94
q90 0 90 67v33q0 6 -6 6h-68q-86 0 -86 -55q0 -51 70 -51zM404 575h-283q-10 0 -10 10v75q0 10 10 10h283q10 0 10 -10v-75q0 -10 -10 -10z" />
    <glyph glyph-name="Abreve" unicode="&#x102;" horiz-adv-x="644" 
d="M17 10l234 660q3 10 13 10h126q10 0 13 -10l230 -660q3 -10 -7 -10h-130q-10 0 -13 10l-39 119h-238l-38 -119q-3 -10 -13 -10h-131q-10 0 -7 10zM324 492l-77 -238h157l-77 238h-3zM325 744q-66 0 -108.5 36.5t-44.5 94.5q0 11 10 11h58q10 0 13 -11q17 -42 72 -42
q56 0 71 42q5 11 14 11h57q11 0 11 -11q-3 -58 -45.5 -94.5t-107.5 -36.5z" />
    <glyph glyph-name="abreve" unicode="&#x103;" horiz-adv-x="528" 
d="M458 0h-111q-10 0 -10 10v32h-1q-41 -53 -133 -53q-72 0 -116.5 38.5t-44.5 109.5q0 77 53 116.5t148 39.5h86q6 0 6 6v18q0 36 -22 51t-77 15q-67 0 -108 -31q-8 -6 -13 2l-45 79q-5 9 3 14q67 48 180 48q116 0 165.5 -41t49.5 -134v-310q0 -10 -10 -10zM245 94
q90 0 90 67v33q0 6 -6 6h-68q-86 0 -86 -55q0 -51 70 -51zM263 546q-66 0 -108.5 36.5t-44.5 94.5q0 10 10 10h58q10 0 13 -10q16 -43 72 -43t71 43q4 10 14 10h57q11 0 11 -10q-3 -58 -45.5 -94.5t-107.5 -36.5z" />
    <glyph glyph-name="Aogonek" unicode="&#x104;" horiz-adv-x="644" 
d="M537 -191q-47 0 -75 25t-28 67q0 55 62 99q-10 0 -13 10l-39 119h-237l-39 -119q-3 -10 -12 -10h-131q-11 0 -8 10l234 660q3 10 13 10h126q10 0 13 -10l230 -660q3 -7 -6 -11q-87 -43 -87 -74q0 -21 21 -21q7 0 25 8q8 4 13 -4l31 -59q5 -8 -4 -14q-38 -26 -89 -26z
M327 492h-3l-77 -238h157z" />
    <glyph glyph-name="aogonek" unicode="&#x105;" horiz-adv-x="528" 
d="M337 10v32h-1q-41 -53 -133 -53q-72 0 -116.5 38.5t-44.5 109.5q0 77 53 116.5t148 39.5h86q6 0 6 6v18q0 36 -22 51t-77 15q-67 0 -108 -31q-8 -6 -13 2l-45 79q-5 9 3 14q67 48 180 48q116 0 165.5 -41t49.5 -134v-310q0 -7 -6 -10q-88 -43 -88 -75q0 -21 21 -21
q7 0 25 8q8 4 13 -4l31 -59q4 -6 -4 -14q-40 -26 -89 -26q-47 0 -75 25t-28 67q0 62 71 103q-2 2 -2 6zM245 94q90 0 90 67v33q0 6 -6 6h-68q-86 0 -86 -55q0 -51 70 -51z" />
    <glyph glyph-name="Cacute" unicode="&#x106;" horiz-adv-x="575" 
d="M66 156q-19 54 -19 184t19 184q27 81 89.5 124t152.5 43q86 0 147 -39t90 -112q5 -9 -5 -12l-109 -49q-10 -5 -14 5q-33 77 -108 77q-78 0 -102 -75q-11 -36 -11 -146t11 -146q24 -75 102 -75q75 0 108 77q4 10 14 5l109 -49q10 -3 5 -12q-29 -73 -90 -112t-147 -39
q-90 0 -152.5 43t-89.5 124zM330 754h-93q-12 0 -4 10l95 115q7 10 19 10h120q5 0 7 -3t-2 -7l-123 -116q-9 -9 -19 -9z" />
    <glyph glyph-name="cacute" unicode="&#x107;" horiz-adv-x="481" 
d="M284 551h-91q-10 0 -6 10l77 130q6 10 18 10h115q5 0 6.5 -3t-1.5 -7l-99 -130q-7 -10 -19 -10zM263 -11q-79 0 -133.5 35.5t-75.5 101.5q-15 43 -15 116q0 72 15 116q21 66 75.5 101.5t133.5 35.5q59 0 107.5 -24.5t75.5 -66.5q5 -8 -2 -14l-87 -57q-9 -6 -15 2
q-30 42 -77 42q-59 0 -75 -52q-9 -25 -9 -83t9 -83q16 -52 75 -52q47 0 77 42q6 8 15 2l87 -57q7 -6 2 -14q-27 -42 -75.5 -66.5t-107.5 -24.5z" />
    <glyph glyph-name="Ccircumflex" unicode="&#x108;" horiz-adv-x="575" 
d="M66 156q-19 54 -19 184t19 184q27 81 89.5 124t152.5 43q86 0 147 -39t90 -112q5 -9 -5 -12l-109 -49q-10 -5 -14 5q-33 77 -108 77q-78 0 -102 -75q-11 -36 -11 -146t11 -146q24 -75 102 -75q75 0 108 77q4 10 14 5l109 -49q10 -3 5 -12q-29 -73 -90 -112t-147 -39
q-90 0 -152.5 43t-89.5 124zM462 747h-80q-12 0 -22 10l-53 54h-2l-52 -54q-10 -10 -22 -10h-80q-12 0 -4 10l103 131q7 10 19 10h75q11 0 18 -10l104 -131q3 -4 1.5 -7t-5.5 -3z" />
    <glyph glyph-name="ccircumflex" unicode="&#x109;" horiz-adv-x="481" 
d="M263 -11q-79 0 -133.5 35.5t-75.5 101.5q-15 43 -15 116q0 72 15 116q21 66 75.5 101.5t133.5 35.5q59 0 107.5 -24.5t75.5 -66.5q5 -8 -2 -14l-87 -57q-9 -6 -15 2q-30 42 -77 42q-59 0 -75 -52q-9 -25 -9 -83t9 -83q16 -52 75 -52q47 0 77 42q6 8 15 2l87 -57
q7 -6 2 -14q-27 -42 -75.5 -66.5t-107.5 -24.5zM414 550h-80q-12 0 -22 10l-52 54h-2l-53 -54q-10 -10 -22 -10h-79q-5 0 -6.5 3t1.5 7l104 131q7 10 18 10h75q12 0 19 -10l103 -131q3 -4 1.5 -7t-5.5 -3z" />
    <glyph glyph-name="Cdotaccent" unicode="&#x10a;" horiz-adv-x="575" 
d="M66 156q-19 54 -19 184t19 184q27 81 89.5 124t152.5 43q86 0 147 -39t90 -112q5 -9 -5 -12l-109 -49q-10 -5 -14 5q-33 77 -108 77q-78 0 -102 -75q-11 -36 -11 -146t11 -146q24 -75 102 -75q75 0 108 77q4 10 14 5l109 -49q10 -3 5 -12q-29 -73 -90 -112t-147 -39
q-90 0 -152.5 43t-89.5 124zM362 760h-115q-10 0 -10 10v98q0 10 10 10h115q10 0 10 -10v-98q0 -10 -10 -10z" />
    <glyph glyph-name="cdotaccent" unicode="&#x10b;" horiz-adv-x="481" 
d="M263 -11q-79 0 -133.5 35.5t-75.5 101.5q-15 43 -15 116q0 72 15 116q21 66 75.5 101.5t133.5 35.5q59 0 107.5 -24.5t75.5 -66.5q5 -8 -2 -14l-87 -57q-9 -6 -15 2q-30 42 -77 42q-59 0 -75 -52q-9 -25 -9 -83t9 -83q16 -52 75 -52q47 0 77 42q6 8 15 2l87 -57
q7 -6 2 -14q-27 -42 -75.5 -66.5t-107.5 -24.5zM317 561h-115q-10 0 -10 10v99q0 10 10 10h115q10 0 10 -10v-99q0 -10 -10 -10z" />
    <glyph glyph-name="Ccaron" unicode="&#x10c;" horiz-adv-x="575" 
d="M66 156q-19 54 -19 184t19 184q27 81 89.5 124t152.5 43q86 0 147 -39t90 -112q5 -9 -5 -12l-109 -49q-10 -5 -14 5q-33 77 -108 77q-78 0 -102 -75q-11 -36 -11 -146t11 -146q24 -75 102 -75q75 0 108 77q4 10 14 5l109 -49q10 -3 5 -12q-29 -73 -90 -112t-147 -39
q-90 0 -152.5 43t-89.5 124zM343 744h-75q-12 0 -19 10l-103 130q-3 4 -1.5 7t5.5 3h80q12 0 22 -10l52 -54h2l53 54q10 10 22 10h80q12 0 4 -10l-104 -130q-7 -10 -18 -10z" />
    <glyph glyph-name="ccaron" unicode="&#x10d;" horiz-adv-x="481" 
d="M297 547h-75q-11 0 -18 10l-104 131q-3 4 -1.5 7t6.5 3h79q12 0 22 -10l53 -54h2l52 54q10 10 22 10h80q12 0 4 -10l-103 -131q-7 -10 -19 -10zM263 -11q-79 0 -133.5 35.5t-75.5 101.5q-15 43 -15 116q0 72 15 116q21 66 75.5 101.5t133.5 35.5q59 0 107.5 -24.5
t75.5 -66.5q5 -8 -2 -14l-87 -57q-9 -6 -15 2q-30 42 -77 42q-59 0 -75 -52q-9 -25 -9 -83t9 -83q16 -52 75 -52q47 0 77 42q6 8 15 2l87 -57q7 -6 2 -14q-27 -42 -75.5 -66.5t-107.5 -24.5z" />
    <glyph glyph-name="Dcaron" unicode="&#x10e;" horiz-adv-x="628" 
d="M333 744h-75q-12 0 -19 10l-103 130q-3 4 -1.5 7t5.5 3h80q12 0 22 -10l52 -54h2l53 54q10 10 22 10h80q12 0 4 -10l-104 -130q-7 -10 -18 -10zM65 10v660q0 10 10 10h253q186 0 235 -153q18 -57 18 -187t-18 -187q-49 -153 -235 -153h-253q-10 0 -10 10zM212 543v-406
q0 -6 6 -6h77q103 0 126 75q11 33 11 134t-11 134q-23 75 -126 75h-77q-6 0 -6 -6z" />
    <glyph glyph-name="dcaron" unicode="&#x10f;" horiz-adv-x="563" 
d="M478 0h-120q-10 0 -10 10v35h-1q-39 -56 -127 -56q-126 0 -164 116q-17 56 -17 137t17 137q38 116 164 116q88 0 127 -56h1v231q0 10 10 10h120q10 0 10 -10v-660q0 -10 -10 -10zM265 107q58 0 74 52q9 28 9 83q0 54 -9 83q-16 52 -74 52q-59 0 -75 -52q-9 -29 -9 -83
t9 -83q16 -52 75 -52zM532 488q-11 0 -11 11v171q0 10 10 10h96q10 0 10 -10v-84q0 -12 -8 -20l-82 -71q-7 -7 -15 -7z" />
    <glyph glyph-name="Dcroat" unicode="&#x110;" horiz-adv-x="628" 
d="M328 0h-253q-10 0 -10 10v273q0 6 -6 6h-25q-10 0 -10 10v88q0 10 10 10h25q6 0 6 6v267q0 10 10 10h253q186 0 235 -153q18 -57 18 -187t-18 -187q-49 -153 -235 -153zM218 131h77q103 0 126 75q11 33 11 134t-11 134q-23 75 -126 75h-77q-6 0 -6 -6v-140q0 -6 6 -6h83
q10 0 10 -10v-88q0 -10 -10 -10h-83q-6 0 -6 -6v-146q0 -6 6 -6z" />
    <glyph glyph-name="dslash" unicode="&#x111;" horiz-adv-x="551" 
d="M478 0h-120q-10 0 -10 10v35h-1q-39 -56 -127 -56q-126 0 -164 116q-17 56 -17 137t17 137q38 116 164 116q88 0 127 -56h1v97q0 6 -6 6h-103q-10 0 -10 10v77q0 10 10 10h103q6 0 6 6v25q0 10 10 10h120q10 0 10 -10v-25q0 -6 6 -6h19q10 0 10 -10v-77q0 -10 -10 -10
h-19q-6 0 -6 -6v-526q0 -10 -10 -10zM265 107q58 0 74 52q9 28 9 83q0 54 -9 83q-16 52 -74 52q-59 0 -75 -52q-9 -29 -9 -83t9 -83q16 -52 75 -52z" />
    <glyph glyph-name="Emacron" unicode="&#x112;" horiz-adv-x="565" 
d="M65 10v660q0 10 10 10h436q10 0 10 -10v-107q0 -10 -10 -10h-293q-6 0 -6 -6v-135q0 -6 6 -6h244q10 0 10 -10v-106q0 -10 -10 -10h-244q-6 0 -6 -6v-141q0 -6 6 -6h293q10 0 10 -10v-107q0 -10 -10 -10h-436q-10 0 -10 10zM432 771h-283q-10 0 -10 10v76q0 10 10 10h283
q10 0 10 -10v-76q0 -10 -10 -10z" />
    <glyph glyph-name="emacron" unicode="&#x113;" horiz-adv-x="527" 
d="M270 -11q-82 0 -137.5 36t-76.5 102q-17 53 -17 115q0 69 16 116q21 65 76 101t132 36q78 0 133 -36t76 -100q16 -49 16 -149q0 -10 -11 -10h-293q-6 0 -6 -6q2 -15 6 -27q19 -64 100 -64q65 0 111 43q9 8 14 0l66 -62q7 -8 1 -14q-76 -81 -206 -81zM184 293h160q6 0 6 6
q0 18 -5 36q-18 53 -81 53t-81 -53q-5 -18 -5 -36q0 -6 6 -6zM404 575h-283q-10 0 -10 10v75q0 10 10 10h283q10 0 10 -10v-75q0 -10 -10 -10z" />
    <glyph glyph-name="Ebreve" unicode="&#x114;" horiz-adv-x="565" 
d="M65 10v660q0 10 10 10h436q10 0 10 -10v-107q0 -10 -10 -10h-293q-6 0 -6 -6v-135q0 -6 6 -6h244q10 0 10 -10v-106q0 -10 -10 -10h-244q-6 0 -6 -6v-141q0 -6 6 -6h293q10 0 10 -10v-107q0 -10 -10 -10h-436q-10 0 -10 10zM290 744q-66 0 -108.5 36.5t-44.5 94.5
q0 11 10 11h58q10 0 13 -11q16 -42 72 -42t71 42q5 11 14 11h57q11 0 11 -11q-3 -58 -45.5 -94.5t-107.5 -36.5z" />
    <glyph glyph-name="ebreve" unicode="&#x115;" horiz-adv-x="527" 
d="M270 -11q-82 0 -137.5 36t-76.5 102q-17 53 -17 115q0 69 16 116q21 65 76 101t132 36q78 0 133 -36t76 -100q16 -49 16 -149q0 -10 -11 -10h-293q-6 0 -6 -6q2 -15 6 -27q19 -64 100 -64q65 0 111 43q9 8 14 0l66 -62q7 -8 1 -14q-76 -81 -206 -81zM184 293h160q6 0 6 6
q0 18 -5 36q-18 53 -81 53t-81 -53q-5 -18 -5 -36q0 -6 6 -6zM263 546q-66 0 -108.5 36.5t-44.5 94.5q0 10 10 10h58q10 0 13 -10q16 -43 72 -43t71 43q4 10 14 10h57q11 0 11 -10q-3 -58 -45.5 -94.5t-107.5 -36.5z" />
    <glyph glyph-name="Edotaccent" unicode="&#x116;" horiz-adv-x="565" 
d="M65 10v660q0 10 10 10h436q10 0 10 -10v-107q0 -10 -10 -10h-293q-6 0 -6 -6v-135q0 -6 6 -6h244q10 0 10 -10v-106q0 -10 -10 -10h-244q-6 0 -6 -6v-141q0 -6 6 -6h293q10 0 10 -10v-107q0 -10 -10 -10h-436q-10 0 -10 10zM347 760h-115q-10 0 -10 10v98q0 10 10 10h115
q10 0 10 -10v-98q0 -10 -10 -10z" />
    <glyph glyph-name="edotaccent" unicode="&#x117;" horiz-adv-x="527" 
d="M270 -11q-82 0 -137.5 36t-76.5 102q-17 53 -17 115q0 69 16 116q21 65 76 101t132 36q78 0 133 -36t76 -100q16 -49 16 -149q0 -10 -11 -10h-293q-6 0 -6 -6q2 -15 6 -27q19 -64 100 -64q65 0 111 43q9 8 14 0l66 -62q7 -8 1 -14q-76 -81 -206 -81zM184 293h160q6 0 6 6
q0 18 -5 36q-18 53 -81 53t-81 -53q-5 -18 -5 -36q0 -6 6 -6zM320 561h-115q-10 0 -10 10v99q0 10 10 10h115q10 0 10 -10v-99q0 -10 -10 -10z" />
    <glyph glyph-name="Eogonek" unicode="&#x118;" horiz-adv-x="565" 
d="M414 -191q-47 0 -75 25t-28 67q0 55 59 99h-295q-10 0 -10 10v660q0 10 10 10h436q10 0 10 -10v-107q0 -10 -10 -10h-293q-6 0 -6 -6v-135q0 -6 6 -6h244q10 0 10 -10v-106q0 -10 -10 -10h-244q-6 0 -6 -6v-141q0 -6 6 -6h293q10 0 10 -10v-107q0 -10 -10 -10h-10
q-84 -44 -84 -75q0 -21 21 -21q7 0 25 8q8 5 13 -4l31 -59q5 -8 -4 -13q-37 -27 -89 -27z" />
    <glyph glyph-name="eogonek" unicode="&#x119;" horiz-adv-x="527" 
d="M344 -191q-47 0 -75 25t-28 67q0 45 37 88h-13q-80 1 -134 36.5t-75 101.5q-17 53 -17 115q0 69 16 116q21 65 76 101t132 36q78 0 133 -36t76 -100q16 -49 16 -149q0 -10 -11 -10h-293q-6 0 -6 -6q2 -15 6 -27q19 -64 100 -64q65 0 111 43q9 8 14 0l66 -62q7 -8 1 -14
q-18 -20 -45 -38q-84 -72 -84 -107q0 -21 21 -21q10 0 24 8q8 4 13 -4l32 -59q4 -6 -4 -14q-40 -26 -89 -26zM184 293h160q6 0 6 6q0 18 -5 36q-18 53 -81 53t-81 -53q-5 -18 -5 -36q0 -6 6 -6z" />
    <glyph glyph-name="Ecaron" unicode="&#x11a;" horiz-adv-x="565" 
d="M329 744h-75q-12 0 -19 10l-103 130q-3 4 -1.5 7t5.5 3h80q12 0 22 -10l52 -54h2l53 54q10 10 22 10h80q12 0 4 -10l-104 -130q-7 -10 -18 -10zM65 10v660q0 10 10 10h436q10 0 10 -10v-107q0 -10 -10 -10h-293q-6 0 -6 -6v-135q0 -6 6 -6h244q10 0 10 -10v-106
q0 -10 -10 -10h-244q-6 0 -6 -6v-141q0 -6 6 -6h293q10 0 10 -10v-107q0 -10 -10 -10h-436q-10 0 -10 10z" />
    <glyph glyph-name="ecaron" unicode="&#x11b;" horiz-adv-x="527" 
d="M270 -11q-82 0 -137.5 36t-76.5 102q-17 53 -17 115q0 69 16 116q21 65 76 101t132 36q78 0 133 -36t76 -100q16 -49 16 -149q0 -10 -11 -10h-293q-6 0 -6 -6q2 -15 6 -27q19 -64 100 -64q65 0 111 43q9 8 14 0l66 -62q7 -8 1 -14q-76 -81 -206 -81zM184 293h160q6 0 6 6
q0 18 -5 36q-18 53 -81 53t-81 -53q-5 -18 -5 -36q0 -6 6 -6zM300 547h-75q-11 0 -18 10l-104 131q-3 4 -1.5 7t6.5 3h79q12 0 22 -10l53 -54h2l52 54q10 10 22 10h80q4 0 5.5 -3t-1.5 -7l-103 -131q-7 -10 -19 -10z" />
    <glyph glyph-name="Gcircumflex" unicode="&#x11c;" horiz-adv-x="628" 
d="M66 154q-19 58 -19 186t19 186q26 80 91 122.5t159 42.5q89 0 153 -39t89 -106q5 -11 -4 -15l-107 -45q-11 -3 -14 5q-40 70 -117 70q-85 0 -109 -76q-11 -35 -11 -145q0 -111 11 -146q24 -75 111 -75q40 0 69.5 18.5t39.5 51.5q8 29 8 67q0 6 -6 6h-92q-10 0 -10 10v96
q0 10 10 10h234q10 0 10 -10v-56q0 -99 -17 -153q-25 -80 -91 -125t-157 -45q-94 0 -159 42.5t-91 122.5zM469 747h-80q-12 0 -22 10l-53 54h-2l-52 -54q-10 -10 -22 -10h-80q-4 0 -5.5 3t1.5 7l103 131q7 10 19 10h75q11 0 18 -10l104 -131q8 -10 -4 -10z" />
    <glyph glyph-name="gcircumflex" unicode="&#x11d;" horiz-adv-x="543" 
d="M239 -191q-54 0 -106 21q-51 19 -77 52q-6 8 1 15l71 72q8 7 15 0q47 -42 100 -42q97 0 97 107v41h-1q-35 -56 -124 -56q-125 0 -162 117q-16 51 -16 121q0 72 16 121q37 117 162 117q89 0 124 -56h1v35q0 10 10 10h120q10 0 10 -10v-422q0 -243 -241 -243zM259 137
q56 0 72 52q9 27 9 68t-9 68q-16 52 -72 52q-54 0 -72 -52q-19 -68 0 -136q18 -52 72 -52zM418 550h-80q-12 0 -22 10l-52 54h-2l-53 -54q-10 -10 -22 -10h-79q-5 0 -6.5 3t1.5 7l104 131q7 10 18 10h75q12 0 19 -10l103 -131q3 -4 1.5 -7t-5.5 -3z" />
    <glyph glyph-name="Gbreve" unicode="&#x11e;" horiz-adv-x="628" 
d="M314 744q-66 0 -108.5 36.5t-44.5 94.5q0 11 10 11h58q10 0 13 -11q16 -42 72 -42t71 42q5 11 14 11h57q11 0 11 -11q-3 -58 -45.5 -94.5t-107.5 -36.5zM66 154q-19 58 -19 186t19 186q26 80 91 122.5t159 42.5q89 0 153 -39t89 -106q5 -11 -4 -15l-107 -45q-11 -3 -14 5
q-40 70 -117 70q-85 0 -109 -76q-11 -35 -11 -145q0 -111 11 -146q24 -75 111 -75q40 0 69.5 18.5t39.5 51.5q8 29 8 67q0 6 -6 6h-92q-10 0 -10 10v96q0 10 10 10h234q10 0 10 -10v-56q0 -99 -17 -153q-25 -80 -91 -125t-157 -45q-94 0 -159 42.5t-91 122.5z" />
    <glyph glyph-name="gbreve" unicode="&#x11f;" horiz-adv-x="543" 
d="M239 -191q-54 0 -106 21q-51 19 -77 52q-6 8 1 15l71 72q8 7 15 0q47 -42 100 -42q97 0 97 107v41h-1q-35 -56 -124 -56q-125 0 -162 117q-16 51 -16 121q0 72 16 121q37 117 162 117q89 0 124 -56h1v35q0 10 10 10h120q10 0 10 -10v-422q0 -243 -241 -243zM259 137
q56 0 72 52q9 27 9 68t-9 68q-16 52 -72 52q-54 0 -72 -52q-19 -68 0 -136q18 -52 72 -52zM263 546q-66 0 -108.5 36.5t-44.5 94.5q0 10 10 10h58q10 0 13 -10q16 -43 72 -43t71 43q4 10 14 10h57q11 0 11 -10q-3 -58 -45.5 -94.5t-107.5 -36.5z" />
    <glyph glyph-name="Gdotaccent" unicode="&#x120;" horiz-adv-x="628" 
d="M66 154q-19 58 -19 186t19 186q26 80 91 122.5t159 42.5q89 0 153 -39t89 -106q5 -11 -4 -15l-107 -45q-11 -3 -14 5q-40 70 -117 70q-85 0 -109 -76q-11 -35 -11 -145q0 -111 11 -146q24 -75 111 -75q40 0 69.5 18.5t39.5 51.5q8 29 8 67q0 6 -6 6h-92q-10 0 -10 10v96
q0 10 10 10h234q10 0 10 -10v-56q0 -99 -17 -153q-25 -80 -91 -125t-157 -45q-94 0 -159 42.5t-91 122.5zM371 760h-115q-10 0 -10 10v98q0 10 10 10h115q10 0 10 -10v-98q0 -10 -10 -10z" />
    <glyph glyph-name="gdotaccent" unicode="&#x121;" horiz-adv-x="543" 
d="M239 -191q-54 0 -106 21q-51 19 -77 52q-6 8 1 15l71 72q8 7 15 0q47 -42 100 -42q97 0 97 107v41h-1q-35 -56 -124 -56q-125 0 -162 117q-16 51 -16 121q0 72 16 121q37 117 162 117q89 0 124 -56h1v35q0 10 10 10h120q10 0 10 -10v-422q0 -243 -241 -243zM259 137
q56 0 72 52q9 27 9 68t-9 68q-16 52 -72 52q-54 0 -72 -52q-19 -68 0 -136q18 -52 72 -52zM320 561h-115q-10 0 -10 10v99q0 10 10 10h115q10 0 10 -10v-99q0 -10 -10 -10z" />
    <glyph glyph-name="Gcommaaccent" unicode="&#x122;" horiz-adv-x="628" 
d="M66 154q-19 58 -19 186t19 186q26 80 91 122.5t159 42.5q89 0 153 -39t89 -106q5 -11 -4 -15l-107 -45q-11 -3 -14 5q-40 70 -117 70q-85 0 -109 -76q-11 -35 -11 -145q0 -111 11 -146q24 -75 111 -75q40 0 69.5 18.5t39.5 51.5q8 29 8 67q0 6 -6 6h-92q-10 0 -10 10v96
q0 10 10 10h234q10 0 10 -10v-56q0 -99 -17 -153q-25 -80 -91 -125t-157 -45q-94 0 -159 42.5t-91 122.5zM263 -238q-11 0 -11 12v166q0 10 10 10h102q10 0 10 -10v-79q0 -12 -8 -20l-87 -71q-11 -8 -16 -8z" />
    <glyph glyph-name="gcommaaccent" unicode="&#x123;" horiz-adv-x="543" 
d="M239 -191q-54 0 -106 21q-51 19 -77 52q-6 8 1 15l71 72q8 7 15 0q47 -42 100 -42q97 0 97 107v41h-1q-35 -56 -124 -56q-125 0 -162 117q-16 51 -16 121q0 72 16 121q37 117 162 117q89 0 124 -56h1v35q0 10 10 10h120q10 0 10 -10v-422q0 -243 -241 -243zM259 137
q56 0 72 52q9 27 9 68t-9 68q-16 52 -72 52q-54 0 -72 -52q-19 -68 0 -136q18 -52 72 -52zM314 561h-102q-10 0 -10 10v79q0 12 8 20l87 72q7 7 16 7q11 0 11 -12v-166q0 -10 -10 -10z" />
    <glyph glyph-name="Hcircumflex" unicode="&#x124;" horiz-adv-x="658" 
d="M65 10v660q0 10 10 10h127q10 0 10 -10v-255q0 -6 6 -6h222q6 0 6 6v255q0 10 10 10h127q10 0 10 -10v-660q0 -10 -10 -10h-127q-10 0 -10 10v262q0 6 -6 6h-222q-6 0 -6 -6v-262q0 -10 -10 -10h-127q-10 0 -10 10zM484 747h-80q-12 0 -22 10l-53 54h-2l-52 -54
q-10 -10 -22 -10h-80q-12 0 -4 10l103 131q7 10 19 10h75q11 0 18 -10l104 -131q3 -4 1.5 -7t-5.5 -3z" />
    <glyph glyph-name="hcircumflex" unicode="&#x125;" horiz-adv-x="553" 
d="M484 0h-120q-10 0 -10 10v278q0 42 -19.5 65t-55.5 23t-56 -24t-20 -64v-278q0 -10 -10 -10h-120q-10 0 -10 10v660q0 10 10 10h120q10 0 10 -10v-230h1q40 55 125 55q78 0 121.5 -49t43.5 -131v-305q0 -10 -10 -10zM437 747h-80q-12 0 -22 10l-53 54h-2l-52 -54
q-10 -10 -22 -10h-80q-4 0 -5.5 3t1.5 7l103 131q7 10 19 10h75q11 0 18 -10l104 -131q8 -10 -4 -10z" />
    <glyph glyph-name="Hbar" unicode="&#x126;" horiz-adv-x="658" 
d="M583 0h-127q-10 0 -10 10v262q0 6 -6 6h-222q-6 0 -6 -6v-262q0 -10 -10 -10h-127q-10 0 -10 10v480q0 6 -6 6h-32q-10 0 -10 10v74q0 10 10 10h32q6 0 6 6v74q0 10 10 10h127q10 0 10 -10v-74q0 -6 6 -6h222q6 0 6 6v74q0 10 10 10h127q10 0 10 -10v-74q0 -6 6 -6h32
q10 0 10 -10v-74q0 -10 -10 -10h-32q-6 0 -6 -6v-480q0 -10 -10 -10zM218 409h222q6 0 6 6v75q0 6 -6 6h-222q-6 0 -6 -6v-75q0 -6 6 -6z" />
    <glyph glyph-name="hbar" unicode="&#x127;" horiz-adv-x="553" 
d="M484 0h-120q-10 0 -10 10v278q0 42 -19.5 65t-55.5 23t-56 -24t-20 -64v-278q0 -10 -10 -10h-120q-10 0 -10 10v526q0 6 -6 6h-19q-10 0 -10 10v77q0 10 10 10h19q6 0 6 6v25q0 10 10 10h120q10 0 10 -10v-25q0 -6 6 -6h103q10 0 10 -10v-77q0 -10 -10 -10h-103
q-6 0 -6 -6v-96h1q40 55 125 55q78 0 121.5 -49t43.5 -131v-305q0 -10 -10 -10z" />
    <glyph glyph-name="Itilde" unicode="&#x128;" horiz-adv-x="277" 
d="M202 748q-33 0 -75 21q-32 18 -58 18q-31 0 -71 -31q-9 -8 -9 2v72q0 11 8 21q35 35 77 35q33 0 75 -21q33 -18 58 -18q31 0 71 31q4 3 7 2t3 -4v-72q0 -12 -9 -21q-33 -35 -77 -35zM65 10v660q0 10 10 10h127q10 0 10 -10v-660q0 -10 -10 -10h-127q-10 0 -10 10z" />
    <glyph glyph-name="itilde" unicode="&#x129;" horiz-adv-x="266" 
d="M197 552q-32 0 -75 22q-35 18 -58 18q-31 0 -71 -32q-9 -8 -9 3v72q0 10 8 20q36 36 77 36q32 0 75 -22q36 -18 58 -18q31 0 71 32q4 3 7 2t3 -5v-72q0 -11 -9 -20q-34 -36 -77 -36zM193 0h-120q-10 0 -10 10v464q0 10 10 10h120q10 0 10 -10v-464q0 -10 -10 -10z" />
    <glyph glyph-name="Imacron" unicode="&#x12a;" horiz-adv-x="277" 
d="M65 10v660q0 10 10 10h127q10 0 10 -10v-660q0 -10 -10 -10h-127q-10 0 -10 10zM280 771h-283q-10 0 -10 10v76q0 10 10 10h283q10 0 10 -10v-76q0 -10 -10 -10z" />
    <glyph glyph-name="imacron" unicode="&#x12b;" horiz-adv-x="266" 
d="M193 0h-120q-10 0 -10 10v464q0 10 10 10h120q10 0 10 -10v-464q0 -10 -10 -10zM275 575h-283q-10 0 -10 10v75q0 10 10 10h283q10 0 10 -10v-75q0 -10 -10 -10z" />
    <glyph glyph-name="Ibreve" unicode="&#x12c;" horiz-adv-x="277" 
d="M65 10v660q0 10 10 10h127q10 0 10 -10v-660q0 -10 -10 -10h-127q-10 0 -10 10zM138 744q-66 0 -108.5 36.5t-44.5 94.5q0 11 10 11h58q10 0 13 -11q16 -42 72 -42t71 42q5 11 14 11h57q11 0 11 -11q-3 -58 -45.5 -94.5t-107.5 -36.5z" />
    <glyph glyph-name="ibreve" unicode="&#x12d;" horiz-adv-x="266" 
d="M133 546q-66 0 -108.5 36.5t-44.5 94.5q0 10 10 10h58q10 0 13 -10q16 -43 72 -43t71 43q4 10 14 10h57q11 0 11 -10q-3 -58 -45.5 -94.5t-107.5 -36.5zM193 0h-120q-10 0 -10 10v464q0 10 10 10h120q10 0 10 -10v-464q0 -10 -10 -10z" />
    <glyph glyph-name="Iogonek" unicode="&#x12e;" horiz-adv-x="277" 
d="M129 -191q-47 0 -75 25t-28 67q0 49 53 99h-4q-10 0 -10 10v660q0 10 10 10h127q10 0 10 -10v-660q0 -6 -6 -10q-43 -27 -58.5 -43t-15.5 -32q0 -21 21 -21q11 0 25 8q8 4 13 -4l31 -59q4 -6 -4 -14q-40 -26 -89 -26z" />
    <glyph glyph-name="iogonek" unicode="&#x12f;" horiz-adv-x="266" 
d="M193 561h-120q-10 0 -10 10v99q0 10 10 10h120q10 0 10 -10v-99q0 -10 -10 -10zM124 -191q-47 0 -75 25t-28 67q0 55 50 100h-1q-7 1 -7 9v464q0 10 10 10h120q10 0 10 -10v-464q0 -8 -7 -11q-69 -45 -69 -74q0 -21 21 -21q11 0 25 8q8 5 13 -4l31 -59q4 -6 -4 -14
q-40 -26 -89 -26z" />
    <glyph glyph-name="Idot" unicode="&#x130;" horiz-adv-x="277" 
d="M65 10v660q0 10 10 10h127q10 0 10 -10v-660q0 -10 -10 -10h-127q-10 0 -10 10zM196 760h-115q-10 0 -10 10v98q0 10 10 10h115q10 0 10 -10v-98q0 -10 -10 -10z" />
    <glyph glyph-name="dotlessi" unicode="&#x131;" horiz-adv-x="266" 
d="M193 0h-120q-10 0 -10 10v464q0 10 10 10h120q10 0 10 -10v-464q0 -10 -10 -10z" />
    <glyph glyph-name="Jcircumflex" unicode="&#x134;" horiz-adv-x="521" 
d="M543 747h-80q-12 0 -22 10l-53 54h-2l-52 -54q-10 -10 -22 -10h-80q-12 0 -4 10l103 131q7 10 19 10h75q11 0 18 -10l104 -131q3 -4 1.5 -7t-5.5 -3zM26 76q-5 8 1 14l93 71q8 5 14 -2q34 -40 83 -40q48 0 74 30.5t26 87.5v433q0 10 10 10h127q10 0 10 -10v-426
q0 -123 -65 -189t-183 -66q-60 0 -113 24.5t-77 62.5z" />
    <glyph glyph-name="jcircumflex" unicode="&#x135;" horiz-adv-x="273" 
d="M28 -180h-33q-10 0 -10 10v98q0 10 10 10h20q30 0 42 12t12 44v480q0 10 10 10h120q10 0 10 -10v-479q0 -175 -181 -175zM294 550h-80q-12 0 -22 10l-52 54h-2l-53 -54q-10 -10 -22 -10h-79q-5 0 -6.5 3t1.5 7l104 131q7 10 18 10h75q12 0 19 -10l103 -131q8 -10 -4 -10z
" />
    <glyph glyph-name="Kcommaaccent" unicode="&#x136;" horiz-adv-x="645" 
d="M65 10v660q0 10 10 10h127q10 0 10 -10v-294l226 295q6 9 17 9h145q13 0 4 -13l-206 -258l225 -397q7 -12 -6 -12h-147q-10 0 -15 9l-154 286l-89 -112v-173q0 -10 -10 -10h-127q-10 0 -10 10zM274 -238q-11 0 -11 12v166q0 10 10 10h102q10 0 10 -10v-79q0 -12 -8 -20
l-87 -71q-11 -8 -16 -8z" />
    <glyph glyph-name="kcommaaccent" unicode="&#x137;" horiz-adv-x="531" 
d="M509 0h-133q-9 0 -15 10l-108 195l-50 -62v-133q0 -10 -10 -10h-120q-10 0 -10 10v660q0 10 10 10h120q10 0 10 -10v-367l139 171q9 10 19 10h128q4 0 5.5 -3.5t-1.5 -6.5l-148 -171l169 -293q5 -10 -5 -10zM220 -238q-11 0 -11 12v166q0 10 10 10h102q10 0 10 -10v-79
q0 -12 -8 -20l-87 -71q-11 -8 -16 -8z" />
    <glyph glyph-name="kgreenlandic" unicode="&#x138;" horiz-adv-x="531" 
d="M509 0h-133q-9 0 -15 10l-108 195l-50 -62v-133q0 -10 -10 -10h-120q-10 0 -10 10v464q0 10 10 10h120q10 0 10 -10v-171l139 171q9 10 19 10h128q4 0 5.5 -3.5t-1.5 -6.5l-148 -171l169 -293q5 -10 -5 -10z" />
    <glyph glyph-name="Lacute" unicode="&#x139;" horiz-adv-x="550" 
d="M191 754h-93q-4 0 -5.5 3t1.5 7l95 115q7 10 19 10h120q5 0 6.5 -3t-1.5 -7l-123 -116q-9 -9 -19 -9zM65 10v660q0 10 10 10h127q10 0 10 -10v-533q0 -6 6 -6h300q10 0 10 -10v-111q0 -10 -10 -10h-443q-10 0 -10 10z" />
    <glyph glyph-name="lacute" unicode="&#x13a;" horiz-adv-x="304" 
d="M264 -6h-53q-80 0 -115 36.5t-35 117.5v522q0 10 10 10h120q10 0 10 -10v-511q0 -46 42 -46h21q10 0 10 -10v-99q0 -10 -10 -10zM180 754h-93q-12 0 -4 10l95 115q7 10 19 10h120q5 0 7 -3t-2 -7l-123 -116q-9 -9 -19 -9z" />
    <glyph glyph-name="Lcommaaccent" unicode="&#x13b;" horiz-adv-x="550" 
d="M65 10v660q0 10 10 10h127q10 0 10 -10v-533q0 -6 6 -6h300q10 0 10 -10v-111q0 -10 -10 -10h-443q-10 0 -10 10zM238 -238q-11 0 -11 12v166q0 10 10 10h102q10 0 10 -10v-79q0 -12 -8 -20l-87 -71q-11 -8 -16 -8z" />
    <glyph glyph-name="lcommaaccent" unicode="&#x13c;" horiz-adv-x="304" 
d="M264 -6h-53q-80 0 -115 36.5t-35 117.5v522q0 10 10 10h120q10 0 10 -10v-511q0 -46 42 -46h21q10 0 10 -10v-99q0 -10 -10 -10zM122 -238q-11 0 -11 12v166q0 10 10 10h102q10 0 10 -10v-79q0 -12 -8 -20l-87 -71q-11 -8 -16 -8z" />
    <glyph glyph-name="Lcaron" unicode="&#x13d;" horiz-adv-x="550" 
d="M65 10v660q0 10 10 10h127q10 0 10 -10v-533q0 -6 6 -6h300q10 0 10 -10v-111q0 -10 -10 -10h-443q-10 0 -10 10zM280 488q-11 0 -11 11v171q0 10 10 10h96q10 0 10 -10v-84q0 -12 -8 -20l-82 -71q-7 -7 -15 -7z" />
    <glyph glyph-name="lcaron" unicode="&#x13e;" horiz-adv-x="305" 
d="M264 -6h-53q-80 0 -115 36.5t-35 117.5v522q0 10 10 10h120q10 0 10 -10v-511q0 -46 42 -46h21q10 0 10 -10v-99q0 -10 -10 -10zM246 488q-11 0 -11 11v171q0 10 10 10h96q10 0 10 -10v-84q0 -12 -8 -20l-82 -71q-7 -7 -15 -7z" />
    <glyph glyph-name="Ldot" unicode="&#x13f;" horiz-adv-x="550" 
d="M65 10v660q0 10 10 10h127q10 0 10 -10v-533q0 -6 6 -6h300q10 0 10 -10v-111q0 -10 -10 -10h-443q-10 0 -10 10zM473 264h-119q-10 0 -10 10v119q0 10 10 10h119q10 0 10 -10v-119q0 -10 -10 -10z" />
    <glyph glyph-name="ldot" unicode="&#x140;" horiz-adv-x="387" 
d="M264 -6h-53q-80 0 -115 36.5t-35 117.5v522q0 10 10 10h120q10 0 10 -10v-511q0 -46 42 -46h21q10 0 10 -10v-99q0 -10 -10 -10zM385 272h-119q-10 0 -10 10v119q0 10 10 10h119q10 0 10 -10v-119q0 -10 -10 -10z" />
    <glyph glyph-name="Lslash" unicode="&#x141;" horiz-adv-x="550" 
d="M518 0h-443q-10 0 -10 10v242l-46 -23q-10 -4 -10 6v94q0 10 10 14l46 23v304q0 10 10 10h127q10 0 10 -10v-236l127 65q10 4 10 -6v-94q0 -10 -10 -14l-127 -65v-183q0 -6 6 -6h300q10 0 10 -10v-111q0 -10 -10 -10z" />
    <glyph glyph-name="lslash" unicode="&#x142;" horiz-adv-x="305" 
d="M264 362l-63 -32v-171q0 -46 42 -46h21q10 0 10 -10v-99q0 -10 -10 -10h-53q-80 0 -115 36.5t-35 117.5v118l-32 -16q-10 -4 -10 6v89q0 11 10 15l32 16v294q0 10 10 10h120q10 0 10 -10v-230l63 32q10 4 10 -6v-89q0 -11 -10 -15z" />
    <glyph glyph-name="Nacute" unicode="&#x143;" horiz-adv-x="655" 
d="M343 754h-93q-4 0 -5.5 3t1.5 7l95 115q7 10 19 10h120q5 0 6.5 -3t-1.5 -7l-123 -116q-9 -9 -19 -9zM65 10v660q0 10 10 10h120q11 0 17 -10l240 -428h5v428q0 10 10 10h113q10 0 10 -10v-660q0 -10 -10 -10h-119q-11 0 -17 10l-241 427h-5v-427q0 -10 -10 -10h-113
q-10 0 -10 10z" />
    <glyph glyph-name="nacute" unicode="&#x144;" horiz-adv-x="553" 
d="M292 551h-91q-10 0 -6 10l77 130q6 10 18 10h115q5 0 6.5 -3t-1.5 -7l-99 -130q-7 -10 -19 -10zM484 0h-120q-10 0 -10 10v278q0 42 -19.5 65t-55.5 23t-56 -24t-20 -64v-278q0 -10 -10 -10h-120q-10 0 -10 10v464q0 10 10 10h120q10 0 10 -10v-34h1q40 55 125 55
q78 0 121.5 -49t43.5 -131v-305q0 -10 -10 -10z" />
    <glyph glyph-name="Ncommaaccent" unicode="&#x145;" horiz-adv-x="655" 
d="M65 10v660q0 10 10 10h120q11 0 17 -10l240 -428h5v428q0 10 10 10h113q10 0 10 -10v-660q0 -10 -10 -10h-119q-11 0 -17 10l-241 427h-5v-427q0 -10 -10 -10h-113q-10 0 -10 10zM277 -238q-11 0 -11 12v166q0 10 10 10h102q10 0 10 -10v-79q0 -12 -8 -20l-87 -71
q-11 -8 -16 -8z" />
    <glyph glyph-name="ncommaaccent" unicode="&#x146;" horiz-adv-x="553" 
d="M484 0h-120q-10 0 -10 10v278q0 42 -19.5 65t-55.5 23t-56 -24t-20 -64v-278q0 -10 -10 -10h-120q-10 0 -10 10v464q0 10 10 10h120q10 0 10 -10v-34h1q40 55 125 55q78 0 121.5 -49t43.5 -131v-305q0 -10 -10 -10zM227 -238q-11 0 -11 12v166q0 10 10 10h102
q10 0 10 -10v-79q0 -12 -8 -20l-87 -71q-11 -8 -16 -8z" />
    <glyph glyph-name="Ncaron" unicode="&#x147;" horiz-adv-x="655" 
d="M361 744h-75q-12 0 -19 10l-103 130q-3 4 -1.5 7t5.5 3h80q12 0 22 -10l52 -54h2l53 54q10 10 22 10h80q12 0 4 -10l-104 -130q-7 -10 -18 -10zM65 10v660q0 10 10 10h120q11 0 17 -10l240 -428h5v428q0 10 10 10h113q10 0 10 -10v-660q0 -10 -10 -10h-119q-11 0 -17 10
l-241 427h-5v-427q0 -10 -10 -10h-113q-10 0 -10 10z" />
    <glyph glyph-name="ncaron" unicode="&#x148;" horiz-adv-x="553" 
d="M313 547h-75q-11 0 -18 10l-104 131q-3 4 -1.5 7t6.5 3h79q12 0 22 -10l53 -54h2l52 54q10 10 22 10h80q12 0 4 -10l-103 -131q-7 -10 -19 -10zM484 0h-120q-10 0 -10 10v278q0 42 -19.5 65t-55.5 23t-56 -24t-20 -64v-278q0 -10 -10 -10h-120q-10 0 -10 10v464
q0 10 10 10h120q10 0 10 -10v-34h1q40 55 125 55q78 0 121.5 -49t43.5 -131v-305q0 -10 -10 -10z" />
    <glyph glyph-name="Eng" unicode="&#x14a;" horiz-adv-x="655" 
d="M389 -184h-33q-10 0 -10 10v107q0 10 10 10h19q69 0 74 56v3l-246 435h-5v-427q0 -10 -10 -10h-113q-10 0 -10 10v660q0 10 10 10h120q13 0 17 -10l240 -428h5v428q0 10 10 10h113q10 0 10 -10v-651q0 -203 -201 -203z" />
    <glyph glyph-name="eng" unicode="&#x14b;" horiz-adv-x="553" 
d="M315 -180h-33q-10 0 -10 10v98q0 10 10 10h19q30 0 41.5 11.5t11.5 43.5v295q0 42 -19.5 65t-55.5 23t-56 -24t-20 -64v-278q0 -10 -10 -10h-120q-10 0 -10 10v464q0 10 10 10h120q10 0 10 -10v-34h1q42 55 125 55q78 0 121.5 -49t43.5 -131v-320q0 -90 -44.5 -132.5
t-134.5 -42.5z" />
    <glyph glyph-name="Omacron" unicode="&#x14c;" horiz-adv-x="628" 
d="M66 154q-19 58 -19 186t19 186q26 80 91 122.5t157 42.5t157 -42.5t91 -122.5q19 -58 19 -186t-19 -186q-26 -80 -91 -122.5t-157 -42.5t-157 42.5t-91 122.5zM421 194q11 35 11 146t-11 146q-24 75 -107 75t-107 -75q-11 -35 -11 -146t11 -146q24 -75 107 -75t107 75z
M455 771h-283q-10 0 -10 10v76q0 10 10 10h283q10 0 10 -10v-76q0 -10 -10 -10z" />
    <glyph glyph-name="omacron" unicode="&#x14d;" horiz-adv-x="530" 
d="M55 125q-16 49 -16 117t16 117q21 65 76.5 100.5t133.5 35.5t133.5 -35.5t76.5 -100.5q16 -49 16 -117t-16 -117q-21 -65 -76.5 -100.5t-133.5 -35.5t-133.5 35.5t-76.5 100.5zM340 159q9 28 9 83q0 54 -9 83q-16 52 -75 52t-75 -52q-9 -29 -9 -83t9 -83q16 -52 75 -52
t75 52zM406 575h-283q-10 0 -10 10v75q0 10 10 10h283q10 0 10 -10v-75q0 -10 -10 -10z" />
    <glyph glyph-name="Obreve" unicode="&#x14e;" horiz-adv-x="628" 
d="M314 744q-66 0 -108.5 36.5t-44.5 94.5q0 11 10 11h58q10 0 13 -11q16 -42 72 -42t71 42q5 11 14 11h57q11 0 11 -11q-3 -58 -45.5 -94.5t-107.5 -36.5zM66 154q-19 58 -19 186t19 186q26 80 91 122.5t157 42.5t157 -42.5t91 -122.5q19 -58 19 -186t-19 -186
q-26 -80 -91 -122.5t-157 -42.5t-157 42.5t-91 122.5zM421 194q11 35 11 146t-11 146q-24 75 -107 75t-107 -75q-11 -35 -11 -146t11 -146q24 -75 107 -75t107 75z" />
    <glyph glyph-name="obreve" unicode="&#x14f;" horiz-adv-x="530" 
d="M55 125q-16 49 -16 117t16 117q21 65 76.5 100.5t133.5 35.5t133.5 -35.5t76.5 -100.5q16 -49 16 -117t-16 -117q-21 -65 -76.5 -100.5t-133.5 -35.5t-133.5 35.5t-76.5 100.5zM340 159q9 28 9 83q0 54 -9 83q-16 52 -75 52t-75 -52q-9 -29 -9 -83t9 -83q16 -52 75 -52
t75 52zM265 546q-66 0 -108.5 36.5t-44.5 94.5q0 10 10 10h58q10 0 13 -10q16 -43 72 -43t71 43q4 10 14 10h57q11 0 11 -10q-3 -58 -45.5 -94.5t-107.5 -36.5z" />
    <glyph glyph-name="Ohungarumlaut" unicode="&#x150;" horiz-adv-x="628" 
d="M66 154q-19 58 -19 186t19 186q26 80 91 122.5t157 42.5t157 -42.5t91 -122.5q19 -58 19 -186t-19 -186q-26 -80 -91 -122.5t-157 -42.5t-157 42.5t-91 122.5zM421 194q11 35 11 146t-11 146q-24 75 -107 75t-107 -75q-11 -35 -11 -146t11 -146q24 -75 107 -75t107 75z
M428 756h-81q-11 0 -5 10l69 112q6 10 17 10h97q12 0 4 -10l-82 -112q-7 -10 -19 -10zM256 756h-81q-11 0 -5 10l70 112q6 10 17 10h97q4 0 5.5 -3t-1.5 -7l-83 -112q-6 -10 -19 -10z" />
    <glyph glyph-name="ohungarumlaut" unicode="&#x151;" horiz-adv-x="530" 
d="M55 125q-16 49 -16 117t16 117q21 65 76.5 100.5t133.5 35.5t133.5 -35.5t76.5 -100.5q16 -49 16 -117t-16 -117q-21 -65 -76.5 -100.5t-133.5 -35.5t-133.5 35.5t-76.5 100.5zM340 159q9 28 9 83q0 54 -9 83q-16 52 -75 52t-75 -52q-9 -29 -9 -83t9 -83q16 -52 75 -52
t75 52zM387 549h-82q-10 0 -6 10l67 131q4 10 16 10h97q11 0 5 -10l-80 -131q-6 -10 -17 -10zM215 549h-81q-10 0 -6 10l67 131q4 10 16 10h97q11 0 5 -10l-80 -131q-7 -10 -18 -10z" />
    <glyph glyph-name="OE" unicode="&#x152;" horiz-adv-x="932" 
d="M878 0h-436q-10 0 -10 10v22h-2q-47 -43 -128 -43q-88 0 -149 42t-87 122q-19 60 -19 187t19 187q26 80 87 122t149 42q81 0 128 -43h2v22q0 10 10 10h436q10 0 10 -10v-107q0 -10 -10 -10h-293q-6 0 -6 -6v-135q0 -6 6 -6h244q10 0 10 -10v-106q0 -10 -10 -10h-244
q-6 0 -6 -6v-141q0 -6 6 -6h293q10 0 10 -10v-107q0 -10 -10 -10zM421 194q11 35 11 146t-11 146q-24 75 -107 75t-107 -75q-11 -35 -11 -146t11 -146q24 -75 107 -75t107 75z" />
    <glyph glyph-name="oe" unicode="&#x153;" horiz-adv-x="836" 
d="M579 -11q-101 0 -157 59h-2q-59 -59 -155 -59q-79 0 -134 35.5t-76 101.5q-16 48 -16 116t16 117q21 65 76.5 100.5t133.5 35.5q98 0 154 -56h2q53 56 151 56q78 0 133 -36t76 -100q15 -48 15 -149q0 -10 -10 -10h-293q-6 0 -6 -6q1 -18 5 -27q21 -64 101 -64
q66 0 110 43q9 6 15 0l66 -62q8 -6 0 -14q-76 -81 -205 -81zM493 293h159q6 0 6 6q0 21 -5 36q-17 53 -80 53q-30 0 -52 -14t-29 -39q-5 -18 -5 -36q0 -6 6 -6zM340 160q9 27 9 82q0 54 -9 83q-16 52 -75 52t-75 -52q-9 -29 -9 -83q0 -55 9 -82q17 -53 75 -53t75 53z" />
    <glyph glyph-name="Racute" unicode="&#x154;" horiz-adv-x="624" 
d="M583 0h-142q-11 0 -15 10l-117 249h-91q-6 0 -6 -6v-243q0 -10 -10 -10h-127q-10 0 -10 10v660q0 10 10 10h271q103 0 167 -59q64 -58 64 -152q0 -65 -32 -114.5t-89 -74.5l134 -268q2 -4 0 -8t-7 -4zM218 384h120q42 0 67 23t25 62q0 38 -25 61t-67 23h-120q-6 0 -6 -6
v-157q0 -6 6 -6zM311 754h-93q-4 0 -5.5 3t1.5 7l95 115q7 10 19 10h120q5 0 6.5 -3t-1.5 -7l-123 -116q-9 -9 -19 -9z" />
    <glyph glyph-name="racute" unicode="&#x155;" horiz-adv-x="426" 
d="M248 551h-91q-10 0 -6 10l77 130q6 10 18 10h115q5 0 6.5 -3t-1.5 -7l-99 -130q-7 -10 -19 -10zM193 0h-120q-10 0 -10 10v464q0 10 10 10h120q10 0 10 -10v-41h1q38 62 126 62q50 0 85 -29q8 -6 3 -14l-56 -102q-5 -7 -14 -2q-37 23 -70 22q-75 -3 -75 -105v-255
q0 -10 -10 -10z" />
    <glyph glyph-name="Rcommaaccent" unicode="&#x156;" horiz-adv-x="624" 
d="M583 0h-142q-11 0 -15 10l-117 249h-91q-6 0 -6 -6v-243q0 -10 -10 -10h-127q-10 0 -10 10v660q0 10 10 10h271q103 0 167 -59q64 -58 64 -152q0 -65 -32 -114.5t-89 -74.5l134 -268q2 -4 0 -8t-7 -4zM218 384h120q42 0 67 23t25 62q0 38 -25 61t-67 23h-120q-6 0 -6 -6
v-157q0 -6 6 -6zM261 -238q-11 0 -11 12v166q0 10 10 10h102q10 0 10 -10v-79q0 -12 -8 -20l-87 -71q-11 -8 -16 -8z" />
    <glyph glyph-name="rcommaaccent" unicode="&#x157;" horiz-adv-x="426" 
d="M193 0h-120q-10 0 -10 10v464q0 10 10 10h120q10 0 10 -10v-41h1q38 62 126 62q50 0 85 -29q8 -6 3 -14l-56 -102q-5 -7 -14 -2q-37 23 -70 22q-75 -3 -75 -105v-255q0 -10 -10 -10zM84 -238q-11 0 -11 12v166q0 10 10 10h102q10 0 10 -10v-79q0 -12 -8 -20l-87 -71
q-11 -8 -16 -8z" />
    <glyph glyph-name="Rcaron" unicode="&#x158;" horiz-adv-x="624" 
d="M327 744h-75q-12 0 -19 10l-103 130q-3 4 -1.5 7t5.5 3h80q12 0 22 -10l52 -54h2l53 54q10 10 22 10h80q12 0 4 -10l-104 -130q-7 -10 -18 -10zM583 0h-142q-11 0 -15 10l-117 249h-91q-6 0 -6 -6v-243q0 -10 -10 -10h-127q-10 0 -10 10v660q0 10 10 10h271
q103 0 167 -59q64 -58 64 -152q0 -65 -32 -114.5t-89 -74.5l134 -268q2 -4 0 -8t-7 -4zM218 384h120q42 0 67 23t25 62q0 38 -25 61t-67 23h-120q-6 0 -6 -6v-157q0 -6 6 -6z" />
    <glyph glyph-name="rcaron" unicode="&#x159;" horiz-adv-x="426" 
d="M271 547h-75q-11 0 -18 10l-104 131q-3 4 -1.5 7t6.5 3h79q12 0 22 -10l53 -54h2l52 54q10 10 22 10h80q12 0 4 -10l-103 -131q-7 -10 -19 -10zM193 0h-120q-10 0 -10 10v464q0 10 10 10h120q10 0 10 -10v-41h1q38 62 126 62q50 0 85 -29q8 -6 3 -14l-56 -102
q-5 -7 -14 -2q-37 23 -70 22q-75 -3 -75 -105v-255q0 -10 -10 -10z" />
    <glyph glyph-name="Sacute" unicode="&#x15a;" horiz-adv-x="595" 
d="M301 -11q-76 0 -149 26q-74 28 -113 67q-8 8 -1 17l76 87q6 8 15 1q88 -70 178 -70q51 0 81 22t30 59q0 33 -24 50.5t-81 25.5l-36 5q-215 30 -215 204q0 94 65 151q66 57 176 57q139 0 231 -71q9 -6 2 -15l-61 -91q-6 -8 -14 -3q-79 52 -158 52q-43 0 -67 -20t-24 -54
q0 -60 106 -75l36 -5q214 -28 214 -206q0 -98 -70.5 -156t-196.5 -58zM337 754h-93q-12 0 -4 10l95 115q7 10 19 10h120q5 0 7 -3t-2 -7l-123 -116q-9 -9 -19 -9z" />
    <glyph glyph-name="sacute" unicode="&#x15b;" horiz-adv-x="505" 
d="M260 -11q-134 0 -220 75q-7 7 0 14l65 73q6 6 14 0q70 -53 148 -53q75 0 75 46q0 19 -15 28.5t-54 13.5l-54 6q-158 17 -158 148q0 72 53 113.5t146 41.5q116 0 196 -60q7 -7 1 -15l-56 -69q-6 -7 -14 -2q-62 39 -131 39q-61 0 -61 -40q0 -18 14.5 -27t52.5 -13l53 -6
q161 -17 161 -147q-1 -77 -58 -121.5t-158 -44.5zM288 551h-91q-10 0 -6 10l77 130q6 10 18 10h115q5 0 6.5 -3t-1.5 -7l-99 -130q-7 -10 -19 -10z" />
    <glyph glyph-name="Scircumflex" unicode="&#x15c;" horiz-adv-x="595" 
d="M301 -11q-76 0 -149 26q-74 28 -113 67q-8 8 -1 17l76 87q6 8 15 1q88 -70 178 -70q51 0 81 22t30 59q0 33 -24 50.5t-81 25.5l-36 5q-215 30 -215 204q0 94 65 151q66 57 176 57q139 0 231 -71q9 -6 2 -15l-61 -91q-6 -8 -14 -3q-79 52 -158 52q-43 0 -67 -20t-24 -54
q0 -60 106 -75l36 -5q214 -28 214 -206q0 -98 -70.5 -156t-196.5 -58zM463 747h-80q-12 0 -22 10l-53 54h-2l-52 -54q-10 -10 -22 -10h-80q-12 0 -4 10l103 131q7 10 19 10h75q11 0 18 -10l104 -131q3 -4 1.5 -7t-5.5 -3z" />
    <glyph glyph-name="scircumflex" unicode="&#x15d;" horiz-adv-x="505" 
d="M260 -11q-134 0 -220 75q-7 7 0 14l65 73q6 6 14 0q70 -53 148 -53q75 0 75 46q0 19 -15 28.5t-54 13.5l-54 6q-158 17 -158 148q0 72 53 113.5t146 41.5q116 0 196 -60q7 -7 1 -15l-56 -69q-6 -7 -14 -2q-62 39 -131 39q-61 0 -61 -40q0 -18 14.5 -27t52.5 -13l53 -6
q161 -17 161 -147q-1 -77 -58 -121.5t-158 -44.5zM417 550h-80q-12 0 -22 10l-52 54h-2l-53 -54q-10 -10 -22 -10h-79q-5 0 -6.5 3t1.5 7l104 131q7 10 18 10h75q12 0 19 -10l103 -131q3 -4 1.5 -7t-5.5 -3z" />
    <glyph glyph-name="Scedilla" unicode="&#x15e;" horiz-adv-x="595" 
d="M305 -160h-97q-10 0 -7 10l57 141q-143 18 -219 91q-8 8 -1 17l76 87q6 8 15 1q88 -70 178 -70q51 0 81 22t30 59q0 33 -24 50.5t-81 25.5l-36 5q-215 30 -215 204q0 94 65 151q66 57 176 57q139 0 231 -71q9 -6 2 -15l-61 -91q-6 -8 -14 -3q-79 52 -158 52
q-43 0 -67 -20t-24 -54q0 -60 106 -75l36 -5q214 -28 214 -206q0 -82 -53 -138.5t-150 -71.5l-44 -143q-3 -10 -16 -10z" />
    <glyph glyph-name="scedilla" unicode="&#x15f;" horiz-adv-x="505" 
d="M260 -160h-97q-10 0 -7 10l58 142q-104 10 -174 72q-7 7 0 14l65 73q6 6 14 0q70 -53 148 -53q75 0 75 46q0 19 -15 28.5t-54 13.5l-54 6q-158 17 -158 148q0 72 53 113.5t146 41.5q116 0 196 -60q7 -7 1 -15l-56 -69q-6 -7 -14 -2q-62 39 -131 39q-61 0 -61 -40
q0 -18 14.5 -27t52.5 -13l53 -6q161 -17 161 -147q-1 -63 -41.5 -105.5t-114.5 -55.5l-44 -144q-3 -10 -16 -10z" />
    <glyph glyph-name="Scaron" unicode="&#x160;" horiz-adv-x="595" 
d="M301 -11q-76 0 -149 26q-74 28 -113 67q-8 8 -1 17l76 87q6 8 15 1q88 -70 178 -70q51 0 81 22t30 59q0 33 -24 50.5t-81 25.5l-36 5q-215 30 -215 204q0 94 65 151q66 57 176 57q139 0 231 -71q9 -6 2 -15l-61 -91q-6 -8 -14 -3q-79 52 -158 52q-43 0 -67 -20t-24 -54
q0 -60 106 -75l36 -5q214 -28 214 -206q0 -98 -70.5 -156t-196.5 -58zM344 744h-75q-12 0 -19 10l-103 130q-3 4 -1.5 7t5.5 3h80q12 0 22 -10l52 -54h2l53 54q10 10 22 10h80q12 0 4 -10l-104 -130q-7 -10 -18 -10z" />
    <glyph glyph-name="scaron" unicode="&#x161;" horiz-adv-x="505" 
d="M296 547h-75q-11 0 -18 10l-104 131q-3 4 -1.5 7t6.5 3h79q12 0 22 -10l53 -54h2l52 54q10 10 22 10h80q12 0 4 -10l-103 -131q-7 -10 -19 -10zM260 -11q-134 0 -220 75q-7 7 0 14l65 73q6 6 14 0q70 -53 148 -53q75 0 75 46q0 19 -15 28.5t-54 13.5l-54 6
q-158 17 -158 148q0 72 53 113.5t146 41.5q116 0 196 -60q7 -7 1 -15l-56 -69q-6 -7 -14 -2q-62 39 -131 39q-61 0 -61 -40q0 -18 14.5 -27t52.5 -13l53 -6q161 -17 161 -147q-1 -77 -58 -121.5t-158 -44.5z" />
    <glyph glyph-name="uni0162" unicode="&#x162;" horiz-adv-x="558" 
d="M229 -238q-11 0 -11 12v166q0 10 10 10h102q10 0 10 -10v-79q0 -12 -8 -20l-87 -71q-11 -8 -16 -8zM343 0h-127q-10 0 -10 10v533q0 6 -6 6h-172q-10 0 -10 10v111q0 10 10 10h503q10 0 10 -10v-111q0 -10 -10 -10h-172q-6 0 -6 -6v-533q0 -10 -10 -10z" />
    <glyph glyph-name="uni0163" unicode="&#x163;" horiz-adv-x="331" 
d="M137 -238q-11 0 -11 12v166q0 10 10 10h102q10 0 10 -10v-79q0 -12 -8 -20l-87 -71q-11 -8 -16 -8zM280 -6h-53q-83 0 -118.5 38t-35.5 123v220q0 6 -6 6h-30q-10 0 -10 10v83q0 10 10 10h30q6 0 6 6v130q0 10 10 10h119q10 0 10 -10v-130q0 -6 6 -6h62q10 0 10 -10v-83
q0 -10 -10 -10h-62q-6 0 -6 -6v-214q0 -27 10 -37.5t34 -10.5h24q10 0 10 -10v-99q0 -10 -10 -10z" />
    <glyph glyph-name="Tcaron" unicode="&#x164;" horiz-adv-x="558" 
d="M343 0h-127q-10 0 -10 10v533q0 6 -6 6h-172q-10 0 -10 10v111q0 10 10 10h503q10 0 10 -10v-111q0 -10 -10 -10h-172q-6 0 -6 -6v-533q0 -10 -10 -10zM316 744h-75q-12 0 -19 10l-103 130q-8 10 4 10h80q12 0 22 -10l52 -54h2l53 54q10 10 22 10h80q4 0 5.5 -3t-1.5 -7
l-104 -130q-7 -10 -18 -10z" />
    <glyph glyph-name="tcaron" unicode="&#x165;" horiz-adv-x="342" 
d="M280 -6h-53q-83 0 -118.5 38t-35.5 123v220q0 6 -6 6h-30q-10 0 -10 10v83q0 10 10 10h30q6 0 6 6v130q0 10 10 10h119q10 0 10 -10v-130q0 -6 6 -6h62q10 0 10 -10v-83q0 -10 -10 -10h-62q-6 0 -6 -6v-214q0 -27 10 -37.5t34 -10.5h24q10 0 10 -10v-99q0 -10 -10 -10z
M294 488q-11 0 -11 11v171q0 10 10 10h96q10 0 10 -10v-84q0 -12 -8 -20l-82 -71q-7 -7 -15 -7z" />
    <glyph glyph-name="Tbar" unicode="&#x166;" horiz-adv-x="558" 
d="M343 0h-127q-10 0 -10 10v300q0 6 -6 6h-89q-10 0 -10 10v88q0 10 10 10h89q6 0 6 6v113q0 6 -6 6h-172q-10 0 -10 10v111q0 10 10 10h503q10 0 10 -10v-111q0 -10 -10 -10h-172q-6 0 -6 -6v-113q0 -6 6 -6h89q10 0 10 -10v-88q0 -10 -10 -10h-89q-6 0 -6 -6v-300
q0 -10 -10 -10z" />
    <glyph glyph-name="tbar" unicode="&#x167;" horiz-adv-x="331" 
d="M280 -6h-53q-83 0 -118.5 38t-35.5 123v77q0 6 -6 6h-20q-10 0 -10 10v67q0 10 10 10h20q6 0 6 6v44q0 6 -6 6h-30q-10 0 -10 10v83q0 10 10 10h30q6 0 6 6v130q0 10 10 10h119q10 0 10 -10v-130q0 -6 6 -6h62q10 0 10 -10v-83q0 -10 -10 -10h-62q-6 0 -6 -6v-44
q0 -6 6 -6h50q10 0 10 -10v-67q0 -10 -10 -10h-50q-6 0 -6 -6v-71q0 -27 10 -37.5t34 -10.5h24q10 0 10 -10v-99q0 -10 -10 -10z" />
    <glyph glyph-name="Utilde" unicode="&#x168;" horiz-adv-x="645" 
d="M386 748q-33 0 -75 21q-31 18 -58 18q-31 0 -71 -31q-9 -8 -9 2v72q0 11 8 21q35 35 77 35q33 0 75 -21q33 -18 58 -18q31 0 71 31q4 3 7 2t3 -4v-72q0 -12 -9 -21q-33 -35 -77 -35zM323 -11q-117 0 -190 68q-71 69 -71 193v420q0 10 10 10h127q10 0 10 -10v-424
q0 -59 31 -93t83 -34t82.5 33.5t30.5 93.5v424q0 10 10 10h127q10 0 10 -10v-420q0 -124 -72 -193q-71 -68 -188 -68z" />
    <glyph glyph-name="utilde" unicode="&#x169;" horiz-adv-x="549" 
d="M476 0h-120q-10 0 -10 10v35h-1q-42 -56 -124 -56q-77 0 -120 49t-43 131v305q0 10 10 10h120q10 0 10 -10v-278q0 -41 19.5 -64.5t54.5 -23.5t54.5 23.5t19.5 64.5v278q0 10 10 10h120q10 0 10 -10v-464q0 -10 -10 -10zM337 552q-32 0 -75 22q-34 18 -58 18
q-31 0 -71 -32q-9 -8 -9 3v72q0 10 8 20q36 36 77 36q32 0 75 -22q36 -18 58 -18q31 0 71 32q4 3 7 2t3 -5v-72q0 -11 -9 -20q-34 -36 -77 -36z" />
    <glyph glyph-name="Umacron" unicode="&#x16a;" horiz-adv-x="645" 
d="M323 -11q-117 0 -190 68q-71 69 -71 193v420q0 10 10 10h127q10 0 10 -10v-424q0 -59 31 -93t83 -34t82.5 33.5t30.5 93.5v424q0 10 10 10h127q10 0 10 -10v-420q0 -124 -72 -193q-71 -68 -188 -68zM464 771h-283q-10 0 -10 10v76q0 10 10 10h283q10 0 10 -10v-76
q0 -10 -10 -10z" />
    <glyph glyph-name="umacron" unicode="&#x16b;" horiz-adv-x="549" 
d="M476 0h-120q-10 0 -10 10v35h-1q-42 -56 -124 -56q-77 0 -120 49t-43 131v305q0 10 10 10h120q10 0 10 -10v-278q0 -41 19.5 -64.5t54.5 -23.5t54.5 23.5t19.5 64.5v278q0 10 10 10h120q10 0 10 -10v-464q0 -10 -10 -10zM415 575h-283q-10 0 -10 10v75q0 10 10 10h283
q10 0 10 -10v-75q0 -10 -10 -10z" />
    <glyph glyph-name="Ubreve" unicode="&#x16c;" horiz-adv-x="645" 
d="M323 -11q-117 0 -190 68q-71 69 -71 193v420q0 10 10 10h127q10 0 10 -10v-424q0 -59 31 -93t83 -34t82.5 33.5t30.5 93.5v424q0 10 10 10h127q10 0 10 -10v-420q0 -124 -72 -193q-71 -68 -188 -68zM322 744q-66 0 -108.5 36.5t-44.5 94.5q0 11 10 11h58q10 0 13 -11
q16 -42 72 -42t71 42q5 11 14 11h57q11 0 11 -11q-3 -58 -45.5 -94.5t-107.5 -36.5z" />
    <glyph glyph-name="ubreve" unicode="&#x16d;" horiz-adv-x="549" 
d="M476 0h-120q-10 0 -10 10v35h-1q-42 -56 -124 -56q-77 0 -120 49t-43 131v305q0 10 10 10h120q10 0 10 -10v-278q0 -41 19.5 -64.5t54.5 -23.5t54.5 23.5t19.5 64.5v278q0 10 10 10h120q10 0 10 -10v-464q0 -10 -10 -10zM274 546q-66 0 -108.5 36.5t-44.5 94.5
q0 10 10 10h58q10 0 13 -10q16 -43 72 -43t71 43q4 10 14 10h57q11 0 11 -10q-3 -58 -45.5 -94.5t-107.5 -36.5z" />
    <glyph glyph-name="Uring" unicode="&#x16e;" horiz-adv-x="645" 
d="M398 742q-30 -30 -76 -30t-77 30q-30 32 -30 77q0 46 30 76q31 30 77 30t76 -30q31 -30 31 -76t-31 -77zM368 819q0 20 -13.5 34t-32.5 14q-20 0 -33.5 -14t-13.5 -34q0 -21 13.5 -34.5t33.5 -13.5t33 13.5t13 34.5zM323 -11q-117 0 -190 68q-71 69 -71 193v420
q0 10 10 10h127q10 0 10 -10v-424q0 -59 31 -93t83 -34t82.5 33.5t30.5 93.5v424q0 10 10 10h127q10 0 10 -10v-420q0 -124 -72 -193q-71 -68 -188 -68z" />
    <glyph glyph-name="uring" unicode="&#x16f;" horiz-adv-x="549" 
d="M476 0h-120q-10 0 -10 10v35h-1q-42 -56 -124 -56q-77 0 -120 49t-43 131v305q0 10 10 10h120q10 0 10 -10v-278q0 -41 19.5 -64.5t54.5 -23.5t54.5 23.5t19.5 64.5v278q0 10 10 10h120q10 0 10 -10v-464q0 -10 -10 -10zM350 554q-30 -30 -76 -30t-77 30q-30 30 -30 76
t30 76q31 31 77 31t76 -31q31 -30 31 -76t-31 -76zM274 582q19 0 32.5 14t13.5 34q0 21 -13 35t-33 14t-33.5 -14t-13.5 -35q0 -20 13.5 -34t33.5 -14z" />
    <glyph glyph-name="Uhungarumlaut" unicode="&#x170;" horiz-adv-x="645" 
d="M323 -11q-117 0 -190 68q-71 69 -71 193v420q0 10 10 10h127q10 0 10 -10v-424q0 -59 31 -93t83 -34t82.5 33.5t30.5 93.5v424q0 10 10 10h127q10 0 10 -10v-420q0 -124 -72 -193q-71 -68 -188 -68zM440 756h-81q-11 0 -5 10l69 112q6 10 17 10h97q12 0 4 -10l-82 -112
q-7 -10 -19 -10zM268 756h-81q-11 0 -5 10l70 112q6 10 17 10h97q4 0 5.5 -3t-1.5 -7l-83 -112q-6 -10 -19 -10z" />
    <glyph glyph-name="uhungarumlaut" unicode="&#x171;" horiz-adv-x="549" 
d="M476 0h-120q-10 0 -10 10v35h-1q-42 -56 -124 -56q-77 0 -120 49t-43 131v305q0 10 10 10h120q10 0 10 -10v-278q0 -41 19.5 -64.5t54.5 -23.5t54.5 23.5t19.5 64.5v278q0 10 10 10h120q10 0 10 -10v-464q0 -10 -10 -10zM397 549h-82q-10 0 -6 10l67 131q4 10 16 10h97
q11 0 5 -10l-80 -131q-6 -10 -17 -10zM225 549h-81q-10 0 -6 10l67 131q4 10 16 10h97q11 0 5 -10l-80 -131q-7 -10 -18 -10z" />
    <glyph glyph-name="Uogonek" unicode="&#x172;" horiz-adv-x="645" 
d="M334 -191q-47 0 -75 25t-28 67q0 46 43 92q-98 13 -155 80.5t-57 176.5v420q0 10 10 10h127q10 0 10 -10v-424q0 -59 31 -93t83 -34t82.5 33.5t30.5 93.5v424q0 10 10 10h127q10 0 10 -10v-420q0 -103 -49.5 -168.5t-137.5 -84.5q-59 -45 -59 -72q0 -21 21 -21q10 0 24 8
q8 4 13 -4l32 -59q4 -6 -4 -14q-40 -26 -89 -26z" />
    <glyph glyph-name="uogonek" unicode="&#x173;" horiz-adv-x="550" 
d="M391 -191q-47 0 -75 25t-28 67q0 30 15 52t51 47q-8 2 -8 10v35h-1q-42 -56 -124 -56q-77 0 -120 49t-43 131v305q0 10 10 10h120q10 0 10 -10v-278q0 -41 19.5 -64.5t54.5 -23.5t54.5 23.5t19.5 64.5v278q0 10 10 10h120q10 0 10 -10v-464q0 -7 -6 -10q-86 -44 -86 -75
q0 -21 22 -21q6 0 24 8q8 5 13 -4l31 -59q4 -6 -4 -14q-40 -26 -89 -26z" />
    <glyph glyph-name="Wcircumflex" unicode="&#x174;" horiz-adv-x="865" 
d="M667 0h-100q-10 0 -13 10l-118 423h-2l-119 -423q-3 -10 -13 -10h-100q-9 0 -12 10l-176 660q-1 10 8 10h129q11 0 12 -10l98 -427h2l116 427q3 10 13 10h87q9 0 12 -10l120 -427h2l94 427q1 10 12 10h128q9 0 8 -10l-175 -660q-1 -10 -13 -10zM590 747h-80q-12 0 -22 10
l-53 54h-2l-52 -54q-10 -10 -22 -10h-80q-12 0 -4 10l103 131q7 10 19 10h75q11 0 18 -10l104 -131q3 -4 1.5 -7t-5.5 -3z" />
    <glyph glyph-name="wcircumflex" unicode="&#x175;" horiz-adv-x="763" 
d="M581 0h-100q-9 0 -12 10l-83 281h-2l-85 -281q-3 -10 -12 -10h-99q-9 0 -12 10l-155 464q-3 10 7 10h123q11 0 14 -10l80 -288h2l83 288q3 10 14 10h84q10 0 13 -10l85 -288h2l76 288q3 10 13 10h123q11 0 8 -10l-155 -464q-3 -10 -12 -10zM539 550h-80q-12 0 -22 10
l-52 54h-2l-53 -54q-10 -10 -22 -10h-79q-5 0 -6.5 3t1.5 7l104 131q7 10 18 10h75q12 0 19 -10l103 -131q3 -4 1.5 -7t-5.5 -3z" />
    <glyph glyph-name="Ycircumflex" unicode="&#x176;" horiz-adv-x="568" 
d="M351 0h-127q-10 0 -10 10v261l-201 399q-4 10 7 10h130q11 0 15 -10l123 -248h3l123 248q4 10 15 10h126q5 0 7 -3t0 -7l-201 -399v-261q0 -10 -10 -10zM442 747h-80q-12 0 -22 10l-53 54h-2l-52 -54q-10 -10 -22 -10h-80q-12 0 -4 10l103 131q7 10 19 10h75q11 0 18 -10
l104 -131q3 -4 1.5 -7t-5.5 -3z" />
    <glyph glyph-name="ycircumflex" unicode="&#x177;" horiz-adv-x="507" 
d="M130 -180h-34q-10 0 -10 10v98q0 10 10 10h21q26 0 41.5 11.5t24.5 38.5l13 36l-180 450q-3 10 8 10h128q9 0 12 -10l97 -280h2l90 280q3 10 12 10h124q11 0 8 -10l-196 -515q-30 -78 -68 -109q-37 -30 -103 -30zM413 550h-80q-12 0 -22 10l-52 54h-2l-53 -54
q-10 -10 -22 -10h-79q-5 0 -6.5 3t1.5 7l104 131q7 10 18 10h75q12 0 19 -10l103 -131q3 -4 1.5 -7t-5.5 -3z" />
    <glyph glyph-name="Ydieresis" unicode="&#x178;" horiz-adv-x="568" 
d="M351 0h-127q-10 0 -10 10v261l-201 399q-4 10 7 10h130q11 0 15 -10l123 -248h3l123 248q4 10 15 10h126q5 0 7 -3t0 -7l-201 -399v-261q0 -10 -10 -10zM434 760h-90q-10 0 -10 10v98q0 10 10 10h90q10 0 10 -10v-98q0 -10 -10 -10zM231 760h-90q-10 0 -10 10v98
q0 10 10 10h90q10 0 10 -10v-98q0 -10 -10 -10z" />
    <glyph glyph-name="Zacute" unicode="&#x179;" horiz-adv-x="546" 
d="M496 0h-446q-10 0 -10 10v110q0 6 3 10l293 417v2h-275q-10 0 -10 10v111q0 10 10 10h435q10 0 10 -10v-110q0 -6 -3 -10l-294 -417v-2h287q10 0 10 -10v-111q0 -10 -10 -10zM298 754h-93q-12 0 -4 10l95 115q7 10 19 10h120q5 0 7 -3t-2 -7l-123 -116q-9 -9 -19 -9z" />
    <glyph glyph-name="zacute" unicode="&#x17a;" horiz-adv-x="490" 
d="M276 551h-91q-10 0 -6 10l77 130q6 10 18 10h115q5 0 6.5 -3t-1.5 -7l-99 -130q-7 -10 -19 -10zM434 0h-378q-10 0 -10 10v90q0 6 3 10l230 257v2h-210q-10 0 -10 10v95q0 10 10 10h365q10 0 10 -10v-95q0 -5 -3 -10l-228 -252v-2h221q10 0 10 -10v-95q0 -10 -10 -10z
" />
    <glyph glyph-name="Zdotaccent" unicode="&#x17b;" horiz-adv-x="546" 
d="M496 0h-446q-10 0 -10 10v110q0 6 3 10l293 417v2h-275q-10 0 -10 10v111q0 10 10 10h435q10 0 10 -10v-110q0 -6 -3 -10l-294 -417v-2h287q10 0 10 -10v-111q0 -10 -10 -10zM330 760h-115q-10 0 -10 10v98q0 10 10 10h115q10 0 10 -10v-98q0 -10 -10 -10z" />
    <glyph glyph-name="zdotaccent" unicode="&#x17c;" horiz-adv-x="490" 
d="M434 0h-378q-10 0 -10 10v90q0 6 3 10l230 257v2h-210q-10 0 -10 10v95q0 10 10 10h365q10 0 10 -10v-95q0 -5 -3 -10l-228 -252v-2h221q10 0 10 -10v-95q0 -10 -10 -10zM306 561h-115q-10 0 -10 10v99q0 10 10 10h115q10 0 10 -10v-99q0 -10 -10 -10z" />
    <glyph glyph-name="Zcaron" unicode="&#x17d;" horiz-adv-x="546" 
d="M311 744h-75q-12 0 -19 10l-103 130q-3 4 -1.5 7t5.5 3h80q12 0 22 -10l52 -54h2l53 54q10 10 22 10h80q12 0 4 -10l-104 -130q-7 -10 -18 -10zM496 0h-446q-10 0 -10 10v110q0 6 3 10l293 417v2h-275q-10 0 -10 10v111q0 10 10 10h435q10 0 10 -10v-110q0 -6 -3 -10
l-294 -417v-2h287q10 0 10 -10v-111q0 -10 -10 -10z" />
    <glyph glyph-name="zcaron" unicode="&#x17e;" horiz-adv-x="490" 
d="M434 0h-378q-10 0 -10 10v90q0 6 3 10l230 257v2h-210q-10 0 -10 10v95q0 10 10 10h365q10 0 10 -10v-95q0 -5 -3 -10l-228 -252v-2h221q10 0 10 -10v-95q0 -10 -10 -10zM286 547h-75q-11 0 -18 10l-104 131q-3 4 -1.5 7t6.5 3h79q12 0 22 -10l53 -54h2l52 54
q10 10 22 10h80q4 0 5.5 -3t-1.5 -7l-103 -131q-7 -10 -19 -10z" />
    <glyph glyph-name="florin" unicode="&#x192;" 
d="M449 313h-94l-49 -322q-15 -93 -58 -132t-130 -39h-32q-10 0 -10 10v97q0 10 10 10h19q32 0 46.5 12t19.5 45l48 319h-61q-10 0 -10 10v84q0 10 10 10h77l15 95q14 90 57.5 129t128.5 39h34q10 0 10 -10v-97q0 -10 -10 -10h-21q-29 0 -44 -13t-20 -42l-14 -91h78
q10 0 10 -10v-84q0 -10 -10 -10z" />
    <glyph glyph-name="Scommaaccent" unicode="&#x218;" horiz-adv-x="595" 
d="M301 -11q-76 0 -149 26q-74 28 -113 67q-8 8 -1 17l76 87q6 8 15 1q88 -70 178 -70q51 0 81 22t30 59q0 33 -24 50.5t-81 25.5l-36 5q-215 30 -215 204q0 94 65 151q66 57 176 57q139 0 231 -71q9 -6 2 -15l-61 -91q-6 -8 -14 -3q-79 52 -158 52q-43 0 -67 -20t-24 -54
q0 -60 106 -75l36 -5q214 -28 214 -206q0 -98 -70.5 -156t-196.5 -58zM253 -238q-11 0 -11 12v166q0 10 10 10h102q10 0 10 -10v-79q0 -12 -8 -20l-87 -71q-11 -8 -16 -8z" />
    <glyph glyph-name="scommaaccent" unicode="&#x219;" horiz-adv-x="505" 
d="M260 -11q-134 0 -220 75q-7 7 0 14l65 73q6 6 14 0q70 -53 148 -53q75 0 75 46q0 19 -15 28.5t-54 13.5l-54 6q-158 17 -158 148q0 72 53 113.5t146 41.5q116 0 196 -60q7 -7 1 -15l-56 -69q-6 -7 -14 -2q-62 39 -131 39q-61 0 -61 -40q0 -18 14.5 -27t52.5 -13l53 -6
q161 -17 161 -147q-1 -77 -58 -121.5t-158 -44.5zM212 -238q-11 0 -11 12v166q0 10 10 10h102q10 0 10 -10v-79q0 -12 -8 -20l-87 -71q-11 -8 -16 -8z" />
    <glyph glyph-name="uni021A" unicode="&#x21a;" horiz-adv-x="558" 
d="M229 -238q-11 0 -11 12v166q0 10 10 10h102q10 0 10 -10v-79q0 -12 -8 -20l-87 -71q-11 -8 -16 -8zM343 0h-127q-10 0 -10 10v533q0 6 -6 6h-172q-10 0 -10 10v111q0 10 10 10h503q10 0 10 -10v-111q0 -10 -10 -10h-172q-6 0 -6 -6v-533q0 -10 -10 -10z" />
    <glyph glyph-name="uni021B" unicode="&#x21b;" horiz-adv-x="331" 
d="M137 -238q-11 0 -11 12v166q0 10 10 10h102q10 0 10 -10v-79q0 -12 -8 -20l-87 -71q-11 -8 -16 -8zM280 -6h-53q-83 0 -118.5 38t-35.5 123v220q0 6 -6 6h-30q-10 0 -10 10v83q0 10 10 10h30q6 0 6 6v130q0 10 10 10h119q10 0 10 -10v-130q0 -6 6 -6h62q10 0 10 -10v-83
q0 -10 -10 -10h-62q-6 0 -6 -6v-214q0 -27 10 -37.5t34 -10.5h24q10 0 10 -10v-99q0 -10 -10 -10z" />
    <glyph glyph-name="dotlessj" unicode="&#x237;" horiz-adv-x="266" 
d="M22 -180h-33q-10 0 -10 10v98q0 10 10 10h20q30 0 42 12t12 44v480q0 10 10 10h120q10 0 10 -10v-479q0 -175 -181 -175z" />
    <glyph glyph-name="circumflex" unicode="&#x2c6;" horiz-adv-x="454" 
d="M383 550h-80q-12 0 -22 10l-52 54h-2l-53 -54q-10 -10 -22 -10h-79q-5 0 -6.5 3t1.5 7l104 131q7 10 18 10h75q12 0 19 -10l103 -131q3 -4 1.5 -7t-5.5 -3z" />
    <glyph glyph-name="caron" unicode="&#x2c7;" horiz-adv-x="454" 
d="M265 547h-75q-11 0 -18 10l-104 131q-3 4 -1.5 7t6.5 3h79q12 0 22 -10l53 -54h2l52 54q10 10 22 10h80q4 0 5.5 -3t-1.5 -7l-103 -131q-7 -10 -19 -10z" />
    <glyph glyph-name="uni02C9" unicode="&#x2c9;" horiz-adv-x="454" 
d="M368 771h-283q-10 0 -10 10v76q0 10 10 10h283q10 0 10 -10v-76q0 -10 -10 -10z" />
    <glyph glyph-name="breve" unicode="&#x2d8;" horiz-adv-x="454" 
d="M227 546q-66 0 -108.5 36.5t-44.5 94.5q0 10 10 10h58q10 0 13 -10q16 -43 72 -43t71 43q4 10 14 10h57q11 0 11 -10q-3 -58 -45.5 -94.5t-107.5 -36.5z" />
    <glyph glyph-name="dotaccent" unicode="&#x2d9;" horiz-adv-x="454" 
d="M284 561h-115q-10 0 -10 10v99q0 10 10 10h115q10 0 10 -10v-99q0 -10 -10 -10z" />
    <glyph glyph-name="ring" unicode="&#x2da;" horiz-adv-x="454" 
d="M303 554q-30 -30 -76 -30q-45 0 -77 30q-30 30 -30 76t30 76q31 31 77 31t76 -31q31 -30 31 -76t-31 -76zM227 582q19 0 32.5 14t13.5 34q0 21 -13 35t-33 14t-33.5 -14t-13.5 -35q0 -20 13.5 -34t33.5 -14z" />
    <glyph glyph-name="ogonek" unicode="&#x2db;" horiz-adv-x="454" 
d="M218 -191q-47 0 -75 25t-28 67q0 55 60 99q13 10 25 10h104q5 0 5 -4t-4 -6q-84 -44 -84 -75q0 -21 21 -21q7 0 25 8q8 5 13 -4l31 -59q4 -6 -4 -14q-40 -26 -89 -26z" />
    <glyph glyph-name="tilde" unicode="&#x2dc;" horiz-adv-x="454" 
d="M289 552q-32 0 -75 22q-35 18 -58 18q-31 0 -71 -32q-9 -8 -9 3v72q0 10 8 20q36 36 77 36q32 0 75 -22q36 -18 58 -18q31 0 71 32q4 3 7 2t3 -5v-72q0 -11 -9 -20q-34 -36 -77 -36z" />
    <glyph glyph-name="hungarumlaut" unicode="&#x2dd;" horiz-adv-x="454" 
d="M317 549h-82q-10 0 -6 10l67 131q4 10 16 10h97q11 0 5 -10l-80 -131q-6 -10 -17 -10zM145 549h-81q-10 0 -6 10l67 131q4 10 16 10h97q11 0 5 -10l-80 -131q-7 -10 -18 -10z" />
    <glyph glyph-name="uni0374" unicode="&#x374;" horiz-adv-x="529" 
d="M240 468h-109q-10 0 -6 10l116 236q4 10 16 10h152q4 0 6 -3t0 -7l-159 -236q-7 -10 -16 -10z" />
    <glyph glyph-name="uni0375" unicode="&#x375;" horiz-adv-x="529" 
d="M297 64h109q10 0 6 -10l-116 -236q-4 -10 -16 -10h-152q-4 0 -6 3t0 7l159 236q7 10 16 10z" />
    <glyph glyph-name="uni037E" unicode="&#x37e;" horiz-adv-x="270" 
d="M195 345h-120q-10 0 -10 10v119q0 10 10 10h120q10 0 10 -10v-119q0 -10 -10 -10zM69 -97v227q0 10 10 10h113q10 0 10 -10v-121q0 -12 -8 -20l-100 -90q-7 -7 -15 -7q-10 0 -10 11z" />
    <glyph glyph-name="tonos" unicode="&#x384;" horiz-adv-x="485" 
d="M246 551h-94q-9 0 -5 13l36 127q3 10 13 10h137q14 0 5 -15l-76 -125q-6 -10 -16 -10z" />
    <glyph glyph-name="dieresistonos" unicode="&#x385;" horiz-adv-x="573" 
d="M545 561h-93q-10 0 -10 10v99q0 10 10 10h93q10 0 10 -10v-99q0 -10 -10 -10zM189 561h-92q-10 0 -10 10v99q0 10 10 10h92q10 0 10 -10v-99q0 -10 -10 -10zM347 551h-100q-9 0 -6 10l16 130q3 10 13 10h142q10 0 4 -10l-55 -130q-4 -10 -14 -10z" />
    <glyph glyph-name="Alphatonos" unicode="&#x386;" horiz-adv-x="644" 
d="M18 10l234 660q3 10 13 10h126q10 0 13 -10l230 -660q3 -10 -7 -10h-130q-10 0 -13 10l-39 119h-238l-38 -119q-3 -10 -13 -10h-131q-10 0 -7 10zM325 492l-77 -238h157l-77 238h-3zM102 530h-94q-9 0 -5 13l36 127q3 10 13 10h137q14 0 5 -15l-76 -125q-6 -10 -16 -10z
" />
    <glyph glyph-name="anoteleia" unicode="&#x387;" horiz-adv-x="259" 
d="M189 195h-119q-10 0 -10 10v119q0 10 10 10h119q10 0 10 -10v-119q0 -10 -10 -10z" />
    <glyph glyph-name="Epsilontonos" unicode="&#x388;" horiz-adv-x="565" 
d="M69 10v660q0 10 10 10h436q10 0 10 -10v-107q0 -10 -10 -10h-293q-6 0 -6 -6v-135q0 -6 6 -6h244q10 0 10 -10v-106q0 -10 -10 -10h-244q-6 0 -6 -6v-141q0 -6 6 -6h293q10 0 10 -10v-107q0 -10 -10 -10h-436q-10 0 -10 10zM-69 530h-94q-9 0 -5 13l36 127q3 10 13 10
h137q14 0 5 -15l-76 -125q-6 -10 -16 -10z" />
    <glyph glyph-name="Etatonos" unicode="&#x389;" horiz-adv-x="658" 
d="M69 10v660q0 10 10 10h127q10 0 10 -10v-255q0 -6 6 -6h222q6 0 6 6v255q0 10 10 10h127q10 0 10 -10v-660q0 -10 -10 -10h-127q-10 0 -10 10v262q0 6 -6 6h-222q-6 0 -6 -6v-262q0 -10 -10 -10h-127q-10 0 -10 10zM-68 530h-94q-9 0 -5 13l36 127q3 10 13 10h137
q14 0 5 -15l-76 -125q-6 -10 -16 -10z" />
    <glyph glyph-name="Iotatonos" unicode="&#x38a;" horiz-adv-x="277" 
d="M-69 530h-94q-9 0 -5 13l36 127q3 10 13 10h137q14 0 5 -15l-76 -125q-6 -10 -16 -10zM69 10v660q0 10 10 10h127q10 0 10 -10v-660q0 -10 -10 -10h-127q-10 0 -10 10z" />
    <glyph glyph-name="Omicrontonos" unicode="&#x38c;" horiz-adv-x="628" 
d="M70 154q-19 58 -19 186t19 186q26 80 91 122.5t157 42.5t157 -42.5t91 -122.5q19 -58 19 -186t-19 -186q-26 -80 -91 -122.5t-157 -42.5t-157 42.5t-91 122.5zM425 194q11 35 11 146t-11 146q-24 75 -107 75t-107 -75q-11 -35 -11 -146t11 -146q24 -75 107 -75t107 75z
M-26 530h-94q-9 0 -5 13l36 127q3 10 13 10h137q14 0 5 -15l-76 -125q-6 -10 -16 -10z" />
    <glyph glyph-name="Upsilontonos" unicode="&#x38e;" horiz-adv-x="568" 
d="M351 0h-127q-10 0 -10 10v261l-201 399q-4 10 7 10h130q11 0 15 -10l123 -248h3l123 248q4 10 15 10h126q5 0 7 -3t0 -7l-201 -399v-261q0 -10 -10 -10zM-125 530h-94q-9 0 -5 13l36 127q3 10 13 10h137q14 0 5 -15l-76 -125q-6 -10 -16 -10z" />
    <glyph glyph-name="Omegatonos" unicode="&#x38f;" horiz-adv-x="636" 
d="M582 0h-213q-10 0 -10 10v101q0 11 9 14q41 15 58 64t17 151q0 106 -12 146q-23 75 -109 75q-84 0 -109 -75q-12 -36 -12 -146q0 -102 17 -151t57 -64q10 -3 10 -14v-101q0 -10 -10 -10h-213q-10 0 -10 10v104q0 10 10 10h57v2q-35 28 -51 77.5t-16 136.5q0 127 19 184
q27 81 92.5 124t158.5 43t158.5 -43t92.5 -124q19 -57 19 -184q0 -88 -16 -137.5t-52 -76.5v-2h58q10 0 10 -10v-104q0 -10 -10 -10zM-23 530h-94q-9 0 -5 13l36 127q3 10 13 10h137q14 0 5 -15l-76 -125q-6 -10 -16 -10z" />
    <glyph glyph-name="iotadieresistonos" unicode="&#x390;" horiz-adv-x="325" 
d="M377 561h-93q-10 0 -10 10v99q0 10 10 10h93q10 0 10 -10v-99q0 -10 -10 -10zM21 561h-92q-10 0 -10 10v99q0 10 10 10h92q10 0 10 -10v-99q0 -10 -10 -10zM179 551h-100q-9 0 -6 10l16 130q3 10 13 10h142q10 0 4 -10l-55 -130q-4 -10 -14 -10zM189 -11q-70 0 -100.5 37
t-30.5 111v337q0 10 10 10h120q10 0 10 -10v-315q0 -27 9.5 -39t30.5 -12q17 0 34 4q10 2 12 -6l20 -86q1 -6 -5 -11q-37 -20 -110 -20z" />
    <glyph glyph-name="Alpha" unicode="&#x391;" horiz-adv-x="644" 
d="M17 10l234 660q3 10 13 10h126q10 0 13 -10l230 -660q3 -10 -7 -10h-130q-10 0 -13 10l-39 119h-238l-38 -119q-3 -10 -13 -10h-131q-10 0 -7 10zM324 492l-77 -238h157l-77 238h-3z" />
    <glyph glyph-name="Beta" unicode="&#x392;" horiz-adv-x="610" 
d="M65 10v660q0 10 10 10h265q106 0 161.5 -47.5t55.5 -133.5q0 -102 -79 -145v-2q38 -15 64.5 -57t26.5 -97q0 -98 -61 -148t-175 -50h-258q-10 0 -10 10zM218 402h104q42 0 65.5 21t23.5 59q0 37 -23.5 58t-65.5 21h-104q-6 0 -6 -6v-147q0 -6 6 -6zM212 283v-158
q0 -6 6 -6h112q45 0 68.5 22.5t23.5 62.5t-24 62.5t-68 22.5h-112q-6 0 -6 -6z" />
    <glyph glyph-name="Gamma" unicode="&#x393;" horiz-adv-x="536" 
d="M211 547v-537q0 -10 -10 -10h-127q-10 0 -10 10v660q0 10 10 10h416q10 0 10 -10v-107q0 -10 -10 -10h-273q-6 0 -6 -6z" />
    <glyph glyph-name="uni0394" unicode="&#x394;" horiz-adv-x="650" 
d="M629 0h-602q-10 0 -7 10l234 660q3 10 13 10h126q10 0 13 -10l230 -660q3 -10 -7 -10zM212 121h232q6 0 5 6l-119 365h-3l-120 -365q-1 -6 5 -6z" />
    <glyph glyph-name="Epsilon" unicode="&#x395;" horiz-adv-x="565" 
d="M65 10v660q0 10 10 10h436q10 0 10 -10v-107q0 -10 -10 -10h-293q-6 0 -6 -6v-135q0 -6 6 -6h244q10 0 10 -10v-106q0 -10 -10 -10h-244q-6 0 -6 -6v-141q0 -6 6 -6h293q10 0 10 -10v-107q0 -10 -10 -10h-436q-10 0 -10 10z" />
    <glyph glyph-name="Zeta" unicode="&#x396;" horiz-adv-x="546" 
d="M496 0h-446q-10 0 -10 10v110q0 6 3 10l293 417v2h-275q-10 0 -10 10v111q0 10 10 10h435q10 0 10 -10v-110q0 -6 -3 -10l-294 -417v-2h287q10 0 10 -10v-111q0 -10 -10 -10z" />
    <glyph glyph-name="Eta" unicode="&#x397;" horiz-adv-x="658" 
d="M65 10v660q0 10 10 10h127q10 0 10 -10v-255q0 -6 6 -6h222q6 0 6 6v255q0 10 10 10h127q10 0 10 -10v-660q0 -10 -10 -10h-127q-10 0 -10 10v262q0 6 -6 6h-222q-6 0 -6 -6v-262q0 -10 -10 -10h-127q-10 0 -10 10z" />
    <glyph glyph-name="Theta" unicode="&#x398;" horiz-adv-x="644" 
d="M321 119q73 0 104 48q13 21 18 57q5 40 5 116q0 71 -5 113q-5 39 -20 63q-30 46 -101 46t-101 -46q-17 -26 -21 -63q-4 -33 -4 -113q0 -84 4 -116q4 -34 19 -57q31 -48 102 -48zM395 289h-146q-10 0 -10 10v82q0 10 10 10h146q10 0 10 -10v-82q0 -10 -10 -10zM321 -11
q-150 0 -222 97q-28 37 -40 93q-12 55 -12 161q0 102 10 155q11 58 44 101q38 50 90.5 72.5t130.5 22.5t130.5 -22.5t90.5 -72.5q33 -43 44 -101q10 -53 10 -155q0 -106 -12 -161q-12 -56 -40 -93q-72 -97 -224 -97z" />
    <glyph glyph-name="Iota" unicode="&#x399;" horiz-adv-x="277" 
d="M65 10v660q0 10 10 10h127q10 0 10 -10v-660q0 -10 -10 -10h-127q-10 0 -10 10z" />
    <glyph glyph-name="Kappa" unicode="&#x39a;" horiz-adv-x="645" 
d="M65 10v660q0 10 10 10h127q10 0 10 -10v-294l226 295q6 9 17 9h145q13 0 4 -13l-206 -258l225 -397q7 -12 -6 -12h-147q-10 0 -15 9l-154 286l-89 -112v-173q0 -10 -10 -10h-127q-10 0 -10 10z" />
    <glyph glyph-name="Lambda" unicode="&#x39b;" horiz-adv-x="644" 
d="M327 492h-3l-156 -482q-3 -10 -13 -10h-131q-10 0 -7 10l234 660q3 10 13 10h126q10 0 13 -10l230 -660q3 -10 -7 -10h-130q-10 0 -13 10z" />
    <glyph glyph-name="Mu" unicode="&#x39c;" horiz-adv-x="763" 
d="M65 10v660q0 10 10 10h119q12 0 16 -10l172 -388h4l169 388q4 10 16 10h117q10 0 10 -10v-660q0 -10 -10 -10h-113q-10 0 -10 10v383h-4l-126 -287q-6 -13 -19 -13h-69q-13 0 -19 13l-126 287h-4v-383q0 -10 -10 -10h-113q-10 0 -10 10z" />
    <glyph glyph-name="Nu" unicode="&#x39d;" horiz-adv-x="655" 
d="M65 10v660q0 10 10 10h120q11 0 17 -10l240 -428h5v428q0 10 10 10h113q10 0 10 -10v-660q0 -10 -10 -10h-119q-11 0 -17 10l-241 427h-5v-427q0 -10 -10 -10h-113q-10 0 -10 10z" />
    <glyph glyph-name="Xi" unicode="&#x39e;" horiz-adv-x="562" 
d="M511 0h-460q-10 0 -10 10v110q0 10 10 10h460q10 0 10 -10v-110q0 -10 -10 -10zM462 278h-363q-10 0 -10 10v107q0 10 10 10h363q10 0 10 -10v-107q0 -10 -10 -10zM511 550h-460q-10 0 -10 10v110q0 10 10 10h460q10 0 10 -10v-110q0 -10 -10 -10z" />
    <glyph glyph-name="Omicron" unicode="&#x39f;" horiz-adv-x="628" 
d="M66 154q-19 58 -19 186t19 186q26 80 91 122.5t157 42.5t157 -42.5t91 -122.5q19 -58 19 -186t-19 -186q-26 -80 -91 -122.5t-157 -42.5t-157 42.5t-91 122.5zM421 194q11 35 11 146t-11 146q-24 75 -107 75t-107 -75q-11 -35 -11 -146t11 -146q24 -75 107 -75t107 75z
" />
    <glyph glyph-name="Pi" unicode="&#x3a0;" horiz-adv-x="648" 
d="M202 0h-127q-10 0 -10 10v660q0 10 10 10h498q10 0 10 -10v-660q0 -10 -10 -10h-127q-10 0 -10 10v533q0 6 -6 6h-212q-6 0 -6 -6v-533q0 -10 -10 -10z" />
    <glyph glyph-name="Rho" unicode="&#x3a1;" horiz-adv-x="605" 
d="M202 0h-127q-10 0 -10 10v660q0 10 10 10h264q110 0 173 -60q64 -60 64 -159q0 -97 -64 -158q-64 -60 -173 -60h-121q-6 0 -6 -6v-227q0 -10 -10 -10zM218 370h112q46 0 72.5 24.5t26.5 66.5t-26.5 67t-72.5 25h-112q-6 0 -6 -6v-171q0 -6 6 -6z" />
    <glyph glyph-name="Sigma" unicode="&#x3a3;" horiz-adv-x="546" 
d="M496 0h-446q-10 0 -10 10v110q0 5 4 12l141 203l-135 199q-4 4 -4 11v125q0 10 10 10h435q10 0 10 -10v-110q0 -10 -10 -10h-266v-3l132 -188q5 -8 1 -14l-149 -211v-3h287q10 0 10 -10v-111q0 -10 -10 -10z" />
    <glyph glyph-name="Tau" unicode="&#x3a4;" horiz-adv-x="557" 
d="M342 0h-127q-10 0 -10 10v533q0 6 -6 6h-172q-10 0 -10 10v111q0 10 10 10h503q10 0 10 -10v-111q0 -10 -10 -10h-172q-6 0 -6 -6v-533q0 -10 -10 -10z" />
    <glyph glyph-name="Upsilon" unicode="&#x3a5;" horiz-adv-x="568" 
d="M351 0h-127q-10 0 -10 10v261l-201 399q-4 10 7 10h130q11 0 15 -10l123 -248h3l123 248q4 10 15 10h126q5 0 7 -3t0 -7l-201 -399v-261q0 -10 -10 -10z" />
    <glyph glyph-name="Phi" unicode="&#x3a6;" horiz-adv-x="797" 
d="M469 706v-47q131 -4 198 -73q83 -87 81 -242q0 -304 -279 -315v-55q0 -10 -10 -10h-120q-10 0 -10 10v55q-141 4 -210.5 85t-69.5 230q0 306 280 315v47q0 10 10 10h120q10 0 10 -10zM329 159v369q-74 -4 -102.5 -46.5t-28.5 -137.5q0 -79 21 -126q25 -53 110 -59z
M468 529v-369q85 5 110 59q21 46 21 125q0 98 -28 138q-29 41 -103 47z" />
    <glyph glyph-name="Chi" unicode="&#x3a7;" horiz-adv-x="595" 
d="M578 0h-139q-11 0 -17 10l-121 207h-3l-122 -207q-6 -10 -17 -10h-138q-5 0 -7 4t1 8l203 339l-189 317q-6 12 6 12h139q10 0 16 -10l108 -184h3l108 184q6 10 16 10h139q12 0 6 -12l-190 -317l204 -339q6 -12 -6 -12z" />
    <glyph glyph-name="Psi" unicode="&#x3a8;" horiz-adv-x="739" 
d="M439 82v-72q0 -10 -10 -10h-119q-10 0 -10 10v72q-124 6 -185 64q-60 58 -60 197v328q0 9 11 9h117q11 0 11 -9v-336q0 -74 23 -100q22 -25 83 -27v462q0 10 10 10h119q10 0 10 -10v-462q61 2 83 27q23 26 23 100v336q0 9 11 9h117q11 0 11 -9v-328q0 -139 -61 -197
q-59 -58 -184 -64z" />
    <glyph glyph-name="uni03A9" unicode="&#x3a9;" horiz-adv-x="636" 
d="M578 0h-213q-10 0 -10 10v101q0 11 9 14q41 15 58 64t17 151q0 106 -12 146q-23 75 -109 75q-84 0 -109 -75q-12 -36 -12 -146q0 -102 17 -151t57 -64q10 -3 10 -14v-101q0 -10 -10 -10h-213q-10 0 -10 10v104q0 10 10 10h57v2q-35 28 -51 77.5t-16 136.5q0 127 19 184
q27 81 92.5 124t158.5 43t158.5 -43t92.5 -124q19 -57 19 -184q0 -88 -16 -137.5t-52 -76.5v-2h58q10 0 10 -10v-104q0 -10 -10 -10z" />
    <glyph glyph-name="Iotadieresis" unicode="&#x3aa;" horiz-adv-x="277" 
d="M65 10v660q0 10 10 10h127q10 0 10 -10v-660q0 -10 -10 -10h-127q-10 0 -10 10zM285 760h-90q-10 0 -10 10v98q0 10 10 10h90q10 0 10 -10v-98q0 -10 -10 -10zM82 760h-90q-10 0 -10 10v98q0 10 10 10h90q10 0 10 -10v-98q0 -10 -10 -10z" />
    <glyph glyph-name="Upsilondieresis" unicode="&#x3ab;" horiz-adv-x="568" 
d="M351 0h-127q-10 0 -10 10v261l-201 399q-4 10 7 10h130q11 0 15 -10l123 -248h3l123 248q4 10 15 10h126q5 0 7 -3t0 -7l-201 -399v-261q0 -10 -10 -10zM435 760h-90q-10 0 -10 10v98q0 10 10 10h90q10 0 10 -10v-98q0 -10 -10 -10zM232 760h-90q-10 0 -10 10v98
q0 10 10 10h90q10 0 10 -10v-98q0 -10 -10 -10z" />
    <glyph glyph-name="alphatonos" unicode="&#x3ac;" horiz-adv-x="593" 
d="M226 -11q-99 0 -144 70q-45 71 -45 183q0 119 47.5 186t142.5 67q57 0 90.5 -18.5t61.5 -59.5h1q6 14 16 59q2 8 12 8h125q16 0 11 -20q-26 -109 -88 -257l10 -22q18 -40 33 -56t37 -16h10q12 0 12 -12v-97q0 -10 -10 -10h-29q-63 0 -90 15q-29 18 -50 53h-1
q-51 -73 -152 -73zM263 107q81 0 81 135t-81 135q-59 0 -75 -52q-9 -29 -9 -83t9 -83q16 -52 75 -52zM336 551h-94q-9 0 -5 13l36 127q3 10 13 10h137q14 0 5 -15l-76 -125q-6 -10 -16 -10z" />
    <glyph glyph-name="epsilontonos" unicode="&#x3ad;" horiz-adv-x="453" 
d="M229 -11q-194 0 -194 143q0 81 82 124v1q-64 34 -64 104q0 135 196 135q90 0 147 -18q8 -3 9 -5.5t0 -13.5l-16 -79q-1 -9 -12 -7q-59 13 -117 13q-67 0 -67 -44q0 -38 58 -38h62q14 0 14 -14v-81q0 -12 -13 -12h-76q-55 0 -55 -45t74 -45q35 0 125 18q10 2 12.5 1
t4.5 -7l21 -86q2 -9 -7 -13q-69 -31 -184 -31zM299 551h-94q-9 0 -5 13l36 127q3 10 13 10h137q14 0 5 -15l-76 -125q-6 -10 -16 -10z" />
    <glyph glyph-name="etatonos" unicode="&#x3ae;" horiz-adv-x="570" 
d="M208 0h-120q-10 0 -10 10v323q0 24 -6 33t-21 9q-11 0 -11 10v94q0 10 11 10q42 0 65 -4q28 -4 52 -23.5t32 -50.5h2q40 84 148 84q80 0 120.5 -49.5t40.5 -132.5v-483q0 -10 -10 -10h-120q-10 0 -10 10v457q0 89 -76 89q-34 0 -55.5 -22.5t-21.5 -62.5v-281
q0 -10 -10 -10zM302 551h-94q-9 0 -5 13l36 127q3 10 13 10h137q14 0 5 -15l-76 -125q-6 -10 -16 -10z" />
    <glyph glyph-name="iotatonos" unicode="&#x3af;" horiz-adv-x="325" 
d="M189 -11q-70 0 -100.5 37t-30.5 111v337q0 10 10 10h120q10 0 10 -10v-315q0 -27 9.5 -39t30.5 -12q17 0 34 4q10 2 12 -6l20 -86q1 -6 -5 -11q-37 -20 -110 -20zM173 551h-94q-9 0 -5 13l36 127q3 10 13 10h137q14 0 5 -15l-76 -125q-6 -10 -16 -10z" />
    <glyph glyph-name="upsilondieresistonos" unicode="&#x3b0;" horiz-adv-x="555" 
d="M497 561h-93q-10 0 -10 10v99q0 10 10 10h93q10 0 10 -10v-99q0 -10 -10 -10zM141 561h-92q-10 0 -10 10v99q0 10 10 10h92q10 0 10 -10v-99q0 -10 -10 -10zM299 551h-100q-9 0 -6 10l16 130q3 10 13 10h142q10 0 4 -10l-55 -130q-4 -10 -14 -10zM283 -11q-113 0 -164 57
t-51 181v107q0 41 -25 41q-13 0 -13 10v94q0 10 10 10h34q75 0 104 -22q30 -23 30 -99v-172q0 -88 76 -88t76 88v278q0 10 10 10h120q10 0 10 -10v-247q0 -125 -51 -181.5t-166 -56.5z" />
    <glyph glyph-name="alpha" unicode="&#x3b1;" horiz-adv-x="593" 
d="M226 -11q-99 0 -144 70q-45 71 -45 183q0 119 47.5 186t142.5 67q57 0 90.5 -18.5t61.5 -59.5h1q6 14 16 59q2 8 12 8h125q16 0 11 -20q-26 -109 -88 -257l10 -22q18 -40 33 -56t37 -16h10q12 0 12 -12v-97q0 -10 -10 -10h-29q-63 0 -90 15q-29 18 -50 53h-1
q-51 -73 -152 -73zM263 107q81 0 81 135t-81 135q-59 0 -75 -52q-9 -29 -9 -83t9 -83q16 -52 75 -52z" />
    <glyph glyph-name="beta" unicode="&#x3b2;" horiz-adv-x="581" 
d="M193 -180h-120q-10 0 -10 10v615q0 246 223 246q206 0 206 -175q0 -88 -67 -136v-2q53 -16 85 -60t32 -111q0 -95 -51 -156q-50 -62 -147 -62q-53 0 -84.5 10.5t-55.5 37.5h-1v-207q0 -10 -10 -10zM387 210q0 90 -86 90h-25q-10 0 -10 10v98q0 10 10 10h18q71 0 71 76
q0 38 -20.5 58t-57.5 20q-84 0 -84 -96v-257q0 -104 92 -104t92 95z" />
    <glyph glyph-name="gamma" unicode="&#x3b3;" horiz-adv-x="543" 
d="M353 -172h-129q-10 0 -10 10l8 156l-122 311q-19 49 -28 58q-9 12 -32 12q-15 0 -15 10v94q0 10 11 10h13q77 0 109 -19q34 -18 55 -79l75 -217h2l28 76q46 129 51 224q0 10 11 10h125q8 0 8 -9q0 -41 -15 -97q-14 -56 -30 -99q-17 -50 -43 -111l-70 -174q2 -44 4 -83.5
t3 -55.5t1 -17q0 -10 -10 -10z" />
    <glyph glyph-name="delta" unicode="&#x3b4;" horiz-adv-x="535" 
d="M266 -11q-104 0 -165 62t-61 170q0 158 135 221v1l-10 8q-55 45 -55 105q0 64 46 99.5t128 35.5q93 0 176 -26q7 -3 6 -10l-29 -96q-3 -9 -15 -5q-71 20 -107 20q-42 0 -42 -32q0 -26 40 -48l21 -12q163 -94 163 -256q0 -109 -58.5 -173t-172.5 -64zM270 107q85 0 85 114
q0 104 -83 142q-41 -9 -65.5 -45.5t-24.5 -97.5q0 -113 88 -113z" />
    <glyph glyph-name="epsilon" unicode="&#x3b5;" horiz-adv-x="453" 
d="M229 -11q-194 0 -194 143q0 81 82 124v1q-64 34 -64 104q0 135 196 135q90 0 147 -18q8 -3 9 -5.5t0 -13.5l-16 -79q-1 -9 -12 -7q-59 13 -117 13q-67 0 -67 -44q0 -38 58 -38h62q14 0 14 -14v-81q0 -12 -13 -12h-76q-55 0 -55 -45t74 -45q35 0 125 18q10 2 12.5 1
t4.5 -7l21 -86q2 -9 -7 -13q-69 -31 -184 -31z" />
    <glyph glyph-name="zeta" unicode="&#x3b6;" horiz-adv-x="425" 
d="M269 -179q-8 -3 -11 4l-41 69q-3 7 5 12q32 17 43 30t11 29q0 10 -7 17q-8 8 -39 19l-16 6q-92 35 -133 80q-42 47 -42 137t49 178t134 160v1h-143q-10 0 -10 10v97q0 10 10 10h334q10 0 10 -10v-90q-239 -176 -239 -334q0 -48 22 -71q24 -24 87 -52l27 -12
q48 -22 71 -49t23 -69q0 -46 -22 -82q-25 -47 -123 -90z" />
    <glyph glyph-name="eta" unicode="&#x3b7;" horiz-adv-x="570" 
d="M208 0h-120q-10 0 -10 10v323q0 24 -6 33t-21 9q-11 0 -11 10v94q0 10 11 10q42 0 65 -4q28 -4 52 -23.5t32 -50.5h2q40 84 148 84q80 0 120.5 -49.5t40.5 -132.5v-483q0 -10 -10 -10h-120q-10 0 -10 10v457q0 89 -76 89q-34 0 -55.5 -22.5t-21.5 -62.5v-281
q0 -10 -10 -10z" />
    <glyph glyph-name="theta" unicode="&#x3b8;" horiz-adv-x="546" 
d="M182 395h182q-1 97 -21.5 138t-69.5 41q-48 0 -69 -40.5t-22 -138.5zM273 -11q-112 0 -169 74q-25 34 -38 82q-23 79 -23 199q0 180 58 264t172 84q230 0 230 -348q0 -118 -21 -192q-19 -73 -69 -114.5t-140 -48.5zM364 288h-182q2 -102 19 -141q19 -40 72 -40t71 40
q18 38 20 141z" />
    <glyph glyph-name="iota" unicode="&#x3b9;" horiz-adv-x="340" 
d="M189 -11q-70 0 -100.5 37t-30.5 111v337q0 10 10 10h120q10 0 10 -10v-315q0 -27 9.5 -39t30.5 -12q17 0 34 4q10 2 12 -6l20 -86q1 -6 -5 -11q-37 -20 -110 -20z" />
    <glyph glyph-name="kappa" unicode="&#x3ba;" horiz-adv-x="554" 
d="M531 0h-136q-9 0 -15 10l-107 158l-70 -80v-78q0 -10 -10 -10h-120q-10 0 -10 10v464q0 10 10 10h120q10 0 10 -10v-206l116 149q35 41 65 56q31 16 80 16h33q10 0 10 -10v-93q0 -11 -11 -11h-7q-25 0 -35 -6q-13 -7 -37 -37l-54 -64l174 -258q6 -10 -6 -10z" />
    <glyph glyph-name="lambda" unicode="&#x3bb;" horiz-adv-x="541" 
d="M153 0h-131q-12 0 -6 12l187 417l-39 98q-9 23 -19.5 31t-32.5 8h-5q-10 0 -10 10v94q0 10 9 10h22q71 0 108 -26q37 -25 67 -101l154 -386q13 -33 23 -43.5t30 -10.5h6q11 0 11 -10v-98q0 -11 -10 -11h-35q-65 0 -95 21q-29 23 -48 69l-70 174h-1l-102 -248
q-4 -10 -13 -10z" />
    <glyph glyph-name="uni03BC" unicode="&#x3bc;" horiz-adv-x="602" 
d="M381 61h-1q-21 -38 -49 -53t-74 -15q-36 0 -54 15h-1v-178q0 -10 -10 -10h-120q-10 0 -10 10v644q0 10 10 10h120q10 0 10 -10v-277q0 -42 19 -65t55 -23q38 0 60 25.5t22 71.5v268q0 10 10 10h120q10 0 10 -10v-327q0 -19 6 -26.5t23 -7.5q10 0 10 -10v-94
q0 -15 -11 -15h-17q-63 0 -88 16t-40 51z" />
    <glyph glyph-name="nu" unicode="&#x3bd;" horiz-adv-x="508" 
d="M321 0h-120q-9 0 -12 10l-175 464q-3 10 8 10h129q10 0 14 -10l96 -287h2l37 103q36 102 36 184q0 10 11 10h126q8 0 8 -9q0 -105 -82 -303l-66 -162q-3 -10 -12 -10z" />
    <glyph glyph-name="xi" unicode="&#x3be;" horiz-adv-x="450" 
d="M268 -175l-41 69q-3 7 5 12q25 15 37.5 26t15 17t1.5 15q0 12 -9 19t-34 16l-25 9q-99 35 -139 75t-40 107q0 108 108 164v2q-73 36 -73 109q0 35 19 61t49 36v1h-73q-10 0 -10 10v97q0 10 10 10h344q10 0 10 -10v-102l-116 -7q-86 -5 -86 -72q0 -71 89 -71h62
q10 0 10 -10v-104q0 -10 -8 -10h-70q-48 0 -77 -21t-29 -63q0 -32 17.5 -47.5t67.5 -34.5l31 -12q60 -24 85 -53t25 -74t-23 -80q-26 -47 -122 -88q-8 -5 -11 4z" />
    <glyph glyph-name="omicron" unicode="&#x3bf;" horiz-adv-x="530" 
d="M55 125q-16 49 -16 117t16 117q21 65 76.5 100.5t133.5 35.5t133.5 -35.5t76.5 -100.5q16 -49 16 -117t-16 -117q-21 -65 -76.5 -100.5t-133.5 -35.5t-133.5 35.5t-76.5 100.5zM340 159q9 28 9 83q0 54 -9 83q-16 52 -75 52t-75 -52q-9 -29 -9 -83t9 -83q16 -52 75 -52
t75 52z" />
    <glyph glyph-name="pi" unicode="&#x3c0;" horiz-adv-x="605" 
d="M543 -6h-31q-77 0 -111.5 36.5t-34.5 116.5v210q0 6 -6 6h-125q-6 0 -6 -6v-347q0 -10 -10 -10h-119q-10 0 -10 10v347q0 6 -6 6h-44q-10 0 -10 10v101q0 10 10 10h515q10 0 10 -10v-101q0 -10 -10 -10h-44q-6 0 -6 -6v-203q0 -23 7.5 -32t25.5 -9h5q10 0 10 -10v-99
q0 -10 -10 -10z" />
    <glyph glyph-name="rho" unicode="&#x3c1;" horiz-adv-x="539" 
d="M178 -180h-120q-10 0 -10 15v415q0 120 55 179q64 68 170 66q105 0 167 -62q60 -61 60 -191q0 -144 -68 -204q-56 -49 -128 -49q-76 0 -115 43h-1v-202q0 -10 -10 -10zM349 159q9 28 9 83q0 54 -9 83q-16 52 -75 52t-75 -52q-9 -29 -9 -83t9 -83q16 -52 75 -52t75 52z
" />
    <glyph glyph-name="sigma1" unicode="&#x3c2;" horiz-adv-x="440" 
d="M240 -175l-40 67q-5 10 4 14q32 18 43 30.5t11 28.5q0 15 -10 26.5t-40 28.5q-89 50 -131 102t-42 137q0 110 63 173t171 63q93 0 151 -26q11 -5 7 -17l-23 -85q-3 -10 -5.5 -12.5t-9.5 -0.5q-62 18 -101 18q-51 0 -78.5 -29t-27.5 -80q0 -18 5 -36q12 -27 27 -40l12 -10
t15 -12l16 -10q3 -1 10.5 -5.5l16.5 -10t11 -6.5q55 -33 78 -64.5t23 -75.5q0 -46 -23 -84q-30 -48 -122 -88q-7 -3 -11 4z" />
    <glyph glyph-name="sigma" unicode="&#x3c3;" horiz-adv-x="570" 
d="M262 -11q-80 0 -134.5 36t-75.5 101q-16 48 -16 116q0 242 261 242h233q10 0 10 -10v-93q0 -10 -10 -10h-94v-1q52 -40 52 -132q0 -64 -16 -112q-22 -66 -76.5 -101.5t-133.5 -35.5zM265 107q57 0 73 55q8 27 8 87q0 49 -9.5 76.5t-34.5 42.5h-18q-55 0 -80.5 -29
t-25.5 -92q0 -61 9 -89q17 -51 78 -51z" />
    <glyph glyph-name="tau" unicode="&#x3c4;" horiz-adv-x="442" 
d="M138 133v224q0 6 -6 6h-102q-10 0 -10 10v101q0 10 10 10h372q10 0 10 -10v-101q0 -10 -10 -10h-118q-6 0 -6 -6v-194q0 -32 11 -43.5t39 -11.5q9 0 37 5q8 2 10 -6l18 -91q1 -6 -7 -11q-36 -16 -112 -16q-71 0 -103.5 35.5t-32.5 108.5z" />
    <glyph glyph-name="upsilon" unicode="&#x3c5;" horiz-adv-x="555" 
d="M283 -11q-113 0 -164 57t-51 181v107q0 41 -25 41q-13 0 -13 10v94q0 10 10 10h34q75 0 104 -22q30 -23 30 -99v-172q0 -88 76 -88t76 88v278q0 10 10 10h120q10 0 10 -10v-247q0 -125 -51 -181.5t-166 -56.5z" />
    <glyph glyph-name="phi" unicode="&#x3c6;" horiz-adv-x="685" 
d="M278 105v278q-54 -2 -77 -33t-23 -103t21.5 -106.5t78.5 -35.5zM407 -15v-155q0 -10 -7 -10h-112q-10 0 -10 10v155q-120 5 -180 75t-60 184q0 117 61.5 186t178.5 73v87q0 10 10 10h112q7 0 7 -10v-87q118 -5 179 -73t61 -187q0 -49 -12 -92t-38.5 -80.5t-75 -60.5
t-114.5 -25zM407 383v-278q56 0 78 33.5t22 103.5q0 76 -23 107.5t-77 33.5z" />
    <glyph glyph-name="chi" unicode="&#x3c7;" horiz-adv-x="571" 
d="M164 -180h-123q-14 0 -4 18l185 334l-97 166q-14 24 -24 30.5t-29 6.5h-9q-11 0 -11 11v92q0 11 9 11h37q66 0 98 -22q33 -21 66 -88l40 -77h1l88 173q5 9 14 9h134q6 0 7 -5t-2 -9l-171 -305l91 -165q21 -38 37.5 -52.5t35.5 -14.5h13q10 0 12 -11v-97q0 -11 -9 -11h-20
q-66 0 -100 17q-33 17 -64 69l-80 136h-1l-110 -206q-4 -10 -14 -10z" />
    <glyph glyph-name="psi" unicode="&#x3c8;" horiz-adv-x="710" 
d="M413 -180h-109q-10 0 -10 10v155q-122 2 -176.5 52.5t-53.5 168.5l1 127q0 26 -4 34t-19 8q-10 0 -10 10v94q0 10 10 10h37q66 0 96 -25t30 -91v-165q0 -58 19.5 -78.5t69.5 -22.5v493q0 10 10 10h109q10 0 10 -10v-493q49 1 69.5 23t20.5 78v266q0 10 10 10h120
q10 0 10 -10v-268q0 -107 -46 -160q-20 -23 -52 -37q-51 -23 -132 -24v-155q0 -10 -10 -10z" />
    <glyph glyph-name="omega" unicode="&#x3c9;" horiz-adv-x="715" 
d="M222 -11q-180 0 -180 223q0 181 78 276q5 5 14 2l110 -37q10 -3 4 -13q-62 -112 -62 -227q0 -53 12 -75t40 -22t40 23t12 80v97q0 14 11 14h113q11 0 11 -14v-97q0 -56 11.5 -79.5t41.5 -23.5q28 0 39.5 22t11.5 75q0 115 -62 227q-4 10 3 13l111 37q9 4 14 -2
q78 -99 78 -273q0 -226 -180 -226q-100 0 -134 91h-3q-18 -48 -49.5 -69.5t-84.5 -21.5z" />
    <glyph glyph-name="iotadieresis" unicode="&#x3ca;" horiz-adv-x="325" 
d="M274 561h-93q-10 0 -10 10v99q0 10 10 10h93q10 0 10 -10v-99q0 -10 -10 -10zM73 561h-92q-10 0 -10 10v99q0 10 10 10h92q10 0 10 -10v-99q0 -10 -10 -10zM189 -11q-70 0 -100.5 37t-30.5 111v337q0 10 10 10h120q10 0 10 -10v-315q0 -27 9.5 -39t30.5 -12q17 0 34 4
q10 2 12 -6l20 -86q1 -6 -5 -11q-37 -20 -110 -20z" />
    <glyph glyph-name="upsilondieresis" unicode="&#x3cb;" horiz-adv-x="555" 
d="M283 -11q-113 0 -164 57t-51 181v107q0 41 -25 41q-13 0 -13 10v94q0 10 10 10h34q75 0 104 -22q30 -23 30 -99v-172q0 -88 76 -88t76 88v278q0 10 10 10h120q10 0 10 -10v-247q0 -125 -51 -181.5t-166 -56.5zM417 561h-93q-10 0 -10 10v99q0 10 10 10h93q10 0 10 -10
v-99q0 -10 -10 -10zM216 561h-92q-10 0 -10 10v99q0 10 10 10h92q10 0 10 -10v-99q0 -10 -10 -10z" />
    <glyph glyph-name="omicrontonos" unicode="&#x3cc;" horiz-adv-x="530" 
d="M55 125q-16 49 -16 117t16 117q21 65 76.5 100.5t133.5 35.5t133.5 -35.5t76.5 -100.5q16 -49 16 -117t-16 -117q-21 -65 -76.5 -100.5t-133.5 -35.5t-133.5 35.5t-76.5 100.5zM340 159q9 28 9 83q0 54 -9 83q-16 52 -75 52t-75 -52q-9 -29 -9 -83t9 -83q16 -52 75 -52
t75 52zM308 551h-94q-9 0 -5 13l36 127q3 10 13 10h137q14 0 5 -15l-76 -125q-6 -10 -16 -10z" />
    <glyph glyph-name="upsilontonos" unicode="&#x3cd;" horiz-adv-x="555" 
d="M283 -11q-113 0 -164 57t-51 181v107q0 41 -25 41q-13 0 -13 10v94q0 10 10 10h34q75 0 104 -22q30 -23 30 -99v-172q0 -88 76 -88t76 88v278q0 10 10 10h120q10 0 10 -10v-247q0 -125 -51 -181.5t-166 -56.5zM304 551h-94q-9 0 -5 13l36 127q3 10 13 10h137q14 0 5 -15
l-76 -125q-6 -10 -16 -10z" />
    <glyph glyph-name="omegatonos" unicode="&#x3ce;" horiz-adv-x="715" 
d="M222 -11q-180 0 -180 223q0 181 78 276q5 5 14 2l110 -37q10 -3 4 -13q-62 -112 -62 -227q0 -53 12 -75t40 -22t40 23t12 80v97q0 14 11 14h113q11 0 11 -14v-97q0 -56 11.5 -79.5t41.5 -23.5q28 0 39.5 22t11.5 75q0 115 -62 227q-4 10 3 13l111 37q9 4 14 -2
q78 -99 78 -273q0 -226 -180 -226q-100 0 -134 91h-3q-18 -48 -49.5 -69.5t-84.5 -21.5zM401 551h-94q-9 0 -5 13l36 127q3 10 13 10h137q14 0 5 -15l-76 -125q-6 -10 -16 -10z" />
    <glyph glyph-name="uni0400" unicode="&#x400;" horiz-adv-x="565" 
d="M511 0h-436q-10 0 -10 10v660q0 10 10 10h436q10 0 10 -10v-107q0 -10 -10 -10h-293q-6 0 -6 -6v-135q0 -6 6 -6h244q10 0 10 -10v-106q0 -10 -10 -10h-244q-6 0 -6 -6v-141q0 -6 6 -6h293q10 0 10 -10v-107q0 -10 -10 -10zM360 754h-93q-10 0 -19 9l-123 116
q-3 4 -1.5 7t6.5 3h120q12 0 19 -10l95 -115q3 -4 1.5 -7t-5.5 -3z" />
    <glyph glyph-name="uni0401" unicode="&#x401;" horiz-adv-x="565" 
d="M511 0h-436q-10 0 -10 10v660q0 10 10 10h436q10 0 10 -10v-107q0 -10 -10 -10h-293q-6 0 -6 -6v-135q0 -6 6 -6h244q10 0 10 -10v-106q0 -10 -10 -10h-244q-6 0 -6 -6v-141q0 -6 6 -6h293q10 0 10 -10v-107q0 -10 -10 -10zM437 760h-90q-10 0 -10 10v98q0 10 10 10h90
q10 0 10 -10v-98q0 -10 -10 -10zM234 760h-90q-10 0 -10 10v98q0 10 10 10h90q10 0 10 -10v-98q0 -10 -10 -10z" />
    <glyph glyph-name="uni0402" unicode="&#x402;" horiz-adv-x="750" 
d="M344 0h-127q-10 0 -10 10v533q0 6 -5 6h-175q-10 0 -10 10v111q0 10 10 10h507q10 0 10 -10v-111q0 -10 -10 -10h-174q-6 0 -6 -6v-134q0 -7 9 -6q82 21 158 21q80 0 139 -50t59 -152q0 -106 -61.5 -164t-182.5 -58h-31q-9 0 -9 10v108q0 9 10 9h24q103 0 103 86
q0 38 -27 59t-70 21q-61 0 -113 -21q-8 -3 -8 -12v-250q0 -10 -10 -10z" />
    <glyph glyph-name="uni0403" unicode="&#x403;" horiz-adv-x="500" 
d="M202 0h-127q-10 0 -10 10v660q0 10 10 10h404q10 0 10 -10v-112q0 -9 -10 -9h-261q-6 0 -6 -6v-533q0 -10 -10 -10zM293 754h-93q-4 0 -5.5 3t1.5 7l95 115q7 10 19 10h120q5 0 6.5 -3t-1.5 -7l-123 -116q-9 -9 -19 -9z" />
    <glyph glyph-name="uni0404" unicode="&#x404;" horiz-adv-x="577" 
d="M315 -12q-89 0 -152.5 40t-91.5 114q-24 63 -24 199q0 123 20 186q26 80 91 122t157 42q173 0 232 -143q3 -9 -5 -14l-104 -46q-9 -5 -14 5q-34 72 -107 72q-42 0 -71.5 -19.5t-40.5 -55.5q-9 -25 -11 -77q0 -7 7 -7h181q9 0 9 -10v-105q0 -9 -9 -9h-181q-7 0 -7 -7
q2 -62 13 -91q12 -33 41.5 -51t68.5 -18q73 0 108 72q5 10 14 5l103 -47q9 -5 5 -14q-61 -143 -232 -143z" />
    <glyph glyph-name="uni0405" unicode="&#x405;" horiz-adv-x="595" 
d="M301 -11q-76 0 -149 26q-74 28 -113 67q-8 8 -1 17l76 87q6 8 15 1q88 -70 178 -70q51 0 81 22t30 59q0 33 -24 50.5t-81 25.5l-36 5q-215 30 -215 204q0 94 65 151q66 57 176 57q139 0 231 -71q9 -6 2 -15l-61 -91q-6 -8 -14 -3q-79 52 -158 52q-43 0 -67 -20t-24 -54
q0 -60 106 -75l36 -5q214 -28 214 -206q0 -98 -70.5 -156t-196.5 -58z" />
    <glyph glyph-name="uni0406" unicode="&#x406;" horiz-adv-x="277" 
d="M65 10v660q0 10 10 10h127q10 0 10 -10v-660q0 -10 -10 -10h-127q-10 0 -10 10z" />
    <glyph glyph-name="uni0407" unicode="&#x407;" horiz-adv-x="277" 
d="M65 10v660q0 10 10 10h127q10 0 10 -10v-660q0 -10 -10 -10h-127q-10 0 -10 10zM285 760h-90q-10 0 -10 10v98q0 10 10 10h90q10 0 10 -10v-98q0 -10 -10 -10zM82 760h-90q-10 0 -10 10v98q0 10 10 10h90q10 0 10 -10v-98q0 -10 -10 -10z" />
    <glyph glyph-name="uni0408" unicode="&#x408;" horiz-adv-x="521" 
d="M26 76q-5 10 1 14l93 71q8 5 14 -2q34 -40 83 -40q48 0 74 30.5t26 87.5v433q0 10 10 10h127q10 0 10 -10v-426q0 -123 -65 -189t-183 -66q-60 0 -113 24.5t-77 62.5z" />
    <glyph glyph-name="uni0409" unicode="&#x409;" horiz-adv-x="1010" 
d="M61 -4h-41q-10 0 -10 10v112q0 9 10 9h13q52 0 82 48q30 49 30 184v312q0 9 10 9h446q9 0 9 -9v-229q0 -6 6 -6h122q113 0 177 -59t64 -158q0 -100 -64 -159.5t-177 -59.5h-266q-9 0 -9 10v533q0 6 -6 6h-162q-6 0 -6 -6v-193q0 -194 -56 -274t-172 -80zM616 127h113
q49 0 76 25t27 69q0 43 -26.5 66t-76.5 23h-113q-6 0 -6 -6v-171q0 -6 6 -6z" />
    <glyph glyph-name="uni040A" unicode="&#x40a;" horiz-adv-x="984" 
d="M202 0h-127q-10 0 -10 10v660q0 10 10 10h127q10 0 10 -10v-243q0 -6 6 -6h222q6 0 6 6v243q0 10 10 10h127q10 0 10 -10v-243q0 -6 6 -6h133q102 0 161 -58q60 -57 60 -151t-60 -153q-61 -59 -161 -59h-276q-10 0 -10 10v274q0 6 -6 6h-222q-6 0 -6 -6v-274
q0 -10 -10 -10zM599 127h119q41 0 64.5 23t23.5 62t-23.5 61.5t-64.5 22.5h-119q-6 0 -6 -6v-157q0 -6 6 -6z" />
    <glyph glyph-name="uni040B" unicode="&#x40b;" horiz-adv-x="757" 
d="M344 0h-127q-10 0 -10 10v533q0 6 -5 6h-175q-10 0 -10 10v111q0 10 10 10h507q10 0 10 -10v-111q0 -10 -10 -10h-174q-5 0 -6 -4v-135q0 -10 10 -7q82 21 157 21q182 0 182 -179v-236q0 -9 -9 -9h-128q-10 0 -10 9v207q0 77 -81 77q-43 0 -105 -15q-16 -4 -16 -16v-252
q0 -10 -10 -10z" />
    <glyph glyph-name="uni040C" unicode="&#x40c;" horiz-adv-x="645" 
d="M202 0h-127q-10 0 -10 10v660q0 10 10 10h127q10 0 10 -10v-254q0 -6 6 -6h48q57 0 80 59l43 106q24 60 59.5 84.5t96.5 24.5h42q10 0 10 -10v-108q0 -9 -10 -9h-9q-27 0 -41 -10t-25 -36l-33 -83q-21 -58 -57 -72v-4q45 -14 66 -70l41 -109q10 -27 23 -36.5t40 -9.5h11
q10 0 10 -9v-112q0 -10 -10 -10h-48q-61 0 -98 25.5t-60 84.5l-43 112q-22 61 -89 61h-47q-6 0 -6 -6v-263q0 -10 -10 -10zM363 754h-93q-4 0 -5.5 3t1.5 7l95 115q7 10 19 10h120q5 0 6.5 -3t-1.5 -7l-123 -116q-9 -9 -19 -9z" />
    <glyph glyph-name="uni040D" unicode="&#x40d;" horiz-adv-x="668" 
d="M191 0h-117q-9 0 -9 10v661q0 9 9 9h129q9 0 9 -9v-418h3l248 419q5 8 14 8h117q9 0 9 -9v-661q0 -10 -9 -10h-128q-10 0 -10 10v419h-3l-248 -421q-5 -8 -14 -8zM400 754h-93q-10 0 -19 9l-123 116q-3 4 -1.5 7t6.5 3h120q12 0 19 -10l95 -115q3 -4 1.5 -7t-5.5 -3z" />
    <glyph glyph-name="uni040E" unicode="&#x40e;" horiz-adv-x="587" 
d="M175 -4h-66q-10 0 -10 10v112q0 9 10 9h40q56 0 75 43l14 31l-220 467q-6 12 6 12h134q10 0 15 -9l134 -301h3l118 301q4 9 14 9h134q10 0 5 -11l-237 -554q-51 -119 -169 -119zM308 735q-128 0 -152 120q-3 12 5 14l67 9q9 1 12 -7q15 -46 68 -46q52 0 68 46q3 8 12 7
l66 -9q8 -2 5 -14q-24 -120 -151 -120z" />
    <glyph glyph-name="uni040F" unicode="&#x40f;" horiz-adv-x="650" 
d="M384 -133h-118q-9 0 -9 10v117q0 6 -6 6h-177q-9 0 -9 9v661q0 10 9 10h129q9 0 9 -10v-533q0 -6 6 -6h214q6 0 6 6v533q0 10 9 10h129q9 0 9 -10v-661q0 -9 -10 -9h-176q-6 0 -6 -6v-117q0 -10 -9 -10z" />
    <glyph glyph-name="uni0410" unicode="&#x410;" horiz-adv-x="644" 
d="M17 10l234 660q3 10 13 10h126q10 0 13 -10l230 -660q3 -10 -7 -10h-130q-10 0 -13 10l-39 119h-238l-38 -119q-3 -10 -13 -10h-131q-10 0 -7 10zM324 492l-77 -238h157l-77 238h-3z" />
    <glyph glyph-name="uni0411" unicode="&#x411;" horiz-adv-x="611" 
d="M351 0h-277q-9 0 -9 10v661q0 9 9 9h446q10 0 10 -9v-109q0 -10 -10 -10h-302q-6 0 -6 -6v-121q0 -6 6 -6h133q102 0 161 -58q60 -57 60 -151t-60 -152q-59 -58 -161 -58zM218 125h119q41 0 64.5 23t23.5 62t-23.5 61.5t-64.5 22.5h-119q-6 0 -6 -6v-157q0 -6 6 -6z" />
    <glyph glyph-name="uni0412" unicode="&#x412;" horiz-adv-x="610" 
d="M333 0h-258q-10 0 -10 10v660q0 10 10 10h265q106 0 161.5 -47.5t55.5 -133.5q0 -101 -79 -144v-4q39 -15 65 -56.5t26 -96.5q0 -98 -61 -148t-175 -50zM218 119h112q45 0 68.5 22.5t23.5 62.5t-24 62.5t-68 22.5h-112q-6 0 -6 -6v-158q0 -6 6 -6zM218 402h104
q42 0 65.5 21t23.5 59q0 37 -23.5 58t-65.5 21h-104q-6 0 -6 -6v-147q0 -6 6 -6z" />
    <glyph glyph-name="uni0413" unicode="&#x413;" horiz-adv-x="500" 
d="M202 0h-127q-10 0 -10 10v660q0 10 10 10h404q10 0 10 -10v-112q0 -9 -10 -9h-261q-6 0 -6 -6v-533q0 -10 -10 -10z" />
    <glyph glyph-name="uni0414" unicode="&#x414;" horiz-adv-x="687" 
d="M131 -133h-118q-8 0 -8 10v245q0 9 9 9h38q13 0 16 8q40 83 56 175q18 94 18 267v90q0 9 10 9h443q9 0 9 -10v-533q0 -6 6 -6h56q10 0 10 -9v-245q0 -10 -9 -10h-118q-8 0 -8 10v117q0 6 -6 6h-389q-6 0 -6 -6v-117q0 -10 -9 -10zM225 131h226q6 0 6 6v406q0 6 -6 6h-160
q-6 0 -6 -6v-10q0 -263 -66 -395q-4 -7 6 -7z" />
    <glyph glyph-name="uni0415" unicode="&#x415;" horiz-adv-x="565" 
d="M511 0h-436q-10 0 -10 10v660q0 10 10 10h436q10 0 10 -10v-107q0 -10 -10 -10h-293q-6 0 -6 -6v-135q0 -6 6 -6h244q10 0 10 -10v-106q0 -10 -10 -10h-244q-6 0 -6 -6v-141q0 -6 6 -6h293q10 0 10 -10v-107q0 -10 -10 -10z" />
    <glyph glyph-name="uni0416" unicode="&#x416;" horiz-adv-x="973" 
d="M90 -5h-48q-10 0 -10 10v112q0 9 10 9h9q27 0 41 10t24 37l40 109q21 57 67 70v4q-34 12 -58 72l-33 83q-11 27 -24.5 36.5t-40.5 9.5h-10q-10 0 -10 9v108q0 10 10 10h42q59 0 95.5 -25.5t60.5 -83.5l43 -106q24 -60 81 -60h28q6 0 6 6v255q0 10 10 10h127q10 0 10 -10
v-255q0 -6 6 -6h27q57 0 81 60l43 106q24 58 60.5 83.5t95.5 25.5h42q10 0 10 -10v-108q0 -9 -10 -9h-10q-27 0 -40.5 -9.5t-24.5 -36.5l-33 -83q-24 -60 -58 -72v-4q46 -13 67 -70l40 -109q10 -27 24 -37t41 -10h10q10 0 10 -9v-112q0 -10 -10 -10h-49q-61 0 -98 26t-59 85
l-43 112q-24 63 -89 63h-27q-6 0 -6 -6v-265q0 -10 -10 -10h-127q-10 0 -10 10v265q0 6 -6 6h-27q-66 0 -90 -63l-43 -112q-22 -59 -59 -85t-98 -26z" />
    <glyph glyph-name="uni0417" unicode="&#x417;" horiz-adv-x="580" 
d="M290 -11q-172 0 -257 82q-7 5 0 15l62 88q4 7 12 1q80 -59 171 -59q45 0 77 23.5t32 58.5q0 41 -27.5 63.5t-74.5 22.5h-73q-9 0 -9 10v103q0 10 9 10h73q43 0 67.5 22t24.5 61q0 36 -27 55.5t-75 19.5q-80 0 -148 -51q-11 -6 -15 0l-59 88q-5 10 1 14q101 75 233 75
q111 0 175 -51.5t64 -140.5q0 -49 -22.5 -88t-62.5 -58v-2q43 -16 69.5 -57.5t26.5 -97.5q0 -93 -70 -150q-69 -57 -177 -57z" />
    <glyph glyph-name="uni0418" unicode="&#x418;" horiz-adv-x="668" 
d="M191 0h-117q-9 0 -9 10v661q0 9 9 9h129q9 0 9 -9v-418h3l248 419q5 8 14 8h117q9 0 9 -9v-661q0 -10 -9 -10h-128q-10 0 -10 10v419h-3l-248 -421q-5 -8 -14 -8z" />
    <glyph glyph-name="uni0419" unicode="&#x419;" horiz-adv-x="668" 
d="M191 0h-117q-9 0 -9 10v661q0 9 9 9h129q9 0 9 -9v-418h3l248 419q5 8 14 8h117q9 0 9 -9v-661q0 -10 -9 -10h-128q-10 0 -10 10v419h-3l-248 -421q-5 -8 -14 -8zM334 735q-128 0 -152 120q-3 12 5 14l67 9q9 1 12 -7q15 -46 68 -46q52 0 68 46q3 8 12 7l66 -9
q8 -2 5 -14q-24 -120 -151 -120z" />
    <glyph glyph-name="uni041A" unicode="&#x41a;" horiz-adv-x="645" 
d="M202 0h-127q-10 0 -10 10v660q0 10 10 10h127q10 0 10 -10v-254q0 -6 6 -6h48q57 0 80 59l43 106q24 60 59.5 84.5t96.5 24.5h42q10 0 10 -10v-108q0 -9 -10 -9h-9q-27 0 -41 -10t-25 -36l-33 -83q-21 -58 -57 -72v-4q45 -14 66 -70l41 -109q10 -27 23 -36.5t40 -9.5h11
q10 0 10 -9v-112q0 -10 -10 -10h-48q-61 0 -98 25.5t-60 84.5l-43 112q-22 61 -89 61h-47q-6 0 -6 -6v-263q0 -10 -10 -10z" />
    <glyph glyph-name="uni041B" unicode="&#x41b;" horiz-adv-x="675" 
d="M68 -4h-48q-10 0 -10 10v112q0 9 10 9h13q52 0 82 48q30 49 30 184v312q0 9 10 9h446q9 0 9 -9v-661q0 -10 -8 -10h-130q-9 0 -9 10v533q0 6 -6 6h-162q-6 0 -6 -6v-193q0 -194 -55 -274q-54 -80 -166 -80z" />
    <glyph glyph-name="uni041C" unicode="&#x41c;" horiz-adv-x="763" 
d="M188 0h-113q-10 0 -10 10v660q0 10 10 10h119q12 0 16 -10l172 -388h4l169 388q4 10 16 10h117q10 0 10 -10v-660q0 -10 -10 -10h-113q-10 0 -10 10v383h-4l-126 -287q-6 -13 -19 -13h-69q-13 0 -19 13l-126 287h-4v-383q0 -10 -10 -10z" />
    <glyph glyph-name="uni041D" unicode="&#x41d;" horiz-adv-x="658" 
d="M202 0h-127q-10 0 -10 10v660q0 10 10 10h127q10 0 10 -10v-255q0 -6 6 -6h222q6 0 6 6v255q0 10 10 10h127q10 0 10 -10v-660q0 -10 -10 -10h-127q-10 0 -10 10v262q0 6 -6 6h-222q-6 0 -6 -6v-262q0 -10 -10 -10z" />
    <glyph glyph-name="uni041E" unicode="&#x41e;" horiz-adv-x="628" 
d="M66 154q-19 58 -19 186t19 186q26 80 91 122.5t157 42.5t157 -42.5t91 -122.5q19 -58 19 -186t-19 -186q-26 -80 -91 -122.5t-157 -42.5t-157 42.5t-91 122.5zM421 194q11 35 11 146t-11 146q-24 75 -107 75t-107 -75q-11 -35 -11 -146t11 -146q24 -75 107 -75t107 75z
" />
    <glyph glyph-name="uni041F" unicode="&#x41f;" horiz-adv-x="650" 
d="M203 0h-129q-9 0 -9 10v661q0 9 9 9h501q10 0 10 -9v-661q0 -10 -9 -10h-129q-9 0 -9 10v533q0 6 -6 6h-214q-6 0 -6 -6v-533q0 -10 -9 -10z" />
    <glyph glyph-name="uni0420" unicode="&#x420;" horiz-adv-x="605" 
d="M202 0h-127q-10 0 -10 10v660q0 10 10 10h264q110 0 173 -60q64 -60 64 -159q0 -97 -64 -158q-64 -60 -173 -60h-121q-6 0 -6 -6v-227q0 -10 -10 -10zM218 370h112q46 0 72.5 24.5t26.5 66.5t-26.5 67t-72.5 25h-112q-6 0 -6 -6v-171q0 -6 6 -6z" />
    <glyph glyph-name="uni0421" unicode="&#x421;" horiz-adv-x="575" 
d="M308 -11q-90 0 -152.5 43t-89.5 124q-19 54 -19 184t19 184q27 81 89.5 124t152.5 43q86 0 147 -39t90 -112q5 -9 -5 -12l-109 -49q-10 -5 -14 5q-33 77 -108 77q-78 0 -102 -75q-11 -36 -11 -146t11 -146q24 -75 102 -75q75 0 108 77q4 10 14 5l109 -49q10 -3 5 -12
q-29 -73 -90 -112t-147 -39z" />
    <glyph glyph-name="uni0422" unicode="&#x422;" horiz-adv-x="557" 
d="M342 0h-127q-10 0 -10 10v533q0 6 -6 6h-172q-10 0 -10 10v111q0 10 10 10h503q10 0 10 -10v-111q0 -10 -10 -10h-172q-6 0 -6 -6v-533q0 -10 -10 -10z" />
    <glyph glyph-name="uni0423" unicode="&#x423;" horiz-adv-x="587" 
d="M175 -4h-66q-10 0 -10 10v112q0 9 10 9h40q56 0 75 43l14 31l-220 467q-6 12 6 12h134q10 0 15 -9l134 -301h3l118 301q4 9 14 9h134q10 0 5 -11l-237 -554q-51 -119 -169 -119z" />
    <glyph glyph-name="uni0424" unicode="&#x424;" horiz-adv-x="800" 
d="M464 -11h-129q-9 0 -9 10v73q0 6 -6 6q-149 9 -219 77.5t-70 199.5q0 252 289 265q6 0 6 6v56q0 9 10 9h128q9 0 9 -9v-56q0 -6 6 -6q290 -14 290 -265q0 -132 -70 -200t-220 -77q-6 0 -6 -6v-73q0 -10 -9 -10zM320 205q6 0 6 6v277q0 5 -6 5q-74 -3 -108 -37t-34 -107
q0 -69 34.5 -104t107.5 -40zM480 205q73 5 107.5 40t34.5 104q0 73 -34 107t-108 37q-7 0 -7 -5v-277q0 -6 7 -6z" />
    <glyph glyph-name="uni0425" unicode="&#x425;" horiz-adv-x="595" 
d="M159 0h-138q-5 0 -7 4t1 8l203 339l-189 317q-6 12 6 12h139q10 0 16 -10l108 -184h3l108 184q6 10 16 10h139q12 0 6 -12l-190 -317l204 -339q6 -12 -6 -12h-139q-11 0 -17 10l-121 207h-3l-122 -207q-6 -10 -17 -10z" />
    <glyph glyph-name="uni0426" unicode="&#x426;" horiz-adv-x="668" 
d="M648 -133h-118q-8 0 -8 10v117q0 6 -6 6h-442q-9 0 -9 9v661q0 10 9 10h129q9 0 9 -10v-533q0 -6 6 -6h214q6 0 6 6v533q0 10 9 10h129q9 0 9 -10v-533q0 -6 6 -6h56q10 0 10 -9v-245q0 -10 -9 -10z" />
    <glyph glyph-name="uni0427" unicode="&#x427;" horiz-adv-x="611" 
d="M537 0h-129q-9 0 -9 10v235q0 7 -9 6q-82 -21 -158 -21q-183 0 -183 179v262q0 9 10 9h127q10 0 10 -9v-230q0 -77 81 -77q56 0 108 13q14 3 14 14v280q0 9 9 9h128q10 0 10 -9v-661q0 -10 -9 -10z" />
    <glyph glyph-name="uni0428" unicode="&#x428;" horiz-adv-x="952" 
d="M877 0h-803q-9 0 -9 9v661q0 10 9 10h129q9 0 9 -10v-533q0 -6 6 -6h178q6 0 6 6v533q0 10 8 10h130q9 0 9 -10v-533q0 -6 6 -6h179q6 0 6 6v533q0 10 8 10h129q10 0 10 -10v-661q0 -9 -10 -9z" />
    <glyph glyph-name="uni0429" unicode="&#x429;" horiz-adv-x="969" 
d="M949 -133h-118q-8 0 -8 10v117q0 6 -6 6h-743q-9 0 -9 9v661q0 10 9 10h129q9 0 9 -10v-533q0 -6 6 -6h178q6 0 6 6v533q0 10 8 10h130q9 0 9 -10v-533q0 -6 6 -6h179q6 0 6 6v533q0 10 8 10h129q10 0 10 -10v-533q0 -6 6 -6h55q10 0 10 -9v-245q0 -10 -9 -10z" />
    <glyph glyph-name="uni042A" unicode="&#x42a;" horiz-adv-x="704" 
d="M432 0h-265q-10 0 -10 10v533q0 6 -5 6h-129q-9 0 -9 9v112q0 10 9 10h271q10 0 10 -10v-228q0 -6 6 -6h122q113 0 177 -59t64 -158q0 -100 -64 -159.5t-177 -59.5zM310 127h113q49 0 76 24t27 68t-27 67.5t-76 23.5h-113q-6 0 -6 -6v-171q0 -6 6 -6z" />
    <glyph glyph-name="uni042B" unicode="&#x42b;" horiz-adv-x="866" 
d="M339 0h-264q-10 0 -10 10v660q0 10 10 10h127q10 0 10 -10v-228q0 -6 6 -6h121q113 0 177 -59t64 -158q0 -100 -64 -159.5t-177 -59.5zM218 127h113q49 0 75.5 24t26.5 68q0 43 -26.5 67t-75.5 24h-113q-6 0 -6 -6v-171q0 -6 6 -6zM791 0h-127q-10 0 -10 10v660
q0 10 10 10h127q10 0 10 -10v-660q0 -10 -10 -10z" />
    <glyph glyph-name="uni042C" unicode="&#x42c;" horiz-adv-x="611" 
d="M339 0h-264q-10 0 -10 10v660q0 10 10 10h127q10 0 10 -10v-228q0 -6 6 -6h121q113 0 177 -59t64 -158q0 -100 -64 -159.5t-177 -59.5zM218 127h113q48 0 75 25t27 69q0 43 -26.5 66t-75.5 23h-113q-6 0 -6 -6v-171q0 -6 6 -6z" />
    <glyph glyph-name="uni042D" unicode="&#x42d;" horiz-adv-x="577" 
d="M266 -12q-171 0 -232 143q-4 9 5 14l103 47q9 5 14 -5q34 -72 108 -72q39 0 68.5 18t41.5 51q11 29 13 91q0 7 -7 7h-181q-9 0 -9 9v105q0 10 9 10h181q7 0 7 7q-2 52 -11 77q-11 36 -40.5 55.5t-71.5 19.5q-72 0 -107 -72q-5 -10 -14 -5l-104 46q-8 5 -5 14
q59 143 232 143q92 0 157 -42t91 -122q20 -63 20 -186q0 -136 -24 -199q-28 -74 -91.5 -114t-152.5 -40z" />
    <glyph glyph-name="uni042E" unicode="&#x42e;" horiz-adv-x="868" 
d="M330 150q-15 48 -18 123q0 6 -6 6h-88q-6 0 -6 -6v-263q0 -10 -10 -10h-127q-10 0 -10 10v660q0 10 10 10h127q10 0 10 -10v-254q0 -6 6 -6h88q6 0 6 6q4 74 18 114q25 78 86.5 119.5t149.5 41.5t149.5 -41.5t86.5 -119.5q19 -58 19 -190t-19 -190q-25 -78 -86.5 -119.5
t-149.5 -41.5t-150 41.5t-86 119.5zM662 191q11 35 11 149q0 115 -11 148q-22 72 -96 72t-96 -72q-11 -38 -11 -148t11 -149q23 -71 96 -71t96 71z" />
    <glyph glyph-name="uni042F" unicode="&#x42f;" horiz-adv-x="626" 
d="M83 -4h-45q-10 0 -10 10v112q0 9 10 9h14q45 0 60 38l28 66q16 39 46 58v4q-63 15 -100.5 61t-37.5 121q0 87 60 146q62 59 164 59h280q9 0 9 -9v-661q0 -10 -9 -10h-128q-10 0 -10 10v237q0 6 -6 6h-51q-31 0 -47.5 -10.5t-30.5 -42.5l-38 -94q-24 -60 -60.5 -85
t-97.5 -25zM287 378h121q6 0 6 6v162q0 6 -6 6h-121q-42 0 -66.5 -22.5t-24.5 -64.5t24.5 -64.5t66.5 -22.5z" />
    <glyph glyph-name="uni0430" unicode="&#x430;" horiz-adv-x="528" 
d="M203 -11q-72 0 -116.5 38.5t-44.5 109.5q0 77 53 116.5t148 39.5h86q6 0 6 6v18q0 36 -22 51t-77 15q-67 0 -108 -31q-8 -6 -13 2l-45 79q-5 9 3 14q67 48 180 48q116 0 165.5 -41t49.5 -134v-310q0 -10 -10 -10h-111q-10 0 -10 10v32h-1q-41 -53 -133 -53zM245 94
q90 0 90 67v33q0 6 -6 6h-68q-86 0 -86 -55q0 -51 70 -51z" />
    <glyph glyph-name="uni0431" unicode="&#x431;" horiz-adv-x="540" 
d="M277 -12q-115 0 -174 72q-33 39 -44 98q-9 58 -9 158q0 111 13 172q13 64 62 108q33 29 87 40q12 4 57 10q42 6 43 6q44 6 45 30q0 9 10 9h107q9 0 9 -9q-1 -71 -31.5 -105t-99.5 -41l-42 -4l-46 -4q-46 -7 -72 -30q-30 -27 -30 -85h3q33 65 133 65q108 0 155.5 -59
t47.5 -179q0 -252 -224 -252zM276 107q44 0 63.5 28.5t19.5 104.5q0 72 -19.5 99t-63.5 27t-64 -27.5t-20 -98.5q0 -76 19.5 -104.5t64.5 -28.5z" />
    <glyph glyph-name="uni0432" unicode="&#x432;" horiz-adv-x="528" 
d="M322 0h-250q-9 0 -9 9v466q0 9 9 9h252q75 0 115.5 -34t40.5 -94q0 -74 -64 -104v-4q32 -10 52 -40t20 -70q0 -67 -43.5 -102.5t-122.5 -35.5zM208 99h87q25 0 39.5 13.5t14.5 36.5q0 48 -54 48h-87q-6 0 -6 -6v-86q0 -6 6 -6zM208 294h82q51 0 51 46q0 45 -51 45h-82
q-6 0 -6 -6v-80q0 -5 6 -5z" />
    <glyph glyph-name="uni0433" unicode="&#x433;" horiz-adv-x="415" 
d="M194 0h-122q-9 0 -9 9v466q0 9 9 9h325q10 0 10 -9v-100q0 -9 -10 -9h-188q-6 0 -6 -6v-351q0 -9 -9 -9z" />
    <glyph glyph-name="uni0434" unicode="&#x434;" horiz-adv-x="572" 
d="M125 -104h-111q-8 0 -8 9v204q0 9 9 9h28q13 0 17 13q18 49 24 74q21 71 21 217v53q0 9 9 9h377q9 0 9 -9v-351q0 -6 6 -6h44q9 0 9 -9v-204q0 -9 -8 -9h-110q-9 0 -9 9v89q0 6 -6 6h-287q-6 0 -6 -6v-89q0 -9 -8 -9zM203 118h151q6 0 6 6v238q0 6 -6 6h-112q-6 0 -6 -6
v-22q0 -127 -38 -215q-3 -7 5 -7z" />
    <glyph glyph-name="uni0435" unicode="&#x435;" horiz-adv-x="527" 
d="M270 -11q-82 0 -137.5 36t-76.5 102q-17 53 -17 115q0 69 16 116q21 65 76 101t132 36q78 0 133 -36t76 -100q16 -49 16 -149q0 -10 -11 -10h-293q-6 0 -6 -6q2 -15 6 -27q19 -64 100 -64q65 0 111 43q9 8 14 0l66 -62q7 -8 1 -14q-76 -81 -206 -81zM184 293h160q6 0 6 6
q0 18 -5 36q-18 53 -81 53t-81 -53q-5 -18 -5 -36q0 -6 6 -6z" />
    <glyph glyph-name="uni0436" unicode="&#x436;" horiz-adv-x="775" 
d="M86 -4h-51q-10 0 -10 9v97q0 9 10 9h4q17 0 26.5 9t18.5 34l19 49q17 42 44 49v4q-21 10 -34 46l-15 40q-14 35 -45 35h-8q-10 0 -10 10v92q0 9 10 9h44q51 0 77 -16.5t41 -58.5l24 -64q16 -46 61 -46h20q6 0 6 6v166q0 9 9 9h122q9 0 9 -9v-166q0 -6 6 -6h19q46 0 62 46
l24 64q15 42 40.5 58.5t76.5 16.5h45q9 0 9 -9v-92q0 -10 -9 -10h-8q-31 0 -45 -35l-15 -40q-13 -35 -34 -46v-4q27 -6 43 -49l19 -49q9 -25 18 -34t27 -9h5q9 0 9 -9v-97q0 -9 -9 -9h-51q-50 0 -76 18t-42 63l-26 70q-15 42 -60 42h-22q-6 0 -6 -6v-174q0 -9 -9 -9h-122
q-9 0 -9 9v174q0 6 -6 6h-22q-46 0 -61 -42l-25 -70q-15 -43 -42 -62t-76 -19z" />
    <glyph glyph-name="uni0437" unicode="&#x437;" horiz-adv-x="479" 
d="M239 -12q-131 0 -213 63q-6 5 -1 13l57 78q5 5 14 0q58 -42 122 -42q83 0 83 50q0 47 -68 47h-63q-9 0 -9 9v80q0 10 9 10h61q63 0 63 48q0 43 -81 43q-46 0 -107 -35q-8 -6 -13 0l-47 74q-6 8 3 14q76 56 189 56q96 0 147.5 -34.5t51.5 -100.5q0 -34 -18.5 -62.5
t-49.5 -41.5v-3q33 -11 54 -42.5t21 -69.5q0 -69 -57 -111.5t-148 -42.5z" />
    <glyph glyph-name="uni0438" unicode="&#x438;" horiz-adv-x="570" 
d="M194 0h-122q-9 0 -9 9v466q0 9 9 9h119q7 0 9 -9v-263h3l158 265q4 7 13 7h124q9 0 9 -9v-466q0 -9 -9 -9h-119q-7 0 -9 9v271h-3l-159 -272q-5 -8 -14 -8z" />
    <glyph glyph-name="uni0439" unicode="&#x439;" horiz-adv-x="570" 
d="M194 0h-122q-9 0 -9 9v466q0 9 9 9h119q7 0 9 -9v-263h3l158 265q4 7 13 7h124q9 0 9 -9v-466q0 -9 -9 -9h-119q-7 0 -9 9v271h-3l-159 -272q-5 -8 -14 -8zM138 660q-3 12 5 14l63 10q9 2 12 -6q16 -51 66 -51t66 51q3 8 12 6l63 -10q8 -2 5 -14q-24 -120 -146 -120
t-146 120z" />
    <glyph glyph-name="uni043A" unicode="&#x43a;" horiz-adv-x="530" 
d="M194 0h-122q-9 0 -9 9v466q0 9 9 9h122q9 0 9 -9v-164q0 -6 6 -6h27q42 0 60 44l26 64q16 40 42.5 57.5t71.5 17.5h51q9 0 9 -9v-92q0 -10 -9 -10h-8q-30 0 -45 -34l-18 -42q-14 -35 -33 -45v-4q30 -8 46 -53l16 -43q7 -16 8.5 -20t7 -12.5t12 -10.5t15.5 -2h8q9 0 9 -9
v-97q0 -9 -9 -9h-47q-51 0 -80 19t-44 62l-25 70q-10 26 -26 33t-44 7h-21q-6 0 -6 -6v-172q0 -9 -9 -9z" />
    <glyph glyph-name="uni043B" unicode="&#x43b;" horiz-adv-x="570" 
d="M65 -4h-43q-9 0 -9 9v97q0 9 9 9h8q82 0 82 132v232q0 9 9 9h377q9 0 9 -9v-466q0 -9 -9 -9h-121q-10 0 -10 9v351q0 6 -6 6h-111q-6 0 -6 -6v-117q0 -137 -43 -192t-136 -55z" />
    <glyph glyph-name="uni043C" unicode="&#x43c;" horiz-adv-x="660" 
d="M187 0h-115q-9 0 -9 9v466q0 9 9 9h123q7 0 11 -7l123 -254h3l122 254q4 7 12 7h122q9 0 9 -9v-466q0 -9 -9 -9h-114q-10 0 -10 9v241h-3l-87 -178q-4 -9 -13 -9h-62q-8 0 -11 9l-89 178h-3v-241q0 -9 -9 -9z" />
    <glyph glyph-name="uni043D" unicode="&#x43d;" 
d="M194 0h-122q-9 0 -9 9v466q0 9 9 9h122q9 0 9 -9v-164q0 -6 6 -6h138q6 0 6 6v164q0 9 10 9h121q9 0 9 -9v-466q0 -9 -9 -9h-121q-10 0 -10 9v172q0 6 -6 6h-138q-6 0 -6 -6v-172q0 -9 -9 -9z" />
    <glyph glyph-name="uni043E" unicode="&#x43e;" horiz-adv-x="530" 
d="M55 125q-16 49 -16 117t16 117q21 65 76.5 100.5t133.5 35.5t133.5 -35.5t76.5 -100.5q16 -49 16 -117t-16 -117q-21 -65 -76.5 -100.5t-133.5 -35.5t-133.5 35.5t-76.5 100.5zM340 159q9 28 9 83q0 54 -9 83q-16 52 -75 52t-75 -52q-9 -29 -9 -83t9 -83q16 -52 75 -52
t75 52z" />
    <glyph glyph-name="uni043F" unicode="&#x43f;" horiz-adv-x="554" 
d="M194 0h-122q-9 0 -9 9v466q0 9 9 9h410q9 0 9 -9v-466q0 -9 -9 -9h-121q-10 0 -10 9v351q0 6 -6 6h-136q-6 0 -6 -6v-351q0 -9 -9 -9z" />
    <glyph glyph-name="uni0440" unicode="&#x440;" horiz-adv-x="551" 
d="M193 -180h-120q-10 0 -10 10v644q0 10 10 10h120q10 0 10 -10v-35h1q38 56 127 56q126 0 164 -116q17 -56 17 -137t-17 -137q-38 -116 -164 -116q-89 0 -127 56h-1v-215q0 -10 -10 -10zM286 107q59 0 75 52q9 28 9 83q0 54 -9 83q-16 52 -75 52q-58 0 -74 -52
q-9 -29 -9 -83t9 -83q16 -52 74 -52z" />
    <glyph glyph-name="uni0441" unicode="&#x441;" horiz-adv-x="481" 
d="M263 -11q-79 0 -133.5 35.5t-75.5 101.5q-15 43 -15 116q0 72 15 116q21 66 75.5 101.5t133.5 35.5q59 0 107.5 -24.5t75.5 -66.5q5 -8 -2 -14l-87 -57q-9 -6 -15 2q-30 42 -77 42q-59 0 -75 -52q-9 -25 -9 -83t9 -83q16 -52 75 -52q47 0 77 42q6 8 15 2l87 -57
q7 -6 2 -14q-27 -42 -75.5 -66.5t-107.5 -24.5z" />
    <glyph glyph-name="uni0442" unicode="&#x442;" horiz-adv-x="439" 
d="M279 0h-120q-10 0 -10 9v351q0 6 -6 6h-123q-9 0 -9 9v100q0 9 9 9h399q9 0 9 -9v-100q0 -9 -9 -9h-124q-6 0 -6 -6v-351q0 -9 -10 -9z" />
    <glyph glyph-name="uni0443" unicode="&#x443;" horiz-adv-x="507" 
d="M130 -180h-34q-10 0 -10 10v98q0 10 10 10h21q26 0 41.5 11.5t24.5 38.5l13 36l-180 450q-3 10 8 10h128q9 0 12 -10l97 -280h2l90 280q3 10 12 10h124q11 0 8 -10l-196 -515q-30 -78 -68 -109q-37 -30 -103 -30z" />
    <glyph glyph-name="uni0444" unicode="&#x444;" horiz-adv-x="724" 
d="M423 -180h-122q-9 0 -9 9v160q0 6 -6 6q-251 17 -251 251q0 117 62.5 176t188.5 67q6 0 6 6v176q0 9 9 9h122q9 0 9 -9v-176q0 -6 6 -6q126 -8 188 -67t62 -176q0 -235 -250 -251q-6 0 -6 -6v-160q0 -9 -9 -9zM287 110q6 0 6 6v253q0 6 -6 6q-58 -3 -84.5 -32.5
t-26.5 -97.5q0 -69 27.5 -100.5t83.5 -34.5zM436 110q56 3 83.5 34.5t27.5 100.5t-26 98t-85 32q-6 0 -6 -6v-253q0 -6 6 -6z" />
    <glyph glyph-name="uni0445" unicode="&#x445;" horiz-adv-x="515" 
d="M160 0h-129q-13 0 -7 10l163 241l-151 223q-6 10 7 10h130q11 0 17 -9l73 -114h1l74 114q8 9 16 9h129q14 0 8 -10l-151 -223l163 -241q6 -10 -8 -10h-130q-9 0 -15 9l-87 132h-1l-86 -132q-8 -9 -16 -9z" />
    <glyph glyph-name="uni0446" unicode="&#x446;" horiz-adv-x="563" 
d="M542 -104h-110q-9 0 -9 9v89q0 6 -6 6h-345q-9 0 -9 9v466q0 9 9 9h122q9 0 9 -9v-351q0 -6 6 -6h136q6 0 6 6v351q0 9 10 9h121q9 0 9 -9v-351q0 -6 6 -6h44q9 0 9 -9v-204q0 -9 -8 -9z" />
    <glyph glyph-name="uni0447" unicode="&#x447;" horiz-adv-x="523" 
d="M451 0h-121q-10 0 -10 9v155q0 9 -9 6q-63 -15 -114 -15q-156 0 -156 149v171q0 9 10 9h121q9 0 9 -9v-146q0 -56 59 -56q37 0 73 11q7 1 7 8v183q0 9 10 9h121q9 0 9 -9v-466q0 -9 -9 -9z" />
    <glyph glyph-name="uni0448" unicode="&#x448;" horiz-adv-x="798" 
d="M726 0h-654q-9 0 -9 9v466q0 9 9 9h122q9 0 9 -9v-351q0 -6 6 -6h114q6 0 6 6v351q0 9 10 9h121q9 0 9 -9v-351q0 -6 6 -6h114q6 0 6 6v351q0 9 10 9h121q9 0 9 -9v-466q0 -9 -9 -9z" />
    <glyph glyph-name="uni0449" unicode="&#x449;" horiz-adv-x="808" 
d="M786 -104h-110q-8 0 -8 9v89q0 6 -6 6h-590q-9 0 -9 9v466q0 9 9 9h122q9 0 9 -9v-351q0 -6 6 -6h114q6 0 6 6v351q0 9 10 9h121q9 0 9 -9v-351q0 -6 6 -6h114q6 0 6 6v351q0 9 10 9h121q9 0 9 -9v-351q0 -6 6 -6h44q10 0 10 -9v-204q0 -9 -9 -9z" />
    <glyph glyph-name="uni044A" unicode="&#x44a;" horiz-adv-x="568" 
d="M375 0h-247q-9 0 -9 9v351q0 6 -6 6h-93q-9 0 -9 9v100q0 9 9 9h230q9 0 9 -9v-150q0 -6 6 -6h107q74 0 119 -45q46 -43 46 -114t-45 -115.5t-117 -44.5zM262 107h84q27 0 42 14.5t15 39.5q0 24 -15 38.5t-42 14.5h-84q-6 0 -6 -6v-95q0 -6 6 -6z" />
    <glyph glyph-name="uni044B" unicode="&#x44b;" horiz-adv-x="732" 
d="M319 0h-247q-9 0 -9 9v466q0 9 9 9h122q9 0 9 -9v-150q0 -6 6 -6h107q74 0 119 -45q46 -43 46 -114t-45 -115.5t-117 -44.5zM206 107h84q26 0 41 14.5t15 39.5q0 24 -15 38.5t-41 14.5h-84q-6 0 -6 -6v-95q0 -6 6 -6zM659 0h-120q-10 0 -10 10v464q0 10 10 10h120
q10 0 10 -10v-464q0 -10 -10 -10z" />
    <glyph glyph-name="uni044C" unicode="&#x44c;" horiz-adv-x="512" 
d="M316 0h-244q-9 0 -9 9v466q0 9 9 9h122q9 0 9 -9v-150q0 -6 6 -6h107q74 0 119 -45q46 -43 46 -114t-45.5 -115.5t-119.5 -44.5zM206 107h84q26 0 41 14.5t15 39.5q0 24 -15 38.5t-41 14.5h-84q-6 0 -6 -6v-95q0 -6 6 -6z" />
    <glyph glyph-name="uni044D" unicode="&#x44d;" horiz-adv-x="489" 
d="M231 -11q-135 0 -195 91q-6 8 4 14l73 60q9 7 15 -4q39 -50 96 -50q49 0 71 34q15 24 17 53q0 6 -6 6h-126q-9 0 -9 9v86q0 10 9 10h127q7 0 5 6q-1 17 -10 38q-18 43 -78 43t-90 -46q-8 -9 -16 -3l-72 51q-8 6 -3 14q63 94 188 94q104 0 168 -67q57 -62 57 -186
q0 -110 -42 -168q-60 -85 -183 -85z" />
    <glyph glyph-name="uni044E" unicode="&#x44e;" horiz-adv-x="752" 
d="M194 0h-122q-9 0 -9 9v466q0 9 9 9h122q9 0 9 -9v-165q0 -6 6 -6h66q5 0 6 6q11 58 32 93q57 92 182 92q76 0 129.5 -35.5t73.5 -100.5q15 -48 15 -118q0 -69 -15 -117q-20 -65 -73 -100t-130 -35q-104 0 -165 70q-41 47 -50 123q0 6 -6 6h-65q-6 0 -6 -6v-173
q0 -9 -9 -9zM562 159q9 30 9 83q0 52 -9 82q-15 53 -67 53t-67 -53q-9 -30 -9 -82q0 -53 9 -83q16 -52 67 -52t67 52z" />
    <glyph glyph-name="uni044F" unicode="&#x44f;" horiz-adv-x="540" 
d="M95 -4h-46q-9 0 -9 9v97q0 9 9 9h12q28 0 43 32l13 30q11 25 27 29v3q-43 9 -71 44t-28 82q0 72 45.5 112.5t127.5 40.5h250q9 0 9 -9v-466q0 -9 -9 -9h-121q-10 0 -10 9v152q0 6 -6 6h-32q-34 0 -51 -38l-28 -62q-18 -41 -45.5 -56t-79.5 -15zM240 270h95q5 0 5 6v97
q0 6 -5 6h-95q-26 0 -41.5 -14t-15.5 -39q0 -24 15.5 -40t41.5 -16z" />
    <glyph glyph-name="uni0450" unicode="&#x450;" horiz-adv-x="527" 
d="M270 -11q-82 0 -137.5 36t-76.5 102q-17 53 -17 115q0 69 16 116q21 65 76 101t132 36q78 0 133 -36t76 -100q16 -49 16 -149q0 -10 -11 -10h-293q-6 0 -6 -6q2 -15 6 -27q19 -64 100 -64q65 0 111 43q9 8 14 0l66 -62q7 -8 1 -14q-76 -81 -206 -81zM184 293h160q6 0 6 6
q0 18 -5 36q-18 53 -81 53t-81 -53q-5 -18 -5 -36q0 -6 6 -6zM328 551h-92q-12 0 -19 10l-99 130q-3 4 -1.5 7t6.5 3h116q12 0 18 -10l76 -130q4 -10 -5 -10z" />
    <glyph glyph-name="uni0451" unicode="&#x451;" horiz-adv-x="527" 
d="M270 -11q-82 0 -137.5 36t-76.5 102q-17 53 -17 115q0 69 16 116q21 65 76 101t132 36q78 0 133 -36t76 -100q16 -49 16 -149q0 -10 -11 -10h-293q-6 0 -6 -6q2 -15 6 -27q19 -64 100 -64q65 0 111 43q9 8 14 0l66 -62q7 -8 1 -14q-76 -81 -206 -81zM184 293h160q6 0 6 6
q0 18 -5 36q-18 53 -81 53t-81 -53q-5 -18 -5 -36q0 -6 6 -6zM410 561h-93q-10 0 -10 10v99q0 10 10 10h93q10 0 10 -10v-99q0 -10 -10 -10zM209 561h-92q-10 0 -10 10v99q0 10 10 10h92q10 0 10 -10v-99q0 -10 -10 -10z" />
    <glyph glyph-name="uni0452" unicode="&#x452;" horiz-adv-x="553" 
d="M313 -180h-33q-10 0 -10 10v98q0 10 10 10h20q30 0 42 12t12 44v283q0 42 -19.5 65t-55.5 23t-56 -24t-20 -64v-267q0 -10 -10 -10h-120q-10 0 -10 10v505q0 6 -6 6h-64q-10 0 -10 10v85q0 10 10 10h64q6 0 6 6v38q0 10 10 10h120q10 0 10 -10v-38q0 -6 6 -6h103
q10 0 10 -10v-85q0 -10 -10 -10h-103q-6 0 -6 -6v-86h1q40 55 125 55q78 0 121.5 -49t43.5 -131v-309q0 -175 -181 -175z" />
    <glyph glyph-name="uni0453" unicode="&#x453;" horiz-adv-x="415" 
d="M194 0h-122q-9 0 -9 9v466q0 9 9 9h325q10 0 10 -9v-100q0 -9 -10 -9h-188q-6 0 -6 -6v-351q0 -9 -9 -9zM248 551h-91q-10 0 -6 10l77 130q6 10 18 10h115q5 0 6.5 -3t-1.5 -7l-99 -130q-7 -10 -19 -10z" />
    <glyph glyph-name="uni0454" unicode="&#x454;" horiz-adv-x="489" 
d="M264 -11q-123 0 -183 85q-42 58 -42 168q0 124 57 186q64 67 168 67q125 0 188 -94q5 -8 -3 -14l-72 -51q-8 -6 -16 3q-30 46 -90 46t-78 -43q-9 -21 -10 -38q-1 -6 5 -6h127q9 0 9 -10v-86q0 -9 -9 -9h-126q-6 0 -6 -6q2 -29 17 -53q22 -34 71 -34q57 0 96 50q6 11 15 4
l73 -60q10 -6 4 -14q-60 -91 -195 -91z" />
    <glyph glyph-name="uni0455" unicode="&#x455;" horiz-adv-x="505" 
d="M260 -11q-134 0 -220 75q-7 7 0 14l65 73q6 6 14 0q70 -53 148 -53q75 0 75 46q0 19 -15 28.5t-54 13.5l-54 6q-158 17 -158 148q0 72 53 113.5t146 41.5q116 0 196 -60q7 -7 1 -15l-56 -69q-6 -7 -14 -2q-62 39 -131 39q-61 0 -61 -40q0 -18 14.5 -27t52.5 -13l53 -6
q161 -17 161 -147q-1 -77 -58 -121.5t-158 -44.5z" />
    <glyph glyph-name="uni0456" unicode="&#x456;" horiz-adv-x="266" 
d="M193 0h-120q-10 0 -10 10v464q0 10 10 10h120q10 0 10 -10v-464q0 -10 -10 -10zM193 561h-120q-10 0 -10 10v99q0 10 10 10h120q10 0 10 -10v-99q0 -10 -10 -10z" />
    <glyph glyph-name="uni0457" unicode="&#x457;" horiz-adv-x="266" 
d="M280 561h-93q-10 0 -10 10v99q0 10 10 10h93q10 0 10 -10v-99q0 -10 -10 -10zM79 561h-92q-10 0 -10 10v99q0 10 10 10h92q10 0 10 -10v-99q0 -10 -10 -10zM193 0h-120q-10 0 -10 10v464q0 10 10 10h120q10 0 10 -10v-464q0 -10 -10 -10z" />
    <glyph glyph-name="uni0458" unicode="&#x458;" horiz-adv-x="266" 
d="M22 -180h-33q-10 0 -10 10v98q0 10 10 10h20q30 0 42 12t12 44v480q0 10 10 10h120q10 0 10 -10v-479q0 -175 -181 -175zM193 561h-120q-10 0 -10 10v99q0 10 10 10h120q10 0 10 -10v-99q0 -10 -10 -10z" />
    <glyph glyph-name="uni0459" unicode="&#x459;" horiz-adv-x="816" 
d="M69 -4h-47q-9 0 -9 9v100q0 9 9 9h8q82 0 82 129v232q0 9 9 9h377q9 0 9 -9v-151q0 -6 6 -6h107q74 0 119.5 -44t45.5 -114q0 -71 -45 -115.5t-117 -44.5h-246q-10 0 -10 9v351q0 6 -6 6h-111q-6 0 -6 -6v-117q0 -137 -43 -192q-42 -55 -132 -55zM510 107h84
q27 0 42 14.5t15 39.5q0 24 -15 38.5t-42 14.5h-84q-6 0 -6 -6v-95q0 -6 6 -6z" />
    <glyph glyph-name="uni045A" unicode="&#x45a;" horiz-adv-x="801" 
d="M194 0h-122q-9 0 -9 9v466q0 9 9 9h122q9 0 9 -9v-153q0 -6 6 -6h137q6 0 6 6v153q0 9 10 9h121q9 0 9 -9v-153q0 -6 6 -6h107q74 0 119.5 -43.5t45.5 -113.5q0 -71 -44.5 -115t-117.5 -44h-246q-10 0 -10 9v185q0 6 -6 6h-137q-6 0 -6 -6v-185q0 -9 -9 -9zM495 107h84
q27 0 42 14.5t15 38.5t-15 38t-42 14h-84q-6 0 -6 -6v-93q0 -6 6 -6z" />
    <glyph glyph-name="uni045B" unicode="&#x45b;" horiz-adv-x="553" 
d="M193 0h-120q-10 0 -10 10v505q0 6 -6 6h-64q-10 0 -10 10v85q0 10 10 10h64q6 0 6 6v38q0 10 10 10h120q10 0 10 -10v-38q0 -6 6 -6h103q10 0 10 -10v-85q0 -10 -10 -10h-103q-6 0 -6 -6v-86h1q40 55 125 55q78 0 121.5 -49t43.5 -131v-294q0 -10 -10 -10h-120
q-10 0 -10 10v267q0 42 -19.5 65t-55.5 23t-56 -24t-20 -64v-267q0 -10 -10 -10z" />
    <glyph glyph-name="uni045C" unicode="&#x45c;" horiz-adv-x="530" 
d="M194 0h-122q-9 0 -9 9v466q0 9 9 9h122q9 0 9 -9v-164q0 -6 6 -6h27q42 0 60 44l26 64q16 40 42.5 57.5t71.5 17.5h51q9 0 9 -9v-92q0 -10 -9 -10h-8q-30 0 -45 -34l-18 -42q-14 -35 -33 -45v-4q30 -8 46 -53l16 -43q7 -16 8.5 -20t7 -12.5t12 -10.5t15.5 -2h8q9 0 9 -9
v-97q0 -9 -9 -9h-47q-51 0 -80 19t-44 62l-25 70q-10 26 -26 33t-44 7h-21q-6 0 -6 -6v-172q0 -9 -9 -9zM294 551h-91q-10 0 -6 10l77 130q6 10 18 10h115q5 0 6.5 -3t-1.5 -7l-99 -130q-7 -10 -19 -10z" />
    <glyph glyph-name="uni045D" unicode="&#x45d;" horiz-adv-x="570" 
d="M194 0h-122q-9 0 -9 9v466q0 9 9 9h119q7 0 9 -9v-263h3l158 265q4 7 13 7h124q9 0 9 -9v-466q0 -9 -9 -9h-119q-7 0 -9 9v271h-3l-159 -272q-5 -8 -14 -8zM358 551h-92q-12 0 -19 10l-99 130q-3 4 -1.5 7t6.5 3h116q12 0 18 -10l76 -130q4 -10 -5 -10z" />
    <glyph glyph-name="uni045E" unicode="&#x45e;" horiz-adv-x="507" 
d="M130 -180h-34q-10 0 -10 10v98q0 10 10 10h21q26 0 41.5 11.5t24.5 38.5l13 36l-180 450q-3 10 8 10h128q9 0 12 -10l97 -280h2l90 280q3 10 12 10h124q11 0 8 -10l-196 -515q-30 -78 -68 -109q-37 -30 -103 -30zM115 660q-3 12 5 14l63 10q9 2 12 -6q17 -51 66 -51
t66 51q3 8 12 6l63 -10q8 -2 5 -14q-24 -120 -146 -120t-146 120z" />
    <glyph glyph-name="uni045F" unicode="&#x45f;" horiz-adv-x="554" 
d="M331 -104h-110q-8 0 -8 9v89q0 6 -6 6h-135q-9 0 -9 9v466q0 9 9 9h122q9 0 9 -9v-351q0 -6 6 -6h136q6 0 6 6v351q0 9 10 9h121q9 0 9 -9v-466q0 -9 -9 -9h-136q-6 0 -6 -6v-89q0 -9 -9 -9z" />
    <glyph glyph-name="uni0490" unicode="&#x490;" horiz-adv-x="500" 
d="M202 0h-127q-10 0 -10 10v660q0 10 10 10h279q7 0 7 6v109q0 10 9 10h110q9 0 9 -10v-237q0 -9 -10 -9h-261q-6 0 -6 -6v-533q0 -10 -10 -10z" />
    <glyph glyph-name="uni0491" unicode="&#x491;" horiz-adv-x="415" 
d="M193 0h-121q-9 0 -9 9v466q0 9 9 9h207q6 0 6 6v81q0 10 8 10h106q8 0 8 -10v-195q0 -10 -10 -10h-188q-6 0 -6 -6v-351q0 -9 -10 -9z" />
    <glyph glyph-name="Wgrave" unicode="&#x1e80;" horiz-adv-x="865" 
d="M667 0h-100q-10 0 -13 10l-118 423h-2l-119 -423q-3 -10 -13 -10h-100q-9 0 -12 10l-176 660q-1 10 8 10h129q11 0 12 -10l98 -427h2l116 427q3 10 13 10h87q9 0 12 -10l120 -427h2l94 427q1 10 12 10h128q9 0 8 -10l-175 -660q-1 -10 -13 -10zM479 754h-93q-10 0 -19 9
l-123 116q-4 4 -2 7t7 3h120q12 0 19 -10l95 -115q8 -10 -4 -10z" />
    <glyph glyph-name="wgrave" unicode="&#x1e81;" horiz-adv-x="763" 
d="M581 0h-100q-9 0 -12 10l-83 281h-2l-85 -281q-3 -10 -12 -10h-99q-9 0 -12 10l-155 464q-3 10 7 10h123q11 0 14 -10l80 -288h2l83 288q3 10 14 10h84q10 0 13 -10l85 -288h2l76 288q3 10 13 10h123q11 0 8 -10l-155 -464q-3 -10 -12 -10zM430 551h-92q-12 0 -19 10
l-99 130q-3 4 -1.5 7t6.5 3h116q12 0 18 -10l76 -130q4 -10 -5 -10z" />
    <glyph glyph-name="Wacute" unicode="&#x1e82;" horiz-adv-x="865" 
d="M667 0h-100q-10 0 -13 10l-118 423h-2l-119 -423q-3 -10 -13 -10h-100q-9 0 -12 10l-176 660q-1 10 8 10h129q11 0 12 -10l98 -427h2l116 427q3 10 13 10h87q9 0 12 -10l120 -427h2l94 427q1 10 12 10h128q9 0 8 -10l-175 -660q-1 -10 -13 -10zM486 754h-93q-12 0 -4 10
l95 115q7 10 19 10h120q5 0 7 -3t-2 -7l-123 -116q-9 -9 -19 -9z" />
    <glyph glyph-name="wacute" unicode="&#x1e83;" horiz-adv-x="763" 
d="M581 0h-100q-9 0 -12 10l-83 281h-2l-85 -281q-3 -10 -12 -10h-99q-9 0 -12 10l-155 464q-3 10 7 10h123q11 0 14 -10l80 -288h2l83 288q3 10 14 10h84q10 0 13 -10l85 -288h2l76 288q3 10 13 10h123q11 0 8 -10l-155 -464q-3 -10 -12 -10zM432 551h-91q-10 0 -6 10
l77 130q6 10 18 10h115q5 0 6.5 -3t-1.5 -7l-99 -130q-7 -10 -19 -10z" />
    <glyph glyph-name="Wdieresis" unicode="&#x1e84;" horiz-adv-x="865" 
d="M667 0h-100q-10 0 -13 10l-118 423h-2l-119 -423q-3 -10 -13 -10h-100q-9 0 -12 10l-176 660q-1 10 8 10h129q11 0 12 -10l98 -427h2l116 427q3 10 13 10h87q9 0 12 -10l120 -427h2l94 427q1 10 12 10h128q9 0 8 -10l-175 -660q-1 -10 -13 -10zM581 760h-90q-10 0 -10 10
v98q0 10 10 10h90q10 0 10 -10v-98q0 -10 -10 -10zM378 760h-90q-10 0 -10 10v98q0 10 10 10h90q10 0 10 -10v-98q0 -10 -10 -10z" />
    <glyph glyph-name="wdieresis" unicode="&#x1e85;" horiz-adv-x="763" 
d="M581 0h-100q-9 0 -12 10l-83 281h-2l-85 -281q-3 -10 -12 -10h-99q-9 0 -12 10l-155 464q-3 10 7 10h123q11 0 14 -10l80 -288h2l83 288q3 10 14 10h84q10 0 13 -10l85 -288h2l76 288q3 10 13 10h123q11 0 8 -10l-155 -464q-3 -10 -12 -10zM530 561h-93q-10 0 -10 10v99
q0 10 10 10h93q10 0 10 -10v-99q0 -10 -10 -10zM329 561h-92q-10 0 -10 10v99q0 10 10 10h92q10 0 10 -10v-99q0 -10 -10 -10z" />
    <glyph glyph-name="Ygrave" unicode="&#x1ef2;" horiz-adv-x="568" 
d="M351 0h-127q-10 0 -10 10v261l-201 399q-4 10 7 10h130q11 0 15 -10l123 -248h3l123 248q4 10 15 10h126q5 0 7 -3t0 -7l-201 -399v-261q0 -10 -10 -10zM344 754h-93q-10 0 -19 9l-123 116q-3 4 -1.5 7t6.5 3h120q12 0 19 -10l95 -115q3 -4 1.5 -7t-5.5 -3z" />
    <glyph glyph-name="ygrave" unicode="&#x1ef3;" horiz-adv-x="507" 
d="M130 -180h-34q-10 0 -10 10v98q0 10 10 10h21q26 0 41.5 11.5t24.5 38.5l13 36l-180 450q-3 10 8 10h128q9 0 12 -10l97 -280h2l90 280q3 10 12 10h124q11 0 8 -10l-196 -515q-30 -78 -68 -109q-37 -30 -103 -30zM317 551h-92q-12 0 -19 10l-99 130q-3 4 -1.5 7t6.5 3
h116q12 0 18 -10l76 -130q4 -10 -5 -10z" />
    <glyph glyph-name="uni2010" unicode="&#x2010;" horiz-adv-x="392" 
d="M340 204h-288q-10 0 -10 10v102q0 10 10 10h288q10 0 10 -10v-102q0 -10 -10 -10z" />
    <glyph glyph-name="endash" unicode="&#x2013;" horiz-adv-x="535" 
d="M505 207h-475q-10 0 -10 10v97q0 10 10 10h475q10 0 10 -10v-97q0 -10 -10 -10z" />
    <glyph glyph-name="emdash" unicode="&#x2014;" horiz-adv-x="894" 
d="M864 207h-834q-10 0 -10 10v97q0 10 10 10h834q10 0 10 -10v-97q0 -10 -10 -10z" />
    <glyph glyph-name="afii00208" unicode="&#x2015;" horiz-adv-x="894" 
d="M864 207h-834q-10 0 -10 10v97q0 10 10 10h834q10 0 10 -10v-97q0 -10 -10 -10z" />
    <glyph glyph-name="quoteleft" unicode="&#x2018;" horiz-adv-x="231" 
d="M165 472h-99q-10 0 -10 10v105q0 13 9 21l83 67q7 7 16 7q11 0 11 -11v-189q0 -10 -10 -10z" />
    <glyph glyph-name="quoteright" unicode="&#x2019;" horiz-adv-x="231" 
d="M67 470q-11 0 -11 11v189q0 10 10 10h99q10 0 10 -10v-105q0 -13 -9 -21l-83 -67q-7 -7 -16 -7z" />
    <glyph glyph-name="quotesinglbase" unicode="&#x201a;" horiz-adv-x="231" 
d="M67 -90q-11 0 -11 11v189q0 10 10 10h99q10 0 10 -10v-104q0 -14 -9 -22l-83 -66q-8 -8 -16 -8z" />
    <glyph glyph-name="quotedblleft" unicode="&#x201c;" horiz-adv-x="417" 
d="M351 472h-99q-10 0 -10 10v105q0 13 9 21l83 67q7 7 16 7q11 0 11 -11v-189q0 -10 -10 -10zM165 472h-99q-10 0 -10 10v105q0 13 9 21l83 67q7 7 16 7q11 0 11 -11v-189q0 -10 -10 -10z" />
    <glyph glyph-name="quotedblright" unicode="&#x201d;" horiz-adv-x="417" 
d="M253 470q-11 0 -11 11v189q0 10 10 10h99q10 0 10 -10v-105q0 -13 -9 -21l-83 -67q-7 -7 -16 -7zM67 470q-11 0 -11 11v189q0 10 10 10h99q10 0 10 -10v-105q0 -13 -9 -21l-83 -67q-7 -7 -16 -7z" />
    <glyph glyph-name="quotedblbase" unicode="&#x201e;" horiz-adv-x="417" 
d="M253 -90q-11 0 -11 11v189q0 10 10 10h99q10 0 10 -10v-104q0 -14 -9 -22l-83 -66q-8 -8 -16 -8zM67 -90q-11 0 -11 11v189q0 10 10 10h99q10 0 10 -10v-104q0 -14 -9 -22l-83 -66q-8 -8 -16 -8z" />
    <glyph glyph-name="dagger" unicode="&#x2020;" horiz-adv-x="548" 
d="M332 -180h-116q-10 0 -10 10v503q0 6 -6 6h-144q-10 0 -10 10v102q0 10 10 10h144q6 0 6 6v203q0 10 10 10h116q10 0 10 -10v-203q0 -6 6 -6h144q10 0 10 -10v-102q0 -10 -10 -10h-144q-6 0 -6 -6v-503q0 -10 -10 -10z" />
    <glyph glyph-name="daggerdbl" unicode="&#x2021;" horiz-adv-x="548" 
d="M332 -180h-116q-10 0 -10 10v170q0 6 -6 6h-144q-10 0 -10 10v102q0 10 10 10h144q6 0 6 6v232q0 6 -6 6h-144q-10 0 -10 10v102q0 10 10 10h144q6 0 6 6v170q0 10 10 10h116q10 0 10 -10v-170q0 -6 6 -6h144q10 0 10 -10v-102q0 -10 -10 -10h-144q-6 0 -6 -6v-232
q0 -6 6 -6h144q10 0 10 -10v-102q0 -10 -10 -10h-144q-6 0 -6 -6v-170q0 -10 -10 -10z" />
    <glyph glyph-name="bullet" unicode="&#x2022;" horiz-adv-x="475" 
d="M237 158q-65 0 -108 42q-42 44 -42 108q0 66 42 108q43 43 108 43q66 0 108.5 -42.5t42.5 -108.5q0 -65 -43 -108q-42 -42 -108 -42z" />
    <glyph glyph-name="ellipsis" unicode="&#x2026;" horiz-adv-x="777" 
d="M707 0h-119q-10 0 -10 10v120q0 10 10 10h119q10 0 10 -10v-120q0 -10 -10 -10zM448 0h-119q-10 0 -10 10v120q0 10 10 10h119q10 0 10 -10v-120q0 -10 -10 -10zM189 0h-119q-10 0 -10 10v120q0 10 10 10h119q10 0 10 -10v-120q0 -10 -10 -10z" />
    <glyph glyph-name="perthousand" unicode="&#x2030;" horiz-adv-x="1136" 
d="M247 -11h-84q-11 0 -5 10l395 682q6 10 16 10h84q11 0 5 -10l-395 -682q-6 -10 -16 -10zM69 412q-9 30 -9 97t9 97q13 38 47 60t82 22t82.5 -22t46.5 -60q9 -26 9 -97t-9 -97q-12 -38 -46.5 -60t-82.5 -22t-82 22t-47 60zM234 432q3 12 3 77t-3 77q-9 23 -36 23t-35 -23
q-4 -9 -4 -77t4 -77q8 -23 35 -23t36 23zM809 74q-9 26 -9 96q0 72 9 97q12 38 46.5 60t82.5 22t82 -22t46 -60q10 -27 10 -97q0 -69 -10 -96q-12 -38 -46 -60.5t-82 -22.5t-82.5 22t-46.5 61zM487 74q-9 30 -9 96q0 67 9 97q13 38 47 60t82 22t82 -22t47 -60q9 -26 9 -97
q0 -70 -9 -96q-13 -39 -47 -61t-82 -22t-82 22t-47 61zM973 94q4 8 4 76t-4 77q-8 23 -35 23q-28 0 -36 -23q-3 -12 -3 -77q0 -66 3 -76q8 -24 36 -24t35 24zM651 94q4 8 4 76t-4 77q-8 23 -35 23t-35 -23q-4 -9 -4 -77t4 -76q7 -24 35 -24t35 24z" />
    <glyph glyph-name="guilsinglleft" unicode="&#x2039;" horiz-adv-x="319" 
d="M255 38l-220 219q-7 7 0 14l220 219q3 3 6.5 1.5t3.5 -5.5v-117q0 -10 -10 -20l-82 -81q-4 -4 0 -8l82 -81q10 -10 10 -20v-117q0 -4 -3.5 -5.5t-6.5 1.5z" />
    <glyph glyph-name="guilsinglright" unicode="&#x203a;" horiz-adv-x="319" 
d="M291 257l-220 -219q-3 -3 -6.5 -1.5t-3.5 5.5v117q0 10 10 20l82 81q4 4 0 8l-82 81q-10 10 -10 20v117q0 4 3.5 5.5t6.5 -1.5l220 -219q7 -7 0 -14z" />
    <glyph glyph-name="interrobang" unicode="&#x203d;" horiz-adv-x="473" 
d="M288 199h-116q-9 0 -10 7v3l-24 257q0 10 10 10h108q10 0 10 -10l-2 -81h1l22 36q23 38 23 78q0 77 -77 77q-55 0 -73 -42q-4 -10 -13 -9l-104 20q-10 1 -8 12q29 134 202 134q92 0 146.5 -49t54.5 -128q0 -68 -54 -142l-66 -89q-20 -28 -20 -60v-14q0 -10 -10 -10z
M160 10v114q0 10 10 10h120q10 0 10 -10v-114q0 -10 -10 -10h-120q-10 0 -10 10z" />
    <glyph glyph-name="fraction" unicode="&#x2044;" horiz-adv-x="166" 
d="M-72 -11h-84q-11 0 -5 10l395 682q6 10 16 10h84q11 0 5 -10l-395 -682q-6 -10 -16 -10z" />
    <glyph glyph-name="zero.superior" unicode="&#x2070;" horiz-adv-x="358" 
d="M179 422q-110 0 -140 90q-9 32 -9 121t9 121q30 90 140 90q111 0 139 -90q10 -29 10 -121t-10 -121q-28 -90 -139 -90zM216 534q4 11 4 99t-4 99q-7 25 -37 25t-37 -25q-4 -11 -4 -99t4 -99q7 -25 37 -25t37 25z" />
    <glyph glyph-name="four.superior" unicode="&#x2074;" horiz-adv-x="358" 
d="M290 430h-79q-10 0 -10 10v40q0 6 -6 6h-164q-10 0 -10 10v69q0 5 5 17l115 244q4 10 14 10h91q10 0 6 -10l-117 -251v-1h60q6 0 6 6v69q0 10 10 10h79q10 0 10 -10v-69q0 -6 6 -6h15q10 0 10 -10v-68q0 -10 -10 -10h-15q-6 0 -6 -6v-40q0 -10 -10 -10z" />
    <glyph glyph-name="five.superior" unicode="&#x2075;" horiz-adv-x="358" 
d="M178 422q-54 0 -91 23.5t-46 63.5q-1 11 6 12l78 20q9 3 12 -5q14 -26 41 -26q30 0 38 24q7 27 0 53q-8 24 -36 24q-19 0 -30 -11q-6 -6 -13 -6h-81q-10 0 -10 10v222q0 10 10 10h246q10 0 10 -10v-68q0 -10 -10 -10h-154q-6 0 -6 -6v-59h1q24 15 59 15q90 0 113 -71
q8 -26 8 -64q0 -37 -7 -57q-28 -84 -138 -84z" />
    <glyph glyph-name="six.superior" unicode="&#x2076;" horiz-adv-x="358" 
d="M179 422q-67 0 -109 36.5t-42 96.5q0 45 36 110l90 161q6 10 16 10h96q11 0 5 -10l-80 -142l1 -1l6 1h7q55 0 89.5 -35t34.5 -94q0 -60 -42 -96.5t-108 -36.5zM145 521q13 -13 34 -13t34 13t13 33t-13 32q-13 13 -34 13t-34 -13q-13 -12 -13 -32t13 -33z" />
    <glyph glyph-name="seven.superior" unicode="&#x2077;" horiz-adv-x="358" 
d="M180 430h-88q-12 0 -6 11l129 305v2h-72q-6 0 -6 -6v-40q0 -10 -10 -10h-79q-10 0 -10 10v124q0 10 10 10h265q10 0 10 -10v-76q0 -2 -2 -12l-127 -299q-4 -9 -14 -9z" />
    <glyph glyph-name="eight.superior" unicode="&#x2078;" horiz-adv-x="358" 
d="M179 422q-66 0 -109 35.5t-43 92.5q0 56 46 93v1q-37 31 -37 76q0 53 39 88.5t104 35.5q64 0 103 -35.5t39 -88.5q0 -44 -36 -76v-1q46 -37 46 -93q0 -57 -44 -93q-44 -35 -108 -35zM219 719q0 16 -11 27.5t-29 11.5t-29 -11.5t-11 -27.5q-2 -24 19 -34t42 0t19 34z
M227 554q0 20 -14 33.5t-34 13.5t-34 -13.5t-14 -33.5q0 -19 14 -32.5t34 -13.5t34 13.5t14 32.5z" />
    <glyph glyph-name="nine.superior" unicode="&#x2079;" horiz-adv-x="358" 
d="M187 430h-95q-11 0 -5 10l79 142l-1 1l-5 -1h-8q-55 0 -89.5 35t-34.5 94q0 60 42 96.5t109 36.5q66 0 108 -36.5t42 -96.5q0 -46 -35 -110l-90 -161q-6 -10 -17 -10zM145 679q13 -12 34 -12t34 12q13 13 13 33t-13 33t-34 13t-34 -13t-13 -33t13 -33z" />
    <glyph glyph-name="zero.inferior" unicode="&#x2080;" horiz-adv-x="358" 
d="M179 -164q-110 0 -140 90q-9 31 -9 121q0 89 9 121q30 90 140 90q111 0 139 -90q10 -29 10 -121t-10 -121q-28 -90 -139 -90zM216 -52q4 11 4 99t-4 99q-7 25 -37 25t-37 -25q-4 -11 -4 -99t4 -99q7 -25 37 -25t37 25z" />
    <glyph glyph-name="one.inferior" unicode="&#x2081;" horiz-adv-x="358" 
d="M247 -156h-86q-10 0 -10 10v282h-2l-64 -40q-4 -2 -7 0t-3 7v84q0 11 9 15l62 41q10 7 17 7h84q10 0 10 -10v-386q0 -10 -10 -10z" />
    <glyph glyph-name="two.inferior" unicode="&#x2082;" horiz-adv-x="358" 
d="M310 -156h-261q-10 0 -10 10v66q0 9 8 17l144 147q25 26 25 50q0 37 -37 37q-35 0 -41 -38q-2 -11 -11 -9l-79 13q-10 1 -8 11q3 45 42.5 77.5t100.5 32.5q60 0 98.5 -34t38.5 -89q0 -57 -49 -103l-96 -98v-1h135q10 0 10 -10v-69q0 -10 -10 -10z" />
    <glyph glyph-name="three.inferior" unicode="&#x2083;" horiz-adv-x="358" 
d="M183 -164q-59 0 -98.5 25.5t-48.5 71.5q-2 11 7 12l77 15q8 1 13 -7q13 -30 46 -30q20 0 32 11.5t12 30.5q0 43 -50 43h-17q-10 0 -10 10v66q0 10 10 10h14q44 0 44 38q0 39 -39 39q-28 0 -40 -25q-4 -8 -13 -7l-75 14q-8 1 -7 11q9 43 46 68.5t93 25.5q64 0 101.5 -32
t37.5 -84q0 -50 -42 -82v-1q22 -9 36.5 -34.5t14.5 -59.5q0 -58 -39.5 -93.5t-104.5 -35.5z" />
    <glyph glyph-name="four.inferior" unicode="&#x2084;" horiz-adv-x="358" 
d="M290 -156h-79q-10 0 -10 10v40q0 6 -6 6h-164q-10 0 -10 10v69q0 5 5 17l115 244q4 10 14 10h91q10 0 6 -10l-117 -251v-1h60q6 0 6 6v69q0 10 10 10h79q10 0 10 -10v-69q0 -6 6 -6h15q10 0 10 -10v-68q0 -10 -10 -10h-15q-6 0 -6 -6v-40q0 -10 -10 -10z" />
    <glyph glyph-name="five.inferior" unicode="&#x2085;" horiz-adv-x="358" 
d="M178 -164q-54 0 -91 23.5t-46 63.5q-1 11 6 12l78 20q9 3 12 -5q14 -26 41 -26q30 0 38 24q7 27 0 53q-8 24 -36 24q-19 0 -30 -11q-6 -6 -13 -6h-81q-10 0 -10 10v222q0 10 10 10h246q10 0 10 -10v-68q0 -10 -10 -10h-154q-6 0 -6 -6v-59h1q24 15 59 15q90 0 113 -71
q8 -26 8 -64q0 -37 -7 -57q-28 -84 -138 -84z" />
    <glyph glyph-name="six.inferior" unicode="&#x2086;" horiz-adv-x="358" 
d="M179 -164q-67 0 -109 36.5t-42 96.5q0 46 36 110l90 161q6 10 16 10h96q11 0 5 -10l-80 -142l1 -1l6 1h7q55 0 89.5 -35t34.5 -94q0 -60 -42 -96.5t-108 -36.5zM145 -65q13 -13 34 -13t34 13t13 33t-13 32q-13 13 -34 13t-34 -13q-13 -12 -13 -32t13 -33z" />
    <glyph glyph-name="seven.inferior" unicode="&#x2087;" horiz-adv-x="358" 
d="M180 -156h-88q-12 0 -6 11l129 305v2h-72q-6 0 -6 -6v-40q0 -10 -10 -10h-79q-10 0 -10 10v124q0 10 10 10h265q10 0 10 -10v-76q0 -2 -2 -12l-127 -299q-4 -9 -14 -9z" />
    <glyph glyph-name="eight.inferior" unicode="&#x2088;" horiz-adv-x="358" 
d="M179 -164q-66 0 -109 35.5t-43 92.5q0 56 46 93v1q-37 31 -37 76q0 53 39 88.5t104 35.5q64 0 103 -35.5t39 -88.5q0 -44 -36 -76v-1q46 -37 46 -93q0 -57 -44 -92q-43 -36 -108 -36zM219 133q0 16 -11 27.5t-29 11.5t-29 -11.5t-11 -27.5q-2 -24 19 -34t42 0t19 34z
M227 -32q0 20 -14 33.5t-34 13.5t-34 -13.5t-14 -33.5q0 -19 14 -32.5t34 -13.5t34 13.5t14 32.5z" />
    <glyph glyph-name="nine.inferior" unicode="&#x2089;" horiz-adv-x="358" 
d="M187 -156h-95q-11 0 -5 10l79 142l-1 1l-5 -1h-8q-55 0 -89.5 35t-34.5 94q0 60 42 96.5t109 36.5q66 0 108 -36.5t42 -96.5q0 -46 -35 -110l-90 -161q-6 -10 -17 -10zM145 93q13 -12 34 -12t34 12q13 13 13 33t-13 33t-34 13t-34 -13t-13 -33t13 -33z" />
    <glyph glyph-name="Euro" unicode="&#x20ac;" 
d="M316 -11q-80 0 -135 37t-77 107q-14 44 -14 98q0 6 -6 6h-36q-10 0 -10 10v62q0 10 10 10h36q6 0 6 6v34q0 6 -6 6h-36q-10 0 -10 10v62q0 10 10 10h36q6 0 6 6q0 50 14 94q22 70 77 107t135 37q144 0 202 -121q5 -9 -5 -14l-95 -44q-10 -3 -15 5q-32 56 -85 56
q-59 0 -79 -59q-7 -21 -7 -61q0 -6 6 -6h166q10 0 10 -10l-10 -62q-1 -10 -10 -10h-156q-6 0 -6 -6v-34q0 -6 6 -6h146q10 0 10 -10l-10 -62q-1 -10 -10 -10h-136q-6 0 -6 -6q0 -44 7 -65q20 -59 79 -59q53 0 85 56q5 8 15 5l95 -44q10 -5 5 -14q-58 -121 -202 -121z" />
    <glyph glyph-name="afii61248" unicode="&#x2105;" horiz-adv-x="814" 
d="M158 -1l395 682q6 10 16 10h84q10 0 4 -10l-395 -682q-6 -10 -16 -10h-83q-11 0 -5 10zM478 86q-10 39 -10 84q0 43 10 83q14 46 51 71t89 25t89 -25t51 -71q10 -40 10 -83q0 -45 -10 -84q-14 -47 -51 -72t-89 -25t-89 25t-51 72zM661 110q5 22 5 59t-5 59q-9 37 -44 37
t-44 -37q-5 -22 -5 -59t5 -59q9 -37 44 -37t44 37zM207 330q-53 0 -90.5 24t-52.5 69q-10 29 -10 89q0 53 10 80q31 94 143 94q85 0 123 -66q3 -5 -1 -9l-64 -38q-6 -4 -9 1q-17 29 -45 29q-35 0 -46 -35q-6 -16 -6 -57q0 -49 6 -65q11 -35 46 -35q31 0 46 31q3 5 9 1
l64 -37q4 -4 1 -9q-39 -67 -124 -67z" />
    <glyph glyph-name="afii61289" unicode="&#x2113;" horiz-adv-x="461" 
d="M124 161l-30 -22q-8 -5 -14 2l-45 64q-5 10 2 14l87 65v191q0 103 41 159.5t121 56.5q66 0 104.5 -40.5t38.5 -111.5q0 -146 -176 -299v-86q0 -52 41 -52q26 0 55 24q9 6 14 -2l45 -65q5 -6 -3 -14q-59 -56 -139 -56q-142 0 -142 163v9zM253 497v-117q70 76 70 160
q0 53 -32 53q-20 0 -29 -21.5t-9 -74.5z" />
    <glyph glyph-name="uni2116" unicode="&#x2116;" horiz-adv-x="954" 
d="M195 0h-120q-10 0 -10 10v661q0 9 10 9h108q8 0 13 -8l224 -394h3v393q0 9 10 9h121q9 0 9 -9v-661q0 -10 -9 -10h-108q-9 0 -14 8l-224 395h-3v-393q0 -10 -10 -10zM884 129h-241q-10 0 -10 9v71q0 9 10 9h241q10 0 10 -9v-71q0 -9 -10 -9zM765 268q-151 0 -151 153
q0 152 151 152q149 0 149 -152q0 -153 -149 -153zM765 347q27 0 38.5 17t11.5 57t-12 57t-38 17q-28 0 -39.5 -17t-11.5 -57t11.5 -57t39.5 -17z" />
    <glyph glyph-name="published" unicode="&#x2117;" horiz-adv-x="811" 
d="M405 -11q-150 0 -250 100q-101 101 -101 251q0 149 101 250t250 101q150 0 251 -101t101 -250q0 -150 -101 -251q-100 -100 -251 -100zM405 69q115 0 192 77q76 76 76 194t-76 194q-77 77 -192 77q-114 0 -191 -77q-76 -76 -76 -194t76 -194q77 -77 191 -77zM365 138h-92
q-9 0 -9 9v372q0 9 9 9h151q160 0 160 -130q0 -143 -160 -143h-45q-5 0 -5 -5v-103q0 -9 -9 -9zM378 341h27q42 0 61 11.5t19 41.5q0 49 -80 49h-27q-4 0 -4 -3v-96q0 -3 4 -3z" />
    <glyph glyph-name="trademark" unicode="&#x2122;" horiz-adv-x="846" 
d="M784 286h-69q-10 0 -10 10v194h-2l-62 -138q-4 -10 -13 -10h-47q-9 0 -13 10l-62 138h-3v-194q0 -10 -10 -10h-69q-10 0 -10 10v374q0 10 10 10h68q10 0 14 -10l98 -216h3l96 216q4 10 15 10h66q10 0 10 -10v-374q0 -10 -10 -10zM236 286h-77q-10 0 -10 10v294q0 6 -6 6
h-96q-10 0 -10 10v64q0 10 10 10h300q10 0 10 -10v-64q0 -10 -10 -10h-95q-6 0 -6 -6v-294q0 -10 -10 -10z" />
    <glyph glyph-name="Omega" unicode="&#x2126;" horiz-adv-x="636" 
d="M578 0h-213q-10 0 -10 10v101q0 11 9 14q41 15 58 64t17 151q0 106 -12 146q-23 75 -109 75q-84 0 -109 -75q-12 -36 -12 -146q0 -102 17 -151t57 -64q10 -3 10 -14v-101q0 -10 -10 -10h-213q-10 0 -10 10v104q0 10 10 10h57v2q-35 28 -51 77.5t-16 136.5q0 127 19 184
q27 81 92.5 124t158.5 43t158.5 -43t92.5 -124q19 -57 19 -184q0 -88 -16 -137.5t-52 -76.5v-2h58q10 0 10 -10v-104q0 -10 -10 -10z" />
    <glyph glyph-name="estimated" unicode="&#x212e;" horiz-adv-x="586" 
d="M292 -11q-105 0 -171 73q-65 74 -65 181t65 180q66 72 171 72q107 0 171 -70q66 -70 67 -182h-370v-167q52 -52 132 -52q111 0 176 110l33 -21q-45 -67 -92 -95.5t-117 -28.5zM160 276h266v133q-59 56 -134 56q-79 0 -132 -56v-133z" />
    <glyph glyph-name="onethird" unicode="&#x2153;" horiz-adv-x="917" 
d="M686 -8q-59 0 -98.5 25.5t-48.5 71.5q-2 11 7 12l77 15q8 1 13 -7q14 -30 46 -30q20 0 32 11.5t12 30.5q0 43 -50 43h-17q-10 0 -10 10v66q0 10 10 10h14q44 0 44 38q0 39 -39 39q-28 0 -40 -25q-4 -8 -13 -7l-75 14q-8 1 -7 11q9 43 46 68.5t93 25.5q64 0 101.5 -32
t37.5 -84q0 -50 -42 -82v-1q22 -9 36.5 -34.5t14.5 -59.5q0 -58 -39.5 -93.5t-104.5 -35.5zM263 -11h-84q-11 0 -5 10l395 682q6 10 16 10h84q11 0 5 -10l-395 -682q-6 -10 -16 -10zM259 274h-86q-10 0 -10 10v282h-2l-64 -40q-4 -2 -7 0t-3 7v84q0 11 9 15l62 41q10 7 17 7
h84q10 0 10 -10v-386q0 -10 -10 -10z" />
    <glyph glyph-name="twothirds" unicode="&#x2154;" horiz-adv-x="1015" 
d="M784 -8q-59 0 -98.5 25.5t-48.5 71.5q-2 11 7 12l77 15q8 1 13 -7q14 -30 46 -30q20 0 32 11.5t12 30.5q0 43 -50 43h-17q-10 0 -10 10v66q0 10 10 10h14q44 0 44 38q0 39 -39 39q-28 0 -40 -25q-4 -8 -13 -7l-75 14q-8 1 -7 11q9 43 46 68.5t93 25.5q64 0 101.5 -32
t37.5 -84q0 -50 -42 -82v-1q22 -9 36.5 -34.5t14.5 -59.5q0 -58 -39.5 -93.5t-104.5 -35.5zM358 274h-261q-10 0 -10 10v66q0 9 8 17l144 147q25 26 25 50q0 37 -37 37q-35 0 -41 -38q-2 -11 -11 -9l-79 13q-10 1 -8 11q3 45 42.5 77.5t100.5 32.5q60 0 98.5 -34t38.5 -89
q0 -57 -49 -103l-96 -98v-1h135q10 0 10 -10v-69q0 -10 -10 -10zM361 -11h-84q-11 0 -5 10l395 682q6 10 16 10h84q11 0 5 -10l-395 -682q-6 -10 -16 -10z" />
    <glyph glyph-name="oneeighth" unicode="&#x215b;" horiz-adv-x="920" 
d="M681 -8q-66 0 -109 35.5t-43 92.5q0 56 46 93v1q-37 31 -37 76q0 53 39 88.5t104 35.5q64 0 103 -35.5t39 -88.5q0 -44 -36 -76v-1q46 -37 46 -93q0 -57 -44 -93q-44 -35 -108 -35zM721 289q0 16 -11 27.5t-29 11.5t-29 -11.5t-11 -27.5q-2 -24 19 -34t42 0t19 34z
M729 124q0 20 -14 33.5t-34 13.5t-34 -13.5t-14 -33.5q0 -19 14 -32.5t34 -13.5t34 13.5t14 32.5zM263 -11h-84q-11 0 -5 10l395 682q6 10 16 10h84q11 0 5 -10l-395 -682q-6 -10 -16 -10zM259 274h-86q-10 0 -10 10v282h-2l-64 -40q-4 -2 -7 0t-3 7v84q0 11 9 15l62 41
q10 7 17 7h84q10 0 10 -10v-386q0 -10 -10 -10z" />
    </font>
</defs>
</svg>
