<?xml version="1.0" standalone="no"?>
<!DOCTYPE svg PUBLIC "-//W3C//DTD SVG 1.1//EN" "http://www.w3.org/Graphics/SVG/1.1/DTD/svg11.dtd" >
<svg>
<metadata>
Created by FontForge 20090622 at Mon Aug 10 11:54:07 2020
 By deploy user
Copyright &#194;&#169; 2010 Linotype GmbH, www.linotype.com. All rights reserved. This font software may not be reproduced, modified, disclosed or transferred without the express written approval of Linotype GmbH.
</metadata>
<defs>
<font id="DINNextW1G-Black" horiz-adv-x="570" >
  <font-face 
    font-family="DIN Next W1G Black"
    font-weight="900"
    font-stretch="normal"
    units-per-em="1000"
    panose-1="2 11 10 3 2 2 3 5 2 3"
    ascent="780"
    descent="-220"
    x-height="490"
    cap-height="680"
    bbox="-278.692 -259 1185 938"
    underline-thickness="50"
    underline-position="-50"
    unicode-range="U+000D-U+FB04"
  />
<missing-glyph horiz-adv-x="558" 
d="M0 10v660q0 10 10 10h538q10 0 10 -10v-660q0 -10 -10 -10h-538q-10 0 -10 10zM90 588v-496q0 -6 6 -6h366q6 0 6 6v496q0 6 -6 6h-366q-6 0 -6 -6zM327 257h-97q-10 0 -10 10v23q0 32 22 54l31 32q32 34 32 51q0 29 -28 29q-27 0 -34 -28q-3 -10 -12 -9l-91 12
q-10 0 -8 11q7 55 47.5 88t103.5 33q66 0 106 -35t40 -89q0 -53 -49 -103l-31 -32q-12 -14 -12 -32v-5q0 -10 -10 -10zM220 123v84q0 10 10 10h97q10 0 10 -10v-84q0 -10 -10 -10h-97q-10 0 -10 10z" />
    <glyph glyph-name="IJ" unicode="IJ" horiz-adv-x="848" 
d="M313 86q-5 8 1 14l132 108q7 4 13 -1q29 -33 66 -33q70 0 70 80v416q0 10 10 10h190q10 0 10 -10v-393q0 -289 -274 -289q-70 0 -129.5 27t-88.5 71zM44 10v660q0 10 10 10h190q10 0 10 -10v-660q0 -10 -10 -10h-190q-10 0 -10 10z" />
    <glyph glyph-name="ij" unicode="ij" horiz-adv-x="568" 
d="M516 536h-180q-10 0 -10 10v124q0 10 10 10h180q10 0 10 -10v-124q0 -10 -10 -10zM305 -180h-43q-10 0 -10 10v140q0 10 10 10h10q31 0 42.5 11t11.5 43v446q0 10 10 10h180q10 0 10 -10v-447q0 -110 -54.5 -161.5t-166.5 -51.5zM232 536h-180q-10 0 -10 10v124
q0 10 10 10h180q10 0 10 -10v-124q0 -10 -10 -10zM232 0h-180q-10 0 -10 10v470q0 10 10 10h180q10 0 10 -10v-470q0 -10 -10 -10z" />
    <glyph glyph-name="napostrophe" unicode="&#x22;n" horiz-adv-x="564" 
d="M514 0h-180q-10 0 -10 10v278q0 50 -41 50t-41 -50v-278q0 -10 -10 -10h-180q-10 0 -10 10v470q0 10 10 10h180q10 0 10 -10v-36h1q39 58 124 58q157 0 157 -183v-309q0 -10 -10 -10zM-49 455q-12 0 -12 13v202q0 10 10 10h124q10 0 10 -10v-107q0 -13 -10 -22l-104 -78
q-11 -8 -18 -8z" />
    <glyph glyph-name="f_f" unicode="ff" horiz-adv-x="728" 
d="M254 0h-178q-10 0 -10 10v334q0 6 -6 6h-26q-10 0 -10 10v120q0 10 10 10h26q6 0 6 6v4q0 99 43.5 139.5t148.5 40.5h78q10 0 10 -10v-124q0 -10 -10 -10h-28q-24 0 -34 -8.5t-10 -27.5v-4q0 -6 6 -6h64q10 0 10 -10v-120q0 -10 -10 -10h-64q-6 0 -6 -6v-334
q0 -10 -10 -10zM618 0h-178q-10 0 -10 10v334q0 6 -6 6h-26q-10 0 -10 10v120q0 10 10 10h26q6 0 6 6v4q0 99 43.5 139.5t148.5 40.5h78q10 0 10 -10v-124q0 -10 -10 -10h-28q-24 0 -34 -8.5t-10 -27.5v-4q0 -6 6 -6h64q10 0 10 -10v-120q0 -10 -10 -10h-64q-6 0 -6 -6v-334
q0 -10 -10 -10z" />
    <glyph glyph-name="fi" unicode="fi" horiz-adv-x="648" 
d="M254 0h-178q-10 0 -10 10v334q0 6 -6 6h-26q-10 0 -10 10v120q0 10 10 10h26q6 0 6 6v4q0 99 43.5 139.5t148.5 40.5h78q10 0 10 -10v-124q0 -10 -10 -10h-28q-24 0 -34 -8.5t-10 -27.5v-4q0 -6 6 -6h64q10 0 10 -10v-120q0 -10 -10 -10h-64q-6 0 -6 -6v-334
q0 -10 -10 -10zM596 536h-180q-10 0 -10 10v124q0 10 10 10h180q10 0 10 -10v-124q0 -10 -10 -10zM596 0h-180q-10 0 -10 10v470q0 10 10 10h180q10 0 10 -10v-470q0 -10 -10 -10z" />
    <glyph glyph-name="fl" unicode="fl" horiz-adv-x="693" 
d="M254 0h-178q-10 0 -10 10v334q0 6 -6 6h-26q-10 0 -10 10v120q0 10 10 10h26q6 0 6 6v4q0 99 43.5 139.5t148.5 40.5h78q10 0 10 -10v-124q0 -10 -10 -10h-28q-24 0 -34 -8.5t-10 -27.5v-4q0 -6 6 -6h64q10 0 10 -10v-120q0 -10 -10 -10h-64q-6 0 -6 -6v-334
q0 -10 -10 -10zM664 -6h-71q-102 0 -145.5 43t-43.5 147v486q0 10 10 10h180q10 0 10 -10v-462q0 -50 41 -50h19q10 0 10 -10v-144q0 -10 -10 -10z" />
    <glyph glyph-name="f_f_i" unicode="ffi" horiz-adv-x="1012" 
d="M254 0h-178q-10 0 -10 10v334q0 6 -6 6h-26q-10 0 -10 10v120q0 10 10 10h26q6 0 6 6v4q0 99 43.5 139.5t148.5 40.5h78q10 0 10 -10v-124q0 -10 -10 -10h-28q-24 0 -34 -8.5t-10 -27.5v-4q0 -6 6 -6h64q10 0 10 -10v-120q0 -10 -10 -10h-64q-6 0 -6 -6v-334
q0 -10 -10 -10zM618 0h-178q-10 0 -10 10v334q0 6 -6 6h-26q-10 0 -10 10v120q0 10 10 10h26q6 0 6 6v4q0 99 43.5 139.5t148.5 40.5h78q10 0 10 -10v-124q0 -10 -10 -10h-28q-24 0 -34 -8.5t-10 -27.5v-4q0 -6 6 -6h64q10 0 10 -10v-120q0 -10 -10 -10h-64q-6 0 -6 -6v-334
q0 -10 -10 -10zM960 536h-180q-10 0 -10 10v124q0 10 10 10h180q10 0 10 -10v-124q0 -10 -10 -10zM960 0h-180q-10 0 -10 10v470q0 10 10 10h180q10 0 10 -10v-470q0 -10 -10 -10z" />
    <glyph glyph-name="f_f_l" unicode="ffl" horiz-adv-x="1057" 
d="M254 0h-178q-10 0 -10 10v334q0 6 -6 6h-26q-10 0 -10 10v120q0 10 10 10h26q6 0 6 6v4q0 99 43.5 139.5t148.5 40.5h78q10 0 10 -10v-124q0 -10 -10 -10h-28q-24 0 -34 -8.5t-10 -27.5v-4q0 -6 6 -6h64q10 0 10 -10v-120q0 -10 -10 -10h-64q-6 0 -6 -6v-334
q0 -10 -10 -10zM618 0h-178q-10 0 -10 10v334q0 6 -6 6h-26q-10 0 -10 10v120q0 10 10 10h26q6 0 6 6v4q0 99 43.5 139.5t148.5 40.5h78q10 0 10 -10v-124q0 -10 -10 -10h-28q-24 0 -34 -8.5t-10 -27.5v-4q0 -6 6 -6h64q10 0 10 -10v-120q0 -10 -10 -10h-64q-6 0 -6 -6v-334
q0 -10 -10 -10zM1028 -6h-71q-102 0 -145.5 43t-43.5 147v486q0 10 10 10h180q10 0 10 -10v-462q0 -50 41 -50h19q10 0 10 -10v-144q0 -10 -10 -10z" />
    <glyph glyph-name=".notdef" horiz-adv-x="558" 
d="M0 10v660q0 10 10 10h538q10 0 10 -10v-660q0 -10 -10 -10h-538q-10 0 -10 10zM90 588v-496q0 -6 6 -6h366q6 0 6 6v496q0 6 -6 6h-366q-6 0 -6 -6zM327 257h-97q-10 0 -10 10v23q0 32 22 54l31 32q32 34 32 51q0 29 -28 29q-27 0 -34 -28q-3 -10 -12 -9l-91 12
q-10 0 -8 11q7 55 47.5 88t103.5 33q66 0 106 -35t40 -89q0 -53 -49 -103l-31 -32q-12 -14 -12 -32v-5q0 -10 -10 -10zM220 123v84q0 10 10 10h97q10 0 10 -10v-84q0 -10 -10 -10h-97q-10 0 -10 10z" />
    <glyph glyph-name=".null" horiz-adv-x="0" 
 />
    <glyph glyph-name="nonmarkingreturn" horiz-adv-x="333" 
 />
    <glyph glyph-name="NULL" horiz-adv-x="500" 
 />
    <glyph glyph-name="NULL" horiz-adv-x="500" 
 />
    <glyph glyph-name="CR" unicode="&#xd;" horiz-adv-x="0" 
 />
    <glyph glyph-name="space" unicode=" " horiz-adv-x="240" 
 />
    <glyph glyph-name="exclam" unicode="!" horiz-adv-x="320" 
d="M226 222h-132q-10 0 -10 10l-24 438q0 10 10 10h180q10 0 10 -10l-24 -438q0 -10 -10 -10zM70 10v140q0 10 10 10h160q10 0 10 -10v-140q0 -10 -10 -10h-160q-10 0 -10 10z" />
    <glyph glyph-name="quotedbl" unicode="&#x22;" horiz-adv-x="442" 
d="M378 436h-117q-10 0 -10 10v224q0 10 10 10h117q10 0 10 -10v-224q0 -10 -10 -10zM181 436h-117q-10 0 -10 10v224q0 10 10 10h117q10 0 10 -10v-224q0 -10 -10 -10z" />
    <glyph glyph-name="numbersign" unicode="#" horiz-adv-x="652" 
d="M73 10l20 151h-59q-10 0 -10 10v125q0 10 10 10h79l10 74h-63q-10 0 -10 10v125q0 10 10 10h83l20 145q1 10 11 10h147q10 0 9 -10l-20 -145h80l20 145q1 10 11 10h147q10 0 9 -10l-20 -145h61q10 0 10 -10v-125q0 -10 -10 -10h-81l-10 -74h65q10 0 10 -10v-125
q0 -10 -10 -10h-85l-20 -151q-1 -10 -11 -10h-147q-10 0 -9 10l21 151h-80l-21 -151q-1 -10 -11 -10h-147q-10 0 -9 10zM290 380l-10 -74h80l10 74h-80z" />
    <glyph glyph-name="dollar" unicode="$" 
d="M41 67q-10 8 -2 17l99 120q6 8 13 2q56 -46 116 -46q66 0 66 49q0 33 -49 39l-18 2q-100 11 -155.5 66t-55.5 144q0 84 47 144.5t128 79.5v81q0 10 10 10h106q10 0 10 -10v-77q81 -12 150 -56q10 -6 2 -17l-85 -120q-6 -8 -14 -3q-44 28 -91 28q-27 0 -44 -11.5
t-17 -30.5q0 -29 50 -37l24 -3q204 -26 204 -211q0 -87 -47.5 -148.5t-131.5 -81.5v-82q0 -10 -10 -10h-106q-10 0 -10 10v76q-115 14 -189 76z" />
    <glyph glyph-name="percent" unicode="%" horiz-adv-x="891" 
d="M177 -2l395 684q6 10 16 10h122q10 0 4 -10l-395 -684q-6 -10 -16 -10h-122q-10 0 -4 10zM72 418q-12 36 -12 91t12 91q28 88 143 88t143 -88q12 -36 12 -91t-12 -91q-28 -88 -143 -88t-143 88zM234 436q3 10 3 73t-3 73q-4 13 -19 13t-19 -13q-3 -10 -3 -73t3 -73
q4 -13 19 -13t19 13zM533 80q-12 36 -12 91t12 91q28 88 143 88t143 -88q12 -36 12 -91t-12 -91q-28 -88 -143 -88t-143 88zM657 98q4 -13 19 -13t19 13q3 10 3 73t-3 73q-4 13 -19 13t-19 -13q-3 -10 -3 -73t3 -73z" />
    <glyph glyph-name="ampersand" unicode="&#x26;" horiz-adv-x="647" 
d="M34 176q0 53 27.5 97t92.5 96q-67 83 -67 151q0 75 58 123q58 49 145 49q90 0 146 -48t56 -125q0 -45 -24.5 -82.5t-84.5 -85.5l52 -63l66 71q7 7 14 1l96 -85q7 -6 1 -14l-79 -91l3 -3q14 -18 37 -18h15q10 0 10 -10v-129q0 -10 -10 -10h-62q-38 0 -63.5 11t-49.5 38
q-76 -61 -174 -61q-96 0 -150.5 50.5t-54.5 137.5zM288 468q37 31 37 57q0 25 -16.5 34.5t-33 -0.5t-16.5 -34q0 -19 29 -57zM214 192q0 -19 12 -32t33 -14q27 -1 58 22l-67 84q-36 -32 -36 -60z" />
    <glyph glyph-name="quotesingle" unicode="'" horiz-adv-x="245" 
d="M181 436h-117q-10 0 -10 10v224q0 10 10 10h117q10 0 10 -10v-224q0 -10 -10 -10z" />
    <glyph glyph-name="parenleft" unicode="(" horiz-adv-x="351" 
d="M183 -74q-129 178 -129 402t129 402q7 10 13 10h124q11 0 7 -10q-86 -189 -86 -402t86 -402q4 -10 -7 -10h-124q-6 0 -13 10z" />
    <glyph glyph-name="parenright" unicode=")" horiz-adv-x="351" 
d="M29 -74q86 189 86 402t-86 402q-4 10 7 10h124q6 0 13 -10q129 -178 129 -402t-129 -402q-7 -10 -13 -10h-124q-11 0 -7 10z" />
    <glyph glyph-name="asterisk" unicode="*" horiz-adv-x="444" 
d="M268 332h-82q-10 0 -10 10l1 78l-67 -40q-8 -5 -13 3l-41 72q-5 8 3 13l68 38l-68 38q-9 5 -4 13l42 72q5 8 13 3l67 -40l-1 78q0 10 10 10h82q10 0 10 -10l-1 -78l67 40q8 5 13 -3l41 -72q5 -8 -3 -13l-69 -38l69 -38q9 -5 4 -13l-42 -72q-5 -8 -13 -3l-67 40l1 -78
q0 -10 -10 -10z" />
    <glyph glyph-name="plus" unicode="+" 
d="M195 194h-143q-10 0 -10 10v144q0 10 10 10h143q6 0 6 6v145q0 10 10 10h148q10 0 10 -10v-145q0 -6 6 -6h143q10 0 10 -10v-144q0 -10 -10 -10h-143q-6 0 -6 -6v-145q0 -10 -10 -10h-148q-10 0 -10 10v145q0 6 -6 6z" />
    <glyph glyph-name="comma" unicode="," horiz-adv-x="260" 
d="M44 -89v259q0 10 10 10h152q10 0 10 -10v-145q0 -11 -10 -20l-132 -99q-11 -8 -18 -8q-12 0 -12 13z" />
    <glyph glyph-name="hyphen" unicode="-" horiz-adv-x="408" 
d="M362 179h-316q-10 0 -10 10v152q0 10 10 10h316q10 0 10 -10v-152q0 -10 -10 -10z" />
    <glyph glyph-name="period" unicode="." horiz-adv-x="268" 
d="M44 10v160q0 10 10 10h160q10 0 10 -10v-160q0 -10 -10 -10h-160q-10 0 -10 10z" />
    <glyph glyph-name="slash" unicode="/" horiz-adv-x="459" 
d="M28 -2l206 684q3 10 13 10h183q10 0 7 -10l-206 -684q-3 -10 -13 -10h-183q-10 0 -7 10z" />
    <glyph glyph-name="zero" unicode="0" 
d="M54 141q-17 53 -17 199t17 199q24 73 84 113t147 40t147 -40t84 -113q17 -53 17 -199t-17 -199q-24 -73 -84 -113t-147 -40t-147 40t-84 113zM245 175q9 -27 40 -27t40 27q6 18 6 165t-6 165q-9 27 -40 27t-40 -27q-6 -18 -6 -165t6 -165z" />
    <glyph glyph-name="one" unicode="1" 
d="M218 10v460h-2l-121 -79q-13 -7 -13 6v173q0 8 7 14l130 90q9 6 19 6h170q10 0 10 -10v-660q0 -10 -10 -10h-180q-10 0 -10 10z" />
    <glyph glyph-name="two" unicode="2" 
d="M48 10v134q0 7 5 14l239 249q34 34 34 73q0 52 -46 52q-49 0 -54 -71q0 -11 -11 -9l-157 21q-9 1 -9 11q5 94 71 150q67 58 170 58q100 0 165 -57t65 -146q0 -97 -81 -180l-140 -143v-2h211q10 0 10 -10v-144q0 -10 -10 -10h-452q-10 0 -10 10z" />
    <glyph glyph-name="three" unicode="3" 
d="M47 169q-2 11 8 12l159 22q10 1 12 -9q12 -46 58 -46q25 0 39.5 15.5t14.5 44.5q0 61 -63 61h-27q-10 0 -10 10v137q0 10 10 10h25q25 0 39.5 14t14.5 40q0 24 -13.5 38t-35.5 14q-40 0 -50 -46q-1 -10 -11 -8l-159 21q-10 1 -8 11q15 85 77 133.5t163 48.5
q108 0 169 -54q62 -53 62 -134q0 -88 -77 -139v-2q88 -49 88 -163q0 -95 -67 -153q-67 -59 -174 -59q-102 0 -167.5 48.5t-76.5 132.5z" />
    <glyph glyph-name="four" unicode="4" 
d="M302 90h-262q-10 0 -10 10v158q0 5 2 11l167 403q3 8 15 8h192q12 0 7 -11l-172 -406v-3h61q6 0 6 6v90q0 10 10 10h168q10 0 10 -10v-90q0 -6 5 -6h33q10 0 10 -10v-150q0 -10 -10 -10h-32q-6 0 -6 -6v-74q0 -10 -10 -10h-168q-10 0 -10 10v74q0 6 -6 6z" />
    <glyph glyph-name="five" unicode="5" 
d="M55 162q0 10 9 11l157 21q10 1 13 -9q13 -37 50 -37q32 0 42 28q6 16 6 48t-6 48q-10 28 -42 28q-28 0 -40 -23q-4 -10 -14 -10h-154q-10 0 -10 10v393q0 10 10 10h415q10 0 10 -10v-144q0 -10 -10 -10h-255q-6 0 -6 -6v-92h2q36 40 108 40q134 0 172 -114
q14 -44 14 -121q0 -53 -15 -99q-43 -136 -225 -136q-101 0 -163 48t-68 126z" />
    <glyph glyph-name="six" unicode="6" 
d="M34 212q0 49 13 91q13 41 47 108l134 261q5 8 13 8h193q12 0 7 -11l-127 -244l1 -1q9 3 24 3q87 0 142 -61q55 -59 55 -154q0 -99 -70 -162q-70 -62 -181 -62t-182 62q-69 63 -69 162zM239 258q-17 -18 -17 -46t17 -46q18 -18 46 -18t45 18q18 18 18 46t-18 46
q-17 18 -45 18t-46 -18z" />
    <glyph glyph-name="seven" unicode="7" 
d="M122 11l203 494v3h-88q-6 0 -6 -6v-55q0 -10 -10 -10h-165q-10 0 -10 10v223q0 10 10 10h464q10 0 10 -10v-161q0 -2 -2 -10l-196 -489q-4 -10 -14 -10h-188q-10 0 -8 11z" />
    <glyph glyph-name="eight" unicode="8" 
d="M33 202q0 95 74 149v2q-59 50 -59 132q0 87 64 147t173 60q107 0 172 -60t65 -147q0 -82 -59 -132v-2q74 -54 74 -149q0 -98 -72 -156q-71 -58 -180 -58t-180 58q-72 58 -72 156zM247 442q15 -14 38 -14t38 14q15 15 15 38t-15 37q-15 15 -38 15t-38 -15q-15 -14 -15 -37
t15 -38zM239 254q-18 -17 -18 -44t18 -45q19 -17 46 -17t45 17q19 18 19 45t-19 44q-18 18 -45 18t-46 -18z" />
    <glyph glyph-name="nine" unicode="9" 
d="M129 11l127 244l-1 1q-9 -3 -24 -3q-87 0 -142 60q-55 61 -55 155q0 100 69 161q70 63 182 63t181 -63q70 -61 70 -161q0 -47 -14 -92q-13 -43 -46 -107l-134 -261q-5 -8 -13 -8h-193q-12 0 -7 11zM239 422q18 -18 46 -18t45 18q18 18 18 46t-18 46q-17 18 -45 18
t-46 -18q-17 -18 -17 -46t17 -46z" />
    <glyph glyph-name="colon" unicode=":" horiz-adv-x="288" 
d="M224 310h-160q-10 0 -10 10v160q0 10 10 10h160q10 0 10 -10v-160q0 -10 -10 -10zM54 10v160q0 10 10 10h160q10 0 10 -10v-160q0 -10 -10 -10h-160q-10 0 -10 10z" />
    <glyph glyph-name="semicolon" unicode=";" horiz-adv-x="288" 
d="M224 310h-160q-10 0 -10 10v160q0 10 10 10h160q10 0 10 -10v-160q0 -10 -10 -10zM58 -89v259q0 10 10 10h152q10 0 10 -10v-145q0 -11 -10 -20l-132 -99q-11 -8 -18 -8q-12 0 -12 13z" />
    <glyph glyph-name="less" unicode="&#x3c;" 
d="M518 36l-466 164q-10 3 -10 14v124q0 11 10 14l466 164q10 3 10 -7v-153q0 -9 -10 -13l-220 -66v-2l220 -66q10 -4 10 -13v-153q0 -10 -10 -7z" />
    <glyph glyph-name="equal" unicode="=" 
d="M518 310h-466q-10 0 -10 10v144q0 10 10 10h466q10 0 10 -10v-144q0 -10 -10 -10zM518 78h-466q-10 0 -10 10v144q0 10 10 10h466q10 0 10 -10v-144q0 -10 -10 -10z" />
    <glyph glyph-name="greater" unicode="&#x3e;" 
d="M42 43v153q0 9 10 13l220 66v2l-220 66q-10 4 -10 13v153q0 10 10 7l466 -164q10 -3 10 -14v-124q0 -11 -10 -14l-466 -164q-10 -3 -10 7z" />
    <glyph glyph-name="question" unicode="?" horiz-adv-x="494" 
d="M321 222h-160q-10 0 -10 10v40q0 50 34 84l48 48q50 47 50 79q0 20 -12 32.5t-32 12.5q-43 0 -53 -49q-2 -11 -11 -9l-152 21q-10 1 -8 11q10 85 71 137q62 53 157 53q103 0 167 -58q64 -57 64 -138q0 -47 -19 -82t-65 -81l-37 -36q-22 -22 -22 -55v-10q0 -10 -10 -10z
M152 10v140q0 10 10 10h160q10 0 10 -10v-140q0 -10 -10 -10h-160q-10 0 -10 10z" />
    <glyph glyph-name="at" unicode="@" horiz-adv-x="956" 
d="M38 259q0 197 121 315t320 118q197 0 319 -117q122 -116 122 -308q0 -103 -61 -160t-148 -57q-53 0 -92 18.5t-57 49.5h-1q-19 -36 -50.5 -52t-88.5 -16q-112 0 -140 91q-14 45 -14 125t14 125q28 91 125 91q78 0 106 -49h1v30q0 9 9 9h143q8 0 8 -9v-232q0 -23 12 -36
t32 -13q50 0 50 84q0 134 -78 214t-211 80t-211 -81t-78 -220q0 -133 78 -212t211 -79q98 0 189 53q9 6 14 -2l67 -87q6 -8 -2 -14q-106 -82 -268 -82q-199 0 -320 117q-121 115 -121 306zM432 209q9 -27 39 -27t39 27q4 11 4 57t-4 57q-9 27 -39 27t-39 -27q-4 -11 -4 -57
t4 -57z" />
    <glyph glyph-name="A" unicode="A" horiz-adv-x="708" 
d="M9 10l236 660q3 10 13 10h204q10 0 13 -10l230 -660q3 -10 -7 -10h-203q-10 0 -13 10l-25 89h-200l-25 -89q-3 -10 -13 -10h-203q-10 0 -7 10zM357 451l-52 -181h105l-50 181h-3z" />
    <glyph glyph-name="B" unicode="B" horiz-adv-x="618" 
d="M44 10v660q0 10 10 10h291q111 0 169 -47.5t58 -133.5q0 -102 -86 -147v-2q43 -16 70.5 -59t27.5 -98q0 -93 -64 -143t-175 -50h-291q-10 0 -10 10zM259 413h33q39 0 55.5 13.5t16.5 45.5q0 33 -16.5 46t-55.5 13h-33q-6 0 -6 -6v-106q0 -6 6 -6zM253 277v-121q0 -6 6 -6
h44q37 0 54 16t17 51q0 66 -71 66h-44q-6 0 -6 -6z" />
    <glyph glyph-name="C" unicode="C" horiz-adv-x="572" 
d="M51 156q-21 63 -21 184t21 184q27 83 91.5 125.5t160.5 42.5q95 0 160 -41.5t93 -118.5q4 -9 -5 -14l-161 -69q-11 -5 -15 7q-23 50 -67 50t-58 -41q-8 -27 -8 -125t8 -125q14 -41 58 -41t67 50q4 12 15 7l161 -69q9 -5 5 -14q-28 -77 -93 -118.5t-160 -41.5
q-96 0 -160.5 42.5t-91.5 125.5z" />
    <glyph glyph-name="D" unicode="D" horiz-adv-x="635" 
d="M44 10v660q0 10 10 10h273q199 0 252 -158q21 -64 21 -182t-21 -182q-53 -158 -252 -158h-273q-10 0 -10 10zM254 488v-296q0 -6 6 -6h24q43 0 64.5 11.5t30.5 40.5q9 27 9 102t-9 102q-9 29 -30.5 40.5t-64.5 11.5h-24q-6 0 -6 -6z" />
    <glyph glyph-name="E" unicode="E" horiz-adv-x="549" 
d="M44 10v660q0 10 10 10h455q10 0 10 -10v-154q0 -10 -10 -10h-251q-6 0 -6 -6v-66q0 -6 6 -6h201q10 0 10 -10v-150q0 -10 -10 -10h-201q-6 0 -6 -6v-72q0 -6 6 -6h251q10 0 10 -10v-154q0 -10 -10 -10h-455q-10 0 -10 10z" />
    <glyph glyph-name="F" unicode="F" horiz-adv-x="546" 
d="M44 10v660q0 10 10 10h455q10 0 10 -10v-154q0 -10 -10 -10h-251q-6 0 -6 -6v-76q0 -6 6 -6h201q10 0 10 -10v-150q0 -10 -10 -10h-201q-6 0 -6 -6v-232q0 -10 -10 -10h-188q-10 0 -10 10z" />
    <glyph glyph-name="G" unicode="G" horiz-adv-x="628" 
d="M51 157q-21 66 -21 183t21 183q27 82 96.5 125.5t166.5 43.5q185 0 252 -145q6 -12 -5 -17l-156 -66q-11 -5 -17 4q-26 38 -73 38q-51 0 -65 -44q-8 -27 -8 -122q0 -94 9 -123q13 -43 71 -43t68 36q3 9 3 18q0 7 -6 7h-52q-10 0 -10 10v131q0 10 10 10h253q10 0 10 -10
v-47q0 -106 -19 -163q-28 -86 -97 -132t-168 -46q-97 0 -166.5 43.5t-96.5 125.5z" />
    <glyph glyph-name="H" unicode="H" horiz-adv-x="661" 
d="M44 10v660q0 10 10 10h190q10 0 10 -10v-225q0 -6 6 -6h141q6 0 6 6v225q0 10 10 10h190q10 0 10 -10v-660q0 -10 -10 -10h-190q-10 0 -10 10v237q0 6 -6 6h-141q-6 0 -6 -6v-237q0 -10 -10 -10h-190q-10 0 -10 10z" />
    <glyph glyph-name="I" unicode="I" horiz-adv-x="298" 
d="M44 10v660q0 10 10 10h190q10 0 10 -10v-660q0 -10 -10 -10h-190q-10 0 -10 10z" />
    <glyph glyph-name="J" unicode="J" horiz-adv-x="550" 
d="M20 86q-5 8 1 14l132 108q7 4 13 -1q28 -33 66 -33q70 0 70 80v416q0 10 10 10h190q10 0 10 -10v-393q0 -289 -274 -289q-70 0 -129.5 27t-88.5 71z" />
    <glyph glyph-name="K" unicode="K" horiz-adv-x="670" 
d="M44 10v660q0 10 10 10h190q10 0 10 -10v-228l158 228q7 10 18 10h212q14 0 7 -13l-200 -268l204 -388q2 -4 0.5 -7.5t-6.5 -3.5h-218q-13 0 -17 10l-105 218l-53 -75v-143q0 -10 -10 -10h-190q-10 0 -10 10z" />
    <glyph glyph-name="L" unicode="L" horiz-adv-x="559" 
d="M44 10v660q0 10 10 10h190q10 0 10 -10v-478q0 -6 6 -6h273q10 0 10 -10v-166q0 -10 -10 -10h-479q-10 0 -10 10z" />
    <glyph glyph-name="M" unicode="M" horiz-adv-x="782" 
d="M44 10v660q0 10 10 10h181q13 0 17 -10l140 -317h4l136 317q4 10 17 10h179q10 0 10 -10v-660q0 -10 -10 -10h-169q-10 0 -10 10v312h-5l-90 -216q-6 -13 -19 -13h-88q-12 0 -19 13l-90 216h-5v-312q0 -10 -10 -10h-169q-10 0 -10 10z" />
    <glyph glyph-name="N" unicode="N" horiz-adv-x="650" 
d="M44 10v660q0 10 10 10h179q13 0 17 -10l162 -335h5v335q0 10 10 10h169q10 0 10 -10v-660q0 -10 -10 -10h-179q-13 0 -17 10l-161 335h-6v-335q0 -10 -10 -10h-169q-10 0 -10 10z" />
    <glyph glyph-name="O" unicode="O" horiz-adv-x="628" 
d="M51 157q-21 66 -21 183t21 183q27 82 96.5 125.5t166.5 43.5t166.5 -43.5t96.5 -125.5q21 -67 21 -183q0 -117 -21 -183q-27 -82 -96.5 -125.5t-166.5 -43.5t-166.5 43.5t-96.5 125.5zM378 217q8 27 8 123t-8 123q-13 43 -64 43t-64 -43q-8 -27 -8 -123t8 -123
q13 -43 64 -43t64 43z" />
    <glyph glyph-name="P" unicode="P" horiz-adv-x="620" 
d="M243 0h-189q-10 0 -10 10v660q0 10 10 10h281q132 0 200.5 -62.5t68.5 -172.5q0 -104 -69 -170q-68 -65 -200 -65h-76q-6 0 -6 -6v-194q0 -10 -10 -10zM259 384h65q70 0 70 61t-70 61h-65q-6 0 -6 -6v-110q0 -6 6 -6z" />
    <glyph glyph-name="Q" unicode="Q" horiz-adv-x="636" 
d="M654 60l-129 -118q-7 -8 -15 0l-63 71q-60 -25 -130 -25q-97 0 -166.5 43.5t-96.5 125.5q-21 66 -21 183t21 183q27 82 96.5 125.5t166.5 43.5t166.5 -43.5t96.5 -125.5q21 -67 21 -183q0 -118 -21 -182l75 -83q8 -8 -1 -15zM381 217q8 27 8 123t-8 123q-13 43 -64 43
t-64 -43q-8 -27 -8 -123t8 -123q13 -43 64 -43t64 43z" />
    <glyph glyph-name="R" unicode="R" horiz-adv-x="635" 
d="M605 0h-209q-11 0 -15 10l-87 212h-35q-6 0 -6 -6v-206q0 -10 -10 -10h-189q-10 0 -10 10v660q0 10 10 10h284q125 0 193.5 -62t68.5 -167q0 -131 -102 -191l114 -249q5 -11 -7 -11zM259 390h63q68 0 68 58t-68 58h-63q-6 0 -6 -6v-104q0 -6 6 -6z" />
    <glyph glyph-name="S" unicode="S" horiz-adv-x="617" 
d="M314 -12q-84 0 -165 29q-80 30 -121 71q-9 9 -1 18l106 125q6 8 13 1q32 -29 77 -47.5t89 -18.5q78 0 78 44q0 15 -14 23t-50 13l-36 5q-121 17 -180 72t-59 153t72 156q72 60 193 60q154 0 257 -78q10 -6 2 -17l-90 -128q-6 -8 -14 -3q-73 49 -147 49q-58 0 -58 -37
q0 -28 65 -37l36 -5q123 -17 180.5 -71.5t57.5 -154.5q0 -101 -77 -161.5t-214 -60.5z" />
    <glyph glyph-name="T" unicode="T" horiz-adv-x="576" 
d="M383 0h-190q-10 0 -10 10v478q0 6 -6 6h-161q-10 0 -10 10v166q0 10 10 10h544q10 0 10 -10v-166q0 -10 -10 -10h-161q-6 0 -6 -6v-478q0 -10 -10 -10z" />
    <glyph glyph-name="U" unicode="U" horiz-adv-x="650" 
d="M326 -12q-135 0 -209 74t-74 215v393q0 10 10 10h190q10 0 10 -10v-411q0 -85 72 -85t72 85v411q0 10 10 10h190q10 0 10 -10v-393q0 -141 -73.5 -215t-207.5 -74z" />
    <glyph glyph-name="V" unicode="V" horiz-adv-x="669" 
d="M433 0h-191q-11 0 -14 10l-218 658q-3 12 9 12h202q11 0 14 -10l104 -367h3l100 367q3 10 14 10h200q12 0 9 -12l-218 -658q-3 -10 -14 -10z" />
    <glyph glyph-name="W" unicode="W" horiz-adv-x="956" 
d="M744 0h-154q-11 0 -14 10l-94 329h-2l-94 -329q-3 -10 -14 -10h-154q-11 0 -14 10l-195 660q-3 10 7 10h206q12 0 13 -10l76 -360h2l94 360q3 10 14 10h121q11 0 14 -10l98 -360h2l73 360q1 10 13 10h204q10 0 7 -10l-195 -660q-3 -10 -14 -10z" />
    <glyph glyph-name="X" unicode="X" horiz-adv-x="642" 
d="M636 0h-202q-12 0 -18 10l-89 154h-3l-89 -154q-6 -10 -18 -10h-202q-12 0 -6 10l204 340l-192 320q-6 10 6 10h202q12 0 18 -10l77 -134h3l77 134q6 10 18 10h202q12 0 6 -10l-192 -320l204 -340q6 -10 -6 -10z" />
    <glyph glyph-name="Y" unicode="Y" horiz-adv-x="641" 
d="M421 0h-190q-10 0 -10 10v244l-211 415q-5 11 7 11h189q11 0 17 -10l104 -213h3l101 213q4 10 17 10h187q12 0 7 -11l-211 -415v-244q0 -10 -10 -10z" />
    <glyph glyph-name="Z" unicode="Z" horiz-adv-x="580" 
d="M540 0h-500q-10 0 -10 10v162q0 6 3 10l269 309v3h-251q-10 0 -10 10v166q0 10 10 10h489q10 0 10 -10v-162q0 -6 -3 -10l-270 -309v-3h263q10 0 10 -10v-166q0 -10 -10 -10z" />
    <glyph glyph-name="bracketleft" unicode="[" horiz-adv-x="331" 
d="M299 -84h-239q-10 0 -10 10v804q0 10 10 10h239q10 0 10 -10v-126q0 -10 -10 -10h-76q-6 0 -6 -6v-520q0 -6 6 -6h76q10 0 10 -10v-126q0 -10 -10 -10z" />
    <glyph glyph-name="backslash" unicode="\" horiz-adv-x="459" 
d="M430 -12h-183q-10 0 -13 10l-206 684q-3 10 7 10h183q10 0 13 -10l206 -684q3 -10 -7 -10z" />
    <glyph glyph-name="bracketright" unicode="]" horiz-adv-x="331" 
d="M271 -84h-239q-10 0 -10 10v126q0 10 10 10h76q6 0 6 6v520q0 6 -6 6h-76q-10 0 -10 10v126q0 10 10 10h239q10 0 10 -10v-804q0 -10 -10 -10z" />
    <glyph glyph-name="asciicircum" unicode="^" 
d="M527 232h-165q-10 0 -13 10l-60 196h-2l-60 -196q-3 -10 -13 -10h-165q-10 0 -7 10l162 428q4 10 14 10h140q10 0 14 -10l162 -428q3 -10 -7 -10z" />
    <glyph glyph-name="underscore" unicode="_" horiz-adv-x="584" 
d="M584 -50v-140h-584v140h584z" />
    <glyph glyph-name="grave" unicode="`" horiz-adv-x="530" 
d="M394 540h-143q-9 0 -16 10l-106 144q-5 10 5 10h165q10 0 17 -10l83 -144q4 -10 -5 -10z" />
    <glyph glyph-name="a" unicode="a" horiz-adv-x="537" 
d="M488 0h-169q-10 0 -10 10v24h-1q-43 -46 -128 -46q-69 0 -112.5 39.5t-43.5 111.5q0 79 58 121.5t157 42.5h65q6 0 6 6v8q0 19 -18 26.5t-68 7.5q-62 0 -102 -25q-9 -4 -13 3l-60 108q-6 11 3 17q73 48 200 48q133 0 189.5 -45t56.5 -145v-302q0 -10 -10 -10zM253 124
q57 0 57 35v26q0 6 -6 6h-47q-47 0 -47 -35q0 -32 43 -32z" />
    <glyph glyph-name="b" unicode="b" horiz-adv-x="563" 
d="M366 -12q-89 0 -123 58h-1v-36q0 -10 -10 -10h-180q-10 0 -10 10v660q0 10 10 10h180q10 0 10 -10v-226h1q34 58 123 58q119 0 157 -117q17 -54 17 -140t-17 -140q-38 -117 -157 -117zM332 176q6 20 6 69t-6 69q-9 28 -42 28t-42 -28q-6 -20 -6 -69t6 -69q9 -28 42 -28
t42 28z" />
    <glyph glyph-name="c" unicode="c" horiz-adv-x="504" 
d="M264 -12q-85 0 -145 38t-83 110q-13 38 -13 109t13 109q23 72 83 110t145 38q82 0 142 -39q62 -37 81 -96q3 -8 -5 -13l-141 -60q-12 -7 -17 4q-17 44 -52 44q-32 0 -42 -30q-5 -17 -5 -67t5 -67q10 -30 42 -30q35 0 52 44q5 11 17 4l141 -60q8 -5 5 -13q-19 -58 -81 -97
q-61 -38 -142 -38z" />
    <glyph glyph-name="d" unicode="d" horiz-adv-x="563" 
d="M511 0h-180q-10 0 -10 10v36h-1q-34 -58 -123 -58q-119 0 -157 117q-17 54 -17 140t17 140q38 117 157 117q89 0 123 -58h1v226q0 10 10 10h180q10 0 10 -10v-660q0 -10 -10 -10zM315 176q6 20 6 69t-6 69q-9 28 -42 28t-42 -28q-6 -20 -6 -69t6 -69q9 -28 42 -28t42 28z
" />
    <glyph glyph-name="e" unicode="e" horiz-adv-x="539" 
d="M281 -12q-95 0 -157 38t-86 110q-15 45 -15 109t15 109q23 71 82.5 109.5t147.5 38.5q187 0 233 -145q15 -47 15 -156q0 -10 -10 -10h-285q-6 0 -6 -6q0 -2 2 -10q13 -42 87 -42q54 0 107 36q8 5 14 -2l78 -86q7 -7 -2 -15q-89 -78 -220 -78zM221 303h100q6 0 6 6
q0 15 -3 24q-10 34 -53 34t-53 -34q-3 -9 -3 -24q0 -6 6 -6z" />
    <glyph glyph-name="f" unicode="f" horiz-adv-x="364" 
d="M254 0h-178q-10 0 -10 10v334q0 6 -6 6h-26q-10 0 -10 10v120q0 10 10 10h26q6 0 6 6v4q0 99 43.5 139.5t148.5 40.5h78q10 0 10 -10v-124q0 -10 -10 -10h-28q-24 0 -34 -8.5t-10 -27.5v-4q0 -6 6 -6h64q10 0 10 -10v-120q0 -10 -10 -10h-64q-6 0 -6 -6v-334
q0 -10 -10 -10z" />
    <glyph glyph-name="g" unicode="g" horiz-adv-x="559" 
d="M240 -192q-61 0 -119 24q-57 22 -81 54q-6 8 1 15l98 102q7 7 15 1q46 -36 90 -36q39 0 56.5 21t17.5 69v32h-1q-34 -58 -123 -58q-120 0 -158 116q-16 49 -16 119t16 119q38 116 158 116q89 0 123 -58h1v36q0 10 10 10h180q10 0 10 -10v-378q0 -157 -67.5 -225.5
t-210.5 -68.5zM313 223q5 17 5 44t-5 44q-10 31 -43 31t-43 -31q-5 -17 -5 -44t5 -44q10 -31 43 -31t43 31z" />
    <glyph glyph-name="h" unicode="h" horiz-adv-x="564" 
d="M514 0h-180q-10 0 -10 10v278q0 50 -41 50t-41 -50v-278q0 -10 -10 -10h-180q-10 0 -10 10v660q0 10 10 10h180q10 0 10 -10v-226h1q39 58 124 58q157 0 157 -183v-309q0 -10 -10 -10z" />
    <glyph glyph-name="i" unicode="i" horiz-adv-x="284" 
d="M232 536h-180q-10 0 -10 10v124q0 10 10 10h180q10 0 10 -10v-124q0 -10 -10 -10zM232 0h-180q-10 0 -10 10v470q0 10 10 10h180q10 0 10 -10v-470q0 -10 -10 -10z" />
    <glyph glyph-name="j" unicode="j" horiz-adv-x="284" 
d="M232 536h-180q-10 0 -10 10v124q0 10 10 10h180q10 0 10 -10v-124q0 -10 -10 -10zM21 -180h-43q-10 0 -10 10v140q0 10 10 10h10q31 0 42.5 11t11.5 43v446q0 10 10 10h180q10 0 10 -10v-447q0 -110 -54.5 -161.5t-166.5 -51.5z" />
    <glyph glyph-name="k" unicode="k" horiz-adv-x="551" 
d="M544 0h-191q-10 0 -14 10l-80 178l-19 -29v-149q0 -10 -10 -10h-178q-10 0 -10 10v660q0 10 10 10h178q10 0 10 -10v-313l85 123q7 10 19 10h181q5 0 6.5 -3.5t-1.5 -6.5l-136 -160l155 -310q6 -10 -5 -10z" />
    <glyph glyph-name="l" unicode="l" horiz-adv-x="329" 
d="M300 -6h-71q-102 0 -145.5 43t-43.5 147v486q0 10 10 10h180q10 0 10 -10v-462q0 -50 41 -50h19q10 0 10 -10v-144q0 -10 -10 -10z" />
    <glyph glyph-name="m" unicode="m" horiz-adv-x="846" 
d="M796 0h-180q-10 0 -10 10v278q0 50 -41 50t-41 -50v-278q0 -10 -10 -10h-180q-10 0 -10 10v278q0 50 -41 50t-41 -50v-278q0 -10 -10 -10h-180q-10 0 -10 10v470q0 10 10 10h180q10 0 10 -10v-36h1q39 58 124 58q90 0 127 -58h1q49 58 145 58q166 0 166 -183v-309
q0 -10 -10 -10z" />
    <glyph glyph-name="n" unicode="n" horiz-adv-x="564" 
d="M514 0h-180q-10 0 -10 10v278q0 50 -41 50t-41 -50v-278q0 -10 -10 -10h-180q-10 0 -10 10v470q0 10 10 10h180q10 0 10 -10v-36h1q39 58 124 58q157 0 157 -183v-309q0 -10 -10 -10z" />
    <glyph glyph-name="o" unicode="o" horiz-adv-x="546" 
d="M38 134q-15 45 -15 111t15 111q23 71 85 108.5t150 37.5t150 -37.5t85 -108.5q15 -45 15 -111t-15 -111q-23 -71 -85 -108.5t-150 -37.5t-150 37.5t-85 108.5zM315 176q6 20 6 69t-6 69q-9 28 -42 28t-42 -28q-6 -20 -6 -69t6 -69q9 -28 42 -28t42 28z" />
    <glyph glyph-name="p" unicode="p" horiz-adv-x="563" 
d="M232 -180h-180q-10 0 -10 10v650q0 10 10 10h180q10 0 10 -10v-36h1q34 58 123 58q119 0 157 -117q17 -54 17 -140t-17 -140q-38 -117 -157 -117q-89 0 -123 58h-1v-216q0 -10 -10 -10zM332 176q6 20 6 69t-6 69q-9 28 -42 28t-42 -28q-6 -20 -6 -69t6 -69q9 -28 42 -28
t42 28z" />
    <glyph glyph-name="q" unicode="q" horiz-adv-x="563" 
d="M511 -180h-180q-10 0 -10 10v216h-1q-34 -58 -123 -58q-119 0 -157 117q-17 54 -17 140t17 140q38 117 157 117q89 0 123 -58h1v36q0 10 10 10h180q10 0 10 -10v-650q0 -10 -10 -10zM315 176q6 20 6 69t-6 69q-9 28 -42 28t-42 -28q-6 -20 -6 -69t6 -69q9 -28 42 -28
t42 28z" />
    <glyph glyph-name="r" unicode="r" horiz-adv-x="431" 
d="M232 0h-180q-10 0 -10 10v470q0 10 10 10h180q10 0 10 -10v-44h1q31 66 127 66q28 0 46 -5q9 -2 6 -13l-58 -185q-4 -6 -14 -1q-43 24 -71 17q-37 -9 -37 -64v-241q0 -10 -10 -10z" />
    <glyph glyph-name="s" unicode="s" horiz-adv-x="520" 
d="M263 -12q-155 0 -247 74q-7 7 -1 14l79 100q6 6 14 2q89 -50 168 -50q47 0 47 22q0 8 -10 12t-40 8l-56 6q-87 9 -133.5 50t-46.5 111q0 75 60.5 120t164.5 45q141 0 226 -62q8 -6 1 -15l-70 -93q-6 -8 -15 -3q-67 37 -142 37q-40 0 -40 -19q0 -13 43 -18l56 -6
q100 -11 144.5 -51.5t42.5 -110.5q-2 -79 -67.5 -126t-177.5 -47z" />
    <glyph glyph-name="t" unicode="t" horiz-adv-x="352" 
d="M322 -6h-61q-110 0 -157 47q-46 47 -46 164v139q0 6 -6 6h-26q-10 0 -10 10v120q0 10 10 10h26q6 0 6 6v124q0 10 10 10h178q10 0 10 -10v-124q0 -6 6 -6h60q10 0 10 -10v-120q0 -10 -10 -10h-60q-6 0 -6 -6v-131q0 -32 9.5 -43.5t36.5 -11.5h20q10 0 10 -10v-144
q0 -10 -10 -10z" />
    <glyph glyph-name="u" unicode="u" horiz-adv-x="562" 
d="M510 0h-180q-10 0 -10 10v36h-1q-39 -58 -124 -58q-156 0 -156 183v309q0 10 10 10h180q10 0 10 -10v-278q0 -50 41 -50q40 0 40 50v278q0 10 10 10h180q10 0 10 -10v-470q0 -10 -10 -10z" />
    <glyph glyph-name="v" unicode="v" horiz-adv-x="559" 
d="M369 0h-173q-9 0 -12 10l-177 470q-3 10 8 10h186q12 0 15 -10l68 -229h2l64 229q3 10 15 10h185q11 0 8 -10l-177 -470q-3 -10 -12 -10z" />
    <glyph glyph-name="w" unicode="w" horiz-adv-x="784" 
d="M609 0h-135q-9 0 -12 10l-64 215h-2l-66 -215q-3 -10 -12 -10h-135q-9 0 -12 10l-161 469q-5 11 8 11h179q12 0 15 -10l52 -220h2l64 220q3 10 14 10h107q11 0 14 -10l65 -220h2l48 220q3 10 15 10h179q13 0 8 -11l-161 -469q-3 -10 -12 -10z" />
    <glyph glyph-name="x" unicode="x" horiz-adv-x="557" 
d="M550 0h-193q-10 0 -15 8l-58 97h-1l-58 -97q-5 -8 -15 -8h-192q-11 0 -5 10l164 244l-151 226q-6 10 6 10h193q10 0 15 -8l45 -77h1l46 77q5 8 15 8h190q12 0 6 -10l-151 -226l164 -244q2 -4 0 -7t-6 -3z" />
    <glyph glyph-name="y" unicode="y" horiz-adv-x="559" 
d="M144 -180h-41q-10 0 -10 10v140q0 10 10 10h30q42 0 54 32l9 25l-188 443q-4 10 7 10h189q10 0 13 -10l70 -201h2l64 201q3 10 13 10h186q11 0 7 -10l-229 -551q-25 -63 -67 -86q-41 -23 -119 -23z" />
    <glyph glyph-name="z" unicode="z" horiz-adv-x="499" 
d="M459 0h-417q-10 0 -10 10v129q0 5 3 10l199 184v3h-181q-10 0 -10 10v134q0 10 10 10h406q10 0 10 -10v-134q0 -6 -3 -10l-198 -179v-3h191q10 0 10 -10v-134q0 -10 -10 -10z" />
    <glyph glyph-name="braceleft" unicode="{" horiz-adv-x="378" 
d="M344 -84h-84q-140 0 -140 130v120q0 90 -70 90q-10 0 -10 10v126q0 10 10 10q70 0 70 89v119q0 130 140 130h84q10 0 10 -10v-126q0 -10 -10 -10h-20q-42 0 -42 -46v-86q0 -56 -16.5 -86t-55.5 -46v-2q39 -16 55.5 -46.5t16.5 -86.5v-87q0 -46 42 -46h20q10 0 10 -10
v-126q0 -10 -10 -10z" />
    <glyph glyph-name="bar" unicode="|" horiz-adv-x="336" 
d="M246 -84h-156q-10 0 -10 10v804q0 10 10 10h156q10 0 10 -10v-804q0 -10 -10 -10z" />
    <glyph glyph-name="braceright" unicode="}" horiz-adv-x="378" 
d="M118 -84h-84q-10 0 -10 10v126q0 10 10 10h20q42 0 42 46v87q0 56 16.5 86.5t55.5 46.5v2q-39 16 -55.5 46t-16.5 86v86q0 46 -42 46h-20q-10 0 -10 10v126q0 10 10 10h84q140 0 140 -130v-119q0 -89 70 -89q10 0 10 -10v-126q0 -10 -10 -10q-70 0 -70 -90v-120
q0 -130 -140 -130z" />
    <glyph glyph-name="asciitilde" unicode="~" 
d="M380 172q-53 0 -100 31q-38 25 -62 25q-32 0 -58 -44q-4 -9 -14 -4l-98 63q-8 5 -4 14q25 55 65.5 87.5t88.5 32.5q53 0 100 -31q38 -25 62 -25q32 0 58 44q4 9 14 4l98 -63q8 -5 4 -14q-25 -55 -65.5 -87.5t-88.5 -32.5z" />
    <glyph glyph-name="uni00A0" unicode="&#xa0;" horiz-adv-x="240" 
 />
    <glyph glyph-name="exclamdown" unicode="&#xa1;" horiz-adv-x="320" 
d="M94 268h132q10 0 10 -10l24 -438q0 -10 -10 -10h-180q-10 0 -10 10l24 438q0 10 10 10zM250 480v-140q0 -10 -10 -10h-160q-10 0 -10 10v140q0 10 10 10h160q10 0 10 -10z" />
    <glyph glyph-name="cent" unicode="&#xa2;" 
d="M263 178q11 -30 45 -30q37 0 54 44q5 11 17 4l141 -60q8 -5 5 -13q-17 -48 -62 -83t-107 -46v-79q0 -10 -10 -10h-106q-10 0 -10 10v81q-123 25 -161 140q-14 44 -14 109t14 109q38 113 161 140v81q0 10 10 10h106q10 0 10 -10v-79q62 -12 107 -46.5t62 -82.5
q3 -8 -5 -13l-141 -60q-12 -7 -17 4q-17 44 -54 44q-34 0 -45 -30q-6 -18 -6 -67t6 -67z" />
    <glyph glyph-name="sterling" unicode="&#xa3;" 
d="M512 0h-453q-10 0 -10 10v139q0 8 6 14q35 30 35 73v14q0 6 -6 6h-25q-10 0 -10 10v115q0 10 10 10h25q6 0 6 6v86q0 99 59 154t164 55q89 0 145 -45t64 -118q2 -11 -8 -12l-152 -30q-11 -2 -12 8q-7 37 -33 37q-29 0 -29 -42v-93q0 -6 6 -6h129q10 0 10 -10v-115
q0 -10 -10 -10h-129q-6 0 -6 -6v-9q0 -53 -33 -76v-2h257q10 0 10 -10v-143q0 -10 -10 -10z" />
    <glyph glyph-name="currency" unicode="&#xa4;" 
d="M551 105l-101 -102q-7 -7 -14 0l-63 62q-39 -16 -81 -16q-43 0 -82 16l-61 -61q-7 -7 -14 0l-101 102q-7 7 0 14l62 62q-32 78 0 156l-63 63q-7 7 0 14l101 102q7 7 14 0l62 -63q40 17 82 17q41 0 81 -17l63 63q7 7 14 0l101 -102q7 -7 0 -14l-63 -63q29 -78 0 -156
l63 -63q7 -7 0 -14zM240 208q21 -21 52 -21t51 21q21 21 21 52t-21 52q-20 21 -51 21t-52 -21q-20 -21 -20 -52t20 -52z" />
    <glyph glyph-name="yen" unicode="&#xa5;" 
d="M379 0h-180q-10 0 -10 10v108q0 6 -6 6h-106q-10 0 -10 10v63q0 10 10 10h106q6 0 6 6v23q0 6 -6 6h-106q-10 0 -10 10v63q0 10 10 10h81v2l-142 343q-4 10 7 10h189q12 0 16 -10l62 -213h3l60 213q4 10 16 10h186q11 0 7 -10l-142 -343v-2h81q10 0 10 -10v-63
q0 -10 -10 -10h-106q-6 0 -6 -6v-23q0 -6 6 -6h106q10 0 10 -10v-63q0 -10 -10 -10h-106q-6 0 -6 -6v-108q0 -10 -10 -10z" />
    <glyph glyph-name="brokenbar" unicode="&#xa6;" horiz-adv-x="336" 
d="M246 388h-156q-10 0 -10 10v332q0 10 10 10h156q10 0 10 -10v-332q0 -10 -10 -10zM246 -84h-156q-10 0 -10 10v336q0 10 10 10h156q10 0 10 -10v-336q0 -10 -10 -10z" />
    <glyph glyph-name="section" unicode="&#xa7;" horiz-adv-x="500" 
d="M246 -196q-92 0 -149 45q-57 46 -61 113q0 10 8 12l148 20q10 1 11 -8q4 -37 40 -37q38 0 38 33q0 22 -18 36t-67 29q-89 26 -129.5 73.5t-40.5 127.5q0 85 77 144v2q-57 46 -57 129q0 73 57 123q58 50 150 50q90 0 146 -47q54 -46 62 -114q2 -11 -8 -12l-145 -19
q-10 -2 -11 8q-6 39 -40 39q-37 0 -37 -32q0 -37 84 -62q87 -27 128.5 -74.5t41.5 -126.5q0 -87 -77 -144v-2q58 -46 58 -133q0 -76 -57 -124q-55 -49 -152 -49zM213 211q14 -15 37 -15t36 15q14 16 14 41t-14 40q-13 16 -36 16t-37 -16q-13 -15 -13 -40t13 -41z" />
    <glyph glyph-name="dieresis" unicode="&#xa8;" horiz-adv-x="530" 
d="M433 536h-126q-10 0 -10 10v124q0 10 10 10h126q10 0 10 -10v-124q0 -10 -10 -10zM223 536h-126q-10 0 -10 10v124q0 10 10 10h126q10 0 10 -10v-124q0 -10 -10 -10z" />
    <glyph glyph-name="copyright" unicode="&#xa9;" horiz-adv-x="774" 
d="M639 86q-100 -100 -252 -100q-153 0 -253 100t-100 253t100 253t253 100q152 0 252 -100q101 -101 101 -253t-101 -253zM196 148q74 -74 191 -74q116 0 190 74q74 76 74 191q0 116 -74 190q-73 75 -190 75t-191 -75q-73 -73 -73 -190t73 -191zM392 146q-66 0 -114 30
t-66 85q-10 27 -10 80t10 80q18 55 66 85t114 30q63 0 111 -28t64 -72q4 -10 -6 -13l-109 -45q-9 -4 -13 5q-12 30 -41 30q-26 0 -34 -23q-4 -11 -4 -49t4 -49q8 -23 34 -23q29 0 41 30q4 9 13 5l109 -45q10 -3 6 -13q-16 -44 -64 -72t-111 -28z" />
    <glyph glyph-name="ordfeminine" unicode="&#xaa;" horiz-adv-x="383" 
d="M329 392h-101q-10 0 -10 10v14h-1q-24 -30 -79 -30q-46 0 -74 22.5t-28 66.5q0 45 35.5 70.5t97.5 25.5h43q6 0 6 6v4q0 22 -53 22q-40 0 -69 -19q-10 -6 -14 4l-33 56q-5 10 4 14q49 31 126 31q83 0 121.5 -26t38.5 -84v-177q0 -10 -10 -10zM178 464q40 0 40 23v11
q0 6 -6 6h-34q-27 0 -27 -20t27 -20z" />
    <glyph glyph-name="guillemotleft" unicode="&#xab;" horiz-adv-x="612" 
d="M557 6l-255 251q-7 7 0 14l255 251q3 3 6.5 1.5t3.5 -5.5v-162q0 -8 -10 -18l-71 -70q-4 -4 0 -8l71 -70q10 -10 10 -18v-162q0 -4 -3.5 -5.5t-6.5 1.5zM277 6l-255 251q-7 7 0 14l255 251q3 3 6.5 1.5t3.5 -5.5v-162q0 -8 -10 -18l-71 -70q-4 -4 0 -8l71 -70
q10 -10 10 -18v-162q0 -4 -3.5 -5.5t-6.5 1.5z" />
    <glyph glyph-name="logicalnot" unicode="&#xac;" 
d="M518 66h-148q-10 0 -10 10v112q0 6 -6 6h-302q-10 0 -10 10v144q0 10 10 10h466q10 0 10 -10v-272q0 -10 -10 -10z" />
    <glyph glyph-name="uni00AD" unicode="&#xad;" horiz-adv-x="408" 
d="M362 179h-316q-10 0 -10 10v152q0 10 10 10h316q10 0 10 -10v-152q0 -10 -10 -10z" />
    <glyph glyph-name="registered" unicode="&#xae;" horiz-adv-x="431" 
d="M354 356q-55 -55 -138 -55q-84 0 -139 55q-56 56 -56 137q0 82 56 136q55 55 139 55q83 0 138 -55q56 -54 56 -136q0 -81 -56 -137zM363 493q0 66 -41 107.5t-106 41.5t-106.5 -41.5t-41.5 -107.5q0 -67 41.5 -108.5t106.5 -41.5t106 41.5t41 108.5zM193 388h-59
q-7 0 -7 7v198q0 7 7 7h99q41 0 63 -19.5t22 -52.5q0 -44 -35 -62l33 -71q2 -2 0.5 -4.5t-5.5 -2.5h-64q-7 0 -10 7l-26 60h-7q-4 0 -4 -4v-56q0 -7 -7 -7zM204 509h19q21 0 21 18t-21 18h-19q-4 0 -4 -4v-28q0 -4 4 -4z" />
    <glyph glyph-name="overscore" unicode="&#xaf;" horiz-adv-x="530" 
d="M427 548h-324q-10 0 -10 10v108q0 10 10 10h324q10 0 10 -10v-108q0 -10 -10 -10z" />
    <glyph glyph-name="degree" unicode="&#xb0;" horiz-adv-x="370" 
d="M303 415q-47 -47 -118 -47t-118 47t-47 117t47 117t118 47t118 -47t47 -117t-47 -117zM150 496q14 -13 35 -13t34 13q14 14 14 36t-14 35q-13 14 -34 14t-35 -14q-13 -13 -13 -35t13 -36z" />
    <glyph glyph-name="plusminus" unicode="&#xb1;" 
d="M359 200h-148q-10 0 -10 10v142q0 6 -6 6h-143q-10 0 -10 10v144q0 10 10 10h143q6 0 6 6v142q0 10 10 10h148q10 0 10 -10v-142q0 -6 6 -6h143q10 0 10 -10v-144q0 -10 -10 -10h-143q-6 0 -6 -6v-142q0 -10 -10 -10zM518 0h-466q-10 0 -10 10v144q0 10 10 10h466
q10 0 10 -10v-144q0 -10 -10 -10z" />
    <glyph glyph-name="twosuperior" unicode="&#xb2;" horiz-adv-x="376" 
d="M336 430h-296q-10 0 -10 10v87q0 14 10 21l147 125q21 18 21 38q0 24 -24 24q-26 0 -28 -32q0 -12 -11 -10l-106 12q-9 1 -9 11q2 58 46 92.5t118 34.5q65 0 108 -34q44 -33 44 -96t-60 -111l-70 -56v-1h120q10 0 10 -10v-95q0 -10 -10 -10z" />
    <glyph glyph-name="threesuperior" unicode="&#xb3;" horiz-adv-x="376" 
d="M191 423q-68 0 -110.5 29.5t-50.5 80.5q-2 10 8 11l105 13q10 1 14 -7q7 -19 29 -19q27 0 27 26q0 27 -35 27h-10q-10 0 -10 10v84q0 10 10 10h12q27 0 27 23q0 24 -24 24q-22 0 -26 -19q-3 -10 -12 -9l-107 14q-10 1 -8 11q9 51 51 81t109 30q73 0 114 -32t41 -82
t-48 -80v-2q54 -25 54 -95q0 -58 -44 -93.5t-116 -35.5z" />
    <glyph glyph-name="acute" unicode="&#xb4;" horiz-adv-x="530" 
d="M284 540h-143q-9 0 -5 10l83 144q7 10 17 10h165q4 0 5.5 -3.5t-0.5 -6.5l-106 -144q-7 -10 -16 -10z" />
    <glyph glyph-name="mu" unicode="&#xb5;" horiz-adv-x="605" 
d="M232 -180h-180q-10 0 -10 10v650q0 10 10 10h180q10 0 10 -10v-278q0 -50 45 -50t45 50v278q0 10 10 10h180q10 0 10 -10v-288q0 -10 1 -16t7.5 -12t19.5 -6q10 0 10 -10v-142q0 -12 -10 -12h-24q-83 0 -116 11q-30 12 -49 41l-4 6h-1q-33 -62 -111 -62h-13v-4v-156
q0 -10 -10 -10z" />
    <glyph glyph-name="paragraph" unicode="&#xb6;" horiz-adv-x="702" 
d="M636 -180h-134q-10 0 -10 10v719q0 6 -6 6h-68q-6 0 -6 -6v-719q0 -10 -10 -10h-134q-10 0 -10 10v360q-97 8 -159 73q-63 67 -63 172q0 110 70 177q71 68 189 68h341q10 0 10 -10v-840q0 -10 -10 -10z" />
    <glyph glyph-name="middot" unicode="&#xb7;" horiz-adv-x="268" 
d="M214 175h-160q-10 0 -10 10v160q0 10 10 10h160q10 0 10 -10v-160q0 -10 -10 -10z" />
    <glyph glyph-name="cedilla" unicode="&#xb8;" horiz-adv-x="530" 
d="M311 -172h-138q-10 0 -7 10l64 162q4 10 16 10h120q10 0 7 -10l-47 -162q-3 -10 -15 -10z" />
    <glyph glyph-name="onesuperior" unicode="&#xb9;" horiz-adv-x="376" 
d="M272 430h-123q-10 0 -10 10v256h-2l-67 -37q-4 -2 -7 0t-3 6v112q0 11 9 15l63 38q9 6 17 6h123q10 0 10 -10v-386q0 -10 -10 -10z" />
    <glyph glyph-name="ordmasculine" unicode="&#xba;" horiz-adv-x="406" 
d="M48 474q-19 62 0 124q14 43 54.5 67t100.5 24t100.5 -24t54.5 -67q19 -62 0 -124q-14 -43 -54.5 -67t-100.5 -24t-100.5 24t-54.5 67zM234 500q3 8 3 36t-3 36q-8 21 -31 21t-31 -21q-3 -8 -3 -36t3 -36q8 -21 31 -21q24 0 31 21z" />
    <glyph glyph-name="guillemotright" unicode="&#xbb;" horiz-adv-x="612" 
d="M597 257l-255 -251q-3 -3 -6.5 -1.5t-3.5 5.5v162q0 8 10 18l71 70q4 4 0 8l-71 70q-10 10 -10 18v162q0 4 3.5 5.5t6.5 -1.5l255 -251q7 -7 0 -14zM317 257l-255 -251q-3 -3 -6.5 -1.5t-3.5 5.5v162q0 8 10 18l71 70q4 4 0 8l-71 70q-10 10 -10 18v162q0 4 3.5 5.5
t6.5 -1.5l255 -251q7 -7 0 -14z" />
    <glyph glyph-name="onequarter" unicode="&#xbc;" horiz-adv-x="948" 
d="M830 0h-109q-10 0 -10 10v32q0 6 -6 6h-169q-10 0 -10 10v102q0 7 5 20l97 216q4 10 15 10h127q11 0 7 -10l-104 -230v-3h32q6 0 6 6v42q0 10 10 10h109q10 0 10 -10v-42q0 -6 5 -6h13q10 0 10 -10v-95q0 -10 -10 -10h-12q-6 0 -6 -6v-32q0 -10 -10 -10zM316 -12h-122
q-10 0 -4 10l395 684q6 10 16 10h122q10 0 4 -10l-395 -684q-6 -10 -16 -10zM292 274h-123q-10 0 -10 10v256h-2l-67 -37q-10 -6 -10 6v112q0 11 9 15l63 38q9 6 17 6h123q10 0 10 -10v-386q0 -10 -10 -10z" />
    <glyph glyph-name="onehalf" unicode="&#xbd;" horiz-adv-x="966" 
d="M876 0h-296q-10 0 -10 10v87q0 14 10 21l147 125q21 18 21 38q0 24 -24 24q-26 0 -28 -32q0 -12 -11 -10l-106 12q-9 1 -9 11q2 58 46 92.5t118 34.5q65 0 108 -34q44 -33 44 -96t-60 -111l-70 -56v-1h120q10 0 10 -10v-95q0 -10 -10 -10zM316 -12h-122q-10 0 -4 10
l395 684q6 10 16 10h122q10 0 4 -10l-395 -684q-6 -10 -16 -10zM292 274h-123q-10 0 -10 10v256h-2l-67 -37q-10 -6 -10 6v112q0 11 9 15l63 38q9 6 17 6h123q10 0 10 -10v-386q0 -10 -10 -10z" />
    <glyph glyph-name="threequarters" unicode="&#xbe;" horiz-adv-x="1003" 
d="M887 0h-109q-10 0 -10 10v32q0 6 -6 6h-169q-10 0 -10 10v102q0 7 5 20l97 216q4 10 15 10h127q11 0 7 -10l-104 -230v-3h32q6 0 6 6v42q0 10 10 10h109q10 0 10 -10v-42q0 -6 5 -6h13q10 0 10 -10v-95q0 -10 -10 -10h-12q-6 0 -6 -6v-32q0 -10 -10 -10zM244 267
q-68 0 -110.5 29.5t-50.5 80.5q-2 10 8 11l105 13q10 1 14 -7q7 -19 29 -19q27 0 27 26q0 27 -35 27h-10q-10 0 -10 10v84q0 10 10 10h12q27 0 27 23q0 24 -24 24q-22 0 -26 -19q-3 -10 -12 -9l-107 14q-10 1 -8 11q9 51 51 81t109 30q73 0 114 -32t41 -82t-48 -80v-2
q54 -25 54 -95q0 -58 -44 -93.5t-116 -35.5zM374 -12h-122q-10 0 -4 10l395 684q6 10 16 10h122q10 0 4 -10l-395 -684q-6 -10 -16 -10z" />
    <glyph glyph-name="questiondown" unicode="&#xbf;" horiz-adv-x="494" 
d="M175 268h160q10 0 10 -10v-40q0 -50 -34 -84l-48 -48q-50 -47 -50 -79q0 -20 12 -32.5t32 -12.5q43 0 53 49q2 11 11 9l152 -21q10 -1 8 -11q-10 -85 -71 -137q-62 -53 -157 -53q-103 0 -167 58q-64 57 -64 138q0 47 19 82t65 81l37 36q22 22 22 55v10q0 10 10 10z
M344 480v-140q0 -10 -10 -10h-160q-10 0 -10 10v140q0 10 10 10h160q10 0 10 -10z" />
    <glyph glyph-name="Agrave" unicode="&#xc0;" horiz-adv-x="708" 
d="M9 10l236 660q3 10 13 10h204q10 0 13 -10l230 -660q3 -10 -7 -10h-203q-10 0 -13 10l-25 89h-200l-25 -89q-3 -10 -13 -10h-203q-10 0 -7 10zM357 451l-52 -181h105l-50 181h-3zM439 738h-141q-11 0 -21 10l-134 132q-3 4 -1.5 7t6.5 3h167q11 0 18 -10l110 -132
q3 -4 1.5 -7t-5.5 -3z" />
    <glyph glyph-name="Aacute" unicode="&#xc1;" horiz-adv-x="708" 
d="M9 10l236 660q3 10 13 10h204q10 0 13 -10l230 -660q3 -10 -7 -10h-203q-10 0 -13 10l-25 89h-200l-25 -89q-3 -10 -13 -10h-203q-10 0 -7 10zM357 451l-52 -181h105l-50 181h-3zM422 738h-141q-4 0 -5.5 3t1.5 7l110 132q7 10 18 10h167q5 0 6.5 -3t-1.5 -7l-134 -132
q-10 -10 -21 -10z" />
    <glyph glyph-name="Acircumflex" unicode="&#xc2;" horiz-adv-x="708" 
d="M9 10l236 660q3 10 13 10h204q10 0 13 -10l230 -660q3 -10 -7 -10h-203q-10 0 -13 10l-25 89h-200l-25 -89q-3 -10 -13 -10h-203q-10 0 -7 10zM357 451l-52 -181h105l-50 181h-3zM539 734h-113q-14 0 -24 10l-44 44h-2l-44 -44q-10 -10 -24 -10h-113q-5 0 -6.5 3t1.5 7
l114 144q7 10 19 10h108q12 0 19 -10l114 -144q3 -4 1.5 -7t-6.5 -3z" />
    <glyph glyph-name="Atilde" unicode="&#xc3;" horiz-adv-x="708" 
d="M432 730q-39 0 -94 26q-37 17 -61 17q-37 0 -81 -33q-11 -8 -11 4v92q0 14 10 24q40 39 86 39q39 0 94 -26q37 -17 61 -17q38 0 81 33q11 8 11 -4v-92q0 -14 -10 -24q-40 -39 -86 -39zM9 10l236 660q3 10 13 10h204q10 0 13 -10l230 -660q3 -10 -7 -10h-203q-10 0 -13 10
l-25 89h-200l-25 -89q-3 -10 -13 -10h-203q-10 0 -7 10zM357 451l-52 -181h105l-50 181h-3z" />
    <glyph glyph-name="Adieresis" unicode="&#xc4;" horiz-adv-x="708" 
d="M9 10l236 660q3 10 13 10h204q10 0 13 -10l230 -660q3 -10 -7 -10h-203q-10 0 -13 10l-25 89h-200l-25 -89q-3 -10 -13 -10h-203q-10 0 -7 10zM357 451l-52 -181h105l-50 181h-3zM525 739h-126q-10 0 -10 10v124q0 10 10 10h126q10 0 10 -10v-124q0 -10 -10 -10zM315 739
h-126q-10 0 -10 10v124q0 10 10 10h126q10 0 10 -10v-124q0 -10 -10 -10z" />
    <glyph glyph-name="Aring" unicode="&#xc5;" horiz-adv-x="708" 
d="M445 728q-34 -34 -88 -34t-89 34q-35 35 -35 88q0 52 35 87q37 35 89 35q53 0 88 -35q36 -35 36 -87q0 -54 -36 -88zM328 786q12 -11 29 -11t28 11q12 12 12 30t-12 29q-11 12 -28 12t-29 -12q-11 -11 -11 -29t11 -30zM9 10l236 660q3 10 13 10h204q10 0 13 -10l230 -660
q3 -10 -7 -10h-203q-10 0 -13 10l-25 89h-200l-25 -89q-3 -10 -13 -10h-203q-10 0 -7 10zM357 451l-52 -181h105l-50 181h-3z" />
    <glyph glyph-name="AE" unicode="&#xc6;" horiz-adv-x="935" 
d="M900 0h-455q-10 0 -10 10v83q0 6 -6 6h-161l-35 -89q-4 -10 -14 -10h-201q-10 0 -6 10l286 660q4 10 14 10h588q10 0 10 -10v-154q0 -10 -10 -10h-251q-6 0 -6 -6v-66q0 -6 6 -6h201q10 0 10 -10v-150q0 -10 -10 -10h-201q-6 0 -6 -6v-72q0 -6 6 -6h251q10 0 10 -10v-154
q0 -10 -10 -10zM435 506h-4l-94 -236h92q6 0 6 6v230z" />
    <glyph glyph-name="Ccedilla" unicode="&#xc7;" horiz-adv-x="572" 
d="M319 -172h-138q-10 0 -7 10l61 156q-141 27 -184 162q-21 63 -21 184t21 184q27 83 91.5 125.5t160.5 42.5q95 0 160 -41.5t93 -118.5q4 -9 -5 -14l-161 -69q-11 -5 -15 7q-23 50 -67 50t-58 -41q-8 -27 -8 -125t8 -125q14 -41 58 -41t67 50q4 12 15 7l161 -69
q9 -5 5 -14q-45 -123 -176 -152l-46 -158q-1 -10 -15 -10z" />
    <glyph glyph-name="Egrave" unicode="&#xc8;" horiz-adv-x="549" 
d="M44 10v660q0 10 10 10h455q10 0 10 -10v-154q0 -10 -10 -10h-251q-6 0 -6 -6v-66q0 -6 6 -6h201q10 0 10 -10v-150q0 -10 -10 -10h-201q-6 0 -6 -6v-72q0 -6 6 -6h251q10 0 10 -10v-154q0 -10 -10 -10h-455q-10 0 -10 10zM372 738h-141q-11 0 -21 10l-134 132
q-3 4 -1.5 7t6.5 3h167q11 0 18 -10l110 -132q3 -4 1.5 -7t-5.5 -3z" />
    <glyph glyph-name="Eacute" unicode="&#xc9;" horiz-adv-x="549" 
d="M44 10v660q0 10 10 10h455q10 0 10 -10v-154q0 -10 -10 -10h-251q-6 0 -6 -6v-66q0 -6 6 -6h201q10 0 10 -10v-150q0 -10 -10 -10h-201q-6 0 -6 -6v-72q0 -6 6 -6h251q10 0 10 -10v-154q0 -10 -10 -10h-455q-10 0 -10 10zM313 738h-141q-4 0 -5.5 3t1.5 7l110 132
q7 10 18 10h167q5 0 6.5 -3t-1.5 -7l-134 -132q-10 -10 -21 -10z" />
    <glyph glyph-name="Ecircumflex" unicode="&#xca;" horiz-adv-x="549" 
d="M44 10v660q0 10 10 10h455q10 0 10 -10v-154q0 -10 -10 -10h-251q-6 0 -6 -6v-66q0 -6 6 -6h201q10 0 10 -10v-150q0 -10 -10 -10h-201q-6 0 -6 -6v-72q0 -6 6 -6h251q10 0 10 -10v-154q0 -10 -10 -10h-455q-10 0 -10 10zM465 734h-113q-14 0 -24 10l-44 44h-2l-44 -44
q-10 -10 -24 -10h-113q-5 0 -6.5 3t1.5 7l114 144q7 10 19 10h108q12 0 19 -10l114 -144q3 -4 1.5 -7t-6.5 -3z" />
    <glyph glyph-name="Edieresis" unicode="&#xcb;" horiz-adv-x="549" 
d="M44 10v660q0 10 10 10h455q10 0 10 -10v-154q0 -10 -10 -10h-251q-6 0 -6 -6v-66q0 -6 6 -6h201q10 0 10 -10v-150q0 -10 -10 -10h-201q-6 0 -6 -6v-72q0 -6 6 -6h251q10 0 10 -10v-154q0 -10 -10 -10h-455q-10 0 -10 10zM449 739h-126q-10 0 -10 10v124q0 10 10 10h126
q10 0 10 -10v-124q0 -10 -10 -10zM239 739h-126q-10 0 -10 10v124q0 10 10 10h126q10 0 10 -10v-124q0 -10 -10 -10z" />
    <glyph glyph-name="Igrave" unicode="&#xcc;" horiz-adv-x="298" 
d="M235 738h-141q-11 0 -21 10l-134 132q-3 4 -1.5 7t6.5 3h167q11 0 18 -10l110 -132q8 -10 -4 -10zM46 10v660q0 10 10 10h190q10 0 10 -10v-660q0 -10 -10 -10h-190q-10 0 -10 10z" />
    <glyph glyph-name="Iacute" unicode="&#xcd;" horiz-adv-x="298" 
d="M208 738h-141q-12 0 -4 10l110 132q7 10 18 10h167q5 0 6.5 -3t-1.5 -7l-134 -132q-10 -10 -21 -10zM44 10v660q0 10 10 10h190q10 0 10 -10v-660q0 -10 -10 -10h-190q-10 0 -10 10z" />
    <glyph glyph-name="Icircumflex" unicode="&#xce;" horiz-adv-x="298" 
d="M333 734h-113q-14 0 -24 10l-44 44h-2l-44 -44q-10 -10 -24 -10h-113q-5 0 -6.5 3t1.5 7l114 144q7 10 19 10h108q12 0 19 -10l114 -144q3 -4 1.5 -7t-6.5 -3zM46 10v660q0 10 10 10h190q10 0 10 -10v-660q0 -10 -10 -10h-190q-10 0 -10 10z" />
    <glyph glyph-name="Idieresis" unicode="&#xcf;" horiz-adv-x="298" 
d="M317 739h-126q-10 0 -10 10v124q0 10 10 10h126q10 0 10 -10v-124q0 -10 -10 -10zM107 739h-126q-10 0 -10 10v124q0 10 10 10h126q10 0 10 -10v-124q0 -10 -10 -10zM44 10v660q0 10 10 10h190q10 0 10 -10v-660q0 -10 -10 -10h-190q-10 0 -10 10z" />
    <glyph glyph-name="Eth" unicode="&#xd0;" horiz-adv-x="635" 
d="M327 0h-273q-10 0 -10 10v259q0 6 -6 6h-26q-10 0 -10 10v117q0 10 10 10h26q6 0 6 6v252q0 10 10 10h273q199 0 252 -158q21 -64 21 -182t-21 -182q-53 -158 -252 -158zM260 186h24q43 0 64.5 11.5t30.5 40.5q9 27 9 102t-9 102q-9 29 -30.5 40.5t-64.5 11.5h-24
q-6 0 -6 -6v-70q0 -6 6 -6h54q10 0 10 -10v-117q0 -10 -10 -10h-54q-6 0 -6 -6v-77q0 -6 6 -6z" />
    <glyph glyph-name="Ntilde" unicode="&#xd1;" horiz-adv-x="650" 
d="M44 10v660q0 10 10 10h179q13 0 17 -10l162 -335h5v335q0 10 10 10h169q10 0 10 -10v-660q0 -10 -10 -10h-179q-13 0 -17 10l-161 335h-6v-335q0 -10 -10 -10h-169q-10 0 -10 10zM400 730q-39 0 -94 26q-37 17 -61 17q-37 0 -81 -33q-11 -8 -11 4v92q0 14 10 24
q40 39 86 39q39 0 94 -26q37 -17 61 -17q38 0 81 33q11 8 11 -4v-92q0 -14 -10 -24q-40 -39 -86 -39z" />
    <glyph glyph-name="Ograve" unicode="&#xd2;" horiz-adv-x="628" 
d="M51 157q-21 66 -21 183t21 183q27 82 96.5 125.5t166.5 43.5t166.5 -43.5t96.5 -125.5q21 -67 21 -183q0 -117 -21 -183q-27 -82 -96.5 -125.5t-166.5 -43.5t-166.5 43.5t-96.5 125.5zM378 217q8 27 8 123t-8 123q-13 43 -64 43t-64 -43q-8 -27 -8 -123t8 -123
q13 -43 64 -43t64 43zM397 738h-141q-11 0 -21 10l-134 132q-3 4 -1.5 7t6.5 3h167q11 0 18 -10l110 -132q8 -10 -4 -10z" />
    <glyph glyph-name="Oacute" unicode="&#xd3;" horiz-adv-x="628" 
d="M51 157q-21 66 -21 183t21 183q27 82 96.5 125.5t166.5 43.5t166.5 -43.5t96.5 -125.5q21 -67 21 -183q0 -117 -21 -183q-27 -82 -96.5 -125.5t-166.5 -43.5t-166.5 43.5t-96.5 125.5zM378 217q8 27 8 123t-8 123q-13 43 -64 43t-64 -43q-8 -27 -8 -123t8 -123
q13 -43 64 -43t64 43zM372 738h-141q-12 0 -4 10l110 132q7 10 18 10h167q5 0 6.5 -3t-1.5 -7l-134 -132q-10 -10 -21 -10z" />
    <glyph glyph-name="Ocircumflex" unicode="&#xd4;" horiz-adv-x="628" 
d="M51 157q-21 66 -21 183t21 183q27 82 96.5 125.5t166.5 43.5t166.5 -43.5t96.5 -125.5q21 -67 21 -183q0 -117 -21 -183q-27 -82 -96.5 -125.5t-166.5 -43.5t-166.5 43.5t-96.5 125.5zM378 217q8 27 8 123t-8 123q-13 43 -64 43t-64 -43q-8 -27 -8 -123t8 -123
q13 -43 64 -43t64 43zM496 734h-113q-14 0 -24 10l-44 44h-2l-44 -44q-10 -10 -24 -10h-113q-5 0 -6.5 3t1.5 7l114 144q7 10 19 10h108q12 0 19 -10l114 -144q3 -4 1.5 -7t-6.5 -3z" />
    <glyph glyph-name="Otilde" unicode="&#xd5;" horiz-adv-x="628" 
d="M51 157q-21 66 -21 183t21 183q27 82 96.5 125.5t166.5 43.5t166.5 -43.5t96.5 -125.5q21 -67 21 -183q0 -117 -21 -183q-27 -82 -96.5 -125.5t-166.5 -43.5t-166.5 43.5t-96.5 125.5zM378 217q8 27 8 123t-8 123q-13 43 -64 43t-64 -43q-8 -27 -8 -123t8 -123
q13 -43 64 -43t64 43zM390 730q-39 0 -94 26q-37 17 -61 17q-37 0 -81 -33q-11 -8 -11 4v92q0 14 10 24q41 39 86 39q39 0 94 -26q37 -17 61 -17q38 0 81 33q11 8 11 -4v-92q0 -14 -10 -24q-40 -39 -86 -39z" />
    <glyph glyph-name="Odieresis" unicode="&#xd6;" horiz-adv-x="628" 
d="M51 157q-21 66 -21 183t21 183q27 82 96.5 125.5t166.5 43.5t166.5 -43.5t96.5 -125.5q21 -67 21 -183q0 -117 -21 -183q-27 -82 -96.5 -125.5t-166.5 -43.5t-166.5 43.5t-96.5 125.5zM378 217q8 27 8 123t-8 123q-13 43 -64 43t-64 -43q-8 -27 -8 -123t8 -123
q13 -43 64 -43t64 43zM482 739h-126q-10 0 -10 10v124q0 10 10 10h126q10 0 10 -10v-124q0 -10 -10 -10zM272 739h-126q-10 0 -10 10v124q0 10 10 10h126q10 0 10 -10v-124q0 -10 -10 -10z" />
    <glyph glyph-name="multiply" unicode="&#xd7;" 
d="M524 141l-97 -97q-7 -8 -14 0l-118 117q-4 4 -8 0l-118 -117q-7 -8 -14 0l-96 96q-7 7 0 14l117 117q4 5 0 9l-117 117q-7 7 0 14l98 98q7 7 14 0l117 -118q4 -3 9 0l117 118q7 7 14 0l96 -96q8 -8 0 -14l-117 -118q-5 -5 0 -8l117 -118q8 -7 0 -14z" />
    <glyph glyph-name="Oslash" unicode="&#xd8;" horiz-adv-x="628" 
d="M320 -12q-80 0 -143 30l-25 -38q-6 -10 -17 -10h-124q-11 0 -5 10l79 118q-17 24 -28 59q-21 66 -21 183t21 183q27 82 96.5 125.5t166.5 43.5q80 0 142 -30l26 38q6 10 17 10h124q11 0 5 -10l-79 -119q17 -27 28 -58q21 -67 21 -183q0 -117 -21 -183
q-27 -82 -96.5 -125.5t-166.5 -43.5zM384 217q8 27 8 123t-8 123q-13 43 -64 43t-64 -43q-8 -27 -8 -123t8 -123q13 -43 64 -43t64 43z" />
    <glyph glyph-name="Ugrave" unicode="&#xd9;" horiz-adv-x="650" 
d="M326 -12q-135 0 -209 74t-74 215v393q0 10 10 10h190q10 0 10 -10v-411q0 -85 72 -85t72 85v411q0 10 10 10h190q10 0 10 -10v-393q0 -141 -73.5 -215t-207.5 -74zM407 738h-141q-11 0 -21 10l-134 132q-3 4 -1.5 7t6.5 3h167q11 0 18 -10l110 -132q8 -10 -4 -10z" />
    <glyph glyph-name="Uacute" unicode="&#xda;" horiz-adv-x="650" 
d="M326 -12q-135 0 -209 74t-74 215v393q0 10 10 10h190q10 0 10 -10v-411q0 -85 72 -85t72 85v411q0 10 10 10h190q10 0 10 -10v-393q0 -141 -73.5 -215t-207.5 -74zM388 738h-141q-12 0 -4 10l110 132q7 10 18 10h167q5 0 6.5 -3t-1.5 -7l-134 -132q-10 -10 -21 -10z" />
    <glyph glyph-name="Ucircumflex" unicode="&#xdb;" horiz-adv-x="650" 
d="M326 -12q-135 0 -209 74t-74 215v393q0 10 10 10h190q10 0 10 -10v-411q0 -85 72 -85t72 85v411q0 10 10 10h190q10 0 10 -10v-393q0 -141 -73.5 -215t-207.5 -74zM507 734h-113q-14 0 -24 10l-44 44h-2l-44 -44q-10 -10 -24 -10h-113q-5 0 -6.5 3t1.5 7l114 144
q7 10 19 10h108q12 0 19 -10l114 -144q3 -4 1.5 -7t-6.5 -3z" />
    <glyph glyph-name="Udieresis" unicode="&#xdc;" horiz-adv-x="650" 
d="M326 -12q-135 0 -209 74t-74 215v393q0 10 10 10h190q10 0 10 -10v-411q0 -85 72 -85t72 85v411q0 10 10 10h190q10 0 10 -10v-393q0 -141 -73.5 -215t-207.5 -74zM493 739h-126q-10 0 -10 10v124q0 10 10 10h126q10 0 10 -10v-124q0 -10 -10 -10zM283 739h-126
q-10 0 -10 10v124q0 10 10 10h126q10 0 10 -10v-124q0 -10 -10 -10z" />
    <glyph glyph-name="Yacute" unicode="&#xdd;" horiz-adv-x="641" 
d="M421 0h-190q-10 0 -10 10v244l-211 415q-5 11 7 11h189q11 0 17 -10l104 -213h3l101 213q4 10 17 10h187q12 0 7 -11l-211 -415v-244q0 -10 -10 -10zM390 738h-141q-4 0 -5.5 3t1.5 7l110 132q7 10 18 10h167q5 0 6.5 -3t-1.5 -7l-134 -132q-10 -10 -21 -10z" />
    <glyph glyph-name="Thorn" unicode="&#xde;" horiz-adv-x="620" 
d="M243 0h-189q-10 0 -10 10v660q0 10 10 10h189q10 0 10 -10v-81q0 -6 6 -6h76q132 0 200.5 -62.5t68.5 -172.5q0 -104 -69 -170q-68 -65 -200 -65h-76q-6 0 -6 -6v-97q0 -10 -10 -10zM259 287h65q70 0 70 61t-70 61h-65q-6 0 -6 -6v-110q0 -6 6 -6z" />
    <glyph glyph-name="germandbls" unicode="&#xdf;" horiz-adv-x="598" 
d="M337 -6h-47q-10 0 -10 10v128q0 10 10 10h24q48 0 60 38q4 11 4 50t-4 50q-12 38 -60 38h-20q-10 0 -10 10v125q0 10 10 10h25q47 0 47 38q0 37 -59 37q-69 0 -69 -63v-465q0 -10 -10 -10h-176q-10 0 -10 10v465q0 110 64 163.5t201 53.5q118 0 185.5 -48t67.5 -128
q0 -84 -59 -122v-2q47 -22 63 -75q10 -29 10 -93q0 -83 -12 -119q-20 -59 -74 -85t-151 -26z" />
    <glyph glyph-name="agrave" unicode="&#xe0;" horiz-adv-x="537" 
d="M488 0h-169q-10 0 -10 10v24h-1q-43 -46 -128 -46q-69 0 -112.5 39.5t-43.5 111.5q0 79 58 121.5t157 42.5h65q6 0 6 6v8q0 19 -18 26.5t-68 7.5q-62 0 -102 -25q-9 -4 -13 3l-60 108q-6 11 3 17q73 48 200 48q133 0 189.5 -45t56.5 -145v-302q0 -10 -10 -10zM253 124
q57 0 57 35v26q0 6 -6 6h-47q-47 0 -47 -35q0 -32 43 -32zM376 540h-143q-9 0 -16 10l-106 144q-5 10 5 10h165q10 0 17 -10l83 -144q4 -10 -5 -10z" />
    <glyph glyph-name="aacute" unicode="&#xe1;" horiz-adv-x="537" 
d="M488 0h-169q-10 0 -10 10v24h-1q-43 -46 -128 -46q-69 0 -112.5 39.5t-43.5 111.5q0 79 58 121.5t157 42.5h65q6 0 6 6v8q0 19 -18 26.5t-68 7.5q-62 0 -102 -25q-9 -4 -13 3l-60 108q-6 11 3 17q73 48 200 48q133 0 189.5 -45t56.5 -145v-302q0 -10 -10 -10zM253 124
q57 0 57 35v26q0 6 -6 6h-47q-47 0 -47 -35q0 -32 43 -32zM336 540h-143q-9 0 -5 10l83 144q7 10 17 10h165q4 0 5.5 -3.5t-0.5 -6.5l-106 -144q-7 -10 -16 -10z" />
    <glyph glyph-name="acircumflex" unicode="&#xe2;" horiz-adv-x="537" 
d="M488 0h-169q-10 0 -10 10v24h-1q-43 -46 -128 -46q-69 0 -112.5 39.5t-43.5 111.5q0 79 58 121.5t157 42.5h65q6 0 6 6v8q0 19 -18 26.5t-68 7.5q-62 0 -102 -25q-9 -4 -13 3l-60 108q-6 11 3 17q73 48 200 48q133 0 189.5 -45t56.5 -145v-302q0 -10 -10 -10zM253 124
q57 0 57 35v26q0 6 -6 6h-47q-47 0 -47 -35q0 -32 43 -32zM450 538h-113q-14 0 -24 10l-44 44h-2l-44 -44q-10 -10 -24 -10h-113q-5 0 -6.5 3t1.5 7l114 144q7 10 19 10h108q12 0 19 -10l114 -144q3 -4 1.5 -7t-6.5 -3z" />
    <glyph glyph-name="atilde" unicode="&#xe3;" horiz-adv-x="537" 
d="M488 0h-169q-10 0 -10 10v24h-1q-43 -46 -128 -46q-69 0 -112.5 39.5t-43.5 111.5q0 79 58 121.5t157 42.5h65q6 0 6 6v8q0 19 -18 26.5t-68 7.5q-62 0 -102 -25q-9 -4 -13 3l-60 108q-6 11 3 17q73 48 200 48q133 0 189.5 -45t56.5 -145v-302q0 -10 -10 -10zM253 124
q57 0 57 35v26q0 6 -6 6h-47q-47 0 -47 -35q0 -32 43 -32zM344 536q-39 0 -94 26q-37 17 -61 17q-37 0 -81 -33q-11 -8 -11 4v92q0 14 10 24q41 39 86 39q39 0 94 -26q37 -17 61 -17q38 0 81 33q11 8 11 -4v-92q0 -14 -10 -24q-40 -39 -86 -39z" />
    <glyph glyph-name="adieresis" unicode="&#xe4;" horiz-adv-x="537" 
d="M488 0h-169q-10 0 -10 10v24h-1q-43 -46 -128 -46q-69 0 -112.5 39.5t-43.5 111.5q0 79 58 121.5t157 42.5h65q6 0 6 6v8q0 19 -18 26.5t-68 7.5q-62 0 -102 -25q-9 -4 -13 3l-60 108q-6 11 3 17q73 48 200 48q133 0 189.5 -45t56.5 -145v-302q0 -10 -10 -10zM253 124
q57 0 57 35v26q0 6 -6 6h-47q-47 0 -47 -35q0 -32 43 -32zM436 536h-126q-10 0 -10 10v124q0 10 10 10h126q10 0 10 -10v-124q0 -10 -10 -10zM226 536h-126q-10 0 -10 10v124q0 10 10 10h126q10 0 10 -10v-124q0 -10 -10 -10z" />
    <glyph glyph-name="aring" unicode="&#xe5;" horiz-adv-x="537" 
d="M488 0h-169q-10 0 -10 10v24h-1q-43 -46 -128 -46q-69 0 -112.5 39.5t-43.5 111.5q0 79 58 121.5t157 42.5h65q6 0 6 6v8q0 19 -18 26.5t-68 7.5q-62 0 -102 -25q-9 -4 -13 3l-60 108q-6 11 3 17q73 48 200 48q133 0 189.5 -45t56.5 -145v-302q0 -10 -10 -10zM253 124
q57 0 57 35v26q0 6 -6 6h-47q-47 0 -47 -35q0 -32 43 -32zM356 546q-34 -34 -88 -34t-89 34q-35 35 -35 88q0 52 35 87q37 35 89 35q53 0 88 -35q36 -35 36 -87q0 -54 -36 -88zM239 604q12 -11 29 -11t28 11q12 12 12 30t-12 29q-11 12 -28 12t-29 -12q-11 -11 -11 -29
t11 -30z" />
    <glyph glyph-name="ae" unicode="&#xe6;" horiz-adv-x="822" 
d="M564 -12q-49 0 -93.5 17.5t-70.5 46.5h-1q-58 -64 -186 -64q-189 0 -189 151q0 79 58 121.5t157 42.5h65q6 0 6 6v8q0 19 -18 26.5t-68 7.5q-62 0 -102 -25q-9 -4 -13 3l-60 108q-6 11 3 17q73 48 200 48q92 0 166 -39h1q57 39 132 39q187 0 233 -145q15 -47 15 -156
q0 -10 -10 -10h-285q-6 0 -6 -6q0 -2 2 -10q14 -42 87 -42q55 0 107 36q8 5 14 -2l78 -86q7 -7 -2 -15q-88 -78 -220 -78zM504 303h100q6 0 6 6q0 15 -3 24q-10 34 -53 34t-53 -34q-3 -9 -3 -24q0 -6 6 -6zM253 124q57 0 57 35v26q0 6 -6 6h-47q-47 0 -47 -35q0 -32 43 -32z
" />
    <glyph glyph-name="ccedilla" unicode="&#xe7;" horiz-adv-x="504" 
d="M271 -172h-138q-10 0 -7 10l62 159q-116 27 -152 139q-13 38 -13 109t13 109q23 72 83 110t145 38q82 0 142 -39q62 -37 81 -96q3 -8 -5 -13l-141 -60q-12 -7 -17 4q-17 44 -52 44q-32 0 -42 -30q-5 -17 -5 -67t5 -67q10 -30 42 -30q35 0 52 44q5 11 17 4l141 -60
q8 -5 5 -13q-16 -46 -57.5 -80t-98.5 -47l-45 -158q-1 -10 -15 -10z" />
    <glyph glyph-name="egrave" unicode="&#xe8;" horiz-adv-x="539" 
d="M281 -12q-95 0 -157 38t-86 110q-15 45 -15 109t15 109q23 71 82.5 109.5t147.5 38.5q187 0 233 -145q15 -47 15 -156q0 -10 -10 -10h-285q-6 0 -6 -6q0 -2 2 -10q13 -42 87 -42q54 0 107 36q8 5 14 -2l78 -86q7 -7 -2 -15q-89 -78 -220 -78zM221 303h100q6 0 6 6
q0 15 -3 24q-10 34 -53 34t-53 -34q-3 -9 -3 -24q0 -6 6 -6zM354 540h-143q-9 0 -16 10l-106 144q-5 10 5 10h165q10 0 17 -10l83 -144q4 -10 -5 -10z" />
    <glyph glyph-name="eacute" unicode="&#xe9;" horiz-adv-x="539" 
d="M281 -12q-95 0 -157 38t-86 110q-15 45 -15 109t15 109q23 71 82.5 109.5t147.5 38.5q187 0 233 -145q15 -47 15 -156q0 -10 -10 -10h-285q-6 0 -6 -6q0 -2 2 -10q13 -42 87 -42q54 0 107 36q8 5 14 -2l78 -86q7 -7 -2 -15q-89 -78 -220 -78zM221 303h100q6 0 6 6
q0 15 -3 24q-10 34 -53 34t-53 -34q-3 -9 -3 -24q0 -6 6 -6zM333 540h-143q-9 0 -5 10l83 144q7 10 17 10h165q4 0 5.5 -3.5t-0.5 -6.5l-106 -144q-7 -10 -16 -10z" />
    <glyph glyph-name="ecircumflex" unicode="&#xea;" horiz-adv-x="539" 
d="M281 -12q-95 0 -157 38t-86 110q-15 45 -15 109t15 109q23 71 82.5 109.5t147.5 38.5q187 0 233 -145q15 -47 15 -156q0 -10 -10 -10h-285q-6 0 -6 -6q0 -2 2 -10q13 -42 87 -42q54 0 107 36q8 5 14 -2l78 -86q7 -7 -2 -15q-89 -78 -220 -78zM221 303h100q6 0 6 6
q0 15 -3 24q-10 34 -53 34t-53 -34q-3 -9 -3 -24q0 -6 6 -6zM451 538h-113q-14 0 -24 10l-44 44h-2l-44 -44q-10 -10 -24 -10h-113q-5 0 -6.5 3t1.5 7l114 144q7 10 19 10h108q12 0 19 -10l114 -144q3 -4 1.5 -7t-6.5 -3z" />
    <glyph glyph-name="edieresis" unicode="&#xeb;" horiz-adv-x="539" 
d="M281 -12q-95 0 -157 38t-86 110q-15 45 -15 109t15 109q23 71 82.5 109.5t147.5 38.5q187 0 233 -145q15 -47 15 -156q0 -10 -10 -10h-285q-6 0 -6 -6q0 -2 2 -10q13 -42 87 -42q54 0 107 36q8 5 14 -2l78 -86q7 -7 -2 -15q-89 -78 -220 -78zM221 303h100q6 0 6 6
q0 15 -3 24q-10 34 -53 34t-53 -34q-3 -9 -3 -24q0 -6 6 -6zM437 536h-126q-10 0 -10 10v124q0 10 10 10h126q10 0 10 -10v-124q0 -10 -10 -10zM227 536h-126q-10 0 -10 10v124q0 10 10 10h126q10 0 10 -10v-124q0 -10 -10 -10z" />
    <glyph glyph-name="igrave" unicode="&#xec;" horiz-adv-x="284" 
d="M216 540h-143q-9 0 -16 10l-106 144q-5 10 5 10h165q10 0 17 -10l83 -144q4 -10 -5 -10zM232 0h-180q-10 0 -10 10v470q0 10 10 10h180q10 0 10 -10v-470q0 -10 -10 -10z" />
    <glyph glyph-name="iacute" unicode="&#xed;" horiz-adv-x="284" 
d="M232 0h-180q-10 0 -10 10v470q0 10 10 10h180q10 0 10 -10v-470q0 -10 -10 -10zM211 540h-143q-9 0 -5 10l83 144q7 10 17 10h165q4 0 5.5 -3.5t-0.5 -6.5l-106 -144q-7 -10 -16 -10z" />
    <glyph glyph-name="icircumflex" unicode="&#xee;" horiz-adv-x="284" 
d="M326 538h-113q-14 0 -24 10l-44 44h-2l-44 -44q-10 -10 -24 -10h-113q-5 0 -6.5 3t1.5 7l114 144q7 10 19 10h108q12 0 19 -10l114 -144q3 -4 1.5 -7t-6.5 -3zM234 0h-180q-10 0 -10 10v470q0 10 10 10h180q10 0 10 -10v-470q0 -10 -10 -10z" />
    <glyph glyph-name="idieresis" unicode="&#xef;" horiz-adv-x="284" 
d="M310 536h-126q-10 0 -10 10v124q0 10 10 10h126q10 0 10 -10v-124q0 -10 -10 -10zM100 536h-126q-10 0 -10 10v124q0 10 10 10h126q10 0 10 -10v-124q0 -10 -10 -10zM232 0h-180q-10 0 -10 10v470q0 10 10 10h180q10 0 10 -10v-470q0 -10 -10 -10z" />
    <glyph glyph-name="eth" unicode="&#xf0;" horiz-adv-x="546" 
d="M439 556l-54 -16q81 -108 110 -175q28 -63 28 -139q0 -48 -13 -87q-23 -72 -85 -111.5t-152 -39.5q-91 0 -153 37.5t-83 102.5q-14 44 -14 87q0 54 13 92q19 58 64.5 91.5t110.5 33.5q28 0 64 -17h2l-56 77l-99 -29q-9 -2 -12 7l-24 82q-3 9 7 12l62 18l-63 88
q-3 4 -1.5 7t5.5 3h174q14 0 21 -9l29 -40l89 26q10 1 13 -7l24 -81q1 -10 -7 -13zM317 176q5 17 5 39q0 23 -5 40q-11 29 -44 29t-44 -29q-5 -17 -5 -40q0 -22 5 -39q11 -29 44 -29t44 29z" />
    <glyph glyph-name="ntilde" unicode="&#xf1;" horiz-adv-x="564" 
d="M514 0h-180q-10 0 -10 10v278q0 50 -41 50t-41 -50v-278q0 -10 -10 -10h-180q-10 0 -10 10v470q0 10 10 10h180q10 0 10 -10v-36h1q39 58 124 58q157 0 157 -183v-309q0 -10 -10 -10zM357 536q-39 0 -94 26q-37 17 -61 17q-38 0 -81 -33q-11 -8 -11 4v92q0 14 10 24
q40 39 86 39q39 0 94 -26q37 -17 61 -17q37 0 81 33q11 8 11 -4v-92q0 -14 -10 -24q-41 -39 -86 -39z" />
    <glyph glyph-name="ograve" unicode="&#xf2;" horiz-adv-x="546" 
d="M38 134q-15 45 -15 111t15 111q23 71 85 108.5t150 37.5t150 -37.5t85 -108.5q15 -45 15 -111t-15 -111q-23 -71 -85 -108.5t-150 -37.5t-150 37.5t-85 108.5zM315 176q6 20 6 69t-6 69q-9 28 -42 28t-42 -28q-6 -20 -6 -69t6 -69q9 -28 42 -28t42 28zM353 540h-143
q-9 0 -16 10l-106 144q-5 10 5 10h165q10 0 17 -10l83 -144q4 -10 -5 -10z" />
    <glyph glyph-name="oacute" unicode="&#xf3;" horiz-adv-x="546" 
d="M38 134q-15 45 -15 111t15 111q23 71 85 108.5t150 37.5t150 -37.5t85 -108.5q15 -45 15 -111t-15 -111q-23 -71 -85 -108.5t-150 -37.5t-150 37.5t-85 108.5zM315 176q6 20 6 69t-6 69q-9 28 -42 28t-42 -28q-6 -20 -6 -69t6 -69q9 -28 42 -28t42 28zM336 540h-143
q-9 0 -5 10l83 144q7 10 17 10h165q4 0 5.5 -3.5t-0.5 -6.5l-106 -144q-7 -10 -16 -10z" />
    <glyph glyph-name="ocircumflex" unicode="&#xf4;" horiz-adv-x="546" 
d="M38 134q-15 45 -15 111t15 111q23 71 85 108.5t150 37.5t150 -37.5t85 -108.5q15 -45 15 -111t-15 -111q-23 -71 -85 -108.5t-150 -37.5t-150 37.5t-85 108.5zM315 176q6 20 6 69t-6 69q-9 28 -42 28t-42 -28q-6 -20 -6 -69t6 -69q9 -28 42 -28t42 28zM455 538h-113
q-14 0 -24 10l-44 44h-2l-44 -44q-10 -10 -24 -10h-113q-5 0 -6.5 3t1.5 7l114 144q7 10 19 10h108q12 0 19 -10l114 -144q3 -4 1.5 -7t-6.5 -3z" />
    <glyph glyph-name="otilde" unicode="&#xf5;" horiz-adv-x="546" 
d="M38 134q-15 45 -15 111t15 111q23 71 85 108.5t150 37.5t150 -37.5t85 -108.5q15 -45 15 -111t-15 -111q-23 -71 -85 -108.5t-150 -37.5t-150 37.5t-85 108.5zM315 176q6 20 6 69t-6 69q-9 28 -42 28t-42 -28q-6 -20 -6 -69t6 -69q9 -28 42 -28t42 28zM348 536
q-39 0 -94 26q-37 17 -61 17q-37 0 -81 -33q-11 -8 -11 4v92q0 14 10 24q41 39 86 39q39 0 94 -26q37 -17 61 -17q38 0 81 33q11 8 11 -4v-92q0 -14 -10 -24q-40 -39 -86 -39z" />
    <glyph glyph-name="odieresis" unicode="&#xf6;" horiz-adv-x="546" 
d="M38 134q-15 45 -15 111t15 111q23 71 85 108.5t150 37.5t150 -37.5t85 -108.5q15 -45 15 -111t-15 -111q-23 -71 -85 -108.5t-150 -37.5t-150 37.5t-85 108.5zM315 176q6 20 6 69t-6 69q-9 28 -42 28t-42 -28q-6 -20 -6 -69t6 -69q9 -28 42 -28t42 28zM441 536h-126
q-10 0 -10 10v124q0 10 10 10h126q10 0 10 -10v-124q0 -10 -10 -10zM231 536h-126q-10 0 -10 10v124q0 10 10 10h126q10 0 10 -10v-124q0 -10 -10 -10z" />
    <glyph glyph-name="divide" unicode="&#xf7;" 
d="M352 418q-27 -27 -67 -27t-68 27q-27 28 -27 68t27 67q28 28 68 28t67 -28q28 -27 28 -67t-28 -68zM518 194h-466q-10 0 -10 10v144q0 10 10 10h466q10 0 10 -10v-144q0 -10 -10 -10zM352 -1q-27 -28 -67 -28t-68 28q-27 27 -27 67t27 67q28 28 68 28t67 -28
q28 -27 28 -67t-28 -67z" />
    <glyph glyph-name="oslash" unicode="&#xf8;" horiz-adv-x="546" 
d="M114 -30h-106q-12 0 -4 10l69 90q-21 24 -34 64q-15 45 -15 111t15 111q23 71 85 108.5t150 37.5q68 0 118 -22l23 30q7 10 19 10h106q12 0 4 -10l-70 -90q24 -28 35 -64q15 -45 15 -111t-15 -111q-23 -71 -85 -108.5t-150 -37.5q-66 0 -119 21l-22 -29q-7 -10 -19 -10z
M316 176q6 20 6 69t-6 69q-9 28 -42 28t-42 -28q-6 -20 -6 -69t6 -69q9 -28 42 -28t42 28z" />
    <glyph glyph-name="ugrave" unicode="&#xf9;" horiz-adv-x="562" 
d="M510 0h-180q-10 0 -10 10v36h-1q-39 -58 -124 -58q-156 0 -156 183v309q0 10 10 10h180q10 0 10 -10v-278q0 -50 41 -50q40 0 40 50v278q0 10 10 10h180q10 0 10 -10v-470q0 -10 -10 -10zM361 540h-143q-9 0 -16 10l-106 144q-5 10 5 10h165q10 0 17 -10l83 -144
q4 -10 -5 -10z" />
    <glyph glyph-name="uacute" unicode="&#xfa;" horiz-adv-x="562" 
d="M510 0h-180q-10 0 -10 10v36h-1q-39 -58 -124 -58q-156 0 -156 183v309q0 10 10 10h180q10 0 10 -10v-278q0 -50 41 -50q40 0 40 50v278q0 10 10 10h180q10 0 10 -10v-470q0 -10 -10 -10zM341 540h-143q-9 0 -5 10l83 144q7 10 17 10h165q4 0 5.5 -3.5t-0.5 -6.5
l-106 -144q-7 -10 -16 -10z" />
    <glyph glyph-name="ucircumflex" unicode="&#xfb;" horiz-adv-x="562" 
d="M510 0h-180q-10 0 -10 10v36h-1q-39 -58 -124 -58q-156 0 -156 183v309q0 10 10 10h180q10 0 10 -10v-278q0 -50 41 -50q40 0 40 50v278q0 10 10 10h180q10 0 10 -10v-470q0 -10 -10 -10zM463 538h-113q-14 0 -24 10l-44 44h-2l-44 -44q-10 -10 -24 -10h-113q-5 0 -6.5 3
t1.5 7l114 144q7 10 19 10h108q12 0 19 -10l114 -144q3 -4 1.5 -7t-6.5 -3z" />
    <glyph glyph-name="udieresis" unicode="&#xfc;" horiz-adv-x="562" 
d="M510 0h-180q-10 0 -10 10v36h-1q-39 -58 -124 -58q-156 0 -156 183v309q0 10 10 10h180q10 0 10 -10v-278q0 -50 41 -50q40 0 40 50v278q0 10 10 10h180q10 0 10 -10v-470q0 -10 -10 -10zM449 536h-126q-10 0 -10 10v124q0 10 10 10h126q10 0 10 -10v-124q0 -10 -10 -10z
M239 536h-126q-10 0 -10 10v124q0 10 10 10h126q10 0 10 -10v-124q0 -10 -10 -10z" />
    <glyph glyph-name="yacute" unicode="&#xfd;" horiz-adv-x="559" 
d="M144 -180h-41q-10 0 -10 10v140q0 10 10 10h30q42 0 54 32l9 25l-188 443q-4 10 7 10h189q10 0 13 -10l70 -201h2l64 201q3 10 13 10h186q11 0 7 -10l-229 -551q-25 -63 -67 -86q-41 -23 -119 -23zM349 540h-143q-9 0 -5 10l83 144q7 10 17 10h165q4 0 5.5 -3.5
t-0.5 -6.5l-106 -144q-7 -10 -16 -10z" />
    <glyph glyph-name="thorn" unicode="&#xfe;" horiz-adv-x="563" 
d="M232 -180h-180q-10 0 -10 10v840q0 10 10 10h180q10 0 10 -10v-226h1q34 58 123 58q119 0 157 -117q17 -54 17 -140t-17 -140q-38 -117 -157 -117q-89 0 -123 58h-1v-216q0 -10 -10 -10zM332 176q6 20 6 69t-6 69q-9 28 -42 28t-42 -28q-6 -20 -6 -69t6 -69q9 -28 42 -28
t42 28z" />
    <glyph glyph-name="ydieresis" unicode="&#xff;" horiz-adv-x="559" 
d="M451 536h-126q-10 0 -10 10v124q0 10 10 10h126q10 0 10 -10v-124q0 -10 -10 -10zM241 536h-126q-10 0 -10 10v124q0 10 10 10h126q10 0 10 -10v-124q0 -10 -10 -10zM144 -180h-41q-10 0 -10 10v140q0 10 10 10h30q42 0 54 32l9 25l-188 443q-4 10 7 10h189q10 0 13 -10
l70 -201h2l64 201q3 10 13 10h186q11 0 7 -10l-229 -551q-25 -63 -67 -86q-41 -23 -119 -23z" />
    <glyph glyph-name="Amacron" unicode="&#x100;" horiz-adv-x="708" 
d="M9 10l236 660q3 10 13 10h204q10 0 13 -10l230 -660q3 -10 -7 -10h-203q-10 0 -13 10l-25 89h-200l-25 -89q-3 -10 -13 -10h-203q-10 0 -7 10zM357 451l-52 -181h105l-50 181h-3zM519 748h-324q-10 0 -10 10v108q0 10 10 10h324q10 0 10 -10v-108q0 -10 -10 -10z" />
    <glyph glyph-name="amacron" unicode="&#x101;" horiz-adv-x="537" 
d="M488 0h-169q-10 0 -10 10v24h-1q-43 -46 -128 -46q-69 0 -112.5 39.5t-43.5 111.5q0 79 58 121.5t157 42.5h65q6 0 6 6v8q0 19 -18 26.5t-68 7.5q-62 0 -102 -25q-9 -4 -13 3l-60 108q-6 11 3 17q73 48 200 48q133 0 189.5 -45t56.5 -145v-302q0 -10 -10 -10zM253 124
q57 0 57 35v26q0 6 -6 6h-47q-47 0 -47 -35q0 -32 43 -32zM430 548h-324q-10 0 -10 10v108q0 10 10 10h324q10 0 10 -10v-108q0 -10 -10 -10z" />
    <glyph glyph-name="Abreve" unicode="&#x102;" horiz-adv-x="708" 
d="M9 10l236 660q3 10 13 10h204q10 0 13 -10l230 -660q3 -10 -7 -10h-203q-10 0 -13 10l-25 89h-200l-25 -89q-3 -10 -13 -10h-203q-10 0 -7 10zM357 451l-52 -181h105l-50 181h-3zM187 874q0 11 14 11h74q10 0 16 -11q19 -37 66 -37t66 37q6 11 16 11h74q14 0 14 -11
q0 -64 -50 -109q-50 -44 -120 -44q-71 0 -121 44q-49 45 -49 109z" />
    <glyph glyph-name="abreve" unicode="&#x103;" horiz-adv-x="537" 
d="M488 0h-169q-10 0 -10 10v24h-1q-43 -46 -128 -46q-69 0 -112.5 39.5t-43.5 111.5q0 79 58 121.5t157 42.5h65q6 0 6 6v8q0 19 -18 26.5t-68 7.5q-62 0 -102 -25q-9 -4 -13 3l-60 108q-6 11 3 17q73 48 200 48q133 0 189.5 -45t56.5 -145v-302q0 -10 -10 -10zM253 124
q57 0 57 35v26q0 6 -6 6h-47q-47 0 -47 -35q0 -32 43 -32zM98 682q0 11 14 11h74q10 0 16 -11q19 -37 66 -37t66 37q6 11 16 11h74q14 0 14 -11q0 -64 -50 -109q-50 -44 -120 -44q-71 0 -121 44q-49 45 -49 109z" />
    <glyph glyph-name="Aogonek" unicode="&#x104;" horiz-adv-x="708" 
d="M510 0h-15q-10 0 -13 10l-25 89h-200l-25 -89q-3 -10 -13 -10h-203q-10 0 -7 10l236 660q3 10 13 10h204q10 0 13 -10l230 -660q3 -8 -10 -12q-93 -28 -93 -54q0 -10 13 -10q11 0 24 9q8 5 13 -3l46 -83q5 -8 -4 -14q-55 -35 -112 -35q-54 0 -86 28t-32 73q0 55 46 91z
M360 451h-3l-52 -181h105z" />
    <glyph glyph-name="aogonek" unicode="&#x105;" horiz-adv-x="537" 
d="M309 10v24h-1q-43 -46 -128 -46q-69 0 -112.5 39.5t-43.5 111.5q0 79 58 121.5t157 42.5h65q6 0 6 6v8q0 19 -18 26.5t-68 7.5q-62 0 -102 -25q-9 -4 -13 3l-60 108q-6 11 3 17q73 48 200 48q133 0 189.5 -45t56.5 -145v-302q0 -7 -8 -10q-93 -32 -93 -56q0 -10 13 -10
q10 0 24 9q8 5 13 -3l46 -83q5 -8 -4 -14q-55 -35 -112 -35q-54 0 -86 28t-32 73q0 57 60 91q-10 0 -10 10zM253 124q57 0 57 35v26q0 6 -6 6h-47q-47 0 -47 -35q0 -32 43 -32z" />
    <glyph glyph-name="Cacute" unicode="&#x106;" horiz-adv-x="572" 
d="M51 156q-21 63 -21 184t21 184q27 83 91.5 125.5t160.5 42.5q95 0 160 -41.5t93 -118.5q4 -9 -5 -14l-161 -69q-11 -5 -15 7q-23 50 -67 50t-58 -41q-8 -27 -8 -125t8 -125q14 -41 58 -41t67 50q4 12 15 7l161 -69q9 -5 5 -14q-28 -77 -93 -118.5t-160 -41.5
q-96 0 -160.5 42.5t-91.5 125.5zM351 738h-141q-4 0 -5.5 3t1.5 7l110 132q7 10 18 10h167q5 0 6.5 -3t-1.5 -7l-134 -132q-10 -10 -21 -10z" />
    <glyph glyph-name="cacute" unicode="&#x107;" horiz-adv-x="504" 
d="M264 -12q-85 0 -145 38t-83 110q-13 38 -13 109t13 109q23 72 83 110t145 38q82 0 142 -39q62 -37 81 -96q3 -8 -5 -13l-141 -60q-12 -7 -17 4q-17 44 -52 44q-32 0 -42 -30q-5 -17 -5 -67t5 -67q10 -30 42 -30q35 0 52 44q5 11 17 4l141 -60q8 -5 5 -13q-19 -58 -81 -97
q-61 -38 -142 -38zM315 540h-143q-9 0 -5 10l83 144q7 10 17 10h165q4 0 5.5 -3.5t-0.5 -6.5l-106 -144q-7 -10 -16 -10z" />
    <glyph glyph-name="Ccircumflex" unicode="&#x108;" horiz-adv-x="572" 
d="M51 156q-21 63 -21 184t21 184q27 83 91.5 125.5t160.5 42.5q95 0 160 -41.5t93 -118.5q4 -9 -5 -14l-161 -69q-11 -5 -15 7q-23 50 -67 50t-58 -41q-8 -27 -8 -125t8 -125q14 -41 58 -41t67 50q4 12 15 7l161 -69q9 -5 5 -14q-28 -77 -93 -118.5t-160 -41.5
q-96 0 -160.5 42.5t-91.5 125.5zM484 734h-113q-14 0 -24 10l-44 44h-2l-44 -44q-10 -10 -24 -10h-113q-5 0 -6.5 3t1.5 7l114 144q7 10 19 10h108q12 0 19 -10l114 -144q3 -4 1.5 -7t-6.5 -3z" />
    <glyph glyph-name="ccircumflex" unicode="&#x109;" horiz-adv-x="504" 
d="M264 -12q-85 0 -145 38t-83 110q-13 38 -13 109t13 109q23 72 83 110t145 38q82 0 142 -39q62 -37 81 -96q3 -8 -5 -13l-141 -60q-12 -7 -17 4q-17 44 -52 44q-32 0 -42 -30q-5 -17 -5 -67t5 -67q10 -30 42 -30q35 0 52 44q5 11 17 4l141 -60q8 -5 5 -13q-19 -58 -81 -97
q-61 -38 -142 -38zM447 538h-113q-14 0 -24 10l-44 44h-2l-44 -44q-10 -10 -24 -10h-113q-5 0 -6.5 3t1.5 7l114 144q7 10 19 10h108q12 0 19 -10l114 -144q3 -4 1.5 -7t-6.5 -3z" />
    <glyph glyph-name="Cdotaccent" unicode="&#x10a;" horiz-adv-x="572" 
d="M51 156q-21 63 -21 184t21 184q27 83 91.5 125.5t160.5 42.5q95 0 160 -41.5t93 -118.5q4 -9 -5 -14l-161 -69q-11 -5 -15 7q-23 50 -67 50t-58 -41q-8 -27 -8 -125t8 -125q14 -41 58 -41t67 50q4 12 15 7l161 -69q9 -5 5 -14q-28 -77 -93 -118.5t-160 -41.5
q-96 0 -160.5 42.5t-91.5 125.5zM380 739h-164q-10 0 -10 10v124q0 10 10 10h164q10 0 10 -10v-124q0 -10 -10 -10z" />
    <glyph glyph-name="cdotaccent" unicode="&#x10b;" horiz-adv-x="504" 
d="M264 -12q-85 0 -145 38t-83 110q-13 38 -13 109t13 109q23 72 83 110t145 38q82 0 142 -39q62 -37 81 -96q3 -8 -5 -13l-141 -60q-12 -7 -17 4q-17 44 -52 44q-32 0 -42 -30q-5 -17 -5 -67t5 -67q10 -30 42 -30q35 0 52 44q5 11 17 4l141 -60q8 -5 5 -13q-19 -58 -81 -97
q-61 -38 -142 -38zM344 536h-164q-10 0 -10 10v124q0 10 10 10h164q10 0 10 -10v-124q0 -10 -10 -10z" />
    <glyph glyph-name="Ccaron" unicode="&#x10c;" horiz-adv-x="572" 
d="M51 156q-21 63 -21 184t21 184q27 83 91.5 125.5t160.5 42.5q95 0 160 -41.5t93 -118.5q4 -9 -5 -14l-161 -69q-11 -5 -15 7q-23 50 -67 50t-58 -41q-8 -27 -8 -125t8 -125q14 -41 58 -41t67 50q4 12 15 7l161 -69q9 -5 5 -14q-28 -77 -93 -118.5t-160 -41.5
q-96 0 -160.5 42.5t-91.5 125.5zM353 726h-108q-12 0 -19 10l-114 144q-3 4 -1.5 7t6.5 3h113q14 0 24 -10l44 -44h2l44 44q10 10 24 10h113q5 0 6.5 -3t-1.5 -7l-114 -144q-7 -10 -19 -10z" />
    <glyph glyph-name="ccaron" unicode="&#x10d;" horiz-adv-x="504" 
d="M264 -12q-85 0 -145 38t-83 110q-13 38 -13 109t13 109q23 72 83 110t145 38q82 0 142 -39q62 -37 81 -96q3 -8 -5 -13l-141 -60q-12 -7 -17 4q-17 44 -52 44q-32 0 -42 -30q-5 -17 -5 -67t5 -67q10 -30 42 -30q35 0 52 44q5 11 17 4l141 -60q8 -5 5 -13q-19 -58 -81 -97
q-61 -38 -142 -38zM319 534h-108q-12 0 -19 10l-114 144q-3 4 -1.5 7t6.5 3h113q14 0 24 -10l44 -44h2l44 44q10 10 24 10h113q5 0 6.5 -3t-1.5 -7l-114 -144q-7 -10 -19 -10z" />
    <glyph glyph-name="Dcaron" unicode="&#x10e;" horiz-adv-x="635" 
d="M44 10v660q0 10 10 10h273q199 0 252 -158q21 -64 21 -182t-21 -182q-53 -158 -252 -158h-273q-10 0 -10 10zM254 488v-296q0 -6 6 -6h24q43 0 64.5 11.5t30.5 40.5q9 27 9 102t-9 102q-9 29 -30.5 40.5t-64.5 11.5h-24q-6 0 -6 -6zM349 726h-108q-12 0 -19 10l-114 144
q-3 4 -1.5 7t6.5 3h113q14 0 24 -10l44 -44h2l44 44q10 10 24 10h113q5 0 6.5 -3t-1.5 -7l-114 -144q-7 -10 -19 -10z" />
    <glyph glyph-name="dcaron" unicode="&#x10f;" horiz-adv-x="603" 
d="M511 0h-180q-10 0 -10 10v36h-1q-34 -58 -123 -58q-119 0 -157 117q-17 54 -17 140t17 140q38 117 157 117q89 0 123 -58h1v226q0 10 10 10h180q10 0 10 -10v-660q0 -10 -10 -10zM315 176q6 20 6 69t-6 69q-9 28 -42 28t-42 -28q-6 -20 -6 -69t6 -69q9 -28 42 -28t42 28z
M558 455q-12 0 -12 13v202q0 10 10 10h124q10 0 10 -10v-107q0 -13 -10 -22l-104 -78q-11 -8 -18 -8z" />
    <glyph glyph-name="Dcroat" unicode="&#x110;" horiz-adv-x="635" 
d="M327 0h-273q-10 0 -10 10v259q0 6 -6 6h-26q-10 0 -10 10v117q0 10 10 10h26q6 0 6 6v252q0 10 10 10h273q199 0 252 -158q21 -64 21 -182t-21 -182q-53 -158 -252 -158zM260 186h24q43 0 64.5 11.5t30.5 40.5q9 27 9 102t-9 102q-9 29 -30.5 40.5t-64.5 11.5h-24
q-6 0 -6 -6v-70q0 -6 6 -6h54q10 0 10 -10v-117q0 -10 -10 -10h-54q-6 0 -6 -6v-77q0 -6 6 -6z" />
    <glyph glyph-name="dslash" unicode="&#x111;" horiz-adv-x="563" 
d="M511 0h-180q-10 0 -10 10v36h-1q-34 -58 -123 -58q-119 0 -157 117q-17 54 -17 140t17 140q38 117 157 117q89 0 123 -58h1v85q0 6 -6 6h-87q-10 0 -10 10v91q0 10 10 10h87q6 0 6 6v18q0 10 10 10h180q10 0 10 -10v-18q0 -6 6 -6h17q10 0 10 -10v-91q0 -10 -10 -10h-17
q-6 0 -6 -6v-519q0 -10 -10 -10zM315 176q6 20 6 69t-6 69q-9 28 -42 28t-42 -28q-6 -20 -6 -69t6 -69q9 -28 42 -28t42 28z" />
    <glyph glyph-name="Emacron" unicode="&#x112;" horiz-adv-x="549" 
d="M44 10v660q0 10 10 10h455q10 0 10 -10v-154q0 -10 -10 -10h-251q-6 0 -6 -6v-66q0 -6 6 -6h201q10 0 10 -10v-150q0 -10 -10 -10h-201q-6 0 -6 -6v-72q0 -6 6 -6h251q10 0 10 -10v-154q0 -10 -10 -10h-455q-10 0 -10 10zM441 748h-324q-10 0 -10 10v108q0 10 10 10h324
q10 0 10 -10v-108q0 -10 -10 -10z" />
    <glyph glyph-name="emacron" unicode="&#x113;" horiz-adv-x="539" 
d="M281 -12q-95 0 -157 38t-86 110q-15 45 -15 109t15 109q23 71 82.5 109.5t147.5 38.5q187 0 233 -145q15 -47 15 -156q0 -10 -10 -10h-285q-6 0 -6 -6q0 -2 2 -10q13 -42 87 -42q54 0 107 36q8 5 14 -2l78 -86q7 -7 -2 -15q-89 -78 -220 -78zM221 303h100q6 0 6 6
q0 15 -3 24q-10 34 -53 34t-53 -34q-3 -9 -3 -24q0 -6 6 -6zM431 548h-324q-10 0 -10 10v108q0 10 10 10h324q10 0 10 -10v-108q0 -10 -10 -10z" />
    <glyph glyph-name="Ebreve" unicode="&#x114;" horiz-adv-x="549" 
d="M44 10v660q0 10 10 10h455q10 0 10 -10v-154q0 -10 -10 -10h-251q-6 0 -6 -6v-66q0 -6 6 -6h201q10 0 10 -10v-150q0 -10 -10 -10h-201q-6 0 -6 -6v-72q0 -6 6 -6h251q10 0 10 -10v-154q0 -10 -10 -10h-455q-10 0 -10 10zM104 874q0 11 14 11h74q10 0 16 -11
q19 -37 66 -37t66 37q6 11 16 11h74q14 0 14 -11q0 -64 -50 -109q-50 -44 -120 -44q-71 0 -121 44q-49 45 -49 109z" />
    <glyph glyph-name="ebreve" unicode="&#x115;" horiz-adv-x="539" 
d="M281 -12q-95 0 -157 38t-86 110q-15 45 -15 109t15 109q23 71 82.5 109.5t147.5 38.5q187 0 233 -145q15 -47 15 -156q0 -10 -10 -10h-285q-6 0 -6 -6q0 -2 2 -10q13 -42 87 -42q54 0 107 36q8 5 14 -2l78 -86q7 -7 -2 -15q-89 -78 -220 -78zM221 303h100q6 0 6 6
q0 15 -3 24q-10 34 -53 34t-53 -34q-3 -9 -3 -24q0 -6 6 -6zM99 682q0 11 14 11h74q11 0 16 -11q19 -37 66 -37t66 37q5 11 16 11h74q14 0 14 -11q0 -64 -50 -109q-50 -44 -120 -44q-71 0 -121 44q-49 45 -49 109z" />
    <glyph glyph-name="Edotaccent" unicode="&#x116;" horiz-adv-x="549" 
d="M44 10v660q0 10 10 10h455q10 0 10 -10v-154q0 -10 -10 -10h-251q-6 0 -6 -6v-66q0 -6 6 -6h201q10 0 10 -10v-150q0 -10 -10 -10h-201q-6 0 -6 -6v-72q0 -6 6 -6h251q10 0 10 -10v-154q0 -10 -10 -10h-455q-10 0 -10 10zM356 739h-164q-10 0 -10 10v124q0 10 10 10h164
q10 0 10 -10v-124q0 -10 -10 -10z" />
    <glyph glyph-name="edotaccent" unicode="&#x117;" horiz-adv-x="539" 
d="M281 -12q-95 0 -157 38t-86 110q-15 45 -15 109t15 109q23 71 82.5 109.5t147.5 38.5q187 0 233 -145q15 -47 15 -156q0 -10 -10 -10h-285q-6 0 -6 -6q0 -2 2 -10q13 -42 87 -42q54 0 107 36q8 5 14 -2l78 -86q7 -7 -2 -15q-89 -78 -220 -78zM221 303h100q6 0 6 6
q0 15 -3 24q-10 34 -53 34t-53 -34q-3 -9 -3 -24q0 -6 6 -6zM351 536h-164q-10 0 -10 10v124q0 10 10 10h164q10 0 10 -10v-124q0 -10 -10 -10z" />
    <glyph glyph-name="Eogonek" unicode="&#x118;" horiz-adv-x="549" 
d="M390 -192q-54 0 -86 28t-32 73q0 55 46 91h-264q-10 0 -10 10v660q0 10 10 10h455q10 0 10 -10v-154q0 -10 -10 -10h-251q-6 0 -6 -6v-66q0 -6 6 -6h201q10 0 10 -10v-150q0 -10 -10 -10h-201q-6 0 -6 -6v-72q0 -6 6 -6h251q10 0 10 -10v-154q0 -10 -10 -10h-13
q-86 -35 -86 -56q0 -10 13 -10q11 0 24 9q10 5 14 -4l45 -81q5 -9 -3 -14q-52 -36 -113 -36z" />
    <glyph glyph-name="eogonek" unicode="&#x119;" horiz-adv-x="539" 
d="M351 -192q-54 0 -86 28t-32 73q0 42 34 79h-4q-178 7 -225 148q-15 45 -15 109t15 109q23 71 82.5 109.5t147.5 38.5q187 0 233 -145q15 -47 15 -156q0 -10 -10 -10h-285q-6 0 -6 -6q0 -2 2 -10q13 -42 87 -42q54 0 107 36q8 5 14 -2l78 -86q7 -7 -2 -15q-27 -22 -38 -28
q-92 -71 -92 -93q0 -11 13 -11q10 0 24 9q8 5 13 -3l46 -83q5 -8 -4 -14q-55 -35 -112 -35zM221 303h100q6 0 6 6q0 15 -3 24q-10 34 -53 34t-53 -34q-3 -9 -3 -24q0 -6 6 -6z" />
    <glyph glyph-name="Ecaron" unicode="&#x11a;" horiz-adv-x="549" 
d="M44 10v660q0 10 10 10h455q10 0 10 -10v-154q0 -10 -10 -10h-251q-6 0 -6 -6v-66q0 -6 6 -6h201q10 0 10 -10v-150q0 -10 -10 -10h-201q-6 0 -6 -6v-72q0 -6 6 -6h251q10 0 10 -10v-154q0 -10 -10 -10h-455q-10 0 -10 10zM333 726h-108q-12 0 -19 10l-114 144
q-3 4 -1.5 7t6.5 3h113q14 0 24 -10l44 -44h2l44 44q10 10 24 10h113q5 0 6.5 -3t-1.5 -7l-114 -144q-7 -10 -19 -10z" />
    <glyph glyph-name="ecaron" unicode="&#x11b;" horiz-adv-x="539" 
d="M281 -12q-95 0 -157 38t-86 110q-15 45 -15 109t15 109q23 71 82.5 109.5t147.5 38.5q187 0 233 -145q15 -47 15 -156q0 -10 -10 -10h-285q-6 0 -6 -6q0 -2 2 -10q13 -42 87 -42q54 0 107 36q8 5 14 -2l78 -86q7 -7 -2 -15q-89 -78 -220 -78zM221 303h100q6 0 6 6
q0 15 -3 24q-10 34 -53 34t-53 -34q-3 -9 -3 -24q0 -6 6 -6zM325 534h-108q-12 0 -19 10l-114 144q-3 4 -1.5 7t6.5 3h113q14 0 24 -10l44 -44h2l44 44q10 10 24 10h113q5 0 6.5 -3t-1.5 -7l-114 -144q-7 -10 -19 -10z" />
    <glyph glyph-name="Gcircumflex" unicode="&#x11c;" horiz-adv-x="628" 
d="M51 157q-21 66 -21 183t21 183q27 82 96.5 125.5t166.5 43.5q185 0 252 -145q6 -12 -5 -17l-156 -66q-11 -5 -17 4q-26 38 -73 38q-51 0 -65 -44q-8 -27 -8 -122q0 -94 9 -123q13 -43 71 -43t68 36q3 9 3 18q0 7 -6 7h-52q-10 0 -10 10v131q0 10 10 10h253q10 0 10 -10
v-47q0 -106 -19 -163q-28 -86 -97 -132t-168 -46q-97 0 -166.5 43.5t-96.5 125.5zM496 734h-113q-14 0 -24 10l-44 44h-2l-44 -44q-10 -10 -24 -10h-113q-5 0 -6.5 3t1.5 7l114 144q7 10 19 10h108q12 0 19 -10l114 -144q3 -4 1.5 -7t-6.5 -3z" />
    <glyph glyph-name="gcircumflex" unicode="&#x11d;" horiz-adv-x="559" 
d="M240 -192q-61 0 -119 24q-57 22 -81 54q-6 8 1 15l98 102q7 7 15 1q46 -36 90 -36q39 0 56.5 21t17.5 69v32h-1q-34 -58 -123 -58q-120 0 -158 116q-16 49 -16 119t16 119q38 116 158 116q89 0 123 -58h1v36q0 10 10 10h180q10 0 10 -10v-378q0 -157 -67.5 -225.5
t-210.5 -68.5zM313 223q5 17 5 44t-5 44q-10 31 -43 31t-43 -31q-5 -17 -5 -44t5 -44q10 -31 43 -31t43 31zM461 538h-113q-14 0 -24 10l-44 44h-2l-44 -44q-10 -10 -24 -10h-113q-5 0 -6.5 3t1.5 7l114 144q7 10 19 10h108q12 0 19 -10l114 -144q3 -4 1.5 -7t-6.5 -3z" />
    <glyph glyph-name="Gbreve" unicode="&#x11e;" horiz-adv-x="628" 
d="M51 157q-21 66 -21 183t21 183q27 82 96.5 125.5t166.5 43.5q185 0 252 -145q6 -12 -5 -17l-156 -66q-11 -5 -17 4q-26 38 -73 38q-51 0 -65 -44q-8 -27 -8 -122q0 -94 9 -123q13 -43 71 -43t68 36q3 9 3 18q0 7 -6 7h-52q-10 0 -10 10v131q0 10 10 10h253q10 0 10 -10
v-47q0 -106 -19 -163q-28 -86 -97 -132t-168 -46q-97 0 -166.5 43.5t-96.5 125.5zM143 874q0 11 14 11h74q11 0 16 -11q19 -37 66 -37t66 37q5 11 16 11h74q14 0 14 -11q0 -64 -50 -109q-50 -44 -120 -44q-71 0 -121 44q-49 45 -49 109z" />
    <glyph glyph-name="gbreve" unicode="&#x11f;" horiz-adv-x="559" 
d="M240 -192q-61 0 -119 24q-57 22 -81 54q-6 8 1 15l98 102q7 7 15 1q46 -36 90 -36q39 0 56.5 21t17.5 69v32h-1q-34 -58 -123 -58q-120 0 -158 116q-16 49 -16 119t16 119q38 116 158 116q89 0 123 -58h1v36q0 10 10 10h180q10 0 10 -10v-378q0 -157 -67.5 -225.5
t-210.5 -68.5zM313 223q5 17 5 44t-5 44q-10 31 -43 31t-43 -31q-5 -17 -5 -44t5 -44q10 -31 43 -31t43 31zM109 682q0 11 14 11h74q11 0 16 -11q19 -37 66 -37t66 37q5 11 16 11h74q14 0 14 -11q0 -64 -50 -109q-50 -44 -120 -44q-71 0 -121 44q-49 45 -49 109z" />
    <glyph glyph-name="Gdotaccent" unicode="&#x120;" horiz-adv-x="628" 
d="M51 157q-21 66 -21 183t21 183q27 82 96.5 125.5t166.5 43.5q185 0 252 -145q6 -12 -5 -17l-156 -66q-11 -5 -17 4q-26 38 -73 38q-51 0 -65 -44q-8 -27 -8 -122q0 -94 9 -123q13 -43 71 -43t68 36q3 9 3 18q0 7 -6 7h-52q-10 0 -10 10v131q0 10 10 10h253q10 0 10 -10
v-47q0 -106 -19 -163q-28 -86 -97 -132t-168 -46q-97 0 -166.5 43.5t-96.5 125.5zM395 739h-164q-10 0 -10 10v124q0 10 10 10h164q10 0 10 -10v-124q0 -10 -10 -10z" />
    <glyph glyph-name="gdotaccent" unicode="&#x121;" horiz-adv-x="559" 
d="M240 -192q-61 0 -119 24q-57 22 -81 54q-6 8 1 15l98 102q7 7 15 1q46 -36 90 -36q39 0 56.5 21t17.5 69v32h-1q-34 -58 -123 -58q-120 0 -158 116q-16 49 -16 119t16 119q38 116 158 116q89 0 123 -58h1v36q0 10 10 10h180q10 0 10 -10v-378q0 -157 -67.5 -225.5
t-210.5 -68.5zM313 223q5 17 5 44t-5 44q-10 31 -43 31t-43 -31q-5 -17 -5 -44t5 -44q10 -31 43 -31t43 31zM361 536h-164q-10 0 -10 10v124q0 10 10 10h164q10 0 10 -10v-124q0 -10 -10 -10z" />
    <glyph glyph-name="Gcommaaccent" unicode="&#x122;" horiz-adv-x="628" 
d="M51 157q-21 66 -21 183t21 183q27 82 96.5 125.5t166.5 43.5q185 0 252 -145q6 -12 -5 -17l-156 -66q-11 -5 -17 4q-26 38 -73 38q-51 0 -65 -44q-8 -27 -8 -122q0 -94 9 -123q13 -43 71 -43t68 36q3 9 3 18q0 7 -6 7h-52q-10 0 -10 10v131q0 10 10 10h253q10 0 10 -10
v-47q0 -106 -19 -163q-28 -86 -97 -132t-168 -46q-97 0 -166.5 43.5t-96.5 125.5zM245 -259q-12 0 -12 13v195q0 10 10 10h142q10 0 10 -10v-100q0 -16 -10 -22l-122 -78q-14 -8 -18 -8z" />
    <glyph glyph-name="gcommaaccent" unicode="&#x123;" horiz-adv-x="559" 
d="M240 -192q-61 0 -119 24q-57 22 -81 54q-6 8 1 15l98 102q7 7 15 1q46 -36 90 -36q39 0 56.5 21t17.5 69v32h-1q-34 -58 -123 -58q-120 0 -158 116q-16 49 -16 119t16 119q38 116 158 116q89 0 123 -58h1v36q0 10 10 10h180q10 0 10 -10v-378q0 -157 -67.5 -225.5
t-210.5 -68.5zM313 223q5 17 5 44t-5 44q-10 31 -43 31t-43 -31q-5 -17 -5 -44t5 -44q10 -31 43 -31t43 31zM350 536h-142q-10 0 -10 10v100q0 16 10 22l122 78q14 8 18 8q12 0 12 -13v-195q0 -10 -10 -10z" />
    <glyph glyph-name="Hcircumflex" unicode="&#x124;" horiz-adv-x="661" 
d="M44 10v660q0 10 10 10h190q10 0 10 -10v-225q0 -6 6 -6h141q6 0 6 6v225q0 10 10 10h190q10 0 10 -10v-660q0 -10 -10 -10h-190q-10 0 -10 10v237q0 6 -6 6h-141q-6 0 -6 -6v-237q0 -10 -10 -10h-190q-10 0 -10 10zM512 734h-113q-14 0 -24 10l-44 44h-2l-44 -44
q-10 -10 -24 -10h-113q-5 0 -6.5 3t1.5 7l114 144q7 10 19 10h108q12 0 19 -10l114 -144q3 -4 1.5 -7t-6.5 -3z" />
    <glyph glyph-name="hcircumflex" unicode="&#x125;" horiz-adv-x="564" 
d="M514 0h-180q-10 0 -10 10v278q0 50 -41 50t-41 -50v-278q0 -10 -10 -10h-180q-10 0 -10 10v660q0 10 10 10h180q10 0 10 -10v-226h1q39 58 124 58q157 0 157 -183v-309q0 -10 -10 -10zM470 734h-113q-14 0 -24 10l-44 44h-2l-44 -44q-10 -10 -24 -10h-113q-5 0 -6.5 3
t1.5 7l114 144q7 10 19 10h108q12 0 19 -10l114 -144q3 -4 1.5 -7t-6.5 -3z" />
    <glyph glyph-name="Hbar" unicode="&#x126;" horiz-adv-x="661" 
d="M607 0h-190q-10 0 -10 10v237q0 6 -6 6h-141q-6 0 -6 -6v-237q0 -10 -10 -10h-190q-10 0 -10 10v487q0 6 -6 6h-26q-10 0 -10 10v94q0 10 10 10h26q6 0 6 6v47q0 10 10 10h190q10 0 10 -10v-47q0 -6 6 -6h141q6 0 6 6v47q0 10 10 10h190q10 0 10 -10v-47q0 -6 6 -6h26
q10 0 10 -10v-94q0 -10 -10 -10h-26q-6 0 -6 -6v-487q0 -10 -10 -10zM260 439h141q6 0 6 6v52q0 6 -6 6h-141q-6 0 -6 -6v-52q0 -6 6 -6z" />
    <glyph glyph-name="hbar" unicode="&#x127;" horiz-adv-x="564" 
d="M514 0h-180q-10 0 -10 10v278q0 50 -41 50t-41 -50v-278q0 -10 -10 -10h-180q-10 0 -10 10v519q0 6 -6 6h-17q-10 0 -10 10v91q0 10 10 10h17q6 0 6 6v18q0 10 10 10h180q10 0 10 -10v-18q0 -6 6 -6h87q10 0 10 -10v-91q0 -10 -10 -10h-87q-6 0 -6 -6v-85h1q39 58 124 58
q157 0 157 -183v-309q0 -10 -10 -10z" />
    <glyph glyph-name="Itilde" unicode="&#x128;" horiz-adv-x="298" 
d="M225 730q-39 0 -94 26q-37 17 -61 17q-38 0 -81 -33q-11 -8 -11 4v92q0 14 10 24q41 39 86 39q39 0 94 -26q37 -17 61 -17q37 0 81 33q11 8 11 -4v-92q0 -14 -10 -24q-41 -39 -86 -39zM44 10v660q0 10 10 10h190q10 0 10 -10v-660q0 -10 -10 -10h-190q-10 0 -10 10z" />
    <glyph glyph-name="itilde" unicode="&#x129;" horiz-adv-x="284" 
d="M232 0h-180q-10 0 -10 10v470q0 10 10 10h180q10 0 10 -10v-470q0 -10 -10 -10zM218 536q-39 0 -94 26q-37 17 -61 17q-37 0 -81 -33q-11 -8 -11 4v92q0 14 10 24q40 39 86 39q39 0 94 -26q37 -17 61 -17q38 0 81 33q11 8 11 -4v-92q0 -14 -10 -24q-40 -39 -86 -39z" />
    <glyph glyph-name="Imacron" unicode="&#x12a;" horiz-adv-x="298" 
d="M44 10v660q0 10 10 10h190q10 0 10 -10v-660q0 -10 -10 -10h-190q-10 0 -10 10zM311 748h-324q-10 0 -10 10v108q0 10 10 10h324q10 0 10 -10v-108q0 -10 -10 -10z" />
    <glyph glyph-name="imacron" unicode="&#x12b;" horiz-adv-x="284" 
d="M232 0h-180q-10 0 -10 10v470q0 10 10 10h180q10 0 10 -10v-470q0 -10 -10 -10zM304 548h-324q-10 0 -10 10v108q0 10 10 10h324q10 0 10 -10v-108q0 -10 -10 -10z" />
    <glyph glyph-name="Ibreve" unicode="&#x12c;" horiz-adv-x="298" 
d="M-21 874q0 11 14 11h74q11 0 16 -11q19 -37 66 -37t66 37q5 11 16 11h74q14 0 14 -11q0 -64 -50 -109q-50 -44 -120 -44q-71 0 -121 44q-49 45 -49 109zM44 10v660q0 10 10 10h190q10 0 10 -10v-660q0 -10 -10 -10h-190q-10 0 -10 10z" />
    <glyph glyph-name="ibreve" unicode="&#x12d;" horiz-adv-x="284" 
d="M232 0h-180q-10 0 -10 10v470q0 10 10 10h180q10 0 10 -10v-470q0 -10 -10 -10zM-28 682q0 11 14 11h74q10 0 16 -11q19 -37 66 -37t66 37q6 11 16 11h74q14 0 14 -11q0 -64 -50 -109q-50 -44 -120 -44q-71 0 -121 44q-49 45 -49 109z" />
    <glyph glyph-name="Iogonek" unicode="&#x12e;" horiz-adv-x="298" 
d="M140 -192q-54 0 -86 28t-32 73q0 55 46 91h-14q-10 0 -10 10v660q0 10 10 10h190q10 0 10 -10v-659q0 -8 -8 -11q-38 -16 -57.5 -27t-24 -16.5t-4.5 -12.5q0 -10 13 -10q11 0 24 9q8 5 13 -3l46 -83q5 -8 -4 -14q-55 -35 -112 -35z" />
    <glyph glyph-name="iogonek" unicode="&#x12f;" horiz-adv-x="284" 
d="M232 536h-180q-10 0 -10 10v124q0 10 10 10h180q10 0 10 -10v-124q0 -10 -10 -10zM134 -192q-54 0 -86 28t-32 73q0 56 41 91h-5q-10 0 -10 10v470q0 10 10 10h180q10 0 10 -10v-470q0 -8 -11 -13q-77 -34 -77 -53q0 -10 13 -10q11 0 24 9q8 5 13 -3l46 -83q5 -8 -4 -14
q-55 -35 -112 -35z" />
    <glyph glyph-name="Idot" unicode="&#x130;" horiz-adv-x="298" 
d="M231 739h-164q-10 0 -10 10v124q0 10 10 10h164q10 0 10 -10v-124q0 -10 -10 -10zM44 10v660q0 10 10 10h190q10 0 10 -10v-660q0 -10 -10 -10h-190q-10 0 -10 10z" />
    <glyph glyph-name="dotlessi" unicode="&#x131;" horiz-adv-x="284" 
d="M232 0h-180q-10 0 -10 10v470q0 10 10 10h180q10 0 10 -10v-470q0 -10 -10 -10z" />
    <glyph glyph-name="Jcircumflex" unicode="&#x134;" horiz-adv-x="550" 
d="M20 86q-5 8 1 14l132 108q7 4 13 -1q28 -33 66 -33q70 0 70 80v416q0 10 10 10h190q10 0 10 -10v-393q0 -289 -274 -289q-70 0 -129.5 27t-88.5 71zM587 734h-113q-14 0 -24 10l-44 44h-2l-44 -44q-10 -10 -24 -10h-113q-5 0 -6.5 3t1.5 7l114 144q7 10 19 10h108
q12 0 19 -10l114 -144q3 -4 1.5 -7t-6.5 -3z" />
    <glyph glyph-name="jcircumflex" unicode="&#x135;" horiz-adv-x="284" 
d="M23 -180h-43q-10 0 -10 10v140q0 10 10 10h10q31 0 42.5 11t11.5 43v446q0 10 10 10h180q10 0 10 -10v-447q0 -110 -54.5 -161.5t-166.5 -51.5zM326 538h-113q-14 0 -24 10l-44 44h-2l-44 -44q-10 -10 -24 -10h-113q-5 0 -6.5 3t1.5 7l114 144q7 10 19 10h108
q12 0 19 -10l114 -144q3 -4 1.5 -7t-6.5 -3z" />
    <glyph glyph-name="Kcommaaccent" unicode="&#x136;" horiz-adv-x="670" 
d="M44 10v660q0 10 10 10h190q10 0 10 -10v-228l158 228q7 10 18 10h212q14 0 7 -13l-200 -268l204 -388q2 -4 0.5 -7.5t-6.5 -3.5h-218q-13 0 -17 10l-105 218l-53 -75v-143q0 -10 -10 -10h-190q-10 0 -10 10zM266 -259q-12 0 -12 13v195q0 10 10 10h142q10 0 10 -10v-100
q0 -16 -10 -22l-122 -78q-14 -8 -18 -8z" />
    <glyph glyph-name="kcommaaccent" unicode="&#x137;" horiz-adv-x="551" 
d="M544 0h-191q-10 0 -14 10l-80 178l-19 -29v-149q0 -10 -10 -10h-178q-10 0 -10 10v660q0 10 10 10h178q10 0 10 -10v-313l85 123q7 10 19 10h181q5 0 6.5 -3.5t-1.5 -6.5l-136 -160l155 -310q6 -10 -5 -10zM210 -259q-12 0 -12 13v195q0 10 10 10h142q10 0 10 -10v-100
q0 -16 -10 -22l-122 -78q-14 -8 -18 -8z" />
    <glyph glyph-name="kgreenlandic" unicode="&#x138;" horiz-adv-x="551" 
d="M544 0h-191q-10 0 -14 10l-80 178l-19 -29v-149q0 -10 -10 -10h-178q-10 0 -10 10v470q0 10 10 10h178q10 0 10 -10v-123l85 123q7 10 19 10h181q5 0 6.5 -3.5t-1.5 -6.5l-136 -160l155 -310q6 -10 -5 -10z" />
    <glyph glyph-name="Lacute" unicode="&#x139;" horiz-adv-x="559" 
d="M44 10v660q0 10 10 10h190q10 0 10 -10v-478q0 -6 6 -6h273q10 0 10 -10v-166q0 -10 -10 -10h-479q-10 0 -10 10zM220 738h-141q-12 0 -4 10l110 132q7 10 18 10h167q5 0 6.5 -3t-1.5 -7l-134 -132q-10 -10 -21 -10z" />
    <glyph glyph-name="lacute" unicode="&#x13a;" horiz-adv-x="329" 
d="M300 -6h-71q-102 0 -145.5 43t-43.5 147v486q0 10 10 10h180q10 0 10 -10v-462q0 -50 41 -50h19q10 0 10 -10v-144q0 -10 -10 -10zM205 738h-141q-4 0 -5.5 3t1.5 7l110 132q7 10 18 10h167q5 0 6.5 -3t-1.5 -7l-134 -132q-10 -10 -21 -10z" />
    <glyph glyph-name="Lcommaaccent" unicode="&#x13b;" horiz-adv-x="559" 
d="M44 10v660q0 10 10 10h190q10 0 10 -10v-478q0 -6 6 -6h273q10 0 10 -10v-166q0 -10 -10 -10h-479q-10 0 -10 10zM210 -259q-12 0 -12 13v195q0 10 10 10h142q10 0 10 -10v-100q0 -16 -10 -22l-122 -78q-14 -8 -18 -8z" />
    <glyph glyph-name="lcommaaccent" unicode="&#x13c;" horiz-adv-x="329" 
d="M300 -6h-71q-102 0 -145.5 43t-43.5 147v486q0 10 10 10h180q10 0 10 -10v-462q0 -50 41 -50h19q10 0 10 -10v-144q0 -10 -10 -10zM115 -259q-12 0 -12 13v195q0 10 10 10h142q10 0 10 -10v-100q0 -16 -10 -22l-122 -78q-14 -8 -18 -8z" />
    <glyph glyph-name="Lcaron" unicode="&#x13d;" horiz-adv-x="559" 
d="M44 10v660q0 10 10 10h190q10 0 10 -10v-478q0 -6 6 -6h273q10 0 10 -10v-166q0 -10 -10 -10h-479q-10 0 -10 10zM329 455q-12 0 -12 13v202q0 10 10 10h124q10 0 10 -10v-107q0 -13 -10 -22l-104 -78q-11 -8 -18 -8z" />
    <glyph glyph-name="lcaron" unicode="&#x13e;" horiz-adv-x="329" 
d="M300 -6h-71q-102 0 -145.5 43t-43.5 147v486q0 10 10 10h180q10 0 10 -10v-462q0 -50 41 -50h19q10 0 10 -10v-144q0 -10 -10 -10zM284 455q-12 0 -12 13v202q0 10 10 10h124q10 0 10 -10v-107q0 -13 -10 -22l-104 -78q-11 -8 -18 -8z" />
    <glyph glyph-name="Ldot" unicode="&#x13f;" horiz-adv-x="559" 
d="M44 10v660q0 10 10 10h190q10 0 10 -10v-478q0 -6 6 -6h273q10 0 10 -10v-166q0 -10 -10 -10h-479q-10 0 -10 10zM509 266h-160q-10 0 -10 10v160q0 10 10 10h160q10 0 10 -10v-160q0 -10 -10 -10z" />
    <glyph glyph-name="ldot" unicode="&#x140;" horiz-adv-x="454" 
d="M300 -6h-71q-102 0 -145.5 43t-43.5 147v486q0 10 10 10h180q10 0 10 -10v-462q0 -50 41 -50h19q10 0 10 -10v-144q0 -10 -10 -10zM448 255h-160q-10 0 -10 10v160q0 10 10 10h160q10 0 10 -10v-160q0 -10 -10 -10z" />
    <glyph glyph-name="Lslash" unicode="&#x141;" horiz-adv-x="559" 
d="M533 0h-479q-10 0 -10 10v218l-34 -17q-10 -4 -10 6v123q0 10 10 14l34 17v299q0 10 10 10h190q10 0 10 -10v-201l128 66q10 4 10 -6v-123q0 -10 -10 -14l-128 -66v-134q0 -6 6 -6h273q10 0 10 -10v-166q0 -10 -10 -10z" />
    <glyph glyph-name="lslash" unicode="&#x142;" horiz-adv-x="329" 
d="M300 353l-60 -31v-114q0 -50 41 -50h19q10 0 10 -10v-144q0 -10 -10 -10h-71q-102 0 -145.5 43t-43.5 147v43l-32 -16q-10 -4 -10 6v121q0 10 10 14l32 16v302q0 10 10 10h180q10 0 10 -10v-207l60 31q10 4 10 -6v-121q0 -10 -10 -14z" />
    <glyph glyph-name="Nacute" unicode="&#x143;" horiz-adv-x="650" 
d="M44 10v660q0 10 10 10h179q13 0 17 -10l162 -335h5v335q0 10 10 10h169q10 0 10 -10v-660q0 -10 -10 -10h-179q-13 0 -17 10l-161 335h-6v-335q0 -10 -10 -10h-169q-10 0 -10 10zM350 738h-141q-12 0 -4 10l110 132q7 10 18 10h167q5 0 6.5 -3t-1.5 -7l-134 -132
q-10 -10 -21 -10z" />
    <glyph glyph-name="nacute" unicode="&#x144;" horiz-adv-x="564" 
d="M514 0h-180q-10 0 -10 10v278q0 50 -41 50t-41 -50v-278q0 -10 -10 -10h-180q-10 0 -10 10v470q0 10 10 10h180q10 0 10 -10v-36h1q39 58 124 58q157 0 157 -183v-309q0 -10 -10 -10zM317 540h-143q-9 0 -5 10l83 144q7 10 17 10h165q4 0 5.5 -3.5t-0.5 -6.5l-106 -144
q-7 -10 -16 -10z" />
    <glyph glyph-name="Ncommaaccent" unicode="&#x145;" horiz-adv-x="650" 
d="M44 10v660q0 10 10 10h179q13 0 17 -10l162 -335h5v335q0 10 10 10h169q10 0 10 -10v-660q0 -10 -10 -10h-179q-13 0 -17 10l-161 335h-6v-335q0 -10 -10 -10h-169q-10 0 -10 10zM256 -259q-12 0 -12 13v195q0 10 10 10h142q10 0 10 -10v-100q0 -16 -10 -22l-122 -78
q-14 -8 -18 -8z" />
    <glyph glyph-name="ncommaaccent" unicode="&#x146;" horiz-adv-x="564" 
d="M514 0h-180q-10 0 -10 10v278q0 50 -41 50t-41 -50v-278q0 -10 -10 -10h-180q-10 0 -10 10v470q0 10 10 10h180q10 0 10 -10v-36h1q39 58 124 58q157 0 157 -183v-309q0 -10 -10 -10zM213 -259q-12 0 -12 13v195q0 10 10 10h142q10 0 10 -10v-100q0 -16 -10 -22l-122 -78
q-14 -8 -18 -8z" />
    <glyph glyph-name="Ncaron" unicode="&#x147;" horiz-adv-x="650" 
d="M44 10v660q0 10 10 10h179q13 0 17 -10l162 -335h5v335q0 10 10 10h169q10 0 10 -10v-660q0 -10 -10 -10h-179q-13 0 -17 10l-161 335h-6v-335q0 -10 -10 -10h-169q-10 0 -10 10zM379 726h-108q-12 0 -19 10l-114 144q-3 4 -1.5 7t6.5 3h113q14 0 24 -10l44 -44h2l44 44
q10 10 24 10h113q5 0 6.5 -3t-1.5 -7l-114 -144q-7 -10 -19 -10z" />
    <glyph glyph-name="ncaron" unicode="&#x148;" horiz-adv-x="564" 
d="M514 0h-180q-10 0 -10 10v278q0 50 -41 50t-41 -50v-278q0 -10 -10 -10h-180q-10 0 -10 10v470q0 10 10 10h180q10 0 10 -10v-36h1q39 58 124 58q157 0 157 -183v-309q0 -10 -10 -10zM336 534h-108q-12 0 -19 10l-114 144q-3 4 -1.5 7t6.5 3h113q14 0 24 -10l44 -44h2
l44 44q10 10 24 10h113q5 0 6.5 -3t-1.5 -7l-114 -144q-7 -10 -19 -10z" />
    <glyph glyph-name="Eng" unicode="&#x14a;" horiz-adv-x="650" 
d="M361 -192h-43q-10 0 -10 10v150q0 10 10 10h10q58 0 72 32l-161 335h-6v-335q0 -10 -10 -10h-169q-10 0 -10 10v660q0 10 10 10h179q13 0 17 -10l162 -335h5v335q0 10 10 10h169q10 0 10 -10v-616q0 -125 -61 -185.5t-184 -60.5z" />
    <glyph glyph-name="eng" unicode="&#x14b;" horiz-adv-x="564" 
d="M311 -180h-43q-10 0 -10 10v140q0 10 10 10h10q28 0 37 9.5t9 40.5v258q0 50 -41 50t-41 -50v-278q0 -10 -10 -10h-180q-10 0 -10 10v470q0 10 10 10h180q10 0 10 -10v-36h1q48 58 124 58q157 0 157 -183v-286q0 -112 -51.5 -162.5t-161.5 -50.5z" />
    <glyph glyph-name="Omacron" unicode="&#x14c;" horiz-adv-x="628" 
d="M51 157q-21 66 -21 183t21 183q27 82 96.5 125.5t166.5 43.5t166.5 -43.5t96.5 -125.5q21 -67 21 -183q0 -117 -21 -183q-27 -82 -96.5 -125.5t-166.5 -43.5t-166.5 43.5t-96.5 125.5zM378 217q8 27 8 123t-8 123q-13 43 -64 43t-64 -43q-8 -27 -8 -123t8 -123
q13 -43 64 -43t64 43zM476 748h-324q-10 0 -10 10v108q0 10 10 10h324q10 0 10 -10v-108q0 -10 -10 -10z" />
    <glyph glyph-name="omacron" unicode="&#x14d;" horiz-adv-x="546" 
d="M38 134q-15 45 -15 111t15 111q23 71 85 108.5t150 37.5t150 -37.5t85 -108.5q15 -45 15 -111t-15 -111q-23 -71 -85 -108.5t-150 -37.5t-150 37.5t-85 108.5zM315 176q6 20 6 69t-6 69q-9 28 -42 28t-42 -28q-6 -20 -6 -69t6 -69q9 -28 42 -28t42 28zM435 548h-324
q-10 0 -10 10v108q0 10 10 10h324q10 0 10 -10v-108q0 -10 -10 -10z" />
    <glyph glyph-name="Obreve" unicode="&#x14e;" horiz-adv-x="628" 
d="M51 157q-21 66 -21 183t21 183q27 82 96.5 125.5t166.5 43.5t166.5 -43.5t96.5 -125.5q21 -67 21 -183q0 -117 -21 -183q-27 -82 -96.5 -125.5t-166.5 -43.5t-166.5 43.5t-96.5 125.5zM378 217q8 27 8 123t-8 123q-13 43 -64 43t-64 -43q-8 -27 -8 -123t8 -123
q13 -43 64 -43t64 43zM144 874q0 11 14 11h74q10 0 16 -11q19 -37 66 -37t66 37q6 11 16 11h74q14 0 14 -11q0 -64 -50 -109q-50 -44 -120 -44q-71 0 -121 44q-49 45 -49 109z" />
    <glyph glyph-name="obreve" unicode="&#x14f;" horiz-adv-x="546" 
d="M38 134q-15 45 -15 111t15 111q23 71 85 108.5t150 37.5t150 -37.5t85 -108.5q15 -45 15 -111t-15 -111q-23 -71 -85 -108.5t-150 -37.5t-150 37.5t-85 108.5zM315 176q6 20 6 69t-6 69q-9 28 -42 28t-42 -28q-6 -20 -6 -69t6 -69q9 -28 42 -28t42 28zM103 682
q0 11 14 11h74q11 0 16 -11q19 -37 66 -37t66 37q5 11 16 11h74q14 0 14 -11q0 -64 -50 -109q-50 -44 -120 -44q-71 0 -121 44q-49 45 -49 109z" />
    <glyph glyph-name="Ohungarumlaut" unicode="&#x150;" horiz-adv-x="628" 
d="M51 157q-21 66 -21 183t21 183q27 82 96.5 125.5t166.5 43.5t166.5 -43.5t96.5 -125.5q21 -67 21 -183q0 -117 -21 -183q-27 -82 -96.5 -125.5t-166.5 -43.5t-166.5 43.5t-96.5 125.5zM378 217q8 27 8 123t-8 123q-13 43 -64 43t-64 -43q-8 -27 -8 -123t8 -123
q13 -43 64 -43t64 43zM471 738h-117q-11 0 -5 10l80 126q6 10 17 10h135q4 0 5.5 -3.5t-0.5 -6.5l-96 -126q-7 -10 -19 -10zM272 738h-117q-11 0 -5 10l80 126q6 10 17 10h135q4 0 5.5 -3.5t-0.5 -6.5l-96 -126q-7 -10 -19 -10z" />
    <glyph glyph-name="ohungarumlaut" unicode="&#x151;" horiz-adv-x="546" 
d="M38 134q-15 45 -15 111t15 111q23 71 85 108.5t150 37.5t150 -37.5t85 -108.5q15 -45 15 -111t-15 -111q-23 -71 -85 -108.5t-150 -37.5t-150 37.5t-85 108.5zM315 176q6 20 6 69t-6 69q-9 28 -42 28t-42 -28q-6 -20 -6 -69t6 -69q9 -28 42 -28t42 28zM424 536h-117
q-10 0 -6 10l72 144q4 10 16 10h135q4 0 6 -3t0 -7l-88 -144q-6 -10 -18 -10zM225 536h-117q-10 0 -6 10l72 144q4 10 16 10h135q12 0 6 -10l-88 -144q-6 -10 -18 -10z" />
    <glyph glyph-name="OE" unicode="&#x152;" horiz-adv-x="891" 
d="M851 0h-455q-10 0 -10 10v15h-3q-34 -37 -109 -37q-169 0 -222 164q-22 67 -22 188t22 188q53 164 222 164q75 0 109 -37h3v15q0 10 10 10h455q10 0 10 -10v-154q0 -10 -10 -10h-251q-6 0 -6 -6v-66q0 -6 6 -6h201q10 0 10 -10v-150q0 -10 -10 -10h-201q-6 0 -6 -6v-72
q0 -6 6 -6h251q10 0 10 -10v-154q0 -10 -10 -10zM378 217q8 27 8 123t-8 123q-13 43 -64 43t-64 -43q-8 -27 -8 -123t8 -123q13 -43 64 -43t64 43z" />
    <glyph glyph-name="oe" unicode="&#x153;" horiz-adv-x="837" 
d="M579 -12q-94 0 -156 44h-1q-61 -44 -149 -44t-150 37.5t-85 108.5q-15 45 -15 111t15 111q22 71 85 109q62 37 150 37q87 0 149 -44h1q61 44 143 44q187 0 233 -145q15 -47 15 -156q0 -10 -10 -10h-285q-6 0 -6 -6q0 -2 2 -10q13 -42 87 -42q54 0 107 36q8 5 14 -2
l78 -86q7 -7 -2 -15q-89 -78 -220 -78zM519 303h100q6 0 6 6q0 15 -3 24q-10 34 -53 34t-53 -34q-3 -9 -3 -24q0 -6 6 -6zM315 176q6 20 6 69t-6 69q-9 28 -42 28t-42 -28q-6 -20 -6 -69t6 -69q9 -28 42 -28t42 28z" />
    <glyph glyph-name="Racute" unicode="&#x154;" horiz-adv-x="635" 
d="M605 0h-209q-11 0 -15 10l-87 212h-35q-6 0 -6 -6v-206q0 -10 -10 -10h-189q-10 0 -10 10v660q0 10 10 10h284q125 0 193.5 -62t68.5 -167q0 -131 -102 -191l114 -249q5 -11 -7 -11zM259 390h63q68 0 68 58t-68 58h-63q-6 0 -6 -6v-104q0 -6 6 -6zM332 738h-141
q-12 0 -4 10l110 132q7 10 18 10h167q5 0 6.5 -3t-1.5 -7l-134 -132q-10 -10 -21 -10z" />
    <glyph glyph-name="racute" unicode="&#x155;" horiz-adv-x="431" 
d="M232 0h-180q-10 0 -10 10v470q0 10 10 10h180q10 0 10 -10v-44h1q31 66 127 66q28 0 46 -5q9 -2 6 -13l-58 -185q-4 -6 -14 -1q-43 24 -71 17q-37 -9 -37 -64v-241q0 -10 -10 -10zM283 540h-143q-9 0 -5 10l83 144q7 10 17 10h165q4 0 5.5 -3.5t-0.5 -6.5l-106 -144
q-7 -10 -16 -10z" />
    <glyph glyph-name="Rcommaaccent" unicode="&#x156;" horiz-adv-x="635" 
d="M605 0h-209q-11 0 -15 10l-87 212h-35q-6 0 -6 -6v-206q0 -10 -10 -10h-189q-10 0 -10 10v660q0 10 10 10h284q125 0 193.5 -62t68.5 -167q0 -131 -102 -191l114 -249q5 -11 -7 -11zM259 390h63q68 0 68 58t-68 58h-63q-6 0 -6 -6v-104q0 -6 6 -6zM248 -259q-12 0 -12 13
v195q0 10 10 10h142q10 0 10 -10v-100q0 -16 -10 -22l-122 -78q-14 -8 -18 -8z" />
    <glyph glyph-name="rcommaaccent" unicode="&#x157;" horiz-adv-x="431" 
d="M232 0h-180q-10 0 -10 10v470q0 10 10 10h180q10 0 10 -10v-44h1q31 66 127 66q28 0 46 -5q9 -2 6 -13l-58 -185q-4 -6 -14 -1q-43 24 -71 17q-37 -9 -37 -64v-241q0 -10 -10 -10zM73 -259q-12 0 -12 13v195q0 10 10 10h142q10 0 10 -10v-100q0 -16 -10 -22l-122 -78
q-14 -8 -18 -8z" />
    <glyph glyph-name="Rcaron" unicode="&#x158;" horiz-adv-x="635" 
d="M605 0h-209q-11 0 -15 10l-87 212h-35q-6 0 -6 -6v-206q0 -10 -10 -10h-189q-10 0 -10 10v660q0 10 10 10h284q125 0 193.5 -62t68.5 -167q0 -131 -102 -191l114 -249q5 -11 -7 -11zM259 390h63q68 0 68 58t-68 58h-63q-6 0 -6 -6v-104q0 -6 6 -6zM345 726h-108
q-12 0 -19 10l-114 144q-3 4 -1.5 7t6.5 3h113q14 0 24 -10l44 -44h2l44 44q10 10 24 10h113q5 0 6.5 -3t-1.5 -7l-114 -144q-7 -10 -19 -10z" />
    <glyph glyph-name="rcaron" unicode="&#x159;" horiz-adv-x="431" 
d="M232 0h-180q-10 0 -10 10v470q0 10 10 10h180q10 0 10 -10v-44h1q31 66 127 66q28 0 46 -5q9 -2 6 -13l-58 -185q-4 -6 -14 -1q-43 24 -71 17q-37 -9 -37 -64v-241q0 -10 -10 -10zM290 534h-108q-12 0 -19 10l-114 144q-3 4 -1.5 7t6.5 3h113q14 0 24 -10l44 -44h2l44 44
q10 10 24 10h113q5 0 6.5 -3t-1.5 -7l-114 -144q-7 -10 -19 -10z" />
    <glyph glyph-name="Sacute" unicode="&#x15a;" horiz-adv-x="617" 
d="M314 -12q-84 0 -165 29q-80 30 -121 71q-9 9 -1 18l106 125q6 8 13 1q32 -29 77 -47.5t89 -18.5q78 0 78 44q0 15 -14 23t-50 13l-36 5q-121 17 -180 72t-59 153t72 156q72 60 193 60q154 0 257 -78q10 -6 2 -17l-90 -128q-6 -8 -14 -3q-73 49 -147 49q-58 0 -58 -37
q0 -28 65 -37l36 -5q123 -17 180.5 -71.5t57.5 -154.5q0 -101 -77 -161.5t-214 -60.5zM368 738h-141q-12 0 -4 10l110 132q7 10 18 10h167q5 0 6.5 -3t-1.5 -7l-134 -132q-10 -10 -21 -10z" />
    <glyph glyph-name="sacute" unicode="&#x15b;" horiz-adv-x="520" 
d="M263 -12q-155 0 -247 74q-7 7 -1 14l79 100q6 6 14 2q89 -50 168 -50q47 0 47 22q0 8 -10 12t-40 8l-56 6q-87 9 -133.5 50t-46.5 111q0 75 60.5 120t164.5 45q141 0 226 -62q8 -6 1 -15l-70 -93q-6 -8 -15 -3q-67 37 -142 37q-40 0 -40 -19q0 -13 43 -18l56 -6
q100 -11 144.5 -51.5t42.5 -110.5q-2 -79 -67.5 -126t-177.5 -47zM322 540h-143q-9 0 -5 10l83 144q7 10 17 10h165q4 0 5.5 -3.5t-0.5 -6.5l-106 -144q-7 -10 -16 -10z" />
    <glyph glyph-name="Scircumflex" unicode="&#x15c;" horiz-adv-x="617" 
d="M314 -12q-84 0 -165 29q-80 30 -121 71q-9 9 -1 18l106 125q6 8 13 1q32 -29 77 -47.5t89 -18.5q78 0 78 44q0 15 -14 23t-50 13l-36 5q-121 17 -180 72t-59 153t72 156q72 60 193 60q154 0 257 -78q10 -6 2 -17l-90 -128q-6 -8 -14 -3q-73 49 -147 49q-58 0 -58 -37
q0 -28 65 -37l36 -5q123 -17 180.5 -71.5t57.5 -154.5q0 -101 -77 -161.5t-214 -60.5zM504 734h-113q-14 0 -24 10l-44 44h-2l-44 -44q-10 -10 -24 -10h-113q-5 0 -6.5 3t1.5 7l114 144q7 10 19 10h108q12 0 19 -10l114 -144q3 -4 1.5 -7t-6.5 -3z" />
    <glyph glyph-name="scircumflex" unicode="&#x15d;" horiz-adv-x="520" 
d="M263 -12q-155 0 -247 74q-7 7 -1 14l79 100q6 6 14 2q89 -50 168 -50q47 0 47 22q0 8 -10 12t-40 8l-56 6q-87 9 -133.5 50t-46.5 111q0 75 60.5 120t164.5 45q141 0 226 -62q8 -6 1 -15l-70 -93q-6 -8 -15 -3q-67 37 -142 37q-40 0 -40 -19q0 -13 43 -18l56 -6
q100 -11 144.5 -51.5t42.5 -110.5q-2 -79 -67.5 -126t-177.5 -47zM453 538h-113q-14 0 -24 10l-44 44h-2l-44 -44q-10 -10 -24 -10h-113q-5 0 -6.5 3t1.5 7l114 144q7 10 19 10h108q12 0 19 -10l114 -144q3 -4 1.5 -7t-6.5 -3z" />
    <glyph glyph-name="Scedilla" unicode="&#x15e;" horiz-adv-x="617" 
d="M341 -172h-138q-10 0 -7 10l61 154q-70 7 -134 35q-63 28 -95 61q-9 9 -1 18l106 125q6 8 13 1q32 -29 77 -47.5t89 -18.5q78 0 78 44q0 15 -14 23t-50 13l-36 5q-121 17 -180 72t-59 153t72 156q72 60 193 60q154 0 257 -78q10 -6 2 -17l-90 -128q-6 -8 -14 -3
q-73 49 -147 49q-58 0 -58 -37q0 -28 65 -37l36 -5q123 -17 180.5 -71.5t57.5 -154.5q0 -84 -52.5 -140t-150.5 -74l-46 -158q-1 -10 -15 -10z" />
    <glyph glyph-name="scedilla" unicode="&#x15f;" horiz-adv-x="520" 
d="M288 -172h-138q-10 0 -7 10l60 153q-117 13 -187 71q-7 7 -1 14l79 100q6 6 14 2q89 -50 168 -50q47 0 47 22q0 8 -10 12t-40 8l-56 6q-87 9 -133.5 50t-46.5 111q0 75 60.5 120t164.5 45q141 0 226 -62q8 -6 1 -15l-70 -93q-6 -8 -15 -3q-67 37 -142 37q-40 0 -40 -19
q0 -13 43 -18l56 -6q100 -11 144.5 -51.5t42.5 -110.5q-2 -63 -43.5 -106t-115.5 -58l-46 -159q-3 -10 -15 -10z" />
    <glyph glyph-name="Scaron" unicode="&#x160;" horiz-adv-x="617" 
d="M314 -12q-84 0 -165 29q-80 30 -121 71q-9 9 -1 18l106 125q6 8 13 1q32 -29 77 -47.5t89 -18.5q78 0 78 44q0 15 -14 23t-50 13l-36 5q-121 17 -180 72t-59 153t72 156q72 60 193 60q154 0 257 -78q10 -6 2 -17l-90 -128q-6 -8 -14 -3q-73 49 -147 49q-58 0 -58 -37
q0 -28 65 -37l36 -5q123 -17 180.5 -71.5t57.5 -154.5q0 -101 -77 -161.5t-214 -60.5zM370 726h-108q-12 0 -19 10l-114 144q-3 4 -1.5 7t6.5 3h113q14 0 24 -10l44 -44h2l44 44q10 10 24 10h113q5 0 6.5 -3t-1.5 -7l-114 -144q-7 -10 -19 -10z" />
    <glyph glyph-name="scaron" unicode="&#x161;" horiz-adv-x="520" 
d="M263 -12q-155 0 -247 74q-7 7 -1 14l79 100q6 6 14 2q89 -50 168 -50q47 0 47 22q0 8 -10 12t-40 8l-56 6q-87 9 -133.5 50t-46.5 111q0 75 60.5 120t164.5 45q141 0 226 -62q8 -6 1 -15l-70 -93q-6 -8 -15 -3q-67 37 -142 37q-40 0 -40 -19q0 -13 43 -18l56 -6
q100 -11 144.5 -51.5t42.5 -110.5q-2 -79 -67.5 -126t-177.5 -47zM314 534h-108q-12 0 -19 10l-114 144q-3 4 -1.5 7t6.5 3h113q14 0 24 -10l44 -44h2l44 44q10 10 24 10h113q5 0 6.5 -3t-1.5 -7l-114 -144q-7 -10 -19 -10z" />
    <glyph glyph-name="uni0162" unicode="&#x162;" horiz-adv-x="576" 
d="M383 0h-190q-10 0 -10 10v478q0 6 -6 6h-161q-10 0 -10 10v166q0 10 10 10h544q10 0 10 -10v-166q0 -10 -10 -10h-161q-6 0 -6 -6v-478q0 -10 -10 -10zM219 -259q-12 0 -12 13v195q0 10 10 10h142q10 0 10 -10v-100q0 -16 -10 -22l-122 -78q-14 -8 -18 -8z" />
    <glyph glyph-name="uni0163" unicode="&#x163;" horiz-adv-x="352" 
d="M322 -6h-61q-110 0 -157 47q-46 47 -46 164v139q0 6 -6 6h-26q-10 0 -10 10v120q0 10 10 10h26q6 0 6 6v124q0 10 10 10h178q10 0 10 -10v-124q0 -6 6 -6h60q10 0 10 -10v-120q0 -10 -10 -10h-60q-6 0 -6 -6v-131q0 -32 9.5 -43.5t36.5 -11.5h20q10 0 10 -10v-144
q0 -10 -10 -10zM135 -259q-12 0 -12 13v195q0 10 10 10h142q10 0 10 -10v-100q0 -16 -10 -22l-122 -78q-14 -8 -18 -8z" />
    <glyph glyph-name="Tcaron" unicode="&#x164;" horiz-adv-x="576" 
d="M383 0h-190q-10 0 -10 10v478q0 6 -6 6h-161q-10 0 -10 10v166q0 10 10 10h544q10 0 10 -10v-166q0 -10 -10 -10h-161q-6 0 -6 -6v-478q0 -10 -10 -10zM342 726h-108q-12 0 -19 10l-114 144q-3 4 -1.5 7t6.5 3h113q14 0 24 -10l44 -44h2l44 44q10 10 24 10h113
q5 0 6.5 -3t-1.5 -7l-114 -144q-7 -10 -19 -10z" />
    <glyph glyph-name="tcaron" unicode="&#x165;" horiz-adv-x="392" 
d="M322 -6h-61q-110 0 -157 47q-46 47 -46 164v139q0 6 -6 6h-26q-10 0 -10 10v120q0 10 10 10h26q6 0 6 6v124q0 10 10 10h178q10 0 10 -10v-124q0 -6 6 -6h60q10 0 10 -10v-120q0 -10 -10 -10h-60q-6 0 -6 -6v-131q0 -32 9.5 -43.5t36.5 -11.5h20q10 0 10 -10v-144
q0 -10 -10 -10zM375 455q-12 0 -12 13v202q0 10 10 10h124q10 0 10 -10v-107q0 -13 -10 -22l-104 -78q-11 -8 -18 -8z" />
    <glyph glyph-name="Tbar" unicode="&#x166;" horiz-adv-x="576" 
d="M383 0h-190q-10 0 -10 10v255q0 6 -6 6h-64q-10 0 -10 10v116q0 10 10 10h64q6 0 6 6v75q0 6 -6 6h-161q-10 0 -10 10v166q0 10 10 10h544q10 0 10 -10v-166q0 -10 -10 -10h-161q-6 0 -6 -6v-75q0 -6 6 -6h64q10 0 10 -10v-116q0 -10 -10 -10h-64q-6 0 -6 -6v-255
q0 -10 -10 -10z" />
    <glyph glyph-name="tbar" unicode="&#x167;" horiz-adv-x="352" 
d="M322 -6h-61q-110 0 -156.5 47t-46.5 159v10q0 6 -6 6h-18q-10 0 -10 10v79q0 10 10 10h18q6 0 6 6v23q0 6 -6 6h-26q-10 0 -10 10v120q0 10 10 10h26q6 0 6 6v124q0 10 10 10h178q10 0 10 -10v-124q0 -6 6 -6h60q10 0 10 -10v-120q0 -10 -10 -10h-60q-6 0 -6 -6v-23
q0 -6 6 -6h44q10 0 10 -10v-79q0 -10 -10 -10h-44q-6 0 -6 -6v-10q0 -42 46 -42h20q10 0 10 -10v-144q0 -10 -10 -10z" />
    <glyph glyph-name="Utilde" unicode="&#x168;" horiz-adv-x="650" 
d="M401 730q-39 0 -94 26q-37 17 -61 17q-38 0 -81 -33q-11 -8 -11 4v92q0 14 10 24q40 39 86 39q39 0 94 -26q37 -17 61 -17q37 0 81 33q11 8 11 -4v-92q0 -14 -10 -24q-41 -39 -86 -39zM326 -12q-135 0 -209 74t-74 215v393q0 10 10 10h190q10 0 10 -10v-411q0 -85 72 -85
t72 85v411q0 10 10 10h190q10 0 10 -10v-393q0 -141 -73.5 -215t-207.5 -74z" />
    <glyph glyph-name="utilde" unicode="&#x169;" horiz-adv-x="562" 
d="M510 0h-180q-10 0 -10 10v36h-1q-39 -58 -124 -58q-156 0 -156 183v309q0 10 10 10h180q10 0 10 -10v-278q0 -50 41 -50q40 0 40 50v278q0 10 10 10h180q10 0 10 -10v-470q0 -10 -10 -10zM356 536q-39 0 -94 26q-37 17 -61 17q-37 0 -81 -33q-11 -8 -11 4v92q0 14 10 24
q41 39 86 39q39 0 94 -26q37 -17 61 -17q38 0 81 33q11 8 11 -4v-92q0 -14 -10 -24q-40 -39 -86 -39z" />
    <glyph glyph-name="Umacron" unicode="&#x16a;" horiz-adv-x="650" 
d="M326 -12q-135 0 -209 74t-74 215v393q0 10 10 10h190q10 0 10 -10v-411q0 -85 72 -85t72 85v411q0 10 10 10h190q10 0 10 -10v-393q0 -141 -73.5 -215t-207.5 -74zM487 748h-324q-10 0 -10 10v108q0 10 10 10h324q10 0 10 -10v-108q0 -10 -10 -10z" />
    <glyph glyph-name="umacron" unicode="&#x16b;" horiz-adv-x="562" 
d="M510 0h-180q-10 0 -10 10v36h-1q-39 -58 -124 -58q-156 0 -156 183v309q0 10 10 10h180q10 0 10 -10v-278q0 -50 41 -50q40 0 40 50v278q0 10 10 10h180q10 0 10 -10v-470q0 -10 -10 -10zM443 548h-324q-10 0 -10 10v108q0 10 10 10h324q10 0 10 -10v-108q0 -10 -10 -10z
" />
    <glyph glyph-name="Ubreve" unicode="&#x16c;" horiz-adv-x="650" 
d="M326 -12q-135 0 -209 74t-74 215v393q0 10 10 10h190q10 0 10 -10v-411q0 -85 72 -85t72 85v411q0 10 10 10h190q10 0 10 -10v-393q0 -141 -73.5 -215t-207.5 -74zM155 874q0 11 14 11h74q11 0 16 -11q19 -37 66 -37t66 37q5 11 16 11h74q14 0 14 -11q0 -64 -50 -109
q-50 -44 -120 -44q-71 0 -121 44q-49 45 -49 109z" />
    <glyph glyph-name="ubreve" unicode="&#x16d;" horiz-adv-x="562" 
d="M510 0h-180q-10 0 -10 10v36h-1q-39 -58 -124 -58q-156 0 -156 183v309q0 10 10 10h180q10 0 10 -10v-278q0 -50 41 -50q40 0 40 50v278q0 10 10 10h180q10 0 10 -10v-470q0 -10 -10 -10zM111 682q0 11 14 11h74q11 0 16 -11q19 -37 66 -37t66 37q5 11 16 11h74
q14 0 14 -11q0 -64 -50 -109q-50 -44 -120 -44q-71 0 -121 44q-49 45 -49 109z" />
    <glyph glyph-name="Uring" unicode="&#x16e;" horiz-adv-x="650" 
d="M413 728q-34 -34 -88 -34t-89 34q-35 35 -35 88q0 52 35 87q37 35 89 35q53 0 88 -35q36 -35 36 -87q0 -54 -36 -88zM296 786q12 -11 29 -11t28 11q12 12 12 30t-12 29q-11 12 -28 12t-29 -12q-11 -11 -11 -29t11 -30zM326 -12q-135 0 -209 74t-74 215v393q0 10 10 10
h190q10 0 10 -10v-411q0 -85 72 -85t72 85v411q0 10 10 10h190q10 0 10 -10v-393q0 -141 -73.5 -215t-207.5 -74z" />
    <glyph glyph-name="uring" unicode="&#x16f;" horiz-adv-x="562" 
d="M510 0h-180q-10 0 -10 10v36h-1q-39 -58 -124 -58q-156 0 -156 183v309q0 10 10 10h180q10 0 10 -10v-278q0 -50 41 -50q40 0 40 50v278q0 10 10 10h180q10 0 10 -10v-470q0 -10 -10 -10zM369 546q-34 -34 -88 -34t-89 34q-35 35 -35 88q0 52 35 87q37 35 89 35
q53 0 88 -35q36 -35 36 -87q0 -54 -36 -88zM252 604q12 -11 29 -11t28 11q12 12 12 30t-12 29q-11 12 -28 12t-29 -12q-11 -11 -11 -29t11 -30z" />
    <glyph glyph-name="Uhungarumlaut" unicode="&#x170;" horiz-adv-x="650" 
d="M326 -12q-135 0 -209 74t-74 215v393q0 10 10 10h190q10 0 10 -10v-411q0 -85 72 -85t72 85v411q0 10 10 10h190q10 0 10 -10v-393q0 -141 -73.5 -215t-207.5 -74zM468 738h-117q-11 0 -5 10l80 126q6 10 17 10h135q4 0 5.5 -3.5t-0.5 -6.5l-96 -126q-7 -10 -19 -10z
M269 738h-117q-11 0 -5 10l80 126q6 10 17 10h135q4 0 5.5 -3.5t-0.5 -6.5l-96 -126q-7 -10 -19 -10z" />
    <glyph glyph-name="uhungarumlaut" unicode="&#x171;" horiz-adv-x="562" 
d="M510 0h-180q-10 0 -10 10v36h-1q-39 -58 -124 -58q-156 0 -156 183v309q0 10 10 10h180q10 0 10 -10v-278q0 -50 41 -50q40 0 40 50v278q0 10 10 10h180q10 0 10 -10v-470q0 -10 -10 -10zM437 536h-117q-10 0 -6 10l72 144q4 10 16 10h135q12 0 6 -10l-88 -144
q-6 -10 -18 -10zM238 536h-117q-10 0 -6 10l72 144q4 10 16 10h135q4 0 6 -3t0 -7l-88 -144q-6 -10 -18 -10z" />
    <glyph glyph-name="Uogonek" unicode="&#x172;" horiz-adv-x="650" 
d="M336 -192q-54 0 -86 28t-32 73q0 50 38 85q-103 18 -158 90t-55 193v393q0 10 10 10h190q10 0 10 -10v-411q0 -85 72 -85t72 85v411q0 10 10 10h190q10 0 10 -10v-393q0 -116 -50 -187t-143 -92q-35 -22 -46.5 -33.5t-11.5 -20.5q0 -10 13 -10q11 0 24 9q8 5 13 -3
l46 -83q5 -8 -4 -14q-55 -35 -112 -35z" />
    <glyph glyph-name="uogonek" unicode="&#x173;" horiz-adv-x="562" 
d="M399 -192q-54 0 -86 28t-32 73q0 57 60 91h-11q-10 0 -10 10v36h-1q-39 -58 -124 -58q-156 0 -156 183v309q0 10 10 10h180q10 0 10 -10v-278q0 -50 41 -50q40 0 40 50v278q0 10 10 10h180q10 0 10 -10v-470q0 -7 -8 -10q-93 -32 -93 -56q0 -10 13 -10q10 0 24 9
q8 5 13 -3l46 -83q5 -8 -4 -14q-55 -35 -112 -35z" />
    <glyph glyph-name="Wcircumflex" unicode="&#x174;" horiz-adv-x="956" 
d="M744 0h-154q-11 0 -14 10l-94 329h-2l-94 -329q-3 -10 -14 -10h-154q-11 0 -14 10l-195 660q-3 10 7 10h206q12 0 13 -10l76 -360h2l94 360q3 10 14 10h121q11 0 14 -10l98 -360h2l73 360q1 10 13 10h204q10 0 7 -10l-195 -660q-3 -10 -14 -10zM663 734h-113
q-14 0 -24 10l-44 44h-2l-44 -44q-10 -10 -24 -10h-113q-5 0 -6.5 3t1.5 7l114 144q7 10 19 10h108q12 0 19 -10l114 -144q3 -4 1.5 -7t-6.5 -3z" />
    <glyph glyph-name="wcircumflex" unicode="&#x175;" horiz-adv-x="784" 
d="M609 0h-135q-9 0 -12 10l-64 215h-2l-66 -215q-3 -10 -12 -10h-135q-9 0 -12 10l-161 469q-5 11 8 11h179q12 0 15 -10l52 -220h2l64 220q3 10 14 10h107q11 0 14 -10l65 -220h2l48 220q3 10 15 10h179q13 0 8 -11l-161 -469q-3 -10 -12 -10zM578 538h-113q-14 0 -24 10
l-44 44h-2l-44 -44q-10 -10 -24 -10h-113q-5 0 -6.5 3t1.5 7l114 144q7 10 19 10h108q12 0 19 -10l114 -144q3 -4 1.5 -7t-6.5 -3z" />
    <glyph glyph-name="Ycircumflex" unicode="&#x176;" horiz-adv-x="641" 
d="M421 0h-190q-10 0 -10 10v244l-211 415q-5 11 7 11h189q11 0 17 -10l104 -213h3l101 213q4 10 17 10h187q12 0 7 -11l-211 -415v-244q0 -10 -10 -10zM507 734h-113q-14 0 -24 10l-44 44h-2l-44 -44q-10 -10 -24 -10h-113q-5 0 -6.5 3t1.5 7l114 144q7 10 19 10h108
q12 0 19 -10l114 -144q3 -4 1.5 -7t-6.5 -3z" />
    <glyph glyph-name="ycircumflex" unicode="&#x177;" horiz-adv-x="559" 
d="M144 -180h-41q-10 0 -10 10v140q0 10 10 10h30q42 0 54 32l9 25l-188 443q-4 10 7 10h189q10 0 13 -10l70 -201h2l64 201q3 10 13 10h186q11 0 7 -10l-229 -551q-25 -63 -67 -86q-41 -23 -119 -23zM465 538h-113q-14 0 -24 10l-44 44h-2l-44 -44q-10 -10 -24 -10h-113
q-5 0 -6.5 3t1.5 7l114 144q7 10 19 10h108q12 0 19 -10l114 -144q3 -4 1.5 -7t-6.5 -3z" />
    <glyph glyph-name="Ydieresis" unicode="&#x178;" horiz-adv-x="641" 
d="M421 0h-190q-10 0 -10 10v244l-211 415q-5 11 7 11h189q11 0 17 -10l104 -213h3l101 213q4 10 17 10h187q12 0 7 -11l-211 -415v-244q0 -10 -10 -10zM493 739h-126q-10 0 -10 10v124q0 10 10 10h126q10 0 10 -10v-124q0 -10 -10 -10zM283 739h-126q-10 0 -10 10v124
q0 10 10 10h126q10 0 10 -10v-124q0 -10 -10 -10z" />
    <glyph glyph-name="Zacute" unicode="&#x179;" horiz-adv-x="580" 
d="M540 0h-500q-10 0 -10 10v162q0 6 3 10l269 309v3h-251q-10 0 -10 10v166q0 10 10 10h489q10 0 10 -10v-162q0 -6 -3 -10l-270 -309v-3h263q10 0 10 -10v-166q0 -10 -10 -10zM337 738h-141q-4 0 -5.5 3t1.5 7l110 132q7 10 18 10h167q5 0 6.5 -3t-1.5 -7l-134 -132
q-10 -10 -21 -10z" />
    <glyph glyph-name="zacute" unicode="&#x17a;" horiz-adv-x="499" 
d="M459 0h-417q-10 0 -10 10v129q0 5 3 10l199 184v3h-181q-10 0 -10 10v134q0 10 10 10h406q10 0 10 -10v-134q0 -6 -3 -10l-198 -179v-3h191q10 0 10 -10v-134q0 -10 -10 -10zM305 540h-143q-9 0 -5 10l83 144q7 10 17 10h165q4 0 5.5 -3.5t-0.5 -6.5l-106 -144
q-7 -10 -16 -10z" />
    <glyph glyph-name="Zdotaccent" unicode="&#x17b;" horiz-adv-x="580" 
d="M540 0h-500q-10 0 -10 10v162q0 6 3 10l269 309v3h-251q-10 0 -10 10v166q0 10 10 10h489q10 0 10 -10v-162q0 -6 -3 -10l-270 -309v-3h263q10 0 10 -10v-166q0 -10 -10 -10zM374 739h-164q-10 0 -10 10v124q0 10 10 10h164q10 0 10 -10v-124q0 -10 -10 -10z" />
    <glyph glyph-name="zdotaccent" unicode="&#x17c;" horiz-adv-x="499" 
d="M459 0h-417q-10 0 -10 10v129q0 5 3 10l199 184v3h-181q-10 0 -10 10v134q0 10 10 10h406q10 0 10 -10v-134q0 -6 -3 -10l-198 -179v-3h191q10 0 10 -10v-134q0 -10 -10 -10zM336 536h-164q-10 0 -10 10v124q0 10 10 10h164q10 0 10 -10v-124q0 -10 -10 -10z" />
    <glyph glyph-name="Zcaron" unicode="&#x17d;" horiz-adv-x="580" 
d="M540 0h-500q-10 0 -10 10v162q0 6 3 10l269 309v3h-251q-10 0 -10 10v166q0 10 10 10h489q10 0 10 -10v-162q0 -6 -3 -10l-270 -309v-3h263q10 0 10 -10v-166q0 -10 -10 -10zM346 726h-108q-12 0 -19 10l-114 144q-3 4 -1.5 7t6.5 3h113q14 0 24 -10l44 -44h2l44 44
q10 10 24 10h113q5 0 6.5 -3t-1.5 -7l-114 -144q-7 -10 -19 -10z" />
    <glyph glyph-name="zcaron" unicode="&#x17e;" horiz-adv-x="499" 
d="M459 0h-417q-10 0 -10 10v129q0 5 3 10l199 184v3h-181q-10 0 -10 10v134q0 10 10 10h406q10 0 10 -10v-134q0 -6 -3 -10l-198 -179v-3h191q10 0 10 -10v-134q0 -10 -10 -10zM308 534h-108q-12 0 -19 10l-114 144q-3 4 -1.5 7t6.5 3h113q14 0 24 -10l44 -44h2l44 44
q10 10 24 10h113q5 0 6.5 -3t-1.5 -7l-114 -144q-7 -10 -19 -10z" />
    <glyph glyph-name="florin" unicode="&#x192;" 
d="M468 289h-79l-43 -278q-17 -107 -69 -149q-53 -42 -155 -42h-41q-10 0 -10 10v142q0 10 10 10h23q42 0 49 43l41 264h-54q-10 0 -10 10v126q0 10 10 10h76l9 54q17 107 69 149t155 42h41q10 0 10 -10v-142q0 -10 -10 -10h-23q-42 0 -49 -43l-6 -40h56q10 0 10 -10v-126
q0 -10 -10 -10z" />
    <glyph glyph-name="Scommaaccent" unicode="&#x218;" horiz-adv-x="617" 
d="M314 -12q-84 0 -165 29q-80 30 -121 71q-9 9 -1 18l106 125q6 8 13 1q32 -29 77 -47.5t89 -18.5q78 0 78 44q0 15 -14 23t-50 13l-36 5q-121 17 -180 72t-59 153t72 156q72 60 193 60q154 0 257 -78q10 -6 2 -17l-90 -128q-6 -8 -14 -3q-73 49 -147 49q-58 0 -58 -37
q0 -28 65 -37l36 -5q123 -17 180.5 -71.5t57.5 -154.5q0 -101 -77 -161.5t-214 -60.5zM247 -259q-12 0 -12 13v195q0 10 10 10h142q10 0 10 -10v-100q0 -16 -10 -22l-122 -78q-14 -8 -18 -8z" />
    <glyph glyph-name="scommaaccent" unicode="&#x219;" horiz-adv-x="520" 
d="M263 -12q-155 0 -247 74q-7 7 -1 14l79 100q6 6 14 2q89 -50 168 -50q47 0 47 22q0 8 -10 12t-40 8l-56 6q-87 9 -133.5 50t-46.5 111q0 75 60.5 120t164.5 45q141 0 226 -62q8 -6 1 -15l-70 -93q-6 -8 -15 -3q-67 37 -142 37q-40 0 -40 -19q0 -13 43 -18l56 -6
q100 -11 144.5 -51.5t42.5 -110.5q-2 -79 -67.5 -126t-177.5 -47zM209 -259q-12 0 -12 13v195q0 10 10 10h142q10 0 10 -10v-100q0 -16 -10 -22l-122 -78q-14 -8 -18 -8z" />
    <glyph glyph-name="uni021A" unicode="&#x21a;" horiz-adv-x="576" 
d="M383 0h-190q-10 0 -10 10v478q0 6 -6 6h-161q-10 0 -10 10v166q0 10 10 10h544q10 0 10 -10v-166q0 -10 -10 -10h-161q-6 0 -6 -6v-478q0 -10 -10 -10zM219 -259q-12 0 -12 13v195q0 10 10 10h142q10 0 10 -10v-100q0 -16 -10 -22l-122 -78q-14 -8 -18 -8z" />
    <glyph glyph-name="uni021B" unicode="&#x21b;" horiz-adv-x="352" 
d="M322 -6h-61q-110 0 -157 47q-46 47 -46 164v139q0 6 -6 6h-26q-10 0 -10 10v120q0 10 10 10h26q6 0 6 6v124q0 10 10 10h178q10 0 10 -10v-124q0 -6 6 -6h60q10 0 10 -10v-120q0 -10 -10 -10h-60q-6 0 -6 -6v-131q0 -32 9.5 -43.5t36.5 -11.5h20q10 0 10 -10v-144
q0 -10 -10 -10zM135 -259q-12 0 -12 13v195q0 10 10 10h142q10 0 10 -10v-100q0 -16 -10 -22l-122 -78q-14 -8 -18 -8z" />
    <glyph glyph-name="dotlessj" unicode="&#x237;" horiz-adv-x="284" 
d="M21 -180h-43q-10 0 -10 10v140q0 10 10 10h10q31 0 42.5 11t11.5 43v446q0 10 10 10h180q10 0 10 -10v-447q0 -110 -54.5 -161.5t-166.5 -51.5z" />
    <glyph glyph-name="circumflex" unicode="&#x2c6;" horiz-adv-x="530" 
d="M448 538h-113q-14 0 -24 10l-44 44h-2l-44 -44q-10 -10 -24 -10h-113q-5 0 -6.5 3t1.5 7l114 144q7 10 19 10h108q12 0 19 -10l114 -144q3 -4 1.5 -7t-6.5 -3z" />
    <glyph glyph-name="caron" unicode="&#x2c7;" horiz-adv-x="530" 
d="M320 534h-108q-12 0 -19 10l-114 144q-3 4 -1.5 7t6.5 3h113q14 0 24 -10l44 -44h2l44 44q10 10 24 10h113q5 0 6.5 -3t-1.5 -7l-114 -144q-7 -10 -19 -10z" />
    <glyph glyph-name="uni02C9" unicode="&#x2c9;" horiz-adv-x="530" 
d="M427 748h-324q-10 0 -10 10v108q0 10 10 10h324q10 0 10 -10v-108q0 -10 -10 -10z" />
    <glyph glyph-name="breve" unicode="&#x2d8;" horiz-adv-x="530" 
d="M95 682q0 11 14 11h74q11 0 16 -11q19 -37 66 -37t66 37q5 11 16 11h74q14 0 14 -11q0 -64 -50 -109q-50 -44 -120 -44q-71 0 -121 44q-49 45 -49 109z" />
    <glyph glyph-name="dotaccent" unicode="&#x2d9;" horiz-adv-x="530" 
d="M347 536h-164q-10 0 -10 10v124q0 10 10 10h164q10 0 10 -10v-124q0 -10 -10 -10z" />
    <glyph glyph-name="ring" unicode="&#x2da;" horiz-adv-x="530" 
d="M353 546q-34 -34 -88 -34t-89 34q-35 35 -35 88q0 52 35 87q37 35 89 35q53 0 88 -35q36 -35 36 -87q0 -54 -36 -88zM236 604q12 -11 29 -11t28 11q12 12 12 30t-12 29q-11 12 -28 12t-29 -12q-11 -11 -11 -29t11 -30z" />
    <glyph glyph-name="ogonek" unicode="&#x2db;" horiz-adv-x="530" 
d="M265 -192q-54 0 -86 28t-32 73q0 55 46 91q13 10 24 10h154q3 0 4 -2t0 -4.5t-4 -3.5q-86 -35 -86 -56q0 -10 13 -10q10 0 24 9q8 5 13 -3l46 -83q5 -8 -4 -14q-55 -35 -112 -35z" />
    <glyph glyph-name="tilde" unicode="&#x2dc;" horiz-adv-x="530" 
d="M341 536q-39 0 -94 26q-37 17 -61 17q-38 0 -81 -33q-11 -8 -11 4v92q0 14 10 24q40 39 86 39q39 0 94 -26q37 -17 61 -17q37 0 81 33q11 8 11 -4v-92q0 -14 -10 -24q-41 -39 -86 -39z" />
    <glyph glyph-name="hungarumlaut" unicode="&#x2dd;" horiz-adv-x="530" 
d="M379 536h-117q-10 0 -6 10l72 144q4 10 16 10h135q4 0 6 -3t0 -7l-88 -144q-6 -10 -18 -10zM180 536h-117q-10 0 -6 10l72 144q4 10 16 10h135q12 0 6 -10l-88 -144q-6 -10 -18 -10z" />
    <glyph glyph-name="uni0374" unicode="&#x374;" horiz-adv-x="441" 
d="M194 467h-133q-10 0 -7 10l121 245q3 10 15 10h195q4 0 6.5 -3.5t0.5 -6.5l-182 -245q-7 -10 -16 -10z" />
    <glyph glyph-name="uni0375" unicode="&#x375;" horiz-adv-x="441" 
d="M252 67h133q10 0 7 -10l-121 -245q-3 -10 -15 -10h-195q-4 0 -6.5 3.5t-0.5 6.5l182 245q7 10 16 10z" />
    <glyph glyph-name="uni037E" unicode="&#x37e;" horiz-adv-x="288" 
d="M224 310h-160q-10 0 -10 10v160q0 10 10 10h160q10 0 10 -10v-160q0 -10 -10 -10zM58 -89v259q0 10 10 10h152q10 0 10 -10v-145q0 -11 -10 -20l-132 -99q-11 -8 -18 -8q-12 0 -12 13z" />
    <glyph glyph-name="tonos" unicode="&#x384;" horiz-adv-x="493" 
d="M263 540h-123q-10 0 -7 10l43 164q3 10 15 10h178q10 0 4 -10l-96 -164q-6 -10 -14 -10z" />
    <glyph glyph-name="dieresistonos" unicode="&#x385;" horiz-adv-x="620" 
d="M615 540h-120q-10 0 -10 10v118q0 10 10 10h120q9 0 9 -10v-118q0 -10 -9 -10zM216 540h-121q-8 0 -8 10v118q0 10 8 10h121q10 0 10 -10v-118q0 -10 -10 -10zM387 540h-113q-8 0 -7 10l21 164q1 10 15 10h163q10 0 5 -9l-70 -165q-4 -10 -14 -10z" />
    <glyph glyph-name="Alphatonos" unicode="&#x386;" horiz-adv-x="708" 
d="M698 0h-203q-10 0 -13 10l-25 89h-200l-25 -89q-3 -10 -13 -10h-203q-10 0 -7 10l236 660q3 10 13 10h204q10 0 13 -10l230 -660q3 -10 -7 -10zM305 270h105l-50 181h-3zM59 496h-123q-10 0 -7 10l43 164q3 10 15 10h178q10 0 4 -10l-96 -164q-6 -10 -14 -10z" />
    <glyph glyph-name="anoteleia" unicode="&#x387;" horiz-adv-x="268" 
d="M214 175h-160q-10 0 -10 10v160q0 10 10 10h160q10 0 10 -10v-160q0 -10 -10 -10z" />
    <glyph glyph-name="Epsilontonos" unicode="&#x388;" horiz-adv-x="549" 
d="M512 0h-455q-10 0 -10 10v660q0 10 10 10h455q10 0 10 -10v-154q0 -10 -10 -10h-251q-6 0 -6 -6v-66q0 -6 6 -6h201q10 0 10 -10v-150q0 -10 -10 -10h-201q-6 0 -6 -6v-72q0 -6 6 -6h251q10 0 10 -10v-154q0 -10 -10 -10zM-109 496h-123q-10 0 -7 10l43 164q3 10 15 10
h178q10 0 4 -10l-96 -164q-6 -10 -14 -10z" />
    <glyph glyph-name="Etatonos" unicode="&#x389;" horiz-adv-x="661" 
d="M610 0h-190q-10 0 -10 10v237q0 6 -6 6h-141q-6 0 -6 -6v-237q0 -10 -10 -10h-190q-10 0 -10 10v660q0 10 10 10h190q10 0 10 -10v-225q0 -6 6 -6h141q6 0 6 6v225q0 10 10 10h190q10 0 10 -10v-660q0 -10 -10 -10zM-110 496h-123q-10 0 -7 10l43 164q3 10 15 10h178
q10 0 4 -10l-96 -164q-6 -10 -14 -10z" />
    <glyph glyph-name="Iotatonos" unicode="&#x38a;" horiz-adv-x="298" 
d="M-109 496h-123q-10 0 -7 10l43 164q3 10 15 10h178q10 0 4 -10l-96 -164q-6 -10 -14 -10zM247 0h-190q-10 0 -10 10v660q0 10 10 10h190q10 0 10 -10v-660q0 -10 -10 -10z" />
    <glyph glyph-name="Omicrontonos" unicode="&#x38c;" horiz-adv-x="628" 
d="M580 157q-27 -82 -96.5 -125.5t-166.5 -43.5t-166.5 43.5t-96.5 125.5q-21 66 -21 183t21 183q27 82 96.5 125.5t166.5 43.5t166.5 -43.5t96.5 -125.5q21 -67 21 -183q0 -117 -21 -183zM381 217q8 27 8 123t-8 123q-13 43 -64 43t-64 -43q-8 -27 -8 -123t8 -123
q13 -43 64 -43t64 43zM-74 496h-123q-10 0 -7 10l43 164q3 10 15 10h178q10 0 4 -10l-96 -164q-6 -10 -14 -10z" />
    <glyph glyph-name="Upsilontonos" unicode="&#x38e;" horiz-adv-x="641" 
d="M419 0h-190q-10 0 -10 10v244l-211 415q-5 11 7 11h189q11 0 17 -10l104 -213h3l101 213q4 10 17 10h187q12 0 7 -11l-211 -415v-244q0 -10 -10 -10zM-148 496h-123q-10 0 -7 10l43 164q3 10 15 10h178q10 0 4 -10l-96 -164q-6 -10 -14 -10z" />
    <glyph glyph-name="Omegatonos" unicode="&#x38f;" horiz-adv-x="640" 
d="M592 0h-234q-10 0 -10 10v136q0 10 9 16q26 20 32 51q7 29 7 146q0 85 -11 112q-15 35 -62 35q-45 0 -62 -35q-11 -24 -11 -111q0 -116 6 -147q8 -31 33 -51q9 -6 9 -16v-136q0 -10 -10 -10h-234q-10 0 -10 10v144q0 10 10 10h38v1q-54 41 -54 202q0 165 73 245
q72 80 212 80q132 0 203 -71q82 -81 82 -252q0 -163 -54 -204v-1h38q10 0 10 -10v-144q0 -10 -10 -10zM-74 496h-123q-10 0 -7 10l43 164q3 10 15 10h178q10 0 4 -10l-96 -164q-6 -10 -14 -10z" />
    <glyph glyph-name="iotadieresistonos" unicode="&#x390;" horiz-adv-x="362" 
d="M202 -12q-162 0 -162 168v324q0 10 10 10h180q10 0 10 -10v-271q0 -30 11.5 -42.5t36.5 -12.5q14 0 35 3q6 1 8 -4l25 -121q1 -7 -5 -12q-56 -32 -149 -32zM422 540h-120q-10 0 -10 10v118q0 10 10 10h120q9 0 9 -10v-118q0 -10 -9 -10zM23 540h-121q-8 0 -8 10v118
q0 10 8 10h121q10 0 10 -10v-118q0 -10 -10 -10zM194 540h-113q-8 0 -7 10l21 164q1 10 15 10h163q9 0 5 -9l-70 -165q-4 -10 -14 -10z" />
    <glyph glyph-name="Alpha" unicode="&#x391;" horiz-adv-x="708" 
d="M698 0h-203q-10 0 -13 10l-25 89h-200l-25 -89q-3 -10 -13 -10h-203q-10 0 -7 10l236 660q3 10 13 10h204q10 0 13 -10l230 -660q3 -10 -7 -10zM305 270h105l-50 181h-3z" />
    <glyph glyph-name="Beta" unicode="&#x392;" horiz-adv-x="618" 
d="M345 0h-291q-10 0 -10 10v660q0 10 10 10h291q111 0 169 -47.5t58 -133.5q0 -102 -86 -147v-2q43 -16 70.5 -59t27.5 -98q0 -93 -64 -143t-175 -50zM259 413h33q39 0 55.5 13.5t16.5 45.5q0 33 -16.5 46t-55.5 13h-33q-6 0 -6 -6v-106q0 -6 6 -6zM259 150h44q37 0 54 16
t17 51q0 66 -71 66h-44q-6 0 -6 -6v-121q0 -6 6 -6z" />
    <glyph glyph-name="Gamma" unicode="&#x393;" horiz-adv-x="536" 
d="M242 0h-188q-10 0 -10 10v660q0 10 10 10h445q10 0 10 -10v-154q0 -10 -10 -10h-241q-6 0 -6 -6v-490q0 -10 -10 -10z" />
    <glyph glyph-name="uni0394" unicode="&#x394;" horiz-adv-x="708" 
d="M698 0h-682q-10 0 -7 10l236 660q3 10 13 10h204q10 0 13 -10l230 -660q3 -10 -7 -10zM433 188l-73 263h-3l-75 -263q-2 -6 5 -6h141q6 0 5 6z" />
    <glyph glyph-name="Epsilon" unicode="&#x395;" horiz-adv-x="549" 
d="M509 0h-455q-10 0 -10 10v660q0 10 10 10h455q10 0 10 -10v-154q0 -10 -10 -10h-251q-6 0 -6 -6v-66q0 -6 6 -6h201q10 0 10 -10v-150q0 -10 -10 -10h-201q-6 0 -6 -6v-72q0 -6 6 -6h251q10 0 10 -10v-154q0 -10 -10 -10z" />
    <glyph glyph-name="Zeta" unicode="&#x396;" horiz-adv-x="580" 
d="M540 0h-500q-10 0 -10 10v162q0 6 3 10l269 309v3h-251q-10 0 -10 10v166q0 10 10 10h489q10 0 10 -10v-162q0 -6 -3 -10l-270 -309v-3h263q10 0 10 -10v-166q0 -10 -10 -10z" />
    <glyph glyph-name="Eta" unicode="&#x397;" horiz-adv-x="661" 
d="M607 0h-190q-10 0 -10 10v237q0 6 -6 6h-141q-6 0 -6 -6v-237q0 -10 -10 -10h-190q-10 0 -10 10v660q0 10 10 10h190q10 0 10 -10v-225q0 -6 6 -6h141q6 0 6 6v225q0 10 10 10h190q10 0 10 -10v-660q0 -10 -10 -10z" />
    <glyph glyph-name="Theta" unicode="&#x398;" horiz-adv-x="658" 
d="M331 -12q-148 0 -219 71q-82 82 -82 281t81 280q72 72 218 72t216 -70q83 -83 83 -282q0 -55 -3 -94q-3 -40 -21 -92q-16 -51 -49 -87q-73 -79 -224 -79zM330 171q43 0 64 22q30 31 30 145q0 118 -32 150q-21 21 -63 21q-38 0 -61 -20q-34 -31 -34 -149q0 -113 34 -147
q22 -22 62 -22zM381 279h-104q-10 0 -10 10v102q0 10 10 10h104q10 0 10 -10v-102q0 -10 -10 -10z" />
    <glyph glyph-name="Iota" unicode="&#x399;" horiz-adv-x="298" 
d="M244 0h-190q-10 0 -10 10v660q0 10 10 10h190q10 0 10 -10v-660q0 -10 -10 -10z" />
    <glyph glyph-name="Kappa" unicode="&#x39a;" horiz-adv-x="670" 
d="M647 0h-218q-13 0 -17 10l-105 218l-53 -75v-143q0 -10 -10 -10h-190q-10 0 -10 10v660q0 10 10 10h190q10 0 10 -10v-228l158 228q7 10 18 10h212q14 0 7 -13l-200 -268l204 -388q2 -4 0.5 -7.5t-6.5 -3.5z" />
    <glyph glyph-name="Lambda" unicode="&#x39b;" horiz-adv-x="708" 
d="M224 0h-203q-10 0 -7 10l231 660q3 10 13 10h204q10 0 13 -10l225 -660q3 -10 -7 -10h-203q-10 0 -13 10l-117 431h-3l-120 -431q-3 -10 -13 -10z" />
    <glyph glyph-name="Mu" unicode="&#x39c;" horiz-adv-x="782" 
d="M728 0h-169q-10 0 -10 10v312h-5l-90 -216q-6 -13 -19 -13h-88q-12 0 -19 13l-90 216h-5v-312q0 -10 -10 -10h-169q-10 0 -10 10v660q0 10 10 10h181q13 0 17 -10l140 -317h4l136 317q4 10 17 10h179q10 0 10 -10v-660q0 -10 -10 -10z" />
    <glyph glyph-name="Nu" unicode="&#x39d;" horiz-adv-x="650" 
d="M596 0h-179q-13 0 -17 10l-161 335h-6v-335q0 -10 -10 -10h-169q-10 0 -10 10v660q0 10 10 10h179q13 0 17 -10l162 -335h5v335q0 10 10 10h169q10 0 10 -10v-660q0 -10 -10 -10z" />
    <glyph glyph-name="Xi" unicode="&#x39e;" 
d="M530 0h-490q-10 0 -10 10v154q0 10 10 10h490q10 0 10 -10v-154q0 -10 -10 -10zM480 255h-390q-10 0 -10 10v150q0 10 10 10h390q10 0 10 -10v-150q0 -10 -10 -10zM530 506h-490q-10 0 -10 10v154q0 10 10 10h490q10 0 10 -10v-154q0 -10 -10 -10z" />
    <glyph glyph-name="Omicron" unicode="&#x39f;" horiz-adv-x="628" 
d="M577 157q-27 -82 -96.5 -125.5t-166.5 -43.5t-166.5 43.5t-96.5 125.5q-21 66 -21 183t21 183q27 82 96.5 125.5t166.5 43.5t166.5 -43.5t96.5 -125.5q21 -67 21 -183q0 -117 -21 -183zM378 217q8 27 8 123t-8 123q-13 43 -64 43t-64 -43q-8 -27 -8 -123t8 -123
q13 -43 64 -43t64 43z" />
    <glyph glyph-name="Pi" unicode="&#x3a0;" horiz-adv-x="651" 
d="M242 0h-188q-10 0 -10 10v660q0 10 10 10h543q10 0 10 -10v-660q0 -10 -10 -10h-188q-10 0 -10 10v480q0 6 -6 6h-135q-6 0 -6 -6v-480q0 -10 -10 -10z" />
    <glyph glyph-name="Rho" unicode="&#x3a1;" horiz-adv-x="620" 
d="M243 0h-189q-10 0 -10 10v660q0 10 10 10h281q132 0 200.5 -62.5t68.5 -172.5q0 -104 -69 -170q-68 -65 -200 -65h-76q-6 0 -6 -6v-194q0 -10 -10 -10zM259 384h65q70 0 70 61t-70 61h-65q-6 0 -6 -6v-110q0 -6 6 -6z" />
    <glyph glyph-name="Sigma" unicode="&#x3a3;" horiz-adv-x="580" 
d="M537 0h-500q-10 0 -10 10v153q0 5 3 10l124 157l-118 165q-3 5 -3 10v165q0 10 10 10h489q10 0 10 -10v-158q0 -10 -10 -10h-258v-3l114 -149q7 -10 1 -17l-127 -148v-3h275q10 0 10 -10v-162q0 -10 -10 -10z" />
    <glyph glyph-name="Tau" unicode="&#x3a4;" horiz-adv-x="576" 
d="M383 0h-190q-10 0 -10 10v478q0 6 -6 6h-161q-10 0 -10 10v166q0 10 10 10h544q10 0 10 -10v-166q0 -10 -10 -10h-161q-6 0 -6 -6v-478q0 -10 -10 -10z" />
    <glyph glyph-name="Upsilon" unicode="&#x3a5;" horiz-adv-x="641" 
d="M421 0h-190q-10 0 -10 10v244l-211 415q-5 11 7 11h189q11 0 17 -10l104 -213h3l101 213q4 10 17 10h187q12 0 7 -11l-211 -415v-244q0 -10 -10 -10z" />
    <glyph glyph-name="Phi" unicode="&#x3a6;" horiz-adv-x="836" 
d="M326 -40v51q-132 11 -208 76q-88 75 -88 250q0 308 296 328v55q0 10 10 10h164q10 0 10 -10v-55q296 -20 296 -328q0 -171 -89 -246q-78 -67 -207 -79v-52q0 -10 -10 -10h-164q-10 0 -10 10zM326 168v338q-52 -4 -71.5 -43t-19.5 -126q0 -86 19.5 -126t71.5 -43zM510 506
v-338q52 3 71.5 43t19.5 126q0 85 -20.5 125t-70.5 44z" />
    <glyph glyph-name="Chi" unicode="&#x3a7;" horiz-adv-x="642" 
d="M636 0h-202q-12 0 -18 10l-89 154h-3l-89 -154q-6 -10 -18 -10h-202q-12 0 -6 10l204 340l-192 320q-6 10 6 10h202q12 0 18 -10l77 -134h3l77 134q6 10 18 10h202q12 0 6 -10l-192 -320l204 -340q6 -10 -6 -10z" />
    <glyph glyph-name="Psi" unicode="&#x3a8;" horiz-adv-x="764" 
d="M292 10v61q-125 10 -189 60q-68 56 -68 202v338q0 9 12 9h161q11 0 11 -9v-347q0 -50 16 -70t57 -22v438q0 10 10 10h163q10 0 10 -10v-437q44 4 57 24t13 76v338q0 9 11 9h161q12 0 12 -9v-338q0 -59 -9.5 -97.5t-34.5 -75.5q-54 -76 -210 -89v-61q0 -10 -10 -10h-163
q-10 0 -10 10z" />
    <glyph glyph-name="uni03A9" unicode="&#x3a9;" horiz-adv-x="640" 
d="M589 0h-234q-10 0 -10 10v136q0 10 9 16q26 20 32 51q7 29 7 146q0 85 -11 112q-15 35 -62 35q-45 0 -62 -35q-11 -24 -11 -111q0 -116 6 -147q7 -31 33 -51q9 -6 9 -16v-136q0 -10 -10 -10h-234q-10 0 -10 10v144q0 10 10 10h38v1q-54 41 -54 202q0 165 73 245
q72 80 212 80q132 0 203 -71q82 -81 82 -252q0 -163 -54 -204v-1h38q10 0 10 -10v-144q0 -10 -10 -10z" />
    <glyph glyph-name="Iotadieresis" unicode="&#x3aa;" horiz-adv-x="298" 
d="M317 739h-126q-10 0 -10 10v124q0 10 10 10h126q10 0 10 -10v-124q0 -10 -10 -10zM107 739h-126q-10 0 -10 10v124q0 10 10 10h126q10 0 10 -10v-124q0 -10 -10 -10zM244 0h-190q-10 0 -10 10v660q0 10 10 10h190q10 0 10 -10v-660q0 -10 -10 -10z" />
    <glyph glyph-name="Upsilondieresis" unicode="&#x3ab;" horiz-adv-x="641" 
d="M421 0h-190q-10 0 -10 10v244l-211 415q-5 11 7 11h189q11 0 17 -10l104 -213h3l101 213q4 10 17 10h187q12 0 7 -11l-211 -415v-244q0 -10 -10 -10zM493 739h-126q-10 0 -10 10v124q0 10 10 10h126q10 0 10 -10v-124q0 -10 -10 -10zM283 739h-126q-10 0 -10 10v124
q0 10 10 10h126q10 0 10 -10v-124q0 -10 -10 -10z" />
    <glyph glyph-name="alphatonos" unicode="&#x3ac;" horiz-adv-x="600" 
d="M212 -12q-189 0 -189 257t199 257q52 0 83 -15q32 -15 68 -53h1q10 27 15 47q1 9 14 9h158q21 0 13 -27q-23 -88 -37 -124q-13 -36 -53 -120l2 -5q12 -30 27 -43t39 -13h5q13 0 13 -13v-141q0 -10 -10 -10h-9q-87 0 -124 8q-34 9 -55 40l-4 6h-1q-51 -60 -155 -60z
M315 176q6 20 6 69t-6 69q-9 28 -42 28t-42 -28q-6 -20 -6 -69t6 -69q9 -28 42 -28t42 28zM349 540h-123q-10 0 -7 10l43 164q3 10 15 10h178q10 0 4 -10l-96 -164q-6 -10 -14 -10z" />
    <glyph glyph-name="epsilontonos" unicode="&#x3ad;" horiz-adv-x="464" 
d="M244 -12q-216 0 -216 147q0 97 85 125v1q-68 29 -68 100q0 141 224 141q95 0 157 -15q11 -3 13.5 -7t-0.5 -17l-18 -96q-3 -11 -18 -7q-46 8 -113 8q-27 0 -37.5 -6.5t-10.5 -21.5q0 -16 11 -22t37 -6h55q16 0 16 -17v-94q0 -13 -15 -13h-62q-49 0 -49 -31
q0 -15 12 -21.5t45 -6.5q46 0 116 14q13 3 16 1.5t5 -10.5l23 -102q1 -10 -6 -14q-64 -30 -202 -30zM322 540h-123q-10 0 -7 10l43 164q3 10 15 10h178q10 0 4 -10l-96 -164q-6 -10 -14 -10z" />
    <glyph glyph-name="etatonos" unicode="&#x3ae;" horiz-adv-x="586" 
d="M251 0h-180q-10 0 -10 10v300q0 41 -26 41q-10 0 -10 10v124q0 10 10 10q86 0 131.5 -16.5t64.5 -64.5l4 -10h2q45 98 152 98q157 0 157 -183v-489q0 -10 -10 -10h-180q-10 0 -10 10v459q0 49 -44 49q-41 0 -41 -50v-278q0 -10 -10 -10zM316 540h-123q-10 0 -7 10l43 164
q3 10 15 10h178q10 0 4 -10l-96 -164q-6 -10 -14 -10z" />
    <glyph glyph-name="iotatonos" unicode="&#x3af;" horiz-adv-x="362" 
d="M202 -12q-162 0 -162 168v324q0 10 10 10h180q10 0 10 -10v-271q0 -30 11.5 -42.5t36.5 -12.5q14 0 35 3q6 1 8 -4l25 -121q1 -7 -5 -12q-56 -32 -149 -32zM200 540h-123q-10 0 -7 10l43 164q3 10 15 10h178q10 0 4 -10l-96 -164q-6 -10 -14 -10z" />
    <glyph glyph-name="upsilondieresistonos" unicode="&#x3b0;" horiz-adv-x="575" 
d="M301 -12h-3q-132 0 -188 60q-54 60 -54 203v57q0 24 -5.5 33.5t-20.5 9.5q-10 0 -10 10v124q0 10 10 10h50q53 0 79.5 -4.5t50.5 -18.5q46 -26 46 -131v-139q0 -50 43 -50h2q42 0 42 50v278q0 10 10 10h180q10 0 10 -10v-229q0 -142 -55 -203q-54 -60 -187 -60zM544 540
h-120q-10 0 -10 10v118q0 10 10 10h120q9 0 9 -10v-118q0 -10 -9 -10zM145 540h-121q-8 0 -8 10v118q0 10 8 10h121q10 0 10 -10v-118q0 -10 -10 -10zM316 540h-113q-8 0 -7 10l21 164q1 10 15 10h163q9 0 5 -9l-70 -165q-4 -10 -14 -10z" />
    <glyph glyph-name="alpha" unicode="&#x3b1;" horiz-adv-x="600" 
d="M212 -12q-189 0 -189 257t199 257q52 0 83 -15q32 -15 68 -53h1q10 27 15 47q1 9 14 9h158q21 0 13 -27q-23 -88 -37 -124q-13 -36 -53 -120l2 -5q12 -30 27 -43t39 -13h5q13 0 13 -13v-141q0 -10 -10 -10h-9q-87 0 -124 8q-34 9 -55 40l-4 6h-1q-51 -60 -155 -60z
M315 176q6 20 6 69t-6 69q-9 28 -42 28t-42 -28q-6 -20 -6 -69t6 -69q9 -28 42 -28t42 28z" />
    <glyph glyph-name="beta" unicode="&#x3b2;" horiz-adv-x="601" 
d="M232 -180h-180q-10 0 -10 10v614q0 248 257 248q114 0 172 -47.5t58 -135.5t-57 -131v-2q106 -33 106 -166q0 -94 -57 -158t-152 -64q-74 0 -126 37h-1v-195q0 -10 -10 -10zM299 138q67 0 67 70q0 34 -17.5 47t-53.5 13h-7q-10 0 -10 10v128q0 10 10 10h7q63 0 63 63
q0 59 -58 59q-62 0 -62 -69v-261q0 -70 61 -70z" />
    <glyph glyph-name="gamma" unicode="&#x3b3;" horiz-adv-x="568" 
d="M387 -180h-179q-10 0 -10 10l9 165l-121 307q-14 34 -21 41q-8 8 -27 8q-18 0 -18 10v124q0 10 10 10h18q104 0 143 -21q41 -20 66 -99l43 -134h2l19 61q33 102 38 178q0 10 11 10h170q8 0 8 -10q0 -53 -22 -129q-4 -17 -15 -45l-16 -41l-18 -44l-16 -39l-74 -182
l10 -170q0 -10 -10 -10z" />
    <glyph glyph-name="delta" unicode="&#x3b4;" horiz-adv-x="530" 
d="M261 -12q-115 0 -176.5 64t-61.5 174q0 73 36 130.5t90 81.5v1l-7 5q-53 38 -53 102q0 72 51 109t147 37q114 0 192 -32q7 -3 6 -10l-37 -119q-3 -11 -18 -6q-73 22 -100 22q-26 0 -26 -22q0 -17 26 -30l8 -5q96 -59 133 -119q36 -59 36 -144q0 -97 -62 -168t-184 -71z
M316 229q0 78 -50 110q-48 -37 -48 -112q0 -79 49 -79t49 81z" />
    <glyph glyph-name="epsilon" unicode="&#x3b5;" horiz-adv-x="464" 
d="M244 -12q-216 0 -216 147q0 97 85 125v1q-68 29 -68 100q0 141 224 141q95 0 157 -15q11 -3 13.5 -7t-0.5 -17l-18 -96q-3 -11 -18 -7q-46 8 -113 8q-27 0 -37.5 -6.5t-10.5 -21.5q0 -16 11 -22t37 -6h55q16 0 16 -17v-94q0 -13 -15 -13h-62q-49 0 -49 -31
q0 -15 12 -21.5t45 -6.5q46 0 116 14q13 3 16 1.5t5 -10.5l23 -102q1 -10 -6 -14q-64 -30 -202 -30z" />
    <glyph glyph-name="zeta" unicode="&#x3b6;" horiz-adv-x="448" 
d="M256 -179q-8 -3 -13 5l-50 87q-4 9 5 13q32 15 41 25t9 26q0 20 -32 32l-13 5q-74 28 -121 66q-59 49 -59 153q0 83 38.5 156.5t118.5 149.5v1h-122q-10 0 -10 10v120q0 10 10 10h379q10 0 10 -10v-92q-128 -107 -175 -181t-47 -143q0 -36 18 -56q20 -22 76 -46l25 -11
q97 -42 97 -123q0 -50 -29 -93q-36 -57 -156 -104z" />
    <glyph glyph-name="eta" unicode="&#x3b7;" horiz-adv-x="586" 
d="M251 0h-180q-10 0 -10 10v300q0 41 -26 41q-10 0 -10 10v124q0 10 10 10q86 0 131.5 -16.5t64.5 -64.5l4 -10h2q45 98 152 98q157 0 157 -183v-489q0 -10 -10 -10h-180q-10 0 -10 10v459q0 49 -44 49q-41 0 -41 -50v-278q0 -10 -10 -10z" />
    <glyph glyph-name="theta" unicode="&#x3b8;" horiz-adv-x="540" 
d="M270 -12q-126 0 -185 90q-55 85 -55 262q0 353 240 353t240 -353q0 -183 -62 -271q-57 -81 -178 -81zM270 148q32 0 44 27t14 98h-116q2 -71 14 -98t44 -27zM212 408h116q-2 74 -14 99t-44 25t-44.5 -26t-13.5 -98z" />
    <glyph glyph-name="iota" unicode="&#x3b9;" horiz-adv-x="362" 
d="M202 -12q-162 0 -162 168v324q0 10 10 10h180q10 0 10 -10v-271q0 -30 11.5 -42.5t36.5 -12.5q14 0 35 3q6 1 8 -4l25 -121q1 -7 -5 -12q-56 -32 -149 -32z" />
    <glyph glyph-name="kappa" unicode="&#x3ba;" horiz-adv-x="586" 
d="M579 0h-196q-8 0 -14 10l-77 124l-50 -61v-63q0 -10 -10 -10h-180q-10 0 -10 10v470q0 10 10 10h180q10 0 10 -10v-166l100 122q27 33 60.5 46t92.5 13h45q10 0 10 -10v-124q0 -10 -10 -10h-25q-18 0 -31.5 -9.5t-40.5 -39.5l-9 -10l-22 -24l172 -258q6 -10 -5 -10z" />
    <glyph glyph-name="lambda" unicode="&#x3bb;" horiz-adv-x="600" 
d="M216 0h-189q-11 0 -7 10l198 424l-21 50q-12 31 -24 41.5t-36 10.5h-18q-10 0 -10 10v124q0 10 10 10h42q90 0 127 -25q38 -26 72 -106l125 -300q27 -65 39 -78t41 -13h9q10 0 10 -10v-144q0 -10 -10 -10h-53q-56 0 -92 14q-33 14 -49 32t-31 57l-38 98h-2l-80 -185
q-3 -10 -13 -10z" />
    <glyph glyph-name="uni03BC" unicode="&#x3bc;" horiz-adv-x="605" 
d="M232 -180h-180q-10 0 -10 10v650q0 10 10 10h180q10 0 10 -10v-278q0 -50 45 -50t45 50v278q0 10 10 10h180q10 0 10 -10v-288q0 -10 1 -16t7.5 -12t19.5 -6q10 0 10 -10v-142q0 -12 -10 -12h-24q-83 0 -116 11q-30 12 -49 41l-4 6h-1q-33 -62 -111 -62h-13v-4v-156
q0 -10 -10 -10z" />
    <glyph glyph-name="nu" unicode="&#x3bd;" horiz-adv-x="547" 
d="M367 0h-171q-9 0 -12 10l-175 470q-3 10 8 10h183q12 0 15 -10l69 -235h2l11 36q44 147 44 199q0 10 15 10h166q8 0 8 -10q0 -94 -82 -298l-69 -172q-3 -10 -12 -10z" />
    <glyph glyph-name="xi" unicode="&#x3be;" horiz-adv-x="473" 
d="M258 -174l-50 87q-4 9 5 13q30 15 40 24t10 23q0 10 -1 13.5t-8 9.5t-23 13l-23 9q-103 39 -141 74q-37 34 -37 106q0 50 26.5 89.5t68.5 60.5v2q-67 28 -67 91q0 37 18 63t46 35v1h-71q-10 0 -10 10v120q0 10 10 10h392q14 0 14 -10v-128h-117q-84 0 -84 -54
q0 -24 19.5 -34.5t66.5 -10.5h66q10 0 10 -10v-140q0 -10 -7 -10h-77q-49 0 -71.5 -13.5t-22.5 -45.5q0 -20 13.5 -31.5t54.5 -29.5l37 -16q62 -27 86.5 -56t24.5 -77q0 -122 -185 -193q-8 -3 -13 5z" />
    <glyph glyph-name="omicron" unicode="&#x3bf;" horiz-adv-x="546" 
d="M38 134q-15 45 -15 111t15 111q23 71 85 108.5t150 37.5t150 -37.5t85 -108.5q15 -45 15 -111t-15 -111q-23 -71 -85 -108.5t-150 -37.5t-150 37.5t-85 108.5zM315 176q6 20 6 69t-6 69q-9 28 -42 28t-42 -28q-6 -20 -6 -69t6 -69q9 -28 42 -28t42 28z" />
    <glyph glyph-name="pi" unicode="&#x3c0;" horiz-adv-x="639" 
d="M268 0h-180q-10 0 -10 10v303q0 6 -6 6h-42q-10 0 -10 10v151q0 10 10 10h569q10 0 10 -10v-151q0 -10 -10 -10h-42q-6 0 -6 -6v-114q0 -23 7 -32t25 -9h10q10 0 10 -10v-144q0 -10 -10 -10h-56q-94 0 -138 42.5t-44 137.5v139q0 6 -6 6h-65q-6 0 -6 -6v-303
q0 -10 -10 -10z" />
    <glyph glyph-name="rho" unicode="&#x3c1;" horiz-adv-x="561" 
d="M220 -180h-180q-10 0 -10 10v432q0 116 67 177q67 63 174 63q128 0 193 -64q65 -62 65 -193q0 -135 -67 -205q-49 -52 -133 -52q-37 0 -57 6t-41 22h-1v-186q0 -10 -10 -10zM321 176q6 20 6 69t-6 69q-9 28 -42 28t-42 -28q-6 -20 -6 -69t6 -69q9 -28 42 -28t42 28z" />
    <glyph glyph-name="sigma1" unicode="&#x3c2;" horiz-adv-x="433" 
d="M225 -174l-50 87q-5 8 5 13q31 15 40.5 25t9.5 25q0 12 -9.5 21t-44.5 30q-9 5 -11 6q-82 49 -116 96t-34 125q0 114 66.5 181t189.5 67q95 0 156 -24q9 -4 10.5 -7.5t-1.5 -13.5l-32 -117q-5 -17 -20 -12q-54 14 -87 14q-81 0 -81 -84q0 -34 27 -57l18 -14
q18 -11 27 -17l30 -19q44 -29 60 -42q45 -36 45 -93q0 -124 -185 -195q-8 -3 -13 5z" />
    <glyph glyph-name="sigma" unicode="&#x3c3;" horiz-adv-x="597" 
d="M269 -12q-89 0 -149 39t-82 107q-15 45 -15 111q0 49 13 90.5t41.5 77.5t80 56.5t121.5 20.5h283q10 0 10 -10v-125q0 -10 -10 -10h-73v-1q14 -13 24 -44.5t10 -61.5q0 -59 -15 -104q-23 -71 -86.5 -108.5t-152.5 -37.5zM274 148q32 0 41 28q6 19 6 80q0 68 -24 88h-10
q-36 0 -49 -19t-13 -73q0 -56 6 -76q9 -28 43 -28z" />
    <glyph glyph-name="tau" unicode="&#x3c4;" horiz-adv-x="477" 
d="M125 161v157q0 6 -6 6h-94q-10 0 -10 10v146q0 10 10 10h417q10 0 10 -10v-146q0 -10 -10 -10h-111q-6 0 -6 -6v-112q0 -52 47 -52q15 0 36 3q6 1 8 -4l25 -122q2 -8 -8 -13q-59 -30 -145 -30q-163 0 -163 173z" />
    <glyph glyph-name="upsilon" unicode="&#x3c5;" horiz-adv-x="575" 
d="M301 -12h-3q-132 0 -188 60q-54 60 -54 203v57q0 24 -5.5 33.5t-20.5 9.5q-10 0 -10 10v124q0 10 10 10h50q53 0 79.5 -4.5t50.5 -18.5q46 -26 46 -131v-139q0 -50 43 -50h2q42 0 42 50v278q0 10 10 10h180q10 0 10 -10v-229q0 -142 -55 -203q-54 -60 -187 -60z" />
    <glyph glyph-name="phi" unicode="&#x3c6;" horiz-adv-x="710" 
d="M270 -170v151q-120 8 -185 77t-65 189q0 119 63.5 187.5t186.5 78.5v87q0 10 10 10h150q10 0 10 -10v-87q120 -8 185 -77t65 -189q0 -119 -64 -188t-186 -78v-151q0 -10 -10 -10h-150q-10 0 -10 10zM270 133v228q-39 -3 -53 -26.5t-14 -87.5q0 -62 13.5 -87t53.5 -27z
M440 361v-228q39 3 53 26.5t14 87.5q0 63 -13.5 87.5t-53.5 26.5z" />
    <glyph glyph-name="chi" unicode="&#x3c7;" horiz-adv-x="612" 
d="M220 -180h-196q-17 0 -3 23l195 323l-102 152q-14 22 -25 27.5t-34 5.5h-6q-11 0 -11 11v122q0 11 9 11h61q59 0 89 -13q32 -12 54 -38q19 -22 56 -84l14 -24h1l76 143q5 11 14 11h197q6 0 7.5 -6t-2.5 -10l-181 -318l72 -122q33 -56 73 -56h20q11 0 11 -11v-142
q0 -11 -10 -11h-37q-82 0 -119 22q-36 22 -77 85l-40 64h-1l-91 -154q-8 -11 -14 -11z" />
    <glyph glyph-name="psi" unicode="&#x3c8;" horiz-adv-x="738" 
d="M456 -180h-150q-10 0 -10 10v159q-124 5 -180.5 67t-56.5 195v56q0 24 -5.5 34t-20.5 10q-10 0 -10 10v124q0 10 10 10h50q78 0 116 -29q39 -28 39 -117v-127q0 -39 12.5 -55t45.5 -18v451q0 10 10 10h150q10 0 10 -10v-451q33 2 45.5 18t12.5 55v258q0 10 10 10h159
q10 0 10 -10v-229q0 -132 -57 -194.5t-180 -67.5v-159q0 -10 -10 -10z" />
    <glyph glyph-name="omega" unicode="&#x3c9;" horiz-adv-x="748" 
d="M220 -12q-65 0 -121 44q-69 54 -69 196q0 151 70 263q3 5 14 3l155 -35q11 -2 6 -14q-46 -123 -46 -210q0 -73 34 -73q23 0 30 15t7 62v84q0 7 0.5 9.5t3.5 4.5t9 2h122q8 0 10.5 -3.5t2.5 -12.5v-84q0 -47 7 -62t30 -15q34 0 34 73q0 87 -46 210q-5 12 6 14l156 35
q10 1 13 -3q70 -112 70 -263q0 -142 -69 -196q-56 -44 -121 -44q-49 0 -90.5 25t-61.5 67h-4q-20 -42 -61.5 -67t-90.5 -25z" />
    <glyph glyph-name="iotadieresis" unicode="&#x3ca;" horiz-adv-x="362" 
d="M314 536h-126q-10 0 -10 10v124q0 10 10 10h126q10 0 10 -10v-124q0 -10 -10 -10zM104 536h-126q-10 0 -10 10v124q0 10 10 10h126q10 0 10 -10v-124q0 -10 -10 -10zM202 -12q-162 0 -162 168v324q0 10 10 10h180q10 0 10 -10v-271q0 -30 11.5 -42.5t36.5 -12.5
q14 0 35 3q6 1 8 -4l25 -121q1 -7 -5 -12q-56 -32 -149 -32z" />
    <glyph glyph-name="upsilondieresis" unicode="&#x3cb;" horiz-adv-x="575" 
d="M301 -12h-3q-132 0 -188 60q-54 60 -54 203v57q0 24 -5.5 33.5t-20.5 9.5q-10 0 -10 10v124q0 10 10 10h50q53 0 79.5 -4.5t50.5 -18.5q46 -26 46 -131v-139q0 -50 43 -50h2q42 0 42 50v278q0 10 10 10h180q10 0 10 -10v-229q0 -142 -55 -203q-54 -60 -187 -60zM462 536
h-126q-10 0 -10 10v124q0 10 10 10h126q10 0 10 -10v-124q0 -10 -10 -10zM252 536h-126q-10 0 -10 10v124q0 10 10 10h126q10 0 10 -10v-124q0 -10 -10 -10z" />
    <glyph glyph-name="omicrontonos" unicode="&#x3cc;" horiz-adv-x="546" 
d="M38 134q-15 45 -15 111t15 111q23 71 85 108.5t150 37.5t150 -37.5t85 -108.5q15 -45 15 -111t-15 -111q-23 -71 -85 -108.5t-150 -37.5t-150 37.5t-85 108.5zM315 176q6 20 6 69t-6 69q-9 28 -42 28t-42 -28q-6 -20 -6 -69t6 -69q9 -28 42 -28t42 28zM329 540h-123
q-10 0 -7 10l43 164q3 10 15 10h178q10 0 4 -10l-96 -164q-6 -10 -14 -10z" />
    <glyph glyph-name="upsilontonos" unicode="&#x3cd;" horiz-adv-x="575" 
d="M301 -12h-3q-132 0 -188 60q-54 60 -54 203v57q0 24 -5.5 33.5t-20.5 9.5q-10 0 -10 10v124q0 10 10 10h50q53 0 79.5 -4.5t50.5 -18.5q46 -26 46 -131v-139q0 -50 43 -50h2q42 0 42 50v278q0 10 10 10h180q10 0 10 -10v-229q0 -142 -55 -203q-54 -60 -187 -60zM350 540
h-123q-10 0 -7 10l43 164q3 10 15 10h178q10 0 4 -10l-96 -164q-6 -10 -14 -10z" />
    <glyph glyph-name="omegatonos" unicode="&#x3ce;" horiz-adv-x="748" 
d="M220 -12q-65 0 -121 44q-69 54 -69 196q0 151 70 263q3 5 14 3l155 -35q11 -2 6 -14q-46 -123 -46 -210q0 -73 34 -73q23 0 30 15t7 62v84q0 7 0.5 9.5t3.5 4.5t9 2h122q8 0 10.5 -3.5t2.5 -12.5v-84q0 -47 7 -62t30 -15q34 0 34 73q0 87 -46 210q-5 12 6 14l156 35
q10 1 13 -3q70 -112 70 -263q0 -142 -69 -196q-56 -44 -121 -44q-49 0 -90.5 25t-61.5 67h-4q-20 -42 -61.5 -67t-90.5 -25zM435 540h-123q-10 0 -7 10l43 164q3 10 15 10h178q10 0 4 -10l-96 -164q-6 -10 -14 -10z" />
    <glyph glyph-name="uni0400" unicode="&#x400;" horiz-adv-x="549" 
d="M509 0h-455q-10 0 -10 10v660q0 10 10 10h455q10 0 10 -10v-154q0 -10 -10 -10h-251q-6 0 -6 -6v-66q0 -6 6 -6h201q10 0 10 -10v-150q0 -10 -10 -10h-201q-6 0 -6 -6v-72q0 -6 6 -6h251q10 0 10 -10v-154q0 -10 -10 -10zM372 738h-141q-11 0 -21 10l-134 132
q-3 4 -1.5 7t6.5 3h167q11 0 18 -10l110 -132q3 -4 1.5 -7t-5.5 -3z" />
    <glyph glyph-name="uni0401" unicode="&#x401;" horiz-adv-x="549" 
d="M509 0h-455q-10 0 -10 10v660q0 10 10 10h455q10 0 10 -10v-154q0 -10 -10 -10h-251q-6 0 -6 -6v-66q0 -6 6 -6h201q10 0 10 -10v-150q0 -10 -10 -10h-201q-6 0 -6 -6v-72q0 -6 6 -6h251q10 0 10 -10v-154q0 -10 -10 -10zM449 739h-126q-10 0 -10 10v124q0 10 10 10h126
q10 0 10 -10v-124q0 -10 -10 -10zM239 739h-126q-10 0 -10 10v124q0 10 10 10h126q10 0 10 -10v-124q0 -10 -10 -10z" />
    <glyph glyph-name="uni0402" unicode="&#x402;" horiz-adv-x="760" 
d="M380 0h-189q-10 0 -10 10v486q0 6 -5 6h-160q-10 0 -10 10v158q0 10 10 10h539q10 0 10 -10v-158q0 -10 -10 -10h-158q-6 0 -6 -5v-71q0 -4 4 -6.5t7 -1.5q68 12 143 12q64 0 123 -40q33 -21 52.5 -62.5t19.5 -97.5q0 -230 -261 -230h-33q-11 0 -11 10v153q0 9 10 9h20
q36 0 50 10t14 34q0 39 -57 39q-31 0 -68 -10l-5 -1q-8 -3 -8 -13v-221q0 -10 -11 -10z" />
    <glyph glyph-name="uni0403" unicode="&#x403;" horiz-adv-x="512" 
d="M243 0h-189q-10 0 -10 10v660q0 10 10 10h442q10 0 10 -10v-165q0 -10 -10 -10h-236q-6 0 -6 -6v-479q0 -10 -11 -10zM303 738h-141q-4 0 -5.5 3t1.5 7l110 132q7 10 18 10h167q5 0 6.5 -3t-1.5 -7l-134 -132q-10 -10 -21 -10z" />
    <glyph glyph-name="uni0404" unicode="&#x404;" horiz-adv-x="584" 
d="M317 -12q-104 0 -176.5 48t-95.5 136q-15 61 -15 166q0 119 20 182q27 81 97.5 126.5t169.5 45.5q188 0 251 -156q4 -10 -5 -15l-155 -66q-10 -4 -15 7q-24 55 -72 55q-27 0 -50 -18q-22 -18 -28 -63q0 -8 8 -8h129q10 0 10 -10v-149q0 -9 -10 -9h-128q-9 0 -9 -8
q2 -49 24 -68q23 -21 54 -21q48 0 74 56q5 11 14 7l154 -67q10 -4 5 -15q-68 -156 -251 -156z" />
    <glyph glyph-name="uni0405" unicode="&#x405;" horiz-adv-x="617" 
d="M314 -12q-84 0 -165 29q-80 30 -121 71q-9 9 -1 18l106 125q6 8 13 1q32 -29 77 -47.5t89 -18.5q78 0 78 44q0 15 -14 23t-50 13l-36 5q-121 17 -180 72t-59 153t72 156q72 60 193 60q154 0 257 -78q10 -6 2 -17l-90 -128q-6 -8 -14 -3q-73 49 -147 49q-58 0 -58 -37
q0 -28 65 -37l36 -5q123 -17 180.5 -71.5t57.5 -154.5q0 -101 -77 -161.5t-214 -60.5z" />
    <glyph glyph-name="uni0406" unicode="&#x406;" horiz-adv-x="298" 
d="M244 0h-190q-10 0 -10 10v660q0 10 10 10h190q10 0 10 -10v-660q0 -10 -10 -10z" />
    <glyph glyph-name="uni0407" unicode="&#x407;" horiz-adv-x="298" 
d="M317 739h-126q-10 0 -10 10v124q0 10 10 10h126q10 0 10 -10v-124q0 -10 -10 -10zM107 739h-126q-10 0 -10 10v124q0 10 10 10h126q10 0 10 -10v-124q0 -10 -10 -10zM233 0h-190q-10 0 -10 10v660q0 10 10 10h190q10 0 10 -10v-660q0 -10 -10 -10z" />
    <glyph glyph-name="uni0408" unicode="&#x408;" horiz-adv-x="550" 
d="M238 -12q-70 0 -129.5 27t-88.5 71q-5 8 1 14l132 108q7 4 13 -1q28 -33 66 -33q70 0 70 80v416q0 10 10 10h190q10 0 10 -10v-393q0 -289 -274 -289z" />
    <glyph glyph-name="uni0409" unicode="&#x409;" horiz-adv-x="1005" 
d="M95 -6h-85q-10 0 -10 10v160q0 9 10 9h17q37 0 60.5 35.5t23.5 113.5v349q0 9 9 9h504q11 0 11 -10v-198q0 -6 6 -6h79q126 0 195.5 -63t69.5 -169q0 -107 -69 -170.5t-196 -63.5h-286q-9 0 -9 10v479q0 6 -6 6h-97q-6 0 -6 -6v-165q0 -179 -56 -255q-56 -75 -165 -75z
M641 176h67q42 -4 59 27t-0.5 62.5t-58.5 28.5h-67q-6 0 -6 -6v-106q0 -6 6 -6z" />
    <glyph glyph-name="uni040A" unicode="&#x40a;" horiz-adv-x="986" 
d="M244 0h-190q-10 0 -10 10v660q0 10 10 10h190q10 0 10 -10v-221q0 -6 6 -6h141q6 0 6 6v221q0 10 10 10h189q11 0 11 -10v-221q0 -6 6 -6h109q108 0 171 -58.5t63 -157.5q0 -98 -68 -163q-67 -64 -177 -64h-304q-10 0 -10 10v241q0 6 -6 6h-141q-6 0 -6 -6v-241
q0 -10 -10 -10zM623 173h88q20 0 33.5 15.5t13.5 38.5q0 24 -13 39t-34 15h-88q-6 0 -6 -6v-96q0 -6 6 -6z" />
    <glyph glyph-name="uni040B" unicode="&#x40b;" horiz-adv-x="760" 
d="M380 0h-189q-10 0 -10 10v486q0 6 -5 6h-160q-10 0 -10 10v158q0 10 10 10h539q10 0 10 -10v-158q0 -10 -10 -10h-158q-6 0 -6 -6v-81q0 -8 9 -6q71 13 145 13q26 0 48 -3.5t46.5 -15t41.5 -30.5t28 -53.5t11 -80.5v-230q0 -9 -9 -9h-191q-10 0 -10 9v191q0 41 -53 41
q-23 0 -58 -11q-8 -3 -8 -12v-208q0 -10 -11 -10z" />
    <glyph glyph-name="uni040C" unicode="&#x40c;" horiz-adv-x="658" 
d="M244 0h-190q-10 0 -10 10v660q0 10 10 10h190q10 0 10 -10v-227q0 -6 6 -6h13q27 0 41 9t23 31l35 86q26 65 68 94t108 29h67q10 0 10 -10v-154q0 -9 -10 -9h-24q-31 0 -44 -39l-20 -54q-19 -52 -46 -62v-4q36 -10 54 -65l25 -79q12 -37 45 -37h14q10 0 10 -9v-160
q0 -10 -10 -10h-74q-69 0 -110 28.5t-62 94.5l-24 77q-16 40 -33 50t-50 9h-7q-5 0 -5 -5v-238q0 -10 -10 -10zM373 738h-141q-4 0 -5.5 3t1.5 7l110 132q7 10 18 10h167q5 0 6.5 -3t-1.5 -7l-134 -132q-10 -10 -21 -10z" />
    <glyph glyph-name="uni040D" unicode="&#x40d;" horiz-adv-x="670" 
d="M222 0h-169q-9 0 -9 10v661q0 9 9 9h192q9 0 9 -9v-302h3l172 300q6 11 18 11h170q9 0 9 -9v-661q0 -10 -9 -10h-193q-8 0 -8 10v303h-3l-171 -301q-8 -12 -20 -12zM422 738h-141q-11 0 -21 10l-134 132q-3 4 -1.5 7t6.5 3h167q11 0 18 -10l110 -132q3 -4 1.5 -7t-5.5 -3
z" />
    <glyph glyph-name="uni040E" unicode="&#x40e;" horiz-adv-x="635" 
d="M198 -6h-80q-11 0 -11 10v160q0 9 11 9h39q51 0 68 29l4 7l-222 458q-3 6 -0.5 9.5t6.5 3.5h203q12 0 17 -9l98 -222h3l78 222q4 9 14 9h200q5 0 7 -4t0 -8l-235 -545q-56 -129 -200 -129zM332 713q-74 0 -114.5 32.5t-52.5 102.5q-3 12 5 14l95 11q9 1 12 -7
q11 -32 55 -32q45 0 56 32q3 9 11 7l96 -11q8 -2 5 -14q-12 -70 -52.5 -102.5t-115.5 -32.5z" />
    <glyph glyph-name="uni040F" unicode="&#x40f;" horiz-adv-x="653" 
d="M414 -110h-175q-8 0 -8 11v93q0 6 -6 6h-172q-9 0 -9 9v661q0 10 9 10h192q9 0 9 -10v-478q0 -6 6 -6h133q6 0 6 6v478q0 10 8 10h192q10 0 10 -10v-661q0 -9 -11 -9h-170q-6 0 -6 -6v-93q0 -11 -8 -11z" />
    <glyph glyph-name="uni0410" unicode="&#x410;" horiz-adv-x="708" 
d="M219 0h-203q-10 0 -7 10l236 660q3 10 13 10h204q10 0 13 -10l230 -660q3 -10 -7 -10h-203q-10 0 -13 10l-25 89h-200l-25 -89q-3 -10 -13 -10zM357 451l-52 -181h105l-50 181h-3z" />
    <glyph glyph-name="uni0411" unicode="&#x411;" horiz-adv-x="617" 
d="M358 0h-305q-9 0 -9 10v661q0 9 9 9h484q9 0 9 -9v-157q0 -10 -9 -10h-277q-6 0 -6 -6v-49q0 -6 6 -6h98q108 0 171 -58.5t63 -157.5t-63 -164q-61 -63 -171 -63zM260 173h77q20 0 33.5 15.5t13.5 38.5q0 24 -13 39t-34 15h-77q-6 0 -6 -6v-96q0 -6 6 -6z" />
    <glyph glyph-name="uni0412" unicode="&#x412;" horiz-adv-x="618" 
d="M345 0h-291q-10 0 -10 10v660q0 10 10 10h291q111 0 169 -47.5t58 -133.5q0 -100 -86 -145v-4q43 -16 70.5 -59t27.5 -98q0 -93 -64 -143t-175 -50zM259 150h44q37 0 54 16t17 51q0 66 -71 66h-44q-6 0 -6 -6v-121q0 -6 6 -6zM259 413h33q39 0 55.5 13.5t16.5 45.5
q0 33 -16.5 46t-55.5 13h-33q-6 0 -6 -6v-106q0 -6 6 -6z" />
    <glyph glyph-name="uni0413" unicode="&#x413;" horiz-adv-x="512" 
d="M243 0h-189q-10 0 -10 10v660q0 10 10 10h442q10 0 10 -10v-165q0 -10 -10 -10h-236q-6 0 -6 -6v-479q0 -10 -11 -10z" />
    <glyph glyph-name="uni0414" unicode="&#x414;" horiz-adv-x="704" 
d="M176 -110h-174q-8 0 -8 11v275q0 9 9 9h34q15 0 19 10q65 156 65 331v145q0 9 10 9h500q9 0 9 -10v-479q0 -6 6 -6h50q10 0 10 -9v-275q0 -11 -9 -11h-174q-8 0 -8 11v93q0 6 -6 6h-318q-6 0 -6 -6v-93q0 -11 -9 -11zM275 185h149q6 0 6 6v302q0 6 -6 6h-93q-6 0 -6 -6
v-17q0 -53 -18 -143q-17 -90 -39 -139q-4 -9 7 -9z" />
    <glyph glyph-name="uni0415" unicode="&#x415;" horiz-adv-x="549" 
d="M509 0h-455q-10 0 -10 10v660q0 10 10 10h455q10 0 10 -10v-154q0 -10 -10 -10h-251q-6 0 -6 -6v-66q0 -6 6 -6h201q10 0 10 -10v-150q0 -10 -10 -10h-201q-6 0 -6 -6v-72q0 -6 6 -6h251q10 0 10 -10v-154q0 -10 -10 -10z" />
    <glyph glyph-name="uni0416" unicode="&#x416;" horiz-adv-x="986" 
d="M588 0h-190q-10 0 -10 10v239q0 6 -6 6h-3q-52 0 -71 -61l-24 -77q-21 -67 -63 -95t-116 -28h-66q-10 0 -10 10v160q0 9 10 9h13q35 0 45 37l24 78q17 54 54 66v4q-28 14 -44 59l-21 57q-14 39 -49 39h-19q-10 0 -10 9v154q0 10 10 10h66q128 0 177 -123l35 -86
q16 -42 59 -42h3q6 0 6 6v229q0 10 10 10h190q10 0 10 -10v-229q0 -6 6 -6h3q43 0 59 42l35 86q49 123 177 123h66q10 0 10 -10v-154q0 -9 -10 -9h-19q-36 0 -49 -39l-21 -57q-16 -45 -44 -59v-4q37 -12 54 -66l24 -78q10 -37 45 -37h13q10 0 10 -9v-160q0 -10 -10 -10h-66
q-74 0 -116 28t-63 95l-24 77q-19 61 -71 61h-3q-6 0 -6 -6v-239q0 -10 -10 -10z" />
    <glyph glyph-name="uni0417" unicode="&#x417;" horiz-adv-x="578" 
d="M301 -12q-187 0 -279 80q-8 4 0 15l88 130q7 3 12 1q79 -49 154 -49q61 0 61 49t-63 49h-72q-9 0 -9 10v146q0 11 9 11h71q25 0 39.5 12.5t14.5 34.5q0 39 -62 39q-75 0 -140 -41q-11 -8 -13 0l-85 129q-6 9 1 12q110 76 270 76q110 0 177 -54t67 -146q0 -41 -22 -78.5
t-58 -57.5v-4q38 -18 64 -59t26 -87q0 -98 -73 -158t-178 -60z" />
    <glyph glyph-name="uni0418" unicode="&#x418;" horiz-adv-x="670" 
d="M222 0h-169q-9 0 -9 10v661q0 9 9 9h192q9 0 9 -9v-302h3l172 300q6 11 18 11h170q9 0 9 -9v-661q0 -10 -9 -10h-193q-8 0 -8 10v303h-3l-171 -301q-8 -12 -20 -12z" />
    <glyph glyph-name="uni0419" unicode="&#x419;" horiz-adv-x="670" 
d="M222 0h-169q-9 0 -9 10v661q0 9 9 9h192q9 0 9 -9v-302h3l172 300q6 11 18 11h170q9 0 9 -9v-661q0 -10 -9 -10h-193q-8 0 -8 10v303h-3l-171 -301q-8 -12 -20 -12zM336 713q-74 0 -114.5 32.5t-52.5 102.5q-3 12 5 14l95 11q9 1 12 -7q11 -32 55 -32q45 0 56 32
q3 9 11 7l96 -11q8 -2 5 -14q-12 -70 -52.5 -102.5t-115.5 -32.5z" />
    <glyph glyph-name="uni041A" unicode="&#x41a;" horiz-adv-x="658" 
d="M244 0h-190q-10 0 -10 10v660q0 10 10 10h190q10 0 10 -10v-227q0 -6 6 -6h13q27 0 41 9t23 31l35 86q26 65 68 94t108 29h67q10 0 10 -10v-154q0 -9 -10 -9h-24q-31 0 -44 -39l-20 -54q-19 -52 -46 -62v-4q36 -10 54 -65l25 -79q12 -37 45 -37h14q10 0 10 -9v-160
q0 -10 -10 -10h-74q-69 0 -110 28.5t-62 94.5l-24 77q-16 40 -33 50t-50 9h-7q-5 0 -5 -5v-238q0 -10 -10 -10z" />
    <glyph glyph-name="uni041B" unicode="&#x41b;" horiz-adv-x="679" 
d="M95 -6h-85q-10 0 -10 10v160q0 9 10 9h17q37 0 60.5 35.5t23.5 113.5v349q0 9 9 9h507q8 0 8 -9v-661q0 -10 -7 -10h-194q-9 0 -9 10v479q0 6 -6 6h-97q-6 0 -6 -6v-165q0 -179 -56 -255q-56 -75 -165 -75z" />
    <glyph glyph-name="uni041C" unicode="&#x41c;" horiz-adv-x="782" 
d="M223 0h-169q-10 0 -10 10v660q0 10 10 10h181q13 0 17 -10l140 -317h4l136 317q4 10 17 10h179q10 0 10 -10v-660q0 -10 -10 -10h-169q-10 0 -10 10v312h-5l-90 -216q-6 -13 -19 -13h-88q-15 0 -19 13l-90 216h-5v-312q0 -10 -10 -10z" />
    <glyph glyph-name="uni041D" unicode="&#x41d;" horiz-adv-x="661" 
d="M244 0h-190q-10 0 -10 10v660q0 10 10 10h190q10 0 10 -10v-225q0 -6 6 -6h141q6 0 6 6v225q0 10 10 10h190q10 0 10 -10v-660q0 -10 -10 -10h-190q-10 0 -10 10v237q0 6 -6 6h-141q-6 0 -6 -6v-237q0 -10 -10 -10z" />
    <glyph glyph-name="uni041E" unicode="&#x41e;" horiz-adv-x="628" 
d="M51 157q-21 66 -21 183t21 183q27 82 96.5 125.5t166.5 43.5t166.5 -43.5t96.5 -125.5q21 -67 21 -183q0 -117 -21 -183q-27 -82 -96.5 -125.5t-166.5 -43.5t-166.5 43.5t-96.5 125.5zM378 217q8 27 8 123t-8 123q-13 43 -64 43t-64 -43q-8 -27 -8 -123t8 -123
q13 -43 64 -43t64 43z" />
    <glyph glyph-name="uni041F" unicode="&#x41f;" horiz-adv-x="653" 
d="M245 0h-192q-9 0 -9 10v661q0 9 9 9h545q11 0 11 -9v-661q0 -10 -10 -10h-192q-8 0 -8 10v479q0 6 -6 6h-133q-6 0 -6 -6v-479q0 -10 -9 -10z" />
    <glyph glyph-name="uni0420" unicode="&#x420;" horiz-adv-x="620" 
d="M243 0h-189q-10 0 -10 10v660q0 10 10 10h281q132 0 200.5 -62.5t68.5 -172.5q0 -104 -69 -170q-68 -65 -200 -65h-76q-6 0 -6 -6v-194q0 -10 -10 -10zM259 384h65q70 0 70 61t-70 61h-65q-6 0 -6 -6v-110q0 -6 6 -6z" />
    <glyph glyph-name="uni0421" unicode="&#x421;" horiz-adv-x="572" 
d="M51 156q-21 63 -21 184t21 184q27 83 91.5 125.5t160.5 42.5q95 0 160 -41.5t93 -118.5q4 -9 -5 -14l-161 -69q-11 -5 -15 7q-23 50 -67 50t-58 -41q-8 -27 -8 -125t8 -125q14 -41 58 -41t67 50q4 12 15 7l161 -69q9 -5 5 -14q-28 -77 -93 -118.5t-160 -41.5
q-96 0 -160.5 42.5t-91.5 125.5z" />
    <glyph glyph-name="uni0422" unicode="&#x422;" horiz-adv-x="576" 
d="M383 0h-190q-10 0 -10 10v478q0 6 -6 6h-161q-10 0 -10 10v166q0 10 10 10h544q10 0 10 -10v-166q0 -10 -10 -10h-161q-6 0 -6 -6v-478q0 -10 -10 -10z" />
    <glyph glyph-name="uni0423" unicode="&#x423;" horiz-adv-x="635" 
d="M198 -6h-80q-11 0 -11 10v160q0 9 11 9h39q51 0 68 29l4 7l-222 458q-3 6 -0.5 9.5t6.5 3.5h203q12 0 17 -9l98 -222h3l78 222q4 9 14 9h200q5 0 7 -4t0 -8l-235 -545q-56 -129 -200 -129z" />
    <glyph glyph-name="uni0424" unicode="&#x424;" horiz-adv-x="837" 
d="M514 -12h-191q-9 0 -9 10v70q0 6 -6 6q-154 11 -223.5 80t-69.5 203q0 242 293 259q6 0 6 6v59q0 11 8 11h192q9 0 9 -11v-59q0 -6 6 -6q293 -17 293 -259q0 -134 -69.5 -203t-223.5 -80q-6 0 -6 -6v-70q0 -10 -9 -10zM306 250q8 0 8 6v178q0 5 -8 5q-40 0 -61 -20.5
t-21 -71.5q0 -52 19.5 -74.5t62.5 -22.5zM530 250q83 0 83 97q0 52 -20.5 72t-62.5 20q-7 0 -7 -5v-178q0 -6 7 -6z" />
    <glyph glyph-name="uni0425" unicode="&#x425;" horiz-adv-x="642" 
d="M217 0h-202q-12 0 -6 10l204 340l-192 320q-6 10 6 10h202q12 0 18 -10l77 -134h3l77 134q6 10 18 10h202q12 0 6 -10l-192 -320l204 -340q6 -10 -6 -10h-202q-12 0 -18 10l-89 154h-3l-89 -154q-6 -10 -18 -10z" />
    <glyph glyph-name="uni0426" unicode="&#x426;" horiz-adv-x="674" 
d="M665 -110h-173q-8 0 -8 11v93q0 6 -6 6h-425q-9 0 -9 9v661q0 10 9 10h192q9 0 9 -10v-478q0 -6 6 -6h133q6 0 6 6v478q0 4 3 7t5 3h193q9 0 9 -10v-478q0 -6 6 -6h49q10 0 10 -9v-276q0 -11 -9 -11z" />
    <glyph glyph-name="uni0427" unicode="&#x427;" horiz-adv-x="611" 
d="M558 0h-192q-9 0 -9 10v209q0 4 -3.5 6.5t-6.5 1.5q-72 -13 -143 -13q-32 0 -60.5 8.5t-55.5 28t-43 57.5t-16 90v273q0 9 9 9h191q10 0 10 -9v-218q0 -50 48 -50q39 0 63 7q7 1 7 9v252q0 9 9 9h191q10 0 10 -9v-661q0 -10 -9 -10z" />
    <glyph glyph-name="uni0428" unicode="&#x428;" horiz-adv-x="962" 
d="M908 0h-855q-9 0 -9 9v661q0 10 9 10h192q9 0 9 -10v-478q0 -6 6 -6h110q6 0 6 6v478q0 10 8 10h193q9 0 9 -10v-478q0 -6 6 -6h110q6 0 6 6v478q0 4 3 7t5 3h193q9 0 9 -10v-661q0 -9 -10 -9z" />
    <glyph glyph-name="uni0429" unicode="&#x429;" horiz-adv-x="984" 
d="M975 -110h-174q-8 0 -8 11v93q0 6 -6 6h-734q-9 0 -9 9v661q0 10 9 10h192q9 0 9 -10v-478q0 -6 6 -6h110q6 0 6 6v478q0 10 8 10h193q9 0 9 -10v-478q0 -6 6 -6h110q6 0 6 6v478q0 4 3 7t5 3h193q9 0 9 -10v-478q0 -6 6 -6h50q10 0 10 -9v-276q0 -11 -9 -11z" />
    <glyph glyph-name="uni042A" unicode="&#x42a;" horiz-adv-x="711" 
d="M426 0h-285q-10 0 -10 10v479q0 6 -5 6h-110q-10 0 -10 10v165q0 10 10 10h314q10 0 10 -10v-198q0 -6 6 -6h80q126 0 195.5 -63t69.5 -169q0 -107 -69 -170.5t-196 -63.5zM346 176h67q41 -4 58 27t0 62.5t-58 28.5h-67q-6 0 -6 -6v-106q0 -6 6 -6z" />
    <glyph glyph-name="uni042B" unicode="&#x42b;" horiz-adv-x="910" 
d="M339 0h-285q-10 0 -10 10v660q0 10 10 10h189q11 0 11 -10v-198q0 -6 6 -6h79q126 0 195.5 -63t69.5 -169q0 -107 -69 -170.5t-196 -63.5zM260 176h67q42 -4 59 27t-0.5 62.5t-58.5 28.5h-67q-6 0 -6 -6v-106q0 -6 6 -6zM856 0h-189q-10 0 -10 10v660q0 10 10 10h189
q11 0 11 -10v-660q0 -10 -11 -10z" />
    <glyph glyph-name="uni042C" unicode="&#x42c;" horiz-adv-x="624" 
d="M339 0h-285q-10 0 -10 10v660q0 10 10 10h189q11 0 11 -10v-198q0 -6 6 -6h79q126 0 195.5 -63t69.5 -169q0 -107 -69 -170.5t-196 -63.5zM260 176h67q42 -4 59 27t-0.5 62.5t-58.5 28.5h-67q-6 0 -6 -6v-106q0 -6 6 -6z" />
    <glyph glyph-name="uni042D" unicode="&#x42d;" horiz-adv-x="584" 
d="M272 -12q-184 0 -251 156q-5 11 5 15l154 67q9 4 14 -7q26 -56 74 -56q32 0 54 21q22 19 24 68q0 8 -9 8h-128q-10 0 -10 9v149q0 10 10 10h129q8 0 8 8q-6 45 -28 63t-50 18q-48 0 -72 -55q-5 -11 -15 -7l-155 66q-9 5 -5 15q63 156 251 156q99 0 169.5 -45.5
t97.5 -126.5q20 -63 20 -182q0 -104 -15 -166q-23 -88 -95.5 -136t-176.5 -48z" />
    <glyph glyph-name="uni042E" unicode="&#x42e;" horiz-adv-x="897" 
d="M593 -12q-137 0 -208 84q-54 65 -63 175q0 6 -6 6h-56q-6 0 -6 -6v-237q0 -10 -10 -10h-190q-10 0 -10 10v660q0 10 10 10h190q10 0 10 -10v-227q0 -6 6 -6h56q4 0 6 6q18 117 73 175q74 74 198 74q98 0 167 -47t92 -134q15 -59 15 -172q0 -118 -19 -181
q-24 -81 -92.5 -125.5t-162.5 -44.5zM593 174q43 0 55 44q7 24 7 121q0 88 -4 116q-7 51 -58 51q-48 0 -57 -51q-4 -19 -4 -115q0 -98 7 -122q12 -44 54 -44z" />
    <glyph glyph-name="uni042F" unicode="&#x42f;" horiz-adv-x="620" 
d="M101 -6h-69q-10 0 -10 10v160q0 9 10 9h12q37 0 55 44l15 36q13 27 27 31v4q-44 12 -81 55q-36 43 -36 121q0 89 63 152q64 64 179 64h301q9 0 9 -9v-661q0 -10 -9 -10h-191q-10 0 -10 10v210q0 6 -6 6h-7q-29 0 -47 -48l-22 -61q-26 -67 -68.5 -95t-114.5 -28zM287 397
h73q6 0 6 6v95q0 6 -6 6h-73q-23 0 -37.5 -14.5t-14.5 -39.5q0 -26 14 -39.5t38 -13.5z" />
    <glyph glyph-name="uni0430" unicode="&#x430;" horiz-adv-x="537" 
d="M180 -12q-69 0 -112.5 39.5t-43.5 111.5q0 79 58 121.5t157 42.5h65q6 0 6 6v8q0 19 -18 26.5t-68 7.5q-62 0 -102 -25q-9 -4 -13 3l-60 108q-6 11 3 17q73 48 200 48q133 0 189.5 -45t56.5 -145v-302q0 -10 -10 -10h-169q-10 0 -10 10v24h-1q-43 -46 -128 -46zM253 124
q57 0 57 35v26q0 6 -6 6h-47q-47 0 -47 -35q0 -32 43 -32z" />
    <glyph glyph-name="uni0431" unicode="&#x431;" horiz-adv-x="544" 
d="M283 -12q-115 0 -176 51q-53 44 -65 123q-7 51 -8 79q-1 23 -1 100q0 93 16.5 154.5t61.5 100.5q30 27 81 39q11 4 49 10q37 6 38 6q48 11 52 32q1 9 9 9h159q9 0 9 -9q0 -95 -37.5 -138t-129.5 -51q-3 0 -7.5 -0.5t-13 -1t-15.5 -0.5l-39 -3q-34 -2 -61 -22
q-18 -13 -18 -45h3q29 50 124 50q103 0 155.5 -59t52.5 -169q0 -256 -239 -256zM322 187q3 13 3 60q0 39 -5 56q-7 28 -40 28q-31 0 -39 -26q-6 -19 -6 -59q0 -46 3 -59q7 -37 42 -37t42 37z" />
    <glyph glyph-name="uni0432" unicode="&#x432;" horiz-adv-x="556" 
d="M358 0h-307q-9 0 -9 9v472q0 9 9 9h311q81 0 122 -34.5t41 -97.5q0 -70 -56 -102v-4q27 -12 45.5 -41.5t18.5 -67.5q0 -71 -46 -107t-129 -36zM248 120h52q15 0 24 10t9 26q0 34 -33 34h-52q-7 0 -7 -6v-57q0 -7 7 -7zM248 302h45q33 0 33 32q0 33 -33 33h-45q-7 0 -7 -7
v-51q0 -7 7 -7z" />
    <glyph glyph-name="uni0433" unicode="&#x433;" horiz-adv-x="420" 
d="M234 0h-183q-9 0 -9 9v472q0 9 9 9h350q10 0 10 -9v-145q0 -9 -10 -9h-153q-6 0 -6 -6v-312q0 -9 -8 -9z" />
    <glyph glyph-name="uni0434" unicode="&#x434;" horiz-adv-x="592" 
d="M171 -81h-161q-8 0 -8 9v226q0 9 9 9h23q12 0 13 13l20 84q15 69 15 215v6q0 9 8 9h439q8 0 8 -9v-312q0 -6 6 -6h36q8 0 8 -9v-226q0 -9 -7 -9h-162q-8 0 -8 9v66q0 6 -6 6h-219q-6 0 -6 -6v-66q0 -9 -8 -9zM244 163h87q6 0 6 6v157q0 6 -6 6h-58q-6 0 -6 -6v-3
q0 -33 -9 -80q-9 -49 -18 -73q-1 -7 4 -7z" />
    <glyph glyph-name="uni0435" unicode="&#x435;" horiz-adv-x="539" 
d="M281 -12q-95 0 -157 38t-86 110q-15 45 -15 109t15 109q23 71 82.5 109.5t147.5 38.5q187 0 233 -145q15 -47 15 -156q0 -10 -10 -10h-285q-6 0 -6 -6q0 -2 2 -10q13 -42 87 -42q54 0 107 36q8 5 14 -2l78 -86q7 -7 -2 -15q-89 -78 -220 -78zM221 303h100q6 0 6 6
q0 15 -3 24q-10 34 -53 34t-53 -34q-3 -9 -3 -24q0 -6 6 -6z" />
    <glyph glyph-name="uni0436" unicode="&#x436;" horiz-adv-x="820" 
d="M122 -6h-91q-9 0 -9 9v137q0 9 9 9h10q17 0 24 22l17 43q14 35 34 40v4q-16 6 -26 33l-11 28q-7 24 -27 24h-11q-9 0 -9 9v135q0 9 9 9h76q95 0 124 -77l23 -61q14 -33 29 -33h11q6 0 6 6v150q0 9 8 9h184q8 0 8 -9v-150q0 -6 6 -6h11q15 0 29 33l23 61q29 77 124 77h76
q9 0 9 -9v-135q0 -9 -9 -9h-11q-20 0 -27 -24l-11 -28q-10 -27 -26 -33v-4q20 -5 34 -40l17 -43q7 -22 24 -22h10q9 0 9 -9v-137q0 -9 -9 -9h-91q-95 0 -122 78l-22 64q-12 34 -27 34h-11q-6 0 -6 -6v-155q0 -9 -8 -9h-184q-8 0 -8 9v155q0 6 -6 6h-11q-15 0 -27 -34
l-22 -64q-27 -78 -122 -78z" />
    <glyph glyph-name="uni0437" unicode="&#x437;" horiz-adv-x="492" 
d="M253 -12q-150 0 -239 65q-6 4 -1 11l70 106q7 8 15 4q69 -34 123 -34q49 0 49 24q0 12 -9 16.5t-33 4.5h-63q-9 0 -9 9v111q0 10 9 10h59q39 0 39 22t-56 22q-53 0 -102 -32q-9 -6 -13 1l-66 102q-4 7 5 14q79 58 216 58q220 0 220 -137q0 -32 -19 -62.5t-44 -38.5v-4
q32 -10 51 -41t19 -71q0 -72 -60 -116t-161 -44z" />
    <glyph glyph-name="uni0438" unicode="&#x438;" horiz-adv-x="576" 
d="M220 0h-169q-9 0 -9 9v472q0 9 9 9h174q10 0 10 -10v-181h3l100 182q6 9 15 9h172q9 0 9 -9v-471q0 -10 -10 -10h-173q-10 0 -10 10v194h-3l-103 -194q-6 -10 -15 -10z" />
    <glyph glyph-name="uni0439" unicode="&#x439;" horiz-adv-x="576" 
d="M220 0h-169q-9 0 -9 9v472q0 9 9 9h174q10 0 10 -10v-181h3l100 182q6 9 15 9h172q9 0 9 -9v-471q0 -10 -10 -10h-173q-10 0 -10 10v194h-3l-103 -194q-6 -10 -15 -10zM286 520q-70 0 -108.5 32.5t-50.5 102.5q-3 12 5 14l91 14q9 1 12 -7q6 -16 20 -27.5t31 -11.5
q38 0 53 39q3 8 12 7l91 -14q8 -2 5 -14q-12 -70 -51 -102.5t-110 -32.5z" />
    <glyph glyph-name="uni043A" unicode="&#x43a;" horiz-adv-x="556" 
d="M234 0h-183q-9 0 -9 9v472q0 9 9 9h183q8 0 8 -9v-146q0 -6 6 -6h5q28 0 39 29l23 61q29 77 124 77h76q9 0 9 -9v-135q0 -9 -9 -9h-11q-18 0 -27 -24l-9 -22q-10 -31 -27 -39v-4q22 -7 37 -46l9 -24q6 -16 12 -24t9.5 -9.5t9.5 -1.5h7q9 0 9 -9v-137q0 -9 -9 -9h-70
q-116 0 -143 78l-22 64q-10 30 -37 30h-5q-6 0 -6 -6v-151q0 -9 -8 -9z" />
    <glyph glyph-name="uni043B" unicode="&#x43b;" horiz-adv-x="591" 
d="M75 -6h-59q-9 0 -9 9v137q0 9 9 9h9q29 0 46.5 17.5t17.5 52.5v262q0 9 8 9h443q9 0 9 -9v-472q0 -9 -9 -9h-182q-9 0 -9 9v312q0 6 -6 6h-61q-6 0 -6 -6v-80q0 -137 -45 -192t-156 -55z" />
    <glyph glyph-name="uni043C" unicode="&#x43c;" horiz-adv-x="670" 
d="M222 0h-171q-9 0 -9 9v472q0 9 9 9h180q7 0 11 -7l92 -215h3l92 215q3 7 11 7h179q9 0 9 -9v-472q0 -9 -9 -9h-170q-9 0 -9 9v187h-3l-49 -119q-3 -9 -10 -9h-82q-8 0 -11 9l-52 119h-3v-187q0 -9 -8 -9z" />
    <glyph glyph-name="uni043D" unicode="&#x43d;" 
d="M234 0h-183q-9 0 -9 9v472q0 9 9 9h183q8 0 8 -9v-146q0 -6 6 -6h74q6 0 6 6v146q0 9 10 9h181q9 0 9 -9v-472q0 -9 -9 -9h-181q-10 0 -10 9v151q0 6 -6 6h-74q-6 0 -6 -6v-151q0 -9 -8 -9z" />
    <glyph glyph-name="uni043E" unicode="&#x43e;" horiz-adv-x="546" 
d="M38 134q-15 45 -15 111t15 111q23 71 85 108.5t150 37.5t150 -37.5t85 -108.5q15 -45 15 -111t-15 -111q-23 -71 -85 -108.5t-150 -37.5t-150 37.5t-85 108.5zM315 176q6 20 6 69t-6 69q-9 28 -42 28t-42 -28q-6 -20 -6 -69t6 -69q9 -28 42 -28t42 28z" />
    <glyph glyph-name="uni043F" unicode="&#x43f;" horiz-adv-x="566" 
d="M234 0h-183q-9 0 -9 9v472q0 9 9 9h464q9 0 9 -9v-472q0 -9 -9 -9h-181q-10 0 -10 9v312q0 6 -6 6h-70q-6 0 -6 -6v-312q0 -9 -8 -9z" />
    <glyph glyph-name="uni0440" unicode="&#x440;" horiz-adv-x="563" 
d="M232 -180h-180q-10 0 -10 10v650q0 10 10 10h180q10 0 10 -10v-36h1q34 58 123 58q119 0 157 -117q17 -54 17 -140t-17 -140q-38 -117 -157 -117q-89 0 -123 58h-1v-216q0 -10 -10 -10zM332 176q6 20 6 69t-6 69q-9 28 -42 28t-42 -28q-6 -20 -6 -69t6 -69q9 -28 42 -28
t42 28z" />
    <glyph glyph-name="uni0441" unicode="&#x441;" horiz-adv-x="504" 
d="M264 -12q-85 0 -145 38t-83 110q-13 38 -13 109t13 109q23 72 83 110t145 38q82 0 142 -39q62 -37 81 -96q3 -8 -5 -13l-141 -60q-12 -7 -17 4q-17 44 -52 44q-32 0 -42 -30q-5 -17 -5 -67t5 -67q10 -30 42 -30q35 0 52 44q5 11 17 4l141 -60q8 -5 5 -13q-19 -58 -81 -97
q-61 -38 -142 -38z" />
    <glyph glyph-name="uni0442" unicode="&#x442;" horiz-adv-x="458" 
d="M321 0h-181q-10 0 -10 9v312q0 6 -6 6h-107q-8 0 -8 9v145q0 9 8 9h423q9 0 9 -9v-145q0 -9 -9 -9h-104q-6 0 -6 -6v-312q0 -9 -9 -9z" />
    <glyph glyph-name="uni0443" unicode="&#x443;" horiz-adv-x="559" 
d="M144 -180h-41q-10 0 -10 10v140q0 10 10 10h30q42 0 54 32l9 25l-188 443q-4 10 7 10h189q10 0 13 -10l70 -201h2l64 201q3 10 13 10h186q11 0 7 -10l-229 -551q-25 -63 -67 -86q-41 -23 -119 -23z" />
    <glyph glyph-name="uni0444" unicode="&#x444;" horiz-adv-x="770" 
d="M476 -180h-182q-9 0 -9 9v162q0 6 -6 6q-135 8 -196.5 68t-61.5 186q0 123 62 179q61 55 196 63q6 0 6 6v172q0 9 9 9h182q9 0 9 -9v-172q0 -6 6 -6q135 -8 196 -63q62 -56 62 -179q0 -126 -61.5 -186t-196.5 -68q-6 0 -6 -6v-162q0 -9 -9 -9zM283 148q6 0 6 6v182
q0 6 -6 6q-35 -2 -48 -18t-13 -74q0 -62 12 -81q14 -20 49 -21zM487 148q36 2 48 21q13 19 13 81q0 57 -14 74t-47 18q-6 0 -6 -6v-182q0 -6 6 -6z" />
    <glyph glyph-name="uni0445" unicode="&#x445;" horiz-adv-x="557" 
d="M210 0h-192q-11 0 -5 10l164 244l-151 226q-6 10 6 10h193q10 0 15 -8l45 -77h1l46 77q5 8 15 8h190q12 0 6 -10l-151 -226l164 -244q2 -4 0 -7t-6 -3h-193q-10 0 -15 8l-58 97h-1l-58 -97q-5 -8 -15 -8z" />
    <glyph glyph-name="uni0446" unicode="&#x446;" horiz-adv-x="572" 
d="M559 -81h-155q-7 0 -7 9v66q0 6 -6 6h-340q-9 0 -9 9v472q0 9 9 9h183q8 0 8 -9v-312q0 -6 6 -6h70q6 0 6 6v312q0 9 10 9h181q9 0 9 -9v-312q0 -6 6 -6h28q9 0 9 -9v-226q0 -9 -8 -9z" />
    <glyph glyph-name="uni0447" unicode="&#x447;" horiz-adv-x="535" 
d="M484 0h-181q-10 0 -10 9v140q0 11 -11 9q-69 -12 -100 -12q-81 0 -121.5 36.5t-40.5 121.5v177q0 9 8 9h183q9 0 9 -9v-153q0 -29 29 -29q20 0 38 5q6 2 6 8v169q0 9 10 9h181q9 0 9 -9v-472q0 -9 -9 -9z" />
    <glyph glyph-name="uni0448" unicode="&#x448;" horiz-adv-x="834" 
d="M784 0h-733q-9 0 -9 9v472q0 9 9 9h183q8 0 8 -9v-312q0 -6 6 -6h63q6 0 6 6v312q0 9 10 9h182q8 0 8 -9v-312q0 -6 6 -6h63q6 0 6 6v312q0 9 10 9h182q8 0 8 -9v-472q0 -9 -8 -9z" />
    <glyph glyph-name="uni0449" unicode="&#x449;" horiz-adv-x="840" 
d="M827 -81h-155q-7 0 -7 9v66q0 6 -6 6h-608q-9 0 -9 9v472q0 9 9 9h183q8 0 8 -9v-312q0 -6 6 -6h63q6 0 6 6v312q0 9 10 9h182q8 0 8 -9v-312q0 -6 6 -6h63q6 0 6 6v312q0 9 10 9h182q8 0 8 -9v-312q0 -6 6 -6h28q9 0 9 -9v-226q0 -9 -8 -9z" />
    <glyph glyph-name="uni044A" unicode="&#x44a;" horiz-adv-x="588" 
d="M400 0h-292q-9 0 -9 9v312q0 6 -6 6h-75q-9 0 -9 9v145q0 9 9 9h273q8 0 8 -9v-135q0 -6 6 -6h95q76 0 124 -48q49 -46 49 -120t-49 -123q-48 -49 -124 -49zM298 134h57q13 0 23.5 11.5t10.5 26.5q0 12 -10.5 22.5t-23.5 10.5h-57q-6 0 -6 -6v-59q0 -6 6 -6z" />
    <glyph glyph-name="uni044B" unicode="&#x44b;" horiz-adv-x="787" 
d="M343 0h-292q-9 0 -9 9v472q0 9 9 9h183q8 0 8 -9v-135q0 -6 6 -6h95q76 0 124 -48q49 -46 49 -120t-49 -123t-124 -49zM241 134h57q13 0 23.5 11.5t10.5 26.5q0 12 -10.5 22.5t-23.5 10.5h-57q-6 0 -6 -6v-59q0 -6 6 -6zM735 0h-180q-10 0 -10 10v470q0 10 10 10h180
q10 0 10 -10v-470q0 -10 -10 -10z" />
    <glyph glyph-name="uni044C" unicode="&#x44c;" horiz-adv-x="531" 
d="M343 0h-292q-9 0 -9 9v472q0 9 9 9h183q8 0 8 -9v-135q0 -6 6 -6h95q76 0 124 -48q49 -46 49 -120t-49 -123t-124 -49zM241 134h57q13 0 23.5 11.5t10.5 26.5q0 12 -10.5 22.5t-23.5 10.5h-57q-6 0 -6 -6v-59q0 -6 6 -6z" />
    <glyph glyph-name="uni044D" unicode="&#x44d;" horiz-adv-x="503" 
d="M239 -13q-149 0 -216 96q-4 7 4 14l102 86q9 8 16 -2q22 -25 39 -35t43 -10q46 0 52 36q1 6 -6 6h-86q-10 0 -10 9v114q0 10 11 10h87q5 0 4 6q-6 38 -53 38q-45 0 -72 -37q-7 -9 -16 -3l-102 68q-9 6 -4 15q77 104 207 104q122 0 183.5 -67t61.5 -191q0 -257 -245 -257z
" />
    <glyph glyph-name="uni044E" unicode="&#x44e;" horiz-adv-x="802" 
d="M535 -12q-104 0 -157 35q-59 39 -77 139q-1 6 -6 6h-47q-6 0 -6 -6v-153q0 -9 -8 -9h-183q-9 0 -9 9v472q0 9 9 9h183q8 0 8 -9v-148q0 -6 6 -6h48q4 0 6 6q13 60 45 98q60 71 188 71q85 0 146 -38t82 -107q16 -49 16 -114q0 -59 -16 -111q-21 -69 -82 -106.5t-146 -37.5
zM573 173q6 20 6 71q0 54 -6 73q-8 26 -38 26t-38 -26q-6 -20 -6 -73q0 -52 6 -71q8 -26 38 -26t38 26z" />
    <glyph glyph-name="uni044F" unicode="&#x44f;" horiz-adv-x="560" 
d="M102 -6h-58q-9 0 -9 9v135q0 11 11 11h9q19 0 29 19l10 20q8 15 18 18v4q-37 9 -61 41.5t-24 74.5q0 85 53.5 124.5t162.5 39.5h266q9 0 9 -9v-472q0 -9 -9 -9h-181q-10 0 -10 9v135q0 6 -7 6h-7q-10 0 -21 -23l-33 -67q-20 -38 -53 -52t-95 -14zM257 284h58q7 0 7 6v58
q0 6 -6 6h-59q-15 0 -24.5 -9t-9.5 -26q0 -35 34 -35z" />
    <glyph glyph-name="uni0450" unicode="&#x450;" horiz-adv-x="539" 
d="M281 -12q-95 0 -157 38t-86 110q-15 45 -15 109t15 109q23 71 82.5 109.5t147.5 38.5q187 0 233 -145q15 -47 15 -156q0 -10 -10 -10h-285q-6 0 -6 -6q0 -2 2 -10q13 -42 87 -42q54 0 107 36q8 5 14 -2l78 -86q7 -7 -2 -15q-89 -78 -220 -78zM221 303h100q6 0 6 6
q0 15 -3 24q-10 34 -53 34t-53 -34q-3 -9 -3 -24q0 -6 6 -6zM354 540h-143q-9 0 -16 10l-106 144q-5 10 5 10h165q10 0 17 -10l83 -144q4 -10 -5 -10z" />
    <glyph glyph-name="uni0451" unicode="&#x451;" horiz-adv-x="539" 
d="M281 -12q-95 0 -157 38t-86 110q-15 45 -15 109t15 109q23 71 82.5 109.5t147.5 38.5q187 0 233 -145q15 -47 15 -156q0 -10 -10 -10h-285q-6 0 -6 -6q0 -2 2 -10q13 -42 87 -42q54 0 107 36q8 5 14 -2l78 -86q7 -7 -2 -15q-89 -78 -220 -78zM221 303h100q6 0 6 6
q0 15 -3 24q-10 34 -53 34t-53 -34q-3 -9 -3 -24q0 -6 6 -6zM441 536h-126q-10 0 -10 10v124q0 10 10 10h126q10 0 10 -10v-124q0 -10 -10 -10zM231 536h-126q-10 0 -10 10v124q0 10 10 10h126q10 0 10 -10v-124q0 -10 -10 -10z" />
    <glyph glyph-name="uni0452" unicode="&#x452;" horiz-adv-x="588" 
d="M327 -180h-43q-10 0 -10 10v140q0 10 10 10h10q31 0 42.5 11t11.5 43v242q0 50 -41 50t-41 -50v-266q0 -10 -10 -10h-180q-10 0 -10 10v497q0 6 -6 6h-60q-10 0 -10 10v100q0 10 10 10h60q3 0 6 6v31q0 10 10 10h180q10 0 10 -10v-31q0 -6 6 -6h75q10 0 10 -10v-100
q0 -10 -10 -10h-75q-6 0 -6 -6v-75h1q39 58 124 58q156 0 156 -183v-276q0 -110 -54 -160.5t-166 -50.5z" />
    <glyph glyph-name="uni0453" unicode="&#x453;" horiz-adv-x="420" 
d="M234 0h-183q-9 0 -9 9v472q0 9 9 9h350q10 0 10 -9v-145q0 -9 -10 -9h-153q-6 0 -6 -6v-312q0 -9 -8 -9zM258 540h-143q-9 0 -5 10l83 144q7 10 17 10h165q4 0 5.5 -3.5t-0.5 -6.5l-106 -144q-7 -10 -16 -10z" />
    <glyph glyph-name="uni0454" unicode="&#x454;" horiz-adv-x="503" 
d="M269 -13q-245 0 -245 257q0 124 61.5 191t183.5 67q130 0 207 -104q5 -9 -4 -15l-102 -68q-9 -6 -16 3q-27 37 -72 37q-47 0 -53 -38q-1 -6 4 -6h87q11 0 11 -10v-114q0 -9 -10 -9h-86q-7 0 -6 -6q6 -36 52 -36q26 0 43 10t39 35q7 10 16 2l102 -86q8 -7 4 -14
q-67 -96 -216 -96z" />
    <glyph glyph-name="uni0455" unicode="&#x455;" horiz-adv-x="520" 
d="M263 -12q-155 0 -247 74q-7 7 -1 14l79 100q6 6 14 2q89 -50 168 -50q47 0 47 22q0 8 -10 12t-40 8l-56 6q-87 9 -133.5 50t-46.5 111q0 75 60.5 120t164.5 45q141 0 226 -62q8 -6 1 -15l-70 -93q-6 -8 -15 -3q-67 37 -142 37q-40 0 -40 -19q0 -13 43 -18l56 -6
q100 -11 144.5 -51.5t42.5 -110.5q-2 -79 -67.5 -126t-177.5 -47z" />
    <glyph glyph-name="uni0456" unicode="&#x456;" horiz-adv-x="284" 
d="M232 0h-180q-10 0 -10 10v470q0 10 10 10h180q10 0 10 -10v-470q0 -10 -10 -10zM232 536h-180q-10 0 -10 10v124q0 10 10 10h180q10 0 10 -10v-124q0 -10 -10 -10z" />
    <glyph glyph-name="uni0457" unicode="&#x457;" horiz-adv-x="284" 
d="M310 536h-126q-10 0 -10 10v124q0 10 10 10h126q10 0 10 -10v-124q0 -10 -10 -10zM100 536h-126q-10 0 -10 10v124q0 10 10 10h126q10 0 10 -10v-124q0 -10 -10 -10zM221 0h-180q-10 0 -10 10v470q0 10 10 10h180q10 0 10 -10v-470q0 -10 -10 -10z" />
    <glyph glyph-name="uni0458" unicode="&#x458;" horiz-adv-x="284" 
d="M21 -180h-43q-10 0 -10 10v140q0 10 10 10h10q31 0 42.5 11t11.5 43v446q0 10 10 10h180q10 0 10 -10v-447q0 -110 -54.5 -161.5t-166.5 -51.5zM232 536h-180q-10 0 -10 10v124q0 10 10 10h180q10 0 10 -10v-124q0 -10 -10 -10z" />
    <glyph glyph-name="uni0459" unicode="&#x459;" horiz-adv-x="838" 
d="M75 -6h-59q-9 0 -9 9v137q0 9 9 9h9q29 0 46.5 17.5t17.5 52.5v262q0 9 8 9h444q8 0 8 -9v-133q0 -6 6 -6h95q76 0 124 -48q49 -46 49 -120t-49 -123q-48 -49 -124 -49h-292q-9 0 -9 9v312q0 6 -6 6h-61q-6 0 -6 -6v-80q0 -138 -46 -193q-45 -56 -155 -56zM548 136h57
q13 0 23.5 11.5t10.5 26.5q0 12 -10.5 22.5t-23.5 10.5h-57q-6 0 -6 -6v-59q0 -6 6 -6z" />
    <glyph glyph-name="uni045A" unicode="&#x45a;" horiz-adv-x="817" 
d="M234 0h-183q-9 0 -9 9v472q0 9 9 9h183q8 0 8 -9v-135q0 -6 6 -6h74q6 0 6 6v135q0 9 10 9h182q8 0 8 -9v-135q0 -6 6 -6h95q76 0 124 -48q49 -46 49 -120t-49 -123t-124 -49h-291q-10 0 -10 9v162q0 6 -6 6h-74q-6 0 -6 -6v-162q0 -9 -8 -9zM527 134h57q13 0 23.5 11.5
t10.5 26.5q0 12 -10.5 22.5t-23.5 10.5h-57q-6 0 -6 -6v-59q0 -6 6 -6z" />
    <glyph glyph-name="uni045B" unicode="&#x45b;" horiz-adv-x="588" 
d="M256 0h-180q-10 0 -10 10v497q0 6 -6 6h-60q-10 0 -10 10v100q0 10 10 10h60q3 0 6 6v31q0 10 10 10h180q10 0 10 -10v-31q0 -6 6 -6h75q10 0 10 -10v-100q0 -10 -10 -10h-75q-6 0 -6 -6v-75h1q39 58 124 58q157 0 157 -183v-297q0 -10 -10 -10h-180q-10 0 -10 10v266
q0 50 -41 50t-41 -50v-266q0 -10 -10 -10z" />
    <glyph glyph-name="uni045C" unicode="&#x45c;" horiz-adv-x="556" 
d="M234 0h-183q-9 0 -9 9v472q0 9 9 9h183q8 0 8 -9v-146q0 -6 6 -6h5q28 0 39 29l23 61q29 77 124 77h76q9 0 9 -9v-135q0 -9 -9 -9h-11q-18 0 -27 -24l-9 -22q-10 -31 -27 -39v-4q22 -7 37 -46l9 -24q6 -16 12 -24t9.5 -9.5t9.5 -1.5h7q9 0 9 -9v-137q0 -9 -9 -9h-70
q-116 0 -143 78l-22 64q-10 30 -37 30h-5q-6 0 -6 -6v-151q0 -9 -8 -9zM318 540h-143q-9 0 -5 10l83 144q7 10 17 10h165q4 0 5.5 -3.5t-0.5 -6.5l-106 -144q-7 -10 -16 -10z" />
    <glyph glyph-name="uni045D" unicode="&#x45d;" horiz-adv-x="576" 
d="M220 0h-169q-9 0 -9 9v472q0 9 9 9h174q10 0 10 -10v-181h3l100 182q6 9 15 9h172q9 0 9 -9v-471q0 -10 -10 -10h-173q-10 0 -10 10v194h-3l-103 -194q-6 -10 -15 -10zM388 540h-143q-9 0 -16 10l-106 144q-5 10 5 10h165q10 0 17 -10l83 -144q4 -10 -5 -10z" />
    <glyph glyph-name="uni045E" unicode="&#x45e;" horiz-adv-x="559" 
d="M144 -180h-41q-10 0 -10 10v140q0 10 10 10h30q42 0 54 32l9 25l-188 443q-4 10 7 10h189q10 0 13 -10l70 -201h2l64 201q3 10 13 10h186q11 0 7 -10l-229 -551q-25 -63 -67 -86q-41 -23 -119 -23zM287 520q-70 0 -108.5 32.5t-50.5 102.5q-3 12 5 14l91 14q9 1 12 -7
q6 -16 20 -27.5t31 -11.5q38 0 53 39q3 8 12 7l91 -14q8 -2 5 -14q-12 -70 -51 -102.5t-110 -32.5z" />
    <glyph glyph-name="uni045F" unicode="&#x45f;" horiz-adv-x="566" 
d="M363 -81h-161q-8 0 -8 9v66q0 6 -6 6h-137q-9 0 -9 9v472q0 9 9 9h183q8 0 8 -9v-312q0 -6 6 -6h70q6 0 6 6v312q0 9 10 9h181q9 0 9 -9v-472q0 -9 -9 -9h-138q-6 0 -6 -6v-66q0 -9 -8 -9z" />
    <glyph glyph-name="uni0490" unicode="&#x490;" horiz-adv-x="516" 
d="M244 0h-190q-10 0 -10 10v660q0 10 10 10h270q5 0 5 5v105q0 10 7 10h161q9 0 9 -10v-285q0 -10 -10 -10h-236q-6 0 -6 -6v-479q0 -10 -10 -10z" />
    <glyph glyph-name="uni0491" unicode="&#x491;" horiz-adv-x="420" 
d="M234 0h-183q-9 0 -9 9v472q0 9 9 9h199q6 0 6 6v66q0 9 7 9h140q8 0 8 -9v-226q0 -9 -9 -9h-163v-1l3 -5v-312q0 -9 -8 -9z" />
    <glyph glyph-name="Wgrave" unicode="&#x1e80;" horiz-adv-x="956" 
d="M744 0h-154q-11 0 -14 10l-94 329h-2l-94 -329q-3 -10 -14 -10h-154q-11 0 -14 10l-195 660q-3 10 7 10h206q12 0 13 -10l76 -360h2l94 360q3 10 14 10h121q11 0 14 -10l98 -360h2l73 360q1 10 13 10h204q10 0 7 -10l-195 -660q-3 -10 -14 -10zM556 738h-141
q-11 0 -21 10l-134 132q-3 4 -1.5 7t6.5 3h167q11 0 18 -10l110 -132q8 -10 -4 -10z" />
    <glyph glyph-name="wgrave" unicode="&#x1e81;" horiz-adv-x="784" 
d="M609 0h-135q-9 0 -12 10l-64 215h-2l-66 -215q-3 -10 -12 -10h-135q-9 0 -12 10l-161 469q-5 11 8 11h179q12 0 15 -10l52 -220h2l64 220q3 10 14 10h107q11 0 14 -10l65 -220h2l48 220q3 10 15 10h179q13 0 8 -11l-161 -469q-3 -10 -12 -10zM466 540h-143q-9 0 -16 10
l-106 144q-5 10 5 10h165q10 0 17 -10l83 -144q4 -10 -5 -10z" />
    <glyph glyph-name="Wacute" unicode="&#x1e82;" horiz-adv-x="956" 
d="M744 0h-154q-11 0 -14 10l-94 329h-2l-94 -329q-3 -10 -14 -10h-154q-11 0 -14 10l-195 660q-3 10 7 10h206q12 0 13 -10l76 -360h2l94 360q3 10 14 10h121q11 0 14 -10l98 -360h2l73 360q1 10 13 10h204q10 0 7 -10l-195 -660q-3 -10 -14 -10zM556 738h-141q-4 0 -5.5 3
t1.5 7l110 132q7 10 18 10h167q5 0 6.5 -3t-1.5 -7l-134 -132q-10 -10 -21 -10z" />
    <glyph glyph-name="wacute" unicode="&#x1e83;" horiz-adv-x="784" 
d="M609 0h-135q-9 0 -12 10l-64 215h-2l-66 -215q-3 -10 -12 -10h-135q-9 0 -12 10l-161 469q-5 11 8 11h179q12 0 15 -10l52 -220h2l64 220q3 10 14 10h107q11 0 14 -10l65 -220h2l48 220q3 10 15 10h179q13 0 8 -11l-161 -469q-3 -10 -12 -10zM469 540h-143q-9 0 -5 10
l83 144q7 10 17 10h165q4 0 5.5 -3.5t-0.5 -6.5l-106 -144q-7 -10 -16 -10z" />
    <glyph glyph-name="Wdieresis" unicode="&#x1e84;" horiz-adv-x="956" 
d="M744 0h-154q-11 0 -14 10l-94 329h-2l-94 -329q-3 -10 -14 -10h-154q-11 0 -14 10l-195 660q-3 10 7 10h206q12 0 13 -10l76 -360h2l94 360q3 10 14 10h121q11 0 14 -10l98 -360h2l73 360q1 10 13 10h204q10 0 7 -10l-195 -660q-3 -10 -14 -10zM649 739h-126
q-10 0 -10 10v124q0 10 10 10h126q10 0 10 -10v-124q0 -10 -10 -10zM439 739h-126q-10 0 -10 10v124q0 10 10 10h126q10 0 10 -10v-124q0 -10 -10 -10z" />
    <glyph glyph-name="wdieresis" unicode="&#x1e85;" horiz-adv-x="784" 
d="M609 0h-135q-9 0 -12 10l-64 215h-2l-66 -215q-3 -10 -12 -10h-135q-9 0 -12 10l-161 469q-5 11 8 11h179q12 0 15 -10l52 -220h2l64 220q3 10 14 10h107q11 0 14 -10l65 -220h2l48 220q3 10 15 10h179q13 0 8 -11l-161 -469q-3 -10 -12 -10zM564 536h-126q-10 0 -10 10
v124q0 10 10 10h126q10 0 10 -10v-124q0 -10 -10 -10zM354 536h-126q-10 0 -10 10v124q0 10 10 10h126q10 0 10 -10v-124q0 -10 -10 -10z" />
    <glyph glyph-name="Ygrave" unicode="&#x1ef2;" horiz-adv-x="641" 
d="M421 0h-190q-10 0 -10 10v244l-211 415q-5 11 7 11h189q11 0 17 -10l104 -213h3l101 213q4 10 17 10h187q12 0 7 -11l-211 -415v-244q0 -10 -10 -10zM413 738h-141q-11 0 -21 10l-134 132q-3 4 -1.5 7t6.5 3h167q11 0 18 -10l110 -132q3 -4 1.5 -7t-5.5 -3z" />
    <glyph glyph-name="ygrave" unicode="&#x1ef3;" horiz-adv-x="559" 
d="M144 -180h-41q-10 0 -10 10v140q0 10 10 10h30q42 0 54 32l9 25l-188 443q-4 10 7 10h189q10 0 13 -10l70 -201h2l64 201q3 10 13 10h186q11 0 7 -10l-229 -551q-25 -63 -67 -86q-41 -23 -119 -23zM363 540h-143q-9 0 -16 10l-106 144q-5 10 5 10h165q10 0 17 -10
l83 -144q4 -10 -5 -10z" />
    <glyph glyph-name="uni2010" unicode="&#x2010;" horiz-adv-x="408" 
d="M362 179h-316q-10 0 -10 10v152q0 10 10 10h316q10 0 10 -10v-152q0 -10 -10 -10z" />
    <glyph glyph-name="endash" unicode="&#x2013;" 
d="M540 181h-510q-10 0 -10 10v148q0 10 10 10h510q10 0 10 -10v-148q0 -10 -10 -10z" />
    <glyph glyph-name="emdash" unicode="&#x2014;" horiz-adv-x="952" 
d="M922 181h-892q-10 0 -10 10v148q0 10 10 10h892q10 0 10 -10v-148q0 -10 -10 -10z" />
    <glyph glyph-name="afii00208" unicode="&#x2015;" horiz-adv-x="952" 
d="M922 181h-892q-10 0 -10 10v148q0 10 10 10h892q10 0 10 -10v-148q0 -10 -10 -10z" />
    <glyph glyph-name="quoteleft" unicode="&#x2018;" horiz-adv-x="248" 
d="M190 436h-132q-10 0 -10 10v128q0 16 10 22l112 78q11 8 18 8q12 0 12 -13v-223q0 -10 -10 -10z" />
    <glyph glyph-name="quoteright" unicode="&#x2019;" horiz-adv-x="248" 
d="M60 434q-12 0 -12 13v223q0 10 10 10h132q10 0 10 -10v-128q0 -16 -10 -22l-112 -78q-11 -8 -18 -8z" />
    <glyph glyph-name="quotesinglbase" unicode="&#x201a;" horiz-adv-x="248" 
d="M60 -89q-12 0 -12 13v223q0 10 10 10h132q10 0 10 -10v-128q0 -16 -10 -22l-112 -78q-11 -8 -18 -8z" />
    <glyph glyph-name="quotedblleft" unicode="&#x201c;" horiz-adv-x="460" 
d="M402 436h-132q-10 0 -10 10v128q0 16 10 22l112 78q11 8 18 8q12 0 12 -13v-223q0 -10 -10 -10zM190 436h-132q-10 0 -10 10v128q0 16 10 22l112 78q11 8 18 8q12 0 12 -13v-223q0 -10 -10 -10z" />
    <glyph glyph-name="quotedblright" unicode="&#x201d;" horiz-adv-x="460" 
d="M272 434q-12 0 -12 13v223q0 10 10 10h132q10 0 10 -10v-128q0 -16 -10 -22l-112 -78q-11 -8 -18 -8zM60 434q-12 0 -12 13v223q0 10 10 10h132q10 0 10 -10v-128q0 -16 -10 -22l-112 -78q-11 -8 -18 -8z" />
    <glyph glyph-name="quotedblbase" unicode="&#x201e;" horiz-adv-x="460" 
d="M272 -89q-12 0 -12 13v223q0 10 10 10h132q10 0 10 -10v-128q0 -16 -10 -22l-112 -78q-11 -8 -18 -8zM60 -89q-12 0 -12 13v223q0 10 10 10h132q10 0 10 -10v-128q0 -16 -10 -22l-112 -78q-11 -8 -18 -8z" />
    <glyph glyph-name="dagger" unicode="&#x2020;" horiz-adv-x="581" 
d="M381 -180h-181q-10 0 -10 10v465q0 6 -6 6h-144q-10 0 -10 10v161q0 10 10 10h144q6 0 6 6v182q0 10 10 10h181q10 0 10 -10v-182q0 -6 6 -6h144q10 0 10 -10v-161q0 -10 -10 -10h-144q-6 0 -6 -6v-465q0 -10 -10 -10z" />
    <glyph glyph-name="daggerdbl" unicode="&#x2021;" horiz-adv-x="581" 
d="M381 -180h-181q-10 0 -10 10v142q0 6 -6 6h-144q-10 0 -10 10v161q0 10 10 10h144q6 0 6 6v170q0 6 -6 6h-144q-10 0 -10 10v161q0 10 10 10h144q6 0 6 6v142q0 10 10 10h181q10 0 10 -10v-142q0 -6 6 -6h144q10 0 10 -10v-161q0 -10 -10 -10h-144q-6 0 -6 -6v-170
q0 -6 6 -6h144q10 0 10 -10v-161q0 -10 -10 -10h-144q-6 0 -6 -6v-142q0 -10 -10 -10z" />
    <glyph glyph-name="bullet" unicode="&#x2022;" horiz-adv-x="510" 
d="M380 184q-50 -50 -125 -50t-125 50t-50 125t50 125t125 50t125 -50t50 -125t-50 -125z" />
    <glyph glyph-name="ellipsis" unicode="&#x2026;" horiz-adv-x="804" 
d="M750 0h-160q-10 0 -10 10v160q0 10 10 10h160q10 0 10 -10v-160q0 -10 -10 -10zM482 0h-160q-10 0 -10 10v160q0 10 10 10h160q10 0 10 -10v-160q0 -10 -10 -10zM214 0h-160q-10 0 -10 10v160q0 10 10 10h160q10 0 10 -10v-160q0 -10 -10 -10z" />
    <glyph glyph-name="perthousand" unicode="&#x2030;" horiz-adv-x="1245" 
d="M303 -12h-122q-10 0 -4 10l395 684q6 10 16 10h122q10 0 4 -10l-395 -684q-6 -10 -16 -10zM72 418q-12 36 -12 91t12 91q28 88 143 88t143 -88q12 -36 12 -91t-12 -91q-28 -88 -143 -88t-143 88zM234 436q3 10 3 73t-3 73q-4 13 -19 13t-19 -13q-3 -10 -3 -73t3 -73
q4 -13 19 -13t19 13zM887 80q-12 36 -12 91t12 91q28 88 143 88t143 -88q12 -36 12 -91t-12 -91q-28 -88 -143 -88t-143 88zM533 80q-12 36 -12 91t12 91q28 88 143 88t143 -88q12 -36 12 -91t-12 -91q-28 -88 -143 -88t-143 88zM1049 98q3 10 3 73t-3 73q-4 13 -19 13
t-19 -13q-3 -10 -3 -73t3 -73q4 -13 19 -13t19 13zM695 98q3 10 3 73t-3 73q-4 13 -19 13t-19 -13q-3 -10 -3 -73t3 -73q4 -13 19 -13t19 13z" />
    <glyph glyph-name="guilsinglleft" unicode="&#x2039;" horiz-adv-x="332" 
d="M277 6l-255 251q-7 7 0 14l255 251q3 3 6.5 1.5t3.5 -5.5v-162q0 -8 -10 -18l-71 -70q-4 -4 0 -8l71 -70q10 -10 10 -18v-162q0 -4 -3.5 -5.5t-6.5 1.5z" />
    <glyph glyph-name="guilsinglright" unicode="&#x203a;" horiz-adv-x="332" 
d="M317 257l-255 -251q-3 -3 -6.5 -1.5t-3.5 5.5v162q0 8 10 18l71 70q4 4 0 8l-71 70q-10 10 -10 18v162q0 4 3.5 5.5t6.5 -1.5l255 -251q7 -7 0 -14z" />
    <glyph glyph-name="interrobang" unicode="&#x203d;" horiz-adv-x="494" 
d="M152 10v140q0 10 10 10h160q10 0 10 -10v-140q0 -10 -10 -10h-160q-10 0 -10 10zM321 222h-160q-10 0 -10 10l-24 221q0 10 10 10h131q10 0 10 -10l-5 -63h2l10 17q24 41 24 72q0 32 -17 49t-47 17q-49 0 -62 -37q-3 -10 -11 -8l-149 26q-9 1 -8 11q16 74 76 114.5
t157 40.5q105 0 166 -52.5t61 -145.5q0 -83 -68 -157l-56 -61q-20 -23 -20 -37v-7q0 -10 -10 -10z" />
    <glyph glyph-name="fraction" unicode="&#x2044;" horiz-adv-x="181" 
d="M-46 -12h-122q-10 0 -4 10l395 684q6 10 16 10h122q10 0 4 -10l-395 -684q-6 -10 -16 -10z" />
    <glyph glyph-name="zero.superior" unicode="&#x2070;" horiz-adv-x="376" 
d="M31 522q-11 35 -11 111t11 111q31 99 157 99t157 -99q11 -35 11 -111t-11 -111q-31 -99 -157 -99t-157 99zM209 545q3 9 3 88t-3 88q-5 14 -21 14t-21 -14q-3 -9 -3 -88t3 -88q5 -14 21 -14t21 14z" />
    <glyph glyph-name="four.superior" unicode="&#x2074;" horiz-adv-x="376" 
d="M324 430h-109q-10 0 -10 10v32q0 6 -6 6h-169q-10 0 -10 10v102q0 7 5 20l97 216q4 10 15 10h127q11 0 7 -10l-104 -230v-3h32q6 0 6 6v42q0 10 10 10h109q10 0 10 -10v-42q0 -6 5 -6h13q10 0 10 -10v-95q0 -10 -10 -10h-12q-6 0 -6 -6v-32q0 -10 -10 -10z" />
    <glyph glyph-name="five.superior" unicode="&#x2075;" horiz-adv-x="376" 
d="M189 423q-64 0 -103.5 27t-48.5 76q-2 9 9 11l104 13q9 2 14 -6q7 -13 24 -13t22 14q8 18 0 36q-5 14 -22 14q-12 0 -20 -8q-6 -6 -13 -6h-105q-10 0 -10 10v235q0 10 10 10h270q10 0 10 -10v-91q0 -11 -10 -11h-154q-6 0 -6 -7v-33h1q21 18 65 18q93 0 117 -74
q8 -26 8 -57q0 -37 -7 -57q-30 -91 -155 -91z" />
    <glyph glyph-name="six.superior" unicode="&#x2076;" horiz-adv-x="376" 
d="M20 563q0 54 41 124l81 139q4 10 15 10h134q11 0 5 -10l-75 -131l1 -1h4q58 0 94 -35.5t36 -95.5q0 -63 -46.5 -101.5t-121.5 -38.5t-121.5 38.5t-46.5 101.5zM164 538q9 -9 24 -9t23 9q9 9 9 22t-9 22q-8 9 -23 9t-24 -9q-8 -9 -8 -22t8 -22z" />
    <glyph glyph-name="seven.superior" unicode="&#x2077;" horiz-adv-x="376" 
d="M220 430h-129q-11 0 -7 12l122 280v2h-44q-6 0 -6 -6v-32q0 -10 -10 -10h-106q-10 0 -10 10v140q0 10 10 10h300q10 0 10 -10v-105q0 -11 -4 -18l-113 -263q-3 -10 -13 -10z" />
    <glyph glyph-name="eight.superior" unicode="&#x2078;" horiz-adv-x="376" 
d="M20 554q0 51 43 85v1q-35 33 -35 75q0 55 44 91.5t116 36.5t116 -36.5t44 -91.5q0 -42 -35 -75v-1q43 -34 43 -85q0 -60 -47.5 -95.5t-120.5 -35.5t-120.5 35.5t-47.5 95.5zM168 692q12 -11 27.5 -5.5t19 18t-7.5 24.5q-7 8 -19 8t-20 -8q-7 -7 -7 -18t7 -19zM165 538
q9 -9 23 -9t23 9t9 22t-9 22t-23 9t-23 -9t-9 -22t9 -22z" />
    <glyph glyph-name="nine.superior" unicode="&#x2079;" horiz-adv-x="376" 
d="M219 430h-134q-11 0 -5 10l75 131l-1 1h-4q-58 0 -94 35.5t-36 95.5q0 63 46.5 101.5t121.5 38.5t121.5 -38.5t46.5 -101.5q0 -54 -41 -124l-81 -139q-4 -10 -15 -10zM164 684q9 -9 24 -9t23 9q9 9 9 22t-9 22q-8 9 -23 9t-24 -9q-8 -9 -8 -22t8 -22z" />
    <glyph glyph-name="zero.inferior" unicode="&#x2080;" horiz-adv-x="376" 
d="M31 -64q-11 35 -11 111t11 111q31 99 157 99t157 -99q11 -35 11 -111t-11 -111q-31 -99 -157 -99t-157 99zM209 -41q3 9 3 88t-3 88q-5 14 -21 14t-21 -14q-3 -9 -3 -88t3 -88q5 -14 21 -14t21 14z" />
    <glyph glyph-name="one.inferior" unicode="&#x2081;" horiz-adv-x="376" 
d="M272 -156h-123q-10 0 -10 10v256h-2l-67 -37q-10 -6 -10 6v112q0 11 9 15l63 38q9 6 17 6h123q10 0 10 -10v-386q0 -10 -10 -10z" />
    <glyph glyph-name="two.inferior" unicode="&#x2082;" horiz-adv-x="376" 
d="M336 -156h-296q-10 0 -10 10v87q0 14 10 21l147 125q21 18 21 38q0 24 -24 24q-26 0 -28 -32q0 -12 -11 -10l-106 12q-9 1 -9 11q2 58 46 92.5t118 34.5q65 0 108 -34q44 -33 44 -96t-60 -111l-70 -56v-1h120q10 0 10 -10v-95q0 -10 -10 -10z" />
    <glyph glyph-name="three.inferior" unicode="&#x2083;" horiz-adv-x="376" 
d="M191 -163q-68 0 -110.5 29.5t-50.5 80.5q-2 10 8 11l105 13q10 1 14 -7q7 -19 29 -19q27 0 27 26q0 27 -35 27h-10q-10 0 -10 10v84q0 10 10 10h12q27 0 27 23q0 24 -24 24q-22 0 -26 -19q-3 -10 -12 -9l-107 14q-10 1 -8 11q9 51 51 81t109 30q73 0 114 -32t41 -82
t-48 -80v-2q54 -25 54 -95q0 -58 -44 -93.5t-116 -35.5z" />
    <glyph glyph-name="four.inferior" unicode="&#x2084;" horiz-adv-x="376" 
d="M324 -156h-109q-10 0 -10 10v32q0 6 -6 6h-169q-10 0 -10 10v102q0 7 5 20l97 216q4 10 15 10h127q11 0 7 -10l-104 -230v-3h32q6 0 6 6v42q0 10 10 10h109q10 0 10 -10v-42q0 -6 5 -6h13q10 0 10 -10v-95q0 -10 -10 -10h-12q-6 0 -6 -6v-32q0 -10 -10 -10z" />
    <glyph glyph-name="five.inferior" unicode="&#x2085;" horiz-adv-x="376" 
d="M189 -163q-64 0 -103.5 27t-48.5 76q-2 9 9 11l104 13q9 2 14 -6q7 -13 24 -13t22 14q8 18 0 36q-5 14 -22 14q-12 0 -20 -8q-6 -6 -13 -6h-105q-10 0 -10 10v235q0 10 10 10h270q10 0 10 -10v-91q0 -11 -10 -11h-154q-6 0 -6 -7v-33h1q21 18 65 18q93 0 117 -74
q8 -26 8 -57q0 -37 -7 -57q-30 -91 -155 -91z" />
    <glyph glyph-name="six.inferior" unicode="&#x2086;" horiz-adv-x="376" 
d="M20 -23q0 54 41 124l81 139q4 10 15 10h134q11 0 5 -10l-75 -131l1 -1h4q58 0 94 -35.5t36 -95.5q0 -63 -46.5 -101.5t-121.5 -38.5t-121.5 38.5t-46.5 101.5zM164 -48q9 -9 24 -9t23 9q9 9 9 22t-9 22q-8 9 -23 9t-24 -9q-8 -9 -8 -22t8 -22z" />
    <glyph glyph-name="seven.inferior" unicode="&#x2087;" horiz-adv-x="376" 
d="M220 -156h-129q-11 0 -7 12l122 280v2h-44q-6 0 -6 -6v-32q0 -10 -10 -10h-106q-10 0 -10 10v140q0 10 10 10h300q10 0 10 -10v-105q0 -11 -4 -18l-113 -263q-3 -10 -13 -10z" />
    <glyph glyph-name="eight.inferior" unicode="&#x2088;" horiz-adv-x="376" 
d="M20 -32q0 51 43 85v1q-35 33 -35 75q0 55 44 91.5t116 36.5t116 -36.5t44 -91.5q0 -42 -35 -75v-1q43 -34 43 -85q0 -60 -47.5 -95.5t-120.5 -35.5t-120.5 35.5t-47.5 95.5zM168 106q12 -11 27.5 -5.5t19 18t-7.5 24.5q-7 8 -19 8t-20 -8q-7 -7 -7 -18t7 -19zM165 -48
q9 -9 23 -9t23 9t9 22t-9 22t-23 9t-23 -9t-9 -22t9 -22z" />
    <glyph glyph-name="nine.inferior" unicode="&#x2089;" horiz-adv-x="376" 
d="M219 -156h-134q-11 0 -5 10l75 131l-1 1h-4q-58 0 -94 35.5t-36 95.5q0 63 46.5 101.5t121.5 38.5t121.5 -38.5t46.5 -101.5q0 -54 -41 -124l-81 -139q-4 -10 -15 -10zM164 98q9 -9 24 -9t23 9q9 9 9 22t-9 22q-8 9 -23 9t-24 -9q-8 -9 -8 -22t8 -22z" />
    <glyph glyph-name="Euro" unicode="&#x20ac;" horiz-adv-x="572" 
d="M323 -12q-181 0 -228 144q-14 45 -14 103q0 6 -6 6h-39q-10 0 -10 10v63q0 10 10 10h39q6 0 6 6v23q0 6 -6 6h-39q-10 0 -10 10v63q0 10 10 10h39q6 0 6 6q0 55 14 100q47 144 228 144q160 0 217 -126q4 -9 -5 -14l-139 -61q-14 -8 -19 5q-15 36 -49 36q-31 0 -41 -31
q-4 -9 -4 -53q0 -6 6 -6h132q10 0 10 -10l-10 -63q-1 -10 -10 -10h-122q-6 0 -6 -6v-23q0 -6 6 -6h112q10 0 10 -10l-10 -63q-1 -10 -10 -10h-102q-6 0 -6 -6q0 -47 4 -56q10 -31 41 -31q34 0 49 36q5 13 19 5l139 -61q9 -5 5 -14q-57 -126 -217 -126z" />
    <glyph glyph-name="afii61248" unicode="&#x2105;" horiz-adv-x="891" 
d="M177 -2l395 684q6 10 16 10h122q10 0 4 -10l-395 -684q-6 -10 -16 -10h-122q-10 0 -4 10zM523 92q-10 30 -10 79t10 79q15 51 56.5 77.5t101.5 26.5t102 -26.5t57 -77.5q10 -31 10 -79q0 -49 -10 -79q-15 -51 -57 -77.5t-102 -26.5t-101.5 26.5t-56.5 77.5zM681 102
q21 0 29 20q4 11 4 49t-4 49q-8 20 -29 20q-20 0 -28 -20q-4 -11 -4 -49t4 -49q8 -20 28 -20zM217 323q-60 0 -102.5 27t-59.5 78q-9 28 -9 78q0 48 9 77q17 51 59.5 78.5t103.5 27.5q58 0 101 -27t58 -69q2 -6 -4 -9l-101 -44q-9 -4 -12 3q-12 31 -37 31q-23 0 -30 -21
q-4 -11 -4 -47q0 -37 4 -48q7 -21 30 -21q25 0 37 31q3 8 12 3l100 -43q6 -3 4 -9q-15 -42 -58 -69t-101 -27z" />
    <glyph glyph-name="afii61289" unicode="&#x2113;" horiz-adv-x="465" 
d="M107 139l-23 -18q-8 -5 -14 2l-57 83q-5 10 2 14l91 67v160q0 245 179 245q70 0 112 -43.5t42 -117.5q0 -140 -170 -293v-71q0 -37 33 -37q19 0 48 19q8 5 14 -2l58 -84q6 -8 -2 -14q-71 -61 -153 -61q-149 0 -160 151zM269 484v-67q42 67 42 119q0 34 -19 34
q-8 0 -12.5 -5.5t-7.5 -25t-3 -55.5z" />
    <glyph glyph-name="uni2116" unicode="&#x2116;" horiz-adv-x="976" 
d="M239 0h-180q-10 0 -10 10v661q0 9 10 9h153q11 0 17 -11l153 -276h3v278q0 9 11 9h179q9 0 9 -9v-661q0 -10 -9 -10h-151q-12 0 -19 12l-153 276h-3v-278q0 -10 -10 -10zM905 112h-260q-10 0 -10 9v101q0 8 10 8h260q10 0 10 -8v-101q0 -9 -10 -9zM780 282
q-165 0 -165 154t165 154q80 0 121.5 -39.5t41.5 -114.5t-41.5 -114.5t-121.5 -39.5zM780 386q17 0 22.5 10t5.5 40t-5.5 40t-22.5 10q-18 0 -24 -10.5t-6 -39.5q0 -30 6 -40t24 -10z" />
    <glyph glyph-name="published" unicode="&#x2117;" horiz-adv-x="774" 
d="M639 86q-100 -100 -252 -100q-153 0 -253 100t-100 253t100 253t253 100q152 0 252 -100q101 -101 101 -253t-101 -253zM196 148q74 -74 191 -74q116 0 190 74q74 76 74 191q0 116 -74 190q-73 75 -190 75t-191 -75q-73 -73 -73 -190t73 -191zM375 151h-126q-9 0 -9 9
v357q0 9 9 9h168q75 0 121 -37t46 -104q0 -74 -45 -112t-122 -38h-28q-5 0 -5 -5v-70q0 -9 -9 -9zM387 340h17q27 0 39 9t12 32q0 38 -51 38h-17q-3 0 -3 -3v-73q0 -3 3 -3z" />
    <glyph glyph-name="trademark" unicode="&#x2122;" horiz-adv-x="836" 
d="M780 286h-90q-10 0 -10 10v175h-3l-52 -122q-4 -10 -14 -10h-47q-10 0 -14 10l-52 122h-3v-175q0 -10 -10 -10h-90q-10 0 -10 10v374q0 10 10 10h97q11 0 15 -10l80 -180h4l79 180q4 10 15 10h95q10 0 10 -10v-374q0 -10 -10 -10zM242 286h-102q-10 0 -10 10v269
q0 6 -6 6h-88q-10 0 -10 10v89q0 10 10 10h310q10 0 10 -10v-89q0 -10 -10 -10h-88q-6 0 -6 -6v-269q0 -10 -10 -10z" />
    <glyph glyph-name="Omega" unicode="&#x2126;" horiz-adv-x="640" 
d="M589 0h-234q-10 0 -10 10v136q0 10 9 16q26 20 32 51q7 29 7 146q0 85 -11 112q-15 35 -62 35q-45 0 -62 -35q-11 -24 -11 -111q0 -116 6 -147q7 -31 33 -51q9 -6 9 -16v-136q0 -10 -10 -10h-234q-10 0 -10 10v144q0 10 10 10h38v1q-54 41 -54 202q0 165 73 245
q72 80 212 80q132 0 203 -71q82 -81 82 -252q0 -163 -54 -204v-1h38q10 0 10 -10v-144q0 -10 -10 -10z" />
    <glyph glyph-name="estimated" unicode="&#x212e;" horiz-adv-x="566" 
d="M282 -12q-106 0 -174 74q-66 74 -66 184t66 183t174 73t174 -71q66 -69 68 -185h-377v-169q56 -53 135 -53q116 0 179 111l33 -22q-45 -67 -93 -96t-119 -29zM147 280h272v134q-62 57 -137 57q-80 0 -135 -57v-134z" />
    <glyph glyph-name="onethird" unicode="&#x2153;" horiz-adv-x="972" 
d="M732 -7q-68 0 -110.5 29.5t-50.5 80.5q-2 10 8 11l105 13q10 1 14 -7q7 -19 29 -19q27 0 27 26q0 27 -35 27h-10q-10 0 -10 10v84q0 10 10 10h12q27 0 27 23q0 24 -24 24q-22 0 -26 -19q-3 -10 -12 -9l-107 14q-10 1 -8 11q9 51 51 81t109 30q73 0 114 -32t41 -82
t-48 -80v-2q54 -25 54 -95q0 -58 -44 -93.5t-116 -35.5zM316 -12h-122q-10 0 -4 10l395 684q6 10 16 10h122q10 0 4 -10l-395 -684q-6 -10 -16 -10zM292 274h-123q-10 0 -10 10v256h-2l-67 -37q-10 -6 -10 6v112q0 11 9 15l63 38q9 6 17 6h123q10 0 10 -10v-386
q0 -10 -10 -10z" />
    <glyph glyph-name="twothirds" unicode="&#x2154;" horiz-adv-x="1060" 
d="M820 -7q-68 0 -110.5 29.5t-50.5 80.5q-2 10 8 11l105 13q10 1 14 -7q7 -19 29 -19q27 0 27 26q0 27 -35 27h-10q-10 0 -10 10v84q0 10 10 10h12q27 0 27 23q0 24 -24 24q-22 0 -26 -19q-3 -10 -12 -9l-107 14q-10 1 -8 11q9 51 51 81t109 30q73 0 114 -32t41 -82
t-48 -80v-2q54 -25 54 -95q0 -58 -44 -93.5t-116 -35.5zM386 274h-296q-10 0 -10 10v87q0 14 10 21l147 125q21 18 21 38q0 24 -24 24q-26 0 -28 -32q0 -12 -11 -10l-106 12q-9 1 -9 11q2 58 46 92.5t118 34.5q65 0 108 -34q44 -33 44 -96t-60 -111l-70 -56v-1h120
q10 0 10 -10v-95q0 -10 -10 -10zM404 -12h-122q-10 0 -4 10l395 684q6 10 16 10h122q10 0 4 -10l-395 -684q-6 -10 -16 -10z" />
    <glyph glyph-name="oneeighth" unicode="&#x215b;" horiz-adv-x="978" 
d="M562 124q0 51 43 85v1q-35 33 -35 75q0 55 44 91.5t116 36.5t116 -36.5t44 -91.5q0 -42 -35 -75v-1q43 -34 43 -85q0 -60 -47.5 -95.5t-120.5 -35.5t-120.5 35.5t-47.5 95.5zM710 262q12 -11 27.5 -5.5t19 18t-7.5 24.5q-7 8 -19 8t-20 -8q-7 -7 -7 -18t7 -19zM707 108
q9 -9 23 -9t23 9t9 22t-9 22t-23 9t-23 -9t-9 -22t9 -22zM316 -12h-122q-10 0 -4 10l395 684q6 10 16 10h122q10 0 4 -10l-395 -684q-6 -10 -16 -10zM292 274h-123q-10 0 -10 10v256h-2l-67 -37q-10 -6 -10 6v112q0 11 9 15l63 38q9 6 17 6h123q10 0 10 -10v-386
q0 -10 -10 -10z" />
    <glyph glyph-name="threeeighths" unicode="&#x215c;" horiz-adv-x="1034" 
d="M244 267q-68 0 -110.5 29.5t-50.5 80.5q-2 10 8 11l105 13q10 1 14 -7q7 -19 29 -19q27 0 27 26q0 27 -35 27h-10q-10 0 -10 10v84q0 10 10 10h12q27 0 27 23q0 24 -24 24q-22 0 -26 -19q-3 -10 -12 -9l-107 14q-10 1 -8 11q9 51 51 81t109 30q73 0 114 -32t41 -82
t-48 -80v-2q54 -25 54 -95q0 -58 -44 -93.5t-116 -35.5zM620 124q0 51 43 85v1q-35 33 -35 75q0 55 44 91.5t116 36.5t116 -36.5t44 -91.5q0 -42 -35 -75v-1q43 -34 43 -85q0 -60 -47.5 -95.5t-120.5 -35.5t-120.5 35.5t-47.5 95.5zM768 262q12 -11 27.5 -5.5t19 18
t-7.5 24.5q-7 8 -19 8t-20 -8q-7 -7 -7 -18t7 -19zM765 108q9 -9 23 -9t23 9t9 22t-9 22t-23 9t-23 -9t-9 -22t9 -22zM374 -12h-122q-10 0 -4 10l395 684q6 10 16 10h122q10 0 4 -10l-395 -684q-6 -10 -16 -10z" />
    <glyph glyph-name="fiveeighths" unicode="&#x215d;" horiz-adv-x="1026" 
d="M235 267q-64 0 -103.5 27t-48.5 76q-2 9 9 11l104 13q9 2 14 -6q7 -13 24 -13t22 14q3 7 3 18t-3 18q-5 14 -22 14q-12 0 -20 -8q-6 -6 -13 -6h-105q-10 0 -10 10v235q0 10 10 10h270q10 0 10 -10v-91q0 -11 -10 -11h-154q-6 0 -6 -7v-33h1q21 18 65 18q93 0 117 -74
q8 -26 8 -57q0 -37 -7 -57q-30 -91 -155 -91zM612 124q0 51 43 85v1q-35 33 -35 75q0 55 44 91.5t116 36.5t116 -36.5t44 -91.5q0 -42 -35 -75v-1q43 -34 43 -85q0 -60 -47.5 -95.5t-120.5 -35.5t-120.5 35.5t-47.5 95.5zM760 262q12 -11 27.5 -5.5t19 18t-7.5 24.5
q-7 8 -19 8t-20 -8q-7 -7 -7 -18t7 -19zM757 108q9 -9 23 -9t23 9t9 22t-9 22t-23 9t-23 -9t-9 -22t9 -22zM366 -12h-122q-10 0 -4 10l395 684q6 10 16 10h122q10 0 4 -10l-395 -684q-6 -10 -16 -10z" />
    </font>
</defs>
</svg>
