<?xml version="1.0" standalone="no"?>
<!DOCTYPE svg PUBLIC "-//W3C//DTD SVG 1.1//EN" "http://www.w3.org/Graphics/SVG/1.1/DTD/svg11.dtd" >
<svg>
<metadata>
Created by FontForge 20090622 at Mon Aug 10 11:52:28 2020
 By deploy user
Copyright &#194;&#169; 2010 Linotype GmbH, www.linotype.com. All rights reserved. This font software may not be reproduced, modified, disclosed or transferred without the express written approval of Linotype GmbH.
</metadata>
<defs>
<font id="DINNextW1G-Medium" horiz-adv-x="549" >
  <font-face 
    font-family="DIN Next W1G Medium"
    font-weight="500"
    font-stretch="normal"
    units-per-em="1000"
    panose-1="2 11 6 3 2 2 3 5 2 3"
    ascent="781"
    descent="-219"
    x-height="482"
    cap-height="680"
    bbox="-181.75 -228 1027 920"
    underline-thickness="50"
    underline-position="-50"
    unicode-range="U+000D-U+FB04"
  />
<missing-glyph horiz-adv-x="483" 
d="M0 10v660q0 10 10 10h463q10 0 10 -10v-660q0 -10 -10 -10h-463q-10 0 -10 10zM59 619v-558q0 -6 6 -6h353q6 0 6 6v558q0 6 -6 6h-353q-6 0 -6 -6zM256 237h-54q-10 0 -10 10v24q0 29 17 55l51 70q21 30 21 53q0 21 -13.5 35t-34.5 14q-43 0 -55 -45q-2 -11 -11 -9
l-52 9q-10 1 -8 11q10 47 43.5 73t85.5 26t85.5 -32.5t33.5 -81.5q0 -42 -26 -74l-50 -71q-13 -17 -13 -41v-16q0 -10 -10 -10zM190 124v59q0 10 10 10h58q10 0 10 -10v-59q0 -10 -10 -10h-58q-10 0 -10 10z" />
    <glyph glyph-name="IJ" unicode="IJ" horiz-adv-x="775" 
d="M292 71q-5 8 2 14l73 55q7 4 15 -3q36 -42 91 -42t84 34t29 100v441q0 10 10 10h98q10 0 10 -10v-441q0 -113 -63 -176.5t-172 -63.5q-55 0 -104 23t-73 59zM75 10v660q0 10 10 10h98q10 0 10 -10v-660q0 -10 -10 -10h-98q-10 0 -10 10z" />
    <glyph glyph-name="ij" unicode="ij" horiz-adv-x="516" 
d="M433 573h-92q-10 0 -10 10v87q0 10 10 10h92q10 0 10 -10v-87q0 -10 -10 -10zM281 -180h-28q-10 0 -10 10v80q0 10 10 10h22q31 0 43.5 12.5t12.5 44.5v495q0 10 10 10h92q10 0 10 -10v-493q0 -159 -162 -159zM175 573h-92q-10 0 -10 10v87q0 10 10 10h92q10 0 10 -10
v-87q0 -10 -10 -10zM175 0h-92q-10 0 -10 10v462q0 10 10 10h92q10 0 10 -10v-462q0 -10 -10 -10z" />
    <glyph glyph-name="napostrophe" unicode="&#x22;n" horiz-adv-x="548" 
d="M470 0h-92q-10 0 -10 10v278q0 49 -23.5 77t-67.5 28q-42 0 -67 -28.5t-25 -76.5v-278q0 -10 -10 -10h-92q-10 0 -10 10v462q0 10 10 10h92q10 0 10 -10v-35h1q39 56 127 56q75 0 121 -50t46 -129v-304q0 -10 -10 -10zM-5 502q-10 0 -10 11v157q0 10 10 10h83
q10 0 10 -10v-73q0 -12 -7 -19l-71 -69q-7 -7 -15 -7z" />
    <glyph glyph-name="f_f" unicode="ff" horiz-adv-x="656" 
d="M190 0h-92q-10 0 -10 10v379q0 6 -6 6h-32q-10 0 -10 10v67q0 10 10 10h32q6 0 6 6v31q0 161 160 161h44q10 0 10 -10v-80q0 -10 -10 -10h-31q-37 0 -49 -11.5t-12 -47.5v-33q0 -6 6 -6h86q10 0 10 -10v-67q0 -10 -10 -10h-86q-6 0 -6 -6v-379q0 -10 -10 -10zM518 0h-92
q-10 0 -10 10v379q0 6 -6 6h-32q-10 0 -10 10v67q0 10 10 10h32q6 0 6 6v31q0 161 160 161h44q10 0 10 -10v-80q0 -10 -10 -10h-31q-37 0 -49 -11.5t-12 -47.5v-33q0 -6 6 -6h86q10 0 10 -10v-67q0 -10 -10 -10h-86q-6 0 -6 -6v-379q0 -10 -10 -10z" />
    <glyph glyph-name="fi" unicode="fi" horiz-adv-x="586" 
d="M190 0h-92q-10 0 -10 10v379q0 6 -6 6h-32q-10 0 -10 10v67q0 10 10 10h32q6 0 6 6v31q0 161 160 161h44q10 0 10 -10v-80q0 -10 -10 -10h-31q-37 0 -49 -11.5t-12 -47.5v-33q0 -6 6 -6h86q10 0 10 -10v-67q0 -10 -10 -10h-86q-6 0 -6 -6v-379q0 -10 -10 -10zM503 573
h-92q-10 0 -10 10v87q0 10 10 10h92q10 0 10 -10v-87q0 -10 -10 -10zM503 0h-92q-10 0 -10 10v462q0 10 10 10h92q10 0 10 -10v-462q0 -10 -10 -10z" />
    <glyph glyph-name="fl" unicode="fl" horiz-adv-x="619" 
d="M190 0h-92q-10 0 -10 10v379q0 6 -6 6h-32q-10 0 -10 10v67q0 10 10 10h32q6 0 6 6v31q0 161 160 161h44q10 0 10 -10v-80q0 -10 -10 -10h-31q-37 0 -49 -11.5t-12 -47.5v-33q0 -6 6 -6h86q10 0 10 -10v-67q0 -10 -10 -10h-86q-6 0 -6 -6v-379q0 -10 -10 -10zM575 -6h-44
q-69 0 -100.5 33t-31.5 105v538q0 10 10 10h92q10 0 10 -10v-532q0 -24 10 -34t32 -10h22q10 0 10 -10v-80q0 -10 -10 -10z" />
    <glyph glyph-name="f_f_i" unicode="ffi" horiz-adv-x="914" 
d="M190 0h-92q-10 0 -10 10v379q0 6 -6 6h-32q-10 0 -10 10v67q0 10 10 10h32q6 0 6 6v31q0 161 160 161h44q10 0 10 -10v-80q0 -10 -10 -10h-31q-37 0 -49 -11.5t-12 -47.5v-33q0 -6 6 -6h86q10 0 10 -10v-67q0 -10 -10 -10h-86q-6 0 -6 -6v-379q0 -10 -10 -10zM518 0h-92
q-10 0 -10 10v379q0 6 -6 6h-32q-10 0 -10 10v67q0 10 10 10h32q6 0 6 6v31q0 161 160 161h44q10 0 10 -10v-80q0 -10 -10 -10h-31q-37 0 -49 -11.5t-12 -47.5v-33q0 -6 6 -6h86q10 0 10 -10v-67q0 -10 -10 -10h-86q-6 0 -6 -6v-379q0 -10 -10 -10zM831 573h-92
q-10 0 -10 10v87q0 10 10 10h92q10 0 10 -10v-87q0 -10 -10 -10zM831 0h-92q-10 0 -10 10v462q0 10 10 10h92q10 0 10 -10v-462q0 -10 -10 -10z" />
    <glyph glyph-name="f_f_l" unicode="ffl" horiz-adv-x="947" 
d="M190 0h-92q-10 0 -10 10v379q0 6 -6 6h-32q-10 0 -10 10v67q0 10 10 10h32q6 0 6 6v31q0 161 160 161h44q10 0 10 -10v-80q0 -10 -10 -10h-31q-37 0 -49 -11.5t-12 -47.5v-33q0 -6 6 -6h86q10 0 10 -10v-67q0 -10 -10 -10h-86q-6 0 -6 -6v-379q0 -10 -10 -10zM518 0h-92
q-10 0 -10 10v379q0 6 -6 6h-32q-10 0 -10 10v67q0 10 10 10h32q6 0 6 6v31q0 161 160 161h44q10 0 10 -10v-80q0 -10 -10 -10h-31q-37 0 -49 -11.5t-12 -47.5v-33q0 -6 6 -6h86q10 0 10 -10v-67q0 -10 -10 -10h-86q-6 0 -6 -6v-379q0 -10 -10 -10zM903 -6h-44
q-69 0 -100.5 33t-31.5 105v538q0 10 10 10h92q10 0 10 -10v-532q0 -24 10 -34t32 -10h22q10 0 10 -10v-80q0 -10 -10 -10z" />
    <glyph glyph-name=".notdef" horiz-adv-x="483" 
d="M0 10v660q0 10 10 10h463q10 0 10 -10v-660q0 -10 -10 -10h-463q-10 0 -10 10zM59 619v-558q0 -6 6 -6h353q6 0 6 6v558q0 6 -6 6h-353q-6 0 -6 -6zM256 237h-54q-10 0 -10 10v24q0 29 17 55l51 70q21 30 21 53q0 21 -13.5 35t-34.5 14q-43 0 -55 -45q-2 -11 -11 -9
l-52 9q-10 1 -8 11q10 47 43.5 73t85.5 26t85.5 -32.5t33.5 -81.5q0 -42 -26 -74l-50 -71q-13 -17 -13 -41v-16q0 -10 -10 -10zM190 124v59q0 10 10 10h58q10 0 10 -10v-59q0 -10 -10 -10h-58q-10 0 -10 10z" />
    <glyph glyph-name=".null" horiz-adv-x="0" 
 />
    <glyph glyph-name="nonmarkingreturn" horiz-adv-x="333" 
 />
    <glyph glyph-name="NULL" horiz-adv-x="500" 
 />
    <glyph glyph-name="NULL" horiz-adv-x="500" 
 />
    <glyph glyph-name="CR.001" unicode="&#xd;" horiz-adv-x="0" 
 />
    <glyph glyph-name="space" unicode=" " horiz-adv-x="236" 
 />
    <glyph glyph-name="exclam" unicode="!" horiz-adv-x="307" 
d="M183 190h-59q-10 0 -10 10l-23 470q0 10 10 10h105q10 0 10 -10l-23 -470q0 -10 -10 -10zM93 10v102q0 10 10 10h100q10 0 10 -10v-102q0 -10 -10 -10h-100q-10 0 -10 10z" />
    <glyph glyph-name="quotedbl" unicode="&#x22;" horiz-adv-x="345" 
d="M274 488h-62q-10 0 -10 10v172q0 10 10 10h62q10 0 10 -10v-172q0 -10 -10 -10zM132 488h-61q-10 0 -10 10v172q0 10 10 10h61q10 0 10 -10v-172q0 -10 -10 -10z" />
    <glyph glyph-name="numbersign" unicode="#" horiz-adv-x="514" 
d="M69 10l27 200h-66q-10 0 -10 10v58q0 10 10 10h77l16 116h-67q-10 0 -10 10v58q0 10 10 10h77l26 188q1 10 11 10h63q10 0 9 -10l-26 -188h116l26 188q1 10 11 10h63q10 0 9 -10l-26 -188h69q10 0 10 -10v-58q0 -10 -10 -10h-79l-16 -116h69q10 0 10 -10v-58
q0 -10 -10 -10h-80l-27 -200q-1 -10 -11 -10h-63q-10 0 -9 10l27 200h-116l-27 -200q-1 -10 -11 -10h-63q-10 0 -9 10zM206 404l-16 -116h116l16 116h-116z" />
    <glyph glyph-name="dollar" unicode="$" 
d="M67 61q-9 8 -2 15l53 67q8 7 14 1q57 -46 128 -54v205q-86 14 -134.5 65t-48.5 127q0 83 51 138q52 57 132 64v52q0 10 10 10h39q10 0 10 -10v-52q86 -8 153 -53q7 -6 2 -14l-46 -68q-6 -7 -14 -2q-46 28 -95 36v-195q90 -15 137 -65t47 -128q0 -85 -49 -140.5
t-135 -67.5v-53q0 -10 -10 -10h-39q-10 0 -10 10v51q-109 5 -193 71zM260 405v183q-34 -7 -54 -32t-20 -61q0 -69 74 -90zM319 284v-191q75 18 75 103q0 66 -75 88z" />
    <glyph glyph-name="percent" unicode="%" horiz-adv-x="782" 
d="M151 -1l395 682q6 10 16 10h65q11 0 5 -10l-395 -682q-6 -10 -15 -10h-66q-11 0 -5 10zM70 410q-8 26 -8 99t8 99q12 36 45 58t77 22t77 -22t45 -58q8 -26 8 -99t-8 -99q-12 -36 -45 -58t-77 -22t-77 22t-45 58zM192 402q34 0 43 29q4 9 4 78q0 68 -4 79q-9 28 -43 28
t-44 -28q-4 -11 -4 -79q0 -69 4 -78q11 -29 44 -29zM467 71q-8 30 -8 99t8 99q12 36 45 58t78 22q44 0 77 -22t45 -58q8 -26 8 -99t-8 -99q-12 -36 -45 -58t-77 -22q-45 0 -78 22t-45 58zM546 92q11 -29 44 -29q34 0 43 29q4 9 4 78q0 68 -4 79q-9 28 -43 28t-44 -28
q-4 -11 -4 -79q0 -69 4 -78z" />
    <glyph glyph-name="ampersand" unicode="&#x26;" horiz-adv-x="646" 
d="M63 171q0 57 30 105.5t99 102.5q-42 53 -60 88q-16 31 -16 68q0 69 49 112q50 44 120 44q73 0 119 -45q47 -45 47 -108q0 -46 -26 -84.5t-92 -89.5l106 -136l68 81q6 7 14 1l55 -47q8 -6 2 -14l-80 -97l24 -30q16 -22 41 -22h15q10 0 10 -10v-80q0 -10 -10 -10h-33
q-33 0 -53.5 11t-45.5 42l-17 21q-82 -85 -177 -85q-89 0 -139 49.5t-50 132.5zM274 440q45 35 60 55.5t15 43.5q0 25 -18 42.5t-45 17.5q-28 0 -46.5 -17.5t-18.5 -43.5q0 -18 9 -36q14 -25 44 -62zM167 177q0 -41 25 -66t68 -25q52 0 111 63l-120 154q-84 -65 -84 -126z
" />
    <glyph glyph-name="quotesingle" unicode="'" horiz-adv-x="203" 
d="M132 488h-61q-10 0 -10 10v172q0 10 10 10h61q10 0 10 -10v-172q0 -10 -10 -10z" />
    <glyph glyph-name="parenleft" unicode="(" horiz-adv-x="293" 
d="M179 -74q-128 179 -128 402t128 402q7 10 17 10h49q10 0 6 -10q-93 -186 -93 -402q0 -218 93 -402q4 -10 -6 -10h-49q-10 0 -17 10z" />
    <glyph glyph-name="parenright" unicode=")" horiz-adv-x="293" 
d="M47 -74q93 184 93 402q0 216 -93 402q-4 10 6 10h49q10 0 17 -10q128 -179 128 -402t-128 -402q-7 -10 -17 -10h-49q-10 0 -6 10z" />
    <glyph glyph-name="asterisk" unicode="*" horiz-adv-x="335" 
d="M194 392h-43q-10 0 -10 10l1 81l-70 -42q-10 -5 -14 4l-21 38q-5 10 4 14l70 39l-70 39q-9 4 -4 14l21 38q4 9 14 4l70 -42l-1 81q0 10 10 10h43q10 0 10 -10l-1 -81l70 42q10 5 14 -4l21 -38q5 -10 -4 -14l-70 -39l70 -39q9 -4 4 -14l-21 -38q-4 -9 -14 -4l-70 42l1 -81
q0 -10 -10 -10z" />
    <glyph glyph-name="plus" unicode="+" 
d="M224 67v154q0 6 -6 6h-153q-10 0 -10 10v78q0 10 10 10h153q6 0 6 6v154q0 10 10 10h81q10 0 10 -10v-154q0 -6 6 -6h153q10 0 10 -10v-78q0 -10 -10 -10h-153q-6 0 -6 -6v-154q0 -10 -10 -10h-81q-10 0 -10 10z" />
    <glyph glyph-name="comma" unicode="," horiz-adv-x="246" 
d="M66 -101v213q0 10 10 10h94q10 0 10 -10v-109q0 -14 -7 -21l-83 -86q-7 -7 -14 -7q-10 0 -10 10z" />
    <glyph glyph-name="hyphen" unicode="-" horiz-adv-x="385" 
d="M330 216h-275q-10 0 -10 10v79q0 10 10 10h275q10 0 10 -10v-79q0 -10 -10 -10z" />
    <glyph glyph-name="period" unicode="." horiz-adv-x="252" 
d="M66 10v102q0 10 10 10h100q10 0 10 -10v-102q0 -10 -10 -10h-100q-10 0 -10 10z" />
    <glyph glyph-name="slash" unicode="/" horiz-adv-x="425" 
d="M57 -1l222 682q3 10 13 10h75q10 0 7 -10l-222 -682q-3 -10 -13 -10h-75q-10 0 -7 10z" />
    <glyph glyph-name="zero" unicode="0" 
d="M81 122q-14 45 -14 218t14 218q42 133 193 133t194 -133q14 -45 14 -218t-14 -218q-43 -133 -194 -133t-193 133zM191 143q19 -54 83 -54t84 54q9 27 9 197t-9 197q-20 54 -84 54t-83 -54q-9 -27 -9 -197t9 -197z" />
    <glyph glyph-name="one" unicode="1" 
d="M247 10v536h-2l-104 -73q-11 -8 -11 6v102q0 8 7 14l109 79q8 6 18 6h85q10 0 10 -10v-660q0 -10 -10 -10h-92q-10 0 -10 10z" />
    <glyph glyph-name="two" unicode="2" 
d="M74 10v75q0 8 5 13l240 299q44 55 44 104q0 40 -24.5 65t-65.5 25q-39 0 -63 -22.5t-29 -62.5q-1 -10 -11 -8l-88 18q-10 1 -8 12q8 68 59 115q52 48 143 48q94 0 146 -54q54 -54 54 -136q0 -83 -64 -159l-198 -240v-2h252q10 0 10 -10v-80q0 -10 -10 -10h-382
q-10 0 -10 10z" />
    <glyph glyph-name="three" unicode="3" 
d="M63 135q-1 10 8 13l87 20q9 2 12 -7q26 -72 103 -72q45 0 72.5 28t27.5 73q0 51 -30 81t-81 30h-29q-10 0 -10 10v79q0 10 10 10h27q45 0 72 27t27 72q0 42 -24.5 67t-66.5 25q-72 0 -91 -70q-3 -9 -12 -7l-85 20q-10 1 -8 12q12 64 66.5 104.5t133.5 40.5
q92 0 146 -51.5t54 -136.5q0 -92 -76 -141v-2q36 -16 63 -61.5t27 -103.5q0 -92 -60 -149t-153 -57q-82 0 -138 38.5t-72 107.5z" />
    <glyph glyph-name="four" unicode="4" 
d="M323 104h-267q-10 0 -10 10v77q0 7 3 12l220 469q5 8 14 8h95q12 0 7 -9l-216 -465v-2h154q6 0 6 6v170q0 10 10 10h92q10 0 10 -10v-170q0 -6 6 -6h50q10 0 10 -10v-80q0 -10 -10 -10h-50q-6 0 -6 -6v-88q0 -10 -10 -10h-92q-10 0 -10 10v88q0 6 -6 6z" />
    <glyph glyph-name="five" unicode="5" 
d="M83 129q-2 9 8 12l85 21q9 1 12 -8q23 -65 94 -65q64 0 84 56q9 23 9 75q0 50 -9 75q-18 56 -85 56q-60 0 -83 -47q-4 -10 -12 -10h-84q-10 0 -10 10v366q0 10 10 10h362q10 0 10 -10v-80q0 -10 -10 -10h-263q-6 0 -6 -6v-153h3q38 30 100 30q66 0 111.5 -30t63.5 -85
q15 -48 15 -116q0 -63 -14 -107q-19 -57 -71 -90.5t-121 -33.5q-79 0 -133.5 38.5t-65.5 101.5z" />
    <glyph glyph-name="six" unicode="6" 
d="M58 199q0 73 45 156l178 319q5 6 12 6h96q10 0 6 -10l-150 -272l2 -2q18 9 51 9q83 0 138 -55q56 -56 56 -146q0 -101 -62 -158t-155 -57q-94 0 -156 56q-61 55 -61 154zM275 89q48 0 76 30t28 78t-28 78t-76 30q-47 0 -75 -30t-28 -78t28 -78t75 -30z" />
    <glyph glyph-name="seven" unicode="7" 
d="M139 11l222 566v3h-169q-6 0 -6 -6v-78q0 -10 -10 -10h-86q-10 0 -10 10v174q0 10 10 10h381q10 0 10 -10v-78q0 -10 -3 -18l-225 -565q-5 -9 -13 -9h-95q-11 0 -6 11z" />
    <glyph glyph-name="eight" unicode="8" 
d="M55 193q0 53 23.5 96t61.5 67v2q-30 20 -50 57.5t-20 81.5q0 82 55 137q55 57 149 57t150 -57q55 -55 55 -137q0 -44 -20 -81.5t-50 -57.5v-2q38 -24 61.5 -67t23.5 -96q0 -91 -62 -148q-62 -56 -158 -56t-158 57q-61 57 -61 147zM274 407q41 0 66.5 26.5t25.5 65.5
q0 40 -25.5 66t-66.5 26q-39 0 -65 -26.5t-26 -65.5t26 -65.5t65 -26.5zM197 276q-29 -31 -29 -78t29 -79q28 -30 77 -30q48 0 77 30q30 32 30 79q0 48 -30 78q-28 31 -77 31t-77 -31z" />
    <glyph glyph-name="nine" unicode="9" 
d="M154 10l150 272l-2 2q-16 -9 -51 -9q-82 0 -138 55q-56 56 -56 146q0 101 61 158q62 57 156 57t156 -56q61 -55 61 -154q0 -77 -45 -156l-177 -319q-5 -6 -12 -6h-97q-10 0 -6 10zM274 375q48 0 76 30t28 78t-28 78t-76 30q-47 0 -75 -30t-28 -78t28 -78t75 -30z" />
    <glyph glyph-name="colon" unicode=":" horiz-adv-x="260" 
d="M180 360h-100q-10 0 -10 10v102q0 10 10 10h100q10 0 10 -10v-102q0 -10 -10 -10zM70 10v102q0 10 10 10h100q10 0 10 -10v-102q0 -10 -10 -10h-100q-10 0 -10 10z" />
    <glyph glyph-name="semicolon" unicode=";" horiz-adv-x="260" 
d="M180 360h-100q-10 0 -10 10v102q0 10 10 10h100q10 0 10 -10v-102q0 -10 -10 -10zM73 -101v213q0 10 10 10h94q10 0 10 -10v-109q0 -13 -6 -20l-84 -87q-7 -7 -14 -7q-10 0 -10 10z" />
    <glyph glyph-name="less" unicode="&#x3c;" 
d="M484 57l-419 172q-10 3 -10 14v66q0 11 10 14l419 172q10 3 10 -6v-89q0 -9 -10 -13l-286 -110v-2l286 -110q10 -4 10 -13v-89q0 -9 -10 -6z" />
    <glyph glyph-name="equal" unicode="=" 
d="M484 327h-419q-10 0 -10 10v78q0 10 10 10h419q10 0 10 -10v-78q0 -10 -10 -10zM484 127h-419q-10 0 -10 10v78q0 10 10 10h419q10 0 10 -10v-78q0 -10 -10 -10z" />
    <glyph glyph-name="greater" unicode="&#x3e;" 
d="M55 63v89q0 9 10 13l286 110v2l-286 110q-10 4 -10 13v89q0 9 10 6l419 -172q10 -3 10 -14v-66q0 -11 -10 -14l-419 -172q-10 -3 -10 6z" />
    <glyph glyph-name="question" unicode="?" horiz-adv-x="464" 
d="M272 190h-93q-10 0 -10 10v41q0 48 26 85l79 108q34 44 34 82q0 33 -21.5 54t-56.5 21q-71 0 -85 -80q-1 -10 -11 -8l-90 14q-10 1 -8 12q12 76 64.5 119t133.5 43q83 0 135 -49q53 -50 53 -125q0 -62 -41 -117l-79 -108q-20 -26 -20 -63v-29q0 -10 -10 -10zM165 10v102
q0 10 10 10h100q10 0 10 -10v-102q0 -10 -10 -10h-100q-10 0 -10 10z" />
    <glyph glyph-name="at" unicode="@" horiz-adv-x="900" 
d="M846 268q0 -102 -45.5 -158t-119.5 -56q-85 0 -121 64h-1q-31 -63 -132 -63q-112 0 -144 98q-13 38 -13 111t13 111q32 98 140 98q37 0 66 -14t42 -37h2v31q0 9 8 9h74q8 0 8 -9v-247q0 -34 16 -52t42 -18q73 0 73 132q0 138 -83 224t-221 86q-140 0 -222 -85t-82 -225
t82 -225t222 -85q118 0 214 45q10 4 14 -5l23 -54q5 -8 -4 -13q-103 -55 -247 -55q-174 0 -286 110q-110 110 -110 282t110 282q112 110 286 110q175 0 285 -110q111 -110 111 -282zM369 193q19 -55 79 -55t78 55q7 21 7 71t-7 70q-18 56 -78 56q-59 0 -79 -56
q-7 -20 -7 -70t7 -71z" />
    <glyph glyph-name="A" unicode="A" horiz-adv-x="617" 
d="M21 10l233 660q3 10 13 10h92q10 0 13 -10l230 -660q3 -10 -7 -10h-98q-10 0 -13 10l-45 132h-256l-45 -132q-3 -10 -13 -10h-97q-10 0 -7 10zM310 511l-91 -264h184l-90 264h-3z" />
    <glyph glyph-name="B" unicode="B" horiz-adv-x="607" 
d="M75 10v660q0 10 10 10h253q103 0 157.5 -48t54.5 -133q0 -102 -79 -144v-2q38 -15 64.5 -56.5t26.5 -96.5q0 -99 -60 -149.5t-174 -50.5h-243q-10 0 -10 10zM199 397h136q45 0 71 24.5t26 64.5q0 41 -26 65.5t-71 24.5h-136q-6 0 -6 -6v-167q0 -6 6 -6zM193 287v-177
q0 -6 6 -6h142q48 0 75.5 26t27.5 69t-27.5 68.5t-75.5 25.5h-142q-6 0 -6 -6z" />
    <glyph glyph-name="C" unicode="C" horiz-adv-x="575" 
d="M73 156q-18 54 -18 184t18 184q26 81 87 124t149 43q80 0 140 -38.5t90 -107.5q3 -9 -5 -12l-85 -41q-9 -4 -13 5q-40 88 -127 88q-91 0 -122 -90q-12 -37 -12 -155t12 -155q31 -90 122 -90q87 0 127 88q4 9 13 5l85 -41q8 -3 5 -12q-30 -69 -90 -107.5t-140 -38.5
q-88 0 -149 43t-87 124z" />
    <glyph glyph-name="D" unicode="D" horiz-adv-x="625" 
d="M75 10v660q0 10 10 10h243q178 0 227 -151q17 -54 17 -189t-17 -189q-49 -151 -227 -151h-243q-10 0 -10 10zM193 568v-456q0 -6 6 -6h101q112 0 141 86q12 33 12 148t-12 148q-29 86 -141 86h-101q-6 0 -6 -6z" />
    <glyph glyph-name="E" unicode="E" horiz-adv-x="570" 
d="M75 10v660q0 10 10 10h426q10 0 10 -10v-86q0 -10 -10 -10h-312q-6 0 -6 -6v-166q0 -6 6 -6h263q10 0 10 -10v-86q0 -10 -10 -10h-263q-6 0 -6 -6v-172q0 -6 6 -6h312q10 0 10 -10v-86q0 -10 -10 -10h-426q-10 0 -10 10z" />
    <glyph glyph-name="F" unicode="F" horiz-adv-x="561" 
d="M75 10v660q0 10 10 10h426q10 0 10 -10v-86q0 -10 -10 -10h-312q-6 0 -6 -6v-173q0 -6 6 -6h263q10 0 10 -10v-86q0 -10 -10 -10h-263q-6 0 -6 -6v-267q0 -10 -10 -10h-98q-10 0 -10 10z" />
    <glyph glyph-name="G" unicode="G" horiz-adv-x="627" 
d="M73 153q-18 54 -18 187t18 187q26 80 89 122t154 42q87 0 150 -40.5t87 -103.5q4 -9 -4 -14l-84 -37q-8 -3 -13 5q-46 84 -137 84q-96 0 -128 -89q-12 -38 -12 -156t12 -156q32 -89 128 -89q46 0 81 23t48 62q11 35 11 88q0 6 -6 6h-112q-10 0 -10 10v80q0 10 10 10h225
q10 0 10 -10v-59q0 -101 -16 -149q-25 -79 -88.5 -123t-151.5 -44q-91 0 -154 42t-89 122z" />
    <glyph glyph-name="H" unicode="H" horiz-adv-x="657" 
d="M75 10v660q0 10 10 10h98q10 0 10 -10v-268q0 -6 6 -6h259q6 0 6 6v268q0 10 10 10h98q10 0 10 -10v-660q0 -10 -10 -10h-98q-10 0 -10 10v274q0 6 -6 6h-259q-6 0 -6 -6v-274q0 -10 -10 -10h-98q-10 0 -10 10z" />
    <glyph glyph-name="I" unicode="I" horiz-adv-x="268" 
d="M75 10v660q0 10 10 10h98q10 0 10 -10v-660q0 -10 -10 -10h-98q-10 0 -10 10z" />
    <glyph glyph-name="J" unicode="J" horiz-adv-x="507" 
d="M29 71q-5 8 2 14l73 55q8 4 15 -3q36 -42 91 -42t84 34t29 100v441q0 10 10 10h98q10 0 10 -10v-441q0 -113 -63 -176.5t-172 -63.5q-55 0 -104 23t-73 59z" />
    <glyph glyph-name="K" unicode="K" horiz-adv-x="633" 
d="M75 10v660q0 10 10 10h98q10 0 10 -10v-320l257 322q8 8 16 8h114q13 0 4 -13l-211 -254l235 -401q8 -12 -7 -12h-111q-10 0 -15 8l-178 314l-104 -126v-186q0 -10 -10 -10h-98q-10 0 -10 10z" />
    <glyph glyph-name="L" unicode="L" horiz-adv-x="545" 
d="M75 10v660q0 10 10 10h98q10 0 10 -10v-558q0 -6 6 -6h312q10 0 10 -10v-86q0 -10 -10 -10h-426q-10 0 -10 10z" />
    <glyph glyph-name="M" unicode="M" horiz-adv-x="756" 
d="M75 10v660q0 10 10 10h89q13 0 17 -10l187 -419h4l184 419q4 10 17 10h88q10 0 10 -10v-660q0 -10 -10 -10h-87q-10 0 -10 10v416h-4l-144 -320q-6 -13 -19 -13h-58q-13 0 -19 13l-144 320h-4v-416q0 -10 -10 -10h-87q-10 0 -10 10z" />
    <glyph glyph-name="N" unicode="N" horiz-adv-x="657" 
d="M75 10v660q0 10 10 10h92q11 0 17 -10l277 -469h4v469q0 10 10 10h87q10 0 10 -10v-660q0 -10 -10 -10h-91q-11 0 -17 10l-278 468h-4v-468q0 -10 -10 -10h-87q-10 0 -10 10z" />
    <glyph glyph-name="O" unicode="O" horiz-adv-x="627" 
d="M313 -11q-90 0 -152 42t-88 122q-18 54 -18 187t18 187q26 80 88 122t152 42t152.5 -42t88.5 -122q18 -54 18 -187t-18 -187q-26 -80 -88.5 -122t-152.5 -42zM313 95q95 0 127 89q12 38 12 156t-12 156q-32 89 -127 89q-94 0 -126 -89q-12 -38 -12 -156t12 -156
q32 -89 126 -89z" />
    <glyph glyph-name="P" unicode="P" horiz-adv-x="598" 
d="M183 0h-98q-10 0 -10 10v660q0 10 10 10h255q99 0 161 -59q63 -59 63 -152q0 -95 -63 -154q-61 -58 -161 -58h-141q-6 0 -6 -6v-241q0 -10 -10 -10zM199 364h134q52 0 82.5 28.5t30.5 76.5q0 47 -30.5 76t-82.5 29h-134q-6 0 -6 -6v-198q0 -6 6 -6z" />
    <glyph glyph-name="Q" unicode="Q" horiz-adv-x="627" 
d="M608 22l-62 -66q-8 -8 -15 0l-74 70q-58 -37 -144 -37q-90 0 -152 42t-88 122q-18 54 -18 187t18 187q26 80 88 122t152 42t152.5 -42t88.5 -122q18 -54 18 -187t-18 -187q-13 -35 -20 -46l74 -71q6 -6 0 -14zM313 94q37 0 61 11l-68 66q-8 5 0 14l63 66q7 7 14 1l61 -59
q10 34 10 147q0 118 -12 156q-32 90 -129 90t-128 -90q-12 -38 -12 -156t12 -156q31 -90 128 -90z" />
    <glyph glyph-name="R" unicode="R" horiz-adv-x="619" 
d="M572 0h-111q-11 0 -15 10l-130 265h-117q-6 0 -6 -6v-259q0 -10 -10 -10h-98q-10 0 -10 10v660q0 10 10 10h263q94 0 155 -57q62 -57 62 -146q0 -66 -34.5 -115.5t-94.5 -71.5l143 -277q3 -5 0.5 -9t-7.5 -4zM199 381h145q47 0 75.5 26.5t28.5 69.5q0 44 -28.5 70.5
t-75.5 26.5h-145q-6 0 -6 -6v-181q0 -6 6 -6z" />
    <glyph glyph-name="S" unicode="S" horiz-adv-x="587" 
d="M295 -11q-75 0 -141 25q-68 26 -109 65q-8 8 -2 15l62 72q7 8 14 1q91 -72 185 -72q59 0 93.5 26.5t34.5 71.5q0 40 -28.5 62.5t-95.5 31.5l-36 5q-205 28 -205 194q0 93 62.5 149t167.5 56q129 0 220 -68q7 -6 2 -14l-48 -74q-6 -8 -14 -3q-82 53 -163 53
q-50 0 -78.5 -24.5t-28.5 -66.5q0 -74 125 -92l36 -5q203 -29 203 -197q0 -96 -67.5 -153.5t-188.5 -57.5z" />
    <glyph glyph-name="T" unicode="T" horiz-adv-x="550" 
d="M324 0h-98q-10 0 -10 10v558q0 6 -6 6h-178q-10 0 -10 10v86q0 10 10 10h486q10 0 10 -10v-86q0 -10 -10 -10h-178q-6 0 -6 -6v-558q0 -10 -10 -10z" />
    <glyph glyph-name="U" unicode="U" horiz-adv-x="643" 
d="M321 95q61 0 97 39t36 107v429q0 10 10 10h98q10 0 10 -10v-431q0 -116 -70 -183t-181 -67q-110 0 -180 67t-70 183v431q0 10 10 10h98q10 0 10 -10v-429q0 -68 36 -107t96 -39z" />
    <glyph glyph-name="V" unicode="V" horiz-adv-x="565" 
d="M326 0h-82q-9 0 -12 10l-215 660q-3 10 8 10h97q10 0 13 -10l152 -482h3l146 482q3 10 13 10h97q11 0 8 -10l-216 -660q-3 -10 -12 -10z" />
    <glyph glyph-name="W" unicode="W" horiz-adv-x="827" 
d="M635 0h-76q-9 0 -12 10l-130 465h-2l-131 -465q-3 -10 -12 -10h-75q-9 0 -12 10l-167 660q-1 10 8 10h94q11 0 12 -10l108 -458h2l127 458q3 10 12 10h70q9 0 12 -10l130 -458h2l105 458q1 10 12 10h93q9 0 8 -10l-166 -660q-1 -10 -12 -10z" />
    <glyph glyph-name="X" unicode="X" horiz-adv-x="572" 
d="M556 0h-109q-10 0 -16 10l-137 231h-2l-138 -231q-6 -10 -16 -10h-108q-13 0 -6 13l203 339l-188 315q-7 13 6 13h108q10 0 16 -10l123 -206h2l123 206q6 10 16 10h108q13 0 6 -13l-188 -315l203 -339q7 -13 -6 -13z" />
    <glyph glyph-name="Y" unicode="Y" horiz-adv-x="536" 
d="M321 0h-98q-10 0 -10 10v268l-197 392q-4 10 8 10h101q10 0 14 -10l133 -264h3l134 264q4 10 14 10h97q12 0 8 -10l-197 -392v-268q0 -10 -10 -10z" />
    <glyph glyph-name="Z" unicode="Z" horiz-adv-x="532" 
d="M478 0h-423q-10 0 -10 10v86q0 5 3 11l307 465v2h-289q-10 0 -10 10v86q0 10 10 10h412q10 0 10 -10v-86q0 -6 -3 -10l-307 -466v-2h300q10 0 10 -10v-86q0 -10 -10 -10z" />
    <glyph glyph-name="bracketleft" unicode="[" horiz-adv-x="280" 
d="M239 -84h-167q-10 0 -10 10v804q0 10 10 10h167q10 0 10 -10v-66q0 -10 -10 -10h-68q-6 0 -6 -6v-640q0 -6 6 -6h68q10 0 10 -10v-66q0 -10 -10 -10z" />
    <glyph glyph-name="backslash" unicode="\" horiz-adv-x="425" 
d="M367 -11h-75q-10 0 -13 10l-222 682q-3 10 7 10h75q10 0 13 -10l222 -682q3 -10 -7 -10z" />
    <glyph glyph-name="bracketright" unicode="]" horiz-adv-x="280" 
d="M208 -84h-167q-10 0 -10 10v66q0 10 10 10h68q6 0 6 6v640q0 6 -6 6h-68q-10 0 -10 10v66q0 10 10 10h167q10 0 10 -10v-804q0 -10 -10 -10z" />
    <glyph glyph-name="asciicircum" unicode="^" 
d="M492 263h-83q-10 0 -14 10l-115 270h-2l-115 -270q-4 -10 -13 -10h-83q-10 0 -6 10l173 397q4 10 14 10h62q10 0 14 -10l174 -397q4 -10 -6 -10z" />
    <glyph glyph-name="underscore" unicode="_" horiz-adv-x="492" 
d="M492 -70v-66h-492v66h492z" />
    <glyph glyph-name="grave" unicode="`" horiz-adv-x="422" 
d="M299 555h-67q-11 0 -20 10l-95 125q-3 4 -1.5 7t6.5 3h91q12 0 18 -10l74 -125q4 -10 -6 -10z" />
    <glyph glyph-name="a" unicode="a" horiz-adv-x="523" 
d="M444 0h-84q-10 0 -10 10v35h-1q-39 -56 -136 -56q-72 0 -117 38.5t-45 108.5q0 76 49.5 114.5t143.5 38.5h98q6 0 6 6v23q0 43 -24.5 61.5t-82.5 18.5q-68 0 -110 -33q-9 -8 -14 2l-37 66q-5 9 2 13q65 47 171 47q108 0 154.5 -39t46.5 -129v-315q0 -10 -10 -10zM241 80
q107 0 107 82v37q0 6 -6 6h-80q-104 0 -104 -65q0 -60 83 -60z" />
    <glyph glyph-name="b" unicode="b" horiz-adv-x="545" 
d="M314 -11q-88 0 -128 57h-1v-36q0 -10 -10 -10h-92q-10 0 -10 10v660q0 10 10 10h92q10 0 10 -10v-234h1q40 57 128 57q129 0 167 -116q17 -54 17 -136t-17 -136q-38 -116 -167 -116zM285 89q69 0 89 62q10 30 10 90t-10 90q-20 62 -89 62q-70 0 -90 -62q-10 -30 -10 -90
t10 -90q20 -62 90 -62z" />
    <glyph glyph-name="c" unicode="c" horiz-adv-x="475" 
d="M261 -11q-73 0 -125.5 35t-73.5 98q-15 45 -15 119t15 119q21 63 73.5 98t125.5 35q105 0 167 -75q6 -8 -1 -14l-63 -55q-8 -6 -14 2q-38 42 -89 42q-69 0 -90 -63q-10 -29 -10 -89q0 -61 10 -90q21 -62 90 -62q51 0 89 42q6 7 14 1l63 -55q6 -4 1 -14q-62 -74 -167 -74z
" />
    <glyph glyph-name="d" unicode="d" horiz-adv-x="545" 
d="M462 0h-92q-10 0 -10 10v36h-1q-41 -57 -128 -57q-129 0 -167 116q-17 54 -17 136t17 136q38 116 167 116q87 0 128 -57h1v234q0 10 10 10h92q10 0 10 -10v-660q0 -10 -10 -10zM260 89q70 0 90 62q10 30 10 90t-10 90q-20 62 -90 62q-69 0 -89 -62q-10 -30 -10 -90
t10 -90q20 -62 89 -62z" />
    <glyph glyph-name="e" unicode="e" horiz-adv-x="521" 
d="M265 -11q-75 0 -128 35.5t-73 98.5q-17 54 -17 118q0 71 16 119q20 63 72.5 98t124.5 35q74 0 126 -35t72 -98q16 -48 16 -145q0 -10 -11 -10h-297q-6 0 -6 -6q0 -19 7 -37q25 -73 108 -73q71 0 113 46q8 8 15 2l59 -52q7 -6 1 -14q-70 -82 -198 -82zM361 295q0 23 -6 41
q-10 29 -35 45.5t-59 16.5q-74 0 -95 -62q-6 -18 -6 -41q0 -6 6 -6h189q6 0 6 6z" />
    <glyph glyph-name="f" unicode="f" horiz-adv-x="328" 
d="M190 0h-92q-10 0 -10 10v379q0 6 -6 6h-32q-10 0 -10 10v67q0 10 10 10h32q6 0 6 6v31q0 161 160 161h44q10 0 10 -10v-80q0 -10 -10 -10h-31q-37 0 -49 -11.5t-12 -47.5v-33q0 -6 6 -6h86q10 0 10 -10v-67q0 -10 -10 -10h-86q-6 0 -6 -6v-379q0 -10 -10 -10z" />
    <glyph glyph-name="g" unicode="g" horiz-adv-x="536" 
d="M238 -191q-52 0 -100 19.5t-75 52.5q-6 7 1 14l59 59q7 8 15 0q46 -45 105 -45q108 0 108 115v45h-1q-36 -56 -125 -56q-61 0 -103 30t-61 87q-16 48 -16 123q0 74 16 122q37 118 164 118q89 0 125 -57h1v36q0 10 10 10h92q10 0 10 -10v-442q0 -106 -58 -163.5
t-167 -57.5zM254 112q66 0 86 62q11 31 11 79q0 46 -11 79q-19 61 -86 61q-66 0 -85 -61q-11 -33 -11 -79q0 -48 11 -79q20 -62 85 -62z" />
    <glyph glyph-name="h" unicode="h" horiz-adv-x="548" 
d="M470 0h-92q-10 0 -10 10v278q0 49 -23.5 77t-67.5 28q-42 0 -67 -28.5t-25 -76.5v-278q0 -10 -10 -10h-92q-10 0 -10 10v660q0 10 10 10h92q10 0 10 -10v-233h1q39 56 127 56q75 0 121 -50t46 -129v-304q0 -10 -10 -10z" />
    <glyph glyph-name="i" unicode="i" horiz-adv-x="258" 
d="M175 573h-92q-10 0 -10 10v87q0 10 10 10h92q10 0 10 -10v-87q0 -10 -10 -10zM175 0h-92q-10 0 -10 10v462q0 10 10 10h92q10 0 10 -10v-462q0 -10 -10 -10z" />
    <glyph glyph-name="j" unicode="j" horiz-adv-x="258" 
d="M175 573h-92q-10 0 -10 10v87q0 10 10 10h92q10 0 10 -10v-87q0 -10 -10 -10zM23 -180h-28q-10 0 -10 10v80q0 10 10 10h22q31 0 43.5 12.5t12.5 44.5v495q0 10 10 10h92q10 0 10 -10v-493q0 -159 -162 -159z" />
    <glyph glyph-name="k" unicode="k" horiz-adv-x="522" 
d="M493 0h-105q-10 0 -16 10l-122 202l-65 -75v-127q0 -10 -10 -10h-92q-10 0 -10 10v660q0 10 10 10h92q10 0 10 -10v-392l165 194q9 10 19 10h102q4 0 5.5 -3.5t-1.5 -6.5l-153 -176l176 -286q5 -10 -5 -10z" />
    <glyph glyph-name="l" unicode="l" horiz-adv-x="291" 
d="M247 -6h-44q-69 0 -100.5 33t-31.5 105v538q0 10 10 10h92q10 0 10 -10v-532q0 -24 10 -34t32 -10h22q10 0 10 -10v-80q0 -10 -10 -10z" />
    <glyph glyph-name="m" unicode="m" horiz-adv-x="843" 
d="M765 0h-92q-10 0 -10 10v278q0 49 -23.5 77t-67.5 28q-42 0 -67 -28.5t-25 -76.5v-278q0 -10 -10 -10h-92q-10 0 -10 10v278q0 49 -23.5 77t-67.5 28q-42 0 -67 -28.5t-25 -76.5v-278q0 -10 -10 -10h-92q-10 0 -10 10v462q0 10 10 10h92q10 0 10 -10v-35h1q39 56 127 56
q87 0 132 -64h1q58 64 154 64q81 0 128 -49.5t47 -129.5v-304q0 -10 -10 -10z" />
    <glyph glyph-name="n" unicode="n" horiz-adv-x="548" 
d="M470 0h-92q-10 0 -10 10v278q0 49 -23.5 77t-67.5 28q-42 0 -67 -28.5t-25 -76.5v-278q0 -10 -10 -10h-92q-10 0 -10 10v462q0 10 10 10h92q10 0 10 -10v-35h1q39 56 127 56q75 0 121 -50t46 -129v-304q0 -10 -10 -10z" />
    <glyph glyph-name="o" unicode="o" horiz-adv-x="523" 
d="M262 -11q-74 0 -126.5 35t-72.5 98q-16 48 -16 119t16 119q20 63 72.5 98t126.5 35q73 0 125.5 -35t72.5 -98q16 -48 16 -119t-16 -119q-20 -63 -72.5 -98t-125.5 -35zM262 89q68 0 90 63q10 30 10 89t-10 89q-22 63 -90 63t-91 -63q-10 -30 -10 -89t10 -89
q23 -63 91 -63z" />
    <glyph glyph-name="p" unicode="p" horiz-adv-x="545" 
d="M175 -180h-92q-10 0 -10 10v642q0 10 10 10h92q10 0 10 -10v-36h1q40 57 128 57q129 0 167 -116q17 -54 17 -136t-17 -136q-38 -116 -167 -116q-88 0 -128 57h-1v-216q0 -10 -10 -10zM285 89q69 0 89 62q10 30 10 90t-10 90q-20 62 -89 62q-70 0 -90 -62q-10 -30 -10 -90
t10 -90q20 -62 90 -62z" />
    <glyph glyph-name="q" unicode="q" horiz-adv-x="545" 
d="M462 -180h-92q-10 0 -10 10v216h-1q-41 -57 -128 -57q-129 0 -167 116q-17 54 -17 136t17 136q38 116 167 116q87 0 128 -57h1v36q0 10 10 10h92q10 0 10 -10v-642q0 -10 -10 -10zM260 89q70 0 90 62q10 30 10 90t-10 90q-20 62 -90 62q-69 0 -89 -62q-10 -30 -10 -90
t10 -90q20 -62 89 -62z" />
    <glyph glyph-name="r" unicode="r" horiz-adv-x="423" 
d="M175 0h-92q-10 0 -10 10v462q0 10 10 10h92q10 0 10 -10v-41h1q39 62 125 62q61 0 101 -40q7 -7 2 -14l-53 -67q-6 -8 -14 -2q-37 23 -71 23q-91 0 -91 -122v-261q0 -10 -10 -10z" />
    <glyph glyph-name="s" unicode="s" horiz-adv-x="498" 
d="M258 -11q-125 0 -207 76q-7 7 0 14l57 60q7 7 14 0q27 -24 66 -39.5t75 -15.5q42 0 65.5 15t23.5 42q0 24 -18 36.5t-62 16.5l-52 5q-148 15 -148 142q0 72 49 112t138 40q105 0 181 -59q8 -6 2 -14l-49 -59q-6 -7 -14 -2q-56 40 -126 40q-34 0 -53.5 -14t-19.5 -36
q0 -23 18 -35t61 -16l52 -5q73 -7 111 -43.5t38 -97.5q0 -75 -53 -119t-149 -44z" />
    <glyph glyph-name="t" unicode="t" horiz-adv-x="321" 
d="M262 -6h-48q-71 0 -102.5 34t-31.5 107v254q0 6 -6 6h-32q-10 0 -10 10v67q0 10 10 10h32q6 0 6 6v132q0 10 10 10h92q10 0 10 -10v-132q0 -6 6 -6h64q10 0 10 -10v-67q0 -10 -10 -10h-64q-6 0 -6 -6v-250q0 -25 10.5 -35t34.5 -10h25q10 0 10 -10v-80q0 -10 -10 -10z
" />
    <glyph glyph-name="u" unicode="u" horiz-adv-x="544" 
d="M461 0h-92q-10 0 -10 10v35h-1q-44 -56 -125 -56q-75 0 -120.5 50t-45.5 129v304q0 10 10 10h92q10 0 10 -10v-278q0 -49 23 -77t67 -28q42 0 66 28t24 76v279q0 10 10 10h92q10 0 10 -10v-462q0 -10 -10 -10z" />
    <glyph glyph-name="v" unicode="v" horiz-adv-x="486" 
d="M286 0h-80q-10 0 -13 10l-170 462q-3 10 8 10h98q9 0 12 -10l106 -313h2l104 313q3 10 12 10h96q11 0 8 -10l-170 -462q-3 -10 -13 -10z" />
    <glyph glyph-name="w" unicode="w" horiz-adv-x="753" 
d="M568 0h-82q-9 0 -12 10l-93 308h-2l-94 -308q-3 -10 -12 -10h-82q-9 0 -12 10l-152 462q-3 10 7 10h96q10 0 13 -10l93 -318h2l92 318q3 10 13 10h72q10 0 13 -10l98 -318h2l88 318q3 10 13 10h96q10 0 7 -10l-152 -462q-3 -10 -12 -10z" />
    <glyph glyph-name="x" unicode="x" horiz-adv-x="495" 
d="M470 0h-100q-9 0 -16 10l-100 147h-1l-100 -147q-7 -10 -17 -10h-99q-14 0 -8 10l163 240l-151 222q-6 10 8 10h100q11 0 17 -10l87 -130h1l88 130q7 10 16 10h100q14 0 8 -10l-151 -222l163 -240q6 -10 -8 -10z" />
    <glyph glyph-name="y" unicode="y" horiz-adv-x="485" 
d="M124 -180h-31q-10 0 -10 10v80q0 10 10 10h18q28 0 44.5 13t27.5 44l14 41l-176 454q-3 10 8 10h99q9 0 12 -10l109 -315h2l104 315q3 10 12 10h95q11 0 8 -10l-184 -502q-32 -86 -67 -117q-34 -33 -95 -33z" />
    <glyph glyph-name="z" unicode="z" horiz-adv-x="485" 
d="M423 0h-361q-10 0 -10 10v73q0 5 3 10l246 289v2h-226q-10 0 -10 10v78q0 10 10 10h348q10 0 10 -10v-78q0 -6 -3 -10l-243 -284v-2h236q10 0 10 -10v-78q0 -10 -10 -10z" />
    <glyph glyph-name="braceleft" unicode="{" horiz-adv-x="346" 
d="M306 -84h-58q-57 0 -88 31t-31 89v168q0 77 -68 77q-10 0 -10 10v79q0 10 10 10q68 0 68 77v163q0 58 31 89t88 31h58q10 0 10 -10v-66q0 -10 -10 -10h-31q-43 0 -43 -42v-158q0 -56 -15.5 -83t-54.5 -40v-1q39 -13 54.5 -40t15.5 -83v-163q0 -42 43 -42h31q10 0 10 -10
v-66q0 -10 -10 -10z" />
    <glyph glyph-name="bar" unicode="|" horiz-adv-x="330" 
d="M201 -84h-72q-10 0 -10 10v804q0 10 10 10h72q10 0 10 -10v-804q0 -10 -10 -10z" />
    <glyph glyph-name="braceright" unicode="}" horiz-adv-x="346" 
d="M98 -84h-57q-10 0 -10 10v66q0 10 10 10h31q42 0 42 42v163q0 56 16 83t55 40v1q-39 13 -55 40t-16 83v158q0 42 -42 42h-31q-10 0 -10 10v66q0 10 10 10h57q57 0 88 -31t31 -89v-163q0 -77 68 -77q10 0 10 -10v-79q0 -10 -10 -10q-68 0 -68 -77v-168q0 -58 -31 -89
t-88 -31z" />
    <glyph glyph-name="asciitilde" unicode="~" 
d="M259 236q-40 25 -67 25q-40 0 -69 -50q-5 -9 -15 -2l-52 31q-8 5 -3 14q20 45 57.5 71t82.5 26q46 0 105 -35q40 -25 66 -25q41 0 70 50q5 9 15 2l52 -31q8 -5 3 -14q-23 -46 -57.5 -72t-84 -25.5t-103.5 35.5z" />
    <glyph glyph-name="uni00A0" unicode="&#xa0;" horiz-adv-x="236" 
 />
    <glyph glyph-name="exclamdown" unicode="&#xa1;" horiz-adv-x="307" 
d="M124 292h59q10 0 10 -10l23 -470q0 -10 -10 -10h-105q-10 0 -10 10l23 470q0 10 10 10zM214 472v-102q0 -10 -10 -10h-100q-10 0 -10 10v102q0 10 10 10h100q10 0 10 -10z" />
    <glyph glyph-name="cent" unicode="&#xa2;" 
d="M324 571v-79q94 -9 147 -74q6 -8 -1 -14l-62 -55q-8 -6 -14 2q-32 35 -70 40v-301q38 6 70 41q6 7 14 1l62 -55q6 -4 1 -14q-52 -64 -147 -73v-79q0 -10 -10 -10h-34q-10 0 -10 10v80q-137 12 -175 131q-15 45 -15 119t15 119q39 119 175 131v80q0 10 10 10h34
q10 0 10 -10zM194 241q0 -61 10 -90q15 -49 66 -60v299q-51 -10 -66 -60q-10 -29 -10 -89z" />
    <glyph glyph-name="sterling" unicode="&#xa3;" 
d="M466 0h-361q-10 0 -10 10v78q0 7 5 12q13 13 18.5 21t10 25.5t4.5 44.5v78q0 6 -6 6h-47q-10 0 -10 10v64q0 10 10 10h47q6 0 6 6v138q0 89 47 138.5t129 49.5q65 0 109.5 -34.5t56.5 -91.5q2 -9 -9 -11l-88 -21q-10 -2 -11 8q-11 50 -59 50q-29 0 -45 -18.5t-16 -51.5
v-156q0 -6 6 -6h119q10 0 10 -10v-64q0 -10 -10 -10h-119q-6 0 -6 -6v-59q0 -73 -23 -108v-2h242q10 0 10 -10v-80q0 -10 -10 -10z" />
    <glyph glyph-name="currency" unicode="&#xa4;" 
d="M515 145l-53 -54q-7 -7 -14 0l-59 59q-49 -30 -108 -30t-108 30l-58 -58q-6 -6 -14 0l-53 54q-7 7 0 14l58 59q-27 48 -27 104q0 59 28 105l-59 60q-6 6 0 14l53 54q8 6 14 0l59 -59q50 29 107 29t107 -29l59 59q7 7 14 0l53 -54q6 -8 0 -14l-59 -59q29 -50 29 -106
q0 -58 -28 -105l59 -59q6 -6 0 -14zM201 241q31 -33 80 -33t80 33q32 34 32 82t-32 82q-31 33 -80 33t-80 -33q-31 -32 -31 -82t31 -82z" />
    <glyph glyph-name="yen" unicode="&#xa5;" 
d="M324 0h-92q-10 0 -10 10v121q0 6 -6 6h-122q-10 0 -10 10v58q0 10 10 10h122q6 0 6 6v41q0 6 -6 6h-122q-10 0 -10 10v58q0 10 10 10h99v2l-151 322q-4 10 7 10h98q10 0 13 -10l118 -278h3l116 278q3 10 13 10h97q11 0 7 -10l-151 -322v-2h98q10 0 10 -10v-58
q0 -10 -10 -10h-121q-6 0 -6 -6v-41q0 -6 6 -6h121q10 0 10 -10v-58q0 -10 -10 -10h-121q-6 0 -6 -6v-121q0 -10 -10 -10z" />
    <glyph glyph-name="brokenbar" unicode="&#xa6;" horiz-adv-x="330" 
d="M201 388h-72q-10 0 -10 10v332q0 10 10 10h72q10 0 10 -10v-332q0 -10 -10 -10zM201 -84h-72q-10 0 -10 10v336q0 10 10 10h72q10 0 10 -10v-336q0 -10 -10 -10z" />
    <glyph glyph-name="section" unicode="&#xa7;" horiz-adv-x="579" 
d="M287 -191q-80 0 -126 37t-52 99q-2 9 6 11l82 17q9 2 10 -7q9 -67 78 -67q36 0 56 18.5t20 49.5q0 39 -27 61.5t-92 37.5q-149 36 -149 186q0 53 25 95t68 62v1q-68 39 -68 124q0 65 49 111t125 46q80 0 126 -41q46 -40 49 -96q0 -9 -7 -10l-81 -17q-10 -1 -10 7
q-4 31 -23.5 49t-51.5 18q-33 0 -52.5 -18t-19.5 -49q0 -38 26 -59t90 -37q148 -37 148 -186q0 -52 -26 -95.5t-67 -61.5v-1q39 -21 55.5 -51t16.5 -81q0 -64 -50 -108q-50 -45 -128 -45zM290 156q42 0 67 25.5t25 70.5t-25 70.5t-67 25.5q-43 0 -68 -25.5t-25 -70.5
t25 -70.5t68 -25.5z" />
    <glyph glyph-name="dieresis" unicode="&#xa8;" horiz-adv-x="422" 
d="M348 573h-77q-10 0 -10 10v87q0 10 10 10h77q10 0 10 -10v-87q0 -10 -10 -10zM152 573h-77q-10 0 -10 10v87q0 10 10 10h77q10 0 10 -10v-87q0 -10 -10 -10z" />
    <glyph glyph-name="copyright" unicode="&#xa9;" horiz-adv-x="826" 
d="M663 90q-101 -101 -250 -101t-250 101q-101 103 -101 250q0 148 101 249q101 102 250 102t250 -102q101 -101 101 -249q0 -147 -101 -250zM219 143q78 -78 194 -78q117 0 193 78q78 79 78 197t-78 196q-76 79 -193 79q-116 0 -194 -79q-77 -79 -77 -196t77 -197zM424 143
q-126 0 -161 108q-11 36 -11 89t11 89q35 108 161 108q82 0 130 -56q6 -7 -1 -14l-46 -41q-7 -6 -14 1q-30 33 -68 33q-59 0 -79 -54q-6 -18 -6 -66t6 -66q19 -54 79 -54q38 0 68 33q7 7 14 1l46 -41q7 -7 1 -14q-48 -56 -130 -56z" />
    <glyph glyph-name="ordfeminine" unicode="&#xaa;" horiz-adv-x="347" 
d="M295 392h-64q-10 0 -10 10v13h-2q-25 -28 -83 -28q-46 0 -74 22.5t-28 63.5q0 97 126 97h53q6 0 6 6v7q0 31 -61 31q-37 0 -65 -15q-9 -5 -14 3l-27 47q-5 9 3 14q41 25 114 25q74 0 105 -24t31 -79v-183q0 -10 -10 -10zM160 455q59 0 59 41v7q0 6 -6 6h-46
q-48 0 -48 -28q0 -26 41 -26z" />
    <glyph glyph-name="guillemotleft" unicode="&#xab;" horiz-adv-x="542" 
d="M473 52l-204 205q-7 7 0 14l204 205q3 3 6.5 1.5t3.5 -5.5v-96q0 -11 -10 -21l-87 -87q-4 -4 0 -8l87 -87q10 -10 10 -21v-96q0 -4 -3.5 -5.5t-6.5 1.5zM246 52l-204 205q-7 7 0 14l204 205q3 3 6.5 1.5t3.5 -5.5v-96q0 -11 -10 -21l-87 -87q-4 -4 0 -8l87 -87
q10 -10 10 -21v-96q0 -4 -3.5 -5.5t-6.5 1.5z" />
    <glyph glyph-name="logicalnot" unicode="&#xac;" 
d="M484 92h-81q-10 0 -10 10v119q0 6 -6 6h-322q-10 0 -10 10v78q0 10 10 10h419q10 0 10 -10v-213q0 -10 -10 -10z" />
    <glyph glyph-name="uni00AD" unicode="&#xad;" horiz-adv-x="385" 
d="M330 216h-275q-10 0 -10 10v79q0 10 10 10h275q10 0 10 -10v-79q0 -10 -10 -10z" />
    <glyph glyph-name="registered" unicode="&#xae;" horiz-adv-x="447" 
d="M32 493q0 80 55 135q56 56 136 56t136 -56q55 -55 55 -135q0 -82 -55 -137t-136 -55t-136 55t-55 137zM373 493q0 65 -43 108q-44 44 -107 44t-107 -44q-43 -43 -43 -108q0 -67 43 -110t107 -43t107 43t43 110zM185 388h-34q-7 0 -7 7v198q0 7 7 7h83q37 0 57.5 -17
t20.5 -48q0 -44 -40 -60l42 -80q4 -7 -5 -7h-36q-6 0 -9 7l-39 74h-29q-4 0 -4 -4v-70q0 -7 -7 -7zM196 511h38q32 0 32 24t-32 24h-38q-4 0 -4 -4v-40q0 -4 4 -4z" />
    <glyph glyph-name="overscore" unicode="&#xaf;" horiz-adv-x="422" 
d="M342 587h-263q-10 0 -10 10v61q0 10 10 10h263q10 0 10 -10v-61q0 -10 -10 -10z" />
    <glyph glyph-name="degree" unicode="&#xb0;" horiz-adv-x="465" 
d="M233 395q-64 0 -106 42q-42 43 -42 106t42 105q42 43 106 43q62 0 104 -43q43 -42 43 -105t-43 -106q-42 -42 -104 -42zM233 460q34 0 56.5 24t22.5 59q0 36 -22.5 59.5t-56.5 23.5q-35 0 -57.5 -23.5t-22.5 -59.5t22.5 -59.5t57.5 -23.5z" />
    <glyph glyph-name="plusminus" unicode="&#xb1;" 
d="M315 157h-81q-10 0 -10 10v154q0 6 -6 6h-153q-10 0 -10 10v78q0 10 10 10h153q6 0 6 6v154q0 10 10 10h81q10 0 10 -10v-154q0 -6 6 -6h153q10 0 10 -10v-78q0 -10 -10 -10h-153q-6 0 -6 -6v-154q0 -10 -10 -10zM484 0h-419q-10 0 -10 10v79q0 10 10 10h419q10 0 10 -10
v-79q0 -10 -10 -10z" />
    <glyph glyph-name="twosuperior" unicode="&#xb2;" horiz-adv-x="349" 
d="M298 430h-245q-10 0 -10 10v57q0 8 6 14l144 158q27 29 27 55q0 43 -43 43q-41 0 -49 -42q-1 -10 -11 -8l-65 14q-10 1 -8 11q4 36 40 69q35 33 94 33q57 0 93.5 -34t36.5 -86q0 -50 -44 -100l-109 -116v-1h143q10 0 10 -10v-57q0 -10 -10 -10z" />
    <glyph glyph-name="threesuperior" unicode="&#xb3;" horiz-adv-x="349" 
d="M178 422q-55 0 -92 23t-48 68q-1 12 7 13l64 16q7 1 12 -8q17 -35 55 -35q23 0 37.5 14t14.5 36q0 23 -15 36.5t-42 13.5h-20q-10 0 -10 10v57q0 10 10 10h15q52 0 52 45q0 46 -46 46q-34 0 -48 -29q-4 -7 -13 -6l-60 14q-9 1 -7 12q9 39 44 62.5t86 23.5q62 0 97 -31
t35 -85q0 -50 -41 -83v-1q20 -9 35.5 -35t15.5 -58q0 -59 -37.5 -94t-100.5 -35z" />
    <glyph glyph-name="acute" unicode="&#xb4;" horiz-adv-x="422" 
d="M196 555h-68q-10 0 -6 10l75 125q6 10 18 10h91q5 0 6.5 -3t-1.5 -7l-95 -125q-9 -10 -20 -10z" />
    <glyph glyph-name="mu" unicode="&#xb5;" horiz-adv-x="579" 
d="M379 56h-1q-36 -67 -118 -67q-52 0 -73 30h-2v-189q0 -10 -10 -10h-92q-10 0 -10 10v642q0 10 10 10h92q10 0 10 -10v-279q0 -48 24 -76t66 -28t67.5 29t25.5 75v279q0 10 10 10h92q10 0 10 -10v-333q0 -28 5.5 -36.5t23.5 -8.5q10 0 10 -10v-80q0 -10 -10 -10h-25
q-49 0 -72.5 14t-32.5 48z" />
    <glyph glyph-name="paragraph" unicode="&#xb6;" horiz-adv-x="634" 
d="M537 -180h-77q-10 0 -10 10v750q0 6 -6 6h-71q-6 0 -6 -6v-750q0 -10 -10 -10h-77q-10 0 -10 10v428q-88 4 -144 64q-54 60 -54 147q0 91 60 151t165 60h240q10 0 10 -10v-840q0 -10 -10 -10z" />
    <glyph glyph-name="middot" unicode="&#xb7;" horiz-adv-x="252" 
d="M176 204h-100q-10 0 -10 10v102q0 10 10 10h100q10 0 10 -10v-102q0 -10 -10 -10z" />
    <glyph glyph-name="cedilla" unicode="&#xb8;" horiz-adv-x="422" 
d="M227 -155h-78q-10 0 -7 10l59 145q4 10 13 10h68q10 0 7 -10l-46 -145q-3 -10 -16 -10z" />
    <glyph glyph-name="onesuperior" unicode="&#xb9;" horiz-adv-x="349" 
d="M233 430h-67q-10 0 -10 10v294h-2l-63 -41q-4 -2 -7 0t-3 7v72q0 10 8 15l62 42q10 7 17 7h65q10 0 10 -10v-386q0 -10 -10 -10z" />
    <glyph glyph-name="ordmasculine" unicode="&#xba;" horiz-adv-x="356" 
d="M41 471q-9 26 -9 65q0 40 9 65q29 87 137 87t137 -87q9 -25 9 -65q0 -39 -9 -65q-29 -87 -137 -87t-137 87zM178 463q36 0 48 33q12 40 0 80q-12 33 -48 33q-37 0 -49 -33q-12 -40 0 -80q12 -33 49 -33z" />
    <glyph glyph-name="guillemotright" unicode="&#xbb;" horiz-adv-x="542" 
d="M507 257l-204 -205q-3 -3 -6.5 -1.5t-3.5 5.5v96q0 11 10 21l87 87q4 4 0 8l-87 87q-10 10 -10 21v96q0 4 3.5 5.5t6.5 -1.5l204 -205q7 -7 0 -14zM280 257l-204 -205q-3 -3 -6.5 -1.5t-3.5 5.5v96q0 11 10 21l87 87q4 4 0 8l-87 87q-10 10 -10 21v96q0 4 3.5 5.5
t6.5 -1.5l204 -205q7 -7 0 -14z" />
    <glyph glyph-name="onequarter" unicode="&#xbc;" horiz-adv-x="841" 
d="M707 0h-64q-10 0 -10 10v44q0 6 -6 6h-162q-10 0 -10 10v55q0 8 4 15l124 256q4 10 14 10h72q10 0 6 -10l-122 -260v-1h74q6 0 6 6v82q0 10 10 10h64q10 0 10 -10v-82q0 -6 6 -6h17q10 0 10 -10v-55q0 -10 -10 -10h-17q-6 0 -6 -6v-44q0 -10 -10 -10zM239 -11h-66
q-11 0 -5 10l395 682q6 10 16 10h65q12 0 6 -10l-395 -682q-6 -10 -16 -10zM243 274h-67q-10 0 -10 10v294h-2l-63 -41q-4 -2 -7 0t-3 7v72q0 10 8 15l62 42q10 7 17 7h65q10 0 10 -10v-386q0 -10 -10 -10z" />
    <glyph glyph-name="onehalf" unicode="&#xbd;" horiz-adv-x="881" 
d="M780 0h-245q-10 0 -10 10v57q0 8 6 14l144 158q27 29 27 55q0 43 -43 43q-41 0 -49 -42q-1 -10 -11 -8l-65 14q-10 1 -8 11q4 36 40 69q34 33 94 33q57 0 93.5 -34t36.5 -86q0 -50 -44 -100l-109 -116v-1h143q10 0 10 -10v-57q0 -10 -10 -10zM239 -11h-66q-11 0 -5 10
l395 682q6 10 16 10h65q12 0 6 -10l-395 -682q-6 -10 -16 -10zM243 274h-67q-10 0 -10 10v294h-2l-63 -41q-4 -2 -7 0t-3 7v72q0 10 8 15l62 42q10 7 17 7h65q10 0 10 -10v-386q0 -10 -10 -10z" />
    <glyph glyph-name="threequarters" unicode="&#xbe;" horiz-adv-x="914" 
d="M782 0h-64q-10 0 -10 10v44q0 6 -6 6h-162q-10 0 -10 10v55q0 8 4 15l124 256q4 10 14 10h72q10 0 6 -10l-122 -260v-1h74q6 0 6 6v82q0 10 10 10h64q10 0 10 -10v-82q0 -6 6 -6h17q10 0 10 -10v-55q0 -10 -10 -10h-17q-6 0 -6 -6v-44q0 -10 -10 -10zM233 266
q-55 0 -92 23t-48 68q-1 12 7 13l64 16q7 1 12 -8q17 -35 55 -35q23 0 37.5 14t14.5 36q0 23 -15 36.5t-42 13.5h-20q-10 0 -10 10v57q0 10 10 10h15q52 0 52 45q0 46 -46 46q-33 0 -48 -29q-4 -7 -13 -6l-60 14q-9 1 -7 12q9 39 44 62.5t86 23.5q62 0 97 -31t35 -85
q0 -50 -41 -83v-1q20 -9 35.5 -35t15.5 -58q0 -59 -37.5 -94t-100.5 -35zM316 -11h-66q-11 0 -5 10l395 682q6 10 16 10h65q12 0 6 -10l-395 -682q-6 -10 -16 -10z" />
    <glyph glyph-name="questiondown" unicode="&#xbf;" horiz-adv-x="464" 
d="M194 292h93q10 0 10 -10v-41q0 -48 -26 -85l-79 -108q-34 -44 -34 -82q0 -33 21.5 -54t56.5 -21q71 0 85 80q1 10 11 8l90 -14q10 -1 8 -12q-12 -76 -64.5 -119t-133.5 -43q-84 0 -136 49t-52 125q0 62 41 117l79 108q20 26 20 63v29q0 10 10 10zM301 472v-102
q0 -10 -10 -10h-100q-10 0 -10 10v102q0 10 10 10h100q10 0 10 -10z" />
    <glyph glyph-name="Agrave" unicode="&#xc0;" horiz-adv-x="617" 
d="M21 10l233 660q3 10 13 10h92q10 0 13 -10l230 -660q3 -10 -7 -10h-98q-10 0 -13 10l-45 132h-256l-45 -132q-3 -10 -13 -10h-97q-10 0 -7 10zM310 511l-91 -264h184l-90 264h-3zM345 761h-72q-10 0 -18 8l-116 109q-4 4 -2.5 7t6.5 3h98q12 0 19 -10l89 -107
q3 -4 1.5 -7t-5.5 -3z" />
    <glyph glyph-name="Aacute" unicode="&#xc1;" horiz-adv-x="617" 
d="M21 10l233 660q3 10 13 10h92q10 0 13 -10l230 -660q3 -10 -7 -10h-98q-10 0 -13 10l-45 132h-256l-45 -132q-3 -10 -13 -10h-97q-10 0 -7 10zM310 511l-91 -264h184l-90 264h-3zM350 761h-71q-4 0 -5.5 3t1.5 7l88 107q7 10 19 10h98q5 0 7 -3t-2 -7l-117 -109
q-8 -8 -18 -8z" />
    <glyph glyph-name="Acircumflex" unicode="&#xc2;" horiz-adv-x="617" 
d="M21 10l233 660q3 10 13 10h92q10 0 13 -10l230 -660q3 -10 -7 -10h-98q-10 0 -13 10l-45 132h-256l-45 -132q-3 -10 -13 -10h-97q-10 0 -7 10zM310 511l-91 -264h184l-90 264h-3zM453 753h-63q-11 0 -21 10l-57 59h-2l-57 -59q-10 -10 -21 -10h-63q-4 0 -5.5 3t1.5 7
l98 125q7 10 18 10h60q11 0 18 -10l98 -125q3 -4 1.5 -7t-5.5 -3z" />
    <glyph glyph-name="Atilde" unicode="&#xc3;" horiz-adv-x="617" 
d="M21 10l233 660q3 10 13 10h92q10 0 13 -10l230 -660q3 -10 -7 -10h-98q-10 0 -13 10l-45 132h-256l-45 -132q-3 -10 -13 -10h-97q-10 0 -7 10zM310 511l-91 -264h184l-90 264h-3zM370 757q-29 0 -67 20q-33 18 -56 18q-30 0 -67 -31q-9 -8 -9 2v61q0 9 8 19q31 34 72 34
q29 0 67 -20q33 -18 57 -18q29 0 66 31q9 8 9 -2v-61q0 -9 -8 -19q-31 -34 -72 -34z" />
    <glyph glyph-name="Adieresis" unicode="&#xc4;" horiz-adv-x="617" 
d="M21 10l233 660q3 10 13 10h92q10 0 13 -10l230 -660q3 -10 -7 -10h-98q-10 0 -13 10l-45 132h-256l-45 -132q-3 -10 -13 -10h-97q-10 0 -7 10zM310 511l-91 -264h184l-90 264h-3zM447 769h-73q-10 0 -10 10v87q0 10 10 10h73q10 0 10 -10v-87q0 -10 -10 -10zM247 769h-73
q-10 0 -10 10v87q0 10 10 10h73q10 0 10 -10v-87q0 -10 -10 -10z" />
    <glyph glyph-name="Aring" unicode="&#xc5;" horiz-adv-x="617" 
d="M21 10l233 660q3 10 13 10h92q10 0 13 -10l230 -660q3 -10 -7 -10h-98q-10 0 -13 10l-45 132h-256l-45 -132q-3 -10 -13 -10h-97q-10 0 -7 10zM310 511l-91 -264h184l-90 264h-3zM382 749q-28 -28 -71 -28t-71 28t-28 71t28 71q29 29 71 29t71 -29q28 -28 28 -71t-28 -71
zM276 783q14 -14 35 -14t35 14q14 15 14 37t-14 36q-14 15 -35 15t-35 -15q-14 -14 -14 -36t14 -37z" />
    <glyph glyph-name="AE" unicode="&#xc6;" horiz-adv-x="926" 
d="M872 0h-426q-10 0 -10 10v126q0 6 -6 6h-209l-65 -132q-4 -10 -13 -10h-112q-11 0 -7 10l334 660q4 10 14 10h500q10 0 10 -10v-86q0 -10 -10 -10h-312q-6 0 -6 -6v-166q0 -6 6 -6h263q10 0 10 -10v-86q0 -10 -10 -10h-263q-6 0 -6 -6v-172q0 -6 6 -6h312q10 0 10 -10
v-86q0 -10 -10 -10zM436 574h-2l-161 -327h157q6 0 6 6v321z" />
    <glyph glyph-name="Ccedilla" unicode="&#xc7;" horiz-adv-x="575" 
d="M288 -155h-78q-10 0 -7 10l55 137q-141 27 -185 164q-18 54 -18 184t18 184q26 81 87 124t149 43q80 0 140 -38.5t90 -107.5q3 -9 -5 -12l-85 -41q-9 -4 -13 5q-40 88 -127 88q-91 0 -122 -90q-12 -37 -12 -155t12 -155q31 -90 122 -90q87 0 127 88q4 9 13 5l85 -41
q8 -3 5 -12q-55 -124 -192 -144l-43 -136q-3 -10 -16 -10z" />
    <glyph glyph-name="Egrave" unicode="&#xc8;" horiz-adv-x="570" 
d="M75 10v660q0 10 10 10h426q10 0 10 -10v-86q0 -10 -10 -10h-312q-6 0 -6 -6v-166q0 -6 6 -6h263q10 0 10 -10v-86q0 -10 -10 -10h-263q-6 0 -6 -6v-172q0 -6 6 -6h312q10 0 10 -10v-86q0 -10 -10 -10h-426q-10 0 -10 10zM354 761h-72q-10 0 -18 8l-116 109q-4 4 -2.5 7
t6.5 3h98q12 0 19 -10l89 -107q3 -4 1.5 -7t-5.5 -3z" />
    <glyph glyph-name="Eacute" unicode="&#xc9;" horiz-adv-x="570" 
d="M75 10v660q0 10 10 10h426q10 0 10 -10v-86q0 -10 -10 -10h-312q-6 0 -6 -6v-166q0 -6 6 -6h263q10 0 10 -10v-86q0 -10 -10 -10h-263q-6 0 -6 -6v-172q0 -6 6 -6h312q10 0 10 -10v-86q0 -10 -10 -10h-426q-10 0 -10 10zM304 761h-71q-12 0 -4 10l88 107q7 10 19 10h98
q5 0 6.5 -3t-1.5 -7l-117 -109q-8 -8 -18 -8z" />
    <glyph glyph-name="Ecircumflex" unicode="&#xca;" horiz-adv-x="570" 
d="M75 10v660q0 10 10 10h426q10 0 10 -10v-86q0 -10 -10 -10h-312q-6 0 -6 -6v-166q0 -6 6 -6h263q10 0 10 -10v-86q0 -10 -10 -10h-263q-6 0 -6 -6v-172q0 -6 6 -6h312q10 0 10 -10v-86q0 -10 -10 -10h-426q-10 0 -10 10zM441 753h-63q-11 0 -21 10l-57 59h-2l-57 -59
q-10 -10 -21 -10h-63q-12 0 -4 10l98 125q7 10 18 10h60q11 0 18 -10l98 -125q8 -10 -4 -10z" />
    <glyph glyph-name="Edieresis" unicode="&#xcb;" horiz-adv-x="570" 
d="M75 10v660q0 10 10 10h426q10 0 10 -10v-86q0 -10 -10 -10h-312q-6 0 -6 -6v-166q0 -6 6 -6h263q10 0 10 -10v-86q0 -10 -10 -10h-263q-6 0 -6 -6v-172q0 -6 6 -6h312q10 0 10 -10v-86q0 -10 -10 -10h-426q-10 0 -10 10zM433 769h-73q-10 0 -10 10v87q0 10 10 10h73
q10 0 10 -10v-87q0 -10 -10 -10zM233 769h-73q-10 0 -10 10v87q0 10 10 10h73q10 0 10 -10v-87q0 -10 -10 -10z" />
    <glyph glyph-name="Igrave" unicode="&#xcc;" horiz-adv-x="268" 
d="M78 10v660q0 10 10 10h98q10 0 10 -10v-660q0 -10 -10 -10h-98q-10 0 -10 10zM172 761h-72q-10 0 -18 8l-116 109q-4 4 -2.5 7t6.5 3h98q12 0 19 -10l89 -107q8 -10 -4 -10z" />
    <glyph glyph-name="Iacute" unicode="&#xcd;" horiz-adv-x="268" 
d="M75 10v660q0 10 10 10h98q10 0 10 -10v-660q0 -10 -10 -10h-98q-10 0 -10 10zM173 761h-71q-4 0 -5.5 3t1.5 7l88 107q7 10 19 10h98q5 0 6.5 -3t-1.5 -7l-117 -109q-8 -8 -18 -8z" />
    <glyph glyph-name="Icircumflex" unicode="&#xce;" horiz-adv-x="268" 
d="M278 753h-63q-11 0 -21 10l-57 59h-2l-57 -59q-10 -10 -21 -10h-63q-12 0 -4 10l98 125q7 10 18 10h60q11 0 18 -10l98 -125q8 -10 -4 -10zM76 10v660q0 10 10 10h98q10 0 10 -10v-660q0 -10 -10 -10h-98q-10 0 -10 10z" />
    <glyph glyph-name="Idieresis" unicode="&#xcf;" horiz-adv-x="268" 
d="M75 10v660q0 10 10 10h98q10 0 10 -10v-660q0 -10 -10 -10h-98q-10 0 -10 10zM271 769h-73q-10 0 -10 10v87q0 10 10 10h73q10 0 10 -10v-87q0 -10 -10 -10zM71 769h-73q-10 0 -10 10v87q0 10 10 10h73q10 0 10 -10v-87q0 -10 -10 -10z" />
    <glyph glyph-name="Eth" unicode="&#xd0;" horiz-adv-x="625" 
d="M328 0h-243q-10 0 -10 10v282q0 6 -6 6h-26q-10 0 -10 10v70q0 10 10 10h26q6 0 6 6v276q0 10 10 10h243q178 0 227 -151q17 -54 17 -189t-17 -189q-49 -151 -227 -151zM199 106h101q112 0 141 86q12 33 12 148t-12 148q-29 86 -141 86h-101q-6 0 -6 -6v-174q0 -6 6 -6
h97q10 0 10 -10v-70q0 -10 -10 -10h-97q-6 0 -6 -6v-180q0 -6 6 -6z" />
    <glyph glyph-name="Ntilde" unicode="&#xd1;" horiz-adv-x="657" 
d="M75 10v660q0 10 10 10h92q11 0 17 -10l277 -469h4v469q0 10 10 10h87q10 0 10 -10v-660q0 -10 -10 -10h-91q-11 0 -17 10l-278 468h-4v-468q0 -10 -10 -10h-87q-10 0 -10 10zM387 757q-29 0 -67 20q-33 18 -56 18q-30 0 -67 -31q-9 -8 -9 2v61q0 9 8 19q31 34 72 34
q29 0 67 -20q33 -18 57 -18q29 0 66 31q9 8 9 -2v-61q0 -9 -8 -19q-31 -34 -72 -34z" />
    <glyph glyph-name="Ograve" unicode="&#xd2;" horiz-adv-x="627" 
d="M313 -11q-90 0 -152 42t-88 122q-18 54 -18 187t18 187q26 80 88 122t152 42t152.5 -42t88.5 -122q18 -54 18 -187t-18 -187q-26 -80 -88.5 -122t-152.5 -42zM313 95q95 0 127 89q12 38 12 156t-12 156q-32 89 -127 89q-94 0 -126 -89q-12 -38 -12 -156t12 -156
q32 -89 126 -89zM366 761h-72q-10 0 -18 8l-116 109q-4 4 -2.5 7t6.5 3h98q12 0 19 -10l89 -107q3 -4 1.5 -7t-5.5 -3z" />
    <glyph glyph-name="Oacute" unicode="&#xd3;" horiz-adv-x="627" 
d="M313 -11q-90 0 -152 42t-88 122q-18 54 -18 187t18 187q26 80 88 122t152 42t152.5 -42t88.5 -122q18 -54 18 -187t-18 -187q-26 -80 -88.5 -122t-152.5 -42zM313 95q95 0 127 89q12 38 12 156t-12 156q-32 89 -127 89q-94 0 -126 -89q-12 -38 -12 -156t12 -156
q32 -89 126 -89zM332 761h-71q-12 0 -4 10l88 107q7 10 19 10h98q5 0 6.5 -3t-1.5 -7l-117 -109q-8 -8 -18 -8z" />
    <glyph glyph-name="Ocircumflex" unicode="&#xd4;" horiz-adv-x="627" 
d="M313 -11q-90 0 -152 42t-88 122q-18 54 -18 187t18 187q26 80 88 122t152 42t152.5 -42t88.5 -122q18 -54 18 -187t-18 -187q-26 -80 -88.5 -122t-152.5 -42zM313 95q95 0 127 89q12 38 12 156t-12 156q-32 89 -127 89q-94 0 -126 -89q-12 -38 -12 -156t12 -156
q32 -89 126 -89zM455 753h-63q-11 0 -21 10l-57 59h-2l-57 -59q-10 -10 -21 -10h-63q-12 0 -4 10l98 125q7 10 18 10h60q11 0 18 -10l98 -125q8 -10 -4 -10z" />
    <glyph glyph-name="Otilde" unicode="&#xd5;" horiz-adv-x="627" 
d="M313 -11q-90 0 -152 42t-88 122q-18 54 -18 187t18 187q26 80 88 122t152 42t152.5 -42t88.5 -122q18 -54 18 -187t-18 -187q-26 -80 -88.5 -122t-152.5 -42zM313 95q95 0 127 89q12 38 12 156t-12 156q-32 89 -127 89q-94 0 -126 -89q-12 -38 -12 -156t12 -156
q32 -89 126 -89zM372 757q-29 0 -67 20q-33 18 -56 18q-30 0 -67 -31q-9 -8 -9 2v61q0 9 8 19q31 34 72 34q29 0 67 -20q33 -18 57 -18q29 0 66 31q9 8 9 -2v-61q0 -9 -8 -19q-31 -34 -72 -34z" />
    <glyph glyph-name="Odieresis" unicode="&#xd6;" horiz-adv-x="627" 
d="M313 -11q-90 0 -152 42t-88 122q-18 54 -18 187t18 187q26 80 88 122t152 42t152.5 -42t88.5 -122q18 -54 18 -187t-18 -187q-26 -80 -88.5 -122t-152.5 -42zM313 95q95 0 127 89q12 38 12 156t-12 156q-32 89 -127 89q-94 0 -126 -89q-12 -38 -12 -156t12 -156
q32 -89 126 -89zM449 769h-73q-10 0 -10 10v87q0 10 10 10h73q10 0 10 -10v-87q0 -10 -10 -10zM249 769h-73q-10 0 -10 10v87q0 10 10 10h73q10 0 10 -10v-87q0 -10 -10 -10z" />
    <glyph glyph-name="multiply" unicode="&#xd7;" 
d="M470 141l-53 -54q-7 -7 -14 0l-118 116q-4 4 -8 0l-117 -116q-7 -7 -14 0l-53 54q-7 7 0 14l116 117q4 4 0 8l-116 117q-7 7 0 14l53 54q7 7 14 0l117 -116q5 -5 9 0l117 116q7 7 14 0l53 -54q7 -7 0 -14l-117 -116q-5 -5 0 -9l117 -117q7 -7 0 -14z" />
    <glyph glyph-name="Oslash" unicode="&#xd8;" horiz-adv-x="627" 
d="M129 -30h-63q-11 0 -5 10l57 96q-27 35 -40 77q-18 54 -18 187t18 187q26 80 88 122t152 42q84 0 146 -38l29 48q5 9 15 9h63q11 0 5 -10l-58 -96q27 -37 41 -77q18 -54 18 -187t-18 -187q-26 -80 -88.5 -122t-152.5 -42q-84 0 -146 38l-28 -48q-4 -9 -15 -9zM179 340
q0 -117 10 -151l216 368q-34 28 -87 28q-95 0 -127 -89q-12 -38 -12 -156zM318 95q96 0 128 89q12 38 12 156q0 109 -10 149l-216 -367q33 -27 86 -27z" />
    <glyph glyph-name="Ugrave" unicode="&#xd9;" horiz-adv-x="643" 
d="M321 95q61 0 97 39t36 107v429q0 10 10 10h98q10 0 10 -10v-431q0 -116 -70 -183t-181 -67q-110 0 -180 67t-70 183v431q0 10 10 10h98q10 0 10 -10v-429q0 -68 36 -107t96 -39zM372 761h-72q-10 0 -18 8l-116 109q-4 4 -2.5 7t6.5 3h98q12 0 19 -10l89 -107q3 -4 1.5 -7
t-5.5 -3z" />
    <glyph glyph-name="Uacute" unicode="&#xda;" horiz-adv-x="643" 
d="M321 95q61 0 97 39t36 107v429q0 10 10 10h98q10 0 10 -10v-431q0 -116 -70 -183t-181 -67q-110 0 -180 67t-70 183v431q0 10 10 10h98q10 0 10 -10v-429q0 -68 36 -107t96 -39zM342 761h-71q-12 0 -4 10l88 107q7 10 19 10h98q5 0 6.5 -3t-1.5 -7l-117 -109
q-8 -8 -18 -8z" />
    <glyph glyph-name="Ucircumflex" unicode="&#xdb;" horiz-adv-x="643" 
d="M321 95q61 0 97 39t36 107v429q0 10 10 10h98q10 0 10 -10v-431q0 -116 -70 -183t-181 -67q-110 0 -180 67t-70 183v431q0 10 10 10h98q10 0 10 -10v-429q0 -68 36 -107t96 -39zM463 753h-63q-11 0 -21 10l-57 59h-2l-57 -59q-10 -10 -21 -10h-63q-12 0 -4 10l98 125
q7 10 18 10h60q11 0 18 -10l98 -125q8 -10 -4 -10z" />
    <glyph glyph-name="Udieresis" unicode="&#xdc;" horiz-adv-x="643" 
d="M321 95q61 0 97 39t36 107v429q0 10 10 10h98q10 0 10 -10v-431q0 -116 -70 -183t-181 -67q-110 0 -180 67t-70 183v431q0 10 10 10h98q10 0 10 -10v-429q0 -68 36 -107t96 -39zM458 769h-73q-10 0 -10 10v87q0 10 10 10h73q10 0 10 -10v-87q0 -10 -10 -10zM258 769h-73
q-10 0 -10 10v87q0 10 10 10h73q10 0 10 -10v-87q0 -10 -10 -10z" />
    <glyph glyph-name="Yacute" unicode="&#xdd;" horiz-adv-x="536" 
d="M321 0h-98q-10 0 -10 10v268l-197 392q-4 10 8 10h101q10 0 14 -10l133 -264h3l134 264q4 10 14 10h97q12 0 8 -10l-197 -392v-268q0 -10 -10 -10zM301 761h-71q-4 0 -5.5 3t1.5 7l88 107q7 10 19 10h98q5 0 7 -3t-2 -7l-117 -109q-8 -8 -18 -8z" />
    <glyph glyph-name="Thorn" unicode="&#xde;" horiz-adv-x="598" 
d="M183 0h-98q-10 0 -10 10v660q0 10 10 10h98q10 0 10 -10v-98q0 -6 6 -6h141q101 0 162 -58q62 -59 62 -153q0 -95 -63 -154q-61 -58 -161 -58h-141q-6 0 -6 -6v-127q0 -10 -10 -10zM199 250h134q52 0 82.5 28.5t30.5 76.5t-30.5 76.5t-82.5 28.5h-134q-6 0 -6 -6v-198
q0 -6 6 -6z" />
    <glyph glyph-name="germandbls" unicode="&#xdf;" horiz-adv-x="546" 
d="M313 -3h-29q-10 0 -10 10v79q0 10 10 10h25q55 0 68 40q5 18 5 89q0 72 -6 93q-15 46 -81 46h-11q-10 0 -10 10v80q0 10 10 10h23q67 0 67 63q0 65 -90 65q-52 0 -75.5 -23t-23.5 -75v-484q0 -10 -10 -10h-92q-10 0 -10 10v479q0 202 208 202q99 0 152 -41.5t53 -121.5
q0 -69 -55 -109v-2q37 -19 52 -63q11 -36 11 -129q0 -97 -12 -134q-16 -50 -56.5 -72t-112.5 -22z" />
    <glyph glyph-name="agrave" unicode="&#xe0;" horiz-adv-x="523" 
d="M444 0h-84q-10 0 -10 10v35h-1q-39 -56 -136 -56q-72 0 -117 38.5t-45 108.5q0 76 49.5 114.5t143.5 38.5h98q6 0 6 6v23q0 43 -24.5 61.5t-82.5 18.5q-68 0 -110 -33q-9 -8 -14 2l-37 66q-5 9 2 13q65 47 171 47q108 0 154.5 -39t46.5 -129v-315q0 -10 -10 -10zM241 80
q107 0 107 82v37q0 6 -6 6h-80q-104 0 -104 -65q0 -60 83 -60zM326 555h-67q-11 0 -20 10l-95 125q-3 4 -1.5 7t6.5 3h91q12 0 18 -10l74 -125q4 -10 -6 -10z" />
    <glyph glyph-name="aacute" unicode="&#xe1;" horiz-adv-x="523" 
d="M444 0h-84q-10 0 -10 10v35h-1q-39 -56 -136 -56q-72 0 -117 38.5t-45 108.5q0 76 49.5 114.5t143.5 38.5h98q6 0 6 6v23q0 43 -24.5 61.5t-82.5 18.5q-68 0 -110 -33q-9 -8 -14 2l-37 66q-5 9 2 13q65 47 171 47q108 0 154.5 -39t46.5 -129v-315q0 -10 -10 -10zM241 80
q107 0 107 82v37q0 6 -6 6h-80q-104 0 -104 -65q0 -60 83 -60zM281 555h-68q-10 0 -6 10l75 125q6 10 18 10h91q5 0 6.5 -3t-1.5 -7l-95 -125q-9 -10 -20 -10z" />
    <glyph glyph-name="acircumflex" unicode="&#xe2;" horiz-adv-x="523" 
d="M444 0h-84q-10 0 -10 10v35h-1q-39 -56 -136 -56q-72 0 -117 38.5t-45 108.5q0 76 49.5 114.5t143.5 38.5h98q6 0 6 6v23q0 43 -24.5 61.5t-82.5 18.5q-68 0 -110 -33q-9 -8 -14 2l-37 66q-5 9 2 13q65 47 171 47q108 0 154.5 -39t46.5 -129v-315q0 -10 -10 -10zM241 80
q107 0 107 82v37q0 6 -6 6h-80q-104 0 -104 -65q0 -60 83 -60zM403 555h-63q-11 0 -21 10l-57 59h-2l-57 -59q-10 -10 -21 -10h-63q-12 0 -4 10l98 125q7 10 18 10h60q11 0 18 -10l98 -125q8 -10 -4 -10z" />
    <glyph glyph-name="atilde" unicode="&#xe3;" horiz-adv-x="523" 
d="M444 0h-84q-10 0 -10 10v35h-1q-39 -56 -136 -56q-72 0 -117 38.5t-45 108.5q0 76 49.5 114.5t143.5 38.5h98q6 0 6 6v23q0 43 -24.5 61.5t-82.5 18.5q-68 0 -110 -33q-9 -8 -14 2l-37 66q-5 9 2 13q65 47 171 47q108 0 154.5 -39t46.5 -129v-315q0 -10 -10 -10zM241 80
q107 0 107 82v37q0 6 -6 6h-80q-104 0 -104 -65q0 -60 83 -60zM320 561q-29 0 -67 20q-33 18 -56 18q-30 0 -67 -31q-9 -8 -9 2v61q0 9 8 19q31 34 72 34q29 0 67 -20q33 -18 57 -18q29 0 66 31q9 7 9 -2v-61q0 -9 -8 -19q-31 -34 -72 -34z" />
    <glyph glyph-name="adieresis" unicode="&#xe4;" horiz-adv-x="523" 
d="M444 0h-84q-10 0 -10 10v35h-1q-39 -56 -136 -56q-72 0 -117 38.5t-45 108.5q0 76 49.5 114.5t143.5 38.5h98q6 0 6 6v23q0 43 -24.5 61.5t-82.5 18.5q-68 0 -110 -33q-9 -8 -14 2l-37 66q-5 9 2 13q65 47 171 47q108 0 154.5 -39t46.5 -129v-315q0 -10 -10 -10zM241 80
q107 0 107 82v37q0 6 -6 6h-80q-104 0 -104 -65q0 -60 83 -60zM397 573h-77q-10 0 -10 10v87q0 10 10 10h77q10 0 10 -10v-87q0 -10 -10 -10zM201 573h-77q-10 0 -10 10v87q0 10 10 10h77q10 0 10 -10v-87q0 -10 -10 -10z" />
    <glyph glyph-name="aring" unicode="&#xe5;" horiz-adv-x="523" 
d="M444 0h-84q-10 0 -10 10v35h-1q-39 -56 -136 -56q-72 0 -117 38.5t-45 108.5q0 76 49.5 114.5t143.5 38.5h98q6 0 6 6v23q0 43 -24.5 61.5t-82.5 18.5q-68 0 -110 -33q-9 -8 -14 2l-37 66q-5 9 2 13q65 47 171 47q108 0 154.5 -39t46.5 -129v-315q0 -10 -10 -10zM241 80
q107 0 107 82v37q0 6 -6 6h-80q-104 0 -104 -65q0 -60 83 -60zM337 557q-28 -28 -71 -28t-71 28t-28 72q0 43 28 71q29 29 71 29t71 -29q28 -28 28 -71q0 -44 -28 -72zM231 592q14 -14 35 -14t35 14q14 15 14 37t-14 36q-14 15 -35 15t-35 -15q-14 -14 -14 -36t14 -37z" />
    <glyph glyph-name="ae" unicode="&#xe6;" horiz-adv-x="815" 
d="M560 -11q-115 0 -167 76h-1q-43 -76 -179 -76q-72 0 -117 38.5t-45 108.5q0 76 49.5 114.5t143.5 38.5h98q6 0 6 6v23q0 43 -24.5 61.5t-82.5 18.5q-68 0 -110 -33q-9 -8 -14 2l-37 66q-5 9 2 13q65 47 171 47q119 0 161 -50h2q50 50 139 50q73 0 125 -35.5t72 -97.5
q16 -48 16 -145q0 -10 -11 -10h-297q-6 0 -6 -6q0 -19 7 -37q25 -73 108 -73q71 0 113 46q8 8 15 2l59 -52q7 -6 1 -14q-70 -82 -197 -82zM655 295q0 23 -6 41q-10 29 -35 45.5t-59 16.5q-74 0 -95 -62q-6 -18 -6 -41q0 -6 6 -6h189q6 0 6 6zM241 80q107 0 107 82v37
q0 6 -6 6h-80q-104 0 -104 -65q0 -60 83 -60z" />
    <glyph glyph-name="ccedilla" unicode="&#xe7;" horiz-adv-x="475" 
d="M237 -155h-78q-10 0 -7 10l57 139q-112 22 -147 128q-15 45 -15 119t15 119q21 63 73.5 98t125.5 35q105 0 167 -75q6 -8 -1 -14l-63 -55q-8 -6 -14 2q-38 42 -89 42q-69 0 -90 -63q-10 -29 -10 -89q0 -61 10 -90q21 -62 90 -62q51 0 89 42q6 7 14 1l63 -55q6 -4 1 -14
q-50 -59 -132 -71l-43 -137q-3 -10 -16 -10z" />
    <glyph glyph-name="egrave" unicode="&#xe8;" horiz-adv-x="521" 
d="M265 -11q-75 0 -128 35.5t-73 98.5q-17 54 -17 118q0 71 16 119q20 63 72.5 98t124.5 35q74 0 126 -35t72 -98q16 -48 16 -145q0 -10 -11 -10h-297q-6 0 -6 -6q0 -19 7 -37q25 -73 108 -73q71 0 113 46q8 8 15 2l59 -52q7 -6 1 -14q-70 -82 -198 -82zM361 295q0 23 -6 41
q-10 29 -35 45.5t-59 16.5q-74 0 -95 -62q-6 -18 -6 -41q0 -6 6 -6h189q6 0 6 6zM312 555h-67q-11 0 -20 10l-95 125q-3 4 -1.5 7t6.5 3h91q12 0 18 -10l74 -125q4 -10 -6 -10z" />
    <glyph glyph-name="eacute" unicode="&#xe9;" horiz-adv-x="521" 
d="M265 -11q-75 0 -128 35.5t-73 98.5q-17 54 -17 118q0 71 16 119q20 63 72.5 98t124.5 35q74 0 126 -35t72 -98q16 -48 16 -145q0 -10 -11 -10h-297q-6 0 -6 -6q0 -19 7 -37q25 -73 108 -73q71 0 113 46q8 8 15 2l59 -52q7 -6 1 -14q-70 -82 -198 -82zM361 295q0 23 -6 41
q-10 29 -35 45.5t-59 16.5q-74 0 -95 -62q-6 -18 -6 -41q0 -6 6 -6h189q6 0 6 6zM278 555h-68q-10 0 -6 10l75 125q6 10 18 10h91q5 0 6.5 -3t-1.5 -7l-95 -125q-9 -10 -20 -10z" />
    <glyph glyph-name="ecircumflex" unicode="&#xea;" horiz-adv-x="521" 
d="M402 555h-63q-11 0 -21 10l-57 59h-2l-57 -59q-10 -10 -21 -10h-63q-4 0 -5.5 3t1.5 7l98 125q7 10 18 10h60q11 0 18 -10l98 -125q3 -4 1.5 -7t-5.5 -3zM265 -11q-75 0 -128 35.5t-73 98.5q-17 54 -17 118q0 71 16 119q20 63 72.5 98t124.5 35q74 0 126 -35t72 -98
q16 -48 16 -145q0 -10 -11 -10h-297q-6 0 -6 -6q0 -19 7 -37q25 -73 108 -73q71 0 113 46q8 8 15 2l59 -52q7 -6 1 -14q-70 -82 -198 -82zM361 295q0 23 -6 41q-10 29 -35 45.5t-59 16.5q-74 0 -95 -62q-6 -18 -6 -41q0 -6 6 -6h189q6 0 6 6z" />
    <glyph glyph-name="edieresis" unicode="&#xeb;" horiz-adv-x="521" 
d="M265 -11q-75 0 -128 35.5t-73 98.5q-17 54 -17 118q0 71 16 119q20 63 72.5 98t124.5 35q74 0 126 -35t72 -98q16 -48 16 -145q0 -10 -11 -10h-297q-6 0 -6 -6q0 -19 7 -37q25 -73 108 -73q71 0 113 46q8 8 15 2l59 -52q7 -6 1 -14q-70 -82 -198 -82zM361 295q0 23 -6 41
q-10 29 -35 45.5t-59 16.5q-74 0 -95 -62q-6 -18 -6 -41q0 -6 6 -6h189q6 0 6 6zM396 573h-77q-10 0 -10 10v87q0 10 10 10h77q10 0 10 -10v-87q0 -10 -10 -10zM200 573h-77q-10 0 -10 10v87q0 10 10 10h77q10 0 10 -10v-87q0 -10 -10 -10z" />
    <glyph glyph-name="igrave" unicode="&#xec;" horiz-adv-x="258" 
d="M169 555h-67q-11 0 -20 10l-95 125q-3 4 -1.5 7t6.5 3h91q12 0 18 -10l74 -125q4 -10 -6 -10zM177 0h-92q-10 0 -10 10v462q0 10 10 10h92q10 0 10 -10v-462q0 -10 -10 -10z" />
    <glyph glyph-name="iacute" unicode="&#xed;" horiz-adv-x="258" 
d="M161 555h-68q-10 0 -6 10l75 125q6 10 18 10h91q5 0 6.5 -3t-1.5 -7l-95 -125q-9 -10 -20 -10zM175 0h-92q-10 0 -10 10v462q0 10 10 10h92q10 0 10 -10v-462q0 -10 -10 -10z" />
    <glyph glyph-name="icircumflex" unicode="&#xee;" horiz-adv-x="258" 
d="M272 555h-63q-11 0 -21 10l-57 59h-2l-57 -59q-10 -10 -21 -10h-63q-12 0 -4 10l98 125q7 10 18 10h60q11 0 18 -10l98 -125q8 -10 -4 -10zM176 0h-92q-10 0 -10 10v462q0 10 10 10h92q10 0 10 -10v-462q0 -10 -10 -10z" />
    <glyph glyph-name="idieresis" unicode="&#xef;" horiz-adv-x="258" 
d="M266 573h-77q-10 0 -10 10v87q0 10 10 10h77q10 0 10 -10v-87q0 -10 -10 -10zM70 573h-77q-10 0 -10 10v87q0 10 10 10h77q10 0 10 -10v-87q0 -10 -10 -10zM175 0h-92q-10 0 -10 10v462q0 10 10 10h92q10 0 10 -10v-462q0 -10 -10 -10z" />
    <glyph glyph-name="eth" unicode="&#xf0;" horiz-adv-x="523" 
d="M401 579l-63 -19l24 -32q115 -154 115 -289q0 -69 -15 -116q-21 -63 -74 -98.5t-126 -35.5q-74 0 -126 34.5t-73 98.5q-16 48 -16 103q0 61 15 107q19 60 63.5 93.5t104.5 33.5q39 0 65 -17h2l-63 87l-91 -28q-10 -3 -13 6l-17 58q-3 10 7 13l65 19l-53 73q-2 4 0 7t6 3
h99q11 0 18 -10l31 -42l92 28q10 3 13 -6l17 -58q3 -10 -7 -13zM365 226q0 49 -10 79q-21 62 -93 62t-93 -62q-10 -30 -10 -79q0 -48 10 -78q21 -62 93 -62t93 62q10 30 10 78z" />
    <glyph glyph-name="ntilde" unicode="&#xf1;" horiz-adv-x="548" 
d="M470 0h-92q-10 0 -10 10v278q0 49 -23.5 77t-67.5 28q-42 0 -67 -28.5t-25 -76.5v-278q0 -10 -10 -10h-92q-10 0 -10 10v462q0 10 10 10h92q10 0 10 -10v-35h1q39 56 127 56q75 0 121 -50t46 -129v-304q0 -10 -10 -10zM332 561q-29 0 -67 20q-33 18 -56 18q-30 0 -67 -31
q-9 -8 -9 2v61q0 9 8 19q31 34 72 34q29 0 67 -20q33 -18 57 -18q29 0 66 31q9 7 9 -2v-61q0 -9 -8 -19q-31 -34 -72 -34z" />
    <glyph glyph-name="ograve" unicode="&#xf2;" horiz-adv-x="523" 
d="M262 -11q-74 0 -126.5 35t-72.5 98q-16 48 -16 119t16 119q20 63 72.5 98t126.5 35q73 0 125.5 -35t72.5 -98q16 -48 16 -119t-16 -119q-20 -63 -72.5 -98t-125.5 -35zM262 89q68 0 90 63q10 30 10 89t-10 89q-22 63 -90 63t-91 -63q-10 -30 -10 -89t10 -89
q23 -63 91 -63zM307 555h-67q-11 0 -20 10l-95 125q-3 4 -1.5 7t6.5 3h91q12 0 18 -10l74 -125q4 -10 -6 -10z" />
    <glyph glyph-name="oacute" unicode="&#xf3;" horiz-adv-x="523" 
d="M262 -11q-74 0 -126.5 35t-72.5 98q-16 48 -16 119t16 119q20 63 72.5 98t126.5 35q73 0 125.5 -35t72.5 -98q16 -48 16 -119t-16 -119q-20 -63 -72.5 -98t-125.5 -35zM262 89q68 0 90 63q10 30 10 89t-10 89q-22 63 -90 63t-91 -63q-10 -30 -10 -89t10 -89
q23 -63 91 -63zM284 555h-68q-10 0 -6 10l75 125q6 10 18 10h91q5 0 6.5 -3t-1.5 -7l-95 -125q-9 -10 -20 -10z" />
    <glyph glyph-name="ocircumflex" unicode="&#xf4;" horiz-adv-x="523" 
d="M262 -11q-74 0 -126.5 35t-72.5 98q-16 48 -16 119t16 119q20 63 72.5 98t126.5 35q73 0 125.5 -35t72.5 -98q16 -48 16 -119t-16 -119q-20 -63 -72.5 -98t-125.5 -35zM262 89q68 0 90 63q10 30 10 89t-10 89q-22 63 -90 63t-91 -63q-10 -30 -10 -89t10 -89
q23 -63 91 -63zM403 555h-63q-11 0 -21 10l-57 59h-2l-57 -59q-10 -10 -21 -10h-63q-12 0 -4 10l98 125q7 10 18 10h60q11 0 18 -10l98 -125q8 -10 -4 -10z" />
    <glyph glyph-name="otilde" unicode="&#xf5;" horiz-adv-x="523" 
d="M262 -11q-74 0 -126.5 35t-72.5 98q-16 48 -16 119t16 119q20 63 72.5 98t126.5 35q73 0 125.5 -35t72.5 -98q16 -48 16 -119t-16 -119q-20 -63 -72.5 -98t-125.5 -35zM262 89q68 0 90 63q10 30 10 89t-10 89q-22 63 -90 63t-91 -63q-10 -30 -10 -89t10 -89
q23 -63 91 -63zM320 561q-29 0 -67 20q-33 18 -56 18q-30 0 -67 -31q-9 -8 -9 2v61q0 9 8 19q31 34 72 34q29 0 67 -20q33 -18 57 -18q29 0 66 31q9 7 9 -2v-61q0 -9 -8 -19q-31 -34 -72 -34z" />
    <glyph glyph-name="odieresis" unicode="&#xf6;" horiz-adv-x="523" 
d="M262 -11q-74 0 -126.5 35t-72.5 98q-16 48 -16 119t16 119q20 63 72.5 98t126.5 35q73 0 125.5 -35t72.5 -98q16 -48 16 -119t-16 -119q-20 -63 -72.5 -98t-125.5 -35zM262 89q68 0 90 63q10 30 10 89t-10 89q-22 63 -90 63t-91 -63q-10 -30 -10 -89t10 -89
q23 -63 91 -63zM397 573h-77q-10 0 -10 10v87q0 10 10 10h77q10 0 10 -10v-87q0 -10 -10 -10zM201 573h-77q-10 0 -10 10v87q0 10 10 10h77q10 0 10 -10v-87q0 -10 -10 -10z" />
    <glyph glyph-name="divide" unicode="&#xf7;" 
d="M321 404q-19 -19 -47 -19t-47 19q-19 20 -19 48t19 47q19 20 47 20t47 -20q20 -19 20 -47t-20 -48zM484 227h-419q-10 0 -10 10v78q0 10 10 10h419q10 0 10 -10v-78q0 -10 -10 -10zM321 52q-19 -19 -47 -19t-47 19q-19 20 -19 48t19 47q19 20 47 20t47 -20q20 -19 20 -47
t-20 -48z" />
    <glyph glyph-name="oslash" unicode="&#xf8;" horiz-adv-x="523" 
d="M266 -11q-72 0 -122 32l-29 -41q-7 -10 -18 -10h-39q-11 0 -5 10l52 74q-26 29 -38 68q-16 48 -16 119t16 119q20 63 72.5 98t126.5 35q68 0 121 -32l29 41q7 10 19 10h38q11 0 5 -10l-52 -75q23 -26 38 -67q16 -48 16 -119t-16 -119q-20 -63 -72.5 -98t-125.5 -35z
M163 241q0 -60 10 -90l153 225q-24 18 -60 18q-70 0 -93 -63q-10 -31 -10 -90zM266 88q70 0 92 63q10 30 10 90q0 59 -10 90l-153 -225q24 -18 61 -18z" />
    <glyph glyph-name="ugrave" unicode="&#xf9;" horiz-adv-x="544" 
d="M461 0h-92q-10 0 -10 10v35h-1q-44 -56 -125 -56q-75 0 -120.5 50t-45.5 129v304q0 10 10 10h92q10 0 10 -10v-278q0 -49 23 -77t67 -28q42 0 66 28t24 76v279q0 10 10 10h92q10 0 10 -10v-462q0 -10 -10 -10zM318 555h-67q-11 0 -20 10l-95 125q-3 4 -1.5 7t6.5 3h91
q12 0 18 -10l74 -125q4 -10 -6 -10z" />
    <glyph glyph-name="uacute" unicode="&#xfa;" horiz-adv-x="544" 
d="M461 0h-92q-10 0 -10 10v35h-1q-44 -56 -125 -56q-75 0 -120.5 50t-45.5 129v304q0 10 10 10h92q10 0 10 -10v-278q0 -49 23 -77t67 -28q42 0 66 28t24 76v279q0 10 10 10h92q10 0 10 -10v-462q0 -10 -10 -10zM296 555h-68q-10 0 -6 10l75 125q6 10 18 10h91q5 0 6.5 -3
t-1.5 -7l-95 -125q-9 -10 -20 -10z" />
    <glyph glyph-name="ucircumflex" unicode="&#xfb;" horiz-adv-x="544" 
d="M461 0h-92q-10 0 -10 10v35h-1q-44 -56 -125 -56q-75 0 -120.5 50t-45.5 129v304q0 10 10 10h92q10 0 10 -10v-278q0 -49 23 -77t67 -28q42 0 66 28t24 76v279q0 10 10 10h92q10 0 10 -10v-462q0 -10 -10 -10zM413 555h-63q-11 0 -21 10l-57 59h-2l-57 -59
q-10 -10 -21 -10h-63q-12 0 -4 10l98 125q7 10 18 10h60q11 0 18 -10l98 -125q8 -10 -4 -10z" />
    <glyph glyph-name="udieresis" unicode="&#xfc;" horiz-adv-x="544" 
d="M461 0h-92q-10 0 -10 10v35h-1q-44 -56 -125 -56q-75 0 -120.5 50t-45.5 129v304q0 10 10 10h92q10 0 10 -10v-278q0 -49 23 -77t67 -28q42 0 66 28t24 76v279q0 10 10 10h92q10 0 10 -10v-462q0 -10 -10 -10zM407 573h-77q-10 0 -10 10v87q0 10 10 10h77q10 0 10 -10
v-87q0 -10 -10 -10zM211 573h-77q-10 0 -10 10v87q0 10 10 10h77q10 0 10 -10v-87q0 -10 -10 -10z" />
    <glyph glyph-name="yacute" unicode="&#xfd;" horiz-adv-x="485" 
d="M124 -180h-31q-10 0 -10 10v80q0 10 10 10h18q28 0 44.5 13t27.5 44l14 41l-176 454q-3 10 8 10h99q9 0 12 -10l109 -315h2l104 315q3 10 12 10h95q11 0 8 -10l-184 -502q-32 -86 -67 -117q-34 -33 -95 -33zM274 555h-68q-10 0 -6 10l75 125q6 10 18 10h91q5 0 6.5 -3
t-1.5 -7l-95 -125q-9 -10 -20 -10z" />
    <glyph glyph-name="thorn" unicode="&#xfe;" horiz-adv-x="545" 
d="M175 -180h-92q-10 0 -10 10v840q0 10 10 10h92q10 0 10 -10v-234h1q40 57 128 57q129 0 167 -116q17 -54 17 -136t-17 -136q-38 -116 -167 -116q-88 0 -128 57h-1v-216q0 -10 -10 -10zM285 89q69 0 89 62q10 30 10 90t-10 90q-20 62 -89 62q-70 0 -90 -62
q-10 -30 -10 -90t10 -90q20 -62 90 -62z" />
    <glyph glyph-name="ydieresis" unicode="&#xff;" horiz-adv-x="485" 
d="M124 -180h-31q-10 0 -10 10v80q0 10 10 10h18q28 0 44.5 13t27.5 44l14 41l-176 454q-3 10 8 10h99q9 0 12 -10l109 -315h2l104 315q3 10 12 10h95q11 0 8 -10l-184 -502q-32 -86 -67 -117q-34 -33 -95 -33zM385 573h-77q-10 0 -10 10v87q0 10 10 10h77q10 0 10 -10v-87
q0 -10 -10 -10zM189 573h-77q-10 0 -10 10v87q0 10 10 10h77q10 0 10 -10v-87q0 -10 -10 -10z" />
    <glyph glyph-name="Amacron" unicode="&#x100;" horiz-adv-x="617" 
d="M21 10l233 660q3 10 13 10h92q10 0 13 -10l230 -660q3 -10 -7 -10h-98q-10 0 -13 10l-45 132h-256l-45 -132q-3 -10 -13 -10h-97q-10 0 -7 10zM310 511l-91 -264h184l-90 264h-3zM442 782h-263q-10 0 -10 10v61q0 10 10 10h263q10 0 10 -10v-61q0 -10 -10 -10z" />
    <glyph glyph-name="amacron" unicode="&#x101;" horiz-adv-x="523" 
d="M444 0h-84q-10 0 -10 10v35h-1q-39 -56 -136 -56q-72 0 -117 38.5t-45 108.5q0 76 49.5 114.5t143.5 38.5h98q6 0 6 6v23q0 43 -24.5 61.5t-82.5 18.5q-68 0 -110 -33q-9 -8 -14 2l-37 66q-5 9 2 13q65 47 171 47q108 0 154.5 -39t46.5 -129v-315q0 -10 -10 -10zM241 80
q107 0 107 82v37q0 6 -6 6h-80q-104 0 -104 -65q0 -60 83 -60zM392 587h-263q-10 0 -10 10v61q0 10 10 10h263q10 0 10 -10v-61q0 -10 -10 -10z" />
    <glyph glyph-name="Abreve" unicode="&#x102;" horiz-adv-x="617" 
d="M21 10l233 660q3 10 13 10h92q10 0 13 -10l230 -660q3 -10 -7 -10h-98q-10 0 -13 10l-45 132h-256l-45 -132q-3 -10 -13 -10h-97q-10 0 -7 10zM310 511l-91 -264h184l-90 264h-3zM166 876q0 10 9 10h49q9 0 12 -10q15 -46 75 -46t75 46q3 10 12 10h49q9 0 9 -10
q-4 -55 -43.5 -88.5t-101.5 -33.5t-101.5 33.5t-43.5 88.5z" />
    <glyph glyph-name="abreve" unicode="&#x103;" horiz-adv-x="523" 
d="M444 0h-84q-10 0 -10 10v35h-1q-39 -56 -136 -56q-72 0 -117 38.5t-45 108.5q0 76 49.5 114.5t143.5 38.5h98q6 0 6 6v23q0 43 -24.5 61.5t-82.5 18.5q-68 0 -110 -33q-9 -8 -14 2l-37 66q-5 9 2 13q65 47 171 47q108 0 154.5 -39t46.5 -129v-315q0 -10 -10 -10zM241 80
q107 0 107 82v37q0 6 -6 6h-80q-104 0 -104 -65q0 -60 83 -60zM116 675q0 10 9 10h49q9 0 12 -10q15 -45 75 -45t75 45q3 10 12 10h49q9 0 9 -10q-4 -54 -43 -87.5t-102 -33.5t-102 33.5t-43 87.5z" />
    <glyph glyph-name="Aogonek" unicode="&#x104;" horiz-adv-x="617" 
d="M518 -190q-43 0 -69 23.5t-26 64.5q0 56 69 102q-5 2 -8 10l-45 132h-256l-45 -132q-3 -10 -12 -10h-97q-11 0 -8 10l233 660q3 10 13 10h92q10 0 13 -10l230 -660q1 -7 -4 -10q-45 -26 -65 -45.5t-20 -37.5q0 -26 24 -26q8 0 26 8q8 4 13 -4l24 -50q5 -8 -4 -13
q-32 -22 -78 -22zM313 511h-3l-91 -264h184z" />
    <glyph glyph-name="aogonek" unicode="&#x105;" horiz-adv-x="523" 
d="M350 7v38h-1q-39 -56 -136 -56q-72 0 -117 38.5t-45 108.5q0 76 49.5 114.5t143.5 38.5h98q6 0 6 6v23q0 43 -24.5 61.5t-82.5 18.5q-68 0 -110 -33q-9 -8 -14 2l-37 66q-5 9 2 13q65 47 171 47q108 0 154.5 -39t46.5 -129v-315q0 -7 -6 -10q-47 -26 -66 -45t-19 -38
q0 -26 25 -26q7 0 25 8q8 4 13 -4l24 -50q5 -8 -4 -13q-31 -22 -78 -22q-43 0 -69 23.5t-26 64.5q0 64 77 109zM241 80q107 0 107 82v37q0 6 -6 6h-80q-104 0 -104 -65q0 -60 83 -60z" />
    <glyph glyph-name="Cacute" unicode="&#x106;" horiz-adv-x="575" 
d="M73 156q-18 54 -18 184t18 184q26 81 87 124t149 43q80 0 140 -38.5t90 -107.5q3 -9 -5 -12l-85 -41q-9 -4 -13 5q-40 88 -127 88q-91 0 -122 -90q-12 -37 -12 -155t12 -155q31 -90 122 -90q87 0 127 88q4 9 13 5l85 -41q8 -3 5 -12q-30 -69 -90 -107.5t-140 -38.5
q-88 0 -149 43t-87 124zM321 761h-71q-4 0 -5.5 3t1.5 7l88 107q7 10 19 10h98q5 0 7 -3t-2 -7l-117 -109q-8 -8 -18 -8z" />
    <glyph glyph-name="cacute" unicode="&#x107;" horiz-adv-x="475" 
d="M261 -11q-73 0 -125.5 35t-73.5 98q-15 45 -15 119t15 119q21 63 73.5 98t125.5 35q105 0 167 -75q6 -8 -1 -14l-63 -55q-8 -6 -14 2q-38 42 -89 42q-69 0 -90 -63q-10 -29 -10 -89q0 -61 10 -90q21 -62 90 -62q51 0 89 42q6 7 14 1l63 -55q6 -4 1 -14q-62 -74 -167 -74z
M270 555h-68q-10 0 -6 10l75 125q6 10 18 10h91q5 0 6.5 -3t-1.5 -7l-95 -125q-9 -10 -20 -10z" />
    <glyph glyph-name="Ccircumflex" unicode="&#x108;" horiz-adv-x="575" 
d="M73 156q-18 54 -18 184t18 184q26 81 87 124t149 43q80 0 140 -38.5t90 -107.5q3 -9 -5 -12l-85 -41q-9 -4 -13 5q-40 88 -127 88q-91 0 -122 -90q-12 -37 -12 -155t12 -155q31 -90 122 -90q87 0 127 88q4 9 13 5l85 -41q8 -3 5 -12q-30 -69 -90 -107.5t-140 -38.5
q-88 0 -149 43t-87 124zM450 753h-63q-11 0 -21 10l-57 59h-2l-57 -59q-10 -10 -21 -10h-63q-4 0 -5.5 3t1.5 7l98 125q7 10 18 10h60q11 0 18 -10l98 -125q3 -4 1.5 -7t-5.5 -3z" />
    <glyph glyph-name="ccircumflex" unicode="&#x109;" horiz-adv-x="475" 
d="M400 555h-63q-11 0 -21 10l-57 59h-2l-57 -59q-10 -10 -21 -10h-63q-4 0 -5.5 3t1.5 7l98 125q7 10 18 10h60q11 0 18 -10l98 -125q3 -4 1.5 -7t-5.5 -3zM261 -11q-73 0 -125.5 35t-73.5 98q-15 45 -15 119t15 119q21 63 73.5 98t125.5 35q105 0 167 -75q6 -8 -1 -14
l-63 -55q-8 -6 -14 2q-38 42 -89 42q-69 0 -90 -63q-10 -29 -10 -89q0 -61 10 -90q21 -62 90 -62q51 0 89 42q6 7 14 1l63 -55q6 -4 1 -14q-62 -74 -167 -74z" />
    <glyph glyph-name="Cdotaccent" unicode="&#x10a;" horiz-adv-x="575" 
d="M73 156q-18 54 -18 184t18 184q26 81 87 124t149 43q80 0 140 -38.5t90 -107.5q3 -9 -5 -12l-85 -41q-9 -4 -13 5q-40 88 -127 88q-91 0 -122 -90q-12 -37 -12 -155t12 -155q31 -90 122 -90q87 0 127 88q4 9 13 5l85 -41q8 -3 5 -12q-30 -69 -90 -107.5t-140 -38.5
q-88 0 -149 43t-87 124zM354 769h-93q-10 0 -10 10v87q0 10 10 10h93q10 0 10 -10v-87q0 -10 -10 -10z" />
    <glyph glyph-name="cdotaccent" unicode="&#x10b;" horiz-adv-x="475" 
d="M261 -11q-73 0 -125.5 35t-73.5 98q-15 45 -15 119t15 119q21 63 73.5 98t125.5 35q105 0 167 -75q6 -8 -1 -14l-63 -55q-8 -6 -14 2q-38 42 -89 42q-69 0 -90 -63q-10 -29 -10 -89q0 -61 10 -90q21 -62 90 -62q51 0 89 42q6 7 14 1l63 -55q6 -4 1 -14q-62 -74 -167 -74z
M304 573h-93q-10 0 -10 10v87q0 10 10 10h93q10 0 10 -10v-87q0 -10 -10 -10z" />
    <glyph glyph-name="Ccaron" unicode="&#x10c;" horiz-adv-x="575" 
d="M73 156q-18 54 -18 184t18 184q26 81 87 124t149 43q80 0 140 -38.5t90 -107.5q3 -9 -5 -12l-85 -41q-9 -4 -13 5q-40 88 -127 88q-91 0 -122 -90q-12 -37 -12 -155t12 -155q31 -90 122 -90q87 0 127 88q4 9 13 5l85 -41q8 -3 5 -12q-30 -69 -90 -107.5t-140 -38.5
q-88 0 -149 43t-87 124zM338 751h-60q-11 0 -18 10l-98 125q-3 4 -1.5 7t5.5 3h63q11 0 21 -10l57 -59h2l57 59q10 10 21 10h63q4 0 5.5 -3t-1.5 -7l-98 -125q-7 -10 -18 -10z" />
    <glyph glyph-name="ccaron" unicode="&#x10d;" horiz-adv-x="475" 
d="M288 553h-60q-11 0 -18 10l-98 125q-3 4 -1.5 7t5.5 3h63q11 0 21 -10l57 -59h2l57 59q10 10 21 10h63q4 0 5.5 -3t-1.5 -7l-98 -125q-7 -10 -18 -10zM261 -11q-73 0 -125.5 35t-73.5 98q-15 45 -15 119t15 119q21 63 73.5 98t125.5 35q105 0 167 -75q6 -8 -1 -14
l-63 -55q-8 -6 -14 2q-38 42 -89 42q-69 0 -90 -63q-10 -29 -10 -89q0 -61 10 -90q21 -62 90 -62q51 0 89 42q6 7 14 1l63 -55q6 -4 1 -14q-62 -74 -167 -74z" />
    <glyph glyph-name="Dcaron" unicode="&#x10e;" horiz-adv-x="625" 
d="M326 751h-60q-11 0 -18 10l-98 125q-3 4 -1.5 7t5.5 3h63q11 0 21 -10l57 -59h2l57 59q10 10 21 10h63q4 0 5.5 -3t-1.5 -7l-98 -125q-7 -10 -18 -10zM75 10v660q0 10 10 10h243q178 0 227 -151q17 -54 17 -189t-17 -189q-49 -151 -227 -151h-243q-10 0 -10 10zM193 568
v-456q0 -6 6 -6h101q112 0 141 86q12 33 12 148t-12 148q-29 86 -141 86h-101q-6 0 -6 -6z" />
    <glyph glyph-name="dcaron" unicode="&#x10f;" horiz-adv-x="545" 
d="M462 0h-92q-10 0 -10 10v36h-1q-41 -57 -128 -57q-129 0 -167 116q-17 54 -17 136t17 136q38 116 167 116q87 0 128 -57h1v234q0 10 10 10h92q10 0 10 -10v-660q0 -10 -10 -10zM260 89q70 0 90 62q10 30 10 90t-10 90q-20 62 -90 62q-69 0 -89 -62q-10 -30 -10 -90
t10 -90q20 -62 89 -62zM520 502q-10 0 -10 11v157q0 10 10 10h83q10 0 10 -10v-73q0 -12 -7 -19l-71 -69q-7 -7 -15 -7z" />
    <glyph glyph-name="Dcroat" unicode="&#x110;" horiz-adv-x="625" 
d="M328 0h-243q-10 0 -10 10v282q0 6 -6 6h-26q-10 0 -10 10v70q0 10 10 10h26q6 0 6 6v276q0 10 10 10h243q178 0 227 -151q17 -54 17 -189t-17 -189q-49 -151 -227 -151zM199 106h101q112 0 141 86q12 33 12 148t-12 148q-29 86 -141 86h-101q-6 0 -6 -6v-174q0 -6 6 -6
h97q10 0 10 -10v-70q0 -10 -10 -10h-97q-6 0 -6 -6v-180q0 -6 6 -6z" />
    <glyph glyph-name="dslash" unicode="&#x111;" horiz-adv-x="545" 
d="M462 0h-92q-10 0 -10 10v36h-1q-41 -57 -128 -57q-129 0 -167 116q-17 54 -17 136t17 136q38 116 167 116q87 0 128 -57h1v105q0 6 -6 6h-110q-10 0 -10 10v66q0 10 10 10h110q6 0 6 6v31q0 10 10 10h92q10 0 10 -10v-31q0 -6 6 -6h25q10 0 10 -10v-66q0 -10 -10 -10h-25
q-6 0 -6 -6v-531q0 -10 -10 -10zM260 89q70 0 90 62q10 30 10 90t-10 90q-20 62 -90 62q-69 0 -89 -62q-10 -30 -10 -90t10 -90q20 -62 89 -62z" />
    <glyph glyph-name="Emacron" unicode="&#x112;" horiz-adv-x="570" 
d="M75 10v660q0 10 10 10h426q10 0 10 -10v-86q0 -10 -10 -10h-312q-6 0 -6 -6v-166q0 -6 6 -6h263q10 0 10 -10v-86q0 -10 -10 -10h-263q-6 0 -6 -6v-172q0 -6 6 -6h312q10 0 10 -10v-86q0 -10 -10 -10h-426q-10 0 -10 10zM427 782h-263q-10 0 -10 10v61q0 10 10 10h263
q10 0 10 -10v-61q0 -10 -10 -10z" />
    <glyph glyph-name="emacron" unicode="&#x113;" horiz-adv-x="521" 
d="M265 -11q-75 0 -128 35.5t-73 98.5q-17 54 -17 118q0 71 16 119q20 63 72.5 98t124.5 35q74 0 126 -35t72 -98q16 -48 16 -145q0 -10 -11 -10h-297q-6 0 -6 -6q0 -19 7 -37q25 -73 108 -73q71 0 113 46q8 8 15 2l59 -52q7 -6 1 -14q-70 -82 -198 -82zM361 295q0 23 -6 41
q-10 29 -35 45.5t-59 16.5q-74 0 -95 -62q-6 -18 -6 -41q0 -6 6 -6h189q6 0 6 6zM391 587h-263q-10 0 -10 10v61q0 10 10 10h263q10 0 10 -10v-61q0 -10 -10 -10z" />
    <glyph glyph-name="Ebreve" unicode="&#x114;" horiz-adv-x="570" 
d="M75 10v660q0 10 10 10h426q10 0 10 -10v-86q0 -10 -10 -10h-312q-6 0 -6 -6v-166q0 -6 6 -6h263q10 0 10 -10v-86q0 -10 -10 -10h-263q-6 0 -6 -6v-172q0 -6 6 -6h312q10 0 10 -10v-86q0 -10 -10 -10h-426q-10 0 -10 10zM151 876q0 10 9 10h49q9 0 12 -10q15 -46 75 -46
t75 46q3 10 12 10h49q9 0 9 -10q-4 -55 -43.5 -88.5t-101.5 -33.5t-101.5 33.5t-43.5 88.5z" />
    <glyph glyph-name="ebreve" unicode="&#x115;" horiz-adv-x="521" 
d="M265 -11q-75 0 -128 35.5t-73 98.5q-17 54 -17 118q0 71 16 119q20 63 72.5 98t124.5 35q74 0 126 -35t72 -98q16 -48 16 -145q0 -10 -11 -10h-297q-6 0 -6 -6q0 -19 7 -37q25 -73 108 -73q71 0 113 46q8 8 15 2l59 -52q7 -6 1 -14q-70 -82 -198 -82zM361 295q0 23 -6 41
q-10 29 -35 45.5t-59 16.5q-74 0 -95 -62q-6 -18 -6 -41q0 -6 6 -6h189q6 0 6 6zM115 675q0 10 9 10h49q9 0 12 -10q15 -45 75 -45t75 45q3 10 12 10h49q9 0 9 -10q-4 -54 -43 -87.5t-102 -33.5t-102 33.5t-43 87.5z" />
    <glyph glyph-name="Edotaccent" unicode="&#x116;" horiz-adv-x="570" 
d="M75 10v660q0 10 10 10h426q10 0 10 -10v-86q0 -10 -10 -10h-312q-6 0 -6 -6v-166q0 -6 6 -6h263q10 0 10 -10v-86q0 -10 -10 -10h-263q-6 0 -6 -6v-172q0 -6 6 -6h312q10 0 10 -10v-86q0 -10 -10 -10h-426q-10 0 -10 10zM343 769h-93q-10 0 -10 10v87q0 10 10 10h93
q10 0 10 -10v-87q0 -10 -10 -10z" />
    <glyph glyph-name="edotaccent" unicode="&#x117;" horiz-adv-x="521" 
d="M265 -11q-75 0 -128 35.5t-73 98.5q-17 54 -17 118q0 71 16 119q20 63 72.5 98t124.5 35q74 0 126 -35t72 -98q16 -48 16 -145q0 -10 -11 -10h-297q-6 0 -6 -6q0 -19 7 -37q25 -73 108 -73q71 0 113 46q8 8 15 2l59 -52q7 -6 1 -14q-70 -82 -198 -82zM361 295q0 23 -6 41
q-10 29 -35 45.5t-59 16.5q-74 0 -95 -62q-6 -18 -6 -41q0 -6 6 -6h189q6 0 6 6zM306 573h-93q-10 0 -10 10v87q0 10 10 10h93q10 0 10 -10v-87q0 -10 -10 -10z" />
    <glyph glyph-name="Eogonek" unicode="&#x118;" horiz-adv-x="570" 
d="M424 -190q-43 0 -69 23.5t-26 64.5q0 58 65 102h-309q-10 0 -10 10v660q0 10 10 10h426q10 0 10 -10v-86q0 -10 -10 -10h-312q-6 0 -6 -6v-166q0 -6 6 -6h263q10 0 10 -10v-86q0 -10 -10 -10h-263q-6 0 -6 -6v-172q0 -6 6 -6h312q10 0 10 -10v-86q0 -10 -10 -10h-9
q-83 -48 -83 -83q0 -26 24 -26q7 0 25 8q10 4 14 -4l24 -50q5 -8 -4 -13q-32 -22 -78 -22z" />
    <glyph glyph-name="eogonek" unicode="&#x119;" horiz-adv-x="521" 
d="M285 -11h-20q-75 0 -128 35.5t-73 98.5q-17 54 -17 118q0 71 16 119q20 63 72.5 98t124.5 35q74 0 126 -35t72 -98q16 -48 16 -145q0 -10 -11 -10h-297q-6 0 -6 -6q0 -19 7 -37q25 -73 108 -73q71 0 113 46q8 8 15 2l59 -52q7 -6 1 -14q-23 -26 -46 -41q-81 -74 -81 -113
q0 -26 24 -26q7 0 25 8q8 4 13 -4l24 -50q5 -8 -4 -13q-31 -22 -77 -22q-45 0 -70.5 23t-25.5 65q0 45 40 91zM361 295q0 23 -6 41q-10 29 -35 45.5t-59 16.5q-74 0 -95 -62q-6 -18 -6 -41q0 -6 6 -6h189q6 0 6 6z" />
    <glyph glyph-name="Ecaron" unicode="&#x11a;" horiz-adv-x="570" 
d="M75 10v660q0 10 10 10h426q10 0 10 -10v-86q0 -10 -10 -10h-312q-6 0 -6 -6v-166q0 -6 6 -6h263q10 0 10 -10v-86q0 -10 -10 -10h-263q-6 0 -6 -6v-172q0 -6 6 -6h312q10 0 10 -10v-86q0 -10 -10 -10h-426q-10 0 -10 10zM327 751h-60q-11 0 -18 10l-98 125q-8 10 4 10h63
q11 0 21 -10l57 -59h2l57 59q10 10 21 10h63q12 0 4 -10l-98 -125q-7 -10 -18 -10z" />
    <glyph glyph-name="ecaron" unicode="&#x11b;" horiz-adv-x="521" 
d="M290 553h-60q-11 0 -18 10l-98 125q-3 4 -1.5 7t5.5 3h63q11 0 21 -10l57 -59h2l57 59q10 10 21 10h63q4 0 5.5 -3t-1.5 -7l-98 -125q-7 -10 -18 -10zM265 -11q-75 0 -128 35.5t-73 98.5q-17 54 -17 118q0 71 16 119q20 63 72.5 98t124.5 35q74 0 126 -35t72 -98
q16 -48 16 -145q0 -10 -11 -10h-297q-6 0 -6 -6q0 -19 7 -37q25 -73 108 -73q71 0 113 46q8 8 15 2l59 -52q7 -6 1 -14q-70 -82 -198 -82zM361 295q0 23 -6 41q-10 29 -35 45.5t-59 16.5q-74 0 -95 -62q-6 -18 -6 -41q0 -6 6 -6h189q6 0 6 6z" />
    <glyph glyph-name="Gcircumflex" unicode="&#x11c;" horiz-adv-x="627" 
d="M73 153q-18 54 -18 187t18 187q26 80 89 122t154 42q87 0 150 -40.5t87 -103.5q4 -9 -4 -14l-84 -37q-8 -3 -13 5q-46 84 -137 84q-96 0 -128 -89q-12 -38 -12 -156t12 -156q32 -89 128 -89q46 0 81 23t48 62q11 35 11 88q0 6 -6 6h-112q-10 0 -10 10v80q0 10 10 10h225
q10 0 10 -10v-59q0 -101 -16 -149q-25 -79 -88.5 -123t-151.5 -44q-91 0 -154 42t-89 122zM455 753h-63q-11 0 -21 10l-57 59h-2l-57 -59q-10 -10 -21 -10h-63q-12 0 -4 10l98 125q7 10 18 10h60q11 0 18 -10l98 -125q8 -10 -4 -10z" />
    <glyph glyph-name="gcircumflex" unicode="&#x11d;" horiz-adv-x="536" 
d="M398 555h-63q-11 0 -21 10l-57 59h-2l-57 -59q-10 -10 -21 -10h-63q-4 0 -5.5 3t1.5 7l98 125q7 10 18 10h60q11 0 18 -10l98 -125q3 -4 1.5 -7t-5.5 -3zM238 -191q-52 0 -100 19.5t-75 52.5q-6 7 1 14l59 59q7 8 15 0q46 -45 105 -45q108 0 108 115v45h-1
q-36 -56 -125 -56q-61 0 -103 30t-61 87q-16 48 -16 123q0 74 16 122q37 118 164 118q89 0 125 -57h1v36q0 10 10 10h92q10 0 10 -10v-442q0 -106 -58 -163.5t-167 -57.5zM254 112q66 0 86 62q11 31 11 79q0 46 -11 79q-19 61 -86 61q-66 0 -85 -61q-11 -33 -11 -79
q0 -48 11 -79q20 -62 85 -62z" />
    <glyph glyph-name="Gbreve" unicode="&#x11e;" horiz-adv-x="627" 
d="M73 153q-18 54 -18 187t18 187q26 80 89 122t154 42q87 0 150 -40.5t87 -103.5q4 -9 -4 -14l-84 -37q-8 -3 -13 5q-46 84 -137 84q-96 0 -128 -89q-12 -38 -12 -156t12 -156q32 -89 128 -89q46 0 81 23t48 62q11 35 11 88q0 6 -6 6h-112q-10 0 -10 10v80q0 10 10 10h225
q10 0 10 -10v-59q0 -101 -16 -149q-25 -79 -88.5 -123t-151.5 -44q-91 0 -154 42t-89 122zM168 876q0 10 9 10h49q9 0 12 -10q15 -46 75 -46t75 46q3 10 12 10h49q9 0 9 -10q-4 -55 -43.5 -88.5t-101.5 -33.5t-101.5 33.5t-43.5 88.5z" />
    <glyph glyph-name="gbreve" unicode="&#x11f;" horiz-adv-x="536" 
d="M238 -191q-52 0 -100 19.5t-75 52.5q-6 7 1 14l59 59q7 8 15 0q46 -45 105 -45q108 0 108 115v45h-1q-36 -56 -125 -56q-61 0 -103 30t-61 87q-16 48 -16 123q0 74 16 122q37 118 164 118q89 0 125 -57h1v36q0 10 10 10h92q10 0 10 -10v-442q0 -106 -58 -163.5
t-167 -57.5zM254 112q66 0 86 62q11 31 11 79q0 46 -11 79q-19 61 -86 61q-66 0 -85 -61q-11 -33 -11 -79q0 -48 11 -79q20 -62 85 -62zM111 675q0 10 9 10h49q9 0 12 -10q15 -45 75 -45t75 45q3 10 12 10h49q9 0 9 -10q-4 -54 -43 -87.5t-102 -33.5t-102 33.5t-43 87.5z
" />
    <glyph glyph-name="Gdotaccent" unicode="&#x120;" horiz-adv-x="627" 
d="M73 153q-18 54 -18 187t18 187q26 80 89 122t154 42q87 0 150 -40.5t87 -103.5q4 -9 -4 -14l-84 -37q-8 -3 -13 5q-46 84 -137 84q-96 0 -128 -89q-12 -38 -12 -156t12 -156q32 -89 128 -89q46 0 81 23t48 62q11 35 11 88q0 6 -6 6h-112q-10 0 -10 10v80q0 10 10 10h225
q10 0 10 -10v-59q0 -101 -16 -149q-25 -79 -88.5 -123t-151.5 -44q-91 0 -154 42t-89 122zM359 769h-93q-10 0 -10 10v87q0 10 10 10h93q10 0 10 -10v-87q0 -10 -10 -10z" />
    <glyph glyph-name="gdotaccent" unicode="&#x121;" horiz-adv-x="536" 
d="M238 -191q-52 0 -100 19.5t-75 52.5q-6 7 1 14l59 59q7 8 15 0q46 -45 105 -45q108 0 108 115v45h-1q-36 -56 -125 -56q-61 0 -103 30t-61 87q-16 48 -16 123q0 74 16 122q37 118 164 118q89 0 125 -57h1v36q0 10 10 10h92q10 0 10 -10v-442q0 -106 -58 -163.5
t-167 -57.5zM254 112q66 0 86 62q11 31 11 79q0 46 -11 79q-19 61 -86 61q-66 0 -85 -61q-11 -33 -11 -79q0 -48 11 -79q20 -62 85 -62zM302 573h-93q-10 0 -10 10v87q0 10 10 10h93q10 0 10 -10v-87q0 -10 -10 -10z" />
    <glyph glyph-name="Gcommaaccent" unicode="&#x122;" horiz-adv-x="627" 
d="M73 153q-18 54 -18 187t18 187q26 80 89 122t154 42q87 0 150 -40.5t87 -103.5q4 -9 -4 -14l-84 -37q-8 -3 -13 5q-46 84 -137 84q-96 0 -128 -89q-12 -38 -12 -156t12 -156q32 -89 128 -89q46 0 81 23t48 62q11 35 11 88q0 6 -6 6h-112q-10 0 -10 10v80q0 10 10 10h225
q10 0 10 -10v-59q0 -101 -16 -149q-25 -79 -88.5 -123t-151.5 -44q-91 0 -154 42t-89 122zM271 -228q-10 0 -10 11v153q0 10 10 10h83q10 0 10 -10v-69q0 -12 -7 -19l-71 -69q-7 -7 -15 -7z" />
    <glyph glyph-name="gcommaaccent" unicode="&#x123;" horiz-adv-x="536" 
d="M238 -191q-52 0 -100 19.5t-75 52.5q-6 7 1 14l59 59q7 8 15 0q46 -45 105 -45q108 0 108 115v45h-1q-36 -56 -125 -56q-61 0 -103 30t-61 87q-16 48 -16 123q0 74 16 122q37 118 164 118q89 0 125 -57h1v36q0 10 10 10h92q10 0 10 -10v-442q0 -106 -58 -163.5
t-167 -57.5zM254 112q66 0 86 62q11 31 11 79q0 46 -11 79q-19 61 -86 61q-66 0 -85 -61q-11 -33 -11 -79q0 -48 11 -79q20 -62 85 -62zM298 572h-83q-10 0 -10 10v69q0 12 7 19l71 69q7 7 15 7q10 0 10 -11v-153q0 -10 -10 -10z" />
    <glyph glyph-name="Hcircumflex" unicode="&#x124;" horiz-adv-x="657" 
d="M75 10v660q0 10 10 10h98q10 0 10 -10v-268q0 -6 6 -6h259q6 0 6 6v268q0 10 10 10h98q10 0 10 -10v-660q0 -10 -10 -10h-98q-10 0 -10 10v274q0 6 -6 6h-259q-6 0 -6 -6v-274q0 -10 -10 -10h-98q-10 0 -10 10zM469 753h-63q-11 0 -21 10l-57 59h-2l-57 -59
q-10 -10 -21 -10h-63q-12 0 -4 10l98 125q7 10 18 10h60q11 0 18 -10l98 -125q8 -10 -4 -10z" />
    <glyph glyph-name="hcircumflex" unicode="&#x125;" horiz-adv-x="548" 
d="M470 0h-92q-10 0 -10 10v278q0 49 -23.5 77t-67.5 28q-42 0 -67 -28.5t-25 -76.5v-278q0 -10 -10 -10h-92q-10 0 -10 10v660q0 10 10 10h92q10 0 10 -10v-233h1q39 56 127 56q75 0 121 -50t46 -129v-304q0 -10 -10 -10zM420 753h-63q-11 0 -21 10l-57 59h-2l-57 -59
q-10 -10 -21 -10h-63q-4 0 -5.5 3t1.5 7l98 125q7 10 18 10h60q11 0 18 -10l98 -125q3 -4 1.5 -7t-5.5 -3z" />
    <glyph glyph-name="Hbar" unicode="&#x126;" horiz-adv-x="657" 
d="M572 0h-98q-10 0 -10 10v274q0 6 -6 6h-259q-6 0 -6 -6v-274q0 -10 -10 -10h-98q-10 0 -10 10v478q0 6 -6 6h-35q-10 0 -10 10v64q0 10 10 10h35q6 0 6 6v86q0 10 10 10h98q10 0 10 -10v-86q0 -6 6 -6h259q6 0 6 6v86q0 10 10 10h98q10 0 10 -10v-86q0 -6 6 -6h35
q10 0 10 -10v-64q0 -10 -10 -10h-35q-6 0 -6 -6v-478q0 -10 -10 -10zM199 396h259q6 0 6 6v86q0 6 -6 6h-259q-6 0 -6 -6v-86q0 -6 6 -6z" />
    <glyph glyph-name="hbar" unicode="&#x127;" horiz-adv-x="548" 
d="M470 0h-92q-10 0 -10 10v278q0 49 -23.5 77t-67.5 28q-42 0 -67 -28.5t-25 -76.5v-278q0 -10 -10 -10h-92q-10 0 -10 10v531q0 6 -6 6h-25q-10 0 -10 10v66q0 10 10 10h25q6 0 6 6v31q0 10 10 10h92q10 0 10 -10v-31q0 -6 6 -6h110q10 0 10 -10v-66q0 -10 -10 -10h-110
q-6 0 -6 -6v-104h1q39 56 127 56q75 0 121 -50t46 -129v-304q0 -10 -10 -10z" />
    <glyph glyph-name="Itilde" unicode="&#x128;" horiz-adv-x="268" 
d="M194 757q-29 0 -67 20q-33 18 -56 18q-30 0 -67 -31q-9 -8 -9 2v61q0 9 8 19q31 34 72 34q29 0 67 -20q33 -18 57 -18q29 0 66 31q9 8 9 -2v-61q0 -9 -8 -19q-31 -34 -72 -34zM75 10v660q0 10 10 10h98q10 0 10 -10v-660q0 -10 -10 -10h-98q-10 0 -10 10z" />
    <glyph glyph-name="itilde" unicode="&#x129;" horiz-adv-x="258" 
d="M189 561q-29 0 -67 20q-33 18 -56 18q-30 0 -67 -31q-9 -8 -9 2v61q0 9 8 19q31 34 72 34q29 0 67 -20q33 -18 57 -18q29 0 66 31q9 7 9 -2v-61q0 -9 -8 -19q-31 -34 -72 -34zM175 0h-92q-10 0 -10 10v462q0 10 10 10h92q10 0 10 -10v-462q0 -10 -10 -10z" />
    <glyph glyph-name="Imacron" unicode="&#x12a;" horiz-adv-x="268" 
d="M266 782h-263q-10 0 -10 10v61q0 10 10 10h263q10 0 10 -10v-61q0 -10 -10 -10zM75 10v660q0 10 10 10h98q10 0 10 -10v-660q0 -10 -10 -10h-98q-10 0 -10 10z" />
    <glyph glyph-name="imacron" unicode="&#x12b;" horiz-adv-x="258" 
d="M175 0h-92q-10 0 -10 10v462q0 10 10 10h92q10 0 10 -10v-462q0 -10 -10 -10zM261 587h-263q-10 0 -10 10v61q0 10 10 10h263q10 0 10 -10v-61q0 -10 -10 -10z" />
    <glyph glyph-name="Ibreve" unicode="&#x12c;" horiz-adv-x="268" 
d="M-10 876q0 10 9 10h49q9 0 12 -10q15 -46 75 -46t75 46q3 10 12 10h49q9 0 9 -10q-4 -55 -43.5 -88.5t-101.5 -33.5t-101.5 33.5t-43.5 88.5zM75 10v660q0 10 10 10h98q10 0 10 -10v-660q0 -10 -10 -10h-98q-10 0 -10 10z" />
    <glyph glyph-name="ibreve" unicode="&#x12d;" horiz-adv-x="258" 
d="M-16 675q0 10 9 10h49q9 0 12 -10q15 -45 75 -45t75 45q3 10 12 10h49q9 0 9 -10q-4 -54 -43 -87.5t-102 -33.5t-102 33.5t-43 87.5zM175 0h-92q-10 0 -10 10v462q0 10 10 10h92q10 0 10 -10v-462q0 -10 -10 -10z" />
    <glyph glyph-name="Iogonek" unicode="&#x12e;" horiz-adv-x="268" 
d="M124 -190q-44 0 -70 23.5t-26 64.5q0 48 57 102q-10 0 -10 10v660q0 10 10 10h98q10 0 10 -10v-660q0 -5 -5 -10q-40 -31 -54.5 -48.5t-14.5 -34.5q0 -26 24 -26q11 0 25 8q8 4 13 -4l24 -50q5 -8 -3 -13q-32 -22 -78 -22z" />
    <glyph glyph-name="iogonek" unicode="&#x12f;" horiz-adv-x="258" 
d="M175 573h-92q-10 0 -10 10v87q0 10 10 10h92q10 0 10 -10v-87q0 -10 -10 -10zM119 -190q-43 0 -69.5 23.5t-26.5 64.5q0 54 55 103q-5 3 -5 9v462q0 10 10 10h92q10 0 10 -10v-462q0 -5 -5 -10q-66 -51 -66 -83q0 -26 24 -26q11 0 25 8q8 4 13 -4l25 -50q5 -8 -4 -13
q-32 -22 -78 -22z" />
    <glyph glyph-name="Idot" unicode="&#x130;" horiz-adv-x="268" 
d="M181 769h-93q-10 0 -10 10v87q0 10 10 10h93q10 0 10 -10v-87q0 -10 -10 -10zM75 10v660q0 10 10 10h98q10 0 10 -10v-660q0 -10 -10 -10h-98q-10 0 -10 10z" />
    <glyph glyph-name="dotlessi" unicode="&#x131;" horiz-adv-x="258" 
d="M175 0h-92q-10 0 -10 10v462q0 10 10 10h92q10 0 10 -10v-462q0 -10 -10 -10z" />
    <glyph glyph-name="Jcircumflex" unicode="&#x134;" horiz-adv-x="507" 
d="M522 753h-63q-11 0 -21 10l-57 59h-2l-57 -59q-10 -10 -21 -10h-63q-12 0 -4 10l98 125q7 10 18 10h60q11 0 18 -10l98 -125q8 -10 -4 -10zM29 71q-5 8 2 14l73 55q8 4 15 -3q36 -42 91 -42t84 34t29 100v441q0 10 10 10h98q10 0 10 -10v-441q0 -113 -63 -176.5
t-172 -63.5q-55 0 -104 23t-73 59z" />
    <glyph glyph-name="jcircumflex" unicode="&#x135;" horiz-adv-x="258" 
d="M272 555h-63q-11 0 -21 10l-57 59h-2l-57 -59q-10 -10 -21 -10h-63q-12 0 -4 10l98 125q7 10 18 10h60q11 0 18 -10l98 -125q8 -10 -4 -10zM24 -180h-28q-10 0 -10 10v80q0 10 10 10h22q31 0 43.5 12.5t12.5 44.5v495q0 10 10 10h92q10 0 10 -10v-493q0 -159 -162 -159z
" />
    <glyph glyph-name="Kcommaaccent" unicode="&#x136;" horiz-adv-x="633" 
d="M75 10v660q0 10 10 10h98q10 0 10 -10v-320l257 322q8 8 16 8h114q13 0 4 -13l-211 -254l235 -401q8 -12 -7 -12h-111q-10 0 -15 8l-178 314l-104 -126v-186q0 -10 -10 -10h-98q-10 0 -10 10zM277 -228q-10 0 -10 11v153q0 10 10 10h83q10 0 10 -10v-69q0 -12 -7 -19
l-71 -69q-7 -7 -15 -7z" />
    <glyph glyph-name="kcommaaccent" unicode="&#x137;" horiz-adv-x="522" 
d="M493 0h-105q-10 0 -16 10l-122 202l-65 -75v-127q0 -10 -10 -10h-92q-10 0 -10 10v660q0 10 10 10h92q10 0 10 -10v-392l165 194q9 10 19 10h102q4 0 5.5 -3.5t-1.5 -6.5l-153 -176l176 -286q5 -10 -5 -10zM226 -228q-10 0 -10 11v153q0 10 10 10h83q10 0 10 -10v-69
q0 -12 -7 -19l-71 -69q-7 -7 -15 -7z" />
    <glyph glyph-name="kgreenlandic" unicode="&#x138;" horiz-adv-x="522" 
d="M493 0h-105q-10 0 -16 10l-122 202l-65 -75v-127q0 -10 -10 -10h-92q-10 0 -10 10v462q0 10 10 10h92q10 0 10 -10v-194l165 194q9 10 19 10h102q4 0 5.5 -3.5t-1.5 -6.5l-153 -176l176 -286q5 -10 -5 -10z" />
    <glyph glyph-name="Lacute" unicode="&#x139;" horiz-adv-x="545" 
d="M75 10v660q0 10 10 10h98q10 0 10 -10v-558q0 -6 6 -6h312q10 0 10 -10v-86q0 -10 -10 -10h-426q-10 0 -10 10zM178 761h-71q-12 0 -4 10l88 107q7 10 19 10h98q5 0 6.5 -3t-1.5 -7l-117 -109q-8 -8 -18 -8z" />
    <glyph glyph-name="lacute" unicode="&#x13a;" horiz-adv-x="291" 
d="M247 -6h-44q-69 0 -100.5 33t-31.5 105v538q0 10 10 10h92q10 0 10 -10v-532q0 -24 10 -34t32 -10h22q10 0 10 -10v-80q0 -10 -10 -10zM164 761h-71q-12 0 -4 10l88 107q7 10 19 10h98q5 0 6.5 -3t-1.5 -7l-117 -109q-8 -8 -18 -8z" />
    <glyph glyph-name="Lcommaaccent" unicode="&#x13b;" horiz-adv-x="545" 
d="M75 10v660q0 10 10 10h98q10 0 10 -10v-558q0 -6 6 -6h312q10 0 10 -10v-86q0 -10 -10 -10h-426q-10 0 -10 10zM251 -228q-10 0 -10 11v153q0 10 10 10h83q10 0 10 -10v-69q0 -12 -7 -19l-71 -69q-7 -7 -15 -7z" />
    <glyph glyph-name="lcommaaccent" unicode="&#x13c;" horiz-adv-x="291" 
d="M247 -6h-44q-69 0 -100.5 33t-31.5 105v538q0 10 10 10h92q10 0 10 -10v-532q0 -24 10 -34t32 -10h22q10 0 10 -10v-80q0 -10 -10 -10zM125 -228q-10 0 -10 11v153q0 10 10 10h83q10 0 10 -10v-69q0 -12 -7 -19l-71 -69q-7 -7 -15 -7z" />
    <glyph glyph-name="Lcaron" unicode="&#x13d;" horiz-adv-x="545" 
d="M75 10v660q0 10 10 10h98q10 0 10 -10v-558q0 -6 6 -6h312q10 0 10 -10v-86q0 -10 -10 -10h-426q-10 0 -10 10zM259 502q-10 0 -10 11v157q0 10 10 10h83q10 0 10 -10v-73q0 -12 -7 -19l-71 -69q-7 -7 -15 -7z" />
    <glyph glyph-name="lcaron" unicode="&#x13e;" horiz-adv-x="291" 
d="M247 -6h-44q-69 0 -100.5 33t-31.5 105v538q0 10 10 10h92q10 0 10 -10v-532q0 -24 10 -34t32 -10h22q10 0 10 -10v-80q0 -10 -10 -10zM231 502q-10 0 -10 11v157q0 10 10 10h83q10 0 10 -10v-73q0 -12 -7 -19l-71 -69q-7 -7 -15 -7z" />
    <glyph glyph-name="Ldot" unicode="&#x13f;" horiz-adv-x="545" 
d="M75 10v660q0 10 10 10h98q10 0 10 -10v-558q0 -6 6 -6h312q10 0 10 -10v-86q0 -10 -10 -10h-426q-10 0 -10 10zM456 265h-100q-10 0 -10 10v102q0 10 10 10h100q10 0 10 -10v-102q0 -10 -10 -10z" />
    <glyph glyph-name="ldot" unicode="&#x140;" horiz-adv-x="356" 
d="M247 -6h-44q-69 0 -100.5 33t-31.5 105v538q0 10 10 10h92q10 0 10 -10v-532q0 -24 10 -34t32 -10h22q10 0 10 -10v-80q0 -10 -10 -10zM355 279h-100q-10 0 -10 10v102q0 10 10 10h100q10 0 10 -10v-102q0 -10 -10 -10z" />
    <glyph glyph-name="Lslash" unicode="&#x141;" horiz-adv-x="545" 
d="M511 0h-426q-10 0 -10 10v249l-51 -26q-10 -4 -10 6v81q0 10 10 14l51 26v310q0 10 10 10h98q10 0 10 -10v-252l127 66q10 4 10 -6v-81q0 -10 -10 -14l-127 -66v-205q0 -6 6 -6h312q10 0 10 -10v-86q0 -10 -10 -10z" />
    <glyph glyph-name="lslash" unicode="&#x142;" horiz-adv-x="291" 
d="M247 367l-64 -33v-196q0 -24 10 -34t32 -10h22q10 0 10 -10v-80q0 -10 -10 -10h-44q-69 0 -100.5 33t-31.5 105v151l-33 -17q-10 -4 -10 6v74q0 11 10 15l33 17v292q0 10 10 10h92q10 0 10 -10v-241l64 33q10 4 10 -6v-74q0 -11 -10 -15z" />
    <glyph glyph-name="Nacute" unicode="&#x143;" horiz-adv-x="657" 
d="M75 10v660q0 10 10 10h92q11 0 17 -10l277 -469h4v469q0 10 10 10h87q10 0 10 -10v-660q0 -10 -10 -10h-91q-11 0 -17 10l-278 468h-4v-468q0 -10 -10 -10h-87q-10 0 -10 10zM338 761h-71q-12 0 -4 10l88 107q7 10 19 10h98q5 0 6.5 -3t-1.5 -7l-117 -109q-8 -8 -18 -8z
" />
    <glyph glyph-name="nacute" unicode="&#x144;" horiz-adv-x="548" 
d="M470 0h-92q-10 0 -10 10v278q0 49 -23.5 77t-67.5 28q-42 0 -67 -28.5t-25 -76.5v-278q0 -10 -10 -10h-92q-10 0 -10 10v462q0 10 10 10h92q10 0 10 -10v-35h1q39 56 127 56q75 0 121 -50t46 -129v-304q0 -10 -10 -10zM281 555h-68q-10 0 -6 10l75 125q6 10 18 10h91
q5 0 6.5 -3t-1.5 -7l-95 -125q-9 -10 -20 -10z" />
    <glyph glyph-name="Ncommaaccent" unicode="&#x145;" horiz-adv-x="657" 
d="M75 10v660q0 10 10 10h92q11 0 17 -10l277 -469h4v469q0 10 10 10h87q10 0 10 -10v-660q0 -10 -10 -10h-91q-11 0 -17 10l-278 468h-4v-468q0 -10 -10 -10h-87q-10 0 -10 10zM287 -228q-10 0 -10 11v153q0 10 10 10h83q10 0 10 -10v-69q0 -12 -7 -19l-71 -69
q-7 -7 -15 -7z" />
    <glyph glyph-name="ncommaaccent" unicode="&#x146;" horiz-adv-x="548" 
d="M470 0h-92q-10 0 -10 10v278q0 49 -23.5 77t-67.5 28q-42 0 -67 -28.5t-25 -76.5v-278q0 -10 -10 -10h-92q-10 0 -10 10v462q0 10 10 10h92q10 0 10 -10v-35h1q39 56 127 56q75 0 121 -50t46 -129v-304q0 -10 -10 -10zM233 -228q-10 0 -10 11v153q0 10 10 10h83
q10 0 10 -10v-69q0 -12 -7 -19l-71 -69q-7 -7 -15 -7z" />
    <glyph glyph-name="Ncaron" unicode="&#x147;" horiz-adv-x="657" 
d="M75 10v660q0 10 10 10h92q11 0 17 -10l277 -469h4v469q0 10 10 10h87q10 0 10 -10v-660q0 -10 -10 -10h-91q-11 0 -17 10l-278 468h-4v-468q0 -10 -10 -10h-87q-10 0 -10 10zM355 751h-60q-11 0 -18 10l-98 125q-8 10 4 10h63q11 0 21 -10l57 -59h2l57 59q10 10 21 10h63
q12 0 4 -10l-98 -125q-7 -10 -18 -10z" />
    <glyph glyph-name="ncaron" unicode="&#x148;" horiz-adv-x="548" 
d="M470 0h-92q-10 0 -10 10v278q0 49 -23.5 77t-67.5 28q-42 0 -67 -28.5t-25 -76.5v-278q0 -10 -10 -10h-92q-10 0 -10 10v462q0 10 10 10h92q10 0 10 -10v-35h1q39 56 127 56q75 0 121 -50t46 -129v-304q0 -10 -10 -10zM303 553h-60q-11 0 -18 10l-98 125q-8 10 4 10h63
q11 0 21 -10l57 -59h2l57 59q10 10 21 10h63q12 0 4 -10l-98 -125q-7 -10 -18 -10z" />
    <glyph glyph-name="Eng" unicode="&#x14a;" horiz-adv-x="657" 
d="M401 -180h-29q-10 0 -10 10v86q0 10 10 10h23q76 0 76 68v5l-285 479h-4v-468q0 -10 -10 -10h-87q-10 0 -10 10v660q0 10 10 10h92q13 0 17 -10l277 -469h4v469q0 10 10 10h87q10 0 10 -10v-667q0 -183 -181 -183z" />
    <glyph glyph-name="eng" unicode="&#x14b;" horiz-adv-x="548" 
d="M318 -180h-28q-10 0 -10 10v80q0 10 10 10h22q31 0 43.5 12.5t12.5 44.5v311q0 49 -23.5 77t-67.5 28q-42 0 -67 -28.5t-25 -76.5v-278q0 -10 -10 -10h-92q-10 0 -10 10v462q0 10 10 10h92q10 0 10 -10v-35h1q39 56 127 56q75 0 121 -50t46 -129v-335q0 -159 -162 -159z
" />
    <glyph glyph-name="Omacron" unicode="&#x14c;" horiz-adv-x="627" 
d="M313 -11q-90 0 -152 42t-88 122q-18 54 -18 187t18 187q26 80 88 122t152 42t152.5 -42t88.5 -122q18 -54 18 -187t-18 -187q-26 -80 -88.5 -122t-152.5 -42zM313 95q95 0 127 89q12 38 12 156t-12 156q-32 89 -127 89q-94 0 -126 -89q-12 -38 -12 -156t12 -156
q32 -89 126 -89zM444 782h-263q-10 0 -10 10v61q0 10 10 10h263q10 0 10 -10v-61q0 -10 -10 -10z" />
    <glyph glyph-name="omacron" unicode="&#x14d;" horiz-adv-x="523" 
d="M262 -11q-74 0 -126.5 35t-72.5 98q-16 48 -16 119t16 119q20 63 72.5 98t126.5 35q73 0 125.5 -35t72.5 -98q16 -48 16 -119t-16 -119q-20 -63 -72.5 -98t-125.5 -35zM262 89q68 0 90 63q10 30 10 89t-10 89q-22 63 -90 63t-91 -63q-10 -30 -10 -89t10 -89
q23 -63 91 -63zM392 587h-263q-10 0 -10 10v61q0 10 10 10h263q10 0 10 -10v-61q0 -10 -10 -10z" />
    <glyph glyph-name="Obreve" unicode="&#x14e;" horiz-adv-x="627" 
d="M313 -11q-90 0 -152 42t-88 122q-18 54 -18 187t18 187q26 80 88 122t152 42t152.5 -42t88.5 -122q18 -54 18 -187t-18 -187q-26 -80 -88.5 -122t-152.5 -42zM313 95q95 0 127 89q12 38 12 156t-12 156q-32 89 -127 89q-94 0 -126 -89q-12 -38 -12 -156t12 -156
q32 -89 126 -89zM168 876q0 10 9 10h49q9 0 12 -10q15 -46 75 -46t75 46q3 10 12 10h49q9 0 9 -10q-4 -55 -43.5 -88.5t-101.5 -33.5t-101.5 33.5t-43.5 88.5z" />
    <glyph glyph-name="obreve" unicode="&#x14f;" horiz-adv-x="523" 
d="M262 -11q-74 0 -126.5 35t-72.5 98q-16 48 -16 119t16 119q20 63 72.5 98t126.5 35q73 0 125.5 -35t72.5 -98q16 -48 16 -119t-16 -119q-20 -63 -72.5 -98t-125.5 -35zM262 89q68 0 90 63q10 30 10 89t-10 89q-22 63 -90 63t-91 -63q-10 -30 -10 -89t10 -89
q23 -63 91 -63zM116 675q0 10 9 10h49q9 0 12 -10q15 -45 75 -45t75 45q3 10 12 10h49q9 0 9 -10q-4 -54 -43 -87.5t-102 -33.5t-102 33.5t-43 87.5z" />
    <glyph glyph-name="Ohungarumlaut" unicode="&#x150;" horiz-adv-x="627" 
d="M313 -11q-90 0 -152 42t-88 122q-18 54 -18 187t18 187q26 80 88 122t152 42t152.5 -42t88.5 -122q18 -54 18 -187t-18 -187q-26 -80 -88.5 -122t-152.5 -42zM313 95q95 0 127 89q12 38 12 156t-12 156q-32 89 -127 89q-94 0 -126 -89q-12 -38 -12 -156t12 -156
q32 -89 126 -89zM408 763h-63q-11 0 -5 10l65 107q6 10 17 10h78q4 0 5.5 -3t-1.5 -7l-77 -107q-7 -10 -19 -10zM250 763h-63q-11 0 -5 10l65 107q6 10 17 10h78q4 0 5.5 -3t-1.5 -7l-77 -107q-7 -10 -19 -10z" />
    <glyph glyph-name="ohungarumlaut" unicode="&#x151;" horiz-adv-x="523" 
d="M262 -11q-74 0 -126.5 35t-72.5 98q-16 48 -16 119t16 119q20 63 72.5 98t126.5 35q73 0 125.5 -35t72.5 -98q16 -48 16 -119t-16 -119q-20 -63 -72.5 -98t-125.5 -35zM262 89q68 0 90 63q10 30 10 89t-10 89q-22 63 -90 63t-91 -63q-10 -30 -10 -89t10 -89
q23 -63 91 -63zM369 555h-65q-10 0 -6 10l65 125q4 10 16 10h78q11 0 5 -10l-77 -125q-6 -10 -16 -10zM211 555h-65q-10 0 -6 10l65 125q4 10 16 10h78q11 0 5 -10l-77 -125q-6 -10 -16 -10z" />
    <glyph glyph-name="OE" unicode="&#x152;" horiz-adv-x="947" 
d="M888 0h-426q-10 0 -10 10v27h-1q-49 -48 -138 -48q-90 0 -152 42t-88 122q-18 54 -18 187t18 187q26 80 88 122t152 42q89 0 138 -48h1v27q0 10 10 10h426q10 0 10 -10v-86q0 -10 -10 -10h-312q-6 0 -6 -6v-166q0 -6 6 -6h263q10 0 10 -10v-86q0 -10 -10 -10h-263
q-6 0 -6 -6v-172q0 -6 6 -6h312q10 0 10 -10v-86q0 -10 -10 -10zM313 95q95 0 127 89q12 38 12 156t-12 156q-32 89 -127 89q-94 0 -126 -89q-12 -38 -12 -156t12 -156q32 -89 126 -89z" />
    <glyph glyph-name="oe" unicode="&#x153;" horiz-adv-x="835" 
d="M580 -11q-105 0 -159 66h-2q-55 -66 -157 -66q-74 0 -126.5 35t-72.5 98q-16 48 -16 119t16 119q20 63 72.5 98t126.5 35q100 0 156 -63h2q52 63 155 63q73 0 125 -35.5t72 -97.5q16 -48 16 -145q0 -10 -11 -10h-297q-6 0 -6 -6q0 -19 7 -37q25 -73 108 -73q71 0 113 46
q8 8 15 2l59 -52q7 -6 1 -14q-70 -82 -197 -82zM675 295q0 23 -6 41q-10 29 -35 45.5t-59 16.5q-74 0 -95 -62q-6 -18 -6 -41q0 -6 6 -6h189q6 0 6 6zM262 89q68 0 90 63q10 30 10 89t-10 89q-22 63 -90 63t-91 -63q-10 -30 -10 -89t10 -89q23 -63 91 -63z" />
    <glyph glyph-name="Racute" unicode="&#x154;" horiz-adv-x="619" 
d="M572 0h-111q-11 0 -15 10l-130 265h-117q-6 0 -6 -6v-259q0 -10 -10 -10h-98q-10 0 -10 10v660q0 10 10 10h263q94 0 155 -57q62 -57 62 -146q0 -66 -34.5 -115.5t-94.5 -71.5l143 -277q3 -5 0.5 -9t-7.5 -4zM199 381h145q47 0 75.5 26.5t28.5 69.5q0 44 -28.5 70.5
t-75.5 26.5h-145q-6 0 -6 -6v-181q0 -6 6 -6zM303 761h-71q-4 0 -5.5 3t1.5 7l88 107q7 10 19 10h98q5 0 7 -3t-2 -7l-117 -109q-8 -8 -18 -8z" />
    <glyph glyph-name="racute" unicode="&#x155;" horiz-adv-x="423" 
d="M175 0h-92q-10 0 -10 10v462q0 10 10 10h92q10 0 10 -10v-41h1q39 62 125 62q61 0 101 -40q7 -7 2 -14l-53 -67q-6 -8 -14 -2q-37 23 -71 23q-91 0 -91 -122v-261q0 -10 -10 -10zM234 555h-68q-10 0 -6 10l75 125q6 10 18 10h91q5 0 6.5 -3t-1.5 -7l-95 -125
q-9 -10 -20 -10z" />
    <glyph glyph-name="Rcommaaccent" unicode="&#x156;" horiz-adv-x="619" 
d="M572 0h-111q-11 0 -15 10l-130 265h-117q-6 0 -6 -6v-259q0 -10 -10 -10h-98q-10 0 -10 10v660q0 10 10 10h263q94 0 155 -57q62 -57 62 -146q0 -66 -34.5 -115.5t-94.5 -71.5l143 -277q3 -5 0.5 -9t-7.5 -4zM199 381h145q47 0 75.5 26.5t28.5 69.5q0 44 -28.5 70.5
t-75.5 26.5h-145q-6 0 -6 -6v-181q0 -6 6 -6zM269 -228q-10 0 -10 11v153q0 10 10 10h83q10 0 10 -10v-69q0 -12 -7 -19l-71 -69q-7 -7 -15 -7z" />
    <glyph glyph-name="rcommaaccent" unicode="&#x157;" horiz-adv-x="423" 
d="M175 0h-92q-10 0 -10 10v462q0 10 10 10h92q10 0 10 -10v-41h1q39 62 125 62q61 0 101 -40q7 -7 2 -14l-53 -67q-6 -8 -14 -2q-37 23 -71 23q-91 0 -91 -122v-261q0 -10 -10 -10zM88 -228q-10 0 -10 11v153q0 10 10 10h83q10 0 10 -10v-69q0 -12 -7 -19l-71 -69
q-7 -7 -15 -7z" />
    <glyph glyph-name="Rcaron" unicode="&#x158;" horiz-adv-x="619" 
d="M572 0h-111q-11 0 -15 10l-130 265h-117q-6 0 -6 -6v-259q0 -10 -10 -10h-98q-10 0 -10 10v660q0 10 10 10h263q94 0 155 -57q62 -57 62 -146q0 -66 -34.5 -115.5t-94.5 -71.5l143 -277q3 -5 0.5 -9t-7.5 -4zM199 381h145q47 0 75.5 26.5t28.5 69.5q0 44 -28.5 70.5
t-75.5 26.5h-145q-6 0 -6 -6v-181q0 -6 6 -6zM319 751h-60q-11 0 -18 10l-98 125q-8 10 4 10h63q11 0 21 -10l57 -59h2l57 59q10 10 21 10h63q12 0 4 -10l-98 -125q-7 -10 -18 -10z" />
    <glyph glyph-name="rcaron" unicode="&#x159;" horiz-adv-x="423" 
d="M262 553h-60q-11 0 -18 10l-98 125q-3 4 -1.5 7t5.5 3h63q11 0 21 -10l57 -59h2l57 59q10 10 21 10h63q4 0 5.5 -3t-1.5 -7l-98 -125q-7 -10 -18 -10zM175 0h-92q-10 0 -10 10v462q0 10 10 10h92q10 0 10 -10v-41h1q39 62 125 62q61 0 101 -40q7 -7 2 -14l-53 -67
q-6 -8 -14 -2q-37 23 -71 23q-91 0 -91 -122v-261q0 -10 -10 -10z" />
    <glyph glyph-name="Sacute" unicode="&#x15a;" horiz-adv-x="587" 
d="M295 -11q-75 0 -141 25q-68 26 -109 65q-8 8 -2 15l62 72q7 8 14 1q91 -72 185 -72q59 0 93.5 26.5t34.5 71.5q0 40 -28.5 62.5t-95.5 31.5l-36 5q-205 28 -205 194q0 93 62.5 149t167.5 56q129 0 220 -68q7 -6 2 -14l-48 -74q-6 -8 -14 -3q-82 53 -163 53
q-50 0 -78.5 -24.5t-28.5 -66.5q0 -74 125 -92l36 -5q203 -29 203 -197q0 -96 -67.5 -153.5t-188.5 -57.5zM322 761h-71q-12 0 -4 10l88 107q7 10 19 10h98q5 0 6.5 -3t-1.5 -7l-117 -109q-8 -8 -18 -8z" />
    <glyph glyph-name="sacute" unicode="&#x15b;" horiz-adv-x="498" 
d="M258 -11q-125 0 -207 76q-7 7 0 14l57 60q7 7 14 0q27 -24 66 -39.5t75 -15.5q42 0 65.5 15t23.5 42q0 24 -18 36.5t-62 16.5l-52 5q-148 15 -148 142q0 72 49 112t138 40q105 0 181 -59q8 -6 2 -14l-49 -59q-6 -7 -14 -2q-56 40 -126 40q-34 0 -53.5 -14t-19.5 -36
q0 -23 18 -35t61 -16l52 -5q73 -7 111 -43.5t38 -97.5q0 -75 -53 -119t-149 -44zM273 555h-68q-10 0 -6 10l75 125q6 10 18 10h91q5 0 6.5 -3t-1.5 -7l-95 -125q-9 -10 -20 -10z" />
    <glyph glyph-name="Scircumflex" unicode="&#x15c;" horiz-adv-x="587" 
d="M295 -11q-75 0 -141 25q-68 26 -109 65q-8 8 -2 15l62 72q7 8 14 1q91 -72 185 -72q59 0 93.5 26.5t34.5 71.5q0 40 -28.5 62.5t-95.5 31.5l-36 5q-205 28 -205 194q0 93 62.5 149t167.5 56q129 0 220 -68q7 -6 2 -14l-48 -74q-6 -8 -14 -3q-82 53 -163 53
q-50 0 -78.5 -24.5t-28.5 -66.5q0 -74 125 -92l36 -5q203 -29 203 -197q0 -96 -67.5 -153.5t-188.5 -57.5zM444 753h-63q-11 0 -21 10l-57 59h-2l-57 -59q-10 -10 -21 -10h-63q-4 0 -5.5 3t1.5 7l98 125q7 10 18 10h60q11 0 18 -10l98 -125q3 -4 1.5 -7t-5.5 -3z" />
    <glyph glyph-name="scircumflex" unicode="&#x15d;" horiz-adv-x="498" 
d="M399 555h-63q-11 0 -21 10l-57 59h-2l-57 -59q-10 -10 -21 -10h-63q-4 0 -5.5 3t1.5 7l98 125q7 10 18 10h60q11 0 18 -10l98 -125q3 -4 1.5 -7t-5.5 -3zM258 -11q-125 0 -207 76q-7 7 0 14l57 60q7 7 14 0q27 -24 66 -39.5t75 -15.5q42 0 65.5 15t23.5 42q0 24 -18 36.5
t-62 16.5l-52 5q-148 15 -148 142q0 72 49 112t138 40q105 0 181 -59q8 -6 2 -14l-49 -59q-6 -7 -14 -2q-56 40 -126 40q-34 0 -53.5 -14t-19.5 -36q0 -23 18 -35t61 -16l52 -5q73 -7 111 -43.5t38 -97.5q0 -75 -53 -119t-149 -44z" />
    <glyph glyph-name="Scedilla" unicode="&#x15e;" horiz-adv-x="587" 
d="M290 -155h-78q-10 0 -7 10l55 135q-62 6 -120 30.5t-95 58.5q-8 8 -2 15l62 72q7 8 14 1q91 -72 185 -72q59 0 93.5 26.5t34.5 71.5q0 40 -28.5 62.5t-95.5 31.5l-36 5q-205 28 -205 194q0 93 62.5 149t167.5 56q129 0 220 -68q7 -6 2 -14l-48 -74q-6 -8 -14 -3
q-82 53 -163 53q-50 0 -78.5 -24.5t-28.5 -66.5q0 -74 125 -92l36 -5q203 -29 203 -197q0 -85 -52.5 -140t-149.5 -68l-43 -137q-3 -10 -16 -10z" />
    <glyph glyph-name="scedilla" unicode="&#x15f;" horiz-adv-x="498" 
d="M247 -155h-78q-10 0 -7 10l55 136q-99 12 -166 74q-7 7 0 14l57 60q7 7 14 0q27 -24 66 -39.5t75 -15.5q42 0 65.5 15t23.5 42q0 24 -18 36.5t-62 16.5l-52 5q-148 15 -148 142q0 72 49 112t138 40q105 0 181 -59q8 -6 2 -14l-49 -59q-6 -7 -14 -2q-56 40 -126 40
q-34 0 -53.5 -14t-19.5 -36q0 -23 18 -35t61 -16l52 -5q73 -7 111 -43.5t38 -97.5q0 -65 -40.5 -107t-113.5 -52l-43 -138q-3 -10 -16 -10z" />
    <glyph glyph-name="Scaron" unicode="&#x160;" horiz-adv-x="587" 
d="M295 -11q-75 0 -141 25q-68 26 -109 65q-8 8 -2 15l62 72q7 8 14 1q91 -72 185 -72q59 0 93.5 26.5t34.5 71.5q0 40 -28.5 62.5t-95.5 31.5l-36 5q-205 28 -205 194q0 93 62.5 149t167.5 56q129 0 220 -68q7 -6 2 -14l-48 -74q-6 -8 -14 -3q-82 53 -163 53
q-50 0 -78.5 -24.5t-28.5 -66.5q0 -74 125 -92l36 -5q203 -29 203 -197q0 -96 -67.5 -153.5t-188.5 -57.5zM332 751h-60q-11 0 -18 10l-98 125q-3 4 -1.5 7t5.5 3h63q11 0 21 -10l57 -59h2l57 59q10 10 21 10h63q4 0 5.5 -3t-1.5 -7l-98 -125q-7 -10 -18 -10z" />
    <glyph glyph-name="scaron" unicode="&#x161;" horiz-adv-x="498" 
d="M287 553h-60q-11 0 -18 10l-98 125q-3 4 -1.5 7t5.5 3h63q11 0 21 -10l57 -59h2l57 59q10 10 21 10h63q4 0 5.5 -3t-1.5 -7l-98 -125q-7 -10 -18 -10zM258 -11q-125 0 -207 76q-7 7 0 14l57 60q7 7 14 0q27 -24 66 -39.5t75 -15.5q42 0 65.5 15t23.5 42q0 24 -18 36.5
t-62 16.5l-52 5q-148 15 -148 142q0 72 49 112t138 40q105 0 181 -59q8 -6 2 -14l-49 -59q-6 -7 -14 -2q-56 40 -126 40q-34 0 -53.5 -14t-19.5 -36q0 -23 18 -35t61 -16l52 -5q73 -7 111 -43.5t38 -97.5q0 -75 -53 -119t-149 -44z" />
    <glyph glyph-name="uni0162" unicode="&#x162;" horiz-adv-x="550" 
d="M233 -228q-10 0 -10 11v153q0 10 10 10h83q10 0 10 -10v-69q0 -12 -7 -19l-71 -69q-7 -7 -15 -7zM324 0h-98q-10 0 -10 10v558q0 6 -6 6h-178q-10 0 -10 10v86q0 10 10 10h486q10 0 10 -10v-86q0 -10 -10 -10h-178q-6 0 -6 -6v-558q0 -10 -10 -10z" />
    <glyph glyph-name="uni0163" unicode="&#x163;" horiz-adv-x="321" 
d="M139 -228q-10 0 -10 11v153q0 10 10 10h83q10 0 10 -10v-69q0 -12 -7 -19l-71 -69q-7 -7 -15 -7zM262 -6h-48q-71 0 -102.5 34t-31.5 107v254q0 6 -6 6h-32q-10 0 -10 10v67q0 10 10 10h32q6 0 6 6v132q0 10 10 10h92q10 0 10 -10v-132q0 -6 6 -6h64q10 0 10 -10v-67
q0 -10 -10 -10h-64q-6 0 -6 -6v-250q0 -25 10.5 -35t34.5 -10h25q10 0 10 -10v-80q0 -10 -10 -10z" />
    <glyph glyph-name="Tcaron" unicode="&#x164;" horiz-adv-x="550" 
d="M304 751h-60q-11 0 -18 10l-98 125q-3 4 -1.5 7t5.5 3h63q11 0 21 -10l57 -59h2l57 59q10 10 21 10h63q4 0 5.5 -3t-1.5 -7l-98 -125q-7 -10 -18 -10zM324 0h-98q-10 0 -10 10v558q0 6 -6 6h-178q-10 0 -10 10v86q0 10 10 10h486q10 0 10 -10v-86q0 -10 -10 -10h-178
q-6 0 -6 -6v-558q0 -10 -10 -10z" />
    <glyph glyph-name="tcaron" unicode="&#x165;" horiz-adv-x="321" 
d="M262 -6h-48q-71 0 -102.5 34t-31.5 107v254q0 6 -6 6h-32q-10 0 -10 10v67q0 10 10 10h32q6 0 6 6v132q0 10 10 10h92q10 0 10 -10v-132q0 -6 6 -6h64q10 0 10 -10v-67q0 -10 -10 -10h-64q-6 0 -6 -6v-250q0 -25 10.5 -35t34.5 -10h25q10 0 10 -10v-80q0 -10 -10 -10z
M258 502q-10 0 -10 11v157q0 10 10 10h83q10 0 10 -10v-73q0 -12 -7 -19l-71 -69q-7 -7 -15 -7z" />
    <glyph glyph-name="Tbar" unicode="&#x166;" horiz-adv-x="550" 
d="M324 0h-98q-10 0 -10 10v320q0 6 -6 6h-100q-10 0 -10 10v78q0 10 10 10h100q6 0 6 6v128q0 6 -6 6h-178q-10 0 -10 10v86q0 10 10 10h486q10 0 10 -10v-86q0 -10 -10 -10h-178q-6 0 -6 -6v-128q0 -6 6 -6h100q10 0 10 -10v-78q0 -10 -10 -10h-100q-6 0 -6 -6v-320
q0 -10 -10 -10z" />
    <glyph glyph-name="tbar" unicode="&#x167;" horiz-adv-x="321" 
d="M262 -6h-48q-71 0 -102.5 34t-31.5 107v108q0 6 -6 6h-22q-10 0 -10 10v61q0 10 10 10h22q6 0 6 6v53q0 6 -6 6h-32q-10 0 -10 10v67q0 10 10 10h32q6 0 6 6v132q0 10 10 10h92q10 0 10 -10v-132q0 -6 6 -6h64q10 0 10 -10v-67q0 -10 -10 -10h-64q-6 0 -6 -6v-53
q0 -6 6 -6h53q10 0 10 -10v-61q0 -10 -10 -10h-53q-6 0 -6 -6v-104q0 -25 10.5 -35t34.5 -10h25q10 0 10 -10v-80q0 -10 -10 -10z" />
    <glyph glyph-name="Utilde" unicode="&#x168;" horiz-adv-x="643" 
d="M381 757q-29 0 -67 20q-33 18 -56 18q-30 0 -67 -31q-9 -8 -9 2v61q0 9 8 19q31 34 72 34q29 0 67 -20q33 -18 57 -18q29 0 66 31q9 8 9 -2v-61q0 -9 -8 -19q-31 -34 -72 -34zM321 95q61 0 97 39t36 107v429q0 10 10 10h98q10 0 10 -10v-431q0 -116 -70 -183t-181 -67
q-110 0 -180 67t-70 183v431q0 10 10 10h98q10 0 10 -10v-429q0 -68 36 -107t96 -39z" />
    <glyph glyph-name="utilde" unicode="&#x169;" horiz-adv-x="544" 
d="M461 0h-92q-10 0 -10 10v35h-1q-44 -56 -125 -56q-75 0 -120.5 50t-45.5 129v304q0 10 10 10h92q10 0 10 -10v-278q0 -49 23 -77t67 -28q42 0 66 28t24 76v279q0 10 10 10h92q10 0 10 -10v-462q0 -10 -10 -10zM330 561q-29 0 -67 20q-33 18 -56 18q-30 0 -67 -31
q-9 -8 -9 2v61q0 9 8 19q31 34 72 34q29 0 67 -20q33 -18 57 -18q29 0 66 31q9 7 9 -2v-61q0 -9 -8 -19q-31 -34 -72 -34z" />
    <glyph glyph-name="Umacron" unicode="&#x16a;" horiz-adv-x="643" 
d="M321 95q61 0 97 39t36 107v429q0 10 10 10h98q10 0 10 -10v-431q0 -116 -70 -183t-181 -67q-110 0 -180 67t-70 183v431q0 10 10 10h98q10 0 10 -10v-429q0 -68 36 -107t96 -39zM453 782h-263q-10 0 -10 10v61q0 10 10 10h263q10 0 10 -10v-61q0 -10 -10 -10z" />
    <glyph glyph-name="umacron" unicode="&#x16b;" horiz-adv-x="544" 
d="M461 0h-92q-10 0 -10 10v35h-1q-44 -56 -125 -56q-75 0 -120.5 50t-45.5 129v304q0 10 10 10h92q10 0 10 -10v-278q0 -49 23 -77t67 -28q42 0 66 28t24 76v279q0 10 10 10h92q10 0 10 -10v-462q0 -10 -10 -10zM402 587h-263q-10 0 -10 10v61q0 10 10 10h263q10 0 10 -10
v-61q0 -10 -10 -10z" />
    <glyph glyph-name="Ubreve" unicode="&#x16c;" horiz-adv-x="643" 
d="M176 876q0 10 9 10h49q9 0 12 -10q15 -46 75 -46t75 46q3 10 12 10h49q9 0 9 -10q-4 -55 -43.5 -88.5t-101.5 -33.5t-101.5 33.5t-43.5 88.5zM321 95q61 0 97 39t36 107v429q0 10 10 10h98q10 0 10 -10v-431q0 -116 -70 -183t-181 -67q-110 0 -180 67t-70 183v431
q0 10 10 10h98q10 0 10 -10v-429q0 -68 36 -107t96 -39z" />
    <glyph glyph-name="ubreve" unicode="&#x16d;" horiz-adv-x="544" 
d="M461 0h-92q-10 0 -10 10v35h-1q-44 -56 -125 -56q-75 0 -120.5 50t-45.5 129v304q0 10 10 10h92q10 0 10 -10v-278q0 -49 23 -77t67 -28q42 0 66 28t24 76v279q0 10 10 10h92q10 0 10 -10v-462q0 -10 -10 -10zM126 675q0 10 9 10h49q9 0 12 -10q15 -45 75 -45t75 45
q3 10 12 10h49q9 0 9 -10q-4 -54 -43 -87.5t-102 -33.5t-102 33.5t-43 87.5z" />
    <glyph glyph-name="Uring" unicode="&#x16e;" horiz-adv-x="643" 
d="M321 95q61 0 97 39t36 107v429q0 10 10 10h98q10 0 10 -10v-431q0 -116 -70 -183t-181 -67q-110 0 -180 67t-70 183v431q0 10 10 10h98q10 0 10 -10v-429q0 -68 36 -107t96 -39zM392 749q-28 -28 -71 -28t-71 28t-28 71t28 71q29 29 71 29t71 -29q28 -28 28 -71t-28 -71z
M286 783q14 -14 35 -14t35 14q14 15 14 37t-14 36q-14 15 -35 15t-35 -15q-14 -14 -14 -36t14 -37z" />
    <glyph glyph-name="uring" unicode="&#x16f;" horiz-adv-x="544" 
d="M461 0h-92q-10 0 -10 10v35h-1q-44 -56 -125 -56q-75 0 -120.5 50t-45.5 129v304q0 10 10 10h92q10 0 10 -10v-278q0 -49 23 -77t67 -28q42 0 66 28t24 76v279q0 10 10 10h92q10 0 10 -10v-462q0 -10 -10 -10zM342 557q-28 -28 -71 -28t-71 28t-28 72q0 43 28 71
q29 29 71 29t71 -29q28 -28 28 -71q0 -44 -28 -72zM236 592q14 -14 35 -14t35 14q14 15 14 37t-14 36q-14 15 -35 15t-35 -15q-14 -14 -14 -36t14 -37z" />
    <glyph glyph-name="Uhungarumlaut" unicode="&#x170;" horiz-adv-x="643" 
d="M424 763h-63q-11 0 -5 10l65 107q6 10 17 10h78q4 0 5.5 -3t-1.5 -7l-77 -107q-7 -10 -19 -10zM266 763h-63q-11 0 -5 10l65 107q6 10 17 10h78q4 0 5.5 -3t-1.5 -7l-77 -107q-7 -10 -19 -10zM321 95q61 0 97 39t36 107v429q0 10 10 10h98q10 0 10 -10v-431
q0 -116 -70 -183t-181 -67q-110 0 -180 67t-70 183v431q0 10 10 10h98q10 0 10 -10v-429q0 -68 36 -107t96 -39z" />
    <glyph glyph-name="uhungarumlaut" unicode="&#x171;" horiz-adv-x="544" 
d="M461 0h-92q-10 0 -10 10v35h-1q-44 -56 -125 -56q-75 0 -120.5 50t-45.5 129v304q0 10 10 10h92q10 0 10 -10v-278q0 -49 23 -77t67 -28q42 0 66 28t24 76v279q0 10 10 10h92q10 0 10 -10v-462q0 -10 -10 -10zM378 555h-65q-10 0 -6 10l65 125q4 10 16 10h78q11 0 5 -10
l-77 -125q-6 -10 -16 -10zM220 555h-65q-10 0 -6 10l65 125q4 10 16 10h78q11 0 5 -10l-77 -125q-6 -10 -16 -10z" />
    <glyph glyph-name="Uogonek" unicode="&#x172;" horiz-adv-x="643" 
d="M333 -190q-45 0 -70.5 23t-25.5 65q0 40 44 93q-97 11 -153.5 77.5t-56.5 170.5v431q0 10 10 10h98q10 0 10 -10v-429q0 -68 36 -107t96 -39q61 0 97 39t36 107v429q0 10 10 10h98q10 0 10 -10v-431q0 -96 -50.5 -159.5t-136.5 -84.5q-57 -47 -57 -78q0 -26 24 -26
q7 0 25 8q8 4 13 -4l24 -50q5 -8 -4 -13q-31 -22 -77 -22z" />
    <glyph glyph-name="uogonek" unicode="&#x173;" horiz-adv-x="544" 
d="M387 -190q-43 0 -69 23.5t-26 64.5q0 30 16 54t53 51q-2 2 -2 7v35h-1q-44 -56 -125 -56q-75 0 -120.5 50t-45.5 129v304q0 10 10 10h92q10 0 10 -10v-278q0 -49 23 -77t67 -28q42 0 66 28t24 76v279q0 10 10 10h92q10 0 10 -10v-462q0 -7 -5 -10q-84 -50 -84 -83
q0 -26 26 -26q6 0 24 8q8 4 13 -4l24 -50q5 -8 -4 -13q-31 -22 -78 -22z" />
    <glyph glyph-name="Wcircumflex" unicode="&#x174;" horiz-adv-x="827" 
d="M635 0h-76q-9 0 -12 10l-130 465h-2l-131 -465q-3 -10 -12 -10h-75q-9 0 -12 10l-167 660q-1 10 8 10h94q11 0 12 -10l108 -458h2l127 458q3 10 12 10h70q9 0 12 -10l130 -458h2l105 458q1 10 12 10h93q9 0 8 -10l-166 -660q-1 -10 -12 -10zM557 753h-63q-11 0 -21 10
l-57 59h-2l-57 -59q-10 -10 -21 -10h-63q-12 0 -4 10l98 125q7 10 18 10h60q11 0 18 -10l98 -125q8 -10 -4 -10z" />
    <glyph glyph-name="wcircumflex" unicode="&#x175;" horiz-adv-x="753" 
d="M521 555h-63q-11 0 -21 10l-57 59h-2l-57 -59q-10 -10 -21 -10h-63q-4 0 -5.5 3t1.5 7l98 125q7 10 18 10h60q11 0 18 -10l98 -125q3 -4 1.5 -7t-5.5 -3zM568 0h-82q-9 0 -12 10l-93 308h-2l-94 -308q-3 -10 -12 -10h-82q-9 0 -12 10l-152 462q-3 10 7 10h96q10 0 13 -10
l93 -318h2l92 318q3 10 13 10h72q10 0 13 -10l98 -318h2l88 318q3 10 13 10h96q10 0 7 -10l-152 -462q-3 -10 -12 -10z" />
    <glyph glyph-name="Ycircumflex" unicode="&#x176;" horiz-adv-x="536" 
d="M321 0h-98q-10 0 -10 10v268l-197 392q-4 10 8 10h101q10 0 14 -10l133 -264h3l134 264q4 10 14 10h97q12 0 8 -10l-197 -392v-268q0 -10 -10 -10zM413 753h-63q-11 0 -21 10l-57 59h-2l-57 -59q-10 -10 -21 -10h-63q-12 0 -4 10l98 125q7 10 18 10h60q11 0 18 -10
l98 -125q8 -10 -4 -10z" />
    <glyph glyph-name="ycircumflex" unicode="&#x177;" horiz-adv-x="485" 
d="M124 -180h-31q-10 0 -10 10v80q0 10 10 10h18q28 0 44.5 13t27.5 44l14 41l-176 454q-3 10 8 10h99q9 0 12 -10l109 -315h2l104 315q3 10 12 10h95q11 0 8 -10l-184 -502q-32 -86 -67 -117q-34 -33 -95 -33zM391 555h-63q-11 0 -21 10l-57 59h-2l-57 -59q-10 -10 -21 -10
h-63q-4 0 -5.5 3t1.5 7l98 125q7 10 18 10h60q11 0 18 -10l98 -125q3 -4 1.5 -7t-5.5 -3z" />
    <glyph glyph-name="Ydieresis" unicode="&#x178;" horiz-adv-x="536" 
d="M321 0h-98q-10 0 -10 10v268l-197 392q-4 10 8 10h101q10 0 14 -10l133 -264h3l134 264q4 10 14 10h97q12 0 8 -10l-197 -392v-268q0 -10 -10 -10zM408 769h-73q-10 0 -10 10v87q0 10 10 10h73q10 0 10 -10v-87q0 -10 -10 -10zM208 769h-73q-10 0 -10 10v87q0 10 10 10
h73q10 0 10 -10v-87q0 -10 -10 -10z" />
    <glyph glyph-name="Zacute" unicode="&#x179;" horiz-adv-x="532" 
d="M478 0h-423q-10 0 -10 10v86q0 5 3 11l307 465v2h-289q-10 0 -10 10v86q0 10 10 10h412q10 0 10 -10v-86q0 -6 -3 -10l-307 -466v-2h300q10 0 10 -10v-86q0 -10 -10 -10zM281 761h-71q-4 0 -5.5 3t1.5 7l88 107q7 10 19 10h98q5 0 7 -3t-2 -7l-117 -109q-8 -8 -18 -8z
" />
    <glyph glyph-name="zacute" unicode="&#x17a;" horiz-adv-x="485" 
d="M423 0h-361q-10 0 -10 10v73q0 5 3 10l246 289v2h-226q-10 0 -10 10v78q0 10 10 10h348q10 0 10 -10v-78q0 -6 -3 -10l-243 -284v-2h236q10 0 10 -10v-78q0 -10 -10 -10zM265 555h-68q-10 0 -6 10l75 125q6 10 18 10h91q5 0 6.5 -3t-1.5 -7l-95 -125q-9 -10 -20 -10z" />
    <glyph glyph-name="Zdotaccent" unicode="&#x17b;" horiz-adv-x="532" 
d="M478 0h-423q-10 0 -10 10v86q0 5 3 11l307 465v2h-289q-10 0 -10 10v86q0 10 10 10h412q10 0 10 -10v-86q0 -6 -3 -10l-307 -466v-2h300q10 0 10 -10v-86q0 -10 -10 -10zM312 769h-93q-10 0 -10 10v87q0 10 10 10h93q10 0 10 -10v-87q0 -10 -10 -10z" />
    <glyph glyph-name="zdotaccent" unicode="&#x17c;" horiz-adv-x="485" 
d="M423 0h-361q-10 0 -10 10v73q0 5 3 10l246 289v2h-226q-10 0 -10 10v78q0 10 10 10h348q10 0 10 -10v-78q0 -6 -3 -10l-243 -284v-2h236q10 0 10 -10v-78q0 -10 -10 -10zM292 573h-93q-10 0 -10 10v87q0 10 10 10h93q10 0 10 -10v-87q0 -10 -10 -10z" />
    <glyph glyph-name="Zcaron" unicode="&#x17d;" horiz-adv-x="532" 
d="M296 751h-60q-11 0 -18 10l-98 125q-3 4 -1.5 7t5.5 3h63q11 0 21 -10l57 -59h2l57 59q10 10 21 10h63q4 0 5.5 -3t-1.5 -7l-98 -125q-7 -10 -18 -10zM478 0h-423q-10 0 -10 10v86q0 5 3 11l307 465v2h-289q-10 0 -10 10v86q0 10 10 10h412q10 0 10 -10v-86q0 -6 -3 -10
l-307 -466v-2h300q10 0 10 -10v-86q0 -10 -10 -10z" />
    <glyph glyph-name="zcaron" unicode="&#x17e;" horiz-adv-x="485" 
d="M423 0h-361q-10 0 -10 10v73q0 5 3 10l246 289v2h-226q-10 0 -10 10v78q0 10 10 10h348q10 0 10 -10v-78q0 -6 -3 -10l-243 -284v-2h236q10 0 10 -10v-78q0 -10 -10 -10zM275 553h-60q-11 0 -18 10l-98 125q-8 10 4 10h63q11 0 21 -10l57 -59h2l57 59q10 10 21 10h63
q12 0 4 -10l-98 -125q-7 -10 -18 -10z" />
    <glyph glyph-name="florin" unicode="&#x192;" 
d="M439 324h-100l-52 -342q-14 -88 -53 -125t-118 -37h-28q-10 0 -10 10v77q0 10 10 10h17q37 0 52.5 13t21.5 50l52 344h-65q-10 0 -10 10v65q0 10 10 10h78l18 113q13 83 52.5 120.5t116.5 37.5h30q10 0 10 -10v-77q0 -10 -10 -10h-20q-32 0 -49 -14t-22 -47l-18 -113h87
q10 0 10 -10v-65q0 -10 -10 -10z" />
    <glyph glyph-name="Scommaaccent" unicode="&#x218;" horiz-adv-x="587" 
d="M295 -11q-75 0 -141 25q-68 26 -109 65q-8 8 -2 15l62 72q7 8 14 1q91 -72 185 -72q59 0 93.5 26.5t34.5 71.5q0 40 -28.5 62.5t-95.5 31.5l-36 5q-205 28 -205 194q0 93 62.5 149t167.5 56q129 0 220 -68q7 -6 2 -14l-48 -74q-6 -8 -14 -3q-82 53 -163 53
q-50 0 -78.5 -24.5t-28.5 -66.5q0 -74 125 -92l36 -5q203 -29 203 -197q0 -96 -67.5 -153.5t-188.5 -57.5zM257 -228q-10 0 -10 11v153q0 10 10 10h83q10 0 10 -10v-69q0 -12 -7 -19l-71 -69q-7 -7 -15 -7z" />
    <glyph glyph-name="scommaaccent" unicode="&#x219;" horiz-adv-x="498" 
d="M258 -11q-125 0 -207 76q-7 7 0 14l57 60q7 7 14 0q27 -24 66 -39.5t75 -15.5q42 0 65.5 15t23.5 42q0 24 -18 36.5t-62 16.5l-52 5q-148 15 -148 142q0 72 49 112t138 40q105 0 181 -59q8 -6 2 -14l-49 -59q-6 -7 -14 -2q-56 40 -126 40q-34 0 -53.5 -14t-19.5 -36
q0 -23 18 -35t61 -16l52 -5q73 -7 111 -43.5t38 -97.5q0 -75 -53 -119t-149 -44zM214 -228q-10 0 -10 11v153q0 10 10 10h83q10 0 10 -10v-69q0 -12 -7 -19l-71 -69q-7 -7 -15 -7z" />
    <glyph glyph-name="uni021A" unicode="&#x21a;" horiz-adv-x="550" 
d="M233 -228q-10 0 -10 11v153q0 10 10 10h83q10 0 10 -10v-69q0 -12 -7 -19l-71 -69q-7 -7 -15 -7zM324 0h-98q-10 0 -10 10v558q0 6 -6 6h-178q-10 0 -10 10v86q0 10 10 10h486q10 0 10 -10v-86q0 -10 -10 -10h-178q-6 0 -6 -6v-558q0 -10 -10 -10z" />
    <glyph glyph-name="uni021B" unicode="&#x21b;" horiz-adv-x="321" 
d="M139 -228q-10 0 -10 11v153q0 10 10 10h83q10 0 10 -10v-69q0 -12 -7 -19l-71 -69q-7 -7 -15 -7zM262 -6h-48q-71 0 -102.5 34t-31.5 107v254q0 6 -6 6h-32q-10 0 -10 10v67q0 10 10 10h32q6 0 6 6v132q0 10 10 10h92q10 0 10 -10v-132q0 -6 6 -6h64q10 0 10 -10v-67
q0 -10 -10 -10h-64q-6 0 -6 -6v-250q0 -25 10.5 -35t34.5 -10h25q10 0 10 -10v-80q0 -10 -10 -10z" />
    <glyph glyph-name="dotlessj" unicode="&#x237;" horiz-adv-x="258" 
d="M23 -180h-28q-10 0 -10 10v80q0 10 10 10h22q31 0 43.5 12.5t12.5 44.5v495q0 10 10 10h92q10 0 10 -10v-493q0 -159 -162 -159z" />
    <glyph glyph-name="circumflex" unicode="&#x2c6;" horiz-adv-x="422" 
d="M354 555h-63q-11 0 -21 10l-57 59h-2l-57 -59q-10 -10 -21 -10h-63q-12 0 -4 10l98 125q7 10 18 10h60q11 0 18 -10l98 -125q8 -10 -4 -10z" />
    <glyph glyph-name="caron" unicode="&#x2c7;" horiz-adv-x="422" 
d="M242 553h-60q-11 0 -18 10l-98 125q-8 10 4 10h63q11 0 21 -10l57 -59h2l57 59q10 10 21 10h63q12 0 4 -10l-98 -125q-7 -10 -18 -10z" />
    <glyph glyph-name="uni02C9" unicode="&#x2c9;" horiz-adv-x="422" 
d="M342 782h-263q-10 0 -10 10v61q0 10 10 10h263q10 0 10 -10v-61q0 -10 -10 -10z" />
    <glyph glyph-name="breve" unicode="&#x2d8;" horiz-adv-x="422" 
d="M66 675q0 10 9 10h49q9 0 12 -10q15 -45 75 -45t75 45q3 10 12 10h49q9 0 9 -10q-4 -54 -43 -87.5t-102 -33.5t-102 33.5t-43 87.5z" />
    <glyph glyph-name="dotaccent" unicode="&#x2d9;" horiz-adv-x="422" 
d="M257 573h-93q-10 0 -10 10v87q0 10 10 10h93q10 0 10 -10v-87q0 -10 -10 -10z" />
    <glyph glyph-name="ring" unicode="&#x2da;" horiz-adv-x="422" 
d="M282 557q-28 -28 -71 -28t-71 28t-28 72q0 43 28 71q29 29 71 29t71 -29q28 -28 28 -71q0 -44 -28 -72zM176 592q14 -14 35 -14t35 14q14 15 14 37t-14 36q-14 15 -35 15t-35 -15q-14 -14 -14 -36t14 -37z" />
    <glyph glyph-name="ogonek" unicode="&#x2db;" horiz-adv-x="422" 
d="M200 -190q-45 0 -70.5 23t-25.5 65q0 57 66 102q13 10 25 10h81q5 0 5.5 -4t-3.5 -6q-83 -48 -83 -83q0 -26 24 -26q7 0 25 8q8 4 13 -4l24 -50q5 -8 -4 -13q-31 -22 -77 -22z" />
    <glyph glyph-name="tilde" unicode="&#x2dc;" horiz-adv-x="422" 
d="M268 561q-29 0 -67 20q-33 18 -56 18q-30 0 -67 -31q-9 -8 -9 2v61q0 9 8 19q31 34 72 34q29 0 67 -20q33 -18 57 -18q29 0 66 31q9 7 9 -2v-61q0 -9 -8 -19q-31 -34 -72 -34z" />
    <glyph glyph-name="hungarumlaut" unicode="&#x2dd;" horiz-adv-x="422" 
d="M289 555h-65q-10 0 -6 10l65 125q4 10 16 10h78q11 0 5 -10l-77 -125q-6 -10 -16 -10zM131 555h-65q-10 0 -6 10l65 125q4 10 16 10h78q11 0 5 -10l-77 -125q-6 -10 -16 -10z" />
    <glyph glyph-name="uni0374" unicode="&#x374;" horiz-adv-x="484" 
d="M210 469h-79q-14 0 -6 14l112 228q6 11 16 11h117q13 0 5 -11l-148 -232q-7 -10 -17 -10z" />
    <glyph glyph-name="uni0375" unicode="&#x375;" horiz-adv-x="484" 
d="M289 64h79q14 0 6 -14l-112 -228q-5 -11 -16 -11h-117q-13 0 -5 11l148 232q7 10 17 10z" />
    <glyph glyph-name="uni037E" unicode="&#x37e;" horiz-adv-x="260" 
d="M180 360h-100q-10 0 -10 10v102q0 10 10 10h100q10 0 10 -10v-102q0 -10 -10 -10zM73 -101v213q0 10 10 10h94q10 0 10 -10v-109q0 -13 -6 -20l-84 -87q-7 -7 -14 -7q-10 0 -10 10z" />
    <glyph glyph-name="tonos" unicode="&#x384;" horiz-adv-x="392" 
d="M193 555h-68q-9 0 -6 10l33 119q4 16 20 16h102q9 0 5 -10l-66 -125q-4 -10 -20 -10z" />
    <glyph glyph-name="dieresistonos" unicode="&#x385;" horiz-adv-x="536" 
d="M462 568h-77q-10 0 -10 10v87q0 10 10 10h77q10 0 10 -10v-87q0 -10 -10 -10zM152 568h-77q-10 0 -10 10v87q0 10 10 10h77q10 0 10 -10v-87q0 -10 -10 -10zM275 555h-63q-7 0 -6 10l21 119q3 16 20 16h92q9 0 5 -10l-49 -125q-4 -10 -20 -10z" />
    <glyph glyph-name="Alphatonos" unicode="&#x386;" horiz-adv-x="617" 
d="M21 10l233 660q3 10 13 10h92q10 0 13 -10l230 -660q3 -10 -7 -10h-98q-10 0 -13 10l-45 132h-256l-45 -132q-3 -10 -13 -10h-97q-10 0 -7 10zM310 511l-91 -264h184l-90 264h-3zM83 535h-61q-9 0 -6 10l32 119q4 16 20 16h96q9 0 5 -10l-66 -125q-4 -10 -20 -10z" />
    <glyph glyph-name="anoteleia" unicode="&#x387;" horiz-adv-x="252" 
d="M176 204h-100q-10 0 -10 10v102q0 10 10 10h100q10 0 10 -10v-102q0 -10 -10 -10z" />
    <glyph glyph-name="Epsilontonos" unicode="&#x388;" horiz-adv-x="570" 
d="M78 10v660q0 10 10 10h426q10 0 10 -10v-86q0 -10 -10 -10h-312q-6 0 -6 -6v-166q0 -6 6 -6h263q10 0 10 -10v-86q0 -10 -10 -10h-263q-6 0 -6 -6v-172q0 -6 6 -6h312q10 0 10 -10v-86q0 -10 -10 -10h-426q-10 0 -10 10zM-86 535h-61q-9 0 -6 10l32 119q4 16 20 16h96
q9 0 5 -10l-66 -125q-4 -10 -20 -10z" />
    <glyph glyph-name="Etatonos" unicode="&#x389;" horiz-adv-x="657" 
d="M78 10v660q0 10 10 10h98q10 0 10 -10v-268q0 -6 6 -6h259q6 0 6 6v268q0 10 10 10h98q10 0 10 -10v-660q0 -10 -10 -10h-98q-10 0 -10 10v274q0 6 -6 6h-259q-6 0 -6 -6v-274q0 -10 -10 -10h-98q-10 0 -10 10zM-86 535h-61q-9 0 -6 10l32 119q4 16 20 16h96q9 0 5 -10
l-66 -125q-4 -10 -20 -10z" />
    <glyph glyph-name="Iotatonos" unicode="&#x38a;" horiz-adv-x="268" 
d="M78 10v660q0 10 10 10h98q10 0 10 -10v-660q0 -10 -10 -10h-98q-10 0 -10 10zM-86 535h-61q-9 0 -6 10l32 119q4 16 20 16h96q9 0 5 -10l-66 -125q-4 -10 -20 -10z" />
    <glyph glyph-name="Omicrontonos" unicode="&#x38c;" horiz-adv-x="627" 
d="M316 -11q-90 0 -152 42t-88 122q-18 54 -18 187t18 187q26 80 88 122t152 42t152.5 -42t88.5 -122q18 -54 18 -187t-18 -187q-26 -80 -88.5 -122t-152.5 -42zM316 95q95 0 127 89q12 38 12 156t-12 156q-32 89 -127 89q-94 0 -126 -89q-12 -38 -12 -156t12 -156
q32 -89 126 -89zM-43 535h-61q-9 0 -6 10l32 119q4 16 20 16h96q9 0 5 -10l-66 -125q-4 -10 -20 -10z" />
    <glyph glyph-name="Upsilontonos" unicode="&#x38e;" horiz-adv-x="536" 
d="M320 0h-98q-10 0 -10 10v268l-197 392q-4 10 8 10h101q10 0 14 -10l133 -264h3l134 264q4 10 14 10h97q12 0 8 -10l-197 -392v-268q0 -10 -10 -10zM-114 535h-61q-9 0 -6 10l32 119q4 16 20 16h96q9 0 5 -10l-66 -125q-4 -10 -20 -10z" />
    <glyph glyph-name="Omegatonos" unicode="&#x38f;" horiz-adv-x="634" 
d="M574 0h-202q-10 0 -10 10v85q0 10 10 13q91 27 91 232q0 111 -14 156q-29 89 -129 89t-129 -89q-14 -45 -14 -156q0 -205 91 -232q10 -3 10 -13v-85q0 -10 -10 -10h-202q-10 0 -10 10v86q0 10 10 10h66v2q-40 31 -58 81q-17 53 -17 151q0 127 19 184q26 81 90 124t154 43
t154 -43t90 -124q19 -57 19 -184q0 -100 -18 -151q-17 -49 -57 -81v-2h66q10 0 10 -10v-86q0 -10 -10 -10zM-43 535h-61q-9 0 -6 10l32 119q4 16 20 16h96q9 0 5 -10l-66 -125q-4 -10 -20 -10z" />
    <glyph glyph-name="iotadieresistonos" unicode="&#x390;" horiz-adv-x="308" 
d="M340 568h-77q-10 0 -10 10v87q0 10 10 10h77q10 0 10 -10v-87q0 -10 -10 -10zM30 568h-77q-10 0 -10 10v87q0 10 10 10h77q10 0 10 -10v-87q0 -10 -10 -10zM153 555h-63q-7 0 -6 10l21 119q3 16 20 16h92q9 0 5 -10l-49 -125q-4 -10 -20 -10zM190 -11q-123 0 -123 126
v357q0 10 10 10h92q10 0 10 -10v-327q0 -30 10.5 -43t34.5 -13q16 0 39 6q8 3 10 -5l20 -70q1 -7 -5 -11q-35 -20 -98 -20z" />
    <glyph glyph-name="Alpha" unicode="&#x391;" horiz-adv-x="617" 
d="M21 10l233 660q3 10 13 10h92q10 0 13 -10l230 -660q3 -10 -7 -10h-98q-10 0 -13 10l-45 132h-256l-45 -132q-3 -10 -13 -10h-97q-10 0 -7 10zM310 511l-91 -264h184l-90 264h-3z" />
    <glyph glyph-name="Beta" unicode="&#x392;" horiz-adv-x="607" 
d="M75 10v660q0 10 10 10h253q103 0 157.5 -48t54.5 -133q0 -102 -79 -144v-2q38 -15 64.5 -56.5t26.5 -96.5q0 -99 -60 -149.5t-174 -50.5h-243q-10 0 -10 10zM199 397h136q45 0 71 24.5t26 64.5q0 41 -26 65.5t-71 24.5h-136q-6 0 -6 -6v-167q0 -6 6 -6zM193 287v-177
q0 -6 6 -6h142q48 0 75.5 26t27.5 69t-27.5 68.5t-75.5 25.5h-142q-6 0 -6 -6z" />
    <glyph glyph-name="Gamma" unicode="&#x393;" horiz-adv-x="525" 
d="M192 568v-558q0 -10 -10 -10h-98q-10 0 -10 10v660q0 10 10 10h405q10 0 10 -10v-86q0 -10 -10 -10h-291q-6 0 -6 -6z" />
    <glyph glyph-name="uni0394" unicode="&#x394;" horiz-adv-x="625" 
d="M598 0h-565q-11 0 -8 10l233 660q3 10 13 10h92q10 0 13 -10l230 -660q3 -10 -8 -10zM177 95h276q7 0 5 6l-141 410h-3l-142 -410q-2 -6 5 -6z" />
    <glyph glyph-name="Epsilon" unicode="&#x395;" horiz-adv-x="570" 
d="M75 10v660q0 10 10 10h426q10 0 10 -10v-86q0 -10 -10 -10h-312q-6 0 -6 -6v-166q0 -6 6 -6h263q10 0 10 -10v-86q0 -10 -10 -10h-263q-6 0 -6 -6v-172q0 -6 6 -6h312q10 0 10 -10v-86q0 -10 -10 -10h-426q-10 0 -10 10z" />
    <glyph glyph-name="Zeta" unicode="&#x396;" horiz-adv-x="532" 
d="M478 0h-423q-10 0 -10 10v86q0 5 3 11l307 465v2h-289q-10 0 -10 10v86q0 10 10 10h412q10 0 10 -10v-86q0 -6 -3 -10l-307 -466v-2h300q10 0 10 -10v-86q0 -10 -10 -10z" />
    <glyph glyph-name="Eta" unicode="&#x397;" horiz-adv-x="657" 
d="M75 10v660q0 10 10 10h98q10 0 10 -10v-268q0 -6 6 -6h259q6 0 6 6v268q0 10 10 10h98q10 0 10 -10v-660q0 -10 -10 -10h-98q-10 0 -10 10v274q0 6 -6 6h-259q-6 0 -6 -6v-274q0 -10 -10 -10h-98q-10 0 -10 10z" />
    <glyph glyph-name="Theta" unicode="&#x398;" horiz-adv-x="644" 
d="M449 165q20 37 20 175q0 134 -23 178q-38 69 -124 69t-124 -69q-23 -44 -23 -178q0 -140 24 -183q34 -64 123 -64q90 0 127 72zM407 292h-170q-10 0 -10 10v76q0 10 10 10h170q10 0 10 -10v-76q0 -10 -10 -10zM321 -11q-150 0 -215 101q-28 41 -40 94q-11 55 -11 156
q0 170 45 241q71 110 222 110t222 -110q45 -70 45 -241q0 -101 -11 -154q-11 -52 -34 -87q-71 -110 -223 -110z" />
    <glyph glyph-name="Iota" unicode="&#x399;" horiz-adv-x="268" 
d="M75 10v660q0 10 10 10h98q10 0 10 -10v-660q0 -10 -10 -10h-98q-10 0 -10 10z" />
    <glyph glyph-name="Kappa" unicode="&#x39a;" horiz-adv-x="633" 
d="M75 10v660q0 10 10 10h98q10 0 10 -10v-320l257 322q8 8 16 8h114q13 0 4 -13l-211 -254l235 -401q8 -12 -7 -12h-111q-10 0 -15 8l-178 314l-104 -126v-186q0 -10 -10 -10h-98q-10 0 -10 10z" />
    <glyph glyph-name="Lambda" unicode="&#x39b;" horiz-adv-x="617" 
d="M313 511h-3l-172 -501q-3 -10 -13 -10h-97q-10 0 -7 10l233 660q3 10 13 10h92q10 0 13 -10l230 -660q3 -10 -7 -10h-98q-10 0 -13 10z" />
    <glyph glyph-name="Mu" unicode="&#x39c;" horiz-adv-x="756" 
d="M75 10v660q0 10 10 10h89q13 0 17 -10l187 -419h4l184 419q4 10 17 10h88q10 0 10 -10v-660q0 -10 -10 -10h-87q-10 0 -10 10v416h-4l-144 -320q-6 -13 -19 -13h-58q-13 0 -19 13l-144 320h-4v-416q0 -10 -10 -10h-87q-10 0 -10 10z" />
    <glyph glyph-name="Nu" unicode="&#x39d;" horiz-adv-x="657" 
d="M75 10v660q0 10 10 10h92q11 0 17 -10l277 -469h4v469q0 10 10 10h87q10 0 10 -10v-660q0 -10 -10 -10h-91q-11 0 -17 10l-278 468h-4v-468q0 -10 -10 -10h-87q-10 0 -10 10z" />
    <glyph glyph-name="Xi" unicode="&#x39e;" 
d="M494 0h-439q-10 0 -10 10v86q0 10 10 10h439q10 0 10 -10v-86q0 -10 -10 -10zM446 290h-343q-10 0 -10 10v86q0 10 10 10h343q10 0 10 -10v-86q0 -10 -10 -10zM494 574h-439q-10 0 -10 10v86q0 10 10 10h439q10 0 10 -10v-86q0 -10 -10 -10z" />
    <glyph glyph-name="Omicron" unicode="&#x39f;" horiz-adv-x="627" 
d="M313 -11q-90 0 -152 42t-88 122q-18 54 -18 187t18 187q26 80 88 122t152 42t152.5 -42t88.5 -122q18 -54 18 -187t-18 -187q-26 -80 -88.5 -122t-152.5 -42zM313 95q95 0 127 89q12 38 12 156t-12 156q-32 89 -127 89q-94 0 -126 -89q-12 -38 -12 -156t12 -156
q32 -89 126 -89z" />
    <glyph glyph-name="Pi" unicode="&#x3a0;" horiz-adv-x="647" 
d="M183 0h-98q-10 0 -10 10v660q0 10 10 10h477q10 0 10 -10v-660q0 -10 -10 -10h-98q-10 0 -10 10v560q0 6 -6 6h-249q-6 0 -6 -6v-560q0 -10 -10 -10z" />
    <glyph glyph-name="Rho" unicode="&#x3a1;" horiz-adv-x="598" 
d="M183 0h-98q-10 0 -10 10v660q0 10 10 10h255q99 0 161 -59q63 -59 63 -152q0 -95 -63 -154q-61 -58 -161 -58h-141q-6 0 -6 -6v-241q0 -10 -10 -10zM199 364h134q52 0 82.5 28.5t30.5 76.5q0 47 -30.5 76t-82.5 29h-134q-6 0 -6 -6v-198q0 -6 6 -6z" />
    <glyph glyph-name="Sigma" unicode="&#x3a3;" horiz-adv-x="532" 
d="M478 0h-423q-10 0 -10 10v84q0 4 5 12l151 230l-146 232q-4 7 -4 12v90q0 10 10 10h412q10 0 10 -10v-85q0 -10 -10 -10h-282v-2l139 -220q5 -5 1 -11l-153 -234v-2h300q10 0 10 -10v-86q0 -10 -10 -10z" />
    <glyph glyph-name="Tau" unicode="&#x3a4;" horiz-adv-x="550" 
d="M324 0h-98q-10 0 -10 10v558q0 6 -6 6h-178q-10 0 -10 10v86q0 10 10 10h486q10 0 10 -10v-86q0 -10 -10 -10h-178q-6 0 -6 -6v-558q0 -10 -10 -10z" />
    <glyph glyph-name="Upsilon" unicode="&#x3a5;" horiz-adv-x="536" 
d="M321 0h-98q-10 0 -10 10v268l-197 392q-4 10 8 10h101q10 0 14 -10l133 -264h3l134 264q4 10 14 10h97q12 0 8 -10l-197 -392v-268q0 -10 -10 -10z" />
    <glyph glyph-name="Phi" unicode="&#x3a6;" horiz-adv-x="751" 
d="M318 151v392q-79 -4 -115 -51.5t-36 -144.5q0 -94 34 -142.5t117 -53.5zM433 41v-60q0 -10 -10 -10h-95q-10 0 -10 10v60q-273 13 -273 306t273 306v46q0 10 10 10h95q10 0 10 -10v-46q273 -13 273 -306t-273 -306zM433 543v-392q83 4 117 52.5t34 143.5q0 97 -36 144.5
t-115 51.5z" />
    <glyph glyph-name="Chi" unicode="&#x3a7;" horiz-adv-x="572" 
d="M556 0h-109q-10 0 -16 10l-137 231h-2l-138 -231q-6 -10 -16 -10h-108q-13 0 -6 13l203 339l-188 315q-7 13 6 13h108q10 0 16 -10l123 -206h2l123 206q6 10 16 10h108q13 0 6 -13l-188 -315l203 -339q7 -13 -6 -13z" />
    <glyph glyph-name="Psi" unicode="&#x3a8;" horiz-adv-x="727" 
d="M306 10v87q-124 5 -185 61q-61 57 -61 194v318q0 10 11 10h93q11 0 11 -10v-320q0 -84 30 -115q31 -30 101 -31v466q0 10 10 10h95q10 0 10 -10v-466q73 2 102 33q29 32 29 113v320q0 10 10 10h94q11 0 11 -10v-318q0 -128 -57 -189.5t-189 -65.5v-87q0 -10 -10 -10h-95
q-10 0 -10 10z" />
    <glyph glyph-name="uni03A9" unicode="&#x3a9;" horiz-adv-x="634" 
d="M571 0h-202q-10 0 -10 10v85q0 10 10 13q91 27 91 232q0 111 -14 156q-29 89 -129 89t-129 -89q-14 -45 -14 -156q0 -205 91 -232q10 -3 10 -13v-85q0 -10 -10 -10h-202q-10 0 -10 10v86q0 10 10 10h66v2q-40 31 -58 81q-17 53 -17 151q0 127 19 184q26 81 90 124t154 43
t154 -43t90 -124q19 -57 19 -184q0 -100 -18 -151q-16 -49 -57 -81v-2h66q10 0 10 -10v-86q0 -10 -10 -10z" />
    <glyph glyph-name="Iotadieresis" unicode="&#x3aa;" horiz-adv-x="268" 
d="M75 10v660q0 10 10 10h98q10 0 10 -10v-660q0 -10 -10 -10h-98q-10 0 -10 10zM271 769h-73q-10 0 -10 10v87q0 10 10 10h73q10 0 10 -10v-87q0 -10 -10 -10zM71 769h-73q-10 0 -10 10v87q0 10 10 10h73q10 0 10 -10v-87q0 -10 -10 -10z" />
    <glyph glyph-name="Upsilondieresis" unicode="&#x3ab;" horiz-adv-x="536" 
d="M321 0h-98q-10 0 -10 10v268l-197 392q-4 10 8 10h101q10 0 14 -10l133 -264h3l134 264q4 10 14 10h97q12 0 8 -10l-197 -392v-268q0 -10 -10 -10zM409 769h-73q-10 0 -10 10v87q0 10 10 10h73q10 0 10 -10v-87q0 -10 -10 -10zM209 769h-73q-10 0 -10 10v87q0 10 10 10
h73q10 0 10 -10v-87q0 -10 -10 -10z" />
    <glyph glyph-name="alphatonos" unicode="&#x3ac;" horiz-adv-x="579" 
d="M231 -11q-184 0 -184 252t189 252q65 0 102 -24.5t58 -80.5h1q19 46 25 85q2 9 11 9h84q13 0 10 -17q-15 -103 -79 -247l8 -36q12 -53 27 -70.5t49 -17.5h5q12 0 12 -11v-79q0 -10 -10 -10h-17q-65 0 -91 16q-28 17 -41 57l-4 13h-1q-24 -48 -60 -69.5t-94 -21.5zM252 89
q47 0 72.5 39.5t25.5 114.5q0 150 -99 150q-50 0 -70 -37t-20 -115q0 -65 13 -103q18 -49 78 -49zM300 555h-68q-9 0 -6 10l33 119q4 16 20 16h102q9 0 5 -10l-66 -125q-4 -10 -20 -10z" />
    <glyph glyph-name="epsilontonos" unicode="&#x3ad;" horiz-adv-x="478" 
d="M255 -11q-101 0 -155.5 35.5t-54.5 103.5q0 91 85 124v1q-65 32 -65 103q0 64 52 100.5t151 36.5q84 0 142 -21q13 -5 8 -17l-25 -70q-2 -8 -15 -4q-60 17 -112 17q-47 0 -67.5 -13.5t-20.5 -43.5q0 -50 90 -50h65q14 0 14 -14v-62q0 -11 -13 -11h-94q-74 0 -74 -56
q0 -34 23 -46.5t77 -12.5q53 0 131 23q9 3 11 2.5t4 -6.5l25 -74q2 -8 -7 -12q-70 -33 -175 -33zM285 555h-68q-9 0 -6 10l33 119q4 16 20 16h102q9 0 5 -10l-66 -125q-4 -10 -20 -10z" />
    <glyph glyph-name="etatonos" unicode="&#x3ae;" horiz-adv-x="557" 
d="M181 0h-92q-10 0 -10 10v335q0 42 -28 42q-11 0 -11 10v80q0 10 11 10q50 0 78 -10q38 -11 50 -61h2q35 77 140 77q83 0 125 -53q43 -52 43 -128v-482q0 -10 -10 -10h-92q-10 0 -10 10v456q0 52 -24 79.5t-68 27.5q-42 0 -68 -28t-26 -76v-279q0 -10 -10 -10zM272 555
h-68q-9 0 -6 10l33 119q4 16 20 16h102q9 0 5 -10l-66 -125q-4 -10 -20 -10z" />
    <glyph glyph-name="iotatonos" unicode="&#x3af;" horiz-adv-x="308" 
d="M190 -11q-123 0 -123 126v357q0 10 10 10h92q10 0 10 -10v-327q0 -30 10.5 -43t34.5 -13q16 0 39 6q8 3 10 -5l20 -70q1 -7 -5 -11q-35 -20 -98 -20zM153 555h-68q-9 0 -6 10l33 119q4 16 20 16h102q9 0 5 -10l-66 -125q-4 -10 -20 -10z" />
    <glyph glyph-name="upsilondieresistonos" unicode="&#x3b0;" horiz-adv-x="525" 
d="M274 -11q-106 0 -155.5 51t-49.5 153v154q0 22 -6.5 31t-22.5 9q-10 0 -10 10v80q0 10 10 10h27q64 0 89 -21.5t25 -84.5v-194q0 -47 25.5 -72.5t67.5 -25.5q44 0 69 26.5t25 70.5v286q0 10 10 10h92q10 0 10 -10v-279q0 -204 -206 -204zM454 568h-77q-10 0 -10 10v87
q0 10 10 10h77q10 0 10 -10v-87q0 -10 -10 -10zM144 568h-77q-10 0 -10 10v87q0 10 10 10h77q10 0 10 -10v-87q0 -10 -10 -10zM267 555h-63q-7 0 -6 10l21 119q3 16 20 16h92q9 0 5 -10l-49 -125q-4 -10 -20 -10z" />
    <glyph glyph-name="alpha" unicode="&#x3b1;" horiz-adv-x="579" 
d="M231 -11q-184 0 -184 252t189 252q65 0 102 -24.5t58 -80.5h1q19 46 25 85q2 9 11 9h84q13 0 10 -17q-15 -103 -79 -247l8 -36q12 -53 27 -70.5t49 -17.5h5q12 0 12 -11v-79q0 -10 -10 -10h-17q-65 0 -91 16q-28 17 -41 57l-4 13h-1q-24 -48 -60 -69.5t-94 -21.5zM252 89
q47 0 72.5 39.5t25.5 114.5q0 150 -99 150q-50 0 -70 -37t-20 -115q0 -65 13 -103q18 -49 78 -49z" />
    <glyph glyph-name="beta" unicode="&#x3b2;" horiz-adv-x="569" 
d="M174 -180h-92q-10 0 -10 10v622q0 113 53 176t159 63q93 0 145.5 -45.5t52.5 -126.5q0 -43 -19.5 -79.5t-54.5 -54.5v-2q57 -17 86.5 -65.5t29.5 -114.5q0 -99 -54 -156.5t-154 -57.5q-82 0 -131 45h-1v-204q0 -10 -10 -10zM294 89q51 0 79.5 30t28.5 85q0 115 -112 115
h-34q-10 0 -10 10v77q0 10 10 10h34q42 0 62.5 25t20.5 66t-23 64.5t-66 23.5q-100 0 -100 -126v-259q0 -64 26 -92.5t84 -28.5z" />
    <glyph glyph-name="gamma" unicode="&#x3b3;" horiz-adv-x="531" 
d="M325 -169h-96q-10 0 -10 10l4 148l-131 344q-13 34 -22 44t-26 10q-14 0 -14 10v79q0 11 11 11h11q64 0 89 -19q25 -20 48 -81l90 -262h2l45 116q47 123 50 231q0 10 11 10h90q9 0 9 -10q0 -113 -84 -314l-71 -171q4 -125 4 -146q0 -10 -10 -10z" />
    <glyph glyph-name="delta" unicode="&#x3b4;" horiz-adv-x="525" 
d="M259 -11q-97 0 -156 62q-58 61 -58 168q0 168 142 226v1l-19 16q-49 40 -49 101q0 57 40.5 92.5t119.5 35.5q83 0 155 -29q8 -4 7 -10l-32 -81q-5 -8 -14 -4q-61 23 -107 23q-45 0 -45 -39q0 -15 11.5 -26.5t42.5 -30.5l20 -12q86 -52 123.5 -112t37.5 -148
q0 -101 -56 -168q-56 -65 -163 -65zM262 89q102 0 102 136q0 107 -92 163q-113 -27 -113 -164q0 -67 28 -101t75 -34z" />
    <glyph glyph-name="epsilon" unicode="&#x3b5;" horiz-adv-x="478" 
d="M255 -11q-101 0 -155.5 35.5t-54.5 103.5q0 91 85 124v1q-65 32 -65 103q0 64 52 100.5t151 36.5q84 0 142 -21q13 -5 8 -17l-25 -70q-2 -8 -15 -4q-60 17 -112 17q-47 0 -67.5 -13.5t-20.5 -43.5q0 -50 90 -50h65q14 0 14 -14v-62q0 -11 -13 -11h-94q-74 0 -74 -56
q0 -34 23 -46.5t77 -12.5q53 0 131 23q9 3 11 2.5t4 -6.5l25 -74q2 -8 -7 -12q-70 -33 -175 -33z" />
    <glyph glyph-name="zeta" unicode="&#x3b6;" horiz-adv-x="430" 
d="M267 -173q-8 -3 -11 4l-31 60q-3 6 5 11q39 21 52.5 33.5t13.5 29.5q0 18 -10.5 27.5t-40.5 18.5l-27 8q-91 27 -132 75.5t-41 134.5q0 98 52 189t136 161v1h-148q-10 0 -10 10v80q0 10 10 10h321q10 0 10 -10v-64q-146 -95 -206 -194q-51 -86 -51 -162q0 -60 20.5 -90
t74.5 -47l29 -9q67 -20 93.5 -48.5t26.5 -74.5q0 -103 -136 -154z" />
    <glyph glyph-name="eta" unicode="&#x3b7;" horiz-adv-x="557" 
d="M181 0h-92q-10 0 -10 10v335q0 42 -28 42q-11 0 -11 10v80q0 10 11 10q50 0 78 -10q38 -11 50 -61h2q35 77 140 77q83 0 125 -53q43 -52 43 -128v-482q0 -10 -10 -10h-92q-10 0 -10 10v456q0 52 -24 79.5t-68 27.5q-42 0 -68 -28t-26 -76v-279q0 -10 -10 -10z" />
    <glyph glyph-name="theta" unicode="&#x3b8;" horiz-adv-x="543" 
d="M271 691q220 0 220 -347q0 -135 -22 -210q-19 -72 -66 -107.5t-132 -37.5q-107 0 -161 66q-24 32 -37 78q-21 79 -21 207q0 180 54 265.5t165 85.5zM163 388h217q-2 113 -27 158t-82 45t-81 -45q-24 -43 -27 -158zM380 295h-217q1 -118 23 -163q22 -43 85 -43t85 43
t24 163z" />
    <glyph glyph-name="iota" unicode="&#x3b9;" horiz-adv-x="308" 
d="M190 -11q-123 0 -123 126v357q0 10 10 10h92q10 0 10 -10v-327q0 -30 10.5 -43t34.5 -13q16 0 39 6q8 3 10 -5l20 -70q1 -7 -5 -11q-35 -20 -98 -20z" />
    <glyph glyph-name="kappa" unicode="&#x3ba;" horiz-adv-x="545" 
d="M505 0h-103q-9 0 -15 10l-124 188l-78 -102v-86q0 -10 -10 -10h-92q-10 0 -10 10v462q0 10 10 10h92q10 0 10 -10v-227l111 147q46 61 78 77q34 18 89 18h12q10 0 10 -10v-79q0 -11 -11 -11h-12q-35 0 -48 -10q-16 -11 -40 -46l-40 -56l177 -265q3 -4 1 -7t-7 -3z" />
    <glyph glyph-name="lambda" unicode="&#x3bb;" horiz-adv-x="525" 
d="M131 0h-100q-9 0 -3 12l188 428l-31 84q-14 36 -26.5 46t-40.5 10h-11q-7 0 -7 8v84q0 8 7 8h14q75 0 107 -26q33 -27 67 -120l148 -387q2 -4 5 -13t4.5 -12t4 -8.5t4.5 -7.5t5 -5.5t6.5 -4.5t8 -1.5t10.5 -0.5h14q8 0 8 -8v-83q0 -9 -8 -9h-37q-54 0 -77 17
q-21 17 -38 61l-89 233h-2l-119 -297q-5 -8 -12 -8z" />
    <glyph glyph-name="uni03BC" unicode="&#x3bc;" horiz-adv-x="579" 
d="M379 56h-1q-36 -67 -118 -67q-52 0 -73 30h-2v-189q0 -10 -10 -10h-92q-10 0 -10 10v642q0 10 10 10h92q10 0 10 -10v-279q0 -48 24 -76t66 -28t67.5 29t25.5 75v279q0 10 10 10h92q10 0 10 -10v-333q0 -28 5.5 -36.5t23.5 -8.5q10 0 10 -10v-80q0 -10 -10 -10h-25
q-49 0 -72.5 14t-32.5 48z" />
    <glyph glyph-name="nu" unicode="&#x3bd;" horiz-adv-x="492" 
d="M293 0h-95q-9 0 -12 10l-170 462q-3 10 7 10h95q11 0 14 -10l113 -343h2l33 94q55 153 56 249q0 10 10 10h95q9 0 9 -10q0 -104 -80 -302l-66 -160q-4 -10 -11 -10z" />
    <glyph glyph-name="xi" unicode="&#x3be;" horiz-adv-x="444" 
d="M266 -169l-30 58q-4 8 4 13q41 21 53.5 33.5t12.5 30.5q0 30 -42 42l-46 14q-75 23 -118 52q-54 40 -54 119q0 58 32 106t90 71v1q-83 32 -83 108q0 33 17.5 61.5t44.5 38.5v1h-72q-10 0 -10 10v80q0 10 10 10h339q10 0 10 -10v-78l-82 -3q-76 -4 -113 -27.5t-37 -71.5
q0 -32 26 -48.5t90 -16.5h56q10 0 10 -10v-84q0 -10 -9 -10h-73q-56 0 -96 -28q-41 -29 -41 -86q0 -37 24 -57q23 -17 85 -37l26 -8q68 -21 95.5 -49.5t27.5 -73.5q0 -103 -136 -155q-7 -3 -11 4z" />
    <glyph glyph-name="omicron" unicode="&#x3bf;" horiz-adv-x="523" 
d="M262 -11q-74 0 -126.5 35t-72.5 98q-16 48 -16 119t16 119q20 63 72.5 98t126.5 35q73 0 125.5 -35t72.5 -98q16 -48 16 -119t-16 -119q-20 -63 -72.5 -98t-125.5 -35zM262 89q70 0 90 63q10 30 10 89t-10 89q-20 63 -90 63q-72 0 -91 -63q-10 -30 -10 -89t10 -89
q19 -63 91 -63z" />
    <glyph glyph-name="pi" unicode="&#x3c0;" horiz-adv-x="593" 
d="M531 -6h-34q-67 0 -97 33t-30 104v245q0 6 -6 6h-149q-6 0 -6 -6v-366q0 -10 -10 -10h-92q-10 0 -10 10v366q0 6 -6 6h-51q-10 0 -10 10v80q0 10 10 10h503q10 0 10 -10v-80q0 -10 -10 -10h-55q-6 0 -6 -6v-242q0 -22 7.5 -31t25.5 -9h16q10 0 10 -10v-80q0 -10 -10 -10z
" />
    <glyph glyph-name="rho" unicode="&#x3c1;" horiz-adv-x="526" 
d="M152 -180h-92q-10 0 -10 10v425q0 121 60 179q62 59 153 59q117 0 172 -76q45 -59 45 -176q0 -101 -39 -172q-46 -80 -157 -80q-90 0 -121 46h-1v-205q0 -10 -10 -10zM267 89q69 0 90 66q9 28 9 86t-10 88q-21 64 -89 64q-72 0 -93 -66q-9 -27 -9 -86t9 -85
q21 -67 93 -67z" />
    <glyph glyph-name="sigma1" unicode="&#x3c2;" horiz-adv-x="437" 
d="M246 -169l-31 60q-4 7 5 11q40 21 53 33.5t13 32.5q0 22 -11 34t-48 29q-95 43 -138 94.5t-43 130.5q0 104 54 170q54 67 166 67q90 0 149 -32q9 -5 5 -14l-31 -76q-5 -11 -15 -6q-51 25 -105 25q-53 0 -80.5 -32.5t-27.5 -91.5q0 -54 24 -81q28 -28 88 -55
q71 -33 95 -65q25 -31 25 -80q0 -107 -136 -158q-7 -3 -11 4z" />
    <glyph glyph-name="sigma" unicode="&#x3c3;" horiz-adv-x="551" 
d="M261 -11q-75 0 -127.5 35t-72.5 98q-16 47 -16 111q0 249 254 249h212q10 0 10 -10v-74q0 -10 -10 -10h-91v-1q54 -54 54 -150q0 -94 -32 -152q-55 -96 -181 -96zM262 89q66 0 88 63q10 27 10 94q0 98 -40 141h-27q-71 0 -102.5 -38t-31.5 -123q0 -62 19 -93
q26 -44 84 -44z" />
    <glyph glyph-name="tau" unicode="&#x3c4;" horiz-adv-x="442" 
d="M153 121v255q0 6 -6 6h-117q-10 0 -10 10v80q0 10 10 10h372q10 0 10 -10v-80q0 -10 -10 -10h-131q-6 0 -6 -6v-236q0 -51 46 -51q19 0 38 6q11 2 12 -5l20 -71q1 -7 -6 -11q-37 -19 -104 -19q-118 0 -118 132z" />
    <glyph glyph-name="upsilon" unicode="&#x3c5;" horiz-adv-x="525" 
d="M274 -11q-106 0 -155.5 51t-49.5 153v154q0 22 -6.5 31t-22.5 9q-10 0 -10 10v80q0 10 10 10h27q64 0 89 -21.5t25 -84.5v-194q0 -47 25.5 -72.5t67.5 -25.5q44 0 69 26.5t25 70.5v286q0 10 10 10h92q10 0 10 -10v-279q0 -204 -206 -204z" />
    <glyph glyph-name="phi" unicode="&#x3c6;" horiz-adv-x="664" 
d="M281 81v320q-69 -4 -97.5 -40t-28.5 -120q0 -83 27.5 -119.5t98.5 -40.5zM383 -15v-155q0 -10 -10 -10h-82q-10 0 -10 10v155q-238 13 -238 256t238 256v93q0 10 10 10h82q10 0 10 -10v-93q238 -13 238 -256t-238 -256zM383 401v-320q69 4 97.5 40t28.5 120q0 82 -28 119
t-98 41z" />
    <glyph glyph-name="chi" unicode="&#x3c7;" horiz-adv-x="526" 
d="M24 -168l183 330l-103 179q-15 27 -27.5 36.5t-28.5 9.5h-11q-13 0 -13 10v80q0 10 12 10h16q62 0 93 -20q30 -19 61 -76l69 -127l108 210q6 8 13 8h100q12 0 5 -10l-170 -312l117 -205q15 -26 26 -33.5t31 -7.5h6q9 0 9 -10v-79q0 -11 -7 -11h-17q-52 0 -80 16
q-29 15 -62 72l-92 160l-123 -230q-5 -12 -13 -12h-100q-8 0 -2 12z" />
    <glyph glyph-name="psi" unicode="&#x3c8;" horiz-adv-x="659" 
d="M384 -180h-85q-10 0 -10 10v153q-116 8 -167 60q-50 53 -50 171v133q0 23 -6 31.5t-22 8.5q-11 0 -11 10v80q0 10 11 10h37q53 0 78 -22.5t25 -79.5v-188q0 -65 21 -87q23 -22 84 -27v517q0 10 10 10h85q10 0 10 -10v-517q65 3 85 27q20 25 20 94v268q0 10 10 10h92
q10 0 10 -10v-258q0 -117 -51 -171t-166 -60v-153q0 -10 -10 -10z" />
    <glyph glyph-name="omega" unicode="&#x3c9;" horiz-adv-x="702" 
d="M213 -11q-163 0 -163 216q0 174 86 277q8 9 18 5l76 -39q9 -4 3 -14q-69 -96 -69 -228q0 -117 62 -117q36 0 52.5 29.5t16.5 100.5v96q0 13 11 13h90q11 0 11 -13v-96q0 -70 16.5 -100t52.5 -30q62 0 62 117q0 131 -68 228q-6 9 3 14l76 39q10 5 18 -5q39 -43 62 -117
t23 -158q0 -218 -163 -218q-101 0 -137 94h-2q-37 -94 -137 -94z" />
    <glyph glyph-name="iotadieresis" unicode="&#x3ca;" horiz-adv-x="308" 
d="M262 573h-77q-10 0 -10 10v87q0 10 10 10h77q10 0 10 -10v-87q0 -10 -10 -10zM66 573h-77q-10 0 -10 10v87q0 10 10 10h77q10 0 10 -10v-87q0 -10 -10 -10zM190 -11q-123 0 -123 126v357q0 10 10 10h92q10 0 10 -10v-327q0 -30 10.5 -43t34.5 -13q16 0 39 6q8 3 10 -5
l20 -70q1 -7 -5 -11q-35 -20 -98 -20z" />
    <glyph glyph-name="upsilondieresis" unicode="&#x3cb;" horiz-adv-x="525" 
d="M274 -11q-106 0 -155.5 51t-49.5 153v154q0 22 -6.5 31t-22.5 9q-10 0 -10 10v80q0 10 10 10h27q64 0 89 -21.5t25 -84.5v-194q0 -47 25.5 -72.5t67.5 -25.5q44 0 69 26.5t25 70.5v286q0 10 10 10h92q10 0 10 -10v-279q0 -204 -206 -204zM415 573h-77q-10 0 -10 10v87
q0 10 10 10h77q10 0 10 -10v-87q0 -10 -10 -10zM219 573h-77q-10 0 -10 10v87q0 10 10 10h77q10 0 10 -10v-87q0 -10 -10 -10z" />
    <glyph glyph-name="omicrontonos" unicode="&#x3cc;" horiz-adv-x="523" 
d="M262 -11q-74 0 -126.5 35t-72.5 98q-16 48 -16 119t16 119q20 63 72.5 98t126.5 35q73 0 125.5 -35t72.5 -98q16 -48 16 -119t-16 -119q-20 -63 -72.5 -98t-125.5 -35zM262 89q70 0 90 63q10 30 10 89t-10 89q-20 63 -90 63q-72 0 -91 -63q-10 -30 -10 -89t10 -89
q19 -63 91 -63zM287 555h-68q-9 0 -6 10l33 119q4 16 20 16h102q9 0 5 -10l-66 -125q-4 -10 -20 -10z" />
    <glyph glyph-name="upsilontonos" unicode="&#x3cd;" horiz-adv-x="525" 
d="M274 -11q-106 0 -155.5 51t-49.5 153v154q0 22 -6.5 31t-22.5 9q-10 0 -10 10v80q0 10 10 10h27q64 0 89 -21.5t25 -84.5v-194q0 -47 25.5 -72.5t67.5 -25.5q44 0 69 26.5t25 70.5v286q0 10 10 10h92q10 0 10 -10v-279q0 -204 -206 -204zM292 555h-68q-9 0 -6 10l33 119
q4 16 20 16h102q9 0 5 -10l-66 -125q-4 -10 -20 -10z" />
    <glyph glyph-name="omegatonos" unicode="&#x3ce;" horiz-adv-x="702" 
d="M213 -11q-163 0 -163 216q0 174 86 277q8 9 18 5l76 -39q9 -4 3 -14q-69 -96 -69 -228q0 -117 62 -117q36 0 52.5 29.5t16.5 100.5v96q0 13 11 13h90q11 0 11 -13v-96q0 -70 16.5 -100t52.5 -30q62 0 62 117q0 131 -68 228q-6 9 3 14l76 39q10 5 18 -5q39 -43 62 -117
t23 -158q0 -218 -163 -218q-101 0 -137 94h-2q-37 -94 -137 -94zM371 555h-68q-9 0 -6 10l33 119q4 16 20 16h102q9 0 5 -10l-66 -125q-4 -10 -20 -10z" />
    <glyph glyph-name="uni0400" unicode="&#x400;" horiz-adv-x="570" 
d="M511 0h-426q-10 0 -10 10v660q0 10 10 10h426q10 0 10 -10v-86q0 -10 -10 -10h-312q-6 0 -6 -6v-166q0 -6 6 -6h263q10 0 10 -10v-86q0 -10 -10 -10h-263q-6 0 -6 -6v-172q0 -6 6 -6h312q10 0 10 -10v-86q0 -10 -10 -10zM354 761h-72q-10 0 -18 8l-116 109q-4 4 -2.5 7
t6.5 3h98q12 0 19 -10l89 -107q3 -4 1.5 -7t-5.5 -3z" />
    <glyph glyph-name="uni0401" unicode="&#x401;" horiz-adv-x="570" 
d="M511 0h-426q-10 0 -10 10v660q0 10 10 10h426q10 0 10 -10v-86q0 -10 -10 -10h-312q-6 0 -6 -6v-166q0 -6 6 -6h263q10 0 10 -10v-86q0 -10 -10 -10h-263q-6 0 -6 -6v-172q0 -6 6 -6h312q10 0 10 -10v-86q0 -10 -10 -10zM433 769h-73q-10 0 -10 10v87q0 10 10 10h73
q10 0 10 -10v-87q0 -10 -10 -10zM233 769h-73q-10 0 -10 10v87q0 10 10 10h73q10 0 10 -10v-87q0 -10 -10 -10z" />
    <glyph glyph-name="uni0402" unicode="&#x402;" horiz-adv-x="746" 
d="M327 0h-98q-10 0 -10 10v558q0 6 -5 6h-182q-10 0 -10 10v86q0 10 10 10h492q10 0 10 -10v-86q0 -10 -10 -10h-181q-6 0 -6 -6v-166q0 -8 8 -6q84 25 165 25q85 0 142 -51q58 -49 58 -151q0 -105 -60.5 -162t-175.5 -57h-31q-8 0 -8 10v86q0 10 10 10h26q121 0 121 106
q0 50 -31 76.5t-84 26.5q-65 0 -132 -26q-8 -3 -8 -12v-267q0 -10 -10 -10z" />
    <glyph glyph-name="uni0403" unicode="&#x403;" horiz-adv-x="500" 
d="M183 0h-98q-10 0 -10 10v660q0 10 10 10h390q10 0 10 -10v-87q0 -9 -10 -9h-276q-6 0 -6 -6v-558q0 -10 -10 -10zM298 761h-71q-12 0 -4 10l88 107q7 10 19 10h98q5 0 6.5 -3t-1.5 -7l-117 -109q-8 -8 -18 -8z" />
    <glyph glyph-name="uni0404" unicode="&#x404;" horiz-adv-x="574" 
d="M314 -11q-170 0 -231 140q-28 65 -28 214q0 125 20 187q26 80 88 120.5t151 40.5q165 0 223 -136q3 -10 -4 -14l-81 -38q-8 -5 -13 5q-40 79 -123 79q-100 0 -129 -87q-11 -33 -13 -97q0 -7 7 -7h202q9 0 9 -9v-86q0 -9 -9 -9h-202q-7 0 -7 -7q1 -75 18 -116
q30 -76 124 -76q83 0 123 79q4 10 14 5l80 -38q8 -4 4 -14q-28 -64 -86.5 -100t-136.5 -36z" />
    <glyph glyph-name="uni0405" unicode="&#x405;" horiz-adv-x="587" 
d="M295 -11q-75 0 -141 25q-68 26 -109 65q-8 8 -2 15l62 72q7 8 14 1q91 -72 185 -72q59 0 93.5 26.5t34.5 71.5q0 40 -28.5 62.5t-95.5 31.5l-36 5q-205 28 -205 194q0 93 62.5 149t167.5 56q129 0 220 -68q7 -6 2 -14l-48 -74q-6 -8 -14 -3q-82 53 -163 53
q-50 0 -78.5 -24.5t-28.5 -66.5q0 -74 125 -92l36 -5q203 -29 203 -197q0 -96 -67.5 -153.5t-188.5 -57.5z" />
    <glyph glyph-name="uni0406" unicode="&#x406;" horiz-adv-x="268" 
d="M183 0h-98q-10 0 -10 10v660q0 10 10 10h98q10 0 10 -10v-660q0 -10 -10 -10z" />
    <glyph glyph-name="uni0407" unicode="&#x407;" horiz-adv-x="268" 
d="M271 769h-73q-10 0 -10 10v87q0 10 10 10h73q10 0 10 -10v-87q0 -10 -10 -10zM71 769h-73q-10 0 -10 10v87q0 10 10 10h73q10 0 10 -10v-87q0 -10 -10 -10zM183 0h-98q-10 0 -10 10v660q0 10 10 10h98q10 0 10 -10v-660q0 -10 -10 -10z" />
    <glyph glyph-name="uni0408" unicode="&#x408;" horiz-adv-x="507" 
d="M206 -11q-55 0 -104 23t-73 59q-5 8 2 14l73 55q8 4 15 -3q36 -42 91 -42t84 34t29 100v441q0 10 10 10h98q10 0 10 -10v-441q0 -113 -63 -176.5t-172 -63.5z" />
    <glyph glyph-name="uni0409" unicode="&#x409;" horiz-adv-x="1008" 
d="M65 -4h-47q-9 0 -9 10v87q0 9 9 9h12q28 0 48.5 11t39 39t28 84.5t9.5 139.5v295q0 9 10 9h418q10 0 10 -9v-242q0 -6 6 -6h143q107 0 168.5 -57.5t61.5 -153.5q0 -97 -61.5 -154.5t-168.5 -57.5h-258q-9 0 -9 10v558q0 6 -6 6h-192q-6 0 -6 -6v-206q0 -197 -52 -282
q-51 -84 -154 -84zM599 106h136q57 0 88 29t31 81q0 101 -119 101h-136q-6 0 -6 -6v-199q0 -6 6 -6z" />
    <glyph glyph-name="uni040A" unicode="&#x40a;" horiz-adv-x="988" 
d="M183 0h-98q-10 0 -10 10v660q0 10 10 10h98q10 0 10 -10v-255q0 -6 6 -6h259q6 0 6 6v255q0 10 10 10h98q10 0 10 -10v-255q0 -6 6 -6h150q96 0 155 -56t59 -148q0 -91 -59 -148t-155 -57h-264q-10 0 -10 10v287q0 6 -6 6h-259q-6 0 -6 -6v-287q0 -10 -10 -10zM588 106
h138q51 0 79.5 26t28.5 73q0 48 -28.5 73t-79.5 25h-138q-6 0 -6 -6v-185q0 -6 6 -6z" />
    <glyph glyph-name="uni040B" unicode="&#x40b;" horiz-adv-x="757" 
d="M327 0h-98q-10 0 -10 10v558q0 4 -5 6h-182q-10 0 -10 10v86q0 10 10 10h492q10 0 10 -10v-86q0 -10 -10 -10h-181q-5 0 -6 -4v-166q0 -12 11 -7q92 24 162 24q186 0 186 -176v-236q0 -9 -10 -9h-98q-10 0 -10 9v212q0 94 -101 94q-55 0 -124 -20q-16 -4 -16 -17v-268
q0 -10 -10 -10z" />
    <glyph glyph-name="uni040C" unicode="&#x40c;" horiz-adv-x="633" 
d="M183 0h-98q-10 0 -10 10v660q0 10 10 10h98q10 0 10 -10v-266q0 -6 6 -6h67q61 0 88 68l46 115q22 55 54.5 79t82.5 24h41q10 0 10 -10v-85q0 -9 -10 -9h-13q-27 0 -40.5 -10.5t-25.5 -40.5l-35 -89q-27 -70 -65 -85v-4q47 -11 72 -75l47 -120q12 -33 24.5 -43.5
t41.5 -10.5h15q10 0 10 -9v-87q0 -10 -10 -10h-49q-51 0 -84 25t-55 80l-51 129q-26 62 -88 62h-73q-6 0 -6 -6v-276q0 -10 -10 -10zM338 761h-71q-12 0 -4 10l88 107q7 10 19 10h98q5 0 6.5 -3t-1.5 -7l-117 -109q-8 -8 -18 -8z" />
    <glyph glyph-name="uni040D" unicode="&#x40d;" horiz-adv-x="670" 
d="M177 0h-92q-10 0 -10 10v661q0 9 10 9h99q9 0 9 -9v-467h3l285 470q3 6 12 6h92q10 0 10 -9v-661q0 -10 -10 -10h-98q-10 0 -10 10v468h-3l-285 -471q-4 -7 -12 -7zM394 761h-72q-10 0 -18 8l-116 109q-4 4 -2.5 7t6.5 3h98q12 0 19 -10l89 -107q3 -4 1.5 -7t-5.5 -3z
" />
    <glyph glyph-name="uni040E" unicode="&#x40e;" horiz-adv-x="572" 
d="M175 -4h-70q-10 0 -10 10v87q0 9 10 9h45q52 0 74 54l18 42l-221 471q-5 11 5 11h106q10 0 14 -9l152 -337h3l135 337q4 9 14 9h105q8 0 4 -10l-239 -558q-50 -116 -145 -116zM299 746q-120 0 -144 112q-3 13 5 15l53 7q9 2 12 -6q18 -53 74 -53q54 0 74 53q3 8 12 6
l52 -7q9 -1 6 -15q-25 -112 -144 -112z" />
    <glyph glyph-name="uni040F" unicode="&#x40f;" horiz-adv-x="650" 
d="M371 -142h-92q-9 0 -9 9v127q0 6 -6 6h-179q-10 0 -10 9v661q0 10 10 10h99q9 0 9 -10v-558q0 -6 6 -6h252q6 0 6 6v558q0 10 9 10h100q9 0 9 -10v-661q0 -9 -10 -9h-179q-6 0 -6 -6v-127q0 -9 -9 -9z" />
    <glyph glyph-name="uni0410" unicode="&#x410;" horiz-adv-x="617" 
d="M125 0h-97q-10 0 -7 10l233 660q3 10 13 10h92q10 0 13 -10l230 -660q3 -10 -7 -10h-98q-10 0 -13 10l-45 132h-256l-45 -132q-3 -10 -13 -10zM310 511l-91 -264h184l-90 264h-3z" />
    <glyph glyph-name="uni0411" unicode="&#x411;" horiz-adv-x="608" 
d="M349 0h-264q-10 0 -10 10v661q0 9 10 9h428q10 0 10 -9v-88q0 -9 -10 -9h-314q-6 0 -6 -6v-153q0 -6 6 -6h150q96 0 155 -56t59 -148q0 -91 -59 -148q-58 -57 -155 -57zM199 106h138q51 0 79.5 26t28.5 73q0 48 -28.5 73t-79.5 25h-138q-6 0 -6 -6v-185q0 -6 6 -6z" />
    <glyph glyph-name="uni0412" unicode="&#x412;" horiz-adv-x="607" 
d="M328 0h-243q-10 0 -10 10v660q0 10 10 10h253q103 0 157.5 -48t54.5 -133q0 -101 -79 -143v-4q38 -15 64.5 -56t26.5 -96q0 -99 -60 -149.5t-174 -50.5zM199 104h142q48 0 75.5 26t27.5 69t-27.5 68.5t-75.5 25.5h-142q-6 0 -6 -6v-177q0 -6 6 -6zM199 397h136
q45 0 71 24.5t26 64.5q0 41 -26 65.5t-71 24.5h-136q-6 0 -6 -6v-167q0 -6 6 -6z" />
    <glyph glyph-name="uni0413" unicode="&#x413;" horiz-adv-x="500" 
d="M183 0h-98q-10 0 -10 10v660q0 10 10 10h390q10 0 10 -10v-87q0 -9 -10 -9h-276q-6 0 -6 -6v-558q0 -10 -10 -10z" />
    <glyph glyph-name="uni0414" unicode="&#x414;" horiz-adv-x="680" 
d="M111 -142h-93q-8 0 -8 9v230q0 9 9 9h40q12 0 15 8q44 81 60 183q18 103 18 310v64q0 9 10 9h417q9 0 9 -10v-558q0 -6 6 -6h59q10 0 10 -9v-230q0 -9 -9 -9h-93q-8 0 -8 9v127q0 6 -6 6h-421q-6 0 -6 -6v-127q0 -9 -9 -9zM202 106h262q6 0 6 6v456q0 6 -6 6h-191
q-6 0 -6 -6v-8q0 -314 -70 -447q-4 -7 5 -7z" />
    <glyph glyph-name="uni0415" unicode="&#x415;" horiz-adv-x="570" 
d="M511 0h-426q-10 0 -10 10v660q0 10 10 10h426q10 0 10 -10v-86q0 -10 -10 -10h-312q-6 0 -6 -6v-166q0 -6 6 -6h263q10 0 10 -10v-86q0 -10 -10 -10h-263q-6 0 -6 -6v-172q0 -6 6 -6h312q10 0 10 -10v-86q0 -10 -10 -10z" />
    <glyph glyph-name="uni0416" unicode="&#x416;" horiz-adv-x="948" 
d="M82 -4h-48q-10 0 -10 10v87q0 9 10 9h14q29 0 41.5 10.5t25.5 43.5l47 120q26 65 74 75v4q-38 11 -68 85l-35 89q-12 31 -24.5 41t-41.5 10h-13q-10 0 -10 9v85q0 10 10 10h41q50 0 82.5 -24t54.5 -79l47 -115q28 -69 88 -69h42q6 0 6 6v267q0 10 10 10h98q10 0 10 -10
v-267q0 -6 6 -6h41q60 0 89 69l46 115q22 55 54.5 79t82.5 24h41q10 0 10 -10v-85q0 -9 -10 -9h-13q-29 0 -41.5 -10t-24.5 -41l-35 -89q-28 -73 -68 -85v-4q49 -11 75 -75l46 -120q13 -33 25.5 -43.5t41.5 -10.5h15q10 0 10 -9v-87q0 -10 -10 -10h-49q-51 0 -84 25t-55 80
l-51 129q-25 63 -88 63h-48q-6 0 -6 -6v-277q0 -10 -10 -10h-98q-10 0 -10 10v277q0 6 -6 6h-48q-63 0 -88 -63l-52 -129q-22 -56 -54.5 -80.5t-84.5 -24.5z" />
    <glyph glyph-name="uni0417" unicode="&#x417;" horiz-adv-x="560" 
d="M277 -11q-159 0 -247 82q-6 5 0 15l49 70q4 7 12 1q82 -64 179 -64q55 0 91 28t36 73q0 99 -120 99h-73q-10 0 -10 10v84q0 10 10 10h74q51 0 80 26t29 73q0 44 -32 67.5t-89 23.5q-86 0 -156 -55q-10 -8 -15 0l-47 70q-6 10 1 14q97 75 225 75q108 0 170 -50.5
t62 -137.5q0 -52 -22 -91t-63 -57v-4q45 -15 70.5 -57t25.5 -102q0 -92 -66 -147q-67 -56 -174 -56z" />
    <glyph glyph-name="uni0418" unicode="&#x418;" horiz-adv-x="670" 
d="M177 0h-92q-10 0 -10 10v661q0 9 10 9h99q9 0 9 -9v-467h3l285 470q3 6 12 6h92q10 0 10 -9v-661q0 -10 -10 -10h-98q-10 0 -10 10v468h-3l-285 -471q-4 -7 -12 -7z" />
    <glyph glyph-name="uni0419" unicode="&#x419;" horiz-adv-x="670" 
d="M177 0h-92q-10 0 -10 10v661q0 9 10 9h99q9 0 9 -9v-467h3l285 470q3 6 12 6h92q10 0 10 -9v-661q0 -10 -10 -10h-98q-10 0 -10 10v468h-3l-285 -471q-4 -7 -12 -7zM336 746q-120 0 -144 112q-3 13 5 15l53 7q9 2 12 -6q18 -53 74 -53q54 0 74 53q3 8 12 6l52 -7
q9 -1 6 -15q-25 -112 -144 -112z" />
    <glyph glyph-name="uni041A" unicode="&#x41a;" horiz-adv-x="633" 
d="M183 0h-98q-10 0 -10 10v660q0 10 10 10h98q10 0 10 -10v-266q0 -6 6 -6h67q61 0 88 68l46 115q22 55 54.5 79t82.5 24h41q10 0 10 -10v-85q0 -9 -10 -9h-13q-27 0 -40.5 -10.5t-25.5 -40.5l-35 -89q-27 -70 -65 -85v-4q47 -11 72 -75l47 -120q12 -33 24.5 -43.5
t41.5 -10.5h15q10 0 10 -9v-87q0 -10 -10 -10h-49q-51 0 -84 25t-55 80l-51 129q-26 62 -88 62h-73q-6 0 -6 -6v-276q0 -10 -10 -10z" />
    <glyph glyph-name="uni041B" unicode="&#x41b;" horiz-adv-x="668" 
d="M65 -4h-47q-9 0 -9 10v87q0 9 9 9h12q28 0 48.5 11t39 39t28 84.5t9.5 139.5v295q0 9 10 9h418q10 0 10 -9v-661q0 -10 -9 -10h-100q-9 0 -9 10v558q0 6 -6 6h-192q-6 0 -6 -6v-206q0 -197 -52 -282q-51 -84 -154 -84z" />
    <glyph glyph-name="uni041C" unicode="&#x41c;" horiz-adv-x="756" 
d="M172 0h-87q-10 0 -10 10v660q0 10 10 10h89q13 0 17 -10l187 -419h4l184 419q4 10 17 10h88q10 0 10 -10v-660q0 -10 -10 -10h-87q-10 0 -10 10v416h-4l-144 -320q-6 -13 -19 -13h-58q-13 0 -19 13l-144 320h-4v-416q0 -10 -10 -10z" />
    <glyph glyph-name="uni041D" unicode="&#x41d;" horiz-adv-x="657" 
d="M183 0h-98q-10 0 -10 10v660q0 10 10 10h98q10 0 10 -10v-268q0 -6 6 -6h259q6 0 6 6v268q0 10 10 10h98q10 0 10 -10v-660q0 -10 -10 -10h-98q-10 0 -10 10v274q0 6 -6 6h-259q-6 0 -6 -6v-274q0 -10 -10 -10z" />
    <glyph glyph-name="uni041E" unicode="&#x41e;" horiz-adv-x="627" 
d="M313 -11q-90 0 -152 42t-88 122q-18 54 -18 187t18 187q26 80 88 122t152 42t152.5 -42t88.5 -122q18 -54 18 -187t-18 -187q-26 -80 -88.5 -122t-152.5 -42zM313 95q95 0 127 89q12 38 12 156t-12 156q-32 89 -127 89q-94 0 -126 -89q-12 -38 -12 -156t12 -156
q32 -89 126 -89z" />
    <glyph glyph-name="uni041F" unicode="&#x41f;" horiz-adv-x="650" 
d="M184 0h-99q-10 0 -10 10v661q0 9 10 9h480q10 0 10 -9v-661q0 -10 -9 -10h-100q-9 0 -9 10v558q0 6 -6 6h-252q-6 0 -6 -6v-558q0 -10 -9 -10z" />
    <glyph glyph-name="uni0420" unicode="&#x420;" horiz-adv-x="598" 
d="M183 0h-98q-10 0 -10 10v660q0 10 10 10h255q99 0 161 -59q63 -59 63 -152q0 -95 -63 -154q-61 -58 -161 -58h-141q-6 0 -6 -6v-241q0 -10 -10 -10zM199 364h134q52 0 82.5 28.5t30.5 76.5q0 47 -30.5 76t-82.5 29h-134q-6 0 -6 -6v-198q0 -6 6 -6z" />
    <glyph glyph-name="uni0421" unicode="&#x421;" horiz-adv-x="575" 
d="M309 -11q-88 0 -149 43t-87 124q-18 54 -18 184t18 184q26 81 87 124t149 43q80 0 140 -38.5t90 -107.5q3 -9 -5 -12l-85 -41q-9 -4 -13 5q-40 88 -127 88q-91 0 -122 -90q-12 -37 -12 -155t12 -155q31 -90 122 -90q87 0 127 88q4 9 13 5l85 -41q8 -3 5 -12
q-30 -69 -90 -107.5t-140 -38.5z" />
    <glyph glyph-name="uni0422" unicode="&#x422;" horiz-adv-x="550" 
d="M324 0h-98q-10 0 -10 10v558q0 6 -6 6h-178q-10 0 -10 10v86q0 10 10 10h486q10 0 10 -10v-86q0 -10 -10 -10h-178q-6 0 -6 -6v-558q0 -10 -10 -10z" />
    <glyph glyph-name="uni0423" unicode="&#x423;" horiz-adv-x="572" 
d="M175 -4h-70q-10 0 -10 10v87q0 9 10 9h45q52 0 74 54l18 42l-221 471q-5 11 5 11h106q10 0 14 -9l152 -337h3l135 337q4 9 14 9h105q8 0 4 -10l-239 -558q-50 -116 -145 -116z" />
    <glyph glyph-name="uni0424" unicode="&#x424;" horiz-adv-x="781" 
d="M440 -11h-100q-9 0 -9 10v74q0 6 -6 6q-287 14 -287 276q0 126 73 193.5t214 73.5q6 0 6 6v54q0 9 10 9h99q9 0 9 -9v-54q0 -6 6 -6q142 -6 215 -73.5t73 -193.5q0 -263 -288 -276q-6 0 -6 -6v-74q0 -10 -9 -10zM325 184q6 0 6 6v322q0 5 -6 5q-86 -2 -127.5 -43.5
t-41.5 -123.5q0 -159 169 -166zM456 184q169 7 169 166q0 82 -41.5 123.5t-127.5 43.5q-7 0 -7 -5v-322q0 -6 7 -6z" />
    <glyph glyph-name="uni0425" unicode="&#x425;" horiz-adv-x="572" 
d="M138 0h-108q-13 0 -6 13l203 339l-188 315q-7 13 6 13h108q10 0 16 -10l123 -206h2l123 206q6 10 16 10h108q13 0 6 -13l-188 -315l203 -339q7 -13 -6 -13h-109q-10 0 -16 10l-137 231h-2l-138 -231q-6 -10 -16 -10z" />
    <glyph glyph-name="uni0426" unicode="&#x426;" horiz-adv-x="667" 
d="M641 -142h-93q-8 0 -8 9v127q0 6 -6 6h-449q-10 0 -10 9v661q0 10 10 10h99q9 0 9 -10v-558q0 -6 6 -6h252q6 0 6 6v558q0 10 9 10h100q9 0 9 -10v-558q0 -6 6 -6h59q10 0 10 -9v-230q0 -9 -9 -9z" />
    <glyph glyph-name="uni0427" unicode="&#x427;" horiz-adv-x="611" 
d="M527 0h-100q-9 0 -9 10v247q0 7 -9 6q-84 -25 -165 -25q-186 0 -186 177v256q0 9 10 9h98q10 0 10 -9v-231q0 -94 100 -94q64 0 130 20q12 3 12 13v292q0 9 9 9h99q10 0 10 -9v-661q0 -10 -9 -10z" />
    <glyph glyph-name="uni0428" unicode="&#x428;" horiz-adv-x="948" 
d="M863 0h-778q-10 0 -10 9v661q0 10 10 10h99q9 0 9 -10v-558q0 -6 6 -6h210q6 0 6 6v558q0 10 8 10h101q9 0 9 -10v-558q0 -6 6 -6h210q6 0 6 6v558q0 10 8 10h100q10 0 10 -10v-661q0 -9 -10 -9z" />
    <glyph glyph-name="uni0429" unicode="&#x429;" horiz-adv-x="964" 
d="M938 -142h-92q-9 0 -9 9v127q0 6 -6 6h-746q-10 0 -10 9v661q0 10 10 10h99q9 0 9 -10v-558q0 -6 6 -6h210q6 0 6 6v558q0 10 8 10h101q9 0 9 -10v-558q0 -6 6 -6h210q6 0 6 6v558q0 10 8 10h100q10 0 10 -10v-558q0 -6 6 -6h58q10 0 10 -9v-230q0 -9 -9 -9z" />
    <glyph glyph-name="uni042A" unicode="&#x42a;" horiz-adv-x="703" 
d="M437 0h-257q-10 0 -10 10v558q0 6 -6 6h-139q-9 0 -9 9v87q0 10 9 10h253q10 0 10 -10v-241q0 -6 6 -6h143q107 0 168.5 -57.5t61.5 -153.5q0 -97 -61.5 -154.5t-168.5 -57.5zM294 106h136q57 0 88 27t31 79q0 51 -31 78t-88 27h-136q-6 0 -6 -6v-199q0 -6 6 -6z" />
    <glyph glyph-name="uni042B" unicode="&#x42b;" horiz-adv-x="846" 
d="M342 0h-257q-10 0 -10 10v660q0 10 10 10h98q10 0 10 -10v-241q0 -6 6 -6h143q107 0 168.5 -57.5t61.5 -153.5q0 -97 -61.5 -154.5t-168.5 -57.5zM199 106h136q57 0 88 27t31 79q0 51 -31 78t-88 27h-136q-6 0 -6 -6v-199q0 -6 6 -6zM761 0h-98q-10 0 -10 10v660
q0 10 10 10h98q10 0 10 -10v-660q0 -10 -10 -10z" />
    <glyph glyph-name="uni042C" unicode="&#x42c;" horiz-adv-x="608" 
d="M342 0h-257q-10 0 -10 10v660q0 10 10 10h98q10 0 10 -10v-241q0 -6 6 -6h143q107 0 168.5 -57.5t61.5 -153.5q0 -97 -61.5 -154.5t-168.5 -57.5zM199 106h136q57 0 88 29t31 81q0 101 -119 101h-136q-6 0 -6 -6v-199q0 -6 6 -6z" />
    <glyph glyph-name="uni042D" unicode="&#x42d;" horiz-adv-x="574" 
d="M265 -11q-78 0 -136.5 36t-86.5 100q-4 10 4 14l80 38q10 5 14 -5q40 -79 123 -79q94 0 124 76q17 41 18 116q0 7 -7 7h-195q-9 0 -9 9v86q0 9 9 9h195q7 0 7 7q-2 64 -13 97q-28 87 -129 87q-83 0 -123 -79q-5 -10 -13 -5l-81 38q-7 4 -4 14q58 136 223 136
q89 0 151 -40.5t88 -120.5q20 -62 20 -187q0 -149 -28 -214q-61 -140 -231 -140z" />
    <glyph glyph-name="uni042E" unicode="&#x42e;" horiz-adv-x="852" 
d="M551 -11q-84 0 -142.5 40.5t-83.5 115.5q-17 49 -18 141q0 6 -6 6h-102q-6 0 -6 -6v-276q0 -10 -9 -10h-99q-10 0 -10 10v660q0 10 10 10h99q9 0 9 -10v-266q0 -6 6 -6h102q6 0 6 6q5 89 18 131q24 75 83 115.5t143 40.5t143 -40.5t84 -115.5q19 -60 19 -195t-19 -195
q-25 -75 -84 -115.5t-143 -40.5zM666 177q13 39 13 163t-13 162q-26 83 -114 83t-114 -83q-13 -38 -13 -162t13 -163q25 -82 114 -82t114 82z" />
    <glyph glyph-name="uni042F" unicode="&#x42f;" horiz-adv-x="633" 
d="M80 -4h-37q-10 0 -10 10v87q0 9 10 9h14q27 0 41 10.5t26 38.5l35 80q17 38 47 58v4q-65 12 -104 61.5t-39 126.5q0 88 58 143q59 56 157 56h270q10 0 10 -9v-661q0 -10 -10 -10h-98q-10 0 -10 10v247q0 6 -6 6h-77q-32 0 -50.5 -11t-32.5 -43l-45 -108q-23 -57 -57 -81
t-92 -24zM291 368h143q6 0 6 6v194q0 6 -6 6h-143q-50 0 -80 -26.5t-30 -76.5t30 -76.5t80 -26.5z" />
    <glyph glyph-name="uni0430" unicode="&#x430;" horiz-adv-x="523" 
d="M213 -11q-72 0 -117 38.5t-45 108.5q0 76 49.5 114.5t143.5 38.5h98q6 0 6 6v23q0 43 -24.5 61.5t-82.5 18.5q-68 0 -110 -33q-9 -8 -14 2l-37 66q-5 9 2 13q65 47 171 47q108 0 154.5 -39t46.5 -129v-315q0 -10 -10 -10h-84q-10 0 -10 10v35h-1q-39 -56 -136 -56z
M241 80q107 0 107 82v37q0 6 -6 6h-80q-104 0 -104 -65q0 -60 83 -60z" />
    <glyph glyph-name="uni0431" unicode="&#x431;" horiz-adv-x="537" 
d="M276 -11q-118 0 -174 78q-26 36 -34 88t-8 150q0 121 12 183q14 64 61 108q25 25 77 39q25 8 60 11q19 3 31 4q23 2 27 3q40 6 42 29q2 9 11 9h83q9 0 9 -9q-2 -60 -29 -90t-86 -36l-36 -3q-6 0 -39 -4q-66 -5 -96 -36q-36 -33 -36 -109h3q36 72 138 72t150 -59.5
t48 -178.5q0 -122 -55.5 -185.5t-158.5 -63.5zM376 237q0 80 -24.5 112.5t-76.5 32.5q-51 0 -76 -32.5t-25 -112.5q0 -83 24.5 -116t76.5 -33t76.5 33.5t24.5 115.5z" />
    <glyph glyph-name="uni0432" unicode="&#x432;" horiz-adv-x="523" 
d="M314 0h-231q-10 0 -10 9v464q0 9 10 9h231q73 0 113 -33.5t40 -92.5q0 -75 -68 -104v-4q35 -12 55.5 -41.5t20.5 -70.5q0 -66 -42 -101t-119 -35zM190 92h111q63 0 63 56q0 54 -63 54h-111q-5 0 -5 -5v-100q0 -5 5 -5zM190 289h107q59 0 59 52q0 50 -59 50h-107
q-5 0 -5 -5v-93q0 -4 5 -4z" />
    <glyph glyph-name="uni0433" unicode="&#x433;" horiz-adv-x="410" 
d="M176 0h-94q-9 0 -9 9v464q0 9 9 9h310q10 0 10 -9v-80q0 -9 -10 -9h-201q-6 0 -6 -6v-369q0 -9 -9 -9z" />
    <glyph glyph-name="uni0434" unicode="&#x434;" horiz-adv-x="570" 
d="M109 -114h-87q-8 0 -8 9v194q0 9 9 9h30q13 0 19 13q27 66 37 118q12 59 12 169v75q0 9 10 9h348q9 0 9 -9v-369q0 -6 6 -6h48q9 0 9 -9v-194q0 -9 -8 -9h-86q-9 0 -9 9v99q0 6 -6 6h-319q-6 0 -6 -6v-99q0 -9 -8 -9zM187 98h183q6 0 6 6v274q0 6 -6 6h-137q-6 0 -6 -6
v-39q0 -147 -43 -234q-4 -7 3 -7z" />
    <glyph glyph-name="uni0435" unicode="&#x435;" horiz-adv-x="521" 
d="M265 -11q-75 0 -128 35.5t-73 98.5q-17 54 -17 118q0 71 16 119q20 63 72.5 98t124.5 35q74 0 126 -35t72 -98q16 -48 16 -145q0 -10 -11 -10h-297q-6 0 -6 -6q0 -19 7 -37q25 -73 108 -73q71 0 113 46q8 8 15 2l59 -52q7 -6 1 -14q-70 -82 -198 -82zM166 289h189
q6 0 6 6q0 23 -6 41q-10 29 -35 45.5t-59 16.5q-74 0 -95 -62q-6 -18 -6 -41q0 -6 6 -6z" />
    <glyph glyph-name="uni0436" unicode="&#x436;" horiz-adv-x="770" 
d="M88 -4h-45q-10 0 -10 9v77q0 9 10 9h4q22 0 32.5 10.5t22.5 39.5l22 56q20 47 49 54v4q-24 10 -39 53l-17 45q-15 41 -53 41h-9q-10 0 -10 10v73q0 9 10 9h41q43 0 69 -17.5t41 -58.5l25 -65q19 -52 70 -52h22q6 0 6 6v174q0 9 10 9h93q9 0 9 -9v-174q0 -6 6 -6h22
q52 0 71 52l24 65q16 41 41.5 58.5t68.5 17.5h41q10 0 10 -9v-73q0 -10 -10 -10h-8q-39 0 -54 -41l-17 -45q-15 -43 -39 -53v-4q29 -7 49 -54l22 -56q12 -29 22.5 -39.5t32.5 -10.5h5q9 0 9 -9v-77q0 -9 -9 -9h-45q-45 0 -70.5 19.5t-41.5 64.5l-27 72q-13 29 -29.5 38
t-40.5 8h-27q-6 0 -6 -6v-183q0 -9 -9 -9h-93q-10 0 -10 9v183q0 6 -6 6h-26q-50 2 -71 -46l-27 -72q-16 -45 -41 -64.5t-70 -19.5z" />
    <glyph glyph-name="uni0437" unicode="&#x437;" horiz-adv-x="478" 
d="M239 -11q-124 0 -202 63q-7 6 -1 14l46 64q5 5 14 -1q58 -45 127 -45q99 0 99 60q0 59 -81 59h-63q-9 0 -9 10v66q0 10 9 10h62q74 0 74 59q0 51 -92 51q-59 0 -114 -37q-10 -6 -13 0l-38 63q-6 9 2 14q72 54 181 54q90 0 139.5 -34t49.5 -99q0 -77 -68 -104v-4
q33 -10 54 -41.5t21 -70.5q0 -68 -54.5 -109.5t-142.5 -41.5z" />
    <glyph glyph-name="uni0438" unicode="&#x438;" horiz-adv-x="570" 
d="M179 0h-96q-10 0 -10 9v464q0 9 10 9h93q9 0 9 -9v-301h3l189 304q5 6 12 6h98q10 0 10 -9v-464q0 -9 -10 -9h-93q-9 0 -9 9v307h-3l-190 -308q-5 -8 -13 -8z" />
    <glyph glyph-name="uni0439" unicode="&#x439;" horiz-adv-x="570" 
d="M179 0h-96q-10 0 -10 9v464q0 9 10 9h93q9 0 9 -9v-301h3l189 304q5 6 12 6h98q10 0 10 -9v-464q0 -9 -10 -9h-93q-9 0 -9 9v307h-3l-190 -308q-5 -8 -13 -8zM285 550q-116 0 -140 112q-3 14 6 15l50 8q9 1 12 -6q20 -56 72 -56t73 56q3 7 12 6l49 -8q9 -1 6 -15
q-25 -112 -140 -112z" />
    <glyph glyph-name="uni043A" unicode="&#x43a;" horiz-adv-x="521" 
d="M176 0h-93q-10 0 -10 9v464q0 9 10 9h93q9 0 9 -9v-174q0 -6 6 -6h29q23 0 42 14.5t28 37.5l24 65q16 41 42.5 58.5t74.5 17.5h35q9 0 9 -9v-73q0 -10 -9 -10h-9q-38 0 -53 -41l-14 -38q-18 -49 -42 -60v-4q31 -9 49 -54l22 -56q12 -29 22.5 -39.5t32.5 -10.5h5q9 0 9 -9
v-77q0 -9 -9 -9h-35q-51 0 -78 19t-43 65l-27 72q-13 29 -32 38t-46 8h-27q-6 0 -6 -6v-183q0 -9 -9 -9z" />
    <glyph glyph-name="uni043B" unicode="&#x43b;" horiz-adv-x="561" 
d="M63 -4h-38q-9 0 -9 9v77q0 9 9 9h8q90 0 90 162v220q0 9 9 9h347q9 0 9 -9v-464q0 -9 -9 -9h-93q-10 0 -10 9v369q0 6 -6 6h-134q-6 0 -6 -6v-134q0 -133 -41 -190.5t-126 -57.5z" />
    <glyph glyph-name="uni043C" unicode="&#x43c;" horiz-adv-x="648" 
d="M171 0h-88q-10 0 -10 9v464q0 9 10 9h98q7 0 11 -7l131 -273h3l130 273q4 7 12 7h98q9 0 9 -9v-464q0 -9 -9 -9h-88q-10 0 -10 9v268h-3l-100 -205q-5 -9 -13 -9h-56q-8 0 -11 9l-102 205h-3v-268q0 -9 -9 -9z" />
    <glyph glyph-name="uni043D" unicode="&#x43d;" horiz-adv-x="554" 
d="M176 0h-93q-10 0 -10 9v464q0 9 10 9h93q9 0 9 -9v-174q0 -6 6 -6h172q6 0 6 6v174q0 9 10 9h92q10 0 10 -9v-464q0 -9 -10 -9h-92q-10 0 -10 9v183q0 6 -6 6h-172q-6 0 -6 -6v-183q0 -9 -9 -9z" />
    <glyph glyph-name="uni043E" unicode="&#x43e;" horiz-adv-x="523" 
d="M262 -11q-74 0 -126.5 35t-72.5 98q-16 48 -16 119t16 119q20 63 72.5 98t126.5 35q73 0 125.5 -35t72.5 -98q16 -48 16 -119t-16 -119q-20 -63 -72.5 -98t-125.5 -35zM262 89q68 0 90 63q10 30 10 89t-10 89q-20 63 -90 63q-72 0 -91 -63q-10 -30 -10 -89t10 -89
q23 -63 91 -63z" />
    <glyph glyph-name="uni043F" unicode="&#x43f;" horiz-adv-x="551" 
d="M176 0h-93q-10 0 -10 9v464q0 9 10 9h386q9 0 9 -9v-464q0 -9 -9 -9h-93q-10 0 -10 9v369q0 6 -6 6h-169q-6 0 -6 -6v-369q0 -9 -9 -9z" />
    <glyph glyph-name="uni0440" unicode="&#x440;" horiz-adv-x="545" 
d="M175 -180h-92q-10 0 -10 10v642q0 10 10 10h92q10 0 10 -10v-36h1q40 57 128 57q129 0 167 -116q17 -54 17 -136t-17 -136q-38 -116 -167 -116q-88 0 -128 57h-1v-216q0 -10 -10 -10zM285 89q69 0 89 62q10 30 10 90t-10 90q-20 62 -89 62q-70 0 -90 -62q-10 -30 -10 -90
t10 -90q20 -62 90 -62z" />
    <glyph glyph-name="uni0441" unicode="&#x441;" horiz-adv-x="475" 
d="M261 -11q-73 0 -125.5 35t-73.5 98q-15 45 -15 119t15 119q21 63 73.5 98t125.5 35q105 0 167 -75q6 -8 -1 -14l-63 -55q-8 -6 -14 2q-38 42 -89 42q-69 0 -90 -63q-10 -29 -10 -89q0 -61 10 -90q21 -62 90 -62q51 0 89 42q6 7 14 1l63 -55q6 -4 1 -14q-62 -74 -167 -74z
" />
    <glyph glyph-name="uni0442" unicode="&#x442;" horiz-adv-x="431" 
d="M260 0h-92q-10 0 -10 9v369q0 6 -6 6h-130q-10 0 -10 9v80q0 9 10 9h388q9 0 9 -9v-80q0 -9 -9 -9h-134q-6 0 -6 -6v-369q0 -9 -10 -9z" />
    <glyph glyph-name="uni0443" unicode="&#x443;" horiz-adv-x="485" 
d="M124 -180h-31q-10 0 -10 10v80q0 10 10 10h18q51 0 72 57l14 41l-176 454q-3 10 8 10h99q9 0 12 -10l109 -315h2l104 315q3 10 12 10h95q11 0 8 -10l-184 -502q-32 -86 -67 -117q-34 -33 -95 -33z" />
    <glyph glyph-name="uni0444" unicode="&#x444;" horiz-adv-x="700" 
d="M397 -180h-94q-9 0 -9 9v160q0 6 -6 6q-119 6 -183 68.5t-64 180.5q0 231 247 243q6 0 6 6v178q0 9 9 9h94q9 0 9 -9v-178q0 -6 6 -6q247 -12 247 -243q0 -118 -64 -180.5t-183 -68.5q-6 0 -6 -6v-160q0 -9 -9 -9zM288 91q6 0 6 6v289q0 6 -6 6q-70 -3 -102 -38.5
t-32 -110.5t33 -111.5t101 -40.5zM412 91q68 4 101 40.5t33 111.5t-32 110.5t-102 38.5q-6 0 -6 -6v-289q0 -6 6 -6z" />
    <glyph glyph-name="uni0445" unicode="&#x445;" horiz-adv-x="495" 
d="M136 0h-99q-14 0 -8 10l163 240l-151 222q-6 10 8 10h100q11 0 17 -10l87 -130h1l88 130q7 10 16 10h100q14 0 8 -10l-151 -222l163 -240q6 -10 -8 -10h-100q-9 0 -16 10l-100 147h-1l-100 -147q-7 -10 -17 -10z" />
    <glyph glyph-name="uni0446" unicode="&#x446;" horiz-adv-x="560" 
d="M533 -114h-86q-9 0 -9 9v99q0 6 -6 6h-349q-10 0 -10 9v464q0 9 10 9h93q9 0 9 -9v-369q0 -6 6 -6h169q6 0 6 6v369q0 9 10 9h93q9 0 9 -9v-369q0 -6 6 -6h48q9 0 9 -9v-194q0 -9 -8 -9z" />
    <glyph glyph-name="uni0447" unicode="&#x447;" horiz-adv-x="522" 
d="M440 0h-93q-10 0 -10 9v164q0 8 -8 5q-72 -19 -123 -19q-153 0 -153 145v169q0 9 10 9h93q9 0 9 -9v-148q0 -68 72 -68q46 0 94 16q6 3 6 8v192q0 9 10 9h93q9 0 9 -9v-464q0 -9 -9 -9z" />
    <glyph glyph-name="uni0448" unicode="&#x448;" horiz-adv-x="787" 
d="M705 0h-622q-10 0 -10 9v464q0 9 10 9h93q9 0 9 -9v-369q0 -6 6 -6h141q6 0 6 6v369q0 9 10 9h92q10 0 10 -9v-369q0 -6 6 -6h140q6 0 6 6v369q0 9 10 9h93q9 0 9 -9v-464q0 -9 -9 -9z" />
    <glyph glyph-name="uni0449" unicode="&#x449;" horiz-adv-x="797" 
d="M769 -114h-86q-8 0 -8 9v99q0 6 -6 6h-586q-10 0 -10 9v464q0 9 10 9h93q9 0 9 -9v-369q0 -6 6 -6h141q6 0 6 6v369q0 9 10 9h92q10 0 10 -9v-369q0 -6 6 -6h140q6 0 6 6v369q0 9 10 9h93q9 0 9 -9v-369q0 -6 6 -6h48q10 0 10 -9v-194q0 -9 -9 -9z" />
    <glyph glyph-name="uni044A" unicode="&#x44a;" horiz-adv-x="566" 
d="M375 0h-237q-9 0 -9 9v369q0 6 -6 6h-102q-9 0 -9 9v80q0 9 9 9h210q10 0 10 -9v-157q0 -6 6 -6h122q72 0 116.5 -43t44.5 -112t-42.5 -112t-112.5 -43zM247 96h106q65 0 65 60q0 59 -65 59h-106q-6 0 -6 -6v-107q0 -6 6 -6z" />
    <glyph glyph-name="uni044B" unicode="&#x44b;" horiz-adv-x="715" 
d="M319 0h-236q-10 0 -10 9v464q0 9 10 9h93q9 0 9 -9v-157q0 -6 6 -6h122q72 0 116.5 -43t44.5 -112t-42.5 -112t-112.5 -43zM191 96h106q65 0 65 60q0 59 -65 59h-106q-6 0 -6 -6v-107q0 -6 6 -6zM632 0h-92q-10 0 -10 10v462q0 10 10 10h92q10 0 10 -10v-462
q0 -10 -10 -10z" />
    <glyph glyph-name="uni044C" unicode="&#x44c;" horiz-adv-x="510" 
d="M314 0h-231q-10 0 -10 9v464q0 9 10 9h93q9 0 9 -9v-157q0 -6 6 -6h122q72 0 116.5 -43t44.5 -112t-44 -112t-116 -43zM191 96h106q65 0 65 60q0 59 -65 59h-106q-6 0 -6 -6v-107q0 -6 6 -6z" />
    <glyph glyph-name="uni044D" unicode="&#x44d;" horiz-adv-x="486" 
d="M229 -11q-129 0 -186 89q-5 8 4 14l61 49q7 6 14 -4q38 -51 102 -51q48 0 75.5 28.5t29.5 79.5q0 6 -6 6h-142q-9 0 -9 9v72q0 10 9 10h142q6 0 6 6q-1 19 -11 46q-21 55 -94 55q-65 0 -98 -49q-7 -10 -15 -4l-59 46q-8 5 -3 13q57 89 180 89q116 0 175 -83
q40 -56 40 -169q0 -102 -31 -154q-57 -98 -184 -98z" />
    <glyph glyph-name="uni044E" unicode="&#x44e;" horiz-adv-x="729" 
d="M476 -11q-113 0 -169 87q-30 46 -36 116q0 6 -6 6h-74q-6 0 -6 -6v-183q0 -9 -9 -9h-93q-10 0 -10 9v464q0 9 10 9h93q9 0 9 -9v-174q0 -6 6 -6h75q6 0 6 6q7 52 26 91q52 103 178 103q72 0 122 -35t69 -98q15 -51 15 -119q0 -69 -15 -120q-19 -63 -69 -97.5t-122 -34.5z
M475 89q62 0 82 62q11 38 11 90q0 57 -10 88q-19 64 -83 64q-63 0 -82 -64q-10 -31 -10 -88q0 -52 11 -90q20 -62 81 -62z" />
    <glyph glyph-name="uni044F" unicode="&#x44f;" horiz-adv-x="527" 
d="M87 -4h-34q-9 0 -9 9v77q0 9 9 9h10q19 0 29 7.5t22 29.5l16 30q19 36 32 41v3q-46 11 -74.5 47.5t-28.5 84.5q0 71 46 109.5t129 38.5h211q9 0 9 -9v-464q0 -9 -9 -9h-93q-10 0 -10 9v158q0 6 -6 6h-31q-26 0 -41 -9t-27 -35l-30 -60q-21 -43 -45 -58t-75 -15zM238 265
h99q5 0 5 5v112q0 6 -5 6h-99q-68 0 -68 -59q0 -30 18 -47t50 -17z" />
    <glyph glyph-name="uni0450" unicode="&#x450;" horiz-adv-x="521" 
d="M265 -11q-75 0 -128 35.5t-73 98.5q-17 54 -17 118q0 71 16 119q20 63 72.5 98t124.5 35q74 0 126 -35t72 -98q16 -48 16 -145q0 -10 -11 -10h-297q-6 0 -6 -6q0 -19 7 -37q25 -73 108 -73q71 0 113 46q8 8 15 2l59 -52q7 -6 1 -14q-70 -82 -198 -82zM166 289h189
q6 0 6 6q0 23 -6 41q-10 29 -35 45.5t-59 16.5q-74 0 -95 -62q-6 -18 -6 -41q0 -6 6 -6zM312 555h-67q-11 0 -20 10l-95 125q-3 4 -1.5 7t6.5 3h91q12 0 18 -10l74 -125q4 -10 -6 -10z" />
    <glyph glyph-name="uni0451" unicode="&#x451;" horiz-adv-x="521" 
d="M265 -11q-75 0 -128 35.5t-73 98.5q-17 54 -17 118q0 71 16 119q20 63 72.5 98t124.5 35q74 0 126 -35t72 -98q16 -48 16 -145q0 -10 -11 -10h-297q-6 0 -6 -6q0 -19 7 -37q25 -73 108 -73q71 0 113 46q8 8 15 2l59 -52q7 -6 1 -14q-70 -82 -198 -82zM166 289h189
q6 0 6 6q0 23 -6 41q-10 29 -35 45.5t-59 16.5q-74 0 -95 -62q-6 -18 -6 -41q0 -6 6 -6zM399 573h-77q-10 0 -10 10v87q0 10 10 10h77q10 0 10 -10v-87q0 -10 -10 -10zM203 573h-77q-10 0 -10 10v87q0 10 10 10h77q10 0 10 -10v-87q0 -10 -10 -10z" />
    <glyph glyph-name="uni0452" unicode="&#x452;" horiz-adv-x="548" 
d="M318 -180h-28q-10 0 -10 10v80q0 10 10 10h22q31 0 43.5 12.5t12.5 44.5v310q0 106 -91 106q-42 0 -67 -27t-25 -74v-282q0 -10 -10 -10h-92q-10 0 -10 10v517q0 6 -6 6h-66q-10 0 -10 10v68q0 10 10 10h66q6 0 6 6v43q0 10 10 10h92q10 0 10 -10v-43q0 -6 6 -6h103
q10 0 10 -10v-68q0 -10 -10 -10h-103q-6 0 -6 -6v-101h1q39 67 130 67q80 0 122 -47.5t42 -134.5v-332q0 -159 -162 -159z" />
    <glyph glyph-name="uni0453" unicode="&#x453;" horiz-adv-x="410" 
d="M176 0h-94q-9 0 -9 9v464q0 9 9 9h310q10 0 10 -9v-80q0 -9 -10 -9h-201q-6 0 -6 -6v-369q0 -9 -9 -9zM236 555h-68q-10 0 -6 10l75 125q6 10 18 10h91q5 0 6.5 -3t-1.5 -7l-95 -125q-9 -10 -20 -10z" />
    <glyph glyph-name="uni0454" unicode="&#x454;" horiz-adv-x="486" 
d="M262 -11q-127 0 -184 98q-31 52 -31 154q0 113 40 169q59 83 175 83q123 0 180 -89q5 -8 -3 -13l-59 -46q-8 -6 -15 4q-33 49 -98 49q-73 0 -94 -55q-10 -27 -11 -46q0 -6 6 -6h142q9 0 9 -10v-72q0 -9 -9 -9h-142q-6 0 -6 -6q1 -30 15 -59q25 -49 90 -49q64 0 102 51
q7 10 14 4l61 -49q9 -6 4 -14q-57 -89 -186 -89z" />
    <glyph glyph-name="uni0455" unicode="&#x455;" horiz-adv-x="498" 
d="M258 -11q-125 0 -207 76q-7 7 0 14l57 60q7 7 14 0q27 -24 66 -39.5t75 -15.5q42 0 65.5 15t23.5 42q0 24 -18 36.5t-62 16.5l-52 5q-148 15 -148 142q0 72 49 112t138 40q105 0 181 -59q8 -6 2 -14l-49 -59q-6 -7 -14 -2q-56 40 -126 40q-34 0 -53.5 -14t-19.5 -36
q0 -23 18 -35t61 -16l52 -5q73 -7 111 -43.5t38 -97.5q0 -75 -53 -119t-149 -44z" />
    <glyph glyph-name="uni0456" unicode="&#x456;" horiz-adv-x="258" 
d="M175 0h-92q-10 0 -10 10v462q0 10 10 10h92q10 0 10 -10v-462q0 -10 -10 -10zM175 573h-92q-10 0 -10 10v87q0 10 10 10h92q10 0 10 -10v-87q0 -10 -10 -10z" />
    <glyph glyph-name="uni0457" unicode="&#x457;" horiz-adv-x="258" 
d="M266 573h-77q-10 0 -10 10v87q0 10 10 10h77q10 0 10 -10v-87q0 -10 -10 -10zM70 573h-77q-10 0 -10 10v87q0 10 10 10h77q10 0 10 -10v-87q0 -10 -10 -10zM175 0h-92q-10 0 -10 10v462q0 10 10 10h92q10 0 10 -10v-462q0 -10 -10 -10z" />
    <glyph glyph-name="uni0458" unicode="&#x458;" horiz-adv-x="258" 
d="M23 -180h-28q-10 0 -10 10v80q0 10 10 10h22q31 0 43.5 12.5t12.5 44.5v495q0 10 10 10h92q10 0 10 -10v-493q0 -159 -162 -159zM175 573h-92q-10 0 -10 10v87q0 10 10 10h92q10 0 10 -10v-87q0 -10 -10 -10z" />
    <glyph glyph-name="uni0459" unicode="&#x459;" horiz-adv-x="813" 
d="M60 -4h-35q-9 0 -9 9v77q0 9 9 9h8q90 0 90 162v220q0 9 9 9h347q9 0 9 -9v-157q0 -6 6 -6h122q72 0 116.5 -43t44.5 -112t-42.5 -112t-112.5 -43h-236q-10 0 -10 9v369q0 6 -6 6h-134q-6 0 -6 -6v-134q0 -133 -41.5 -190.5t-128.5 -57.5zM494 96h106q65 0 65 60
q0 59 -65 59h-106q-6 0 -6 -6v-107q0 -6 6 -6z" />
    <glyph glyph-name="uni045A" unicode="&#x45a;" horiz-adv-x="806" 
d="M176 0h-93q-10 0 -10 9v464q0 9 10 9h93q9 0 9 -9v-161q0 -6 6 -6h172q6 0 6 6v161q0 9 10 9h92q10 0 10 -9v-161q0 -6 6 -6h122q73 0 117 -42t44 -111t-42.5 -111t-112.5 -42h-236q-10 0 -10 9v196q0 6 -6 6h-172q-6 0 -6 -6v-196q0 -9 -9 -9zM487 96h106q65 0 65 58
q0 57 -65 57h-106q-6 0 -6 -6v-103q0 -6 6 -6z" />
    <glyph glyph-name="uni045B" unicode="&#x45b;" horiz-adv-x="548" 
d="M175 0h-92q-10 0 -10 10v517q0 6 -6 6h-66q-10 0 -10 10v68q0 10 10 10h66q6 0 6 6v43q0 10 10 10h92q10 0 10 -10v-43q0 -6 6 -6h103q10 0 10 -10v-68q0 -10 -10 -10h-103q-6 0 -6 -6v-101h1q39 67 130 67q80 0 122 -47.5t42 -134.5v-301q0 -10 -10 -10h-92
q-10 0 -10 10v277q0 106 -91 106q-42 0 -67 -27t-25 -74v-282q0 -10 -10 -10z" />
    <glyph glyph-name="uni045C" unicode="&#x45c;" horiz-adv-x="521" 
d="M176 0h-93q-10 0 -10 9v464q0 9 10 9h93q9 0 9 -9v-174q0 -6 6 -6h29q23 0 42 14.5t28 37.5l24 65q16 41 42.5 58.5t74.5 17.5h35q9 0 9 -9v-73q0 -10 -9 -10h-9q-38 0 -53 -41l-14 -38q-18 -49 -42 -60v-4q31 -9 49 -54l22 -56q12 -29 22.5 -39.5t32.5 -10.5h5q9 0 9 -9
v-77q0 -9 -9 -9h-35q-51 0 -78 19t-43 65l-27 72q-13 29 -32 38t-46 8h-27q-6 0 -6 -6v-183q0 -9 -9 -9zM279 555h-68q-10 0 -6 10l75 125q6 10 18 10h91q5 0 6.5 -3t-1.5 -7l-95 -125q-9 -10 -20 -10z" />
    <glyph glyph-name="uni045D" unicode="&#x45d;" horiz-adv-x="570" 
d="M179 0h-96q-10 0 -10 9v464q0 9 10 9h93q9 0 9 -9v-301h3l189 304q5 6 12 6h98q10 0 10 -9v-464q0 -9 -10 -9h-93q-9 0 -9 9v307h-3l-190 -308q-5 -8 -13 -8zM333 555h-67q-11 0 -20 10l-95 125q-3 4 -1.5 7t6.5 3h91q12 0 18 -10l74 -125q4 -10 -6 -10z" />
    <glyph glyph-name="uni045E" unicode="&#x45e;" horiz-adv-x="485" 
d="M124 -180h-31q-10 0 -10 10v80q0 10 10 10h18q51 0 72 57l14 41l-176 454q-3 10 8 10h99q9 0 12 -10l109 -315h2l104 315q3 10 12 10h95q11 0 8 -10l-184 -502q-32 -86 -67 -117q-34 -33 -95 -33zM249 550q-116 0 -140 112q-3 14 6 15l50 8q9 1 12 -6q20 -56 72 -56
t73 56q3 7 12 6l49 -8q9 -1 6 -15q-25 -112 -140 -112z" />
    <glyph glyph-name="uni045F" unicode="&#x45f;" horiz-adv-x="551" 
d="M318 -114h-86q-8 0 -8 9v99q0 6 -6 6h-135q-10 0 -10 9v464q0 9 10 9h93q9 0 9 -9v-369q0 -6 6 -6h169q6 0 6 6v369q0 9 10 9h93q9 0 9 -9v-464q0 -9 -9 -9h-136q-6 0 -6 -6v-99q0 -9 -9 -9z" />
    <glyph glyph-name="uni0490" unicode="&#x490;" horiz-adv-x="500" 
d="M183 0h-98q-10 0 -10 10v660q0 10 10 10h287q8 0 8 7v111q0 9 9 9h87q9 0 9 -9v-215q0 -9 -10 -9h-276q-6 0 -6 -6v-558q0 -10 -10 -10z" />
    <glyph glyph-name="uni0491" unicode="&#x491;" horiz-adv-x="410" 
d="M175 0h-93q-9 0 -9 9v464q0 9 9 9h214q6 0 6 6v84q0 10 9 10h82q9 0 9 -10v-178q0 -10 -10 -10h-201q-6 0 -6 -6v-369q0 -9 -10 -9z" />
    <glyph glyph-name="Wgrave" unicode="&#x1e80;" horiz-adv-x="827" 
d="M635 0h-76q-9 0 -12 10l-130 465h-2l-131 -465q-3 -10 -12 -10h-75q-9 0 -12 10l-167 660q-1 10 8 10h94q11 0 12 -10l108 -458h2l127 458q3 10 12 10h70q9 0 12 -10l130 -458h2l105 458q1 10 12 10h93q9 0 8 -10l-166 -660q-1 -10 -12 -10zM448 761h-72q-10 0 -18 8
l-116 109q-4 4 -2.5 7t6.5 3h98q12 0 19 -10l89 -107q3 -4 1.5 -7t-5.5 -3z" />
    <glyph glyph-name="wgrave" unicode="&#x1e81;" horiz-adv-x="753" 
d="M568 0h-82q-9 0 -12 10l-93 308h-2l-94 -308q-3 -10 -12 -10h-82q-9 0 -12 10l-152 462q-3 10 7 10h96q10 0 13 -10l93 -318h2l92 318q3 10 13 10h72q10 0 13 -10l98 -318h2l88 318q3 10 13 10h96q10 0 7 -10l-152 -462q-3 -10 -12 -10zM413 555h-67q-11 0 -20 10
l-95 125q-3 4 -1.5 7t6.5 3h91q12 0 18 -10l74 -125q4 -10 -6 -10z" />
    <glyph glyph-name="Wacute" unicode="&#x1e82;" horiz-adv-x="827" 
d="M457 761h-71q-4 0 -5.5 3t1.5 7l88 107q7 10 19 10h98q5 0 7 -3t-2 -7l-117 -109q-8 -8 -18 -8zM635 0h-76q-9 0 -12 10l-130 465h-2l-131 -465q-3 -10 -12 -10h-75q-9 0 -12 10l-167 660q-1 10 8 10h94q11 0 12 -10l108 -458h2l127 458q3 10 12 10h70q9 0 12 -10
l130 -458h2l105 458q1 10 12 10h93q9 0 8 -10l-166 -660q-1 -10 -12 -10z" />
    <glyph glyph-name="wacute" unicode="&#x1e83;" horiz-adv-x="753" 
d="M568 0h-82q-9 0 -12 10l-93 308h-2l-94 -308q-3 -10 -12 -10h-82q-9 0 -12 10l-152 462q-3 10 7 10h96q10 0 13 -10l93 -318h2l92 318q3 10 13 10h72q10 0 13 -10l98 -318h2l88 318q3 10 13 10h96q10 0 7 -10l-152 -462q-3 -10 -12 -10zM417 555h-68q-10 0 -6 10l75 125
q6 10 18 10h91q5 0 6.5 -3t-1.5 -7l-95 -125q-9 -10 -20 -10z" />
    <glyph glyph-name="Wdieresis" unicode="&#x1e84;" horiz-adv-x="827" 
d="M635 0h-76q-9 0 -12 10l-130 465h-2l-131 -465q-3 -10 -12 -10h-75q-9 0 -12 10l-167 660q-1 10 8 10h94q11 0 12 -10l108 -458h2l127 458q3 10 12 10h70q9 0 12 -10l130 -458h2l105 458q1 10 12 10h93q9 0 8 -10l-166 -660q-1 -10 -12 -10zM551 769h-73q-10 0 -10 10v87
q0 10 10 10h73q10 0 10 -10v-87q0 -10 -10 -10zM351 769h-73q-10 0 -10 10v87q0 10 10 10h73q10 0 10 -10v-87q0 -10 -10 -10z" />
    <glyph glyph-name="wdieresis" unicode="&#x1e85;" horiz-adv-x="753" 
d="M568 0h-82q-9 0 -12 10l-93 308h-2l-94 -308q-3 -10 -12 -10h-82q-9 0 -12 10l-152 462q-3 10 7 10h96q10 0 13 -10l93 -318h2l92 318q3 10 13 10h72q10 0 13 -10l98 -318h2l88 318q3 10 13 10h96q10 0 7 -10l-152 -462q-3 -10 -12 -10zM515 573h-77q-10 0 -10 10v87
q0 10 10 10h77q10 0 10 -10v-87q0 -10 -10 -10zM319 573h-77q-10 0 -10 10v87q0 10 10 10h77q10 0 10 -10v-87q0 -10 -10 -10z" />
    <glyph glyph-name="Ygrave" unicode="&#x1ef2;" horiz-adv-x="536" 
d="M321 0h-98q-10 0 -10 10v268l-197 392q-4 10 8 10h101q10 0 14 -10l133 -264h3l134 264q4 10 14 10h97q12 0 8 -10l-197 -392v-268q0 -10 -10 -10zM314 761h-72q-10 0 -18 8l-116 109q-4 4 -2.5 7t6.5 3h98q12 0 19 -10l89 -107q3 -4 1.5 -7t-5.5 -3z" />
    <glyph glyph-name="ygrave" unicode="&#x1ef3;" horiz-adv-x="485" 
d="M124 -180h-31q-10 0 -10 10v80q0 10 10 10h18q28 0 44.5 13t27.5 44l14 41l-176 454q-3 10 8 10h99q9 0 12 -10l109 -315h2l104 315q3 10 12 10h95q11 0 8 -10l-184 -502q-32 -86 -67 -117q-34 -33 -95 -33zM296 555h-67q-11 0 -20 10l-95 125q-3 4 -1.5 7t6.5 3h91
q12 0 18 -10l74 -125q4 -10 -6 -10z" />
    <glyph glyph-name="uni2010" unicode="&#x2010;" horiz-adv-x="385" 
d="M330 216h-275q-10 0 -10 10v79q0 10 10 10h275q10 0 10 -10v-79q0 -10 -10 -10z" />
    <glyph glyph-name="endash" unicode="&#x2013;" horiz-adv-x="519" 
d="M489 219h-459q-10 0 -10 10v73q0 10 10 10h459q10 0 10 -10v-73q0 -10 -10 -10z" />
    <glyph glyph-name="emdash" unicode="&#x2014;" horiz-adv-x="867" 
d="M837 219h-807q-10 0 -10 10v73q0 10 10 10h807q10 0 10 -10v-73q0 -10 -10 -10z" />
    <glyph glyph-name="afii00208" unicode="&#x2015;" horiz-adv-x="867" 
d="M837 219h-807q-10 0 -10 10v73q0 10 10 10h807q10 0 10 -10v-73q0 -10 -10 -10z" />
    <glyph glyph-name="quoteleft" unicode="&#x2018;" horiz-adv-x="223" 
d="M152 488h-81q-10 0 -10 10v94q0 13 8 21l69 62q6 7 14 7q10 0 10 -10v-174q0 -10 -10 -10z" />
    <glyph glyph-name="quoteright" unicode="&#x2019;" horiz-adv-x="223" 
d="M71 486q-10 0 -10 10v174q0 10 10 10h81q10 0 10 -10v-94q0 -13 -8 -21l-68 -62q-7 -7 -15 -7z" />
    <glyph glyph-name="quotesinglbase" unicode="&#x201a;" horiz-adv-x="223" 
d="M71 -90q-10 0 -10 10v174q0 10 10 10h81q10 0 10 -10v-94q0 -13 -8 -21l-68 -62q-7 -7 -15 -7z" />
    <glyph glyph-name="quotedblleft" unicode="&#x201c;" horiz-adv-x="396" 
d="M325 488h-81q-10 0 -10 10v94q0 13 8 21l68 62q7 7 15 7q10 0 10 -10v-174q0 -10 -10 -10zM152 488h-81q-10 0 -10 10v94q0 13 8 21l69 62q6 7 14 7q10 0 10 -10v-174q0 -10 -10 -10z" />
    <glyph glyph-name="quotedblright" unicode="&#x201d;" horiz-adv-x="396" 
d="M244 486q-10 0 -10 10v174q0 10 10 10h81q10 0 10 -10v-94q0 -13 -8 -21l-69 -62q-6 -7 -14 -7zM71 486q-10 0 -10 10v174q0 10 10 10h81q10 0 10 -10v-94q0 -13 -8 -21l-68 -62q-7 -7 -15 -7z" />
    <glyph glyph-name="quotedblbase" unicode="&#x201e;" horiz-adv-x="396" 
d="M244 -90q-10 0 -10 10v174q0 10 10 10h81q10 0 10 -10v-94q0 -13 -8 -21l-69 -62q-6 -7 -14 -7zM71 -90q-10 0 -10 10v174q0 10 10 10h81q10 0 10 -10v-94q0 -13 -8 -21l-68 -62q-7 -7 -15 -7z" />
    <glyph glyph-name="dagger" unicode="&#x2020;" horiz-adv-x="535" 
d="M311 -180h-87q-10 0 -10 10v520q0 6 -6 6h-144q-10 0 -10 10v75q0 10 10 10h144q6 0 6 6v213q0 10 10 10h87q10 0 10 -10v-213q0 -6 6 -6h144q10 0 10 -10v-75q0 -10 -10 -10h-144q-6 0 -6 -6v-520q0 -10 -10 -10z" />
    <glyph glyph-name="daggerdbl" unicode="&#x2021;" horiz-adv-x="535" 
d="M311 -180h-87q-10 0 -10 10v183q0 6 -6 6h-144q-10 0 -10 10v75q0 10 10 10h144q6 0 6 6v260q0 6 -6 6h-144q-10 0 -10 10v75q0 10 10 10h144q6 0 6 6v183q0 10 10 10h87q10 0 10 -10v-183q0 -6 6 -6h144q10 0 10 -10v-75q0 -10 -10 -10h-144q-6 0 -6 -6v-260q0 -6 6 -6
h144q10 0 10 -10v-75q0 -10 -10 -10h-144q-6 0 -6 -6v-183q0 -10 -10 -10z" />
    <glyph glyph-name="bullet" unicode="&#x2022;" horiz-adv-x="458" 
d="M329 208q-39 -39 -100 -39t-100 39t-39 100t39 100t100 39t100 -39t39 -100t-39 -100z" />
    <glyph glyph-name="ellipsis" unicode="&#x2026;" horiz-adv-x="759" 
d="M682 0h-100q-10 0 -10 10v102q0 10 10 10h100q10 0 10 -10v-102q0 -10 -10 -10zM429 0h-100q-10 0 -10 10v102q0 10 10 10h100q10 0 10 -10v-102q0 -10 -10 -10zM176 0h-100q-10 0 -10 10v102q0 10 10 10h100q10 0 10 -10v-102q0 -10 -10 -10z" />
    <glyph glyph-name="perthousand" unicode="&#x2030;" horiz-adv-x="1089" 
d="M222 -11h-66q-11 0 -5 10l395 682q6 10 16 10h65q11 0 5 -10l-395 -682q-6 -10 -15 -10zM70 410q-8 26 -8 99t8 99q12 36 45 58t77 22t77 -22t45 -58q8 -26 8 -99t-8 -99q-12 -36 -45 -58t-77 -22t-77 22t-45 58zM192 402q34 0 43 29q4 9 4 78q0 68 -4 79q-9 28 -43 28
t-44 -28q-4 -11 -4 -79q0 -69 4 -78q11 -29 44 -29zM897 -9q-44 0 -77 22t-45 58q-8 26 -8 99t8 99q12 36 45 58t77 22q45 0 78 -22t44 -58q8 -26 8 -99t-8 -99q-11 -36 -44 -58t-78 -22zM590 -9q-45 0 -78 22t-45 58q-8 30 -8 99t8 99q12 36 45 58t78 22q44 0 77 -22
t45 -58q8 -26 8 -99t-8 -99q-12 -36 -45 -58t-77 -22zM897 63q33 0 44 29q4 9 4 78q0 68 -4 79q-10 28 -44 28t-43 -28q-4 -11 -4 -79q0 -69 4 -78q9 -29 43 -29zM590 63q34 0 43 29q4 9 4 78q0 68 -4 79q-9 28 -43 28t-44 -28q-4 -11 -4 -79q0 -69 4 -78q11 -29 44 -29z
" />
    <glyph glyph-name="guilsinglleft" unicode="&#x2039;" horiz-adv-x="315" 
d="M246 52l-204 205q-7 7 0 14l204 205q3 3 6.5 1.5t3.5 -5.5v-96q0 -11 -10 -21l-87 -87q-4 -4 0 -8l87 -87q10 -10 10 -21v-96q0 -4 -3.5 -5.5t-6.5 1.5z" />
    <glyph glyph-name="guilsinglright" unicode="&#x203a;" horiz-adv-x="315" 
d="M280 257l-204 -205q-3 -3 -6.5 -1.5t-3.5 5.5v96q0 10 9 21l88 87q4 4 0 8l-88 87q-9 11 -9 21v96q0 4 3.5 5.5t6.5 -1.5l204 -205q7 -7 0 -14z" />
    <glyph glyph-name="interrobang" unicode="&#x203d;" horiz-adv-x="464" 
d="M180 190h-1q-10 0 -10 10l-23 283q0 10 10 10h98q10 0 10 -10l-3 -103h3l24 38q20 30 26 50.5t6 50.5q0 35 -22 56t-63 21q-69 0 -89 -53q-3 -10 -11 -8l-90 12q-11 2 -8 12q39 132 202 132q87 0 139 -45.5t52 -122.5q0 -64 -46 -129l-81 -116q-20 -29 -20 -63v-15
q0 -10 -10 -10h-93zM166 10v102q0 10 10 10h100q10 0 10 -10v-102q0 -10 -10 -10h-100q-10 0 -10 10z" />
    <glyph glyph-name="fraction" unicode="&#x2044;" horiz-adv-x="159" 
d="M-84 -11h-66q-11 0 -5 10l395 682q6 10 16 10h65q12 0 6 -10l-395 -682q-6 -10 -16 -10z" />
    <glyph glyph-name="zero.superior" unicode="&#x2070;" horiz-adv-x="349" 
d="M174 422q-102 0 -131 86q-9 28 -9 125t9 125q29 86 131 86q103 0 132 -86q9 -28 9 -125t-9 -125q-29 -86 -132 -86zM174 499q37 0 46 31q4 11 4 103t-4 103q-9 31 -46 31q-36 0 -45 -31q-4 -11 -4 -103t4 -103q9 -31 45 -31z" />
    <glyph glyph-name="four.superior" unicode="&#x2074;" horiz-adv-x="349" 
d="M274 430h-64q-10 0 -10 10v44q0 6 -6 6h-162q-10 0 -10 10v55q0 8 4 15l124 256q4 10 14 10h72q10 0 6 -10l-122 -260v-1h74q6 0 6 6v82q0 10 10 10h64q10 0 10 -10v-82q0 -6 6 -6h17q10 0 10 -10v-55q0 -10 -10 -10h-17q-6 0 -6 -6v-44q0 -10 -10 -10z" />
    <glyph glyph-name="five.superior" unicode="&#x2075;" horiz-adv-x="349" 
d="M173 422q-49 0 -85 22t-44 58q-2 12 5 13l64 22q8 3 11 -5q16 -31 50 -31q36 0 45 28q4 12 4 31q0 20 -4 31q-9 28 -43 28q-24 0 -36 -14q-6 -6 -12 -6h-69q-10 0 -10 10v217q0 10 10 10h235q10 0 10 -10v-57q0 -10 -10 -10h-156q-6 0 -6 -6v-71h1q26 14 58 14
q90 0 112 -70q8 -26 8 -66q0 -31 -8 -58q-27 -80 -130 -80z" />
    <glyph glyph-name="six.superior" unicode="&#x2076;" horiz-adv-x="349" 
d="M174 422q-63 0 -102.5 35.5t-39.5 94.5q0 44 33 104l95 170q4 10 16 10h77q11 0 5 -10l-82 -148l1 -1q5 3 19 3q53 0 87 -35.5t34 -92.5q0 -59 -39.5 -94.5t-103.5 -35.5zM174 499q34 -3 48 24.5t0 55t-48 24.5q-24 0 -39 -14.5t-15 -37.5t15 -37.5t39 -14.5z" />
    <glyph glyph-name="seven.superior" unicode="&#x2077;" horiz-adv-x="349" 
d="M162 430h-70q-10 0 -5 11l133 316v2h-87q-6 0 -6 -6v-43q0 -10 -10 -10h-65q-10 0 -10 10v116q0 10 10 10h249q10 0 10 -10v-63q0 -2 -2 -10l-133 -314q-4 -9 -14 -9z" />
    <glyph glyph-name="eight.superior" unicode="&#x2078;" horiz-adv-x="349" 
d="M30 549q0 57 48 95v1q-38 33 -38 77q0 52 36.5 87t97.5 35t98 -35t37 -87q0 -44 -38 -77v-1q48 -37 48 -95q0 -56 -41 -91.5t-104 -35.5t-103.5 35.5t-40.5 91.5zM174 678q21 0 34 13t13 31q0 19 -13 32t-34 13q-20 0 -33 -13t-13 -32q0 -18 13 -31t33 -13zM231 552
q0 23 -16.5 38.5t-40.5 15.5t-40 -15.5t-16 -38.5t16 -38t40 -15t40.5 15.5t16.5 37.5z" />
    <glyph glyph-name="nine.superior" unicode="&#x2079;" horiz-adv-x="349" 
d="M173 430h-77q-11 0 -5 10l82 148l-1 1q-4 -3 -19 -3q-53 0 -87 35.5t-34 92.5q0 59 39.5 94.5t102.5 35.5q64 0 103.5 -35.5t39.5 -94.5q0 -44 -33 -104l-95 -170q-6 -10 -16 -10zM174 663q34 -3 48 24.5t0 55t-48 24.5q-24 0 -39 -14.5t-15 -37.5t15 -37.5t39 -14.5z
" />
    <glyph glyph-name="zero.inferior" unicode="&#x2080;" horiz-adv-x="349" 
d="M174 -164q-102 0 -131 86q-9 28 -9 125t9 125q29 86 131 86q103 0 132 -86q9 -28 9 -125t-9 -125q-29 -86 -132 -86zM174 -87q37 0 46 31q4 11 4 103t-4 103q-9 31 -46 31q-36 0 -45 -31q-4 -11 -4 -103t4 -103q9 -31 45 -31z" />
    <glyph glyph-name="one.inferior" unicode="&#x2081;" horiz-adv-x="349" 
d="M233 -156h-67q-10 0 -10 10v294h-2l-63 -41q-4 -2 -7 0t-3 7v72q0 10 8 15l62 42q10 7 17 7h65q10 0 10 -10v-386q0 -10 -10 -10z" />
    <glyph glyph-name="two.inferior" unicode="&#x2082;" horiz-adv-x="349" 
d="M298 -156h-245q-10 0 -10 10v57q0 8 6 14l144 158q27 29 27 55q0 43 -43 43q-41 0 -49 -42q-1 -10 -11 -8l-65 14q-10 1 -8 11q4 36 40 69q34 33 94 33q57 0 93.5 -34t36.5 -86q0 -50 -44 -100l-109 -116v-1h143q10 0 10 -10v-57q0 -10 -10 -10z" />
    <glyph glyph-name="three.inferior" unicode="&#x2083;" horiz-adv-x="349" 
d="M178 -164q-55 0 -92 23t-48 68q-1 12 7 13l64 16q7 1 12 -8q17 -35 55 -35q23 0 37.5 14t14.5 36q0 23 -15 36.5t-42 13.5h-20q-10 0 -10 10v57q0 10 10 10h15q52 0 52 45q0 46 -46 46q-34 0 -48 -29q-4 -7 -13 -6l-60 14q-9 1 -7 12q9 39 44 62.5t86 23.5q62 0 97 -31
t35 -85q0 -50 -41 -83v-1q20 -9 35.5 -35t15.5 -58q0 -59 -37.5 -94t-100.5 -35z" />
    <glyph glyph-name="four.inferior" unicode="&#x2084;" horiz-adv-x="349" 
d="M274 -156h-64q-10 0 -10 10v44q0 6 -6 6h-162q-10 0 -10 10v55q0 8 4 15l124 256q4 10 14 10h72q10 0 6 -10l-122 -260v-1h74q6 0 6 6v82q0 10 10 10h64q10 0 10 -10v-82q0 -6 6 -6h17q10 0 10 -10v-55q0 -10 -10 -10h-17q-6 0 -6 -6v-44q0 -10 -10 -10z" />
    <glyph glyph-name="five.inferior" unicode="&#x2085;" horiz-adv-x="349" 
d="M173 -164q-49 0 -85 22t-44 58q-2 12 5 13l64 22q8 3 11 -5q16 -31 50 -31q36 0 45 28q4 12 4 31q0 20 -4 31q-9 28 -43 28q-24 0 -36 -14q-6 -6 -12 -6h-69q-10 0 -10 10v217q0 10 10 10h235q10 0 10 -10v-57q0 -10 -10 -10h-156q-6 0 -6 -6v-71h1q26 14 58 14
q90 0 112 -70q8 -26 8 -66q0 -31 -8 -58q-27 -80 -130 -80z" />
    <glyph glyph-name="six.inferior" unicode="&#x2086;" horiz-adv-x="349" 
d="M174 -164q-63 0 -102.5 35.5t-39.5 94.5q0 44 33 104l95 170q4 10 16 10h77q11 0 5 -10l-82 -148l1 -1q5 3 19 3q53 0 87 -35.5t34 -92.5q0 -59 -39.5 -94.5t-103.5 -35.5zM174 -87q34 -3 48 24.5t0 55t-48 24.5q-24 0 -39 -14.5t-15 -37.5t15 -37.5t39 -14.5z" />
    <glyph glyph-name="seven.inferior" unicode="&#x2087;" horiz-adv-x="349" 
d="M162 -156h-70q-10 0 -5 11l133 316v2h-87q-6 0 -6 -6v-43q0 -10 -10 -10h-65q-10 0 -10 10v116q0 10 10 10h249q10 0 10 -10v-63q0 -2 -2 -10l-133 -314q-4 -9 -14 -9z" />
    <glyph glyph-name="eight.inferior" unicode="&#x2088;" horiz-adv-x="349" 
d="M30 -37q0 57 48 95v1q-38 33 -38 77q0 52 36.5 87t97.5 35t98 -35t37 -87q0 -44 -38 -77v-1q48 -38 48 -95q0 -56 -41 -91.5t-104 -35.5t-103.5 35.5t-40.5 91.5zM174 92q21 0 34 13t13 31q0 19 -13 32t-34 13q-20 0 -33 -13t-13 -32q0 -18 13 -31t33 -13zM231 -34
q0 23 -16.5 38.5t-40.5 15.5t-40 -15.5t-16 -38.5t16 -38t40 -15t40.5 15.5t16.5 37.5z" />
    <glyph glyph-name="nine.inferior" unicode="&#x2089;" horiz-adv-x="349" 
d="M173 -156h-77q-11 0 -5 10l82 148l-1 1q-4 -3 -19 -3q-53 0 -87 35.5t-34 92.5q0 59 39.5 94.5t102.5 35.5q64 0 103.5 -35.5t39.5 -94.5q0 -44 -33 -104l-95 -170q-6 -10 -16 -10zM174 77q34 -3 48 24.5t0 55t-48 24.5q-24 0 -39 -14.5t-15 -37.5t15 -37.5t39 -14.5z
" />
    <glyph glyph-name="Euro" unicode="&#x20ac;" 
d="M93 232q0 6 -6 6h-37q-10 0 -10 10v58q0 10 10 10h37q6 0 6 6v41q0 6 -6 6h-37q-10 0 -10 10v58q0 10 10 10h37q6 0 6 6q0 52 13 94q46 144 204 144q137 0 194 -120q5 -8 -5 -13l-73 -35q-9 -4 -14 4q-37 64 -102 64q-73 0 -95 -70q-9 -24 -9 -68q0 -6 6 -6h182
q10 0 10 -10l-10 -58q-1 -10 -10 -10h-172q-6 0 -6 -6v-41q0 -6 6 -6h162q10 0 10 -10l-10 -58q-1 -10 -10 -10h-152q-6 0 -6 -6q0 -49 9 -73q22 -70 95 -70q65 0 102 64q5 8 14 4l73 -35q10 -5 5 -13q-57 -120 -194 -120q-158 0 -204 144q-13 42 -13 99z" />
    <glyph glyph-name="afii61248" unicode="&#x2105;" horiz-adv-x="782" 
d="M144 -1l395 682q6 10 16 10h65q11 0 5 -10l-395 -682q-6 -10 -15 -10h-66q-11 0 -5 10zM195 330q-51 0 -87 24.5t-49 69.5q-10 30 -10 84t10 84q13 45 49 69.5t87 24.5q70 0 115 -53q2 -5 -1 -9l-47 -42q-5 -3 -9 1q-23 26 -56 26q-43 0 -56 -42q-7 -21 -7 -59
q0 -39 7 -59q15 -42 56 -42q33 0 56 26q5 5 9 0l47 -41q3 -1 1 -10q-45 -52 -115 -52zM587 -11q-52 0 -88.5 24.5t-49.5 69.5q-10 36 -10 85t10 85q13 45 49.5 69.5t88.5 24.5q50 0 85.5 -25t49.5 -69q12 -37 12 -85t-12 -85q-14 -44 -49.5 -69t-85.5 -25zM644 108
q6 26 6 60t-6 60q-13 43 -57 43t-57 -43q-6 -20 -6 -60t6 -60q13 -43 57 -43t57 43z" />
    <glyph glyph-name="afii61289" unicode="&#x2113;" horiz-adv-x="446" 
d="M122 173l-34 -25q-8 -5 -14 2l-39 56q-5 10 2 14l85 64v204q0 97 39 150t113 53q62 0 99 -39.5t37 -107.5q0 -77 -43 -150t-133 -151v-95q0 -59 44 -59q26 0 58 26q9 8 14 -2l38 -55q4 -7 -3 -14q-55 -55 -131 -55q-132 0 -132 158v26zM234 502v-139q81 84 81 180
q0 60 -38 60q-22 0 -32.5 -22.5t-10.5 -78.5z" />
    <glyph glyph-name="uni2116" unicode="&#x2116;" horiz-adv-x="947" 
d="M178 0h-93q-10 0 -10 10v661q0 9 10 9h87q8 0 12 -6l256 -449h3v446q0 9 10 9h94q9 0 9 -9v-661q0 -10 -9 -10h-88q-9 0 -12 7l-256 450h-3v-447q0 -10 -10 -10zM876 137h-232q-10 0 -10 9v58q0 9 10 9h232q10 0 10 -9v-58q0 -9 -10 -9zM761 262q-144 0 -144 152t144 152
q142 0 142 -152t-142 -152zM761 329q31 0 45.5 20t14.5 65t-14.5 65t-45.5 20q-32 0 -46.5 -20t-14.5 -65t14.5 -65t46.5 -20z" />
    <glyph glyph-name="published" unicode="&#x2117;" horiz-adv-x="826" 
d="M663 90q-101 -101 -250 -101t-250 101q-101 103 -101 250q0 148 101 249q101 102 250 102t250 -102q101 -101 101 -249q0 -147 -101 -250zM219 143q78 -78 194 -78q117 0 193 78q78 79 78 197t-78 196q-76 79 -193 79q-116 0 -194 -79q-77 -79 -77 -196t77 -197zM361 140
h-65q-9 0 -9 9v368q0 9 9 9h124q160 0 160 -121q0 -135 -160 -135h-45q-5 0 -5 -5v-116q0 -9 -9 -9zM374 339h31q49 0 71 13.5t22 49.5q0 32 -22 45t-71 13h-31q-4 0 -4 -3v-114q0 -4 4 -4z" />
    <glyph glyph-name="trademark" unicode="&#x2122;" horiz-adv-x="848" 
d="M784 286h-58q-10 0 -10 10v204h-2l-68 -147q-4 -10 -13 -10h-46q-8 0 -12 10l-69 147h-2v-204q0 -10 -10 -10h-58q-10 0 -10 10v374q0 10 10 10h53q10 0 14 -10l107 -232h3l104 232q4 10 14 10h53q10 0 10 -10v-374q0 -10 -10 -10zM231 286h-63q-10 0 -10 10v305
q0 6 -6 6h-100q-10 0 -10 10v53q0 10 10 10h295q10 0 10 -10v-53q0 -10 -10 -10h-100q-6 0 -6 -6v-305q0 -10 -10 -10z" />
    <glyph glyph-name="Omega" unicode="&#x2126;" horiz-adv-x="634" 
d="M571 0h-202q-10 0 -10 10v85q0 10 10 13q91 27 91 232q0 111 -14 156q-29 89 -129 89t-129 -89q-14 -45 -14 -156q0 -205 91 -232q10 -3 10 -13v-85q0 -10 -10 -10h-202q-10 0 -10 10v86q0 10 10 10h66v2q-40 31 -58 81q-17 53 -17 151q0 127 19 184q26 81 90 124t154 43
t154 -43t90 -124q19 -57 19 -184q0 -100 -18 -151q-16 -49 -57 -81v-2h66q10 0 10 -10v-86q0 -10 -10 -10z" />
    <glyph glyph-name="estimated" unicode="&#x212e;" horiz-adv-x="599" 
d="M298 -11q-106 0 -170 72q-64 73 -64 181q0 109 64 179q64 72 170 72q107 0 171 -70q65 -69 66 -181h-369v-166q53 -52 132 -52q114 0 175 109l33 -21q-43 -66 -91 -94.5t-117 -28.5zM166 275h266v132q-59 55 -134 55q-80 0 -132 -55v-132z" />
    <glyph glyph-name="onethird" unicode="&#x2153;" horiz-adv-x="893" 
d="M243 274h-67q-10 0 -10 10v294h-2l-63 -41q-4 -2 -7 0t-3 7v72q0 10 8 15l62 42q10 7 17 7h65q10 0 10 -10v-386q0 -10 -10 -10zM665 -8q-55 0 -92 23t-48 68q-1 12 7 13l64 16q7 1 12 -8q17 -35 55 -35q23 0 37.5 14t14.5 36q0 23 -15 36.5t-42 13.5h-20q-10 0 -10 10
v57q0 10 10 10h15q52 0 52 45q0 46 -46 46q-33 0 -48 -29q-4 -7 -13 -6l-60 14q-9 1 -7 12q9 39 44 62.5t86 23.5q62 0 97 -31t35 -85q0 -50 -41 -83v-1q20 -9 35.5 -35t15.5 -58q0 -59 -37.5 -94t-100.5 -35zM239 -11h-66q-11 0 -5 10l395 682q6 10 16 10h65q12 0 6 -10
l-395 -682q-6 -10 -16 -10z" />
    <glyph glyph-name="twothirds" unicode="&#x2154;" horiz-adv-x="994" 
d="M767 -8q-55 0 -92 23t-48 68q-1 12 7 13l64 16q7 1 12 -8q17 -35 55 -35q23 0 37.5 14t14.5 36q0 23 -15 36.5t-42 13.5h-20q-10 0 -10 10v57q0 10 10 10h15q52 0 52 45q0 46 -46 46q-34 0 -48 -29q-4 -7 -13 -6l-60 14q-9 1 -7 12q9 39 44 62.5t86 23.5q62 0 97 -31
t35 -85q0 -50 -41 -83v-1q20 -9 35.5 -35t15.5 -58q0 -59 -37.5 -94t-100.5 -35zM346 274h-245q-10 0 -10 10v57q0 8 6 14l144 158q27 29 27 55q0 43 -43 43q-41 0 -49 -42q-1 -10 -11 -8l-65 14q-10 1 -8 11q4 36 40 69q34 33 94 33q57 0 93.5 -34t36.5 -86q0 -50 -44 -100
l-109 -116v-1h143q10 0 10 -10v-57q0 -10 -10 -10zM341 -11h-66q-11 0 -5 10l395 682q6 10 16 10h65q12 0 6 -10l-395 -682q-6 -10 -16 -10z" />
    <glyph glyph-name="oneeighth" unicode="&#x215b;" horiz-adv-x="894" 
d="M515 119q0 57 48 95v1q-38 33 -38 77q0 52 36.5 87t97.5 35t98 -35t37 -87q0 -44 -38 -77v-1q48 -38 48 -95q0 -56 -41 -91.5t-104 -35.5t-103.5 35.5t-40.5 91.5zM659 248q21 0 34 13t13 31q0 19 -13 32t-34 13q-20 0 -33 -13t-13 -32q0 -18 13 -31t33 -13zM716 122
q0 23 -16.5 38.5t-40.5 15.5t-40 -15.5t-16 -38.5t16 -38t40 -15t40.5 15.5t16.5 37.5zM239 -11h-66q-11 0 -5 10l395 682q6 10 16 10h65q12 0 6 -10l-395 -682q-6 -10 -16 -10zM243 274h-67q-10 0 -10 10v294h-2l-63 -41q-4 -2 -7 0t-3 7v72q0 10 8 15l62 42q10 7 17 7h65
q10 0 10 -10v-386q0 -10 -10 -10z" />
    <glyph glyph-name="threeeighths" unicode="&#x215c;" horiz-adv-x="969" 
d="M592 119q0 57 48 95v1q-38 33 -38 77q0 52 36.5 87t97.5 35t98 -35t37 -87q0 -44 -38 -77v-1q48 -38 48 -95q0 -56 -41 -91.5t-104 -35.5t-103.5 35.5t-40.5 91.5zM736 248q21 0 34 13t13 31q0 19 -13 32t-34 13q-20 0 -33 -13t-13 -32q0 -18 13 -31t33 -13zM793 122
q0 23 -16.5 38.5t-40.5 15.5t-40 -15.5t-16 -38.5t16 -38t40 -15t40.5 15.5t16.5 37.5zM233 266q-55 0 -92 23t-48 68q-1 12 7 13l64 16q7 1 12 -8q17 -35 55 -35q23 0 37.5 14t14.5 36q0 23 -15 36.5t-42 13.5h-20q-10 0 -10 10v57q0 10 10 10h15q52 0 52 45q0 46 -46 46
q-33 0 -48 -29q-4 -7 -13 -6l-60 14q-9 1 -7 12q9 39 44 62.5t86 23.5q62 0 97 -31t35 -85q0 -50 -41 -83v-1q20 -9 35.5 -35t15.5 -58q0 -59 -37.5 -94t-100.5 -35zM316 -11h-66q-11 0 -5 10l395 682q6 10 16 10h65q12 0 6 -10l-395 -682q-6 -10 -16 -10z" />
    </font>
</defs>
</svg>
